<svg width="33" height="33" viewBox="0 0 33 33" fill="none" xmlns="http://www.w3.org/2000/svg">
<path d="M20.7871 24.2649C20.7871 24.2649 21.9107 23.6022 22.032 24.7149C22.1371 25.6722 21.6117 26.793 21.6117 26.793C21.6117 26.793 23.2283 30.7529 21.2398 31.6938C21.0054 31.8084 20.7386 31.8574 20.48 31.8574H17.3274C16.608 31.8574 16.3574 30.8593 16.9798 30.4829C16.9879 30.4748 16.996 30.4748 17.0122 30.4666L20.48 29.8121L20.7871 24.2649Z" fill="white" stroke="#420071" strokeWidth="0.2" strokeMiterlimit="10" strokeLinecap="round" strokeLineJoin="round"/>
<path d="M18.7823 24.6331C18.8874 23.3486 21.2558 23.3077 21.3771 24.6331C21.3771 24.6331 21.6923 25.7458 21.0618 26.9076C21.0618 26.9076 22.5087 29.1002 21.563 30.7038C21.3609 31.0393 20.9971 31.2356 20.6172 31.2356H17.3111C16.6725 31.2356 16.1552 30.7038 16.1956 30.0575C16.2441 29.2884 16.6968 28.3884 18.4913 28.2084L18.7823 24.6331Z" fill="#0086FB" stroke="#420071" strokeWidth="0.2" strokeMiterlimit="10" strokeLinecap="round" strokeLineJoin="round"/>
<path opacity="0.3" d="M16.9634 28.9611C17.0685 28.8548 17.214 28.7893 17.3514 28.7402C18.0951 28.4702 19.0085 28.4948 19.2429 29.1002C19.2833 29.1984 19.2914 29.3293 19.1863 29.4356C19.1298 29.4929 19.0489 29.5256 18.9762 29.542C18.9034 29.5502 18.8388 29.542 18.7741 29.542C18.4103 29.5011 18.0304 29.5011 17.6424 29.542C17.505 29.5584 17.3595 29.5747 17.2221 29.5666C17.0927 29.5584 16.9634 29.5175 16.8906 29.4356C16.7936 29.3129 16.8098 29.1166 16.9634 28.9611Z" fill="white"/>
<path d="M18.4349 28.1265C19.0108 28.1265 19.4776 27.3024 19.4776 26.2857C19.4776 25.269 19.0108 24.4448 18.4349 24.4448C17.859 24.4448 17.3921 25.269 17.3921 26.2857C17.3921 27.3024 17.859 28.1265 18.4349 28.1265Z" fill="white" stroke="#420071" strokeWidth="0.2" strokeMiterlimit="10" strokeLinecap="round" strokeLineJoin="round"/>
<path d="M18.4668 28.2576C18.4668 28.2576 19.5096 28.1349 19.8167 28.9285" stroke="#420071" strokeWidth="0.2" strokeMiterlimit="10" strokeLinecap="round" strokeLineJoin="round"/>
<path d="M14.7243 21.5159L16.5916 21.4995C16.4865 23.2667 16.3895 24.3058 16.7937 24.8212C17.117 25.2303 17.602 25.3449 18.0224 25.353C18.4993 25.3612 18.8792 25.7457 18.8792 26.2285C18.8792 26.7112 18.4912 27.1039 18.0062 27.1039C13.439 27.0875 14.7243 21.5159 14.7243 21.5159Z" fill="#A01010" stroke="#420071" strokeWidth="0.2" strokeMiterlimit="10" strokeLinecap="round" strokeLineJoin="round"/>
<path d="M16.2116 24.5185C16.3328 24.4694 16.4541 24.4122 16.5753 24.3631C16.4298 23.774 16.5026 22.8495 16.5834 21.4995L14.7161 21.5159C14.7161 21.5159 14.2149 23.1767 14.7565 24.7558C15.2011 24.7803 15.7589 24.6985 16.2116 24.5185Z" fill="#420071" stroke="#420071" strokeWidth="0.2" strokeMiterlimit="10" strokeLinecap="round" strokeLineJoin="round"/>
<path d="M12.647 21.6223C12.647 21.6223 11.4668 25.394 10.2866 28.3148L11.968 29.0839C12.9299 26.1549 14.587 22.0478 14.587 22.0478L12.647 21.6223Z" fill="#A01010" stroke="#420071" strokeWidth="0.2" strokeMiterlimit="10" strokeLinecap="round" strokeLineJoin="round"/>
<path d="M11.992 24.4368C12.5013 24.5759 13.0267 24.6495 13.5602 24.6904C14.1341 23.185 14.5949 22.0478 14.5949 22.0478L12.6549 21.6223C12.6549 21.6223 12.283 22.8086 11.7495 24.3631C11.8223 24.3877 11.9031 24.4122 11.992 24.4368Z" fill="#420071" stroke="#420071" strokeWidth="0.2" strokeMiterlimit="10" strokeLinecap="round" strokeLineJoin="round"/>
<path d="M12.5823 29.1005C12.3156 29.485 11.976 28.9941 11.3132 28.5277C10.6584 28.0614 9.93094 27.8078 10.1977 27.4232C10.4644 27.0387 11.2081 27.1041 11.871 27.5623C12.5338 28.0287 12.8491 28.7159 12.5823 29.1005Z" fill="white" stroke="#420071" strokeWidth="0.2" strokeMiterlimit="10" strokeLinecap="round" strokeLineJoin="round"/>
<path d="M12.849 30.1313C12.849 30.1313 12.849 30.7694 12.3963 31.2603C12.2912 31.3749 12.1619 31.4812 11.9921 31.5712C11.984 31.5794 11.9679 31.5794 11.9598 31.5876C10.5209 31.1212 9.3165 29.7058 8.3384 27.3823C8.0474 26.6787 7.51389 26.0978 6.81872 25.795C6.00229 25.4432 5.42836 26.065 5.03228 27.0468C4.93527 26.5968 4.99186 26.0323 5.20203 25.5087C5.4607 24.846 6.26096 24.1424 6.94805 23.9951C7.88573 23.7824 8.90424 24.1015 9.6075 24.7642C10.4643 25.5823 10.5371 26.7441 10.5533 27.865C10.5533 27.865 12.9379 28.7404 12.849 30.1313Z" fill="#0086FB" stroke="#420071" strokeWidth="0.2" strokeMiterlimit="10" strokeLinecap="round" strokeLineJoin="round"/>
<path opacity="0.3" d="M7.72404 24.1341C7.8938 24.1095 8.07972 24.1423 8.24139 24.1914C9.12248 24.4532 9.96316 25.1159 9.76916 25.8604C9.73682 25.9831 9.65599 26.114 9.49432 26.1386C9.4054 26.1549 9.3084 26.1304 9.22757 26.0895C9.15481 26.0486 9.09823 25.9995 9.03356 25.9422C8.71831 25.6559 8.36264 25.3859 7.96655 25.1486C7.82105 25.0668 7.67554 24.985 7.55429 24.8786C7.43304 24.7804 7.34412 24.6577 7.32796 24.5186C7.31987 24.3632 7.46537 24.175 7.72404 24.1341Z" fill="white"/>
<path d="M12.2023 30.9494L12.2104 30.9576C12.4933 31.1949 12.2831 31.6285 11.9194 31.604H11.9113C10.4078 31.1212 9.33266 29.7713 8.31415 27.3495C8.00698 26.6214 7.22288 26.2368 6.50346 25.9259C5.6547 25.5578 5.43644 26.0323 5.02419 27.055C4.83019 26.8259 4.66852 26.5068 4.95144 25.7705C5.12927 25.3205 5.52536 24.9932 5.9942 24.9442H6.00228C6.64896 24.8787 7.29564 25.1732 7.78064 25.615C8.26565 26.0568 8.59707 26.6377 8.87999 27.235C9.16291 27.8241 9.40541 28.4377 9.73683 29.0104C10.0683 29.5749 10.5048 30.0985 11.0787 30.4094C11.402 30.5813 11.7658 30.6876 12.081 30.884C12.1376 30.9003 12.17 30.9249 12.2023 30.9494Z" fill="white" stroke="#420071" strokeWidth="0.2" strokeMiterlimit="10" strokeLinecap="round" strokeLineJoin="round"/>
<path d="M10.2866 31.8985C7.09366 31.6122 5.54972 29.8286 5.04047 27.0959C4.95963 26.6541 5.08897 26.196 5.42039 25.9014C5.79223 25.566 6.26915 25.566 6.82691 25.8032C7.52208 26.106 8.04751 26.6869 8.34659 27.3905C9.32469 29.714 10.5291 31.1295 11.968 31.5958C11.4426 31.8413 10.8605 31.9558 10.2866 31.8985Z" fill="#0086FB" stroke="#420071" strokeWidth="0.2" strokeMiterlimit="10" strokeLinecap="round" strokeLineJoin="round"/>
<path opacity="0.38" d="M10.2866 31.8985C7.09366 31.6122 5.54972 29.8286 5.04047 27.0959C4.95963 26.6541 5.08897 26.196 5.42039 25.9014C5.79223 25.566 6.26915 25.566 6.82691 25.8032C7.52208 26.106 8.04751 26.6869 8.34659 27.3905C9.32469 29.714 10.5291 31.1295 11.968 31.5958C11.4426 31.8413 10.8605 31.9558 10.2866 31.8985Z" fill="#420071" stroke="#420071" strokeWidth="0.2" strokeMiterlimit="10" strokeLinecap="round" strokeLineJoin="round"/>
<path d="M10.8929 31.0476H7.47363" stroke="#420071" strokeWidth="0.2" strokeMiterlimit="10" strokeLinecap="round" strokeLineJoin="round"/>
<path d="M9.34885 15.0933C9.34885 15.0933 5.9053 16.1651 3.98145 8.94891L5.6628 8.42529C5.6628 8.42529 6.91573 13.007 9.72069 12.5243" fill="#A01010"/>
<path d="M9.34885 15.0933C9.34885 15.0933 5.9053 16.1651 3.98145 8.94891L5.6628 8.42529C5.6628 8.42529 6.91573 13.007 9.72069 12.5243" stroke="#420071" strokeWidth="0.2" strokeMiterlimit="10" strokeLinecap="round" strokeLineJoin="round"/>
<path d="M4.95974 9.38761C5.70154 9.12533 6.16563 8.51501 5.99631 8.02443C5.82699 7.53384 5.08838 7.34876 4.34658 7.61104C3.60477 7.87332 3.14068 8.48364 3.31 8.97422C3.47932 9.46481 4.21793 9.64989 4.95974 9.38761Z" fill="white" stroke="#420071" strokeWidth="0.2" strokeMiterlimit="10" strokeLinecap="round" strokeLineJoin="round"/>
<path d="M2.63955 4.93183C2.63955 4.93183 2.63955 3.63096 4.05415 4.0564C4.05415 4.0564 1.66145 1.92101 2.63147 1.17649C3.71465 0.47287 4.74124 1.95374 5.75167 4.18731C5.85676 4.41639 5.98609 4.62911 6.14776 4.82547C6.14776 4.82547 7.20669 6.20816 6.35793 7.55812C5.97801 8.16355 5.31517 8.54809 4.60383 8.589C4.40982 8.59718 4.19965 8.589 3.9814 8.54809C3.9814 8.54809 2.67188 9.62806 1.94437 8.1881C0.408519 7.44357 0.820774 5.15273 2.63955 4.93183Z" fill="white" stroke="#420071" strokeWidth="0.2" strokeMiterlimit="10" strokeLinecap="round" strokeLineJoin="round"/>
<path d="M2.38084 5.95459C3.65803 6.93638 3.17302 8.34361 1.94434 8.17998Z" fill="white"/>
<path d="M2.38084 5.95459C3.65803 6.93638 3.17302 8.34361 1.94434 8.17998" stroke="#420071" strokeWidth="0.2" strokeMiterlimit="10" strokeLinecap="round" strokeLineJoin="round"/>
<path d="M3.95692 6.72353C3.92458 7.11624 3.64166 7.46805 3.23749 7.55805C2.63932 7.69714 2.05731 7.06716 1.67739 6.00355C1.55613 5.67629 1.60463 5.30812 1.83097 5.04631C1.98456 4.85813 2.23514 4.71086 2.62315 4.74359" fill="white"/>
<path d="M3.95692 6.72353C3.92458 7.11624 3.64166 7.46805 3.23749 7.55805C2.63932 7.69714 2.05731 7.06716 1.67739 6.00355C1.55613 5.67629 1.60463 5.30812 1.83097 5.04631C1.98456 4.85813 2.23514 4.71086 2.62315 4.74359" stroke="#420071" strokeWidth="0.2" strokeMiterlimit="10" strokeLinecap="round" strokeLineJoin="round"/>
<path d="M4.09445 4.73552C4.1187 4.72734 4.77346 5.02187 4.97555 5.57822C5.16955 6.10184 4.84621 6.69091 4.30462 6.81364C3.64178 6.96091 3.01127 6.18366 2.63135 4.93188" fill="white"/>
<path d="M4.09445 4.73552C4.1187 4.72734 4.77346 5.02187 4.97555 5.57822C5.16955 6.10184 4.84621 6.69091 4.30462 6.81364C3.64178 6.96091 3.01127 6.18366 2.63135 4.93188" stroke="#420071" strokeWidth="0.2" strokeMiterlimit="10" strokeLinecap="round" strokeLineJoin="round"/>
<path d="M5.42048 5.04639C5.42048 5.04639 3.90079 5.91363 3.93313 6.93633C3.94929 7.42723 4.41005 7.78722 4.87081 7.63177C5.19414 7.5254 5.6064 7.18178 6.05099 6.35544" fill="white"/>
<path d="M5.42048 5.04639C5.42048 5.04639 3.90079 5.91363 3.93313 6.93633C3.94929 7.42723 4.41005 7.78722 4.87081 7.63177C5.19414 7.5254 5.6064 7.18178 6.05099 6.35544" stroke="#420071" strokeWidth="0.2" strokeMiterlimit="10" strokeLinecap="round" strokeLineJoin="round"/>
<path d="M7.48956 20.2478C7.38448 20.0597 7.28748 19.8633 7.19856 19.6588C6.47913 17.9979 6.55188 16.2389 6.76205 14.488C6.98031 12.5899 7.53806 10.7408 8.28982 8.99816C8.79908 7.82001 9.34067 6.4046 10.1248 5.39008C11.4424 3.68013 13.2935 2.42017 15.5083 2.42017C18.8387 2.42017 21.5386 5.10372 21.5386 8.40908C21.5386 9.4236 21.288 10.3727 20.8434 11.2072C20.2937 12.2381 20.3665 13.4898 21.0697 14.4144C22.0559 15.7071 22.4278 17.4006 22.0559 18.996C21.2799 22.3341 17.5939 24.0277 14.4656 24.0277C11.6283 24.0359 8.87991 22.7596 7.48956 20.2478Z" fill="#A01010" stroke="#420071" strokeWidth="0.2" strokeMiterlimit="10" strokeLinecap="round" strokeLineJoin="round"/>
<path d="M8.35446 18.1288C8.35446 18.4806 8.19279 18.767 7.99071 18.767C7.78862 18.767 7.62695 18.4806 7.62695 18.1288C7.62695 17.777 7.78862 17.4906 7.99071 17.4906C8.19279 17.4825 8.35446 17.777 8.35446 18.1288Z" fill="#D31818" stroke="#420071" strokeWidth="0.2" strokeMiterlimit="10" strokeLinecap="round" strokeLineJoin="round"/>
<path d="M8.4436 19.5114C8.52444 19.7323 8.4921 19.945 8.37085 19.9859C8.2496 20.0268 8.08793 19.8878 8.01518 19.6669C7.93435 19.4459 7.96668 19.2332 8.08793 19.1923C8.20918 19.1432 8.37085 19.2905 8.4436 19.5114Z" fill="#D31818" stroke="#420071" strokeWidth="0.2" strokeMiterlimit="10" strokeLinecap="round" strokeLineJoin="round"/>
<path d="M9.00899 18.6851C9.03324 18.9142 8.95241 19.1187 8.82307 19.1269C8.69374 19.1433 8.57248 18.9633 8.54823 18.726C8.52398 18.4969 8.60482 18.2924 8.73415 18.2842C8.86349 18.276 8.98474 18.4478 9.00899 18.6851Z" fill="#D31818" stroke="#420071" strokeWidth="0.2" strokeMiterlimit="10" strokeLinecap="round" strokeLineJoin="round"/>
<path d="M19.9622 8.78538C20.0915 8.45812 20.3421 8.2454 20.528 8.31903C20.7139 8.39267 20.7624 8.71993 20.6412 9.04719C20.5118 9.37446 20.2612 9.58718 20.0753 9.51354C19.8894 9.44809 19.8328 9.12083 19.9622 8.78538Z" fill="#D31818" stroke="#420071" strokeWidth="0.2" strokeMiterlimit="10" strokeLinecap="round" strokeLineJoin="round"/>
<path d="M20.3662 7.45998C20.3743 7.22272 20.4794 7.04272 20.6006 7.04272C20.7299 7.04272 20.8269 7.23908 20.8269 7.46817C20.8189 7.70543 20.7138 7.88543 20.5925 7.88543C20.4551 7.88543 20.3581 7.69725 20.3662 7.45998Z" fill="#D31818" stroke="#420071" strokeWidth="0.2" strokeMiterlimit="10" strokeLinecap="round" strokeLineJoin="round"/>
<path d="M19.55 8.03278C19.6066 7.8037 19.7602 7.64825 19.8814 7.68916C20.0027 7.72188 20.0512 7.9346 19.9946 8.1555C19.938 8.38459 19.7844 8.54004 19.6632 8.49913C19.5419 8.4664 19.4853 8.25368 19.55 8.03278Z" fill="#D31818" stroke="#420071" strokeWidth="0.2" strokeMiterlimit="10" strokeLinecap="round" strokeLineJoin="round"/>
<path d="M19.2753 20.0515C19.4046 19.7242 19.6552 19.5115 19.8411 19.5851C20.0271 19.6588 20.0756 19.986 19.9543 20.3133C19.825 20.6406 19.5744 20.8533 19.3885 20.7797C19.1945 20.7142 19.146 20.3869 19.2753 20.0515Z" fill="#D31818" stroke="#420071" strokeWidth="0.2" strokeMiterlimit="10" strokeLinecap="round" strokeLineJoin="round"/>
<path d="M19.7925 18.9961C19.8006 18.7589 19.9056 18.5789 20.0269 18.5789C20.1562 18.5789 20.2532 18.7752 20.2532 19.0043C20.2452 19.2416 20.1401 19.4216 20.0188 19.4216C19.8895 19.4216 19.7925 19.2334 19.7925 18.9961Z" fill="#D31818" stroke="#420071" strokeWidth="0.2" strokeMiterlimit="10" strokeLinecap="round" strokeLineJoin="round"/>
<path d="M19.2754 21.426C19.4047 21.2297 19.5906 21.1315 19.7038 21.2051C19.8089 21.2787 19.7927 21.4915 19.6634 21.6878C19.534 21.8842 19.3481 21.9824 19.2349 21.9087C19.1218 21.8433 19.146 21.6224 19.2754 21.426Z" fill="#D31818" stroke="#420071" strokeWidth="0.2" strokeMiterlimit="10" strokeLinecap="round" strokeLineJoin="round"/>
<path d="M20.0272 20.5589C20.1081 20.4034 20.2374 20.3134 20.3263 20.3543C20.4152 20.3952 20.4152 20.5589 20.3344 20.7143C20.2536 20.8698 20.1242 20.9598 20.0353 20.9189C19.9545 20.878 19.9545 20.7143 20.0272 20.5589Z" fill="#D31818" stroke="#420071" strokeWidth="0.2" strokeMiterlimit="10" strokeLinecap="round" strokeLineJoin="round"/>
<path d="M19.7119 16.296C19.7685 16.3451 19.8251 16.3942 19.8736 16.4433C20.1403 16.6969 20.3748 16.9833 20.5607 17.3024C20.7466 17.6296 20.8678 17.9814 20.9406 18.3496C21.0861 19.0941 21.0457 19.8796 20.8436 20.6077C20.7062 21.0904 20.496 21.5568 20.2293 21.9822C21.1103 21.205 21.7732 20.215 22.0561 18.9959C22.2905 17.9732 22.2259 16.9096 21.8864 15.936C21.1588 16.0669 20.4233 16.1406 19.7119 16.296Z" fill="#420071" stroke="#420071" strokeWidth="0.2" strokeMiterlimit="10" strokeLinecap="round" strokeLineJoin="round"/>
<path d="M19.437 16.3534C20.7384 17.147 22.5411 17.7442 24.6266 17.0815L24.0446 15.1752C22.4117 15.5598 20.8759 15.1834 19.437 13.9644" fill="#A01010"/>
<path d="M19.437 16.3534C20.7384 17.147 22.5411 17.7442 24.6266 17.0815L24.0446 15.1752C22.4117 15.5598 20.8759 15.1834 19.437 13.9644" stroke="#420071" strokeWidth="0.2" strokeMiterlimit="10" strokeLinecap="round" strokeLineJoin="round"/>
<path d="M25.1753 17.6008C25.8945 17.3417 26.2385 16.4518 25.9436 15.6132C25.6487 14.7746 24.8266 14.3048 24.1074 14.5639C23.3882 14.8229 23.0442 15.7128 23.3391 16.5514C23.634 17.39 24.4561 17.8598 25.1753 17.6008Z" fill="white" stroke="#420071" strokeWidth="0.2" strokeMiterlimit="10" strokeLinecap="round" strokeLineJoin="round"/>
<path d="M24.8204 16.7788C25.3539 17.417 26.1299 17.736 26.8655 17.466C27.8679 17.1061 28.369 15.887 28.0134 14.7089L30.2929 14.1852C32.2653 13.7352 32.2572 12.3362 31.2467 12.0662C30.9638 11.9926 30.6647 12.0335 30.4061 12.1644C28.6277 13.0316 27.1565 13.048 27.1565 13.048C27.9002 10.4135 26.2673 10.1763 25.7257 10.2253C25.5883 10.2335 25.459 10.299 25.3782 10.4135C25.2084 10.6426 25.2892 10.9535 25.3943 11.2071C25.5964 11.6571 25.6126 12.1562 25.4509 12.6062C25.3539 12.8844 25.1437 13.1134 24.9012 13.2853C24.1656 13.8007 23.9312 14.7825 24.2707 15.8052" fill="white"/>
<path d="M24.8204 16.7788C25.3539 17.417 26.1299 17.736 26.8655 17.466C27.8679 17.1061 28.369 15.887 28.0134 14.7089L30.2929 14.1852C32.2653 13.7352 32.2572 12.3362 31.2467 12.0662C30.9638 11.9926 30.6647 12.0335 30.4061 12.1644C28.6277 13.0316 27.1565 13.048 27.1565 13.048C27.9002 10.4135 26.2673 10.1763 25.7257 10.2253C25.5883 10.2335 25.459 10.299 25.3782 10.4135C25.2084 10.6426 25.2892 10.9535 25.3943 11.2071C25.5964 11.6571 25.6126 12.1562 25.4509 12.6062C25.3539 12.8844 25.1437 13.1134 24.9012 13.2853C24.1656 13.8007 23.9312 14.7825 24.2707 15.8052" stroke="#420071" strokeWidth="0.2" strokeMiterlimit="10" strokeLinecap="round" strokeLineJoin="round"/>
<path d="M27.1646 13.0481C27.1646 13.0481 27.5202 13.3917 27.593 13.899Z" fill="white"/>
<path d="M27.1646 13.0481C27.1646 13.0481 27.5202 13.3917 27.593 13.899" stroke="#420071" strokeWidth="0.2" strokeMiterlimit="10" strokeLinecap="round" strokeLineJoin="round"/>
<path d="M29.0967 17.016C29.129 17.3432 28.6602 17.7278 28.0459 17.7359C27.1971 17.7441 26.8818 17.3514 26.8818 17.0241C26.8818 16.6969 27.3668 16.6069 27.9731 16.6069C28.5874 16.5987 29.0563 16.5578 29.0967 17.016Z" fill="white" stroke="#420071" strokeWidth="0.2" strokeMiterlimit="10" strokeLinecap="round" strokeLineJoin="round"/>
<path d="M29.7676 15.8298C29.8646 16.2225 29.3715 16.7789 28.6278 16.9016C27.5931 17.0734 27.1404 16.6561 27.0758 16.2552C27.0111 15.8543 27.585 15.658 28.3287 15.5434C29.0724 15.4207 29.6301 15.2816 29.7676 15.8298Z" fill="white" stroke="#420071" strokeWidth="0.2" strokeMiterlimit="10" strokeLinecap="round" strokeLineJoin="round"/>
<path d="M29.7597 14.7171C29.8567 15.1098 29.3637 15.6661 28.62 15.7888C27.5853 15.9607 27.1326 15.5434 27.068 15.1425C27.0033 14.7416 27.5772 14.5452 28.3209 14.4307C29.0646 14.3162 29.6223 14.1689 29.7597 14.7171Z" fill="white" stroke="#420071" strokeWidth="0.2" strokeMiterlimit="10" strokeLinecap="round" strokeLineJoin="round"/>
<path d="M13.9401 9.399C13.932 9.44809 13.932 9.49718 13.9239 9.53808C13.8026 10.4053 13.5278 11.0517 13.1964 11.4689C13.0428 11.6653 12.865 11.8126 12.6952 11.9107C11.8141 12.3771 10.8522 11.4771 11.0947 9.03083C11.1917 7.99177 11.8707 6.26545 12.873 6.36363C13.6248 6.5109 13.9158 7.48451 13.9724 8.38448C13.9966 8.75265 13.9805 9.11264 13.9401 9.399Z" fill="white" stroke="#420071" strokeWidth="0.2" strokeMiterlimit="10" strokeLinecap="round" strokeLineJoin="round"/>
<path d="M13.9241 9.53812C13.8029 10.2581 13.5361 10.9944 13.1966 11.469C13.043 11.6653 12.8652 11.8126 12.6954 11.9108C11.8871 11.8781 11.6284 10.0536 11.9598 8.98996L13.0673 9.11268L12.1458 8.44179C12.6308 7.26364 13.6493 7.1491 13.9726 8.3927V8.40088C14.013 8.73633 13.9888 9.13723 13.9241 9.53812Z" fill="#420071" stroke="#420071" strokeWidth="0.2" strokeMiterlimit="10" strokeLinecap="round" strokeLineJoin="round"/>
<path d="M16.7854 9.76705C16.5348 11.1579 16.1144 12.3688 15.007 12.4342C13.6409 12.3197 13.6652 8.74435 14.522 7.59075C16.0013 5.28355 17.141 8.10619 16.7854 9.76705Z" fill="white" stroke="#420071" strokeWidth="0.2" strokeMiterlimit="10" strokeLinecap="round" strokeLineJoin="round"/>
<path d="M14.8052 9.34991C14.4656 10.4381 14.7405 12.3116 15.5892 12.2707C16.3653 11.8453 16.9473 9.95534 16.826 8.76083C16.5027 7.50087 15.4842 7.62359 14.9992 8.80174L15.9207 9.47263L14.8052 9.34991Z" fill="#420071" stroke="#420071" strokeWidth="0.2" strokeMiterlimit="10" strokeLinecap="round" strokeLineJoin="round"/>
<path d="M16.6483 11.9188C16.5513 12.6552 19.0329 12.8679 19.0571 12.1234C19.1541 11.3952 16.6725 11.1825 16.6483 11.9188Z" fill="#D31818" stroke="#420071" strokeWidth="0.2" strokeMiterlimit="10" strokeLinecap="round" strokeLineJoin="round"/>
<path d="M8.49203 11.4853C8.39503 12.2216 10.8766 12.4343 10.9009 11.6898C10.9979 10.9616 8.51628 10.7407 8.49203 11.4853Z" fill="#D31818" stroke="#420071" strokeWidth="0.2" strokeMiterlimit="10" strokeLinecap="round" strokeLineJoin="round"/>
<path d="M15.6944 13.0317C15.5651 13.3589 15.2821 13.8907 14.9265 14.4062C14.5546 14.938 14.11 15.4698 13.6735 15.7479C13.6331 15.7725 13.5927 15.797 13.5442 15.8216C13.1885 16.0098 12.8409 16.0179 12.5661 15.7234C12.3964 15.5434 12.2589 15.257 12.1458 14.8316C12.1377 14.8152 12.1377 14.7989 12.1296 14.7825C12.1134 14.758 11.8628 12.4671 11.8467 12.369C11.8467 12.3608 13.2047 13.2935 15.6944 13.0317Z" fill="#420071" stroke="#420071" strokeWidth="0.2" strokeMiterlimit="10" strokeLinecap="round" strokeLineJoin="round"/>
<path d="M14.9506 14.3653C14.9425 14.3817 14.9344 14.3899 14.9263 14.4062C14.5545 14.9381 14.1099 15.4699 13.6734 15.748C13.633 15.7726 13.5926 15.7971 13.5441 15.8217C13.1884 16.0098 12.8408 16.018 12.566 15.7235C12.372 15.5517 12.2264 15.2571 12.1456 14.8317C12.1294 14.7581 12.1214 14.6762 12.1133 14.5944C13.2773 13.0808 14.6434 14.1035 14.9506 14.3653Z" fill="#FF005C" stroke="#420071" strokeWidth="0.2" strokeMiterlimit="10" strokeLinecap="round" strokeLineJoin="round"/>
<path d="M15.3145 12.7207C15.3145 12.7207 16.0339 12.8107 15.6378 13.6698" stroke="#420071" strokeWidth="0.2" strokeMiterlimit="10" strokeLinecap="round" strokeLineJoin="round"/>
</svg>
