<svg width="23" height="33" viewBox="0 0 23 33" fill="none" xmlns="http://www.w3.org/2000/svg">
<path fill-rule="evenodd" clip-rule="evenodd" d="M10.192 10.0371C10.92 9.37334 11.8013 8.90053 12.757 8.66102C13.7126 8.42151 14.7127 8.4228 15.6677 8.66476L15.9559 8.32167C16.8891 7.03166 17.9321 5.56323 18.3438 3.93013C18.7555 2.29702 17.3008 0.691362 15.901 3.76544C15.6403 4.35556 15.4207 4.9045 15.0365 6.01611L14.6659 7.04538L14.7757 6.09845C14.7894 5.67302 14.8855 5.23387 15.0502 4.49279C15.2149 3.75172 15.5168 2.42053 15.5305 1.63829C15.5717 -0.379077 13.4308 -0.145776 13.4034 1.67946C13.3759 3.5047 13.3347 3.79289 13.3073 4.27322C13.2798 4.75354 13.2661 5.09663 13.2524 5.92005L13.2798 6.86697L13.1014 6.05728C13.0603 5.87887 13.0191 5.54951 12.9642 5.06918C12.8544 4.10853 12.676 2.66756 12.4564 1.83042C11.9349 -0.104605 10.2058 0.389443 10.4116 2.39309C10.5201 3.33392 10.7508 4.2566 11.0978 5.1378C11.3174 5.72792 11.5507 6.13962 11.7016 6.92187L11.784 7.37475L11.5095 6.96304C11.1992 6.55897 10.9193 6.13236 10.6724 5.68674C10.2415 4.84873 9.76027 4.03756 9.23139 3.25767C8.1335 1.63829 6.78859 3.14788 7.50222 4.4379C7.84277 5.03949 8.27316 5.58557 8.77851 6.05728C9.28247 6.49689 9.73794 6.98916 10.1371 7.5257L10.6861 8.17071C9.32745 7.31985 8.32563 6.61995 6.95327 5.79653C5.58091 4.97312 4.60654 6.71601 5.5123 7.60805C6.41805 8.50008 7.39243 8.93923 8.47659 9.32349C8.98436 9.5019 9.68426 9.80382 10.192 10.0371Z" fill="#989836"/>
<path fill-rule="evenodd" clip-rule="evenodd" d="M22.1589 22.581C21.9256 21.9497 21.1983 21.1949 20.5807 20.6597C20.5121 21.1949 20.4435 21.8948 20.4023 22.43C20.479 22.5489 20.5478 22.6726 20.6082 22.8005C20.814 23.1574 21.0611 23.2534 20.8964 23.473C20.8827 23.4181 20.8415 23.473 20.814 23.4181C20.6821 23.6577 20.4877 23.8569 20.2514 23.9945C20.169 25.1747 20.0867 26.451 20.0181 27.645C20.4847 28.1116 21.9256 28.3174 22.4609 27.9057C22.7353 27.6724 22.8177 26.9313 22.4746 26.7667C22.3607 26.7228 22.2398 26.6996 22.1178 26.698C21.7845 26.6937 21.4535 26.7543 21.1434 26.8764C21.1124 26.9803 21.0558 27.0747 20.9787 27.1509C21.0611 26.8353 21.2669 26.0256 20.8689 25.5864C20.814 25.6413 20.8278 25.4217 20.7729 25.4629C20.7454 25.2022 20.9787 25.1198 21.3904 24.7767C22.2687 24.0494 22.3922 23.2397 22.1589 22.581Z" fill="#F09737"/>
<path fill-rule="evenodd" clip-rule="evenodd" d="M21.6785 25.4905C21.7883 25.4631 21.9393 25.3807 22.0491 25.367C22.0353 25.0651 21.8295 24.9004 21.5687 25.0102C21.3404 25.1162 21.1316 25.2601 20.9512 25.4356L21.1296 25.8062C21.2904 25.6664 21.4768 25.5592 21.6785 25.4905Z" fill="#F09737"/>
<path fill-rule="evenodd" clip-rule="evenodd" d="M22.0765 25.5588C21.9598 25.5569 21.8437 25.5755 21.7334 25.6137C21.5001 25.696 21.2119 25.8607 21.1433 25.9842C21.0747 26.1077 21.2531 26.5469 21.2119 26.7527C21.4796 26.644 21.7616 26.5747 22.0491 26.5469C22.7215 26.3685 22.5157 25.545 22.0765 25.5588Z" fill="#F09737"/>
<path fill-rule="evenodd" clip-rule="evenodd" d="M20.6223 19.1087C20.3341 22.718 20.1557 26.2038 19.7852 29.8268C19.8073 30.3639 19.7751 30.9018 19.6891 31.4324C19.2225 34.0399 15.5446 32.0775 14.3781 30.6777C11.5373 27.3017 11.1942 25.0098 9.23174 21.3593C8.49066 19.9733 7.1732 19.3557 5.89691 18.5735C5.69105 18.5872 5.9518 18.0657 5.49892 18.5597C5.04605 19.0538 3.3306 18.0657 2.5758 17.8873C1.821 17.7089 1.16227 17.7363 0.736842 17.5716C0.091834 17.2972 0.0232162 16.3502 0.942696 16.3365C1.4093 16.3365 2.30133 16.4737 2.56208 16.5012C2.82283 16.5286 2.87772 16.4051 2.98751 16.8168C2.97379 15.7876 1.60143 15.6229 0.791737 14.8406C0.22907 14.278 0.983867 13.2624 1.97196 13.9898C2.71304 14.4564 3.00123 14.6897 3.70113 14.8132C3.86582 14.9504 3.94816 14.9093 3.86582 14.7446C3.509 14.0858 3.23453 13.331 2.91889 12.6449C2.13665 10.9157 3.7972 10.6412 4.23635 11.8901C4.67551 13.1389 4.99115 13.9623 5.56754 14.9642C5.64988 15.0739 5.55382 15.0328 5.63616 15.1837C6.33606 14.8681 6.59681 14.0996 6.9399 13.6604C7.48884 12.9742 9.06705 13.3173 8.43577 14.2917C7.80448 15.2661 7.20065 15.2798 7.02224 15.8699C6.84383 16.46 7.10458 16.7757 6.45957 17.256C6.73405 17.3383 6.78894 17.1874 6.91245 16.9815C7.55746 17.8598 8.54556 18.9852 9.57483 19.5753C8.76514 19.0401 8.24364 18.5323 7.928 18.0931C7.81383 17.1232 7.76798 16.1464 7.79076 15.17C8.24364 14.8132 9.19057 13.8937 8.40832 13.1801C9.82185 8.41801 14.9545 6.97703 18.6324 10.4491C20.2792 11.9999 21.0615 14.8544 20.8831 17.503C20.842 18.0447 20.7548 18.5819 20.6223 19.1087Z" fill="#EF9300"/>
<path fill-rule="evenodd" clip-rule="evenodd" d="M12.9502 22.8413C13.4168 24.7489 14.5559 25.7782 16.5183 25.8879C14.9127 26.1624 12.9639 25.2155 12.9502 22.8413Z" fill="#42421A"/>
<path fill-rule="evenodd" clip-rule="evenodd" d="M12.0858 15.5684C11.9553 16.2013 11.9835 16.8566 12.1682 17.4759C11.5369 17.0642 11.5781 15.9114 12.0858 15.5684Z" fill="#F8C68E"/>
<path fill-rule="evenodd" clip-rule="evenodd" d="M12.7859 12.7823C13.623 11.753 15.2287 12.0138 15.2287 12C15.1051 11.602 14.7758 11.0805 14.3229 11.0257C12.9643 10.8747 12.58 13.0293 12.7859 12.7823Z" fill="#42421A"/>
<path fill-rule="evenodd" clip-rule="evenodd" d="M18.1655 18.7655C18.6321 18.5871 19.0164 18.6694 19.2771 18.8753C19.4191 18.7649 19.5282 18.6178 19.5927 18.4499C19.826 17.9284 19.8947 17.1461 19.8672 16.3913C19.8398 15.6365 19.6476 14.5661 19.4281 14.1818C19.3484 14.0501 19.2406 13.9376 19.1124 13.8525C18.9636 13.7738 18.8 13.727 18.6321 13.7152C18.4578 13.714 18.2867 13.7615 18.138 13.8525C17.9752 13.9403 17.8416 14.0739 17.7538 14.2367L17.6989 14.3191C17.4656 14.772 17.3558 15.4307 17.3421 16.0894C17.3284 16.9677 17.4656 17.8735 17.6714 18.4224C17.734 18.5916 17.8378 18.7426 17.9734 18.8616L18.1655 18.7655ZM19.4555 19.0263C19.9358 19.6027 19.8398 20.6594 18.7968 20.9887C18.3988 21.1122 17.5205 21.222 17.1637 20.6319C17.4656 20.9201 18.3439 20.8789 18.7282 20.7554C20.0731 20.3437 19.5241 18.5048 18.2478 18.9714C18.0434 19.0591 17.8596 19.1887 17.7083 19.3518C17.5571 19.5149 17.4416 19.7078 17.3695 19.9183C17.3609 19.7434 17.3937 19.569 17.4652 19.4092C17.5368 19.2495 17.6451 19.1088 17.7812 18.9988C17.638 18.8644 17.5256 18.7005 17.4519 18.5185C17.246 17.9558 17.0951 17.0089 17.1088 16.1031C17.1225 15.4032 17.2323 14.7033 17.493 14.2093C17.8224 13.3859 19.3594 13.0153 19.7849 13.7839C19.7116 13.7267 19.6276 13.6847 19.5378 13.6603C19.3902 13.6172 19.2384 13.5896 19.085 13.578L19.2222 13.6603C19.3944 13.7575 19.5368 13.8998 19.6339 14.072C19.8672 14.4838 20.0593 15.417 20.1005 16.3913C20.1417 17.3657 20.0593 17.9833 19.8123 18.5459C19.7243 18.7268 19.6033 18.8897 19.4555 19.0263Z" fill="#42421A"/>
<path fill-rule="evenodd" clip-rule="evenodd" d="M14.3495 19.7266C14.1436 19.1502 13.6221 18.7523 13.0457 18.5876C12.0576 18.2994 11.0009 18.6836 10.9872 19.8364C10.9879 20.3773 11.1451 20.9064 11.4401 21.3597C10.9186 21.0715 10.7539 20.1932 10.7539 19.8364C10.7676 18.6287 11.7969 18.121 12.8399 18.2994C12.7015 18.0465 12.6042 17.7732 12.5517 17.4897C12.4262 16.8108 12.4031 16.1169 12.4831 15.4311C12.5585 14.8716 12.7603 14.3366 13.0732 13.8667C13.1929 13.717 13.3313 13.5833 13.4849 13.4687L13.6084 13.3863C14.226 12.9472 15.5023 12.9197 16.0238 13.5236C15.7519 13.392 15.4594 13.3085 15.1592 13.2765C15.2576 13.3131 15.3501 13.364 15.4336 13.4275C15.5538 13.5066 15.6565 13.6093 15.7356 13.7294C16.1061 14.2646 16.3669 15.3488 16.3943 16.433C16.4217 17.5171 16.2571 18.3268 15.8454 18.9169C15.7272 19.1013 15.5732 19.2599 15.3925 19.3835C15.6268 19.3553 15.8494 19.2653 16.0375 19.1228C16.01 19.411 15.7356 19.5619 15.4336 19.6168C15.1249 19.6755 14.8074 19.6709 14.5004 19.6031L14.322 19.5757C14.339 19.6243 14.3483 19.6752 14.3495 19.7266ZM13.1555 18.3817C13.6068 18.5501 13.9853 18.8703 14.226 19.2875H14.2397C14.5144 19.393 14.8194 19.3881 15.0906 19.2738C15.3191 19.1626 15.5135 18.992 15.6532 18.7797C16.0238 18.2308 16.1747 17.325 16.161 16.4192C16.1473 15.5135 15.9002 14.347 15.5434 13.8529C15.4754 13.7575 15.3919 13.674 15.2964 13.6059C15.0601 13.4386 14.7762 13.3519 14.4867 13.3589C14.1762 13.3662 13.875 13.4666 13.6221 13.6471C13.4839 13.7396 13.3632 13.8557 13.2653 13.9902C12.9663 14.4281 12.778 14.9319 12.7164 15.4586C12.6364 16.1169 12.6596 16.7836 12.785 17.4348C12.8452 17.7717 12.9711 18.0935 13.1555 18.3817Z" fill="#42421A"/>
<path fill-rule="evenodd" clip-rule="evenodd" d="M19.4551 12.4939C18.8376 11.8489 17.6299 12.2743 17.6299 12.2606C17.7259 11.9449 17.973 11.5058 18.3161 11.4097C19.3316 11.1078 19.6061 12.6586 19.4551 12.4939Z" fill="#42421A"/>
<path fill-rule="evenodd" clip-rule="evenodd" d="M16.1621 16.4326C16.1346 15.4033 15.9013 14.3603 15.5445 13.8663C15.4764 13.7708 15.393 13.6873 15.2975 13.6192C15.0612 13.4519 14.7772 13.3653 14.4878 13.3722C14.1772 13.3795 13.876 13.4799 13.6232 13.6604C13.485 13.7529 13.3642 13.869 13.2664 14.0035C12.9674 14.4414 12.779 14.9453 12.7174 15.4719C12.6375 16.1302 12.6606 16.797 12.7861 17.4481C12.8479 17.7803 12.9738 18.0972 13.1566 18.3813C13.6078 18.5497 13.9863 18.8699 14.227 19.2871H14.2408C14.5155 19.3926 14.8204 19.3877 15.0916 19.2734C15.3202 19.1622 15.5146 18.9916 15.6543 18.7793C16.0248 18.2441 16.1758 17.3383 16.1621 16.4326Z" fill="white"/>
<path fill-rule="evenodd" clip-rule="evenodd" d="M17.6986 14.3329C17.4653 14.7858 17.3555 15.4445 17.3418 16.1033C17.328 16.9816 17.4653 17.8873 17.6711 18.4363C17.7356 18.6005 17.8393 18.7466 17.973 18.8617L18.1652 18.7656C18.6318 18.5872 19.016 18.6696 19.2768 18.8754C19.4188 18.765 19.5279 18.6179 19.5924 18.45C19.8257 17.9285 19.8944 17.1463 19.8669 16.3915C19.8395 15.6367 19.6473 14.5662 19.4277 14.182C19.3481 14.0502 19.2403 13.9377 19.1121 13.8526C18.9633 13.7739 18.7997 13.7271 18.6318 13.7154C18.4575 13.7141 18.2864 13.7616 18.1377 13.8526C17.9749 13.9404 17.8413 14.074 17.7535 14.2369L17.6986 14.3192V14.3329Z" fill="white"/>
<path fill-rule="evenodd" clip-rule="evenodd" d="M17.5064 22.1691C16.7159 22.1374 15.9323 22.0084 15.1734 21.7848C14.1715 21.4966 13.2521 21.0026 12.7031 20.3164C12.8129 20.6732 12.9776 21.1947 13.1835 21.7437C13.6363 22.1828 14.5146 22.5945 15.4478 22.8553C16.381 23.116 17.328 23.2258 17.9593 23.0748C18.2612 23.0062 18.2474 22.8827 18.2063 22.622C18.1716 22.4684 18.1487 22.3124 18.1377 22.1554L17.5064 22.1691Z" fill="white"/>
<path fill-rule="evenodd" clip-rule="evenodd" d="M17.6717 24.1729C16.8646 24.2616 16.0483 24.2152 15.2564 24.0357C14.793 23.9377 14.3512 23.7564 13.9526 23.5005C14.5153 24.5298 15.2564 25.0787 16.8209 25.1336C17.0885 25.1368 17.3555 25.1092 17.6168 25.0513C17.6206 24.917 17.6391 24.7836 17.6717 24.6533C17.7055 24.5092 17.7239 24.362 17.7266 24.2141C17.7266 24.1867 17.7129 24.1729 17.6717 24.1729Z" fill="white"/>
<path fill-rule="evenodd" clip-rule="evenodd" d="M15.3111 23.8162C15.8064 23.9284 16.3129 23.9836 16.8207 23.9809C16.807 23.8578 16.807 23.7335 16.8207 23.6104C16.8223 23.5273 16.8315 23.4447 16.8481 23.3633C16.3514 23.316 15.86 23.2241 15.3797 23.0889C14.6595 22.8949 13.9742 22.5893 13.3486 22.1831L13.4447 22.4027C13.5208 22.6129 13.6078 22.8191 13.7054 23.0202C14.1621 23.421 14.7157 23.6954 15.3111 23.8162Z" fill="#7F2C30"/>
<path fill-rule="evenodd" clip-rule="evenodd" d="M14.0612 14.8955C14.1955 14.9029 14.3261 14.9414 14.4429 15.0081C14.5596 15.0748 14.6592 15.1678 14.7337 15.2798C14.6731 15.2529 14.6077 15.2389 14.5415 15.2386C14.4251 15.2386 14.3134 15.2849 14.231 15.3672C14.1487 15.4496 14.1024 15.5613 14.1024 15.6778C14.1024 15.7942 14.1487 15.9059 14.231 15.9883C14.3134 16.0706 14.4251 16.1169 14.5415 16.1169C14.6483 16.1149 14.7509 16.0752 14.8313 16.0049C14.9116 15.9346 14.9645 15.8382 14.9807 15.7326C15.0943 16.0495 15.15 16.3842 15.1454 16.7207C15.1454 17.7363 14.6651 18.5597 14.0612 18.5597C13.4574 18.5597 12.9771 17.7363 12.9771 16.7207C12.9771 15.7052 13.4711 14.8955 14.0612 14.8955Z" fill="#42421A"/>
<path fill-rule="evenodd" clip-rule="evenodd" d="M18.3987 15.2661C18.5053 15.2714 18.6091 15.3014 18.702 15.3538C18.7949 15.4062 18.8743 15.4796 18.9339 15.568L18.7693 15.5406C18.6932 15.5391 18.6182 15.5595 18.5534 15.5993C18.4885 15.6391 18.4364 15.6966 18.4033 15.7651C18.3701 15.8336 18.3573 15.9102 18.3663 15.9858C18.3754 16.0614 18.4059 16.1327 18.4543 16.1915C18.5027 16.2502 18.5669 16.2939 18.6393 16.3173C18.7117 16.3406 18.7893 16.3427 18.8629 16.3233C18.9365 16.3039 19.003 16.2638 19.0545 16.2078C19.106 16.1518 19.1404 16.0821 19.1535 16.0072C19.2255 16.2335 19.2625 16.4696 19.2633 16.7071C19.2633 17.5168 18.879 18.1618 18.3987 18.1618C17.9184 18.1618 17.5479 17.5168 17.5479 16.7071C17.5479 15.8974 17.9321 15.2661 18.3987 15.2661Z" fill="#42421A"/>
<path fill-rule="evenodd" clip-rule="evenodd" d="M7.94154 17.1874C8.42187 16.7345 9.40996 16.2679 10.3569 16.4463C10.1785 16.0757 10.1236 15.4719 10.4392 15.0876C9.35507 15.1151 8.22974 15.4033 7.95527 16.3502C7.89491 16.6256 7.89024 16.9102 7.94154 17.1874Z" fill="#CF7E29"/>
<path fill-rule="evenodd" clip-rule="evenodd" d="M7.87256 15.7054C8.40778 15.1015 9.53311 14.7173 10.5349 14.978L10.5624 14.9506C9.90365 13.1528 10.9878 9.5435 12.4562 8.88477C10.6859 9.44743 9.19002 10.9296 8.51757 13.2077C9.29981 13.9213 8.35288 14.9231 7.90001 15.28C7.88628 15.4309 7.87256 15.5681 7.87256 15.7054Z" fill="#CF7E29"/>
<path fill-rule="evenodd" clip-rule="evenodd" d="M10.3015 16.5837C9.39571 16.6798 7.95473 17.1327 8.03707 17.9561C8.535 18.6238 9.132 19.2116 9.80741 19.699C9.49177 18.5462 9.35454 17.5856 10.3015 16.5837Z" fill="#CF7E29"/>
<path fill-rule="evenodd" clip-rule="evenodd" d="M12.6211 25.4214C11.4683 23.061 10.4802 21.7847 8.86084 20.5496C9.01371 20.7446 9.15135 20.951 9.27255 21.1671C9.93128 22.4022 11.4271 26.2174 12.2506 26.9447C13.074 27.6721 14.1993 27.7819 15.4619 27.8231C14.1719 27.5623 13.2524 26.684 12.6211 25.4214Z" fill="#CF7E29"/>
<path fill-rule="evenodd" clip-rule="evenodd" d="M15.4889 28.084C14.3362 28.0703 13.1285 27.8644 12.3325 27.4253C12.3861 27.6674 12.4788 27.8992 12.607 28.1115C13.1971 29.0447 14.6244 29.3603 15.9418 29.3603C15.7176 29.1801 15.5625 28.928 15.5027 28.6467C15.4203 28.3036 17.3691 28.482 18.1376 27.6174C17.5886 27.9331 16.5731 28.0978 15.4889 28.084Z" fill="#CF7E29"/>
<path fill-rule="evenodd" clip-rule="evenodd" d="M16.2721 29.5662C15.3389 29.6622 14.2684 29.5525 13.5273 29.2368C13.5761 29.3506 13.6408 29.4569 13.7195 29.5525C13.9802 29.923 14.2959 30.3621 14.5703 30.6778C15.4212 31.6933 17.4111 32.8873 18.6325 32.503C17.2464 32.6952 16.1485 31.1718 16.1485 30.1151C16.1485 29.7858 16.821 29.772 17.2739 29.3466C16.9503 29.461 16.6138 29.5347 16.2721 29.5662Z" fill="#CF7E29"/>
<path fill-rule="evenodd" clip-rule="evenodd" d="M0.351866 16.8719C0.310695 17.0915 0.461654 17.3523 0.777296 17.4758C1.09294 17.5993 1.90263 17.6267 2.58881 17.7777C3.27499 17.9286 4.86692 19.2187 5.51193 18.5188C5.69944 18.318 5.83182 18.0722 5.89619 17.8051C5.95109 17.2287 5.66289 16.9543 5.23746 16.8445C5.59427 17.1876 4.63362 18.903 2.82211 17.4209C2.02614 17.5307 0.393036 17.2562 0.351866 16.8719Z" fill="#CF7E29"/>
<path fill-rule="evenodd" clip-rule="evenodd" d="M2.9044 11.4646C2.78088 11.6979 2.78088 12.1096 3.04163 12.686C3.30238 13.2624 3.75526 14.0721 3.98856 14.7857C4.00228 14.8543 4.02973 14.9367 4.04345 15.019C4.31793 14.4152 3.74153 13.331 3.30238 12.4939C3.06908 12.0273 2.87695 11.643 2.9044 11.4646Z" fill="#CF7E29"/>
<path fill-rule="evenodd" clip-rule="evenodd" d="M0.709669 14.2231C0.689812 14.3309 0.698351 14.442 0.734445 14.5455C0.770539 14.6489 0.832944 14.7412 0.915523 14.8133C1.50564 15.4034 2.65842 15.719 2.97406 16.364C3.01523 15.1701 0.984141 14.9093 0.709669 14.2231Z" fill="#CF7E29"/>
<path fill-rule="evenodd" clip-rule="evenodd" d="M6.02005 17.4209C6.07094 17.5879 6.08502 17.7639 6.06133 17.9369C6.03764 18.1098 5.97673 18.2756 5.88281 18.4227L6.78857 18.9442C6.2808 18.409 6.58271 17.9561 6.02005 17.4209Z" fill="#CF7E29"/>
<path fill-rule="evenodd" clip-rule="evenodd" d="M6.69252 15.4585C6.87092 15.9251 6.63762 16.8034 6.52783 17.1739C6.99443 16.8446 6.71996 16.5015 6.91209 15.8839C7.10422 15.2663 7.8453 15.0879 8.38052 14.2645C8.65499 13.8391 8.51775 13.5783 8.24328 13.4548C8.70988 14.6076 6.70624 15.4585 6.69252 15.4585Z" fill="#CF7E29"/>
<path fill-rule="evenodd" clip-rule="evenodd" d="M8.51773 13.2076C9.93126 8.44556 14.9266 7.11437 18.6046 10.5864C20.2514 12.1372 20.965 14.8682 20.7866 17.5168C20.7534 18.0594 20.666 18.5973 20.5259 19.1225C20.0455 22.4024 19.9358 25.5726 19.7162 28.8525C19.6338 30.0739 18.0968 30.7052 17.0264 30.7052C18.2752 31.0071 19.2358 30.3072 19.6613 29.8132C19.7848 30.2249 19.6476 30.8562 19.5927 31.2404C19.1123 33.8479 15.7363 32.0776 14.5698 30.6778C14.2954 30.3621 13.9797 29.923 13.719 29.5524C13.6403 29.4569 13.5756 29.3506 13.5268 29.2368C14.7208 29.7446 16.7656 29.7308 17.6988 29.1544C16.299 29.5387 13.4857 29.5112 12.6074 28.1114C12.4791 27.8992 12.3864 27.6674 12.3329 27.4253C14.0072 28.3447 17.6027 28.2624 18.4124 27.4115C17.095 28.0017 13.5131 28.0565 12.2505 26.9449C11.4271 26.2176 9.93126 22.4024 9.27253 21.1673C8.6138 19.9322 7.17282 19.2048 5.88281 18.4226C6.28079 17.6952 6.08866 16.9267 5.01822 16.7346C6.00632 17.1326 5.95143 17.9011 5.45738 18.45C4.96333 18.999 3.33022 17.956 2.58915 17.7776C1.84808 17.5992 1.20307 17.6541 0.777636 17.4757C0.132628 17.2149 0.201246 16.4464 1.12073 16.4327C1.58733 16.4327 2.34212 16.6111 2.60287 16.6248C2.86362 16.6385 3.00086 16.8032 2.94596 17.16C3.50863 15.8975 1.71084 15.5955 0.914872 14.8133C0.338482 14.2506 0.969767 13.3998 1.95786 14.1271C2.69894 14.5937 3.00086 14.8133 3.71448 14.9368C3.82427 15.1701 3.87917 15.3348 3.67331 15.5681C4.15364 15.4309 4.07129 15.0603 3.98895 14.7859C3.75565 14.0722 3.35767 13.3586 3.04203 12.6861C2.25978 10.957 3.76938 10.7786 4.20853 12.0274C4.64768 13.2763 4.92216 13.935 5.51227 14.9368C5.19255 15.0264 4.91266 15.2218 4.71825 15.491C4.52384 15.7602 4.4264 16.0873 4.44183 16.419C4.67513 15.6642 4.99077 15.4583 5.64951 15.2662C6.30824 15.074 6.55526 14.2644 6.91208 13.8252C7.4473 13.139 9.01178 13.2763 8.3805 14.2644C7.74921 15.2525 7.09048 15.2799 6.91208 15.8837C6.73367 16.4876 6.98069 16.8169 6.33568 17.311C6.44339 17.353 6.56308 17.3523 6.67025 17.3089C6.77741 17.2655 6.86393 17.1828 6.91208 17.0777C7.4473 18.1344 8.77848 19.3284 9.89009 19.7538C9.17944 19.2586 8.55376 18.6514 8.03741 17.956C7.94134 16.9816 9.98616 16.5287 10.7272 16.5562C9.69796 16.1308 8.47656 16.6797 7.94134 17.1875C7.89005 16.9103 7.89471 16.6257 7.95507 16.3503C8.25699 15.2799 9.67051 15.0466 10.8645 15.1015C9.79403 14.6212 8.46284 15.0466 7.87273 15.7053C7.87273 15.5681 7.88645 15.4309 7.90017 15.2799C8.35305 14.9231 9.29998 13.9213 8.51773 13.2076ZM10.1646 9.83164C10.8261 9.21278 11.626 8.76106 12.4976 8.51418C13.5012 8.23295 14.5609 8.21875 15.5717 8.473L15.6265 8.41811C16.5598 7.14182 17.7125 5.57733 18.138 3.94422C18.5634 2.31112 17.3557 0.911313 15.9559 3.98539C15.6952 4.57551 15.3658 5.28913 14.9815 6.40074L14.5698 7.60842L14.5973 6.33213C14.611 5.90669 14.762 5.23424 14.9404 4.49317C15.1188 3.75209 15.3795 2.48952 15.3932 1.721C15.4344 -0.296363 13.5268 0.142792 13.4994 1.96803C13.4719 3.79326 13.4445 4.20497 13.4171 4.67157C13.3896 5.13818 13.3759 5.37147 13.3622 6.19489L13.3347 7.92406L12.9779 6.23606C12.9505 6.04393 12.8956 5.65967 12.8407 5.17935C12.7309 4.21869 12.5799 2.86006 12.3603 2.02292C11.8388 0.0878974 10.3567 0.417263 10.5763 2.40718C10.6725 3.34433 10.8988 4.26349 11.2487 5.13817C11.4938 5.78031 11.6865 6.44119 11.8251 7.11437L11.9898 7.97895L11.4683 7.26533C11.1492 6.78995 10.8605 6.29492 10.6037 5.78318C10.18 4.96006 9.708 4.1627 9.19019 3.39528C8.0923 1.7759 6.9258 3.16198 7.65315 4.43827C8.07858 5.22051 8.46284 5.59105 8.94317 6.05765C9.46883 6.53633 9.94682 7.06488 10.3704 7.63587L11.0154 8.473C9.65679 7.63587 8.28443 6.75756 6.9258 5.93414C5.56717 5.11073 4.7712 6.73011 5.69068 7.63587C6.61016 8.54162 7.57081 8.84354 8.65497 9.2278C9.14902 9.40621 9.65679 9.59834 10.1646 9.83164ZM15.9696 8.59652C16.9303 7.29278 18.0831 5.71456 18.5085 4.04029C19.0163 2.07782 17.3008 0.115344 15.6128 3.83443L15.3521 4.38338C15.5579 3.47762 15.7775 2.48952 15.7775 1.721C15.8324 -0.790412 13.1426 -0.419875 13.1151 1.96803C13.1014 2.84634 13.0877 3.409 13.074 3.80699C12.9943 3.17444 12.8797 2.54678 12.7309 1.92686C12.0996 -0.461046 9.91754 -0.0356151 10.1783 2.44835C10.3155 3.71092 10.6037 4.49317 10.8782 5.27541C10.9468 5.46754 11.0291 5.67339 11.0978 5.87925C11.0421 5.78607 10.9917 5.68986 10.9468 5.59105C10.5147 4.76092 10.0383 3.95464 9.51956 3.1757C8.13347 1.17206 6.34941 2.90123 7.31006 4.6304C7.66727 5.26783 8.12619 5.84263 8.66869 6.33213C8.88474 6.52753 9.09085 6.73364 9.28625 6.94969L7.13165 5.60478C5.45738 4.50689 4.16736 6.67521 5.41621 7.91034C6.30824 8.80237 7.3924 9.18663 8.51773 9.59834C8.97061 9.76302 9.42349 9.91398 9.87637 10.1198C9.08794 10.9611 8.50955 11.9768 8.18837 13.0841C7.87555 13.0273 7.5532 13.0557 7.25517 13.1665C7.01532 13.258 6.80277 13.4091 6.6376 13.6056C6.34941 13.9762 6.171 14.4565 5.80047 14.7584C5.27897 13.8389 4.9496 12.8645 4.52417 11.8902C4.40779 11.5438 4.18126 11.2449 3.87917 11.0393C3.74257 10.9494 3.58581 10.8949 3.42294 10.8805C3.26007 10.8661 3.09618 10.8924 2.94596 10.957C2.81122 11.0266 2.69717 11.1305 2.61527 11.2582C2.53337 11.3858 2.4865 11.5328 2.47936 11.6843C2.43819 12.0686 2.57543 12.4803 2.72638 12.8234C2.98713 13.3998 3.30278 13.9624 3.53608 14.5526L3.15182 14.4153C2.80591 14.2448 2.47128 14.0522 2.14999 13.8389C1.87342 13.6175 1.52989 13.4966 1.17562 13.4958C1.02642 13.5054 0.881923 13.5518 0.755009 13.6308C0.628095 13.7099 0.522715 13.8191 0.448271 13.9487C0.242417 14.3192 0.379653 14.7721 0.667848 15.0603C0.948141 15.3104 1.25673 15.5269 1.58733 15.7053C1.89266 15.8598 2.18222 16.0437 2.45191 16.2543L2.30095 16.2268L1.76573 16.1445C1.54757 16.112 1.32753 16.0937 1.107 16.0896C0.626677 16.1033 0.0777339 16.3092 0.00911598 16.8581C-0.0595019 17.4071 0.269864 17.6404 0.6404 17.805C0.932859 17.9052 1.23756 17.9652 1.54616 17.9834C1.86894 18.009 2.18979 18.0548 2.50681 18.1207C2.66786 18.1704 2.82404 18.2347 2.97341 18.3128L3.61842 18.6285C4.12619 18.8618 4.81237 19.1637 5.36131 18.9304C5.4838 18.8783 5.59549 18.8038 5.69068 18.7108C6.88463 19.4381 8.27071 20.0283 8.97061 21.332C9.45094 22.2378 11.5369 26.9861 11.88 27.0959C11.9349 27.6586 12.429 28.6741 12.9367 28.9623C12.8681 29.2642 14.1444 30.7189 14.3091 30.9111C15.2148 31.9815 17.5753 33.4636 19.0025 32.7226C19.5515 32.4344 19.826 31.8854 19.922 31.2953C20.073 30.4856 20.0181 29.6759 19.8671 29.5524C19.9879 29.318 20.0581 29.0609 20.073 28.7976C20.0867 28.5232 20.1004 28.2487 20.1279 27.9742C20.7866 28.4134 22.0217 28.4545 22.6118 27.9879C23.202 27.5213 23.0785 26.8214 22.5158 26.5607C22.8452 26.2588 22.7903 25.5177 22.3099 25.3667C22.2962 24.9687 22.1178 24.6805 21.6924 24.7354C22.4883 23.9669 22.6118 23.2121 22.3511 22.4848C22.0904 21.7574 21.4179 21.0712 20.7043 20.4537C20.7454 20.0283 20.8003 19.6165 20.869 19.1911C21.0026 18.65 21.0943 18.0995 21.1434 17.5443C21.3081 15.074 20.7043 12.096 18.8379 10.3257C18.0225 9.5429 17.0426 8.95212 15.9696 8.59652ZM20.1416 27.6037C20.6219 28.0703 21.8845 28.1663 22.4197 27.7409C22.7079 27.5213 22.7354 26.9998 22.3923 26.8352C22.2918 26.796 22.1844 26.7774 22.0766 26.7803C21.7477 26.7874 21.4243 26.8671 21.1297 27.0136C21.0708 27.1594 20.9872 27.294 20.8827 27.4115C20.965 27.0959 21.1434 26.0666 20.7454 25.6275L20.5945 25.7784C20.5533 25.504 20.869 25.0236 21.2669 24.6943C22.1452 23.9669 22.2962 23.2533 22.0492 22.5946C21.8022 21.9358 21.2807 21.3732 20.6494 20.8242C20.5945 21.3732 20.5396 21.9084 20.4984 22.4436L20.8278 22.8553C21.0336 23.2121 21.0748 23.4866 20.9101 23.7062C20.8964 23.6513 20.869 23.5964 20.8552 23.5552C20.7469 23.7564 20.5792 23.9194 20.3749 24.0218C20.2926 25.2158 20.2239 26.4097 20.1416 27.6037ZM21.0062 25.4491C21.1648 25.2963 21.3511 25.1752 21.5551 25.0923C21.8296 24.9825 21.9806 25.0236 21.9943 25.3256L21.6649 25.3942C21.4649 25.4575 21.2819 25.5655 21.1297 25.7098L21.0062 25.4491ZM21.2258 26.0392C21.369 25.8775 21.5543 25.7587 21.761 25.6961C21.8522 25.658 21.9504 25.6393 22.0492 25.6412C22.5021 25.6275 22.6256 26.2862 21.9668 26.4646C21.7176 26.4836 21.4726 26.5391 21.2395 26.6293C21.2509 26.5475 21.2555 26.4649 21.2532 26.3823C21.2577 26.2672 21.2485 26.1521 21.2258 26.0392ZM20.4024 23.6101C20.5808 23.4592 20.718 23.2396 20.567 23.0337L20.4572 22.8828C20.4435 23.1298 20.4161 23.3768 20.4024 23.6101ZM7.54336 15.5818C7.44681 15.6594 7.36339 15.7521 7.29634 15.8563C7.1591 16.0896 7.1591 16.4601 7.11793 16.7346L7.22772 16.9267C7.3481 17.1594 7.49057 17.38 7.65315 17.5855C7.58453 16.9679 7.47474 16.5425 7.66687 16.2405C7.58453 16.2131 7.52964 16.1033 7.54336 15.5818Z" fill="#42421A"/>
<path fill-rule="evenodd" clip-rule="evenodd" d="M12.9095 18.752C12.1272 18.5187 11.2901 18.8206 11.2764 19.7401V19.7675C11.6606 18.752 13.2663 18.9441 13.7741 19.3283C13.5599 19.0433 13.2549 18.84 12.9095 18.752Z" fill="#F8C68E"/>
<path fill-rule="evenodd" clip-rule="evenodd" d="M18.3984 19.1087C18.2536 19.1679 18.1227 19.2567 18.0142 19.3694C18.5082 19.1087 19.3728 19.5341 19.0983 20.1791C19.7022 19.589 19.1395 18.8342 18.3984 19.1087Z" fill="#F8C68E"/>
<path fill-rule="evenodd" clip-rule="evenodd" d="M18.7962 20.989C18.508 21.0713 17.9727 21.1537 17.561 20.9753C18.1786 21.7575 19.1941 21.1811 18.9334 20.9341L18.7962 20.989Z" fill="#CF7E29"/>
<path fill-rule="evenodd" clip-rule="evenodd" d="M14.598 25.6278C14.23 25.4607 13.9038 25.2139 13.6427 24.9054C13.3816 24.5969 13.1923 24.2343 13.0884 23.8438C13.2256 24.4339 13.5824 25.2298 14.0353 25.4631C14.2075 25.5609 14.4002 25.6173 14.598 25.6278Z" fill="#CF7E29"/>
<path fill-rule="evenodd" clip-rule="evenodd" d="M18.4541 24.2825C18.7423 24.3648 18.8933 24.7902 18.7011 25.1471L18.7423 25.0922C18.8616 24.9611 18.9255 24.789 18.9207 24.6118C18.9124 24.5592 18.8937 24.5088 18.8656 24.4636C18.8375 24.4183 18.8006 24.3792 18.7571 24.3485C18.7135 24.3178 18.6643 24.2961 18.6123 24.2848C18.5602 24.2734 18.5064 24.2726 18.4541 24.2825Z" fill="#F8C68E"/>
<path fill-rule="evenodd" clip-rule="evenodd" d="M20.4977 22.444L20.8271 22.8557C21.0329 23.2125 21.0741 23.4869 20.9094 23.7065C20.8957 23.6516 20.8682 23.5967 20.8545 23.5556C20.7462 23.7568 20.5784 23.9197 20.3742 24.0222L20.333 24.626C20.4291 24.475 20.58 24.379 20.8133 24.2143C22.1308 23.3223 21.0741 22.3891 20.5663 21.7029C20.5389 21.9499 20.5114 22.1969 20.4977 22.444Z" fill="#CF7E29"/>
<path fill-rule="evenodd" clip-rule="evenodd" d="M20.9513 26.7941C20.8003 26.6157 20.4435 26.5471 20.2239 26.355L20.1416 27.6038C20.6219 28.0704 21.8845 28.1665 22.4197 27.7411C22.7079 27.5215 22.7354 27 22.3923 26.8353L22.2139 26.7941V26.8216C22.3923 27.645 21.1297 27.6038 20.9513 27.3431H20.9376L20.869 27.4254C20.8964 27.3019 20.9376 27.0961 20.965 26.8628C20.9691 26.8511 20.97 26.8386 20.9676 26.8266C20.9651 26.8145 20.9595 26.8033 20.9513 26.7941Z" fill="#CF7E29"/>
<path fill-rule="evenodd" clip-rule="evenodd" d="M21.2535 26.3823C21.2557 26.4649 21.2511 26.5475 21.2397 26.6293C21.4728 26.5391 21.7179 26.4836 21.9671 26.4646C22.516 26.3274 22.516 25.8333 22.2553 25.6824C22.2278 26.1901 21.6652 26.2999 21.2535 26.3137V26.3823Z" fill="#CF7E29"/>
<path fill-rule="evenodd" clip-rule="evenodd" d="M21.665 25.3941L21.9944 25.3255C21.9806 25.1608 21.9395 25.0785 21.8708 25.051C21.7199 25.3529 21.1572 25.4902 21.0337 25.4902C20.9102 25.4902 21.1023 25.6274 21.1298 25.7098C21.282 25.5654 21.465 25.4575 21.665 25.3941Z" fill="#CF7E29"/>
<path fill-rule="evenodd" clip-rule="evenodd" d="M14.062 8.99442C15.3109 9.14538 16.2441 9.94134 17.1224 10.9843C17.5615 11.5058 18.1516 10.9569 17.8772 10.504C17.438 9.77666 15.8598 8.71995 14.062 8.99442Z" fill="#F8C68E"/>
<path fill-rule="evenodd" clip-rule="evenodd" d="M15.5719 23.9534C15.4483 23.6104 15.4209 23.3084 15.7503 23.1849L15.3797 23.0889C14.6595 22.8949 13.9742 22.5893 13.3486 22.1831L13.4447 22.4027C13.527 22.6223 13.6094 22.9516 13.7054 23.1438C14.1172 23.5417 15.0092 23.8162 15.5719 23.9534Z" fill="#4F2526"/>
<path fill-rule="evenodd" clip-rule="evenodd" d="M19.2086 24.5571C19.2205 24.7014 19.1997 24.8464 19.1477 24.9814C19.0957 25.1164 19.0138 25.238 18.9083 25.3369C18.8027 25.4359 18.6761 25.5097 18.538 25.5529C18.4 25.5961 18.2539 25.6076 18.1107 25.5864C18.3704 25.5034 18.6028 25.3517 18.7832 25.1473C18.9163 24.9909 18.985 24.7897 18.9753 24.5846C18.9479 24.2141 18.4401 24.118 18.344 24.269C18.3852 23.8572 19.1537 24.0082 19.2086 24.5571ZM13.7055 23.0201C14.1622 23.4208 14.7157 23.6952 15.3111 23.8161C15.8064 23.9283 16.3129 23.9835 16.8207 23.9808C16.807 23.8576 16.807 23.7334 16.8207 23.6102C16.8223 23.5272 16.8315 23.4445 16.8482 23.3632C16.3515 23.3159 15.86 23.224 15.3798 23.0887C14.6595 22.8948 13.9742 22.5892 13.3487 22.183L13.4447 22.4025C13.5208 22.6128 13.6079 22.8189 13.7055 23.0201ZM13.184 21.7438C12.9781 21.1949 12.8134 20.6734 12.7037 20.3166C13.2526 21.0027 14.1721 21.4968 15.1739 21.785C15.9328 22.0085 16.7164 22.1376 17.5069 22.1692H18.1382C18.1492 22.3263 18.1722 22.4823 18.2068 22.6358C18.248 22.8966 18.2617 23.0201 17.9598 23.0887C17.3285 23.2397 16.3678 23.1299 15.4484 22.8692C14.5289 22.6084 13.6369 22.1967 13.184 21.7575V21.7438ZM18.3715 22.1418C18.6725 22.1152 18.9683 22.0459 19.2498 21.9359C19.4401 21.8597 19.5928 21.7119 19.6752 21.5242C19.785 21.1537 19.2772 21.3458 19.1812 21.0714C19.0302 21.5105 19.4557 21.4282 19.4419 21.4693C19.4282 21.5105 19.3184 21.6477 19.1537 21.7164C18.9891 21.785 18.2068 21.9497 17.5069 21.9359C16.7396 21.9078 15.9788 21.7833 15.2425 21.5654C14.1858 21.2498 13.2114 20.7283 12.7448 19.9735C12.8508 19.906 12.9768 19.8769 13.1016 19.8911C13.0198 19.812 12.9118 19.7655 12.7981 19.7605C12.6843 19.7554 12.5726 19.7921 12.4841 19.8637C12.3836 19.9398 12.3123 20.0482 12.2824 20.1707C12.2524 20.2931 12.2654 20.4222 12.3194 20.5361C12.3348 20.4135 12.3875 20.2985 12.4704 20.2068C12.6671 20.9832 12.9193 21.7446 13.2251 22.4849C13.9525 24.2964 14.6524 25.2982 16.807 25.3668C17.2599 25.3806 18.5499 25.3257 18.2068 24.4474C18.2011 24.5553 18.1644 24.6593 18.1011 24.7469C18.0378 24.8345 17.9506 24.902 17.85 24.9414C17.8637 24.8591 17.8912 24.7767 17.9049 24.6944C17.9407 24.5275 17.9591 24.3573 17.9598 24.1866C17.9323 24.0219 17.85 23.9121 17.6441 23.9396C17.4383 23.967 17.2873 23.9808 17.054 23.9808C17.0402 23.8622 17.0402 23.7425 17.054 23.6239C17.0507 23.5397 17.0647 23.4556 17.0952 23.3769C17.4033 23.3914 17.7121 23.3684 18.0147 23.3083C18.5362 23.1848 18.495 22.9927 18.4264 22.581C18.4127 22.4574 18.3852 22.3065 18.3715 22.1418ZM17.6167 25.0512C17.3554 25.1091 17.0883 25.1367 16.8207 25.1335C15.2562 25.0786 14.5152 24.5297 13.9525 23.5004C14.3511 23.7563 14.7928 23.9377 15.2562 24.0357C16.0482 24.2151 16.8644 24.2615 17.6716 24.1729C17.7128 24.1729 17.7265 24.1866 17.7265 24.2141C17.7238 24.362 17.7054 24.5092 17.6716 24.6532C17.6389 24.7835 17.6205 24.9169 17.6167 25.0512Z" fill="#42421A"/>
<path fill-rule="evenodd" clip-rule="evenodd" d="M7.92752 13.4824C7.8222 13.4706 7.71558 13.4803 7.61414 13.511C7.5127 13.5417 7.41855 13.5926 7.3374 13.6608C7.45013 13.6334 7.56776 13.6334 7.68049 13.6608C8.25688 13.8392 8.17454 13.4961 7.92752 13.4824Z" fill="#F8C68E"/>
<path fill-rule="evenodd" clip-rule="evenodd" d="M5.44343 15.4584C4.88076 15.6231 4.70236 15.8838 4.64746 16.4327C4.68863 15.9524 6.33546 15.1976 5.44343 15.4584Z" fill="#F8C68E"/>
<path fill-rule="evenodd" clip-rule="evenodd" d="M20.9927 21.2085C21.8847 22.2515 22.1455 22.9926 21.5279 24.3786C22.118 23.7611 22.1866 23.1572 21.9808 22.5809C21.7749 22.0045 21.4456 21.6477 20.9927 21.2085Z" fill="#F8C68E"/>
<path fill-rule="evenodd" clip-rule="evenodd" d="M0.379395 16.8032C0.763155 16.5946 1.19154 16.4816 1.62824 16.4738L1.12047 16.4326C0.695037 16.4463 0.448012 16.611 0.379395 16.8032Z" fill="#F8C68E"/>
<path fill-rule="evenodd" clip-rule="evenodd" d="M3.02832 11.4787C3.4263 11.3689 3.83801 11.863 4.07131 12.1923C3.92035 11.4787 3.33024 11.1768 3.02832 11.4787Z" fill="#F8C68E"/>
<path fill-rule="evenodd" clip-rule="evenodd" d="M1.88947 14.1681C1.38169 13.8525 1.05233 13.8936 0.901367 14.1407C1.17584 14.0172 1.60127 14.0858 1.88947 14.1681Z" fill="#F8C68E"/>
<path fill-rule="evenodd" clip-rule="evenodd" d="M19.4694 30.2524C19.3185 30.5269 18.9754 30.6641 18.646 30.7739C18.9616 30.8974 19.1263 31.5013 18.9342 31.9679C19.4557 31.7758 19.5792 30.3073 19.4694 30.2524Z" fill="#F8C68E"/>
<path fill-rule="evenodd" clip-rule="evenodd" d="M16.6558 27.3566C18.4398 27.3017 19.6887 26.9723 19.5926 25.1196C19.373 26.4508 17.7948 27.1644 16.6558 27.3566Z" fill="#F8C68E"/>
<path fill-rule="evenodd" clip-rule="evenodd" d="M19.6474 26.8765C19.2769 27.9332 18.0006 28.6194 16.6831 28.935C18.0692 29.086 19.6611 28.4821 19.6474 26.8765Z" fill="#F8C68E"/>
<path fill-rule="evenodd" clip-rule="evenodd" d="M19.6061 28.2351C19.3591 28.8252 18.522 29.9643 17.0947 30.4172C18.3985 30.4995 19.6061 29.6624 19.6061 28.2351Z" fill="#F8C68E"/>
<path fill-rule="evenodd" clip-rule="evenodd" d="M16.7934 25.4492C14.6388 25.3806 13.9389 24.3788 13.2116 22.5673L13.0469 22.1418C13.4174 23.3632 13.8566 24.3376 14.4467 24.9415C15.0368 25.5453 16.5464 25.8609 17.3561 25.4218C17.1693 25.4427 16.9814 25.4519 16.7934 25.4492Z" fill="#F8C68E"/>
<path fill-rule="evenodd" clip-rule="evenodd" d="M15.4483 7.40259C16.3129 5.92045 16.8207 4.61671 17.301 3.25807C17.3696 3.91681 16.162 6.77131 15.4483 7.40259ZM6.34961 6.66152C7.47494 7.92409 8.46304 8.19856 9.93146 8.77495C8.71006 8.70633 6.37706 7.44377 6.34961 6.66152ZM8.33953 3.65606C8.47676 4.65788 10.549 7.4026 11.2215 7.75941C10.2883 6.67525 9.02571 4.93235 8.33953 3.65606ZM11.5097 1.92689C11.7979 3.72468 12.2919 5.57736 12.6762 7.37515C12.0723 5.96162 11.2078 2.10529 11.5097 1.92689ZM14.6387 1.30933C14.3779 3.31297 14.172 5.30289 14.076 7.32025C13.8564 6.5929 14.1446 2.20136 14.6387 1.30933Z" fill="#42421A"/>
<path fill-rule="evenodd" clip-rule="evenodd" d="M13.3624 14.3603C13.4673 14.2322 13.5871 14.117 13.7193 14.0172C13.9771 13.8364 14.2827 13.7361 14.5976 13.729C14.8864 13.7267 15.1689 13.8129 15.4073 13.9761C15.5027 14.0441 15.5862 14.1276 15.6543 14.2231C15.7842 14.428 15.8857 14.6496 15.9562 14.8818C15.8839 14.5205 15.7442 14.176 15.5445 13.8663C15.4764 13.7708 15.393 13.6873 15.2975 13.6192C15.0612 13.4519 14.7772 13.3653 14.4878 13.3722C14.1772 13.3795 13.876 13.4799 13.6232 13.6604C13.485 13.7529 13.3642 13.869 13.2664 14.0035C12.9674 14.4414 12.779 14.9453 12.7174 15.4719C12.6375 16.1302 12.6606 16.797 12.7861 17.4481C12.8135 17.5854 12.8547 17.7226 12.8958 17.8598C12.8961 17.8406 12.8914 17.8217 12.8821 17.8049C12.7613 17.1531 12.7428 16.4863 12.8272 15.8287C12.8842 15.3032 13.0678 14.7993 13.3624 14.3603Z" fill="#CCCBCB"/>
<path fill-rule="evenodd" clip-rule="evenodd" d="M18.1927 14.0996C18.3443 14.0172 18.5143 13.9746 18.6868 13.9761C18.8527 13.973 19.0156 14.0209 19.1534 14.1133C19.2946 14.1864 19.4097 14.3015 19.4828 14.4427C19.6073 14.6845 19.6952 14.9435 19.7435 15.2112C19.6893 14.8545 19.583 14.5077 19.4279 14.182C19.3482 14.0502 19.2405 13.9377 19.1122 13.8526C18.9634 13.7739 18.7998 13.7271 18.6319 13.7154C18.4576 13.7141 18.2865 13.7616 18.1378 13.8526C17.975 13.9404 17.8414 14.074 17.7536 14.2369L17.6987 14.3192C17.4654 14.7721 17.3556 15.4308 17.3419 16.0895C17.3301 16.6794 17.3854 17.2687 17.5066 17.8462C17.4198 17.3525 17.383 16.8513 17.3968 16.3503C17.4105 15.6778 17.5066 15.0328 17.7536 14.5662V14.5388L17.7948 14.4702C17.8979 14.3183 18.0339 14.1917 18.1927 14.0996Z" fill="#CCCBCB"/>
<path fill-rule="evenodd" clip-rule="evenodd" d="M15.1734 21.7848C14.1715 21.4966 13.2521 21.0026 12.7031 20.3164C12.7443 20.4674 12.8129 20.6595 12.8815 20.8653C12.9501 21.0712 13.0737 21.428 13.1835 21.7437L13.4305 21.9495C13.2109 20.8928 14.1715 21.5927 14.7617 21.7711C15.499 21.9845 16.2592 22.1089 17.0261 22.1416C16.3979 22.0866 15.777 21.9671 15.1734 21.7848Z" fill="#E2E2AC"/>
<path fill-rule="evenodd" clip-rule="evenodd" d="M16.9855 25.1336C15.5034 25.0787 14.7623 24.5847 14.1997 23.6514L13.9526 23.5005C14.5153 24.5298 15.2564 25.0787 16.8209 25.1336H16.9855Z" fill="#E2E2AC"/>
<path fill-rule="evenodd" clip-rule="evenodd" d="M14.9812 6.40061L14.6244 7.42988V7.47105L14.5833 7.60829V7.32009C14.5695 7.23775 14.5558 7.15541 14.5421 7.04562C14.35 5.90656 14.844 4.45187 14.4186 5.56348C14.2943 5.85921 14.2023 6.16748 14.1441 6.48295C14.1304 6.63391 14.1167 6.77115 14.1167 6.92211C14.1167 7.07307 14.1029 7.18286 14.0892 7.32009C13.8834 6.64764 14.1167 2.83248 14.5558 1.56991C14.6118 1.18381 14.699 0.802872 14.8166 0.430856C14.2676 0.238726 13.5265 0.828841 13.5128 1.9679C13.4854 3.71079 13.4579 4.20484 13.4305 4.67144C13.403 5.13804 13.3893 5.37134 13.3756 6.19476L13.3481 7.92393L13.2383 7.41616C13.2383 8.44543 12.9364 6.90839 12.9227 6.71626C12.8266 5.79678 12.8129 5.94773 12.7992 6.81232C12.7855 7.08679 12.7992 7.37499 12.8129 7.66318C12.758 7.52595 12.7169 7.38871 12.662 7.23775C12.6071 7.08679 12.6757 7.33382 12.6894 7.37499C12.1267 6.05752 11.3445 2.62663 11.468 2.00907C11.3955 1.58725 11.3543 1.16066 11.3445 0.732776C10.8779 0.705328 10.4662 1.29544 10.5897 2.40705C10.6815 3.34353 10.9032 4.26268 11.2484 5.13804C11.4935 5.78018 11.6862 6.44106 11.8248 7.11424L11.9895 7.97882L11.9209 7.89648L11.9621 7.95138C11.2896 7.71808 11.0151 7.12796 10.6995 6.59274C10.8758 7.0711 11.1158 7.52348 11.4131 7.93765L11.1386 7.70435C10.5211 7.27892 9.0801 5.42624 8.54488 4.25974C8.26928 3.78 8.03071 3.27992 7.83126 2.76386C7.41955 3.02461 7.25487 3.75196 7.65285 4.43814C8.05083 5.12432 8.46254 5.59092 8.94287 6.05752C9.46853 6.5362 9.94652 7.06475 10.3701 7.63573L10.974 8.4317L11.0837 8.51404C10.5211 8.63756 9.27223 8.26702 8.75074 8.00627C9.29968 8.37681 9.69766 8.63756 10.1368 8.78852L9.75256 8.70617L9.93096 8.77479C8.79191 8.70617 6.70592 7.62201 6.39028 6.83977C6.13734 6.52936 5.94212 6.17611 5.81389 5.79678C5.25122 6.11242 5.08654 7.0319 5.69038 7.63573C6.51379 8.45915 7.57051 8.84341 8.65467 9.22767C9.14872 9.40608 9.65649 9.59821 10.1643 9.83151C10.5482 9.47501 10.9773 9.17049 11.4406 8.92575L11.6739 8.81596C11.906 8.71029 12.1443 8.61864 12.3875 8.54149H12.4973C12.704 8.47671 12.9149 8.42627 13.1286 8.39053L13.307 8.36308C13.6392 8.32199 13.9743 8.30822 14.3088 8.32191H14.5146L15.0224 8.37681L15.2969 8.4317L15.3792 8.39053C16.0791 7.91021 16.683 6.46923 16.7241 5.70071C16.4834 6.22539 16.159 6.70743 15.7635 7.12796L15.9282 6.78487C15.7933 7.01337 15.6321 7.22525 15.4478 7.41616C16.1053 6.27515 16.6566 5.07616 17.0947 3.8343C17.3005 3.21674 17.4515 2.64035 17.5613 2.16003C17.1358 2.16003 16.5732 2.6678 15.9556 3.99899C15.6949 4.57538 15.3655 5.289 14.9812 6.40061Z" fill="#808033"/>
<path fill-rule="evenodd" clip-rule="evenodd" d="M12.5383 4.47951C12.5108 3.58747 12.2913 2.10533 11.9345 1.3917C11.5776 0.678075 11.4267 1.28191 11.7149 1.6799C12.0031 2.07788 12.2364 2.59938 12.5383 4.47951Z" fill="#C8C865"/>
<path fill-rule="evenodd" clip-rule="evenodd" d="M17.7258 3.09377C17.8494 3.79367 17.4239 4.919 17.3828 5.05624C17.3416 5.19347 18.2199 3.82112 18.014 2.94281C17.8905 2.43503 17.6435 2.62717 17.7258 3.09377Z" fill="#C8C865"/>
<path fill-rule="evenodd" clip-rule="evenodd" d="M10.0275 5.43979C9.79417 4.56148 9.13544 3.25774 8.44926 2.8872C8.2434 2.76369 8.09245 3.03816 8.31202 3.20284C9.12171 3.77923 9.61576 4.5752 10.0275 5.43979Z" fill="#C8C865"/>
<path fill-rule="evenodd" clip-rule="evenodd" d="M14.8991 1.5286C15.0363 2.2834 14.9677 2.76372 14.7207 4.09491C15.0775 3.2715 15.3383 2.06382 15.1187 1.14434C14.9952 0.622847 14.7756 0.869871 14.8991 1.5286Z" fill="#C8C865"/>
<path fill-rule="evenodd" clip-rule="evenodd" d="M7.18643 6.38672C6.93886 6.20123 6.65995 6.06177 6.36301 5.97501C6.07482 5.90639 6.12971 6.29065 6.2395 6.27693C6.55901 6.26196 6.87882 6.29904 7.18643 6.38672Z" fill="#C8C865"/>
</svg>
