<svg width="23" height="32" viewBox="0 0 23 32" fill="none" xmlns="http://www.w3.org/2000/svg">
<path d="M6.12232 16.1198C6.13077 16.2129 6.13077 16.3144 6.11387 16.4075C6.11387 16.4244 6.10542 16.4328 6.10542 16.4498C6.00401 16.4836 5.90261 16.5344 5.8012 16.5851C5.16742 16.8982 4.42378 17.1689 3.70549 16.9828C3.44353 16.8982 3.19846 16.7628 3.0041 16.5682C2.852 16.4075 2.72524 16.2213 2.60693 16.0268C2.62383 16.0268 2.64074 16.0268 2.65764 16.0268C2.94495 16.0268 3.25762 15.9845 3.55338 15.8914C3.57028 15.9252 3.58719 15.9591 3.61254 15.9929C3.79 16.2298 4.07731 16.3821 4.36463 16.4159C4.39843 16.4159 4.44068 16.4244 4.47448 16.4244C5.01531 16.4244 5.59839 16.1283 6.02936 15.7729C6.08007 15.8914 6.10542 16.0098 6.12232 16.1198Z" fill="#00BB33"/>
<path d="M9.77299 24.2672C9.89129 24.3518 10.0011 24.4364 10.1195 24.5126C9.89129 24.741 9.70538 25.0033 9.52792 25.274C9.42652 25.4348 9.16455 25.8408 9.0378 26.1962C8.78428 25.9931 8.45472 25.8155 8.1167 25.7139C8.25191 25.5109 8.38711 25.3079 8.52232 25.1048C8.80119 24.7156 9.14765 24.3772 9.48567 24.0388C9.58708 24.1234 9.68003 24.1911 9.77299 24.2672Z" fill="#00BB33"/>
<path d="M11.632 2.12703C11.6489 2.16087 11.6658 2.18625 11.6742 2.22009C11.5559 2.25393 11.4292 2.29623 11.3109 2.33853C11.032 2.18625 10.7531 2.00012 10.6348 1.6871C10.5926 1.56865 10.5588 1.36561 10.6771 1.28101C10.9052 1.44175 11.1588 1.57711 11.3531 1.78016C11.463 1.8986 11.5644 2.00012 11.632 2.12703Z" fill="#DCED3A"/>
<path d="M12.7472 0.527832C12.9754 0.933922 12.9077 1.43308 12.7894 1.86455C12.7725 1.93223 12.7472 1.99991 12.7218 2.06759C12.519 2.06759 12.3162 2.09297 12.1134 2.12681C12.105 2.08451 12.0965 2.04221 12.0965 1.99145C12.0205 1.31463 12.2233 0.942383 12.7472 0.527832Z" fill="#DCED3A"/>
<path d="M14.0992 1.17065C14.0992 1.5429 13.9386 1.83901 13.7105 2.1182C13.702 2.12666 13.702 2.13512 13.6935 2.14358C13.5245 2.10974 13.3555 2.08436 13.1865 2.06744C13.2119 2.02514 13.2288 1.98284 13.2457 1.94053C13.2879 1.87285 13.3386 1.81363 13.3809 1.75441C13.5837 1.52598 13.8541 1.36524 14.0992 1.17065Z" fill="#DCED3A"/>
<path d="M5.24318 11.9573C5.42064 12.1688 5.48825 12.4565 5.47135 12.7272C5.42909 13.2094 5.16713 13.6917 4.72771 13.9116C4.48264 14.0216 4.22068 14.0808 3.95027 14.0893C3.95872 13.9962 3.95872 13.9032 3.94181 13.8016C3.91646 13.6324 3.84886 13.4717 3.73055 13.3448C3.7052 13.3194 3.67985 13.3025 3.6545 13.2856C3.6038 13.1925 3.46859 13.2602 3.51084 13.3532C3.46859 13.607 3.49394 13.8693 3.39254 14.1062C3.07142 14.6815 2.29398 14.6477 1.77005 14.4108C1.06866 14.1062 0.60389 13.3702 0.553188 12.6172C0.536287 12.3549 0.570088 12.0673 0.747548 11.8558C1.03486 11.5512 1.49964 11.4074 1.90526 11.5428C2.12497 11.6189 2.29398 11.7796 2.44609 11.9488C2.45454 11.9573 2.46299 11.9742 2.47989 11.9911C2.48834 12.0165 2.49679 12.0419 2.51369 12.0673C2.62355 12.3803 2.62355 12.7356 2.24328 12.8541C1.95596 12.9556 1.65175 12.8202 1.40668 12.668C1.28838 12.5834 1.17007 12.4903 1.10247 12.3634C1.07711 12.3211 1.09402 12.245 1.01796 12.2534C0.98416 12.2619 0.967259 12.2873 0.97571 12.3211C1.00106 12.8964 1.49119 13.4463 2.08272 13.4463C2.08272 13.4463 2.08272 13.4463 2.09117 13.4463C2.37003 13.4378 2.6489 13.3363 2.85171 13.1417C2.95311 13.1164 3.04607 13.0825 3.13902 13.0402C3.17282 13.0318 3.19818 13.0233 3.23198 13.0064C3.52774 13.1587 3.88266 13.201 4.21223 13.1248C4.41504 13.0825 5.07417 12.8456 4.95587 12.5749C4.87136 12.4988 4.63475 12.5749 4.5249 12.5834C4.38969 12.6087 4.25448 12.6257 4.11927 12.6341C3.46014 12.7187 2.80946 12.135 3.5869 11.6866C4.12772 11.4497 4.82911 11.5343 5.24318 11.9573Z" fill="white"/>
<path d="M3.33351 11.1877C3.18985 11.2639 3.05464 11.357 2.94479 11.4754C2.91098 11.4331 2.86028 11.4077 2.80958 11.3739C2.76733 11.3485 2.71662 11.3231 2.67437 11.2977C2.37016 11.1201 2.09129 10.9086 1.81243 10.7055C1.79553 10.6971 1.78708 10.6886 1.77017 10.6801C1.71947 10.6209 1.66877 10.5617 1.61807 10.5025C1.50821 10.3756 1.39836 10.2402 1.29695 10.0964C0.950482 9.59723 0.71387 8.73428 1.65187 9.02193C2.56452 9.3688 3.01239 10.3333 3.33351 11.1877Z" fill="white"/>
<path d="M4.47457 8.99646C4.61822 9.43639 4.61822 9.91016 4.58442 10.367C4.57597 10.5362 4.55062 10.7054 4.54217 10.8746C4.53372 10.9169 4.53372 10.9677 4.53372 11.01C4.40696 10.9931 4.28021 10.9846 4.15345 10.9931C4.04359 10.9931 3.93374 11.01 3.82388 11.0269C3.74783 10.9423 3.65487 10.8915 3.57037 10.8239C3.53657 10.5024 3.44361 10.1724 3.2915 9.8594C3.31686 9.6479 3.34221 9.43639 3.40136 9.22489C3.60417 8.45501 4.0943 8.01508 4.47457 8.99646Z" fill="white"/>
<path d="M4.16143 14.6311C4.15298 14.7072 4.14453 14.7834 4.11073 14.8426C3.88257 15.3164 3.12203 15.4687 2.64035 15.4687C2.41219 15.4602 2.15023 15.401 2.00657 15.2064C1.97277 15.1726 1.95587 15.1303 1.93896 15.0795C2.04037 15.1049 2.15023 15.1303 2.26008 15.1387C2.34459 15.1556 2.42064 15.1556 2.50514 15.1556C2.92767 15.1556 3.38399 14.978 3.67131 14.6819C3.69666 14.6819 3.71356 14.6734 3.73891 14.6734C3.88257 14.648 4.01777 14.6396 4.16143 14.6311Z" fill="white"/>
<path d="M21.7132 17.2282C21.7216 17.5412 21.5019 17.795 21.2568 17.9642C20.885 18.1927 20.4118 18.2096 19.9893 18.1334C19.4484 18.0404 18.9499 17.5751 19.2879 17.0252C19.3977 16.8644 19.5499 16.7544 19.7189 16.6614C19.7358 16.6529 19.7527 16.6444 19.7696 16.636C19.778 16.7121 19.778 16.7883 19.7865 16.8644C19.7865 16.8983 19.7865 16.9236 19.7865 16.9575C19.7273 16.9575 19.6766 16.9659 19.6513 16.9913C19.5837 17.059 19.6344 17.169 19.6935 17.2282C19.8456 17.3889 20.0653 17.4566 20.2766 17.4989C20.3695 17.5158 20.471 17.5243 20.5639 17.5243C20.7836 17.5243 20.9949 17.482 21.2061 17.4143C21.316 17.372 21.3667 17.262 21.3498 17.1605C21.3582 17.1436 21.3667 17.1267 21.3752 17.1013C21.4005 17.0167 21.4005 16.9236 21.409 16.839C21.409 16.8137 21.409 16.7883 21.409 16.7544C21.5611 16.8813 21.6963 17.0336 21.7132 17.2282Z" fill="white"/>
<path d="M22.1356 18.5987C22.3046 18.9456 22.3807 19.3432 22.3046 19.7154C22.2201 20.1384 21.9835 20.5615 21.5864 20.7645C21.5019 20.7983 21.4174 20.8322 21.3328 20.8576C21.3497 20.8237 21.3666 20.7899 21.3835 20.756C21.4427 20.6122 21.5019 20.4515 21.4765 20.2907C21.4596 20.24 21.4512 20.1131 21.3835 20.13C21.3582 20.13 21.3413 20.1554 21.3413 20.1723C21.0202 20.5276 20.7329 20.9252 20.2512 21.0691C20.023 21.1452 19.7949 21.1621 19.5583 21.1621C19.7273 20.9845 19.8878 20.7899 20.0146 20.5784C20.0906 20.4684 20.1667 20.3669 20.2089 20.24C20.2427 20.1469 20.0991 20.0708 20.0399 20.1554C19.9301 20.2992 19.7864 20.4176 19.6343 20.5192C19.4315 20.6714 19.2118 20.7899 18.9921 20.9083C18.7048 21.0606 18.3752 21.1537 18.0456 21.1283C17.6823 21.1029 17.3696 21.0014 17.2935 20.6038C17.2006 20.1638 17.547 19.6816 18.0034 19.6731C18.071 19.6647 18.147 19.6816 18.2231 19.6901C18.24 19.6901 18.2484 19.6901 18.2653 19.6985C18.2653 19.7408 18.2738 19.7831 18.2822 19.8254C18.2991 19.9523 18.316 20.0877 18.4343 20.1554C18.4766 20.1892 18.5273 20.2061 18.578 20.2061C18.5949 20.2061 18.6118 20.2061 18.6372 20.1977C18.7301 20.1723 18.7808 20.0792 18.8062 19.9946C18.8315 19.8931 18.7893 19.8 18.7724 19.6985C18.7132 19.4701 18.6625 19.2501 18.6456 19.0132C18.6456 18.9879 18.6456 18.9709 18.6372 18.9456C18.6287 18.9033 18.578 18.8863 18.5442 18.9033C18.5188 18.9117 18.4935 18.9371 18.4766 18.9625C18.4259 19.0302 18.3836 19.0978 18.3498 19.1824C18.3414 19.1994 18.3329 19.2163 18.3329 19.2332C18.0456 19.0809 17.6907 19.1063 17.4118 19.267C17.378 19.1909 17.3442 19.1232 17.3273 19.0809C17.2428 18.8525 17.2344 18.5902 17.3104 18.3618C17.3527 18.2349 17.4287 18.1165 17.5301 18.0149C17.7414 17.8203 18.0287 17.7188 18.316 17.6934C18.3836 17.685 18.4597 17.6934 18.5357 17.7019C18.578 17.7019 18.6287 17.7104 18.671 17.7104C18.7301 17.9388 18.8653 18.1503 19.0597 18.311C19.3977 18.6071 19.8794 18.6918 20.3188 18.7171C20.3441 18.7171 20.3695 18.7171 20.3864 18.7171C20.9188 18.7171 21.485 18.5395 21.8483 18.1503C21.8821 18.2095 21.9244 18.2603 21.9666 18.3195C22.0258 18.3956 22.0849 18.4972 22.1356 18.5987Z" fill="white"/>
<path d="M17.3275 25.0625C17.9022 25.494 17.7754 26.4754 17.4796 27.0422C17.3529 27.2537 17.1923 27.4568 16.9895 27.6006C16.643 27.4568 16.2628 27.3891 15.8825 27.3637C15.8149 27.3129 15.7557 27.2452 15.7135 27.1691C15.6966 27.1437 15.6881 27.1014 15.6797 27.0676C15.7219 27.076 15.7726 27.076 15.8149 27.076C16.0008 27.093 16.1867 27.1014 16.3726 27.1014C16.4656 27.1014 16.5501 27.1014 16.643 27.093C16.7106 27.0845 16.7867 27.076 16.8458 27.0507C16.8712 27.0591 16.8966 27.0676 16.9219 27.0676C17.0233 27.0676 17.1163 26.9999 17.1754 26.9068C17.2515 26.8053 17.3106 26.6869 17.336 26.56C17.3613 26.3908 17.3529 26.2131 17.3106 26.0439C17.243 25.8324 17.1163 25.6463 16.9557 25.5024C16.8374 25.4009 16.6853 25.3332 16.5332 25.3502C16.5078 25.3502 16.474 25.3586 16.4571 25.3755C16.4064 25.3755 16.3473 25.3671 16.2966 25.3586C16.1783 25.3502 16.0515 25.3417 15.9332 25.3248C15.9501 25.2994 15.9586 25.2656 15.967 25.2402C15.9839 25.1979 16.0008 25.164 16.0177 25.1217C16.4233 24.8595 16.9304 24.7664 17.3275 25.0625Z" fill="#DCED3A"/>
<path d="M20.2509 27.8628C20.2593 28.1927 20.2424 28.5311 20.1917 28.8611C20.1326 29.1995 20.0312 29.5379 19.9129 29.8594C19.71 30.3839 19.4565 30.7731 18.9749 31.0692C18.5608 31.3145 18.0707 31.3568 17.6059 31.3991C16.7946 31.4668 15.9749 31.4245 15.1553 31.3568C14.7158 31.3145 14.2764 31.2807 13.8454 31.1876C13.5159 31.1115 13.2455 30.9508 13.0933 30.6377C12.9666 30.367 12.9835 30.0878 13.0511 29.8002C13.1863 29.2672 13.5497 28.8272 13.9637 28.4719C14.2004 28.2858 14.4623 28.1335 14.7496 28.0404C15.3243 27.8712 15.9327 27.8882 16.5073 28.0235C16.9214 28.125 17.2932 28.3366 17.6397 28.5734C17.7411 28.6411 17.8425 28.7173 17.9524 28.768C18.1721 28.8695 18.1805 28.675 18.1045 28.5227C18.02 28.3619 17.9016 28.2181 17.7664 28.0912V28.0827C17.7495 28.032 17.7411 27.9897 17.7326 27.9389C17.7157 27.8628 17.7073 27.7866 17.7073 27.702C18.0369 27.3467 18.2059 26.8729 18.2735 26.3992C18.3326 26.01 18.2988 25.6124 18.1636 25.274C18.2143 25.2317 18.265 25.1893 18.3157 25.147C18.3242 25.1386 18.3326 25.1301 18.3411 25.1301C18.9157 25.1724 19.465 25.5701 19.7607 26.0523C20.1072 26.5853 20.234 27.2283 20.2509 27.8628Z" fill="#DCED3A"/>
<path d="M8.89403 26.8391C9.08839 27.0844 9.2743 27.3721 9.24894 27.6936C9.24894 27.7443 9.22359 27.7782 9.19824 27.812C8.62361 27.3128 7.85462 26.9829 7.14478 26.9914C7.10253 26.8391 7.05183 26.6952 6.99268 26.5514C7.01803 26.4668 7.03493 26.3822 7.10253 26.3145C7.25464 26.1707 7.4828 26.1792 7.66871 26.1961C7.93913 26.2299 8.19264 26.3315 8.42925 26.4668C8.59826 26.5599 8.75882 26.6868 8.89403 26.8391Z" fill="#DCED3A"/>
<path d="M9.02901 28.4467C9.42618 28.8866 9.70505 29.5549 9.43463 30.1302C9.23182 30.5279 8.7586 30.7563 8.21777 30.8832C8.12481 30.8832 8.04031 30.8832 7.94735 30.8747C7.60934 30.8324 7.28822 30.714 6.9671 30.5956C6.43473 30.3925 5.88545 30.1218 5.47983 29.7157C5.18406 29.4365 4.98125 29.0812 4.81224 28.7174C4.56718 28.159 4.37282 27.5753 4.14466 27.0169C3.94185 26.5431 3.71368 26.0524 3.30806 25.714C2.95314 25.401 2.51372 25.291 2.125 25.4348C2.54752 25.0287 3.1475 24.8257 3.75594 24.8257C4.0686 24.8257 4.37282 24.8764 4.65168 24.9864C6.04601 25.5786 6.75584 26.89 7.01781 28.3282C6.984 28.4551 7.14456 28.5313 7.21217 28.4128C7.24597 28.2267 7.27132 28.0406 7.27132 27.8544C7.30512 27.7445 7.34737 27.6345 7.38963 27.533C7.38963 27.533 7.38963 27.5245 7.39808 27.5245C7.98961 27.7106 8.58959 27.9813 9.02901 28.4467Z" fill="#DCED3A"/>
<path d="M7.22889 31.01C6.75566 31.0354 6.29934 31.01 5.97822 30.9931C4.83741 30.9 3.51069 30.807 2.73325 29.851C2.25158 29.2165 1.96426 28.455 1.7192 27.7021C1.57554 27.2706 1.52484 26.7968 1.61779 26.3484C1.6347 26.3315 1.64315 26.3146 1.6347 26.2892C1.72765 26.1031 1.87976 25.9508 2.05722 25.8408C2.52199 25.494 3.06282 25.8155 3.37549 26.2131C4.07687 27.1606 4.22053 28.3789 4.81206 29.3857C5.13318 29.9356 5.65711 30.3417 6.22329 30.6124C6.55285 30.7478 6.88242 30.9 7.22889 31.01Z" fill="#F7FFBD"/>
<path d="M20.8846 16.8897C20.8846 16.9236 20.8846 16.9574 20.8931 16.9913C20.7072 17.0251 20.5213 17.042 20.3354 17.0336C20.3523 16.949 20.3438 16.8559 20.3438 16.7713C20.3438 16.4667 20.2931 16.1622 20.1579 15.8914C19.8114 15.1639 19.0425 14.7747 18.2481 14.8085C17.7157 14.8339 17.2256 15.0708 16.7862 15.35C16.5665 15.4938 16.3552 15.663 16.1862 15.866C16.1017 15.976 15.9918 16.1199 16.0172 16.2637C16.051 16.3314 16.1355 16.2891 16.1778 16.2552C16.2369 16.2214 16.2876 16.1791 16.3468 16.1452C16.4482 16.8305 16.5665 17.5073 16.6932 18.1841C16.7017 18.2349 16.7101 18.2772 16.7186 18.328C16.6763 18.531 16.6763 18.7425 16.727 18.9456C16.7524 19.0556 16.7946 19.174 16.8622 19.2755C16.8791 19.4363 16.8876 19.597 16.896 19.7577C16.7017 20.1046 16.6594 20.5276 16.7862 20.8914C16.7017 21.2721 16.5834 21.6528 16.4059 21.9997C16.2369 22.3212 16.0256 22.6258 15.789 22.8965C15.5524 23.1672 15.2989 23.4126 15.0031 23.6156C14.7665 23.7764 14.513 23.9033 14.2426 24.0048C14.2426 23.9963 14.2341 23.9879 14.2341 23.9794C14.2088 23.9202 14.1834 23.8525 14.1496 23.7933C14.1243 23.7425 14.0989 23.6833 14.0567 23.641C14.0398 23.6156 13.9975 23.6156 13.9891 23.6494C13.9553 23.7087 13.9299 23.7764 13.913 23.844C13.8623 24.0555 13.8961 24.267 13.9553 24.4701C14.1327 25.1131 14.7243 25.553 15.3412 25.756C15.6285 25.8406 15.9242 25.8914 16.2116 25.9083C16.2285 25.9083 16.2454 25.9083 16.2707 25.9083C16.3045 25.9083 16.3383 25.9083 16.3721 25.8999C16.4989 25.9252 16.6425 25.9422 16.6848 25.9675C16.7777 26.0183 16.8369 26.1114 16.8707 26.2044C16.8622 26.2975 16.8453 26.3821 16.8284 26.4752C16.82 26.5005 16.8115 26.5175 16.8031 26.5428C16.7946 26.5428 16.7862 26.5428 16.7862 26.5428C16.7439 26.5428 16.7439 26.5428 16.6932 26.5428C15.9242 26.5175 15.1045 26.509 14.3863 26.196C13.8285 25.9422 13.3046 25.5953 13.0764 25.0031C12.9497 24.6562 12.8821 24.284 12.806 23.9286C12.7976 23.8525 12.7722 23.7848 12.7384 23.7171C12.73 23.6833 12.6877 23.6833 12.6708 23.7002C12.5779 23.7933 12.5441 23.9202 12.5187 24.0471C12.5018 24.1148 12.4934 24.174 12.4934 24.2417C11.7497 24.2078 10.9976 24.0725 10.3216 23.751C9.66246 23.4126 9.14698 22.8711 8.73291 22.2535C8.03997 21.2383 7.61745 20.0708 7.31324 18.8948C6.97522 17.6342 6.7217 16.3483 6.67945 15.0369C6.6203 13.5395 6.7217 12.0505 6.90761 10.5615C7.00057 9.80007 7.13578 9.04711 7.33014 8.31107C7.58365 7.54119 7.89632 6.78823 8.20898 6.04374C8.69911 5.23155 9.22304 4.42783 9.93287 3.79332C10.423 3.36185 11.0061 3.04036 11.6145 2.82885C12.0117 2.69349 12.4258 2.60889 12.8483 2.60889C12.9328 2.60889 13.0173 2.60889 13.0933 2.61735C13.6342 2.66811 14.175 2.80347 14.6651 3.04036C15.0285 3.22648 15.3412 3.49721 15.62 3.80178C15.8904 4.11481 16.127 4.46167 16.2876 4.84238C16.6932 5.81531 16.6848 6.89822 16.6341 7.93882C16.5665 9.07249 16.3299 10.1892 16.22 11.3229C16.1524 12.0082 16.127 12.6935 16.1439 13.3787C16.1439 13.6664 16.1524 13.9456 16.1693 14.2332C16.0679 14.3263 15.9834 14.4194 15.9073 14.5378C15.8651 14.6139 15.7299 14.8677 15.8904 14.8762C16.0172 14.8508 16.127 14.7747 16.2369 14.7239C16.3637 14.6647 16.482 14.597 16.6087 14.5293C17.0481 14.3178 17.5214 14.1655 18.003 14.0894C18.5185 14.0217 19.0509 14.0386 19.5495 14.2078C19.7861 14.2924 20.0143 14.394 20.2002 14.5632C20.4452 14.7747 20.6227 15.0623 20.7241 15.3754C20.8255 15.6884 20.8593 16.0268 20.8846 16.3567C20.8846 16.5344 20.8846 16.7205 20.8846 16.8897Z" fill="#00BB33"/>
<path d="M12.7896 23.9289C12.7811 23.8528 12.7557 23.7851 12.7219 23.7174C12.7135 23.6835 12.6712 23.6835 12.6543 23.7005C12.5191 23.8443 12.4938 24.0558 12.4684 24.2504C9.9671 24.1912 8.76714 22.8544 7.85449 20.6632C8.35307 21.2047 8.83474 21.7715 9.41782 22.2368C9.61218 22.3468 9.82345 22.4314 10.0263 22.5076C11.0741 22.8544 12.198 22.9052 13.2036 22.4061C13.5839 22.203 13.9557 21.9238 14.1501 21.5262C14.9951 19.758 14.1163 16.8646 14.0318 14.9018C13.9557 14.0304 13.9811 13.159 14.0571 12.2961C14.0487 11.8562 14.0571 11.4078 14.0909 10.9678C14.1501 10.1726 14.2853 9.37732 14.3951 8.58206C14.4881 7.77833 14.5641 6.95769 14.5557 6.14551C14.5134 5.75634 14.3613 5.39255 14.2008 5.04568C13.8712 4.40271 13.3557 3.85279 12.705 3.5313C12.2149 3.28596 11.6487 3.15059 11.0995 3.26058C11.1079 3.26058 11.1079 3.26058 11.1164 3.26058C10.8882 3.31134 10.66 3.3621 10.4234 3.41286C11.1333 2.96447 11.9614 2.64298 12.8149 2.63452C13.8459 2.6599 14.9191 3.01523 15.5866 3.83587C17.3612 5.87479 16.4063 8.92892 16.1866 11.3485C16.0937 12.313 16.0852 13.2859 16.1359 14.2589C16.0345 14.3519 15.95 14.445 15.874 14.5634C15.8317 14.6396 15.6965 14.8934 15.8571 14.9018C15.9838 14.8765 16.0937 14.8003 16.2035 14.7496C16.2796 14.7073 16.3556 14.6734 16.4317 14.6311C16.457 14.8088 16.4908 15.0034 16.6345 15.1303C16.8542 15.1556 17.0739 15.0541 17.2767 14.9864C17.2598 14.9949 17.2345 15.0034 17.2176 15.0034C17.2345 14.9949 17.2429 14.9949 17.2598 14.9864H17.2514C18.088 14.6565 19.0091 14.5719 19.7865 15.1049C20.0485 15.2825 20.2851 15.5025 20.4795 15.7563C20.6147 15.934 20.7245 16.1286 20.8428 16.3147C20.8597 16.5347 20.8513 16.7631 20.8682 16.9915C20.6823 17.0254 20.4964 17.0423 20.3104 17.0338C20.471 15.7563 19.5077 14.7411 18.2316 14.8088C17.6993 14.8342 17.2091 15.071 16.7697 15.3502C16.5162 15.511 15.9669 15.934 16.0007 16.2639C16.0514 16.3739 16.2627 16.1793 16.3303 16.1455C16.4317 16.8731 16.5754 17.6006 16.7021 18.3282C16.6599 18.5313 16.6599 18.7428 16.7106 18.9458C16.7359 19.0558 16.7782 19.1742 16.8458 19.2758C16.8627 19.4365 16.8711 19.5973 16.8796 19.758C16.6852 20.1049 16.643 20.5279 16.7697 20.8917C16.6176 21.6362 16.288 22.3384 15.7726 22.8967C15.3585 23.3874 14.8346 23.7935 14.2261 24.005C14.2008 23.9374 14.167 23.8697 14.1332 23.802C14.1078 23.7597 14.0318 23.5566 13.9726 23.6582C13.8712 23.8527 13.8628 24.0812 13.8966 24.2927C13.7191 24.2927 13.5501 24.2504 13.3811 24.2335C13.2121 24.225 13.0262 24.2504 12.8741 24.3434C12.8487 24.1996 12.8234 24.0643 12.7896 23.9289Z" fill="#00922E"/>
<path d="M3.01241 16.5767C2.8603 16.416 2.73354 16.2299 2.61523 16.0353C2.63214 16.0353 2.64904 16.0353 2.66594 16.0353C2.95325 16.0353 3.26592 15.993 3.56168 15.8999C3.57858 15.9337 3.59549 15.9676 3.62084 16.0014C3.73069 16.1537 3.89125 16.2722 4.06871 16.3483C3.84055 16.5598 3.54478 16.6952 3.24902 16.7713C3.15606 16.7121 3.08001 16.6444 3.01241 16.5767Z" fill="#00922E"/>
<path d="M5.60659 16.6529C5.61505 16.4414 5.66575 16.2299 5.708 16.0184C5.82631 15.9422 5.93616 15.8661 6.03757 15.7815C6.10517 16.0015 6.15587 16.2299 6.10517 16.4583C6.00377 16.4922 5.90236 16.5429 5.80096 16.5937C5.73335 16.6275 5.66575 16.6614 5.59814 16.6867C5.60659 16.6698 5.60659 16.6614 5.60659 16.6529Z" fill="#00922E"/>
<path d="M9.20671 24.8762C9.1053 24.8339 9.01235 24.7662 8.92784 24.6986C8.91939 24.6901 8.90249 24.6816 8.89404 24.6732C9.0884 24.4532 9.29121 24.2502 9.50247 24.0471C9.58698 24.1233 9.67993 24.1909 9.77289 24.2671C9.8912 24.3517 10.0011 24.4363 10.1194 24.5124C9.91655 24.7155 9.73909 24.9439 9.58698 25.1808C9.46022 25.0877 9.33347 24.9777 9.20671 24.8762Z" fill="#00922E"/>
<path d="M16.7781 26.5516C16.7359 26.5516 16.7359 26.5516 16.6852 26.5516C16.212 26.5347 15.7218 26.5262 15.2402 26.4501C15.0289 26.1709 14.8768 25.8494 14.7754 25.511C15.2233 25.7902 15.7387 25.9002 16.2627 25.9171C16.2965 25.9171 16.3303 25.9171 16.3641 25.9086C16.4908 25.934 16.6345 25.9509 16.6767 25.9763C16.7697 26.0271 16.8288 26.1201 16.8626 26.2132C16.8542 26.3232 16.8373 26.4416 16.795 26.5431C16.7866 26.5516 16.7866 26.5516 16.7781 26.5516Z" fill="#00922E"/>
<path d="M13.2625 10.7647C13.2372 10.7647 13.2034 10.7478 13.1865 10.7224C13.1696 10.697 13.1611 10.6716 13.1611 10.6378C13.1696 10.5278 13.178 10.4178 13.1865 10.3163V10.3248C13.1865 10.3163 13.1865 10.3163 13.1865 10.3079C13.1949 10.2148 13.1949 10.1217 13.2034 10.0287C13.2034 9.93561 13.2118 9.84255 13.2118 9.74949C13.2118 9.65642 13.2203 9.5549 13.2372 9.46184C13.2541 9.36032 13.2794 9.26725 13.3132 9.17419C13.3301 9.11497 13.347 9.05575 13.3555 8.98807C13.3893 8.81886 13.4146 8.6412 13.4231 8.46353C13.4315 8.33663 13.4315 8.21819 13.4315 8.09128C13.4315 7.96438 13.4231 7.84594 13.4146 7.71903C13.3977 7.52445 13.3724 7.32986 13.347 7.14374C13.3301 7.03376 13.3217 6.92377 13.3132 6.81379C13.3132 6.70381 13.3217 6.59382 13.3301 6.4923C13.3386 6.39924 13.3639 6.30618 13.3893 6.20465C13.3977 6.16235 13.4062 6.12851 13.4062 6.08621C13.4146 6.03545 13.4231 5.99315 13.4315 5.94239C13.4484 5.86625 13.4569 5.7901 13.4653 5.71396C13.4653 5.68012 13.4738 5.63782 13.4738 5.60398C13.4738 5.57014 13.4822 5.52784 13.4992 5.494C13.4992 5.494 13.4992 5.494 13.4992 5.48554C13.5076 5.4517 13.5583 5.4517 13.5752 5.47708C13.6006 5.51092 13.609 5.56168 13.6175 5.60398C13.6259 5.65474 13.6344 5.7055 13.6513 5.75626C13.6682 5.84933 13.702 5.93393 13.7189 6.02699C13.7273 6.06929 13.7442 6.12005 13.7527 6.16235C13.7696 6.21311 13.7865 6.25542 13.7949 6.30618C13.8625 6.51768 13.8879 6.72919 13.8879 6.94915C13.8879 7.05914 13.871 7.16912 13.8541 7.28756C13.8456 7.38909 13.8287 7.49061 13.8203 7.58367C13.8034 7.67673 13.7949 7.77826 13.778 7.87132C13.7611 7.97284 13.7442 8.0659 13.7358 8.16743C13.7104 8.31971 13.6851 8.47199 13.6597 8.62428C13.6344 8.7681 13.6175 8.92038 13.6006 9.07267C13.5921 9.16573 13.6006 9.25033 13.5921 9.3434C13.5837 9.44492 13.5752 9.54644 13.5499 9.64796C13.533 9.73257 13.5076 9.80871 13.4822 9.89331C13.4738 9.93561 13.4653 9.98637 13.4484 10.0287C13.44 10.071 13.4231 10.1133 13.4146 10.164C13.3808 10.3248 13.3639 10.4855 13.347 10.6547C13.3386 10.714 13.2879 10.7478 13.2372 10.7478C13.271 10.7647 13.2625 10.7647 13.2625 10.7647Z" fill="#00922E"/>
<path d="M13.6004 21.7205C13.4821 21.6951 13.5413 21.5513 13.5413 21.4667C13.5497 21.1537 13.499 20.8491 13.4906 20.5361C13.4906 20.1723 13.4652 19.8085 13.406 19.4447C13.3469 19.0386 13.2877 18.641 13.2117 18.2349C13.1356 17.8372 13.0596 17.4481 13.0511 17.042C13.0427 16.8389 13.0596 16.6444 13.068 16.4498C13.0765 16.2467 13.0934 16.0437 13.1187 15.8322C13.1441 15.6207 13.1525 15.4092 13.1863 15.1977C13.1948 15.1554 13.2624 15.1469 13.2624 15.2061C13.2708 15.4938 13.2793 15.773 13.33 16.0606C13.3807 16.3905 13.4652 16.7205 13.5244 17.0504C13.6004 17.4312 13.6089 17.8288 13.6427 18.218C13.6765 18.6156 13.7525 19.0217 13.7863 19.4193C13.8117 19.7916 13.8708 20.1723 13.8793 20.5445C13.8793 20.7983 13.8201 21.0437 13.7694 21.2806C13.7441 21.3567 13.7272 21.4413 13.7103 21.5174C13.7018 21.602 13.7018 21.7289 13.6004 21.7205Z" fill="#00922E"/>
<path d="M11.657 22.186C11.6063 22.1606 11.581 22.1183 11.5641 22.0676C11.5556 22.0422 11.5472 22.0083 11.5387 21.983C11.5049 21.8899 11.4795 21.8053 11.4542 21.7122C11.4288 21.6192 11.4035 21.5261 11.3781 21.4415C11.3528 21.34 11.3359 21.23 11.319 21.1285C11.3021 21.0269 11.2852 20.9254 11.2767 20.8239C11.2514 20.6293 11.2514 20.4347 11.2345 20.2486C11.226 20.1471 11.2176 20.0456 11.2176 19.944C11.2091 19.8341 11.2091 19.7325 11.2007 19.6225V19.631C11.1922 19.4703 11.1669 19.318 11.15 19.1572C11.1415 19.0811 11.1246 19.0134 11.1162 18.9373C11.1077 18.895 11.1077 18.8611 11.0993 18.8188C11.0993 18.785 11.0908 18.7427 11.1077 18.7088C11.1246 18.6919 11.1584 18.6835 11.1753 18.7004C11.2007 18.7258 11.2007 18.7596 11.2091 18.785C11.2176 18.8188 11.2176 18.8527 11.226 18.8865C11.2345 18.9627 11.2429 19.0388 11.2598 19.1149C11.2767 19.2588 11.3021 19.4026 11.3274 19.5379V19.5295C11.3697 19.7241 11.4204 19.9187 11.4711 20.1132C11.5218 20.3078 11.581 20.494 11.6401 20.6885C11.6908 20.8408 11.7331 21.0016 11.7753 21.1623C11.7922 21.2385 11.8176 21.3231 11.8345 21.3992C11.8514 21.4753 11.8683 21.5515 11.8852 21.6361C11.8936 21.6953 11.9105 21.7461 11.9274 21.8053C11.9443 21.8645 11.9528 21.9153 11.9697 21.9745C12.0035 22.0845 11.9359 22.1945 11.826 22.2283C11.8091 22.2368 11.7922 22.2368 11.7753 22.2368C11.7246 22.2198 11.6908 22.2114 11.657 22.186Z" fill="#00922E"/>
<path d="M10.8884 17.8629C10.787 17.7868 10.7954 17.6261 10.8799 17.5415C10.9898 17.4146 11.1842 17.533 11.2011 17.6768C11.2264 17.8545 11.0236 17.9729 10.8884 17.8629Z" fill="#00922E"/>
<path d="M9.53604 21.8475C9.40929 21.619 9.30788 21.3737 9.18113 21.1453C8.99522 20.7815 8.80931 20.4092 8.68255 20.0201C8.6234 19.8339 8.58114 19.6393 8.53889 19.4448C8.46284 19.1233 8.39523 18.7933 8.36143 18.4634C8.32763 18.0488 8.30228 17.6258 8.28538 17.2028C8.28538 17.0505 8.27693 16.9067 8.26848 16.7544C8.26848 16.7121 8.27693 16.6698 8.26848 16.6275C8.25158 16.5937 8.27693 16.5514 8.31918 16.5514C8.35298 16.5429 8.38678 16.5767 8.38678 16.6106C8.39523 16.6529 8.41214 16.6867 8.42059 16.729C8.45439 16.8729 8.48819 17.0167 8.52199 17.1605C8.61495 17.5412 8.71635 17.9304 8.80931 18.3111C8.95296 18.8948 9.07127 19.4871 9.23183 20.0708C9.31633 20.4261 9.41774 20.773 9.52759 21.1199C9.5952 21.3229 9.70505 21.5091 9.78111 21.7121C9.85716 21.8813 9.63745 21.9997 9.53604 21.8475Z" fill="#00922E"/>
<path d="M11.1161 7.956C11.0823 7.93908 11.0907 7.89678 11.0823 7.86293C11.0738 7.71911 11.0654 7.57529 11.0569 7.423C11.0316 7.02537 11.04 6.62774 11.0485 6.23011C11.0485 6.01861 11.0654 5.81556 11.0907 5.61252C11.1245 5.32487 11.1752 5.03722 11.2513 4.74957C11.2682 4.65651 11.2936 4.56345 11.3105 4.47039C11.3189 4.42808 11.3527 4.38578 11.3865 4.36886C11.4626 4.3181 11.5809 4.35194 11.6231 4.42808C11.6654 4.50423 11.6316 4.58883 11.6231 4.66497C11.6062 4.75803 11.5893 4.8511 11.5724 4.94416C11.5217 5.43485 11.4288 5.92554 11.3527 6.41624C11.2936 6.78849 11.2513 7.1692 11.209 7.54991C11.2006 7.63451 11.1921 7.71911 11.1837 7.79525C11.1837 7.84601 11.1921 7.97292 11.1161 7.956Z" fill="#00922E"/>
<path d="M11.5386 3.84433C11.4034 3.7428 11.4963 3.51438 11.6738 3.55668C11.7583 3.58206 11.809 3.68358 11.7752 3.75972C11.733 3.85279 11.6147 3.91201 11.5386 3.84433Z" fill="#00922E"/>
<path d="M8.61468 8.13341C8.54708 8.11649 8.49638 8.04035 8.50483 7.97267C8.50483 7.95575 8.51328 7.93883 8.51328 7.92191C8.51328 7.82039 8.53863 7.72732 8.56398 7.6258C8.58088 7.53274 8.60623 7.43968 8.63158 7.35507C8.84285 6.57673 9.10481 5.81531 9.47663 5.0962C9.56958 4.91853 9.66254 4.74933 9.76394 4.58012C9.78929 4.53782 9.81465 4.49552 9.84 4.44476C9.86535 4.41092 9.8738 4.36016 9.91605 4.34324C9.9414 4.32632 9.9752 4.34324 9.98366 4.36862C9.99211 4.41092 9.96675 4.45322 9.9583 4.49552C9.9076 4.63934 9.86535 4.78317 9.8231 4.91853C9.61184 5.67995 9.32452 6.42445 9.08791 7.18587C9.0203 7.4143 8.9358 7.64272 8.8682 7.86269C8.8513 7.93037 8.80904 7.98113 8.79214 8.04035C8.75834 8.11649 8.68229 8.15034 8.61468 8.13341Z" fill="#00922E"/>
<path d="M8.33581 9.05583C8.1837 9.03045 8.15835 8.84432 8.2682 8.75126C8.34426 8.67512 8.42876 8.69204 8.47947 8.77664C8.56397 8.90355 8.49637 9.07275 8.33581 9.05583Z" fill="#00922E"/>
<path d="M7.4315 19.0642C7.42305 19.0389 7.4146 19.0219 7.40615 18.9966V19.005C7.38925 18.9543 7.37235 18.9035 7.347 18.8612C7.29629 18.7597 7.23714 18.6666 7.19489 18.5651C6.89912 17.4145 6.68786 16.2385 6.65406 15.0541C6.59491 13.5566 6.69631 12.0676 6.88222 10.5786C6.97518 9.81722 7.11039 9.06426 7.30475 8.32822C7.347 8.19286 7.38925 8.06595 7.43995 7.93059C7.47375 7.86291 7.50756 7.78676 7.54981 7.71908C7.59206 7.64294 7.63431 7.5668 7.68502 7.49912C7.72727 7.43144 7.77797 7.34683 7.85402 7.30453C7.87093 7.26223 7.93853 7.27915 7.93853 7.32145C7.93853 7.32145 7.93853 7.32145 7.93853 7.32991C7.95543 7.38067 7.96388 7.43144 7.96388 7.49066C7.96388 7.55834 7.96388 7.61756 7.95543 7.68524C7.94698 7.80368 7.93853 7.91367 7.92163 8.03211C7.89628 8.269 7.86247 8.51434 7.82022 8.75123C7.77797 9.00504 7.74417 9.25038 7.70192 9.50419C7.65966 9.74954 7.62586 9.99488 7.60051 10.2487C7.57516 10.4771 7.54981 10.714 7.53291 10.9509V10.9593C7.53291 10.9678 7.53291 10.9763 7.53291 10.9847C7.50756 11.4754 7.49066 11.9661 7.4822 12.4568C7.47375 12.9644 7.48221 13.472 7.49066 13.9796C7.49911 14.4788 7.52446 14.978 7.55826 15.4771C7.57516 15.7224 7.59206 15.9678 7.59206 16.2131C7.59206 16.3316 7.60051 16.4585 7.60051 16.5769C7.60051 16.7038 7.60051 16.8223 7.59206 16.9492C7.59206 17.1353 7.60051 17.3214 7.59206 17.5076C7.59206 17.6006 7.59206 17.7021 7.58361 17.7952C7.58361 17.8967 7.56671 17.9898 7.55826 18.0913C7.54981 18.269 7.54981 18.4551 7.55826 18.6328C7.55826 18.6835 7.56671 18.7343 7.56671 18.785C7.56671 18.802 7.57516 18.8274 7.57516 18.8443C7.59206 18.9035 7.60896 18.9627 7.62586 19.0135C7.64276 19.0642 7.60896 19.1235 7.55826 19.1488C7.54136 19.1573 7.53291 19.1573 7.51601 19.1573C7.49066 19.1319 7.4484 19.1065 7.4315 19.0642Z" fill="#68E144"/>
<path d="M7.80409 19.9355C7.68579 19.8509 7.72804 19.6478 7.86324 19.614C7.99845 19.5717 8.12521 19.7155 8.08296 19.8424C8.05761 19.9609 7.89705 20.0201 7.80409 19.9355Z" fill="#68E144"/>
<path d="M11.0403 3.07422C11.0319 3.07422 11.0319 3.07422 11.0234 3.08268C10.8375 3.17574 10.6516 3.27726 10.4741 3.38725C10.66 3.2688 10.8459 3.16728 11.0403 3.07422Z" fill="#6CE044"/>
<path d="M11.3783 3.22656C11.2431 3.37885 11.1332 3.52267 11.0064 3.67495C10.9388 3.7511 10.8797 3.82724 10.8121 3.91184C10.7529 3.98798 10.6938 4.05566 10.6346 4.14027C10.6262 4.14873 10.6177 4.16565 10.6093 4.17411C10.5755 4.23333 10.5332 4.29255 10.5079 4.35177C10.4741 4.41945 10.4403 4.48714 10.4149 4.55482C10.4149 4.55482 10.4149 4.55482 10.4149 4.56328C10.4149 4.55482 10.4149 4.55482 10.4149 4.54636V4.5379C10.4149 4.54636 10.4149 4.55482 10.4149 4.56328C10.4065 4.59712 10.3727 4.63096 10.3304 4.63096C10.2713 4.63096 10.2374 4.57174 10.2544 4.51252V4.52098V4.52944C10.2628 4.47867 10.2713 4.43637 10.2797 4.38561C10.2882 4.33485 10.3051 4.28409 10.3135 4.23333C10.3473 4.03874 10.3727 3.8357 10.4065 3.63265C10.4234 3.55651 10.4403 3.48037 10.4572 3.41269C10.6684 3.37039 10.8881 3.31962 11.0994 3.26886C11.2008 3.24348 11.2938 3.22656 11.3783 3.22656Z" fill="#6CE044"/>
<path d="M12.6711 3.50576C12.6711 3.51422 12.6627 3.52268 12.6627 3.5396C12.6204 3.73419 12.5697 3.92031 12.519 4.10644C12.4683 4.30102 12.426 4.48715 12.3753 4.68173C12.3669 4.71557 12.3584 4.74941 12.3415 4.78325C12.3331 4.80017 12.3331 4.81709 12.3246 4.83401C12.3246 4.84247 12.3162 4.85939 12.3077 4.86786C12.2993 4.88478 12.2908 4.88478 12.2739 4.88478C12.257 4.88478 12.2486 4.87632 12.2401 4.86786C12.2317 4.85093 12.2317 4.83401 12.2232 4.81709C12.2148 4.79171 12.2148 4.76633 12.2063 4.74095C12.1979 4.69019 12.1894 4.63097 12.181 4.58021C12.1641 4.46176 12.1472 4.34332 12.1218 4.22488C12.1218 4.21642 12.1218 4.20796 12.1134 4.1995V4.19104V4.18258C12.0711 3.98799 12.0204 3.80187 11.9613 3.60728C11.9359 3.51422 11.9106 3.42962 11.8852 3.33656C11.8768 3.31117 11.8683 3.27733 11.8599 3.25195C12.1472 3.29425 12.4176 3.38732 12.6711 3.50576Z" fill="#6CE044"/>
<path d="M12.781 2.62589C12.7556 2.62589 12.7303 2.62589 12.7049 2.62589C12.4599 2.63435 12.2148 2.67665 11.9697 2.72741C12.2232 2.66819 12.4768 2.62589 12.7387 2.61743C12.7472 2.61743 12.7556 2.61743 12.7641 2.61743H12.7725C12.7725 2.62589 12.781 2.62589 12.781 2.62589Z" fill="#6CE044"/>
<path d="M13.0766 2.63444C13.1358 2.6429 13.1949 2.6429 13.2541 2.65136C13.1104 2.63444 12.9668 2.62598 12.8315 2.62598C12.9076 2.62598 12.9921 2.63444 13.0766 2.63444Z" fill="#6CE044"/>
<path d="M13.5757 4.16544C13.5503 4.34311 13.5165 4.52077 13.4658 4.69844C13.4489 4.75766 13.432 4.81688 13.4067 4.8761C13.3982 4.89302 13.3898 4.90148 13.3729 4.90148C13.356 4.90148 13.3306 4.88456 13.3306 4.86764C13.3306 4.86764 13.3306 4.86764 13.3306 4.85918C13.3137 4.77458 13.2968 4.68152 13.2799 4.59691C13.2461 4.43617 13.2123 4.28389 13.1701 4.1316C13.1363 4.0047 13.094 3.86933 13.0518 3.74243C13.2461 3.86087 13.4236 4.0047 13.5757 4.16544Z" fill="#6CE044"/>
<path d="M14.5387 3.00672C14.4711 2.98134 14.4035 2.9475 14.3359 2.92212C14.3444 2.92212 14.3613 2.93058 14.3697 2.93904C14.3866 2.9475 14.4035 2.95596 14.4289 2.96442C14.4373 2.96442 14.4373 2.97288 14.4458 2.97288C14.4542 2.97288 14.4627 2.98134 14.4796 2.98134C14.488 2.98134 14.4965 2.9898 14.5049 2.9898C14.5134 2.99826 14.5218 3.00672 14.5387 3.00672Z" fill="#6CE044"/>
<path d="M14.6488 3.06578C14.8178 3.15039 14.9783 3.25191 15.122 3.37035C14.9361 3.23499 14.7417 3.11654 14.5304 3.01502C14.4628 2.98118 14.3952 2.9558 14.3276 2.93042C14.3361 2.93042 14.353 2.93888 14.3614 2.94734C14.3783 2.9558 14.3952 2.96426 14.4206 2.97272C14.429 2.97272 14.429 2.98118 14.4375 2.98118C14.4459 2.98118 14.4544 2.98964 14.4713 2.98964C14.4797 2.98964 14.4882 2.9981 14.4966 2.9981C14.5051 3.00656 14.522 3.00656 14.5304 3.01502C14.5727 3.02348 14.615 3.0404 14.6488 3.06578Z" fill="#6CE044"/>
<path d="M10.7442 23.9456H10.7357C10.7273 23.9456 10.7104 23.9372 10.7019 23.9372C10.5667 23.8864 10.4315 23.8272 10.2963 23.768C9.87379 23.5565 9.51042 23.2519 9.19775 22.905C9.62028 23.3534 10.1104 23.7087 10.7019 23.9372C10.7188 23.9287 10.7357 23.9372 10.7442 23.9456Z" fill="#6CE044"/>
<path d="M10.6687 22.406C10.694 22.499 10.7194 22.5921 10.7532 22.6852C10.6856 22.6767 10.618 22.6598 10.5504 22.6429C10.5419 22.5667 10.525 22.4821 10.5166 22.406C10.5166 22.3891 10.5081 22.3721 10.5081 22.3552C10.4997 22.3129 10.5335 22.2706 10.5757 22.2706C10.6264 22.2622 10.6602 22.3045 10.6602 22.3468C10.6602 22.3637 10.6687 22.3891 10.6687 22.406Z" fill="#6CE044"/>
<path d="M12.6963 22.5667C12.6963 22.5751 12.6963 22.5921 12.7047 22.6005C12.6625 22.609 12.6287 22.6259 12.5864 22.6344C12.5864 22.609 12.5864 22.5921 12.5949 22.5667C12.5949 22.5328 12.6033 22.4905 12.6033 22.4567C12.6033 22.4398 12.6202 22.4229 12.6371 22.4229C12.654 22.4229 12.6794 22.4313 12.6794 22.4567C12.6794 22.4905 12.6878 22.5328 12.6963 22.5667Z" fill="#6CE044"/>
<path d="M13.0006 24.2756C13.0006 24.3095 13.0006 24.3433 12.9922 24.3772C12.9837 24.4025 12.9837 24.4279 12.9753 24.4533C12.9668 24.4956 12.9668 24.5379 12.9584 24.5802C12.9584 24.6056 12.9584 24.631 12.9584 24.6563C12.933 24.5464 12.9077 24.4364 12.8823 24.3264C12.9161 24.3095 12.9584 24.2841 13.0006 24.2756Z" fill="#6CE044"/>
<path d="M13.6179 22.1098C13.6263 22.1098 13.6348 22.1182 13.6432 22.1267C13.6094 22.1521 13.5672 22.1859 13.5249 22.2113C13.5249 22.2028 13.5249 22.1944 13.5334 22.1859C13.5334 22.1774 13.5418 22.1605 13.5418 22.1521C13.5418 22.1436 13.5503 22.1351 13.5587 22.1267C13.5756 22.1098 13.601 22.1013 13.6179 22.1098Z" fill="#6CE044"/>
<path d="M13.8965 24.2841C13.9049 24.3518 13.9218 24.411 13.9387 24.4787C13.888 24.4448 13.8458 24.4025 13.8204 24.3518C13.8035 24.3264 13.7951 24.301 13.7866 24.2756C13.8204 24.2841 13.8627 24.2841 13.8965 24.2841Z" fill="#6CE044"/>
<path d="M15.3757 23.311C15.2574 23.421 15.1306 23.5225 14.9954 23.6156C14.9193 23.6664 14.8433 23.7171 14.7588 23.7594C14.9785 23.6325 15.1813 23.4802 15.3757 23.311Z" fill="#6CE044"/>
<path d="M15.6965 4.29255C15.7049 4.40254 15.7049 4.50406 15.7049 4.61404C15.7049 4.71557 15.7049 4.81709 15.6965 4.91861C15.688 4.95245 15.6796 4.99475 15.6627 5.02859C15.6542 5.05397 15.6289 5.07936 15.6035 5.07936C15.5951 5.07936 15.5951 5.07936 15.5866 5.07936C15.5697 5.07089 15.5613 5.05397 15.5444 5.03705C15.5359 5.02013 15.519 4.99475 15.5106 4.96937C15.4852 4.92707 15.4683 4.87631 15.443 4.83401C15.3331 4.63096 15.2148 4.43638 15.0881 4.24179C15.0036 4.12335 14.9191 4.00491 14.843 3.88646C14.8007 3.82724 14.7585 3.75956 14.7078 3.70034C14.6824 3.6665 14.6486 3.63266 14.6233 3.59882C14.6402 3.69188 14.6571 3.78494 14.6655 3.878C14.6824 4.02183 14.7078 4.15719 14.7078 4.30102C14.7078 4.3687 14.7078 4.43638 14.7162 4.50406C14.7162 4.5379 14.7162 4.57174 14.7162 4.60558C14.7162 4.63096 14.7162 4.65634 14.7162 4.68172C14.7247 4.72403 14.6909 4.76633 14.6486 4.77479H14.6402C14.5979 4.77479 14.5641 4.74095 14.5641 4.69865C14.5557 4.64788 14.5303 4.59712 14.5134 4.54636C14.4796 4.46176 14.4458 4.37716 14.4036 4.28409C14.3613 4.19103 14.3275 4.09797 14.2853 4.00491C14.2092 3.8357 14.1332 3.65804 14.0571 3.48883C14.0149 3.40423 13.9726 3.32809 13.9219 3.25195C13.8627 3.16735 13.7951 3.08274 13.7275 2.99814C13.7275 3.16735 13.7106 3.32809 13.6853 3.49729C13.6599 3.69188 13.6177 3.89492 13.5839 4.08951C13.5839 4.11489 13.5754 4.13181 13.5754 4.15719C13.4149 3.99645 13.2459 3.85262 13.06 3.72572C13.0515 3.7088 13.0515 3.69188 13.0431 3.67496C12.9755 3.48037 12.8994 3.29425 12.8318 3.0912C12.8064 3.02352 12.7895 2.94738 12.7642 2.8797V2.88816C12.7473 3.0912 12.7135 3.29425 12.6712 3.48883C12.4177 3.36193 12.1473 3.27733 11.8684 3.22657C11.8515 3.15889 11.8346 3.0912 11.8177 3.02352C11.8008 2.94738 11.7755 2.87124 11.7586 2.7951C11.7248 2.8374 11.691 2.87124 11.6572 2.90508C11.5642 3.0066 11.4713 3.09966 11.3783 3.20119C11.2854 3.20965 11.2009 3.21811 11.1164 3.23503C10.9051 3.27733 10.6854 3.32809 10.4741 3.37885C10.4741 3.37039 10.4741 3.37039 10.4741 3.36193C10.6516 3.25195 10.8375 3.15043 11.0234 3.05736C11.0319 3.05736 11.0319 3.05736 11.0403 3.0489C11.2178 2.9643 11.4037 2.88816 11.5896 2.82894C11.6403 2.81202 11.6994 2.7951 11.7501 2.77818C11.7586 2.77818 11.767 2.76972 11.7755 2.76972C11.8346 2.7528 11.8938 2.73587 11.9614 2.71895C11.9614 2.71895 11.9614 2.71895 11.9698 2.71895C12.2149 2.65973 12.46 2.62589 12.705 2.61743C12.7304 2.61743 12.7557 2.61743 12.7811 2.61743C12.798 2.61743 12.8149 2.61743 12.8233 2.61743C12.967 2.61743 13.1107 2.63435 13.2459 2.64281C13.305 2.65127 13.3726 2.65973 13.4318 2.66819C13.4402 2.66819 13.4487 2.66819 13.4571 2.67665C13.474 2.67665 13.4825 2.68511 13.4994 2.68511C13.5163 2.68511 13.5247 2.69357 13.5416 2.69357C13.5585 2.69357 13.567 2.70203 13.5839 2.70203C13.5923 2.70203 13.6092 2.71049 13.6177 2.71049H13.6261C13.6346 2.71049 13.6515 2.71895 13.6599 2.71895C13.6768 2.71895 13.6853 2.72741 13.7022 2.72741C13.7951 2.74433 13.8881 2.76972 13.9811 2.7951C13.9811 2.7951 13.9811 2.7951 13.9895 2.7951C13.998 2.7951 14.0149 2.80356 14.0233 2.80356C14.0318 2.80356 14.0487 2.81202 14.0571 2.81202C14.0656 2.81202 14.0825 2.82048 14.0909 2.82048C14.0994 2.82048 14.1078 2.82894 14.1247 2.82894H14.1332C14.1416 2.82894 14.1501 2.8374 14.1585 2.8374C14.1754 2.84586 14.1923 2.84586 14.2092 2.85432C14.2261 2.86278 14.243 2.86278 14.2599 2.87124C14.2684 2.87124 14.2853 2.8797 14.2937 2.8797C14.3022 2.8797 14.3106 2.88816 14.3106 2.88816H14.3191C14.3867 2.91354 14.4543 2.94738 14.5219 2.97276C14.7331 3.07428 14.9275 3.19273 15.1134 3.32809C15.2824 3.46345 15.443 3.6242 15.5866 3.78494C15.6035 3.80186 15.612 3.81878 15.6289 3.8357C15.6627 4.01337 15.6796 4.15719 15.6965 4.29255Z" fill="#51CF2B"/>
<path d="M15.8145 21.5344C15.8145 21.6359 15.8145 21.729 15.8145 21.8305C15.8145 22.0335 15.8061 22.2366 15.8061 22.4396C15.8061 22.5581 15.7976 22.6765 15.7892 22.7949C15.7892 22.8372 15.7807 22.8711 15.7807 22.9049C15.6539 23.0487 15.5187 23.1841 15.3751 23.3195C15.1807 23.4887 14.9779 23.641 14.7582 23.7679C14.7582 23.7679 14.7582 23.7679 14.7498 23.7679C14.7329 23.7763 14.7244 23.7848 14.7075 23.7932C14.699 23.7932 14.699 23.8017 14.6906 23.8017C14.6821 23.8017 14.6737 23.8102 14.6652 23.8102C14.6568 23.8186 14.6483 23.8186 14.6399 23.8271C14.6145 23.844 14.5892 23.8525 14.5554 23.8694C14.4455 23.9202 14.3357 23.9709 14.2174 24.0132C14.2089 24.0048 14.2089 23.9878 14.2005 23.9794C14.2005 23.9709 14.2005 23.9709 14.192 23.9625C14.192 23.954 14.1836 23.9455 14.1836 23.9371C14.1836 23.9286 14.1751 23.9202 14.1751 23.9117C14.1751 23.9032 14.1667 23.8948 14.1667 23.8863C14.1667 23.8779 14.1582 23.8694 14.1582 23.8609C14.1582 23.8525 14.1498 23.844 14.1498 23.8355C14.1413 23.8271 14.1413 23.8186 14.1329 23.8017C14.1244 23.7932 14.1244 23.7848 14.116 23.7763C14.116 23.7763 14.116 23.7763 14.116 23.7679C14.1075 23.7594 14.1075 23.7509 14.0991 23.734C14.0991 23.7256 14.0906 23.7256 14.0906 23.7171C14.0906 23.7171 14.0906 23.7086 14.0822 23.7086C14.0653 23.6833 14.0484 23.6579 14.0315 23.641C14.023 23.6325 14.0146 23.624 14.0061 23.624C13.9977 23.624 13.9892 23.624 13.9808 23.624C13.9723 23.6325 13.9639 23.6325 13.9639 23.6494C13.947 23.6833 13.9301 23.7171 13.9132 23.7594C13.8878 23.8271 13.8794 23.8948 13.8709 23.9709C13.8709 23.9794 13.8709 23.9794 13.8709 23.9878C13.8625 24.0809 13.8709 24.1655 13.8794 24.2586C13.8794 24.267 13.8794 24.267 13.8794 24.2755C13.8794 24.2839 13.8794 24.2839 13.8794 24.2924C13.8456 24.2924 13.8033 24.2924 13.7695 24.2924C13.7442 24.2247 13.7442 24.1486 13.7695 24.0894C13.7864 24.0217 13.8118 23.9625 13.8287 23.8948C13.8287 23.8863 13.8287 23.8694 13.8371 23.8609C13.8371 23.8525 13.8371 23.844 13.8371 23.8355C13.8371 23.8186 13.8287 23.8017 13.8287 23.7848C13.8202 23.7425 13.8202 23.7002 13.8202 23.6579C13.8202 23.5648 13.8456 23.4718 13.8878 23.3787C13.9301 23.2856 13.9808 23.1926 14.0315 23.0995C14.1075 22.9557 14.1836 22.8203 14.2596 22.6765C14.3103 22.575 14.3526 22.4735 14.3864 22.3719C14.4117 22.2873 14.4371 22.2112 14.4624 22.1266C14.4878 22.0504 14.5131 21.9743 14.5469 21.8897C14.5554 21.8474 14.623 21.8474 14.623 21.8897C14.6483 21.9912 14.6568 22.1012 14.6652 22.2112C14.6737 22.3212 14.6737 22.4312 14.6821 22.5496C14.699 22.7357 14.7244 22.9303 14.7413 23.1164C14.7498 23.1926 14.7498 23.2687 14.7498 23.3449C14.7751 23.2941 14.8005 23.2518 14.8343 23.201C14.9357 23.0318 15.0371 22.8626 15.1385 22.6934C15.1892 22.6004 15.2399 22.5158 15.2906 22.4227C15.299 22.4058 15.3075 22.3973 15.3159 22.3804C15.3751 22.2619 15.4258 22.1435 15.468 22.0251C15.5356 21.8136 15.5948 21.6105 15.6455 21.3905C15.654 21.3482 15.6624 21.3144 15.6624 21.2721V21.2636C15.6539 21.2213 15.6793 21.1875 15.7216 21.1875C15.7638 21.1875 15.7892 21.2213 15.7807 21.2552C15.7807 21.2636 15.7807 21.2636 15.7807 21.2721C15.7807 21.3144 15.7892 21.3567 15.7976 21.4075C15.8061 21.4328 15.8061 21.4836 15.8145 21.5344Z" fill="#51CF2B"/>
<path d="M13.8455 23.2351C13.8455 23.3112 13.8371 23.3789 13.8286 23.455C13.8286 23.4889 13.8202 23.5143 13.8202 23.5481C13.8117 23.5904 13.8033 23.6327 13.7864 23.675C13.7864 23.6835 13.7779 23.6919 13.7779 23.7004C13.7779 23.7089 13.7779 23.7173 13.7779 23.7258C13.761 23.8358 13.6681 23.9204 13.5497 23.9204C13.4314 23.9204 13.3131 23.8188 13.3216 23.6919C13.3216 23.675 13.3216 23.6666 13.3216 23.6496C13.3216 23.6327 13.3131 23.6243 13.3131 23.6073C13.3047 23.582 13.3047 23.5481 13.3047 23.5227C13.3047 23.4804 13.3047 23.4466 13.3047 23.4043C13.3047 23.3535 13.3131 23.3112 13.3131 23.2605C13.3131 23.2097 13.33 23.1589 13.3385 23.1166C13.3554 23.0405 13.3807 22.9644 13.4061 22.8882C13.4314 22.8121 13.4483 22.7444 13.4652 22.6682C13.4821 22.5752 13.499 22.4906 13.5075 22.3975C13.5159 22.3552 13.5159 22.3045 13.5244 22.2622C13.5244 22.2452 13.5244 22.2368 13.5328 22.2199C13.5751 22.1945 13.6089 22.1691 13.6512 22.1353C13.6681 22.1522 13.6765 22.1691 13.6765 22.186C13.685 22.2199 13.6934 22.2537 13.7019 22.2875C13.7103 22.3552 13.7188 22.4144 13.7272 22.4821C13.7357 22.5498 13.7526 22.6175 13.761 22.6767C13.7695 22.7359 13.7864 22.7952 13.7948 22.8544C13.8033 22.9136 13.8202 22.9728 13.8286 23.032C13.8286 23.0913 13.8371 23.1674 13.8455 23.2351Z" fill="#51CF2B"/>
<path d="M12.9923 24.1656C13.0008 24.191 13.0008 24.2248 13.0008 24.2502C13.0008 24.2587 13.0008 24.2587 13.0008 24.2671C12.9585 24.2841 12.9163 24.301 12.874 24.3264C12.8656 24.301 12.8656 24.2756 12.8571 24.2502C12.8571 24.2418 12.8571 24.2418 12.8571 24.2333C12.8487 24.2079 12.8487 24.1825 12.8402 24.1572C12.8402 24.1487 12.8402 24.1402 12.8318 24.1318C12.8233 24.0979 12.8149 24.0556 12.8064 24.0218C12.8064 24.0049 12.798 23.9879 12.798 23.9795C12.798 23.9626 12.7895 23.9456 12.7895 23.9372C12.7811 23.861 12.7557 23.7934 12.7219 23.7257C12.7135 23.6918 12.6712 23.6918 12.6543 23.7088C12.6121 23.7511 12.5867 23.8018 12.5614 23.8526V23.861C12.5614 23.861 12.5614 23.8695 12.5529 23.8695C12.5191 23.9456 12.5022 24.0218 12.4938 24.1064C12.4853 24.1572 12.4769 24.2079 12.4769 24.2502C12.4769 24.2502 12.4769 24.2502 12.4684 24.2502C12.4515 24.2502 12.4346 24.2502 12.4262 24.2502C12.4093 24.2502 12.3924 24.2502 12.3755 24.2502C12.3501 24.2502 12.3163 24.2502 12.2909 24.2418C12.1135 24.2333 11.936 24.2164 11.767 24.191C11.767 24.191 11.767 24.191 11.7586 24.191C11.7586 24.191 11.7586 24.191 11.7501 24.191C11.7163 24.1825 11.6825 24.1825 11.6572 24.1741C11.6487 24.1741 11.6403 24.1741 11.6318 24.1656C11.6234 24.1656 11.6065 24.1656 11.598 24.1572C11.4036 24.1233 11.2093 24.081 11.0234 24.0302C11.0065 24.0218 10.9896 24.0218 10.9811 24.0133C10.9642 24.0049 10.9558 24.0049 10.9389 23.9964C10.922 23.9879 10.9051 23.9879 10.8966 23.9795C10.8797 23.971 10.8628 23.971 10.8544 23.9626C10.8375 23.9541 10.829 23.9541 10.8121 23.9456C10.8037 23.9456 10.7952 23.9372 10.7868 23.9372C10.7699 23.9287 10.753 23.9287 10.7445 23.9203C10.153 23.6918 9.66286 23.345 9.24034 22.8881C9.23189 22.8797 9.22344 22.8712 9.21499 22.8627C9.16428 22.702 9.13048 22.5328 9.10513 22.3636C9.09668 22.3297 9.09668 22.2874 9.08823 22.2536C9.08823 22.2367 9.07978 22.2113 9.08823 22.1859C9.08823 22.169 9.09668 22.1436 9.11358 22.1352C9.13893 22.1098 9.17273 22.1182 9.19808 22.1352C9.21499 22.1521 9.23189 22.1775 9.24034 22.2028C9.25724 22.2367 9.27414 22.2705 9.29104 22.3128C9.32484 22.3805 9.36709 22.4482 9.40935 22.5159C9.4516 22.5751 9.49385 22.6343 9.5361 22.6851C9.62906 22.7866 9.73046 22.8881 9.84032 22.9812C9.98398 23.1081 10.1361 23.2265 10.2966 23.345C10.3811 23.4042 10.4572 23.4634 10.5417 23.5226C10.5924 23.5565 10.6431 23.5988 10.6854 23.6411C10.6938 23.6495 10.7023 23.658 10.7107 23.658C10.7107 23.6411 10.7023 23.6157 10.7023 23.5988C10.6854 23.3957 10.6685 23.1927 10.6431 22.9896C10.6262 22.8712 10.6093 22.7612 10.6009 22.6428C10.6685 22.6597 10.7361 22.6682 10.8037 22.6851C10.8037 22.6935 10.8121 22.7105 10.8121 22.7189C10.829 22.7781 10.8544 22.8374 10.8797 22.8881C10.9051 22.9389 10.922 22.9896 10.9473 23.0404C10.9896 23.1081 11.0234 23.1758 11.0741 23.2434C11.2008 23.4296 11.336 23.6072 11.4882 23.7764C11.5389 23.8357 11.598 23.8949 11.6487 23.9626C11.6572 23.861 11.6741 23.768 11.6825 23.6665C11.6994 23.5565 11.7163 23.438 11.7248 23.3281C11.7248 23.2942 11.7248 23.2604 11.7248 23.2265C11.7248 23.2096 11.7248 23.1927 11.7163 23.1842V23.1758C11.6994 23.125 11.7332 23.0742 11.7839 23.0573C11.8431 23.0404 11.8938 23.0827 11.9022 23.1335C11.9022 23.1419 11.9107 23.1504 11.9107 23.1588C11.9191 23.1842 11.936 23.2096 11.9445 23.2434C12.029 23.4127 12.1388 23.5649 12.2233 23.7257C12.274 23.8187 12.3247 23.9118 12.367 24.0133C12.367 24.0133 12.367 24.0133 12.367 24.0218C12.3839 23.9795 12.4008 23.9372 12.4177 23.8949C12.4346 23.8526 12.4515 23.8103 12.4684 23.768C12.4938 23.6834 12.5107 23.6072 12.536 23.5226C12.5698 23.3619 12.5867 23.1927 12.6036 23.0319C12.6036 23.015 12.6036 22.9896 12.6121 22.9727C12.6205 22.8881 12.6205 22.8035 12.6205 22.7189C12.6205 22.6935 12.6205 22.6682 12.6205 22.6428C12.6628 22.6343 12.6966 22.6174 12.7388 22.6089C12.7473 22.6428 12.7473 22.6851 12.7557 22.7189C12.7642 22.8204 12.7726 22.922 12.7895 23.0235C12.8064 23.2181 12.8402 23.4127 12.874 23.5988C12.8909 23.6918 12.9163 23.7764 12.9416 23.8695C12.9585 23.9118 12.967 23.9456 12.9839 23.9879C13.0008 24.0218 13.0092 24.0556 13.0177 24.0979C12.9839 24.1149 12.9923 24.1402 12.9923 24.1656Z" fill="#51CF2B"/>
<path d="M19.5158 17.2367C19.4144 17.2114 19.3214 17.1352 19.2876 17.0337C19.4059 16.856 19.5834 16.7291 19.7777 16.6445C19.7862 16.7207 19.7862 16.7968 19.7946 16.873C19.7946 16.9068 19.7946 16.9322 19.7946 16.966C19.5749 16.9491 19.5918 17.1268 19.7101 17.2452C19.6425 17.2537 19.5749 17.2452 19.5158 17.2367Z" fill="#E4D5D5"/>
<path d="M21.6285 17.5413C21.5018 17.5074 21.375 17.4651 21.2905 17.3636C21.3412 17.3129 21.3666 17.2367 21.3581 17.1606C21.4173 17.0337 21.4088 16.8898 21.4173 16.7629C21.5694 16.8729 21.7046 17.0337 21.7215 17.2283C21.7215 17.3382 21.6961 17.4482 21.6454 17.5497C21.637 17.5413 21.6285 17.5413 21.6285 17.5413Z" fill="#E4D5D5"/>
<path d="M17.3101 19.0724C17.2848 19.0048 17.2679 18.9371 17.251 18.8609C17.3946 18.5648 17.7665 18.5056 18.0622 18.5648C18.265 18.5987 18.4509 18.6833 18.5185 18.9032C18.4171 18.9794 18.358 19.1063 18.3157 19.2247C18.0284 19.0724 17.6735 19.0978 17.3946 19.2586C17.3608 19.1824 17.327 19.1147 17.3101 19.0724Z" fill="#E4D5D5"/>
<path d="M18.0541 20.1892C17.8429 20.1639 17.6316 19.9693 17.6908 19.7408C17.8598 19.6478 18.0626 19.6393 18.2485 19.6816C18.2485 19.7239 18.2569 19.7662 18.2654 19.8085C18.2823 19.91 18.2992 20.0285 18.3752 20.1046C18.2823 20.1808 18.164 20.2062 18.0541 20.1892Z" fill="#E4D5D5"/>
<path d="M19.5498 21.1622C19.7188 20.9846 19.8794 20.79 20.0061 20.5785C20.0484 20.5192 20.0906 20.4516 20.1329 20.3923C20.1667 20.35 20.2258 20.3077 20.2765 20.35C20.3441 20.4093 20.3441 20.5192 20.3526 20.6038C20.3695 20.7561 20.3526 20.9084 20.3103 21.0522C20.0737 21.1368 19.8118 21.1707 19.5498 21.1622Z" fill="#E4D5D5"/>
<path d="M21.3832 20.7561C21.4424 20.6123 21.5015 20.4515 21.4762 20.2908C21.4677 20.2739 21.4677 20.2569 21.4593 20.24C21.51 20.1893 21.5522 20.1047 21.6367 20.0962C21.7973 20.0962 21.941 20.2908 22.0086 20.4177C21.8987 20.5615 21.755 20.6884 21.586 20.773C21.5015 20.8068 21.417 20.8407 21.3325 20.8661C21.3494 20.8238 21.3663 20.7899 21.3832 20.7561Z" fill="#E4D5D5"/>
<path d="M21.9751 18.7258C21.7976 18.675 21.561 18.6073 21.5356 18.3874C21.6455 18.3112 21.7554 18.2266 21.8483 18.1335C21.9835 18.3366 22.1272 18.5312 22.2117 18.7596C22.1272 18.7596 22.0511 18.7427 21.9751 18.7258Z" fill="#E4D5D5"/>
<path d="M3.57037 10.8238C3.53657 10.5024 3.44361 10.1724 3.2915 9.85938C3.3084 9.73248 3.32531 9.59712 3.35066 9.47021C3.40136 9.5379 3.48586 9.5802 3.54502 9.64788C3.71403 9.80862 3.87458 9.99475 4.08585 10.1047C4.15345 10.1301 4.22105 10.164 4.28021 10.1893C4.38161 10.1978 4.49147 10.2147 4.59287 10.2316C4.58442 10.4939 4.55062 10.7562 4.53372 11.0184C4.40696 11.0015 4.28021 10.9931 4.15345 11.0015C4.04359 11.0015 3.93374 11.0184 3.82388 11.0354C3.75628 10.9508 3.65487 10.8915 3.57037 10.8238Z" fill="#E4D5D5"/>
<path d="M2.80966 11.3821C2.43784 11.1876 2.10827 10.9253 1.77026 10.6884C1.6435 10.5446 1.51674 10.4008 1.39844 10.24C1.75336 10.2062 2.09982 10.3331 2.44629 10.4008C2.57305 10.4261 2.69981 10.4515 2.82656 10.4515C2.88572 10.4346 2.94487 10.4261 3.00402 10.4261C3.13078 10.6799 3.23218 10.9337 3.32514 11.1876C3.18148 11.2637 3.04627 11.3568 2.93642 11.4752C2.91107 11.4329 2.86036 11.4075 2.80966 11.3821Z" fill="#E4D5D5"/>
<path d="M1.84633 13.8867C1.75338 13.8783 1.66888 13.8444 1.57592 13.8106C1.51677 13.7852 1.44916 13.7514 1.39001 13.7175C1.32241 13.6752 1.26325 13.6245 1.2041 13.5652C1.16185 13.5229 1.1196 13.4722 1.08579 13.4214C1.01819 13.3199 0.950588 13.2268 0.899885 13.1169C0.866083 13.0323 0.832281 12.9476 0.815381 12.863C0.815381 12.8546 0.815381 12.8461 0.80693 12.8377C0.80693 12.8292 0.80693 12.8207 0.79848 12.8123C0.79848 12.8207 0.79848 12.8292 0.80693 12.8377C0.79848 12.8123 0.79848 12.7869 0.790029 12.77C0.773128 12.6769 0.790029 12.5839 0.840732 12.5077C0.866083 12.457 0.908335 12.4147 0.959038 12.3808C1.00974 12.9392 1.49142 13.4553 2.06605 13.4553C2.06605 13.4553 2.06605 13.4553 2.0745 13.4553C2.35336 13.4468 2.63223 13.3453 2.83504 13.1507C2.93644 13.1253 3.0294 13.0915 3.12235 13.0492C3.15615 13.0407 3.1815 13.0323 3.21531 13.0153C3.51107 13.1676 3.86599 13.2099 4.19556 13.1338C4.39837 13.0915 5.0575 12.8546 4.9392 12.5839C4.85469 12.5077 4.61808 12.5839 4.50822 12.5923C4.37302 12.6177 4.23781 12.6346 4.1026 12.6431C3.77304 12.6854 3.44347 12.5585 3.29136 12.3724C3.29136 12.3639 3.29136 12.3639 3.29136 12.3554C3.29981 12.2708 3.36741 12.2032 3.45192 12.1947C3.46882 12.1947 3.49417 12.1947 3.51107 12.1947C3.56177 12.1778 3.61248 12.1608 3.65473 12.1439C3.73078 12.1185 3.80684 12.1016 3.89134 12.0932C3.97585 12.0847 4.06035 12.0762 4.14485 12.0762C4.17021 12.0762 4.20401 12.0762 4.22936 12.0762C4.26316 12.0762 4.29696 12.0762 4.33076 12.0762C4.37302 12.0678 4.41527 12.0593 4.46597 12.0593C4.60963 12.0593 4.74484 12.1185 4.83779 12.2201C4.88004 12.2708 4.91384 12.3216 4.94765 12.3808C4.973 12.4231 4.98145 12.4739 4.9899 12.5246C4.99835 12.5839 4.99835 12.66 4.9899 12.7277C4.973 12.8546 4.9392 12.973 4.89694 13.0915C4.85469 13.2099 4.78709 13.3284 4.71103 13.4299C4.60963 13.5652 4.48287 13.7091 4.32231 13.7768C4.21246 13.8275 4.0857 13.836 3.9674 13.8191C3.95049 13.8191 3.93359 13.8106 3.92514 13.8106C3.89979 13.6414 3.83219 13.4806 3.71388 13.3537C3.68853 13.3284 3.66318 13.3114 3.63783 13.2945C3.58713 13.2015 3.45192 13.2691 3.49417 13.3622C3.47727 13.4553 3.46882 13.5568 3.46882 13.6583C3.45192 13.6498 3.43502 13.6498 3.41812 13.6414C3.39277 13.6414 3.36741 13.6329 3.34206 13.6329C3.31671 13.6329 3.29981 13.6329 3.27446 13.6329C3.18995 13.6414 3.10545 13.6583 3.0125 13.6752C2.91954 13.6921 2.83504 13.7091 2.74208 13.726C2.67448 13.7429 2.60687 13.7598 2.53927 13.7768C2.45477 13.8106 2.37026 13.836 2.27731 13.8614C2.1759 13.8867 2.0745 13.8952 1.97309 13.8952C1.94774 13.8952 1.89704 13.8867 1.84633 13.8867Z" fill="#E4D5D5"/>
<path d="M1.40705 12.6765C1.28875 12.5919 1.17044 12.4989 1.10284 12.372C1.09439 12.3635 1.09439 12.3466 1.08594 12.3297C1.14509 12.3127 1.21269 12.3127 1.27185 12.3212C1.32255 12.3297 1.37325 12.3381 1.4155 12.3466C1.47466 12.3466 1.54226 12.3466 1.60141 12.3381C1.76197 12.3297 1.91408 12.3127 2.07464 12.3127C2.16759 12.3127 2.2521 12.3212 2.34505 12.3297C2.37886 12.3297 2.41266 12.3297 2.44646 12.3381C2.48026 12.3466 2.51406 12.3466 2.53941 12.3635C2.54786 12.3635 2.55631 12.372 2.56477 12.372C2.57322 12.5919 2.49716 12.7781 2.2352 12.8627C2.16759 12.888 2.09154 12.8965 2.02394 12.8965C1.81268 12.8965 1.59296 12.7865 1.40705 12.6765Z" fill="#E4D5D5"/>
<path d="M2.00657 15.2062C1.97277 15.1724 1.95587 15.1301 1.93896 15.0793C2.23473 15.1555 2.5474 15.1893 2.85161 15.1216C2.86006 15.1386 2.86851 15.1555 2.87696 15.1724C2.91922 15.2655 2.91077 15.367 2.86851 15.4516C2.5643 15.4854 2.20938 15.4601 2.00657 15.2062Z" fill="#E4D5D5"/>
<path d="M12.2906 1.30617C12.223 1.28079 12.1976 1.18773 12.2399 1.12851C12.2821 0.908542 12.5357 0.705497 12.7554 0.527832C12.8145 0.637815 12.8568 0.747798 12.8737 0.866241C12.7638 1.0016 12.6455 1.12851 12.4934 1.22157C12.4765 1.23849 12.4512 1.24695 12.4343 1.26387C12.4089 1.31463 12.3413 1.33155 12.2906 1.30617Z" fill="white"/>
<path d="M10.8797 1.88152C10.8206 1.88152 10.7783 1.84768 10.7361 1.81384C10.6938 1.78 10.66 1.74616 10.6431 1.6954C10.6009 1.57695 10.5671 1.37391 10.6854 1.28931C10.8121 1.37391 10.9473 1.45851 11.0741 1.55157C11.0572 1.61079 11.0403 1.67002 11.0149 1.72924C10.998 1.78846 10.9558 1.88152 10.8797 1.88152Z" fill="white"/>
<path d="M13.6851 1.80517C13.6091 1.76287 13.5668 1.66981 13.5753 1.58521V1.57674C13.7443 1.43292 13.9302 1.30602 14.0992 1.17065C14.0992 1.39908 14.0401 1.59367 13.9387 1.77979C13.8711 1.84747 13.7612 1.85593 13.6851 1.80517Z" fill="white"/>
<path d="M8.25146 6.12029C8.25992 5.87494 8.61483 5.87494 8.62328 6.12029C8.60638 6.36564 8.25992 6.36564 8.25146 6.12029Z" fill="white"/>
<path d="M8.30261 6.40762C8.23501 6.37378 8.17585 6.32302 8.14205 6.2638C8.1336 6.24688 8.12515 6.23842 8.1167 6.22149C8.14205 6.17073 8.15895 6.11151 8.1843 6.06075C8.55612 5.45161 8.94484 4.84248 9.41807 4.30103C9.40962 4.36025 9.38427 4.41947 9.37582 4.47869C9.39272 4.53791 9.40117 4.59713 9.41807 4.65635C9.44342 4.8171 9.43497 4.97784 9.40962 5.13859C9.40117 5.18935 9.39272 5.23165 9.37582 5.28241C9.27441 5.50238 9.173 5.72234 9.0885 5.94231C8.92794 6.18765 8.61528 6.52606 8.30261 6.40762Z" fill="white"/>
<path d="M9.75565 6.17936C9.68805 6.16244 9.63735 6.12014 9.58665 6.06937C9.53594 6.01015 9.51904 5.94247 9.51904 5.86633C9.54439 5.79019 9.56975 5.72251 9.5951 5.64636C9.6965 5.51946 9.87396 5.47716 10.0176 5.5533C10.0599 5.57868 10.0937 5.61252 10.119 5.65482C10.1359 5.68866 10.1528 5.71405 10.1697 5.75635C10.1866 5.81557 10.1866 5.88325 10.1697 5.94247C10.1359 6.06091 10.043 6.14552 9.93311 6.18782C9.90776 6.19628 9.88241 6.19628 9.84861 6.19628C9.81481 6.18782 9.78946 6.18782 9.75565 6.17936Z" fill="white"/>
<path d="M10.1188 5.65462C10.1188 5.64616 10.1104 5.64616 10.1104 5.6377C10.1188 5.64616 10.1273 5.66308 10.1357 5.67154C10.1273 5.66308 10.1188 5.65462 10.1188 5.65462Z" fill="white"/>
<path d="M4.68582 26.2552C4.20414 26.2044 3.70557 25.8322 3.68022 25.3246C3.67177 25.1469 3.76472 24.9692 3.93373 24.9015C4.11964 24.8169 4.33935 24.8846 4.51681 24.9523C4.51681 24.9438 4.50836 24.9438 4.50836 24.9354C4.55061 24.9523 4.60132 24.9692 4.64357 24.9861C5.09989 25.1807 5.48016 25.443 5.79283 25.7729C5.56467 26.1452 5.12524 26.2975 4.68582 26.2552Z" fill="white"/>
<path d="M13.3892 29.7325C13.3047 29.6225 13.2456 29.4956 13.2202 29.3603C13.3977 29.0218 13.6681 28.7257 13.9554 28.4804C14.1582 28.3112 14.3864 28.1843 14.6314 28.0828C14.6568 28.0997 14.6737 28.1251 14.6906 28.1504C14.7159 28.1843 14.7413 28.2266 14.7582 28.2689C15.2061 28.4466 15.3497 28.9795 15.1723 29.4026C15.0709 29.6394 14.8681 29.8594 14.6483 29.9863C14.2512 30.2147 13.6681 30.1132 13.3892 29.7325Z" fill="white"/>
<path d="M15.8741 29.8085C15.6966 29.8085 15.5276 29.6901 15.4769 29.5209C15.4769 29.5293 15.4854 29.5378 15.4854 29.5378C15.3417 29.2163 15.6206 28.8441 15.967 28.8948C16.5417 28.9963 16.4487 29.8085 15.8741 29.8085Z" fill="white"/>
<path d="M8.47947 27.3383C8.31891 27.0676 8.43721 26.7461 8.75833 26.6953C8.99494 26.9153 9.40056 27.4906 9.1893 27.8121C8.96959 27.6344 8.73298 27.4737 8.47947 27.3383Z" fill="#C4D323"/>
<path d="M7.27159 28.2687C7.26314 28.2602 7.24624 28.2433 7.23779 28.2348C7.25469 28.1079 7.26314 27.9726 7.27159 27.8372C7.3054 27.7187 7.34765 27.6172 7.3899 27.4988C7.60116 27.5665 7.81242 27.6511 8.01523 27.7441C7.92228 28.0149 7.58426 28.5394 7.27159 28.2687Z" fill="#C4D323"/>
<path d="M7.94697 30.8746C7.60896 30.8323 7.28784 30.7139 6.96672 30.5954C6.58645 30.4516 6.20618 30.2739 5.86816 30.0371C6.578 30.2063 7.60896 30.2232 8.22584 29.7917C8.46245 29.6394 8.59766 29.3772 8.81737 29.208C9.00328 29.0641 9.26524 29.0388 9.4596 29.191C9.76382 30.1132 9.14694 30.697 8.20894 30.8831C8.12443 30.8831 8.03148 30.8831 7.94697 30.8746Z" fill="#C4D323"/>
<path d="M16.3048 25.35C16.1865 25.3415 16.0597 25.3331 15.9414 25.3162C15.9752 25.2485 16.0006 25.1808 16.0344 25.1131C16.2456 24.9693 16.4907 24.8762 16.7442 24.8762C16.8034 25.0285 16.7865 25.2062 16.7188 25.35C16.6681 25.3331 16.609 25.3331 16.5498 25.3331C16.5245 25.3331 16.4907 25.3415 16.4738 25.3585C16.4146 25.3669 16.3639 25.3585 16.3048 25.35Z" fill="#C4D323"/>
<path d="M15.882 27.3636C15.8059 27.3043 15.6707 27.1774 15.7045 27.0674C15.9327 27.0844 16.1524 27.1097 16.3806 27.1097C16.5411 27.1097 16.7101 27.1098 16.8538 27.0505C16.8792 27.059 16.9045 27.0674 16.9299 27.0674C16.9806 27.0674 17.0313 27.0505 17.0735 27.0251C17.1073 27.0674 17.1327 27.1097 17.158 27.1605C17.2003 27.2451 17.2087 27.3382 17.1918 27.4312C17.1327 27.4989 17.0566 27.5581 16.989 27.6089C16.6341 27.4566 16.2623 27.3889 15.882 27.3636Z" fill="#C4D323"/>
<path d="M18.1385 28.6073C18.13 28.5735 18.1216 28.5481 18.1047 28.5143C18.0202 28.3535 17.9019 28.2097 17.7667 28.0828C17.7244 27.9559 17.7075 27.829 17.7075 27.6936C17.8596 27.5244 17.9864 27.3298 18.0793 27.1099C18.4596 27.186 18.5948 27.609 18.6033 27.9474C18.6117 28.2435 18.4596 28.6158 18.1385 28.6073Z" fill="#C4D323"/>
<path d="M15.1471 31.3568C14.7077 31.3145 14.2683 31.2807 13.8373 31.1876C13.7528 31.1707 13.6768 31.1453 13.6007 31.1115C13.5247 30.9677 13.6176 30.79 13.7444 30.7054C13.9979 30.5193 14.319 30.4854 14.6232 30.4601C15.7978 30.367 16.9471 30.6377 18.1048 30.8069C18.1977 30.7646 18.2738 30.6969 18.3499 30.6377C18.671 30.3331 18.9583 29.9947 19.2033 29.6309C19.4569 29.2333 19.685 28.8272 19.8709 28.3958C20.0146 28.0658 20.116 27.7189 20.209 27.3721C20.3104 28.2096 20.2174 29.0641 19.9047 29.8509C19.5076 30.9592 18.7217 31.3484 17.5893 31.3907C16.7865 31.4584 15.9668 31.4245 15.1471 31.3568Z" fill="#C4D323"/>
<path d="M5.97005 30.9847C4.82924 30.8917 3.50253 30.7986 2.72508 29.8426C2.40397 29.4196 2.17581 28.9374 1.98145 28.4467C2.01525 28.4382 2.0406 28.4382 2.0744 28.4382C2.0913 28.2775 2.24341 28.1675 2.39552 28.1336C2.60678 28.0829 2.82649 28.1167 3.03775 28.159C3.63773 28.3198 4.17011 28.6666 4.64333 29.0558C5.11656 30.1387 6.15596 30.6548 7.22917 31.0101C6.82355 31.027 6.31652 31.0186 5.97005 30.9847Z" fill="#D5DC92"/>
<path d="M2.94487 11.4838C3.05472 11.3654 3.18993 11.2639 3.33359 11.1962C3.01247 10.3417 2.5646 9.37724 1.6604 9.03883C0.713951 8.75119 0.950563 9.61413 1.30548 10.1133C1.40689 10.2571 1.50829 10.3925 1.6266 10.5194C1.6773 10.5786 1.728 10.6378 1.77871 10.697C1.79561 10.7055 1.80406 10.714 1.82096 10.7224C2.09982 10.9255 2.37869 11.137 2.6829 11.3146C2.72516 11.34 2.77586 11.3654 2.81811 11.3908C2.86036 11.4077 2.91107 11.4331 2.94487 11.4838ZM4.11103 14.8425C4.14483 14.7833 4.15328 14.7072 4.16173 14.631C4.01807 14.6395 3.88287 14.648 3.73921 14.6649C3.71386 14.6733 3.69696 14.6733 3.67161 14.6733C3.38429 14.9779 2.92797 15.1471 2.50544 15.1471C2.42094 15.1471 2.33644 15.1387 2.26038 15.1302C2.15053 15.1133 2.04067 15.0964 1.93926 15.071C1.95617 15.1217 1.97307 15.1725 2.00687 15.1979C2.15898 15.3925 2.41249 15.4432 2.64065 15.4601C3.12233 15.4686 3.88287 15.3163 4.11103 14.8425ZM4.58425 10.3671C4.6096 9.91024 4.61806 9.43646 4.4744 8.99653C4.10258 8.02361 3.61245 8.45508 3.40964 9.23342C3.35049 9.43646 3.32514 9.65643 3.29979 9.86794C3.45189 10.1725 3.54485 10.5109 3.57865 10.8324C3.66316 10.9001 3.75611 10.9593 3.83216 11.0354C3.94202 11.0185 4.05188 11.0016 4.16173 11.0016C4.28849 11.0016 4.41524 11.0016 4.542 11.0185C4.542 10.9762 4.542 10.9255 4.55045 10.8832C4.55045 10.7055 4.5758 10.5363 4.58425 10.3671ZM5.48 12.7275C5.4969 12.4568 5.4293 12.1691 5.25184 11.9576C4.82932 11.5346 4.12793 11.45 3.59555 11.6953C2.80966 12.1437 3.46879 12.7275 4.12793 12.6429C4.26314 12.6344 4.39834 12.6175 4.53355 12.5921C4.64341 12.5837 4.88002 12.4991 4.96452 12.5837C5.08283 12.8544 4.42369 13.0997 4.22088 13.1336C3.89132 13.2097 3.54485 13.1759 3.24063 13.0151C3.20683 13.0236 3.18148 13.0405 3.14768 13.049C3.05472 13.0828 2.95332 13.1251 2.86036 13.1505C2.65755 13.3451 2.37024 13.4466 2.09982 13.4551C2.09982 13.4551 2.09982 13.4551 2.09137 13.4551C1.49984 13.4551 1.00972 12.9052 0.984365 12.3299C0.975915 12.296 0.992815 12.2706 1.02662 12.2622C1.09422 12.2537 1.08577 12.3299 1.11112 12.3722C1.17873 12.4991 1.29703 12.5921 1.41534 12.6767C1.6604 12.829 1.96462 12.9728 2.25193 12.8629C2.62375 12.7444 2.62375 12.3975 2.52235 12.0761C2.51389 12.0507 2.50544 12.0253 2.48854 11.9999C2.48009 11.983 2.47164 11.9745 2.45474 11.9576C2.30263 11.7884 2.13363 11.6277 1.91391 11.5515C1.51674 11.4162 1.04352 11.5515 0.756203 11.8645C0.578744 12.0676 0.544942 12.3637 0.561843 12.626C0.612545 13.3789 1.08577 14.1065 1.77871 14.4195C2.31108 14.6564 3.08007 14.6903 3.40119 14.115C3.5026 13.8781 3.47725 13.6074 3.5195 13.362C3.47725 13.2689 3.6209 13.2013 3.66316 13.2943C3.68851 13.3112 3.71386 13.3282 3.73921 13.3535C3.85752 13.4804 3.92512 13.6412 3.95047 13.8104C3.96737 13.9119 3.96737 14.005 3.95892 14.098C4.22933 14.0896 4.4913 14.0304 4.73636 13.9204C5.17578 13.692 5.43775 13.2097 5.48 12.7275ZM6.11378 16.4161C6.13068 16.3231 6.13068 16.2216 6.12223 16.1285C6.10533 16.0101 6.07998 15.9001 6.03773 15.7816C5.59831 16.137 5.01523 16.4331 4.48285 16.4331C4.4406 16.4331 4.40679 16.4331 4.37299 16.4246C4.07723 16.3908 3.78991 16.2385 3.6209 16.0016C3.59555 15.9678 3.57865 15.9339 3.56175 15.9001C3.26598 15.9931 2.95332 16.0354 2.666 16.0354C2.6491 16.0354 2.6322 16.0354 2.6153 16.0354C2.73361 16.23 2.86036 16.4161 3.01247 16.5769C3.20683 16.7715 3.45189 16.9068 3.71386 16.9914C4.43215 17.1776 5.17578 16.9068 5.80957 16.5938C5.91097 16.543 6.00393 16.4923 6.11378 16.4584C6.11378 16.4415 6.11378 16.4246 6.11378 16.4161ZM5.97013 30.9846C6.29124 31.01 6.74757 31.0269 7.22079 31.0016C6.87432 30.9 6.54476 30.7478 6.22364 30.5955C5.65746 30.3247 5.13353 29.9271 4.81242 29.3687C4.22088 28.362 4.06878 27.1352 3.37584 26.1962C3.06317 25.7985 2.52235 25.477 2.05757 25.8239C1.88856 25.9339 1.73645 26.0862 1.63505 26.2723C1.63505 26.2977 1.6266 26.3231 1.61815 26.3315C1.51674 26.7799 1.5759 27.2537 1.71955 27.6852C1.97307 28.4381 2.26038 29.1995 2.73361 29.8341C3.5026 30.7985 4.82932 30.8916 5.97013 30.9846ZM9.24045 27.6936C9.27425 27.3721 9.07989 27.0845 8.88553 26.8391C8.75877 26.6784 8.59821 26.5599 8.42075 26.4584C8.18414 26.3315 7.93063 26.2215 7.66021 26.1877C7.46585 26.1708 7.23769 26.1623 7.09403 26.3061C7.02643 26.3654 7.00953 26.4584 6.98418 26.543C7.04333 26.6869 7.09403 26.8391 7.13629 26.983C7.84612 26.9745 8.61511 27.3044 9.18974 27.8036C9.2151 27.7782 9.24045 27.7444 9.24045 27.6936ZM9.43481 30.1302C9.70522 29.5633 9.42636 28.8865 9.02919 28.4466C8.58976 27.9728 7.98978 27.7021 7.3898 27.5075C7.3898 27.516 7.3898 27.516 7.38135 27.516C7.3391 27.6175 7.29685 27.7275 7.26304 27.8374C7.26304 28.0236 7.23769 28.2097 7.20389 28.3958C7.13629 28.5143 6.97573 28.4381 7.00953 28.3112C6.73912 26.8814 6.03773 25.5616 4.64341 24.9694C4.36454 24.8594 4.05188 24.8087 3.74766 24.8087C3.14768 24.8087 2.53925 25.0117 2.11672 25.4178C2.5139 25.274 2.94487 25.384 3.29979 25.697C3.69696 26.0354 3.93357 26.5261 4.13638 26.9999C4.37299 27.5667 4.5589 28.142 4.80396 28.7004C4.96452 29.0642 5.17578 29.4195 5.47155 29.6987C5.88562 30.1048 6.42645 30.3755 6.95883 30.5786C7.27994 30.697 7.60106 30.8154 7.93908 30.8577C8.03203 30.8662 8.11654 30.8662 8.20949 30.8662C8.75877 30.7562 9.232 30.5278 9.43481 30.1302ZM10.1277 24.5126C10.0094 24.4364 9.89113 24.3434 9.78128 24.2672C9.68832 24.1995 9.59537 24.1234 9.51086 24.0473C9.16439 24.3772 8.82638 24.7241 8.54751 25.1133C8.40385 25.3078 8.2771 25.5193 8.14189 25.7224C8.47991 25.8239 8.80947 26.0016 9.06299 26.2046C9.18974 25.8493 9.45171 25.4432 9.55311 25.2825C9.70522 25.0033 9.89958 24.741 10.1277 24.5126ZM11.6742 2.22836C11.6573 2.19452 11.6488 2.16068 11.6319 2.1353C11.5559 2.00839 11.4629 1.89841 11.3615 1.79689C11.1671 1.59384 10.9136 1.45002 10.6855 1.29773C10.5672 1.38234 10.601 1.58538 10.6432 1.70382C10.7615 2.00839 11.0404 2.20298 11.3193 2.35526C11.4376 2.29604 11.5559 2.2622 11.6742 2.22836ZM12.7896 1.86457C12.9079 1.4331 12.9755 0.933944 12.7474 0.527854C12.2235 0.942404 12.0206 1.31465 12.0882 1.99147C12.0967 2.03377 12.0967 2.08453 12.1051 2.12683C12.308 2.09299 12.5108 2.06761 12.7136 2.06761C12.7474 1.99993 12.7727 1.93225 12.7896 1.86457ZM13.7107 2.12683C13.9389 1.84765 14.0995 1.55154 14.0995 1.17929C13.8544 1.37388 13.584 1.53462 13.3896 1.77151C13.3474 1.83073 13.2967 1.89841 13.2544 1.95763C13.2375 1.99993 13.2206 2.04223 13.1953 2.08453C13.3643 2.10145 13.5333 2.12683 13.7023 2.16068C13.7023 2.14376 13.7023 2.1353 13.7107 2.12683ZM17.4796 27.0422C17.7754 26.4753 17.9022 25.494 17.3275 25.0625C16.9303 24.7664 16.4233 24.8594 16.0346 25.1217C16.0177 25.164 16.0008 25.1979 15.9839 25.2402C15.9755 25.2655 15.9585 25.2909 15.9501 25.3248C16.0684 25.3417 16.1952 25.3501 16.3135 25.3586C16.3726 25.3671 16.4233 25.3671 16.474 25.3755C16.4909 25.3586 16.5247 25.3501 16.5501 25.3501C16.7106 25.3332 16.8543 25.4009 16.9726 25.5024C17.1332 25.6462 17.2684 25.8324 17.3275 26.0439C17.3698 26.2131 17.3782 26.3907 17.3529 26.5599C17.3275 26.6869 17.2684 26.8053 17.1923 26.9068C17.1332 26.9999 17.0402 27.0676 16.9388 27.0676C16.9134 27.0676 16.8881 27.0591 16.8627 27.0506C16.7951 27.076 16.7275 27.0845 16.6599 27.0929C16.567 27.1014 16.4825 27.1014 16.3895 27.1014C16.2036 27.1014 16.0177 27.0845 15.8318 27.076C15.7895 27.076 15.7388 27.0676 15.6966 27.0676C15.705 27.1099 15.7135 27.1437 15.7304 27.1691C15.7726 27.2452 15.8318 27.3044 15.8994 27.3637C16.2797 27.389 16.6515 27.4567 17.0064 27.6006C17.1923 27.4567 17.3529 27.2537 17.4796 27.0422ZM19.7105 16.2977C19.7105 16.2892 19.7021 16.2808 19.7021 16.2639C19.5415 15.7985 19.1106 15.4771 18.6373 15.3925C18.0036 15.2571 17.4205 15.494 16.8796 15.8155C16.8881 15.8578 16.8881 15.8916 16.8965 15.9339C16.9726 16.4754 17.074 17.0168 17.1754 17.5583C17.1923 17.5414 17.2092 17.5244 17.2261 17.516C17.5388 17.2706 17.9275 17.1268 18.3247 17.1268C18.4092 17.1268 18.5359 17.1437 18.6542 17.1691C18.6965 16.9745 18.7894 16.7884 18.9331 16.6361C19.0937 16.4584 19.4317 16.2639 19.7105 16.2977ZM20.1922 28.8611C20.2429 28.5312 20.2598 28.2012 20.2514 27.8628C20.2345 27.2283 20.1077 26.5769 19.7612 26.0354C19.4655 25.5532 18.9162 25.1556 18.3416 25.1133C18.3331 25.1217 18.3247 25.1302 18.3162 25.1302C18.2655 25.1725 18.2148 25.2148 18.1641 25.2571C18.2993 25.6039 18.3331 26.0016 18.274 26.3823C18.2064 26.8561 18.0374 27.3298 17.7078 27.6852C17.7078 27.7613 17.7162 27.8374 17.7331 27.922C17.7416 27.9728 17.7585 28.0236 17.7669 28.0659V28.0743C17.9022 28.2012 18.0205 28.3366 18.105 28.5058C18.1895 28.6581 18.1726 28.8527 17.9529 28.7511C17.843 28.7004 17.7416 28.6242 17.6402 28.5566C17.2853 28.3281 16.9134 28.1082 16.5078 28.0066C15.9332 27.8713 15.3163 27.8544 14.7501 28.0236C14.4628 28.1166 14.2009 28.2689 13.9642 28.455C13.5586 28.8104 13.1868 29.2503 13.0516 29.7833C12.984 30.0709 12.9671 30.3501 13.0938 30.6209C13.246 30.9339 13.5079 31.0946 13.8459 31.1708C14.2769 31.2638 14.7163 31.2977 15.1558 31.34C15.967 31.4077 16.7867 31.4415 17.6064 31.3823C18.0712 31.34 18.5697 31.2977 18.9754 31.0523C19.457 30.7562 19.719 30.367 19.9134 29.8425C20.0317 29.5295 20.1331 29.1995 20.1922 28.8611ZM20.8936 16.9914C20.8936 16.9576 20.8936 16.9238 20.8852 16.8899C20.8767 16.7207 20.8852 16.5346 20.8683 16.3738C20.8429 16.0439 20.8091 15.7139 20.7077 15.3925C20.5978 15.0879 20.4288 14.8002 20.1838 14.5803C19.9979 14.4111 19.7697 14.3011 19.5331 14.2249C19.043 14.0557 18.5021 14.0388 17.9867 14.1065C17.505 14.1826 17.0318 14.3349 16.5923 14.5464C16.4656 14.6141 16.3473 14.6733 16.2205 14.741C16.1107 14.8002 16.0008 14.8679 15.874 14.8933C15.7135 14.8848 15.8487 14.631 15.8909 14.5549C15.9585 14.4365 16.0515 14.3434 16.1529 14.2503C16.136 13.9711 16.1276 13.6835 16.1276 13.3958C16.1191 12.7106 16.136 12.0253 16.2036 11.34C16.3135 10.2063 16.5501 9.0896 16.6177 7.95593C16.6599 6.91532 16.6768 5.84087 16.2712 4.85949C16.1107 4.47878 15.874 4.13191 15.6036 3.81888C15.3332 3.51431 15.0205 3.23512 14.6487 3.05746C14.1586 2.82057 13.6178 2.68521 13.0769 2.63445C12.9924 2.62599 12.9079 2.62599 12.8319 2.62599C12.4094 2.62599 11.9953 2.71059 11.5981 2.84595C10.9812 3.05746 10.3982 3.37049 9.91648 3.81042C9.1982 4.44494 8.66582 5.24866 8.18414 6.06084C7.87148 6.80534 7.55881 7.5583 7.3053 8.32818C7.11939 9.06422 6.98418 9.81717 6.88277 10.5786C6.69686 12.0676 6.60391 13.5566 6.65461 15.054C6.68841 16.3654 6.95038 17.6513 7.2884 18.9119C7.59261 20.0963 8.01513 21.2554 8.70807 22.2706C9.11369 22.8798 9.63762 23.4297 10.2968 23.7681C10.9728 24.0896 11.7249 24.2249 12.4685 24.2588C12.477 24.1911 12.4854 24.1234 12.4939 24.0642C12.5192 23.9373 12.553 23.8104 12.646 23.7173C12.6629 23.6919 12.7051 23.7004 12.7136 23.7342C12.7474 23.8019 12.7727 23.8696 12.7812 23.9457C12.8572 24.3011 12.9248 24.6733 13.0516 25.0202C13.2798 25.6124 13.8037 25.9593 14.3614 26.2131C15.0882 26.5261 15.8994 26.5346 16.6684 26.5599C16.7191 26.5599 16.7191 26.5599 16.7613 26.5599C16.7698 26.5599 16.7782 26.5599 16.7782 26.5599C16.7867 26.5346 16.7951 26.5176 16.8036 26.4923C16.8289 26.4077 16.8458 26.3146 16.8458 26.2215C16.812 26.1285 16.7444 26.0354 16.6599 25.9847C16.6177 25.9593 16.474 25.9424 16.3473 25.917C16.3135 25.9254 16.2797 25.9254 16.2459 25.9254C16.229 25.9254 16.2121 25.9254 16.1867 25.9254C15.8909 25.9085 15.5952 25.8662 15.3163 25.7731C14.6994 25.5701 14.1079 25.1302 13.9304 24.4872C13.8713 24.2841 13.8459 24.0642 13.8882 23.8611C13.9051 23.7935 13.922 23.7258 13.9642 23.6666C13.9727 23.6327 14.0149 23.6327 14.0318 23.6581C14.0741 23.7004 14.0995 23.7596 14.1248 23.8104C14.1586 23.8696 14.184 23.9288 14.2093 23.9965C14.2093 24.005 14.2178 24.0134 14.2178 24.0219C14.4882 23.9204 14.7417 23.7935 14.9783 23.6327C15.2741 23.4297 15.5276 23.1759 15.7642 22.9136C16.0093 22.6429 16.2205 22.3468 16.3811 22.0168C16.5585 21.6615 16.6684 21.2892 16.7613 20.9085C16.6346 20.5447 16.6768 20.1217 16.8712 19.7749C16.8712 19.6141 16.8543 19.4534 16.8374 19.2926C16.7782 19.1911 16.736 19.0811 16.7022 18.9627C16.6515 18.7596 16.6515 18.5481 16.6937 18.3451C16.6853 18.2943 16.6768 18.252 16.6684 18.2013C16.5416 17.5244 16.4233 16.8476 16.3219 16.1623C16.2628 16.2046 16.2121 16.2385 16.1529 16.2723C16.1107 16.2977 16.0262 16.3485 15.9924 16.2808C15.967 16.137 16.0853 15.9931 16.1614 15.8832C16.3304 15.6716 16.5416 15.5109 16.7613 15.3671C17.2008 15.0879 17.6993 14.851 18.2233 14.8256C19.0176 14.7918 19.7866 15.181 20.1331 15.9085C20.2683 16.1793 20.319 16.4838 20.319 16.7884C20.319 16.873 20.319 16.9661 20.3105 17.0507C20.5218 17.0507 20.7077 17.0253 20.8936 16.9914ZM21.257 17.9644C21.502 17.7952 21.7218 17.5414 21.7133 17.2283C21.6964 17.0337 21.5612 16.873 21.4091 16.763C21.4091 16.7884 21.4091 16.8138 21.4091 16.8476C21.4006 16.9322 21.4006 17.0253 21.3753 17.1099C21.3668 17.1268 21.3668 17.1522 21.3499 17.1691C21.3584 17.2706 21.3161 17.3806 21.2063 17.4229C21.0035 17.4906 20.7838 17.5329 20.564 17.5329C20.4626 17.5329 20.3697 17.5244 20.2767 17.5075C20.0655 17.4737 19.8458 17.3975 19.6936 17.2368C19.6429 17.1776 19.5922 17.0676 19.6514 16.9999C19.6852 16.9745 19.7274 16.9661 19.7866 16.9661C19.7866 16.9322 19.7866 16.8984 19.7866 16.873C19.7866 16.7969 19.7781 16.7207 19.7697 16.6446C19.7528 16.653 19.7359 16.6615 19.719 16.67C19.55 16.7546 19.3979 16.873 19.288 17.0337C18.95 17.5921 19.4486 18.049 19.9894 18.142C20.4119 18.2097 20.8852 18.1928 21.257 17.9644ZM22.3048 19.7156C22.3809 19.3349 22.3133 18.9373 22.1358 18.5989C22.0851 18.4974 22.026 18.3958 21.9584 18.3028C21.9161 18.2436 21.8823 18.1928 21.8401 18.1336C21.4767 18.5312 20.9105 18.7004 20.3781 18.7004C20.3528 18.7004 20.3274 18.7004 20.3105 18.7004C19.8711 18.6835 19.3979 18.5989 19.0514 18.2943C18.8571 18.1336 18.7218 17.9221 18.6627 17.6936C18.6204 17.6936 18.5697 17.6852 18.5275 17.6852C18.4514 17.6767 18.3754 17.6683 18.3078 17.6767C18.0205 17.6936 17.7416 17.8036 17.5219 17.9982C17.4205 18.0913 17.3444 18.2097 17.3022 18.3451C17.2177 18.5735 17.2261 18.8358 17.3191 19.0642C17.3275 19.1065 17.3613 19.1742 17.4036 19.2503C17.6824 19.098 18.0458 19.0642 18.3247 19.2165C18.3331 19.1996 18.3416 19.1826 18.3416 19.1657C18.3754 19.0896 18.4092 19.0134 18.4683 18.9458C18.4852 18.9204 18.5106 18.895 18.5359 18.8865C18.5697 18.8696 18.6204 18.895 18.6289 18.9288C18.6373 18.9458 18.6373 18.9711 18.6373 18.9965C18.6542 19.2249 18.7049 19.4534 18.7641 19.6818C18.781 19.7833 18.8232 19.8764 18.7979 19.9779C18.7725 20.0625 18.7218 20.1556 18.6289 20.1809C18.612 20.1894 18.5951 20.1894 18.5697 20.1894C18.519 20.1894 18.4683 20.1725 18.4261 20.1386C18.3078 20.071 18.2909 19.9271 18.274 19.8087C18.2655 19.7664 18.2655 19.7241 18.2571 19.6818C18.2402 19.6818 18.2317 19.6818 18.2148 19.6733C18.1388 19.6649 18.0712 19.6479 17.9951 19.6564C17.5388 19.6649 17.1923 20.1471 17.2853 20.587C17.3529 20.9847 17.674 21.0862 18.0374 21.1116C18.3669 21.1454 18.688 21.0439 18.9838 20.8916C19.212 20.7816 19.4317 20.6547 19.626 20.5024C19.7781 20.4009 19.9218 20.2825 20.0317 20.1386C20.0908 20.054 20.2345 20.1217 20.2007 20.2232C20.1584 20.3501 20.0824 20.4517 20.0063 20.5617C19.888 20.7816 19.7274 20.9677 19.55 21.1454C19.7866 21.1539 20.0148 21.1369 20.2429 21.0523C20.7246 20.9085 21.0119 20.5109 21.333 20.1556C21.333 20.1302 21.3584 20.1133 21.3753 20.1133C21.4429 20.1048 21.4598 20.2317 21.4682 20.274C21.4936 20.4347 21.4344 20.5955 21.3753 20.7393C21.3584 20.7732 21.3415 20.807 21.3246 20.8408C21.4091 20.8155 21.4936 20.7901 21.5781 20.7478C21.9837 20.5617 22.2203 20.1471 22.3048 19.7156ZM22.2119 17.8882C22.7527 18.3112 22.9724 19.0557 22.8795 19.7241C22.7696 20.5109 22.1781 21.3823 21.3246 21.3992C21.1978 21.3908 21.0542 21.3823 20.9443 21.3146C20.6147 21.5769 20.1838 21.7122 19.7612 21.7122C19.7528 21.7122 19.7443 21.7122 19.7359 21.7122C19.5331 21.7038 19.3387 21.6446 19.1528 21.56C19.1106 21.543 19.0683 21.5261 19.0261 21.5007C18.7556 21.6192 18.4599 21.6784 18.1641 21.6784C17.9529 21.6784 17.75 21.653 17.5472 21.5938C17.4289 21.56 17.3191 21.5092 17.2261 21.45C17.0487 22.0676 16.736 22.6513 16.3219 23.142C16.0346 23.4889 15.7135 23.8104 15.3501 24.0642C15.0882 24.2418 14.8093 24.3941 14.5135 24.5041C14.7417 24.8341 15.0882 25.0709 15.4684 25.2063C15.4684 25.1386 15.4853 25.071 15.5022 25.0287C15.7642 24.4195 16.5839 24.1995 17.1923 24.3603C17.3951 24.4195 17.5641 24.5041 17.7078 24.6141C17.7669 24.5972 17.8261 24.5887 17.8768 24.5718C17.9698 24.5549 18.0627 24.538 18.1641 24.538C18.8148 24.5126 19.4486 24.8171 19.9049 25.2825C20.5049 25.9001 20.7669 26.7715 20.826 27.6175C20.8514 28.0489 20.8345 28.4804 20.7753 28.9119C20.7077 29.3349 20.5809 29.741 20.4288 30.1386C20.1077 31.0016 19.4063 31.6868 18.4852 31.856C18.181 31.9237 17.8683 31.9491 17.5557 31.9745C17.2515 31.9914 16.9557 31.9999 16.6515 31.9999C16.5332 31.9999 16.4233 31.9999 16.305 31.9914C15.6966 31.9745 15.0882 31.9237 14.4797 31.856C14.1502 31.8137 13.753 31.7714 13.4572 31.6615C12.8826 31.4584 12.4939 30.9508 12.4432 30.3417C12.4263 30.1217 12.4516 29.9017 12.5023 29.6902C12.6122 29.1826 12.9248 28.7088 13.2713 28.3451C13.5755 28.0151 13.9389 27.7528 14.3445 27.5836C14.5389 27.499 14.7501 27.4398 14.9529 27.406C14.9867 27.3975 15.0205 27.3891 15.0628 27.3891C14.9867 27.2537 14.9529 27.1014 14.9529 26.9491C14.5304 26.8561 14.1333 26.7122 13.7614 26.4923C13.4826 26.3315 13.2206 26.1454 13.0093 25.9001C12.7812 25.6378 12.6037 25.3248 12.5277 24.9863C12.5108 24.9271 12.5023 24.8764 12.4939 24.8171C12.4009 24.8171 12.308 24.8087 12.215 24.8002C11.7333 24.7664 11.2517 24.6902 10.7869 24.5464C10.7108 24.6733 10.5925 24.7664 10.508 24.8848C10.0939 25.3586 9.73057 25.8747 9.41791 26.4246C9.40101 26.45 9.3841 26.4753 9.3672 26.5092C9.43481 26.5938 9.50241 26.6869 9.56156 26.7884C9.63762 26.9068 9.69677 27.0337 9.73057 27.1606C9.78973 27.3383 9.79818 27.5329 9.74747 27.719C9.72212 27.8121 9.67142 27.9051 9.60382 27.9728C9.56156 28.0066 9.51931 28.0405 9.46016 28.0743C9.59537 28.2266 9.72212 28.3874 9.81508 28.565C10.2207 29.2503 10.2545 30.2148 9.64607 30.7985C9.02074 31.4415 7.75317 31.5853 6.78137 31.5853C6.62926 31.5853 6.4856 31.5853 6.3504 31.5769C4.4406 31.4753 2.6322 31.2977 1.77026 29.3264C1.33928 28.3789 0.849158 27.3467 1.06042 26.2808C1.26323 25.0286 2.50544 24.2165 3.72231 24.2418C4.92227 24.1995 6.07998 24.9779 6.72222 26.0185C6.82362 25.8662 6.97573 25.7562 7.14474 25.697C7.3222 25.6378 7.52501 25.6209 7.71937 25.6378C7.74472 25.4855 7.82077 25.3332 7.87148 25.2317C8.15034 24.6902 8.56441 24.1234 9.05454 23.7512C9.09679 23.7258 9.13904 23.6919 9.17284 23.6666C9.02919 23.5397 8.90243 23.4043 8.77567 23.2689C7.78697 22.1437 7.19544 20.7224 6.81517 19.2926C6.63771 18.6243 6.47715 17.9559 6.35885 17.2791C6.34195 17.1606 6.31659 17.0337 6.29969 16.9153C6.20674 16.9914 6.10533 17.0591 6.00393 17.1183C5.45465 17.4229 4.82932 17.6006 4.20398 17.6175C4.19553 17.6175 4.19553 17.6175 4.18708 17.6175C3.40119 17.6175 2.5984 17.1776 2.31108 16.4246C2.26883 16.2892 2.20968 16.1285 2.20123 15.9678C1.98152 15.9001 1.78716 15.7901 1.6435 15.6124C1.48294 15.4263 1.41534 15.1471 1.49984 14.9102C0.832257 14.5887 0.32523 13.9711 0.105519 13.2436C-0.0972917 12.5583 -0.046589 11.6869 0.604095 11.2639C0.806906 11.12 1.03507 11.0185 1.28013 10.9762C1.24633 10.9424 1.21253 10.9001 1.17873 10.8578C0.840707 10.4602 0.519591 10.0033 0.451987 9.47877C0.333681 8.83579 0.849158 8.32818 1.49139 8.42124C2.07447 8.49738 2.5815 8.83579 2.95332 9.3011C2.97022 8.77657 3.18148 8.20973 3.61245 7.98131C3.91667 7.78672 4.33074 7.87132 4.58425 8.11667C5.24339 8.74273 5.21804 9.75795 5.15043 10.604C5.12508 10.7563 5.14198 11.0016 5.06593 11.1708C5.63211 11.4077 6.03773 11.8984 6.05463 12.609C6.07998 13.4804 5.4969 14.3434 4.66031 14.5803C4.68566 14.7495 4.66031 14.9441 4.61806 15.054C4.4913 15.3586 4.25469 15.5786 3.97582 15.7393C4.00962 15.7647 4.04343 15.7901 4.08568 15.8155C4.20398 15.8832 4.33074 15.9339 4.46595 15.9339C4.55045 15.9339 4.66031 15.917 4.73636 15.9001C4.92227 15.8493 5.10818 15.7816 5.27719 15.6801C5.5645 15.5194 5.80957 15.3079 6.09688 15.1471C6.11378 15.1387 6.13068 15.1217 6.13914 15.1133C6.12223 14.741 6.11378 14.3688 6.11378 13.9881C6.12223 12.3891 6.26589 10.7901 6.57856 9.22496C6.76447 8.33664 7.02643 7.45677 7.356 6.61921C7.60106 5.97623 7.90528 5.35864 8.294 4.7918C8.53061 4.44494 8.80947 4.12345 9.11369 3.81888C9.47706 3.42125 9.89958 3.08284 10.3644 2.81211C10.4996 2.73597 10.6348 2.66829 10.7784 2.60061C10.4996 2.45678 10.2968 2.18606 10.2376 1.87303C10.1277 1.36542 10.4151 0.494013 11.0573 0.925484C11.2263 1.06085 11.4291 1.22159 11.5812 1.40772C11.5812 1.38234 11.5897 1.36542 11.5897 1.34003C11.6573 0.874723 11.9699 0.510933 12.3164 0.223286C12.4854 0.0540813 12.7474 -0.0982026 12.9586 0.079462C13.06 0.155604 13.0854 0.290967 13.1192 0.409411C13.1868 0.697058 13.2882 0.976245 13.3305 1.26389C13.3812 1.20467 13.4403 1.13699 13.5079 1.08623C13.7192 0.917024 14.0318 0.595535 14.3192 0.697058C14.5727 0.807041 14.6234 1.12853 14.6234 1.37388C14.6318 1.6023 14.5558 1.82227 14.429 2.00839C14.3614 2.10991 14.2769 2.21144 14.1755 2.29604C14.4966 2.3891 14.8093 2.50754 15.0966 2.68521C15.6036 2.99824 16.0262 3.42971 16.3642 3.91194C16.5078 4.10653 16.6261 4.31803 16.7275 4.538C17.1332 5.38402 17.2092 6.34002 17.2008 7.26219C17.2177 8.81887 16.8289 10.3417 16.7275 11.8899C16.6853 12.5667 16.6768 13.252 16.7022 13.9373C17.4458 13.5989 18.2824 13.472 19.0937 13.5735C19.6176 13.6581 20.1415 13.8358 20.5471 14.1826C20.9528 14.5295 21.2232 15.0287 21.333 15.5532C21.3922 15.7985 21.4091 16.0439 21.4175 16.2977C21.8823 16.3231 22.2372 16.7969 22.2288 17.2452C22.2203 17.4568 22.1612 17.6598 22.0682 17.8459C22.1189 17.829 22.1696 17.8628 22.2119 17.8882Z" fill="#161111"/>
<path d="M13.0345 12.6258C13.1021 12.685 13.2204 12.8712 13.0429 12.8712C12.9753 12.8712 12.8993 12.8627 12.8317 12.8542C12.8317 12.9304 12.8232 13.015 12.8232 13.0827C12.8063 13.6749 12.5613 14.2502 12.2063 14.7409C11.8261 15.2654 11.1923 15.6207 10.5078 15.6207C10.4909 15.6207 10.474 15.6207 10.4571 15.6207C9.09658 15.5954 8.45434 14.5717 8.34449 13.4211C8.33604 13.3365 8.33604 13.1673 8.36139 13.0235C8.29378 13.0235 8.22618 13.0319 8.16703 13.0404C8.15013 13.0488 8.14168 13.0488 8.12478 13.0488C8.10788 13.0488 8.09097 13.0404 8.08252 13.0319C8.05717 13.0065 8.05717 12.9558 8.09097 12.9389C8.11633 12.905 8.14168 12.8712 8.16703 12.8458C8.24308 12.7696 8.33604 12.702 8.44589 12.6597C8.79236 12.4905 8.96982 12.8458 8.69096 12.9642C8.69096 13.0404 8.68251 13.125 8.69096 13.1842C8.69096 13.3026 8.69096 13.4295 8.69941 13.548C8.72476 13.9118 8.82616 14.2756 9.04587 14.5801C9.4515 15.1385 10.212 15.4262 10.8627 15.3077C11.3951 15.1893 11.8514 14.8339 12.1049 14.3855C12.3669 13.8864 12.4852 13.3365 12.5021 12.795C12.4937 12.795 12.4768 12.7866 12.4683 12.7866C12.4176 12.7781 12.3669 12.7696 12.3331 12.7273C12.2739 12.6766 12.2655 12.5751 12.3162 12.5158C12.3669 12.4566 12.4599 12.4397 12.5359 12.4397C12.7303 12.4566 12.9077 12.5074 13.0345 12.6258Z" fill="#161111"/>
<path d="M11.9109 11.1879C11.9278 11.3655 11.9193 11.5432 11.9109 11.7208C11.894 11.8816 11.8686 12.0339 11.8264 12.1946C11.8095 12.2538 11.7926 12.3046 11.7757 12.3638C11.7588 12.4061 11.7419 12.4569 11.7165 12.4992C11.6912 12.5499 11.6574 12.6092 11.6236 12.6515C11.5982 12.6768 11.5729 12.7107 11.5475 12.7276C11.5137 12.753 11.4799 12.7784 11.4376 12.7868C11.4038 12.7953 11.3616 12.8038 11.3193 12.8038C11.3024 12.8038 11.2855 12.8038 11.2686 12.8038C11.2095 12.7953 11.1588 12.7699 11.1081 12.7361C11.0405 12.6938 10.9898 12.6261 10.956 12.5584C10.9137 12.4823 10.8884 12.3977 10.863 12.3131C10.8377 12.22 10.8208 12.1269 10.8123 12.0339C10.8039 11.9408 10.7954 11.8393 10.7954 11.7462C10.7954 11.7124 10.7954 11.6785 10.7954 11.6447C10.7954 11.5009 10.8039 11.3571 10.8208 11.2217C10.8377 11.1032 10.8546 10.9763 10.8884 10.8579C10.9053 10.7987 10.9222 10.7395 10.9475 10.6887C10.9729 10.6379 10.9982 10.5787 11.032 10.5364C11.0658 10.4772 11.1081 10.4264 11.1672 10.3841C11.2517 10.3164 11.37 10.2826 11.4714 10.308C11.6489 10.3503 11.7503 10.528 11.8095 10.6887C11.8686 10.8494 11.894 11.0186 11.9109 11.1879Z" fill="#161111"/>
<path d="M11.7751 11.374C11.1244 11.2048 11.3188 10.9679 11.868 10.9341C11.8849 11.0187 11.8934 11.1117 11.9018 11.1963C11.9103 11.264 11.9103 11.3402 11.9103 11.4079C11.8765 11.3909 11.8258 11.3825 11.7751 11.374Z" fill="white"/>
<path d="M10.2966 11.1879C10.3135 11.3655 10.3051 11.5432 10.2966 11.7208C10.2797 11.8816 10.2544 12.0339 10.2121 12.1946C10.1952 12.2538 10.1783 12.3046 10.1614 12.3638C10.1445 12.4061 10.1276 12.4569 10.1023 12.4992C10.0769 12.5499 10.0431 12.6092 10.0093 12.6515C9.98394 12.6768 9.95859 12.7107 9.93324 12.7276C9.89944 12.753 9.86564 12.7784 9.82339 12.7868C9.78958 12.7953 9.74733 12.8038 9.70508 12.8038C9.68818 12.8038 9.67128 12.8038 9.65438 12.8038C9.59522 12.7953 9.54452 12.7699 9.49382 12.7361C9.42621 12.6938 9.37551 12.6261 9.34171 12.5584C9.29946 12.4823 9.27411 12.3977 9.24876 12.3131C9.2234 12.22 9.2065 12.1269 9.19805 12.0339C9.1896 11.9408 9.18115 11.8393 9.18115 11.7462C9.18115 11.7124 9.18115 11.6785 9.18115 11.6447C9.18115 11.5009 9.1896 11.3571 9.2065 11.2217C9.2234 11.1032 9.24031 10.9763 9.27411 10.8579C9.29101 10.7987 9.30791 10.7395 9.33326 10.6887C9.35861 10.6379 9.38396 10.5787 9.41776 10.5364C9.45157 10.4772 9.49382 10.4264 9.55297 10.3841C9.63748 10.3164 9.75578 10.2826 9.85719 10.308C10.0346 10.3503 10.1361 10.528 10.1952 10.6887C10.2544 10.8494 10.2797 11.0186 10.2966 11.1879Z" fill="#161111"/>
<path d="M10.1025 11.4669C9.98422 11.4331 9.86592 11.3908 9.78141 11.3147C9.67156 11.2047 9.74761 11.0862 9.87437 11.0439C10.0011 10.9932 10.1363 10.9932 10.2715 10.9932C10.28 11.0608 10.2884 11.1285 10.2969 11.1962C10.3053 11.3062 10.3053 11.4077 10.3053 11.5177C10.2377 11.5008 10.1701 11.4839 10.1025 11.4669Z" fill="white"/>
</svg>
