<svg width="24" height="34" viewBox="0 0 24 34" fill="none" xmlns="http://www.w3.org/2000/svg">
<path d="M18.3195 14.6144C18.2594 14.5743 18.3395 14.7345 18.2795 14.6945C17.9591 15.3352 17.5787 15.9759 17.1582 16.3764C16.918 16.6166 16.2172 17.2573 15.3162 16.917C14.4953 16.6166 13.0737 15.8358 12.1526 15.4553C12.1126 15.9359 12.1326 16.6567 12.2327 17.1372C13.2338 17.7579 14.5753 18.3586 15.4763 18.6789C16.2172 18.9392 16.7778 18.719 17.2583 18.4587C18.2194 17.8981 19.0804 17.1572 19.8012 16.056C19.3407 15.5154 18.8401 15.0349 18.3195 14.6144Z" fill="#994B96"/>
<path d="M17.8189 17.1575C17.879 17.618 17.7388 18.0184 17.3984 18.2987C17.4185 18.2987 17.4385 18.2987 17.4585 18.2987C18.3395 17.7581 19.1204 17.0574 19.7811 16.0162C19.3206 15.4956 18.84 15.0351 18.3195 14.5946C18.2594 14.5546 18.3395 14.7148 18.2794 14.6747C18.0392 15.1953 17.7388 15.6758 17.4185 16.0763C17.4185 16.1163 17.4385 16.1564 17.4385 16.1964C17.5386 16.5568 17.7588 16.8171 17.8189 17.1575Z" fill="#813F7F"/>
<path d="M19.461 15.5756C19.0805 15.1551 18.7401 15.115 18.3397 14.7346C18.3197 14.7146 18.3197 14.7146 18.2997 14.6946C17.8792 15.5355 17.3386 16.4565 16.4776 16.897C15.5766 17.3576 14.6155 16.6167 13.7946 16.2163C13.2941 15.976 13.1139 15.8759 12.5933 15.6557L12.373 17.2374C12.8736 17.5378 14.3553 18.2185 14.6756 18.3587C15.4965 18.7591 16.3975 18.8792 17.2585 18.4588C17.8391 18.0984 18.4799 17.6979 18.9604 17.1573C19.1606 16.9171 19.3408 16.6768 19.541 16.4565C19.8013 16.1562 19.7413 15.8559 19.461 15.5756Z" stroke="#3C3F1A" strokeWidth="0.7605" strokeMiterlimit="10" strokeLinecap="round" strokeLineJoin="round"/>
<path d="M20.2815 15.9359C20.3015 16.3363 19.901 16.8569 19.4205 16.8569C18.94 16.8569 17.9388 16.1361 17.6986 15.5154C17.4583 14.8947 18.079 14.3941 18.5195 14.4142C18.98 14.4542 20.2815 15.9359 20.2815 15.9359Z" fill="white"/>
<path d="M19.7209 15.3354C19.6609 15.5357 19.5608 15.7359 19.4006 15.8761C19.1403 16.1564 18.7398 16.1564 18.3794 16.0963C18.2593 16.0763 18.1192 16.0362 17.999 15.9962C18.3995 16.4567 19.0602 16.8772 19.4206 16.8571C19.9011 16.8571 20.2816 16.3366 20.2816 15.9361C20.2816 15.9361 20.0413 15.6558 19.7209 15.3354Z" fill="#E5DDDA"/>
<path d="M19.4006 12.4322C19.5007 12.3521 19.6409 12.2119 19.781 12.0317C19.9612 12.252 20.1214 12.4722 20.2816 12.7125C20.7621 13.3933 21.2226 14.074 21.7032 14.7348C21.8033 14.8749 21.9034 15.0151 22.0235 15.1552C21.8633 15.2553 21.7833 15.2754 21.7833 15.2754C21.563 15.856 21.0825 16.2965 20.4217 16.2164C19.2404 15.7559 18.0991 15.0751 17.939 13.4934C18.4595 13.0729 18.9201 12.7726 19.4006 12.4322Z" fill="white"/>
<path d="M19.4005 12.4322C19.5006 12.3521 19.6408 12.2119 19.7809 12.0317C19.9611 12.252 20.1213 12.4722 20.2815 12.7125C20.762 13.3933 21.2225 14.074 21.7031 14.7348C21.8032 14.8749 21.9033 15.0151 22.0234 15.1552C21.8632 15.2553 21.7831 15.2754 21.7831 15.2754C21.7631 15.3154 21.7431 15.3554 21.7431 15.3955C21.4628 15.4355 21.1825 15.4556 20.9422 15.2954C20.8621 15.2353 20.782 15.1552 20.722 15.0751C20.6619 14.995 20.5818 14.915 20.5618 14.8148C20.5618 14.7748 20.5818 14.7147 20.5418 14.6747C20.5217 14.6346 20.4617 14.5946 20.4416 14.5746C20.3616 14.5145 20.2614 14.4544 20.1814 14.3944C20.0012 14.2542 19.9411 14.0139 19.7609 13.8738C19.6007 13.7537 19.4005 13.6736 19.2403 13.5534C19.0601 13.3933 18.8999 13.193 18.7798 12.9928C18.7598 12.9728 18.7397 12.9327 18.7197 12.9127C18.94 12.7525 19.1602 12.6124 19.4005 12.4322Z" fill="#E5DDDA"/>
<path d="M20.2612 16.2163C20.1812 16.4966 19.8007 16.857 19.4403 16.857C18.9598 16.857 17.9587 16.1362 17.7184 15.5155C17.5582 15.0951 17.8786 14.6546 18.1189 14.5144" stroke="#3C3F1A" strokeWidth="0.7605" strokeMiterlimit="10" strokeLinecap="round" strokeLineJoin="round"/>
<path d="M19.941 11.7512C20.1212 11.531 20.3014 11.3508 20.4616 11.3308C21.1223 11.1906 21.5027 12.0516 21.3425 12.2718C21.5828 12.1517 21.8231 12.0516 22.0633 12.2918C22.1835 12.412 22.2636 12.6122 22.2836 12.8124C22.3036 12.9726 22.2035 13.2729 22.2235 13.373C22.2235 13.373 22.3236 13.4531 22.5239 13.5733C22.684 13.6534 22.7841 13.8336 22.7641 14.0538C22.7641 14.1339 22.7441 14.194 22.7041 14.274C22.624 14.6545 22.3837 15.155 21.9032 15.2551C21.4026 15.3553 21.1423 15.155 21.0622 14.9148C20.9821 14.6745 20.9821 14.5143 21.2024 14.3341C21.2024 14.3341 20.862 14.6144 20.5016 14.3141C20.1412 14.0138 20.4215 13.5733 20.4215 13.5733C20.4215 13.5733 20.0611 13.8135 19.6807 13.2729C19.3003 12.6923 19.4204 12.3119 19.941 11.7512Z" fill="white"/>
<path d="M19.941 11.7512C20.1212 11.531 20.3014 11.3508 20.4616 11.3308C21.1223 11.1906 21.5027 12.0516 21.3425 12.2718C21.5828 12.1517 21.8231 12.0516 22.0633 12.2918C22.1835 12.412 22.2636 12.6122 22.2836 12.8124C22.3036 12.9726 22.2035 13.2729 22.2235 13.373C22.2235 13.373 22.2836 13.353 22.5038 13.4732C22.664 13.5532 22.8442 13.8736 22.7041 14.274C22.624 14.6545 22.3837 15.155 21.9032 15.2551C21.4026 15.3553 21.1423 15.155 21.0622 14.9148C20.9821 14.6745 20.9821 14.5143 21.2024 14.3341C21.2024 14.3341 20.862 14.6144 20.5016 14.3141C20.1412 14.0138 20.4215 13.5733 20.4215 13.5733C20.4215 13.5733 20.0611 13.8135 19.6807 13.2729C19.3003 12.6923 19.4204 12.3119 19.941 11.7512Z" stroke="#3C3F1A" strokeWidth="0.7605" strokeMiterlimit="10" strokeLinecap="round" strokeLineJoin="round"/>
<path d="M20.4014 13.6134C20.4414 13.5533 20.4614 13.5133 20.5015 13.4532C20.6016 13.293 20.7417 13.1729 20.8819 13.0327C20.942 12.9727 21.0221 12.8926 21.0821 12.8325C20.8819 13.233 20.7217 13.6735 21.002 13.9738C21.1822 14.154 21.4025 14.154 21.6227 14.0138C21.5026 14.2541 21.3424 14.4343 21.5426 14.7547C21.6227 14.8748 21.9231 15.095 22.0432 15.1551C21.9831 15.1952 21.9431 15.2352 21.903 15.2552C21.6828 15.2152 21.4225 15.2152 21.2423 15.095C21.1622 15.035 21.1021 14.9549 21.0821 14.8548C21.0421 14.7547 21.0621 14.6546 21.0221 14.5745C20.982 14.4743 20.8819 14.4543 20.8018 14.4143C20.7017 14.3742 20.6216 14.3342 20.5415 14.2541C20.4815 14.174 20.4214 14.0939 20.3813 14.0138C20.3613 13.8737 20.3813 13.7535 20.4014 13.6134Z" fill="#E5DDDA"/>
<path d="M22.2037 13.3332C21.8833 13.7336 21.5229 14.1541 21.0624 14.3543C20.722 14.4945 20.1814 14.2141 20.3817 13.6335C20.5018 13.2731 21.1225 12.6924 21.3627 12.252" stroke="#3C3F1A" strokeWidth="0.7605" strokeMiterlimit="10" strokeLinecap="round" strokeLineJoin="round"/>
<path d="M20.4814 13.4534C20.4814 13.4534 20.3012 13.6336 20.0008 13.4934C19.7005 13.3533 19.7405 13.2932 19.7405 13.2932" stroke="#3C3F1A" strokeWidth="0.7605" strokeMiterlimit="10" strokeLinecap="round" strokeLineJoin="round"/>
<path d="M21.0619 14.3542C20.8417 14.7146 21.142 15.0751 21.4223 15.1952C21.6826 15.3153 21.8028 15.2753 22.1031 15.1752" stroke="#3C3F1A" strokeWidth="0.7605" strokeMiterlimit="10" strokeLinecap="round" strokeLineJoin="round"/>
<path d="M18.5995 12.4921C19.2603 12.0116 20.3215 11.7113 20.4616 12.2118C20.6018 12.7324 19.7809 13.3731 19.4004 13.4332C19.4004 13.4332 20.0211 14.0739 19.941 14.9949C19.941 14.9949 19.2002 15.3153 18.6596 14.9749C18.119 14.6345 17.8988 14.3342 17.9588 13.7335C17.9989 13.1328 18.2792 12.7124 18.5995 12.4921Z" fill="white"/>
<path d="M21.7834 15.2952C21.5631 15.8758 21.0826 16.3163 20.4219 16.2362" stroke="#3C3F1A" strokeWidth="0.7605" strokeMiterlimit="10" strokeLinecap="round" strokeLineJoin="round"/>
<path d="M18.6396 14.9749C18.099 14.6345 17.8787 14.3342 17.9388 13.7335C17.9989 13.1328 18.2792 12.7124 18.5995 12.4921C19.2603 12.0116 20.3215 11.7113 20.4616 12.2118C20.6018 12.7324 19.7809 13.3731 19.4004 13.4332C19.4004 13.4332 20.0211 14.0739 19.941 14.9949" stroke="#3C3F1A" strokeWidth="0.7605" strokeMiterlimit="10" strokeLinecap="round" strokeLineJoin="round"/>
<path d="M20.5422 16.2562C20.2218 16.2762 19.6211 15.9158 19.2607 15.5354" stroke="#3C3F1A" strokeWidth="0.7605" strokeMiterlimit="10" strokeLinecap="round" strokeLineJoin="round"/>
<path d="M12.7527 22.744C12.5725 21.843 11.2911 22.1633 10.5102 22.804C9.44902 23.665 7.56692 25.3469 6.56581 26.0677C5.56469 26.7885 3.86279 27.9898 3.86279 27.9898C3.86279 27.9898 4.20317 28.9309 5.26436 29.5516C5.26436 29.5516 7.16648 28.5905 8.96849 27.1489C10.3701 26.0276 11.2711 25.1466 12.0719 24.3057C12.4524 23.9253 12.8728 23.2445 12.7527 22.744Z" fill="#994B96"/>
<path d="M7.7271 27.7696C7.14645 27.289 6.86614 26.5482 6.88616 25.8274C6.76603 25.9075 6.66592 25.9876 6.58583 26.0677C5.58471 26.7885 3.88281 27.9898 3.88281 27.9898C3.88281 27.9898 4.22319 28.9309 5.28438 29.5515C5.28438 29.5515 6.52576 28.9309 7.94735 27.9297C7.86726 27.8897 7.80719 27.8296 7.7271 27.7696Z" fill="#813F7F"/>
<path d="M12.7527 22.744C12.5725 21.843 11.2911 22.1633 10.5102 22.804C9.44902 23.665 7.56692 25.3469 6.56581 26.0677C5.56469 26.7885 3.86279 27.9898 3.86279 27.9898C3.86279 27.9898 4.20317 28.9309 5.26436 29.5516C5.26436 29.5516 7.16648 28.5905 8.96849 27.1489C10.3701 26.0276 11.2711 25.1466 12.0719 24.3057C12.4524 23.9253 12.8728 23.2445 12.7527 22.744Z" stroke="#3C3F1A" strokeWidth="0.7605" strokeMiterlimit="10" strokeLinecap="round" strokeLineJoin="round"/>
<path d="M8.20773 30.9728C7.68715 30.6124 6.9263 29.8316 6.70606 29.2309C6.68603 29.1708 6.68603 29.1308 6.68603 29.0707C6.7461 29.0707 6.82619 29.0507 6.88626 29.0107C7.18659 28.9105 7.80729 28.43 7.88737 28.3099C7.96746 28.1897 7.80729 28.0496 7.80729 28.0496C7.7272 28.2498 7.44688 28.3499 7.06646 28.0896C6.54588 27.7292 6.16545 26.8482 6.16545 26.5279C6.16545 26.2075 6.26557 26.1274 6.26557 26.1274C6.26557 26.1274 5.6649 26.3277 5.32452 26.4278C5.20438 26.4678 4.864 26.648 4.72385 26.7682C4.46356 26.9884 3.70271 27.0685 3.42239 27.3288C2.94186 27.6692 2.38123 28.43 2.52139 29.1308C2.68157 29.9317 3.62262 32.1141 5.0442 32.6547C6.44577 33.1953 7.54699 32.8549 8.38793 32.7749C9.30896 32.6747 9.04867 31.5335 8.20773 30.9728Z" fill="#F2629E"/>
<path d="M7.44688 31.4135C6.9263 31.3934 6.42574 31.3934 5.92519 31.1932C5.10427 30.8528 4.6838 30.2722 4.20327 29.5514C3.74275 28.8306 3.7828 27.6693 4.08313 27.0085C3.963 27.0686 3.50248 27.2688 3.42239 27.3289C2.94186 27.6693 2.38123 28.4301 2.52139 29.1309C2.68157 29.9318 3.62262 32.1142 5.0442 32.6548C6.44577 33.1954 7.54699 32.8551 8.38793 32.775C9.06869 32.6949 9.10874 32.0542 8.72831 31.4935C8.30784 31.4935 7.88737 31.4335 7.44688 31.4135Z" fill="#D9578E"/>
<path d="M3.24208 27.5291C3.12195 27.9095 3.10193 28.1497 3.14197 28.5502C3.24208 29.4512 3.98291 30.5324 4.70371 31.113C5.50461 31.7538 5.78492 31.7738 6.6659 31.8339C7.34666 31.8739 8.04744 31.8339 8.7282 31.6537C8.76825 31.6336 8.80829 31.6336 8.82831 31.6136C9.0886 32.0941 9.04856 32.6948 8.44789 32.835C7.80717 32.9751 6.46568 33.1954 5.06411 32.6548C3.66255 32.1142 2.70148 29.9518 2.5413 29.1308C2.42117 28.5502 2.9017 27.9295 3.24208 27.5291Z" fill="white"/>
<path d="M3.24239 27.5291C3.12226 27.9095 3.10223 28.1497 3.14228 28.5502C3.24239 29.4512 3.98322 30.5324 4.70402 31.113C5.50491 31.7538 5.78523 31.7738 6.66621 31.8339C7.34697 31.8739 8.04775 31.8339 8.72851 31.6537" stroke="#3C3F1A" strokeWidth="0.7605" strokeMiterlimit="10" strokeLinecap="round" strokeLineJoin="round"/>
<path d="M8.20773 30.9728C7.68715 30.6124 6.9263 29.8316 6.70606 29.2309C6.68603 29.1708 6.68603 29.1308 6.68603 29.0707C6.7461 29.0707 6.82619 29.0507 6.88626 29.0107C7.18659 28.9105 7.80729 28.43 7.88737 28.3099C7.96746 28.1897 7.80729 28.0496 7.80729 28.0496C7.7272 28.2498 7.44688 28.3499 7.06646 28.0896C6.54588 27.7292 6.16545 26.8482 6.16545 26.5279C6.16545 26.2075 6.36568 26.1274 6.36568 26.1274C6.36568 26.1274 5.6649 26.3277 5.32452 26.4278C5.20438 26.4678 4.864 26.648 4.72385 26.7682C4.46356 26.9884 3.70271 27.0685 3.42239 27.3288C2.94186 27.6692 2.38123 28.43 2.52139 29.1308C2.68157 29.9317 3.62262 32.1141 5.0442 32.6547C6.44577 33.1953 7.54699 32.8549 8.38793 32.7749C9.30896 32.6747 9.04867 31.5335 8.20773 30.9728Z" stroke="#3C3F1A" strokeWidth="0.7605" strokeMiterlimit="10" strokeLinecap="round" strokeLineJoin="round"/>
<path d="M6.82621 28.9108C7.06648 28.9909 7.20663 29.4714 7.04645 29.4314C6.88628 29.3913 6.62599 29.3513 6.30563 29.3112C5.96525 29.2712 5.84511 29.3313 5.76503 29.1711C5.68494 29.0109 5.62487 28.9108 5.82509 28.8307C6.00529 28.7706 6.52587 28.8107 6.82621 28.9108Z" fill="white"/>
<path d="M6.82621 28.9108C7.06648 28.9909 7.20663 29.4714 7.04645 29.4314C6.88628 29.3913 6.62599 29.3513 6.30563 29.3112C5.96525 29.2712 5.84511 29.3313 5.76503 29.1711C5.68494 29.0109 5.62487 28.9108 5.82509 28.8307C6.00529 28.7706 6.52587 28.8107 6.82621 28.9108Z" stroke="#3C3F1A" strokeWidth="0.7605" strokeMiterlimit="10" strokeLinecap="round" strokeLineJoin="round"/>
<path d="M7.16654 29.4711C7.40681 29.5512 7.54696 30.0317 7.38679 29.9917C7.22661 29.9516 6.96632 29.9116 6.64596 29.8716C6.30558 29.8315 6.18545 29.8916 6.10536 29.7314C6.02527 29.5712 5.9652 29.4711 6.16542 29.391C6.34563 29.3309 6.86621 29.371 7.16654 29.4711Z" fill="white"/>
<path d="M7.16654 29.4711C7.40681 29.5512 7.54696 30.0317 7.38679 29.9917C7.22661 29.9516 6.96632 29.9116 6.64596 29.8716C6.30558 29.8315 6.18545 29.8916 6.10536 29.7314C6.02527 29.5712 5.9652 29.4711 6.16542 29.391C6.34563 29.3309 6.86621 29.371 7.16654 29.4711Z" stroke="#3C3F1A" strokeWidth="0.7605" strokeMiterlimit="10" strokeLinecap="round" strokeLineJoin="round"/>
<path d="M7.60697 30.0722C7.84724 30.1523 7.98739 30.6328 7.82722 30.5928C7.66704 30.5527 7.40675 30.5127 7.08639 30.4726C6.74601 30.4326 6.62588 30.4927 6.54579 30.3325C6.4657 30.1723 6.40563 30.0722 6.60585 29.9921C6.80608 29.912 7.30664 29.9521 7.60697 30.0722Z" fill="white"/>
<path d="M7.60697 30.0722C7.84724 30.1523 7.98739 30.6328 7.82722 30.5928C7.66704 30.5527 7.40675 30.5127 7.08639 30.4726C6.74601 30.4326 6.62588 30.4927 6.54579 30.3325C6.4657 30.1723 6.40563 30.0722 6.60585 29.9921C6.80608 29.912 7.30664 29.9521 7.60697 30.0722Z" stroke="#3C3F1A" strokeWidth="0.7605" strokeMiterlimit="10" strokeLinecap="round" strokeLineJoin="round"/>
<path d="M4.68361 32.4548C4.68361 32.4548 5.24424 31.8942 4.56348 31.0132" stroke="#3C3F1A" strokeWidth="0.7605" strokeMiterlimit="10" strokeLinecap="round" strokeLineJoin="round"/>
<path d="M15.2759 23.7848C14.535 25.1663 12.9733 25.9672 11.4116 26.1074C9.88986 26.2475 8.28807 25.787 7.1468 24.7659C6.18573 23.9049 5.58506 22.7036 5.2647 21.4622C4.94434 20.2208 4.9043 18.9194 4.9043 17.6179C4.92432 15.4755 5.0845 13.3131 5.56503 11.2108C5.68517 10.7302 5.8053 10.2297 5.96548 9.72912C6.18573 9.00831 6.44602 8.28751 6.7864 7.62677C7.1468 6.90597 7.60731 6.24523 8.16794 5.70463C8.88874 5.00385 9.9299 4.56335 10.911 4.76358C11.7519 4.94378 12.4327 5.56447 12.8532 6.32532C12.9933 6.58561 13.1135 6.86592 13.2136 7.14624C13.3938 7.66682 13.4739 8.22744 13.5339 8.78807C13.7542 10.7503 13.5339 12.7925 14.0145 14.7147C14.515 16.6769 15.396 18.5189 15.6963 20.5412C15.8565 21.6624 15.7964 22.8237 15.2759 23.7848Z" fill="#994B96"/>
<path d="M13.5539 9.54884C13.2736 9.50879 12.8932 9.52881 12.8932 9.52881L12.1724 9.48877C12.1123 9.58888 12.0122 9.74906 12.0923 9.90924C12.1724 10.0694 12.2124 10.2096 12.5528 10.1896C12.8932 10.1495 13.2336 9.88922 13.4939 9.88922C13.5139 9.88922 13.5539 9.88922 13.574 9.88922C13.5539 9.74906 13.5539 9.64895 13.5539 9.54884Z" fill="#813F7F"/>
<path d="M13.8341 14.1541C13.3735 14.2542 12.6527 14.3343 12.2723 13.8137C11.7918 13.153 11.7918 12.4722 11.7517 12.4522C11.2512 12.0518 11.3513 12.8527 11.3513 12.8527C11.3513 12.8527 10.7506 14.054 10.17 14.2542C9.58932 14.4544 8.78843 14.6146 8.20778 14.054C7.80733 13.6736 7.42691 12.4722 7.42691 12.4722C7.12657 12.6124 6.48586 12.7926 6.12545 13.0529C5.74503 13.3132 5.66494 13.7937 5.66494 13.7537C5.66494 13.7136 5.6249 12.6925 6.08541 12.272C6.54592 11.8515 6.76617 11.5512 8.00755 11.391C9.22892 11.2309 10.7706 11.1508 11.7117 11.3109C12.6527 11.4711 13.2334 11.2108 13.4336 11.9517C13.6138 12.6725 13.8341 14.1541 13.8341 14.1541Z" fill="#813F7F"/>
<path d="M13.2138 7.18628C12.8734 7.30641 12.533 7.3865 12.3328 7.28639C11.8122 7.0261 11.4518 6.46547 11.4318 6.42543C11.4318 6.44545 11.5119 6.68572 11.2916 7.04612C11.0714 7.42655 10.691 7.9271 10.691 7.9271C10.691 7.9271 10.3906 7.72688 10.0703 7.30641C9.74993 6.88594 9.74993 6.42543 9.74993 6.42543C9.74993 6.42543 8.60866 7.3865 7.90787 7.68684C7.20709 8.00719 6.90676 8.66793 6.90676 8.66793C6.72656 8.14735 7.127 7.42655 7.127 7.42655C7.127 7.42655 6.98685 7.50663 6.7666 7.64679C7.127 6.92599 7.58752 6.26525 8.14814 5.72465C8.86895 5.02387 9.91011 4.58337 10.8912 4.7836C11.7321 4.9638 12.4129 5.58449 12.8334 6.34534C13.0136 6.62565 13.1137 6.88594 13.2138 7.18628Z" fill="#813F7F"/>
<path d="M13.8943 23.7648C12.3126 24.4456 10.2302 24.806 8.78863 23.925C5.90541 22.163 5.84535 19.8004 5.48494 17.9183C5.12454 16.0962 5.20463 14.074 5.36481 12.2319C5.04445 14.0139 4.92432 15.8159 4.9043 17.638C4.9043 18.9194 4.94434 20.2208 5.2647 21.4822C5.58506 22.7236 6.18573 23.925 7.1468 24.7859C8.28807 25.8071 9.88986 26.2676 11.4116 26.1274C12.9733 25.9873 14.535 25.1864 15.2759 23.8048C15.6963 23.024 15.8165 22.123 15.7764 21.242C15.5161 22.4433 14.8554 23.3443 13.8943 23.7648Z" fill="#813F7F"/>
<path d="M5.94546 9.74904C5.78528 10.2496 5.66515 10.7502 5.54501 11.2307C5.06448 13.333 4.88428 15.4954 4.88428 17.6378C4.88428 18.9193 4.92432 20.2207 5.24468 21.4821C5.56504 22.7235 6.16571 23.9248 7.12678 24.7858C8.26805 25.8069 9.86984 26.2675 11.3915 26.1273C12.9533 25.9871 14.515 25.1863 15.2558 23.8047C15.7764 22.8436 15.8565 21.6823 15.6963 20.6011C15.416 18.5589 14.515 16.7168 14.0145 14.7546C13.5339 12.8125 13.7542 10.7702 13.5339 8.80799C13.4338 7.94703 13.2736 7.10609 12.8532 6.34524C12.4327 5.60441 11.7519 4.9637 10.911 4.7835C9.9299 4.56325 8.88874 5.02377 8.16794 5.72455C7.06671 6.76571 6.40597 8.26738 5.94546 9.74904Z" stroke="#3C3F1A" strokeWidth="0.7605" strokeMiterlimit="10" strokeLinecap="round" strokeLineJoin="round"/>
<path d="M14.4748 7.28654C14.4748 7.28654 13.5538 7.56685 12.813 7.12636C12.2123 6.76596 11.892 6.32547 11.7918 6.16529C11.8519 6.28542 11.5716 7.02625 11.5316 7.12636C11.2913 7.62692 10.8508 8.10746 10.8508 8.10746C10.8508 8.10746 10.5304 7.76708 10.3302 7.12636C10.13 6.46563 10.0699 6.04516 10.0699 6.04516C10.0699 6.04516 9.90974 6.54571 8.94867 6.90612C8.76847 6.98621 8.58827 7.0663 8.42809 7.14638C7.8074 7.48676 7.42697 7.84717 7.40695 7.88721C7.42697 7.84717 7.78738 7.0663 8.14778 6.48565C8.04767 6.52569 7.90751 6.58576 7.74733 6.6258C7.08659 6.80601 5.88525 6.36551 5.88525 6.36551C5.88525 6.36551 6.60606 6.36551 7.04655 5.78487L7.06657 5.76484C7.22675 5.5446 7.42697 5.32435 7.6272 5.16417C8.26791 4.64359 9.00874 4.36328 9.64945 4.22312C9.66947 4.22312 10.11 4.14303 10.3102 3.54237C10.5705 2.76149 10.4704 1.72033 10.7707 1.19975C10.8708 1.01955 11.2713 0.979507 11.4314 1.0596C11.972 1.29986 11.2713 2.30098 11.071 3.34214C11.011 3.68252 11.011 3.96283 11.1711 4.18308C11.8319 4.26317 12.2724 4.50344 12.8931 5.26429C13.0132 5.40444 13.1734 5.64471 13.3135 5.88498C13.4537 6.10522 13.5738 6.30545 13.6539 6.42558C14.0744 7.14638 14.4748 7.28654 14.4748 7.28654Z" fill="#7DB035"/>
<path d="M14.4748 7.28638C14.4748 7.28638 13.5538 7.56669 12.813 7.1262C12.2123 6.7658 11.892 6.32531 11.7918 6.16513C11.8519 6.28526 11.5716 7.02609 11.5316 7.1262C11.2913 7.62676 10.8508 8.10729 10.8508 8.10729C10.8508 8.10729 10.5304 7.76692 10.3302 7.1262C10.13 6.46546 10.0699 6.04499 10.0699 6.04499C10.0699 6.04499 9.90974 6.54555 8.94867 6.90595C8.76847 6.98604 8.58827 7.06613 8.42809 7.14622C7.8074 7.4866 7.42697 7.847 7.40695 7.88705C7.42697 7.847 7.78738 7.06613 8.14778 6.48549C8.04767 6.52553 7.90751 6.5856 7.74733 6.62564C7.08659 6.80584 5.88525 6.36535 5.88525 6.36535C5.88525 6.36535 6.60606 6.36535 7.04655 5.7847C6.98648 6.06502 6.92642 6.2252 6.80628 6.30528C6.80628 6.30528 6.98648 6.28526 7.68726 6.30528C8.38805 6.34533 9.08883 6.00495 9.08883 6.00495C9.08883 6.00495 9.02876 6.20517 8.92865 6.34533C8.92865 6.34533 9.74956 6.2252 10.0699 5.88482C10.3903 5.56446 10.4103 5.52441 10.4103 5.52441C10.4103 5.52441 10.5304 6.14511 10.7907 6.4054C11.031 6.68571 11.1311 6.72575 11.1311 6.72575C11.1311 6.72575 11.6317 6.12508 11.6917 5.7847C11.6917 5.7847 11.8519 6.02497 12.6528 6.26524C13.4537 6.50551 13.3336 6.30528 13.3336 6.30528C13.3336 6.30528 13.4137 6.14511 13.3336 5.86479C13.4737 6.08504 13.5939 6.28526 13.6739 6.4054C14.0744 7.14622 14.4748 7.28638 14.4748 7.28638Z" fill="#638D2A"/>
<path d="M13.6139 6.38529C13.4537 6.14503 13.0733 5.50431 12.853 5.24402C12.2524 4.48317 11.8119 4.24291 11.1311 4.16282C10.991 3.96259 10.9709 3.68228 11.031 3.32188C11.2312 2.30074 11.932 1.2796 11.3914 1.03933C11.2312 0.959243 10.8308 0.999288 10.7307 1.17949C10.4303 1.70007 10.5304 2.74123 10.2702 3.5221C10.0699 4.14279 9.60941 4.20286 9.60941 4.20286C8.9687 4.32299 8.22787 4.60331 7.58716 5.14391C7.36691 5.32411 7.18671 5.52433 7.02653 5.74458C6.58604 6.34525 5.84521 6.34525 5.84521 6.34525C5.84521 6.34525 7.06658 6.78574 7.70729 6.60554C7.88749 6.5655 8.02765 6.50543 8.10774 6.46538C7.74734 7.04603 7.36691 7.86695 7.36691 7.86695C7.36691 7.86695 7.74734 7.48652 8.38805 7.12612C8.54823 7.04603 8.70841 6.96594 8.90863 6.88585C9.8697 6.52545 10.0299 6.02489 10.0299 6.02489C10.0299 6.02489 10.11 6.44536 10.2902 7.1061C10.4704 7.74681 10.8108 8.08719 10.8108 8.08719C10.8108 8.08719 11.2512 7.60666 11.4915 7.1061C11.5516 7.00599 11.8119 6.24514 11.7518 6.14503C11.8519 6.30521 12.1723 6.76572 12.7729 7.1061C13.5138 7.54659 14.4348 7.26628 14.4348 7.26628C14.4348 7.26628 14.0744 7.14614 13.6139 6.38529Z" stroke="#3C3F1A" strokeWidth="0.7605" strokeMiterlimit="10" strokeLinecap="round" strokeLineJoin="round"/>
<path d="M4.62428 18.459C3.76332 19.0196 3.54308 19.6203 3.50303 20.4211C3.46299 21.222 3.64319 21.8628 3.64319 21.8628C3.64319 21.8628 3.08256 22.3633 1.92127 22.4234C1.92127 22.4234 1.00024 19.5802 2.76221 17.8783C3.7433 16.9373 5.30504 16.6369 6.14598 16.5568C6.46634 16.5168 6.78669 16.717 6.90683 17.0374C7.04698 17.4378 6.80672 18.0185 6.38625 18.0385C5.78558 18.0585 5.04475 18.1786 4.62428 18.459Z" fill="#994B96"/>
<path d="M3.50277 20.4209C3.52279 19.8802 3.64293 19.4398 3.98331 19.0193C3.94326 19.0393 3.8832 19.0794 3.84315 19.0994C3.30255 19.3997 2.7219 19.5999 2.10121 19.5599C2.0011 19.5599 1.90099 19.5399 1.8209 19.5198C1.46049 20.9615 1.92101 22.4031 1.92101 22.4031C3.0823 22.343 3.64293 21.8424 3.64293 21.8424C3.64293 21.8424 3.46273 21.2017 3.50277 20.4209Z" fill="#813F7F"/>
<path d="M6.38625 18.0182C5.8056 18.0783 5.04475 18.1784 4.62428 18.4587C3.76332 19.0193 3.54308 19.62 3.50303 20.4209C3.46299 21.2218 3.64319 21.8625 3.64319 21.8625C3.64319 21.8625 3.08256 22.3631 1.92127 22.4231C1.92127 22.4231 1.00024 19.58 2.76221 17.8781C3.7433 16.937 6.06589 16.3163 6.7066 16.7368" stroke="#3C3F1A" strokeWidth="0.7605" strokeMiterlimit="10" strokeLinecap="round" strokeLineJoin="round"/>
<path d="M2.80201 20.3808C3.32259 20.2807 3.7831 20.4008 3.98333 20.7612C4.18355 21.1417 4.10346 21.442 4.10346 21.442C4.10346 21.442 4.50391 21.5822 4.82427 22.1027C5.16464 22.6233 5.20469 23.224 5.44496 23.5243C5.68523 23.8046 6.02561 23.7846 6.06565 24.145C6.10569 24.5254 5.485 24.7857 5.08456 24.6656C5.08456 24.6656 5.32482 25.3864 5.02449 25.6867C4.72415 25.9871 4.24362 25.907 3.82315 25.5466C3.82315 25.5466 3.72304 25.8069 3.34261 25.9671C2.96219 26.1072 2.50167 25.7068 2.50167 25.7068C2.50167 25.7068 2.00112 25.907 1.5406 25.5866C1.06007 25.2663 1 24.2852 1 23.6645C1 23.0438 1.50056 22.2229 1.50056 22.2229C1.50056 22.2229 1.28031 22.0627 1.26029 21.6623C1.20022 20.8413 2.30145 20.4809 2.80201 20.3808Z" fill="white"/>
<path d="M5.1446 24.6855C5.12458 24.5454 5.06451 24.3852 5.00444 24.245C4.94438 24.1049 4.7842 23.9447 4.74415 23.8045C4.66407 23.6043 4.70411 23.4241 4.64404 23.2039C4.76418 23.3841 4.90433 23.5843 5.06451 23.7445C5.3248 24.0048 5.64516 24.185 5.96552 24.3652C5.96552 24.3652 5.98554 24.3652 5.98554 24.3852C5.82536 24.6054 5.44494 24.7456 5.1446 24.6855Z" fill="#E5DDDA"/>
<path d="M2.06135 20.6211C2.04133 20.6611 2.04133 20.6812 2.02131 20.7212C1.90117 21.1617 2.18149 21.4821 2.54189 21.6623C2.12142 21.7423 1.84111 21.9826 1.46068 22.1828C1.42064 22.0827 1.22041 21.8825 1.22041 21.7023C1.20039 21.1817 1.62086 20.8413 2.06135 20.6211Z" fill="#E5DDDA"/>
<path d="M1.34038 22.7632C1.3604 22.8433 1.38042 22.9234 1.40044 23.0035C1.42047 23.1036 1.40044 23.1837 1.40044 23.2638C1.40044 23.504 1.40044 23.7643 1.42047 24.0046C1.44049 24.4851 1.5406 25.0858 2.12125 25.2059C2.10123 25.1459 2.00111 24.8856 1.98109 24.8255C2.12125 24.9857 2.46163 25.1859 2.66185 25.266C2.86207 25.3461 3.0623 25.3661 3.28254 25.3661C3.46274 25.3661 3.56286 25.0858 3.68299 25.2259C3.4227 24.8856 3.2425 24.5051 3.12236 24.1047C3.32259 24.365 3.52281 24.6253 3.7831 24.8255C4.04339 25.0457 4.34373 25.1859 4.70413 25.2059C4.84428 25.2059 5.00446 25.1859 5.10457 25.0858C5.14462 25.0457 5.16464 25.0057 5.18466 24.9657C5.22471 25.2059 5.22471 25.5063 5.04451 25.6865C4.74417 25.9868 4.26364 25.9067 3.84317 25.5463C3.84317 25.5463 3.74306 25.8066 3.36263 25.9668C2.98221 26.1069 2.52169 25.7065 2.52169 25.7065C2.52169 25.7065 2.02114 25.9067 1.56062 25.5864C1.08009 25.266 1.02002 24.2849 1.02002 23.6642C1.02002 23.3238 1.16018 22.9234 1.30033 22.623C1.30033 22.6431 1.32035 22.7031 1.34038 22.7632Z" fill="#E5DDDA"/>
<path d="M2.80201 20.3808C3.32259 20.2807 3.7831 20.4008 3.98333 20.7612C4.18355 21.1417 4.10346 21.442 4.10346 21.442C4.10346 21.442 4.50391 21.5822 4.82427 22.1027C5.16464 22.6233 5.20469 23.224 5.44496 23.5243C5.68523 23.8046 6.02561 23.7846 6.06565 24.145C6.10569 24.5254 5.485 24.7857 5.08456 24.6656C5.08456 24.6656 5.32482 25.3864 5.02449 25.6867C4.72415 25.9871 4.24362 25.907 3.82315 25.5466C3.82315 25.5466 3.72304 25.8069 3.34261 25.9671C2.96219 26.1072 2.50167 25.7068 2.50167 25.7068C2.50167 25.7068 2.00112 25.907 1.5406 25.5866C1.06007 25.2663 1 24.2852 1 23.6645C1 23.0438 1.50056 22.2229 1.50056 22.2229C1.50056 22.2229 1.28031 22.0627 1.26029 21.6623C1.20022 20.8413 2.30145 20.4809 2.80201 20.3808Z" stroke="#3C3F1A" strokeWidth="0.7605" strokeMiterlimit="10" strokeLinecap="round" strokeLineJoin="round"/>
<path d="M4.10318 21.4418C4.10318 21.4418 3.5826 21.3617 3.04199 21.622" stroke="#3C3F1A" strokeWidth="0.7605" strokeMiterlimit="10" strokeLinecap="round" strokeLineJoin="round"/>
<path d="M1.48047 22.2027C1.48047 22.2027 1.92096 21.8823 2.2213 21.8223" stroke="#3C3F1A" strokeWidth="0.7605" strokeMiterlimit="10" strokeLinecap="round" strokeLineJoin="round"/>
<path d="M5.08453 24.6456C4.92435 24.3653 4.78419 23.8648 4.7041 23.7246" stroke="#3C3F1A" strokeWidth="0.7605" strokeMiterlimit="10" strokeLinecap="round" strokeLineJoin="round"/>
<path d="M4.68412 23.1038C4.68412 23.1038 4.80425 23.7245 4.44385 24.1249" stroke="#3C3F1A" strokeWidth="0.7605" strokeMiterlimit="10" strokeLinecap="round" strokeLineJoin="round"/>
<path d="M3.80278 25.5267C3.60256 25.3465 3.4624 24.9661 3.4624 24.9661" stroke="#3C3F1A" strokeWidth="0.7605" strokeMiterlimit="10" strokeLinecap="round" strokeLineJoin="round"/>
<path d="M2.50152 25.6868C2.50152 25.6868 2.28127 25.4466 2.14111 25.2063" stroke="#3C3F1A" strokeWidth="0.7605" strokeMiterlimit="10" strokeLinecap="round" strokeLineJoin="round"/>
<path d="M10.8708 23.0243C10.3102 23.1244 9.68947 23.3446 9.82963 23.8852C9.92974 24.2657 10.6706 24.9464 10.9509 25.2668C11.8519 26.348 13.5738 28.2701 14.3146 29.2712C15.0555 30.2724 16.2968 32.0143 16.2968 32.0143C16.2968 32.0143 17.2779 31.6939 17.9187 30.6328C17.9187 30.6328 16.9376 28.6906 15.4359 26.8686C14.2746 25.447 13.3536 24.526 12.4926 23.705C12.0922 23.3446 11.3914 22.9242 10.8708 23.0243Z" fill="#994B96"/>
<path d="M15.1558 26.5279C14.7353 25.8672 14.0546 27.6492 13.2937 27.3088C12.693 27.0285 11.9722 26.2476 11.4517 25.8472C12.3927 26.9484 13.6942 28.41 14.3149 29.251C15.0557 30.2521 16.2971 31.994 16.2971 31.994C16.2971 31.994 17.2782 31.6737 17.9189 30.6125C17.9189 30.6525 16.6174 28.35 15.1558 26.5279Z" fill="#813F7F"/>
<path d="M10.0298 24.2454C10.9308 25.3266 13.5537 28.2498 14.2945 29.271C15.0354 30.2721 16.2768 32.014 16.2768 32.014C16.2768 32.014 17.2578 31.6937 17.8986 30.6325C17.8986 30.6325 16.9175 28.6903 15.4158 26.8683C14.2545 25.4467 13.3335 24.5257 12.4725 23.7048C12.0721 23.3244 11.3713 22.9039 10.8507 23.004" stroke="#3C3F1A" strokeWidth="0.7605" strokeMiterlimit="10" strokeLinecap="round" strokeLineJoin="round"/>
<path d="M16.4575 31.3331C16.6778 32.074 17.1183 32.4744 18.1194 32.1741C19.1205 31.8737 19.2807 30.8326 20.2017 29.411C21.3229 27.629 21.343 25.3665 21.0026 24.7658C20.5621 23.9649 19.7812 24.045 19.2807 24.3253C18.1394 24.9861 17.3986 26.4877 17.0181 27.609C16.6377 28.7302 16.4575 31.3331 16.4575 31.3331Z" fill="#815C6B"/>
<path d="M16.4575 31.3331C16.6778 32.074 17.1183 32.4744 18.1194 32.1741C19.1205 31.8737 19.2807 30.8326 20.2017 29.411C21.3229 27.629 21.343 25.3665 21.0026 24.7658C20.5621 23.9649 19.7812 24.045 19.2807 24.3253C18.1394 24.9861 17.3986 26.4877 17.0181 27.609C16.6377 28.7302 16.4575 31.3331 16.4575 31.3331Z" stroke="#3C3F1A" strokeWidth="0.7605" strokeMiterlimit="10" strokeLinecap="round" strokeLineJoin="round"/>
<path d="M17.3984 25.7671C17.058 26.4078 16.8978 26.648 16.4173 27.2287C16.4173 27.2287 16.2971 27.1686 16.1169 27.1886C16.1169 27.1886 15.7966 26.8282 15.5763 26.7081C15.0357 26.4278 14.2749 27.7092 14.0146 28.3499C13.7543 28.9907 13.8945 29.1909 14.0546 29.3511C14.1748 29.4712 14.4951 29.8516 14.5352 29.9718C14.7354 30.6525 15.6164 31.2532 15.7365 31.4534C16.2771 32.3144 17.3383 32.2943 17.3383 32.2943C16.197 31.974 16.9178 30.6325 17.1781 30.172C17.999 28.7904 18.2794 27.9495 18.4395 26.8282C18.5196 26.2876 18.7198 25.747 18.88 25.2064C19.0202 24.7259 19.5007 24.2253 19.5007 24.2253C18.7999 24.4055 17.8389 24.9261 17.3984 25.7671Z" fill="#F2629E"/>
<path d="M18.6595 24.9861C18.219 25.4066 17.8787 25.9072 17.6784 26.4878C17.5783 26.7481 17.5183 27.0084 17.3781 27.2487C17.238 27.529 17.0177 27.7692 16.8375 28.0295C16.5372 28.47 16.3169 28.9706 15.9966 29.3911C15.7163 29.7515 15.2958 29.9917 14.8353 29.8115C14.4749 29.6714 14.2546 29.331 14.0744 29.0106C14.0144 28.9105 13.9543 28.7904 13.8942 28.6703C13.7941 29.0507 13.9142 29.2109 14.0344 29.351C14.1545 29.4711 14.4749 29.8516 14.5149 29.9717C14.7151 30.6525 15.5961 31.2531 15.7163 31.4534C16.2569 32.3143 17.318 32.2943 17.318 32.2943C16.1768 31.9739 16.8976 30.6324 17.1579 30.1719C17.9788 28.7904 18.2591 27.9495 18.4193 26.8282C18.4994 26.2876 18.6996 25.747 18.8598 25.2064C18.9399 24.9661 19.08 24.7259 19.2202 24.5457C19.0199 24.6658 18.8397 24.826 18.6595 24.9861Z" fill="#D9578E"/>
<path d="M17.3984 25.7671C17.058 26.4078 16.8978 26.648 16.4173 27.2287C16.4173 27.2287 16.2971 27.1686 16.1169 27.1886C16.1169 27.1886 15.7966 26.8282 15.5763 26.7081C15.0357 26.4278 14.2749 27.7092 14.0146 28.3499C13.7543 28.9907 13.8945 29.1909 14.0546 29.3511C14.1748 29.4712 14.4951 29.8516 14.5352 29.9718C14.7354 30.6525 15.6164 31.2532 15.7365 31.4534C16.2771 32.3144 17.3383 32.2943 17.3383 32.2943C16.197 31.974 16.9178 30.6325 17.1781 30.172C17.999 28.7904 18.2794 27.9495 18.4395 26.8282C18.5196 26.2876 18.7198 25.747 18.88 25.2064C19.0202 24.7259 19.5007 24.2253 19.5007 24.2253C18.7999 24.4055 17.8389 24.9261 17.3984 25.7671Z" stroke="#3C3F1A" strokeWidth="0.7605" strokeMiterlimit="10" strokeLinecap="round" strokeLineJoin="round"/>
<path d="M18.2793 24.806C17.8188 25.727 17.6386 27.3889 17.2982 28.1898C16.5774 29.8917 15.1758 31.7137 16.5574 32.1342C16.8577 32.2143 17.3182 32.2743 17.3182 32.2743C16.2971 31.994 16.8978 30.6125 17.1581 30.152C17.979 28.7704 18.2593 27.9295 18.4195 26.8082C18.4996 26.2676 18.6998 25.727 18.86 25.1864C19.0001 24.7059 19.4806 24.2053 19.4806 24.2053C19.1002 24.2654 18.7198 24.3255 18.2793 24.806Z" fill="white"/>
<path d="M18.2793 24.806C17.8188 25.727 17.6386 27.3889 17.2982 28.1898C16.5774 29.8917 15.1358 31.7337 16.5374 32.1542C16.8377 32.2343 17.3182 32.2743 17.3182 32.2743C16.3572 32.1141 16.8978 30.6125 17.158 30.152C17.979 28.7704 18.2593 27.9295 18.4195 26.8082C18.4995 26.2676 18.6998 25.727 18.8599 25.1864C19.0001 24.7059 19.4806 24.2053 19.4806 24.2053C19.0201 24.3455 18.7198 24.3255 18.2793 24.806Z" stroke="#3C3F1A" strokeWidth="0.7605" strokeMiterlimit="10" strokeLinecap="round" strokeLineJoin="round"/>
<path d="M16.5777 27.2086C16.5377 27.1084 16.5176 27.0083 16.4976 26.9483C16.4776 26.8481 16.0771 27.0083 16.0771 27.1485C16.0771 27.2286 16.0972 27.3287 16.1372 27.4288C16.2974 27.3888 16.4576 27.3087 16.5777 27.2086Z" fill="white"/>
<path d="M16.5777 27.2086C16.5377 27.1084 16.5176 27.0083 16.4976 26.9483C16.4776 26.8481 16.0771 27.0083 16.0771 27.1485C16.0771 27.2286 16.0972 27.3287 16.1372 27.4288C16.2974 27.3888 16.4576 27.3087 16.5777 27.2086Z" stroke="#3C3F1A" strokeWidth="0.7605" strokeMiterlimit="10" strokeLinecap="round" strokeLineJoin="round"/>
<path d="M16.6976 27.0887C16.8177 27.0086 16.9378 26.9285 17.058 26.8284C16.9779 26.7082 16.9178 26.6081 16.8978 26.5481C16.8778 26.488 16.4973 26.6682 16.5174 26.7883C16.5174 26.8884 16.5975 27.0286 16.6976 27.0887Z" fill="white"/>
<path d="M16.6976 27.0887C16.8177 27.0086 16.9378 26.9285 17.058 26.8284C16.9779 26.7082 16.9178 26.6081 16.8978 26.5481C16.8778 26.488 16.4973 26.6682 16.5174 26.7883C16.5174 26.8884 16.5975 27.0286 16.6976 27.0887Z" stroke="#3C3F1A" strokeWidth="0.7605" strokeMiterlimit="10" strokeLinecap="round" strokeLineJoin="round"/>
<path d="M17.1976 26.6881C17.2977 26.568 17.3577 26.4479 17.4178 26.3277C17.2977 26.2476 17.2176 26.1675 17.1575 26.1075C17.1175 26.0474 16.8171 26.3477 16.8572 26.4479C16.9172 26.548 17.0574 26.6481 17.1976 26.6881Z" fill="white"/>
<path d="M17.1976 26.6881C17.2977 26.568 17.3577 26.4479 17.4178 26.3277C17.2977 26.2476 17.2176 26.1675 17.1575 26.1075C17.1175 26.0474 16.8171 26.3477 16.8572 26.4479C16.9172 26.548 17.0574 26.6481 17.1976 26.6881Z" stroke="#3C3F1A" strokeWidth="0.7605" strokeMiterlimit="10" strokeLinecap="round" strokeLineJoin="round"/>
<path d="M17.6187 27.0886C17.6187 27.0886 17.7989 26.3078 18.5197 26.3878" stroke="#3C3F1A" strokeWidth="0.7605" strokeMiterlimit="10" strokeLinecap="round" strokeLineJoin="round"/>
<path d="M14.475 12.0116C14.475 11.8515 14.455 11.7113 14.4349 11.5912C14.3548 11.1907 13.7141 11.0706 13.3938 11.0706C13.2336 11.0706 13.0734 11.0506 12.7931 11.1707C12.6329 11.2508 12.4127 11.3309 12.3526 11.4911C12.2725 11.7113 12.3326 13.3131 12.8331 13.6935C13.0534 13.8537 13.2536 14.0339 13.6741 13.9538C13.7742 13.9338 13.9344 13.8136 14.0145 13.7736C14.4149 13.5333 14.515 12.5923 14.475 12.0116Z" fill="#3C3F1A"/>
<path d="M11.0712 13.1929C10.871 13.5533 10.3504 14.1139 9.24915 14.0138C8.24803 13.9137 8.10788 12.3319 8.26806 11.5911C8.36817 11.1306 9.04893 11.1306 9.50944 11.1106C9.86984 11.0906 11.0712 11.1506 11.2314 11.511C11.3515 11.7313 11.2714 12.8525 11.0712 13.1929Z" fill="#3C3F1A"/>
<path d="M14.5552 11.0906C14.2548 11.0506 13.9945 10.9304 13.2938 10.9705C12.8533 10.9905 12.2125 11.1306 12.1725 11.1306C12.1525 11.1306 12.1124 11.1507 12.0524 11.1707C11.8521 11.1907 11.6119 11.1507 11.4317 11.1507C11.3916 11.1507 10.6508 10.9504 9.80987 10.9705C8.30819 10.9705 7.64746 11.1707 7.56737 11.2308C7.56737 11.2308 6.70641 11.6312 5.94556 12.352C5.90551 12.392 5.86547 12.4321 5.82542 12.4721C5.70529 12.5522 5.52509 12.7524 5.52509 12.9527C5.52509 13.1329 5.46502 13.7736 5.48504 13.9938C5.48504 14.2141 5.6252 14.0539 5.72531 13.9338C5.8054 13.8136 5.86547 13.7135 5.86547 13.4733C5.86547 13.3731 5.88549 13.233 5.90551 13.0928C6.06569 12.9927 6.54623 12.7324 6.62632 12.5322C6.76647 12.1918 7.54734 11.7714 7.54734 11.7714C7.54734 11.7714 7.66748 11.8314 7.80763 11.9916C7.94779 12.1518 8.02788 12.8125 8.26815 13.3131C8.42833 13.6334 8.66859 14.0939 9.28929 14.154C11.3516 14.3542 11.4517 11.9916 11.4717 11.7914C11.4917 11.5912 11.732 11.5912 11.8722 11.6112C11.9923 11.6312 12.1325 11.6712 12.1525 11.7714C12.2125 11.9716 12.1525 14.1941 13.6341 14.0339C14.0946 13.9938 14.2748 13.6535 14.435 13.3731C14.6953 12.8926 14.6753 11.491 14.5552 11.0906ZM10.9111 13.1729C10.7309 13.5133 10.3304 14.0739 9.28929 13.9738C8.34824 13.8737 8.18806 12.372 8.34824 11.6712C8.44835 11.2508 9.08906 11.2508 9.52955 11.2308C9.86993 11.2107 10.9912 11.2708 11.1714 11.5912C11.2715 11.7914 11.0913 12.8325 10.9111 13.1729ZM13.9945 13.7335C13.8744 13.8337 13.7543 13.8537 13.6742 13.8737C13.2737 13.9338 13.0535 13.8136 12.8933 13.6334C12.4128 13.0728 12.3727 11.7914 12.4328 11.5711C12.4929 11.431 12.6731 11.3309 12.8332 11.2708C13.0935 11.1507 13.2537 11.1707 13.3939 11.1707C13.6942 11.1907 14.2748 11.2708 14.3549 11.6712C14.375 11.7914 14.395 11.9315 14.395 12.0717C14.435 12.5923 14.3549 13.4933 13.9945 13.7335Z" fill="#FBC629"/>
<path d="M9.82972 10.9505C10.6707 10.9505 11.3915 11.1307 11.4315 11.1307C11.5717 11.1307 11.7519 11.1707 11.912 11.1707C11.9521 11.1707 12.0122 11.1707 12.0522 11.1707C12.1123 11.1507 12.1523 11.1307 12.1723 11.1307C12.2124 11.1307 12.8731 10.9905 13.2936 10.9705C13.3937 10.9705 13.4738 10.9705 13.5539 10.9705C14.0745 10.9705 14.3147 11.0706 14.575 11.1106C14.6951 11.5111 14.7352 12.9127 14.4749 13.3932C14.3347 13.6935 14.1345 14.0139 13.674 14.0539C13.634 14.0539 13.5739 14.0539 13.5339 14.0539C12.2124 14.0539 12.2524 11.9516 12.1924 11.7714C12.1723 11.6913 12.0322 11.6312 11.912 11.6112C11.892 11.6112 11.852 11.6112 11.832 11.6112C11.6918 11.6112 11.5316 11.6312 11.5116 11.8114C11.4916 11.9916 11.3915 14.1741 9.54941 14.1741C9.46932 14.1741 9.38923 14.1741 9.30914 14.154C8.68845 14.094 8.44818 13.6335 8.288 13.3131C8.04774 12.7925 7.96765 12.1518 7.82749 11.9916C7.68733 11.8314 7.5672 11.7714 7.5672 11.7714C7.5672 11.7714 6.76631 12.1918 6.64617 12.5322C6.56608 12.7324 6.08555 12.9927 5.92537 13.0929C5.90535 13.233 5.88532 13.3732 5.88532 13.4733C5.88532 13.7135 5.82526 13.8137 5.74517 13.9338C5.6851 14.0139 5.62503 14.094 5.56497 14.094C5.54495 14.094 5.52492 14.0739 5.5049 13.9939C5.5049 13.7736 5.54495 13.1329 5.54495 12.9527C5.54495 12.7725 5.72515 12.5522 5.84528 12.4521C5.88533 12.4121 5.90535 12.372 5.96541 12.332C6.72626 11.5912 7.58722 11.2108 7.58722 11.2108C7.64729 11.1507 8.30803 10.9505 9.82972 10.9505ZM13.4938 13.8737C13.5539 13.8737 13.6139 13.8737 13.674 13.8537C13.7541 13.8337 13.9143 13.7336 13.9944 13.6735C14.3548 13.4533 14.4349 12.5723 14.4148 12.0317C14.4148 11.8915 14.3948 11.7514 14.3748 11.6312C14.3147 11.2508 13.7141 11.1507 13.4137 11.1307C13.3737 11.1307 13.3537 11.1307 13.3136 11.1307C13.1935 11.1307 13.0533 11.1507 12.8531 11.2308C12.6929 11.2908 12.5127 11.391 12.4526 11.5311C12.3726 11.7313 12.4326 13.233 12.9132 13.5934C13.0533 13.7336 13.2135 13.8737 13.4938 13.8737ZM9.50937 13.9338C10.3703 13.9338 10.7307 13.4533 10.8909 13.1529C11.0711 12.8125 11.2513 11.8114 11.1512 11.5912C11.011 11.3109 10.09 11.2308 9.64952 11.2308C9.58946 11.2308 9.54941 11.2308 9.50937 11.2308C9.06888 11.2508 8.42816 11.2708 8.32805 11.6713C8.18789 12.352 8.32805 13.8137 9.2691 13.9138C9.34919 13.9138 9.42928 13.9338 9.50937 13.9338ZM9.82972 10.7903C8.42816 10.7903 7.68733 10.9505 7.50713 11.0706C7.40702 11.1106 6.58611 11.5111 5.84528 12.2319C5.80524 12.2719 5.76519 12.312 5.72515 12.352C5.64506 12.4121 5.38477 12.6724 5.36474 12.9527C5.36474 13.0128 5.36474 13.1329 5.34472 13.253C5.3247 13.5133 5.30468 13.8537 5.3247 13.9939C5.34472 14.2341 5.48488 14.2541 5.52492 14.2541C5.62503 14.2541 5.72515 14.1741 5.82526 14.0339C5.92537 13.8937 5.98544 13.7536 6.00546 13.4933C6.00546 13.4332 6.02548 13.3131 6.0455 13.213C6.06553 13.213 6.06553 13.193 6.08555 13.193C6.38588 13.0128 6.68622 12.8125 6.76631 12.6123C6.8464 12.4121 7.26687 12.1318 7.54718 11.9716C7.58722 11.9916 7.64729 12.0517 7.70736 12.1118C7.7474 12.1718 7.80747 12.3921 7.86754 12.5723C7.9276 12.8125 8.02771 13.1329 8.14785 13.4132C8.288 13.6935 8.54829 14.2742 9.28912 14.3342C9.36921 14.3342 9.4493 14.3543 9.54941 14.3543C10.7508 14.3543 11.5116 13.4533 11.6518 11.8915C11.6518 11.8715 11.6518 11.8515 11.6518 11.8515C11.6518 11.8314 11.6518 11.7914 11.832 11.7914C11.852 11.7914 11.872 11.7914 11.892 11.7914C11.9921 11.8114 12.0322 11.8314 12.0522 11.8515C12.0522 11.8715 12.0522 11.9316 12.0722 11.9916C12.1123 12.5522 12.2524 14.2341 13.5339 14.2341C13.5739 14.2341 13.634 14.2341 13.694 14.2341C14.2747 14.1741 14.4949 13.7135 14.6151 13.4733C14.8754 12.9327 14.8353 11.4911 14.7152 11.0706C14.6952 11.0105 14.6551 10.9705 14.595 10.9705C14.535 10.9505 14.4749 10.9505 14.4148 10.9304C14.2146 10.8904 13.9743 10.8303 13.5739 10.8303C13.4938 10.8303 13.3937 10.8303 13.3136 10.8303C12.9532 10.8504 12.4727 10.9304 12.2524 10.9705C12.2124 10.9705 12.1924 10.9905 12.1723 10.9905C12.1523 10.9905 12.1123 11.0105 12.0522 11.0306C12.0122 11.0306 11.9921 11.0306 11.9521 11.0306C11.852 11.0306 11.7318 11.0306 11.6317 11.0105C11.5717 11.0105 11.5316 11.0105 11.4916 10.9905C11.4916 10.9905 11.4716 10.9905 11.4515 10.9905C10.8509 10.8504 10.3103 10.7903 9.82972 10.7903ZM13.4938 13.7336C13.2736 13.7336 13.1534 13.6335 13.0133 13.5333L12.9732 13.5133C12.5928 13.213 12.5127 11.8114 12.5728 11.6312C12.6128 11.5311 12.8131 11.451 12.8931 11.411C13.0733 11.3309 13.1935 11.3109 13.2936 11.3109C13.3336 11.3109 13.3537 11.3109 13.3937 11.3109C13.654 11.3109 14.1545 11.411 14.2146 11.6713C14.2346 11.7914 14.2547 11.9115 14.2547 12.0517C14.2947 12.6724 14.1746 13.3932 13.9143 13.5534C13.7741 13.6535 13.674 13.6935 13.654 13.7135C13.5939 13.7336 13.5539 13.7336 13.4938 13.7336ZM9.50937 13.7736C9.42928 13.7736 9.34919 13.7736 9.2691 13.7536C9.06888 13.7336 8.88867 13.6335 8.74852 13.4332C8.44818 13.0128 8.36809 12.1918 8.48823 11.6913C8.54829 11.411 9.06888 11.391 9.4493 11.3709H9.52939C9.56943 11.3709 9.60948 11.3709 9.64952 11.3709C10.2902 11.3709 10.931 11.5111 11.011 11.6512C11.0911 11.8114 10.951 12.7525 10.7708 13.0728C10.5105 13.5534 10.09 13.7736 9.50937 13.7736Z" fill="#3C3F1A"/>
<path d="M12.9729 11.4508C12.5724 11.5709 12.8728 12.7122 12.8728 12.7122C12.8728 12.7122 12.8527 12.1716 13.053 11.8112C13.2532 11.4307 13.8338 11.4307 13.8338 11.4307C13.8338 11.4307 13.5135 11.3106 12.9729 11.4508Z" fill="white"/>
<path d="M8.78867 11.6312C8.3682 11.7313 8.68856 12.8325 8.68856 12.8325C8.68856 12.8325 8.70858 12.4121 8.88878 12.0517C9.08901 11.6712 10.6908 11.6712 10.6908 11.6712C10.6908 11.6712 9.48945 11.451 8.78867 11.6312Z" fill="white"/>
<path d="M9.12891 15.3149C10.0099 16.236 12.3725 16.1559 13.8141 15.335" stroke="#3C3F1A" strokeWidth="0.7605" strokeMiterlimit="10" strokeLinecap="round" strokeLineJoin="round"/>
<path d="M9.90967 15.7959C9.90967 15.7959 10.3702 17.4778 11.7117 17.7982C12.873 18.0584 13.3936 16.5968 13.4336 15.5957C13.4336 15.5957 12.7729 15.9161 11.5715 16.0362C10.19 15.9962 9.90967 15.7959 9.90967 15.7959Z" fill="#3C3F1A"/>
<path d="M9.90967 15.7959C9.90967 15.7959 10.3702 17.4778 11.7117 17.7982C12.873 18.0584 13.3936 16.5968 13.4336 15.5957C13.4336 15.5957 12.7729 15.9161 11.5715 16.0362C10.19 15.9962 9.90967 15.7959 9.90967 15.7959Z" stroke="#3C3F1A" strokeWidth="0.7605" strokeMiterlimit="10" strokeLinecap="round" strokeLineJoin="round"/>
<path d="M11.9718 16.997C12.3722 16.977 12.6726 16.6967 12.9529 17.0972C12.6726 17.5577 12.2721 17.838 11.7115 17.6978C11.4712 17.6378 11.271 17.5176 11.0908 17.3775C11.271 16.937 11.6314 17.0171 11.9718 16.997Z" fill="#EB3743"/>
<path d="M8.94873 15.7357C8.94873 15.7357 8.96875 15.3953 9.32916 15.155" stroke="#3C3F1A" strokeWidth="0.7605" strokeMiterlimit="10" strokeLinecap="round" strokeLineJoin="round"/>
<path d="M10.8511 16.1363C11.1714 16.2564 12.1525 16.1563 12.4128 16.0762C12.6731 15.9961 12.7932 15.936 12.7932 15.936C12.7932 15.936 12.9134 16.3165 12.2927 16.4566C11.672 16.5968 11.1514 16.4967 11.0313 16.4566C10.8511 16.3765 10.8511 16.1363 10.8511 16.1363Z" fill="white"/>
</svg>
