<svg width="31" height="30" viewBox="0 0 31 30" fill="none" xmlns="http://www.w3.org/2000/svg">
<path d="M5.45422 29.8429C4.92399 29.8429 4.18445 29.5419 3.34725 28.981C1.91004 28.0234 1.11469 26.6007 1.01701 26.4366C1.01701 26.4366 1.01701 26.4229 1.00306 26.4229C0.947246 26.3408 0.654222 25.903 0.430967 25.3285C0.151897 24.5898 0.0960828 23.9605 0.291432 23.4543C0.417013 23.1397 0.598408 22.9208 0.835618 22.8114C0.835618 22.8114 0.849571 22.8114 0.849571 22.7977C1.11469 22.6336 1.36585 22.4968 1.60306 22.3873C2.00771 22.2095 2.38445 22.1274 2.73329 22.1274C3.65422 22.1274 4.3519 22.743 4.71469 23.8784C4.72864 23.9331 4.75655 24.0015 4.7705 24.0699C4.79841 24.152 4.82632 24.2478 4.85422 24.3299C4.86818 24.3846 4.91004 24.4119 4.96585 24.4256C4.9798 24.4256 4.9798 24.4256 4.99376 24.4256C5.03562 24.4256 5.07748 24.4119 5.10538 24.3709C5.14725 24.3299 5.18911 24.2888 5.23097 24.2615C5.32864 24.2067 5.42632 24.1657 5.5519 24.1657C5.64957 24.1657 5.7612 24.1794 5.87283 24.2204C5.94259 24.2478 6.02632 24.2751 6.11004 24.3299C6.13794 24.3435 6.1519 24.3435 6.1798 24.3435C6.22166 24.3435 6.24957 24.3299 6.27748 24.3025C7.71469 22.9619 9.13794 22.0043 10.0868 21.4434C10.2263 21.3613 10.3659 21.2792 10.4914 21.2108C10.5333 21.1835 10.5612 21.1424 10.5612 21.0877C10.5612 21.033 10.5333 20.992 10.4914 20.9646C9.26352 20.2943 8.45422 19.5693 7.99376 19.0768C7.71469 18.7758 7.57515 18.3791 7.60306 17.9687V17.955C7.60306 17.955 7.60306 17.955 7.60306 17.9414V17.9277C7.63097 17.6678 7.72864 17.4215 7.88213 17.2026C8.20306 16.7649 8.52399 16.3134 8.83097 15.862C8.85887 15.821 8.85887 15.7662 8.84492 15.7252C8.81701 15.6842 8.77515 15.6568 8.73329 15.6431C8.56585 15.6295 8.41236 15.5884 8.24492 15.5337C7.12864 15.1096 6.9612 13.5501 6.93329 13.085C6.93329 13.0166 6.87748 12.9619 6.82166 12.9482C6.54259 12.8935 6.31934 12.8114 6.19376 12.6883C6.01236 12.5241 5.9705 12.36 5.9705 12.2642C5.9705 12.1821 5.99841 12.1137 6.04027 12.0316C6.05422 11.9906 6.06818 11.9496 6.05422 11.9222C6.04027 11.8812 6.01236 11.8538 5.9705 11.8401C5.78911 11.758 5.60771 11.6623 5.45422 11.5255C4.60306 10.8141 4.65887 9.6103 4.72864 9.1315C4.88213 7.87295 6.01236 7.18896 6.68213 6.90168C7.25422 6.64176 7.86818 6.4776 8.51004 6.39552C8.67748 6.36817 8.85887 6.36817 9.02632 6.36817C9.1798 6.36817 9.31934 6.38185 9.45887 6.39552C9.87748 6.45024 10.2124 6.546 10.4635 6.69648C10.7147 6.84696 10.9379 7.12056 11.0914 7.4352C11.1891 7.66775 11.2031 7.95503 11.1472 8.31071C11.0635 8.83055 10.8821 9.32302 10.5891 9.77446C10.5752 9.78814 10.5752 9.80182 10.5612 9.8155C10.5333 9.85654 10.5333 9.89758 10.5472 9.93862C10.6449 10.2122 10.6589 10.4858 10.5612 10.732C10.4356 11.0604 10.1565 11.334 9.73794 11.5255C9.72399 11.5255 9.72399 11.5392 9.71004 11.5392L9.69608 11.5528C9.62631 11.5802 9.59841 11.6623 9.62631 11.7307C9.68213 11.8675 9.69608 12.0043 9.66818 12.1274C9.62632 12.3326 9.47283 12.4968 9.22166 12.6199C9.13794 12.6609 9.02631 12.702 8.91469 12.743C8.84492 12.7704 8.81701 12.8251 8.81701 12.8935C8.84492 13.0987 8.92864 13.4817 9.19376 13.7143C9.26352 13.769 9.34725 13.81 9.45887 13.81C9.7519 13.81 10.1147 13.5638 10.2682 13.4407C10.2682 13.4407 10.2821 13.4407 10.2821 13.427C10.31 13.4133 10.3379 13.3859 10.3519 13.3586C13.3938 7.96871 14.3147 2.87979 14.5798 0.937248C14.6217 0.622611 14.817 0.362693 15.0961 0.212214C15.2356 0.143815 15.3752 0.116455 15.5286 0.116455C15.6821 0.116455 15.8356 0.157495 15.9752 0.225894C15.9752 0.225894 15.9752 0.225894 15.9891 0.225894C18.0821 1.36133 19.8542 2.86611 21.2496 4.69922C22.3658 6.17665 23.2589 7.87295 23.8868 9.76078C23.9007 9.80182 23.9426 9.84286 23.9845 9.85654C23.9984 9.85654 24.0124 9.85654 24.0263 9.85654C24.0542 9.85654 24.0961 9.84286 24.11 9.82918C24.4728 9.5419 24.8496 9.28198 25.2124 9.0631C25.8124 8.70743 26.3705 8.44751 26.8868 8.32439C27.1798 8.25599 27.4449 8.21495 27.71 8.21495C28.031 8.21495 28.324 8.26967 28.6031 8.39279C29.1193 8.61167 29.4542 8.95366 29.6077 9.41878C29.817 10.0481 29.6217 10.7868 29.4263 11.2792C29.3984 11.3476 29.4263 11.416 29.4821 11.4571C29.7612 11.6212 29.9147 11.8675 29.9007 12.1684C29.8868 12.4284 29.7612 12.6883 29.5379 12.9208L29.524 12.9345C29.4821 12.9756 29.4682 13.0576 29.51 13.1124C29.6914 13.3996 30.0821 14.1931 29.6914 15.4106C29.4821 16.0535 29.0356 16.505 28.3798 16.7238C28.031 16.847 27.71 16.8606 27.5426 16.8606C27.5007 16.8606 27.4589 16.8743 27.431 16.9154C27.4031 16.9564 27.3752 16.9701 27.3612 16.9974C27.1938 17.1753 26.9565 17.3258 26.6914 17.3942C26.524 17.4489 26.3565 17.4762 26.1891 17.4762C25.9658 17.4762 25.631 17.4352 25.3658 17.2163C25.3519 17.2026 25.324 17.189 25.31 17.1753C25.2821 17.1479 25.2542 17.1342 25.2124 17.1342C25.1984 17.1342 25.1705 17.1342 25.1565 17.1479C25.1007 17.1753 25.0728 17.2163 25.0728 17.271C25.0728 17.8866 25.0589 18.4885 25.017 19.0631C25.0031 19.3093 24.9472 19.5556 24.8775 19.8018C24.8775 19.8018 24.8775 19.8018 24.8775 19.8155C24.8775 19.8155 24.8775 19.8155 24.8775 19.8292C24.8775 19.8292 24.8775 19.8292 24.8775 19.8429C24.7938 20.1028 24.6682 20.349 24.5286 20.5679C24.2914 20.9236 23.9984 21.2245 23.6356 21.4571H23.6217C23.524 21.5118 23.4403 21.5802 23.3426 21.6212C22.3379 22.1411 20.6077 22.7704 18.0821 22.7704C17.9565 22.7704 17.831 22.7704 17.7054 22.7704C17.6635 22.7704 17.6356 22.784 17.6077 22.8114C17.5798 22.8388 17.5658 22.8798 17.5658 22.9072C17.5519 23.769 17.7054 24.0289 17.831 24.111C17.9565 24.1794 18.0961 24.2204 18.2635 24.2204C18.3054 24.2204 18.3472 24.2204 18.3891 24.2067C18.4589 24.1931 18.5147 24.1383 18.5147 24.0563C18.5007 23.7553 18.6403 23.4133 19.0589 23.3723C19.1147 23.3723 19.1565 23.3586 19.1984 23.3586C19.2542 23.3586 19.324 23.3586 19.3798 23.3723C19.3938 23.3723 19.3938 23.3723 19.4077 23.3723C19.4496 23.3723 19.4775 23.3586 19.5054 23.3312C19.6031 23.2355 19.7565 23.1671 19.8961 23.1534C19.9519 23.1534 20.0077 23.1397 20.0496 23.1397C20.0775 23.1397 20.1054 23.1397 20.1333 23.1397C20.1333 23.1397 20.1333 23.1397 20.1472 23.1397C20.1612 23.1397 20.1612 23.1397 20.1752 23.1397C20.1752 23.1397 20.1752 23.1397 20.1891 23.1397H20.2031C20.217 23.1397 20.231 23.1534 20.2449 23.1534C20.3705 23.1671 20.4961 23.2081 20.6635 23.2628C20.9705 23.3996 21.1519 24.0152 21.2217 24.2204C21.4031 24.8634 21.4728 25.52 21.5147 26.0262C21.6124 27.3121 21.4449 28.3244 21.0403 29.0494C21.0403 29.0631 21.0263 29.0631 21.0263 29.0768C21.0124 29.1041 20.9984 29.1315 20.9705 29.1589C20.4124 29.6377 19.6728 29.8839 18.7658 29.8839C18.3333 29.8839 17.8868 29.8292 17.4124 29.7197C17.3286 29.7061 17.2449 29.6787 17.1472 29.665C17.1054 29.6513 17.0635 29.6513 17.0217 29.6377C16.9379 29.624 16.8542 29.5829 16.7984 29.5419C16.7007 29.4735 16.617 29.3504 16.6031 29.2273C16.6031 29.1999 16.5891 29.1862 16.5891 29.1589C16.5891 29.1452 16.5891 29.1315 16.5752 29.1178C16.5333 28.8442 16.5193 28.598 16.5612 28.3517C16.631 27.6814 17.0217 27.1206 17.5798 26.8606C17.831 26.7512 18.124 26.6828 18.417 26.6828H18.431C18.5007 26.6828 18.5565 26.6281 18.5705 26.5597C18.5845 26.4913 18.5984 26.4229 18.6263 26.3682C18.6542 26.3134 18.6403 26.2587 18.6124 26.2177C18.5705 26.1766 18.5426 26.1219 18.5147 26.0672C18.4868 26.0125 18.4449 25.9851 18.3752 25.9851H18.3612C18.2217 25.9988 18.0821 25.9988 17.9426 25.9988C17.4263 25.9988 16.7007 25.903 16.2124 25.4106C15.6403 24.836 15.6263 23.6459 15.7379 22.743C15.7519 22.6609 15.6961 22.5925 15.6124 22.5925C14.7333 22.4694 13.8961 22.2916 13.1007 22.059C13.0868 22.059 13.0728 22.059 13.0589 22.059C13.031 22.059 13.0031 22.0727 12.9752 22.0864C11.9845 22.784 10.017 24.2751 7.91004 26.3545C7.86818 26.3955 7.85422 26.4502 7.88213 26.505C7.92399 26.6281 7.9519 26.7375 7.96585 26.8333C7.99376 27.0932 7.89608 27.2437 7.81236 27.3258C7.68678 27.4489 7.51934 27.5036 7.40771 27.531C7.36585 27.5446 7.33794 27.5583 7.31004 27.5994C7.29608 27.6267 7.28213 27.6678 7.29608 27.7088C7.36585 27.9277 7.3519 28.1876 7.29608 28.4475C7.19841 28.8169 6.94724 29.1315 6.61236 29.3093C6.58445 29.323 6.5705 29.3367 6.55655 29.3641C6.41701 29.5966 6.13794 29.7334 5.92864 29.8018C5.91469 29.8018 5.91469 29.8018 5.90073 29.8155C5.85887 29.8429 5.81701 29.8565 5.7612 29.8702C5.64957 29.8292 5.5519 29.8429 5.45422 29.8429ZM26.3984 10.9099C26.0914 10.9099 25.5612 11.1561 24.8775 11.6349C24.7798 11.7033 24.6682 11.7854 24.5565 11.8675C24.5147 11.8948 24.4868 11.9496 24.5007 12.0043C24.5426 12.2095 24.5845 12.401 24.6263 12.5925C24.6403 12.6336 24.6542 12.6746 24.6961 12.6883C24.724 12.702 24.7379 12.702 24.7658 12.702C24.7798 12.702 24.8077 12.702 24.8217 12.6883C25.031 12.6062 25.2682 12.5515 25.5193 12.5241C25.5891 12.5104 25.6449 12.4694 25.6449 12.401C25.6449 12.36 25.6589 12.3326 25.6589 12.3052C25.7565 11.9085 25.9938 11.676 26.3845 11.5802C26.4821 11.5665 26.5798 11.5528 26.6775 11.5528C26.7054 11.5528 26.7193 11.5528 26.7472 11.5528C26.7891 11.5528 26.817 11.5392 26.8449 11.5118C26.8728 11.4844 26.8868 11.4434 26.8868 11.416C26.8868 11.1698 26.7612 10.992 26.524 10.9099C26.4961 10.9236 26.4542 10.9099 26.3984 10.9099Z" fill="#FF4856"/>
<path d="M15.1937 12.4557C14.496 12.1548 13.8263 12.1821 13.7007 12.5104C13.6867 12.5378 13.6867 12.5515 13.6867 12.5788C13.6449 12.4968 13.617 12.401 13.5891 12.3052C13.5612 12.2095 13.5612 12.1137 13.5891 12.0317C13.1286 11.9085 12.71 12.0043 12.5984 12.2779C12.4728 12.6062 12.8216 13.0576 13.3658 13.2902C13.6728 13.427 13.9798 13.4544 14.203 13.3996C14.1333 13.3449 14.0774 13.2765 14.0216 13.2081C14.203 13.3723 14.4402 13.5228 14.7193 13.6322C15.417 13.9332 16.0867 13.9058 16.2123 13.5775C16.3658 13.2628 15.8914 12.7567 15.1937 12.4557Z" fill="#AA263C"/>
<path d="M19.1477 13.3424C19.2356 12.9824 18.8633 12.5864 18.3163 12.458C17.7692 12.3296 17.2544 12.5174 17.1665 12.8774C17.0786 13.2374 17.4508 13.6334 17.9979 13.7618C18.545 13.8902 19.0598 13.7024 19.1477 13.3424Z" fill="#AA263C"/>
<path d="M7.89612 17.2163C7.89612 17.2163 10.0031 18.9673 14.3287 19.2546C18.6543 19.5556 21.9752 18.0508 21.9752 18.0508C21.9752 18.0508 22.6589 17.7361 22.9659 17.7772C23.2589 17.8319 24.2775 18.6937 24.5008 19.0084C24.724 19.323 24.724 19.8839 24.724 19.8839C24.724 19.8839 24.6682 20.7047 23.831 21.1698C22.9938 21.6349 21.6543 22.401 20.217 22.5515C18.7938 22.7019 17.5101 22.6472 17.5101 22.6472C17.5101 22.6472 17.5659 23.468 17.6217 23.7963C17.6775 24.1247 17.845 24.2615 17.845 24.2615C17.845 24.2615 17.9984 24.836 17.9566 25.137C17.9147 25.4379 17.7752 25.8483 17.7752 25.8483C17.7752 25.8483 16.4077 25.9851 15.9752 25.0002C15.5426 24.0152 15.7101 22.4967 15.7101 22.4967L13.1008 21.8948L10.1426 24.2341C10.1426 24.2341 9.83565 23.6459 9.47286 23.2081C9.09612 22.7703 8.64961 22.4967 8.64961 22.4967L10.7984 21.0193C10.7984 21.0193 9.05426 20.1028 8.49612 19.5282C7.93798 18.9537 7.65891 18.5569 7.67286 18.1055C7.67286 17.6814 7.89612 17.2163 7.89612 17.2163Z" fill="#21D372"/>
<path d="M7.9521 17.2573C7.9521 17.2573 7.65908 17.9003 7.75675 18.0508C7.85442 18.2012 10.5056 19.7607 13.1986 20.1164C15.8916 20.4721 18.1102 19.9796 19.6312 19.5966C21.1521 19.2135 22.0172 18.8168 22.3661 18.8032C22.7149 18.7895 23.2591 19.0494 23.6219 19.6376C23.9847 20.2259 23.9568 20.9372 23.9847 20.9372C24.0126 20.9372 24.487 20.5268 24.5986 20.1027C24.7102 19.6787 24.7242 19.4871 24.7102 19.364C24.6963 19.2409 24.0265 18.4338 23.6219 18.1192C23.2172 17.8045 22.6451 17.7224 22.6451 17.7224C22.6451 17.7224 18.3754 19.6239 14.6916 19.2683C11.0079 18.9126 7.9521 17.2573 7.9521 17.2573Z" fill="white"/>
<path d="M26.9564 11.6759C26.9564 11.6759 26.454 11.4434 26.0912 11.7717C25.7285 12.1 25.6447 12.5788 25.6447 12.5788C25.6447 12.5788 24.5285 12.5378 24.0122 13.2901C23.4959 14.0425 23.3843 14.7949 23.3843 14.7949C23.3843 14.7949 22.6587 15.3968 22.868 16.3955C23.0773 17.3941 24.361 17.3804 25.1564 17.0111C25.1564 17.0111 25.868 17.4352 26.5796 17.3257C27.2912 17.2163 27.5424 16.8332 27.5424 16.8332C27.5424 16.8332 29.3145 16.7238 29.6633 15.2327C30.0122 13.7416 29.454 13.0576 29.454 13.0576C29.454 13.0576 29.9005 12.6472 29.8447 12.1821C29.7889 11.717 29.4819 11.4434 29.4819 11.4434C29.4819 11.4434 29.1192 12.3736 28.0308 12.401C26.9424 12.4283 26.9564 11.9358 26.9564 11.6759Z" fill="white"/>
<path d="M6.16565 11.9769C6.16565 11.9769 5.77495 12.5788 6.41681 12.8387C7.05867 13.0986 8.27263 12.9482 8.88658 12.7293C9.50053 12.5104 9.62611 12.2778 9.59821 12.1547C9.58425 12.0316 9.48658 11.6486 9.48658 11.6486C9.48658 11.6486 10.0726 11.5391 10.3377 10.9372C10.6029 10.3353 10.4773 9.91122 10.4773 9.91122C10.4773 9.91122 11.7889 7.73612 10.5052 6.83324C9.22146 5.93037 7.12844 6.84692 6.29123 7.18892C5.45402 7.53092 4.561 8.55691 4.70053 9.59658C4.85402 10.6363 5.27263 11.2929 5.55169 11.5391C5.83076 11.7854 6.16565 11.9769 6.16565 11.9769Z" fill="white"/>
<path d="M6.30518 24.3981C6.30518 24.3981 6.77959 24.8769 7.22611 25.4241C7.67262 25.9713 7.78425 26.1902 7.78425 26.1902L9.58425 24.5213C9.58425 24.5213 9.01215 23.6594 8.62145 23.2627C8.23076 22.866 8.16099 22.825 8.16099 22.825L6.30518 24.3981Z" fill="white"/>
<path d="M18.2637 24.3025C18.2637 24.3025 18.4172 24.7266 18.4172 25.1643C18.4172 25.6021 18.3334 25.7936 18.3334 25.7936C18.3334 25.7936 18.7241 25.9167 18.9195 25.7252C19.1009 25.52 19.2962 25.0823 19.1986 24.7266C19.1009 24.3709 18.9893 24.2068 18.8776 24.1931C18.766 24.1657 18.2637 24.3025 18.2637 24.3025Z" fill="white"/>
<path d="M12.8914 11.3749C12.8914 11.3749 12.5286 10.5952 12.7379 9.6923C12.9472 8.78943 13.6588 8.33799 14.3286 8.37903C14.9984 8.42007 15.3472 9.15879 15.403 9.84278C15.4728 10.5268 15.0402 11.3749 15.0402 11.3749L14.0774 11.4433C14.0774 11.4433 13.2681 11.2655 12.8914 11.3749Z" fill="white"/>
<path d="M17.4823 11.8539C17.4823 11.8539 17.1475 11.3751 17.1475 10.4175C17.1614 9.45993 18.194 8.78961 18.8358 8.81697C19.4777 8.84433 19.9661 9.52832 19.9103 10.4586C19.8684 11.3888 19.2265 12.1412 19.2265 12.1412C19.2265 12.1412 18.1382 11.6487 17.4823 11.8539Z" fill="white"/>
<path d="M18.5426 2.81128C18.5426 2.81128 21.1239 5.1779 21.2635 10.8551C21.403 16.5322 18.6681 19.3366 12.1519 18.8167C12.1519 18.8167 13.6728 19.4597 16.7007 19.3366C19.7286 19.2135 22.6309 17.736 22.6309 17.736L22.8123 15.1369C22.8263 15.1369 22.5053 5.09582 18.5426 2.81128Z" fill="#AA263C"/>
<path d="M20.0913 3.48169C20.0913 3.48169 23.6494 6.77854 22.9518 14.9865L23.3843 14.8086C23.3843 14.8086 23.3006 14.2888 23.6215 13.7279C23.9425 13.1671 24.5564 12.8387 24.5564 12.8387C24.5564 12.8387 24.375 12.3052 24.5564 11.8811C24.7378 11.4571 25.9518 10.7868 26.3983 10.9235C27.2913 11.1971 27.6541 10.2259 27.0401 9.91124C26.2867 9.51452 24.2913 11.4023 23.9425 11.2655C23.5936 11.1287 23.5518 10.5952 23.775 10.3353C23.9983 10.0754 23.3006 8.24229 23.3006 8.24229C23.3006 8.24229 22.4215 5.178 20.0913 3.48169Z" fill="#AA263C"/>
<path d="M14.1335 15.3423C14.1335 15.3423 16.0032 16.2588 17.6916 15.5064C17.6916 15.5064 17.3846 16.3136 15.6962 16.423C14.0079 16.5324 14.1335 15.3423 14.1335 15.3423Z" fill="#AA263C"/>
<path d="M7.2959 14.371C7.2959 14.371 7.67264 15.1508 8.52381 15.055C9.38892 14.9592 9.37497 13.9606 9.37497 13.9606L10.2261 13.7007L9.04008 15.7116C9.04008 15.739 7.63078 15.438 7.2959 14.371Z" fill="#AA263C"/>
<path d="M0.542499 23.0849L1.78436 22.2778C1.78436 22.2778 2.78901 21.8401 3.3332 22.141C3.86343 22.442 4.58901 23.4543 4.60296 23.468C4.61692 23.4817 5.02157 24.6171 5.02157 24.6171C5.02157 24.6171 5.31459 23.9878 5.80296 24.1246C6.29134 24.2614 7.21227 25.2464 7.60296 25.9714C7.99366 26.6964 7.84017 27.0111 7.72855 27.2163C7.61692 27.4215 7.17041 27.4899 7.17041 27.4899C7.17041 27.4899 7.22622 28.0781 7.15645 28.4748C7.08669 28.8715 6.43087 29.364 6.38901 29.3914C6.34715 29.4187 5.95645 29.8565 5.27273 29.7607C4.60296 29.665 2.85878 28.8715 2.07738 27.9003C1.29599 26.929 0.361104 25.4242 0.263429 24.8907C0.151801 24.3435 0.277383 23.2628 0.542499 23.0849Z" fill="#9B6038"/>
<path d="M6.90527 24.8496C6.90527 24.8496 7.75644 25.2053 8.49597 24.8496C9.22155 24.4939 9.27737 24.0425 9.27737 24.0425L9.61225 24.617L7.85411 26.2586L6.90527 24.8496Z" fill="#C6C1B3"/>
<path d="M1.22607 22.4693C1.22607 22.4693 1.86793 22.2368 2.18886 22.4009C2.52375 22.5514 3.09584 22.9755 3.54235 23.9741C3.98886 24.9728 4.61677 26.5049 4.88189 26.8469C5.147 27.1889 6.1377 28.2149 6.48654 28.6116C6.83538 29.0083 6.37491 29.405 6.37491 29.405C6.37491 29.405 6.05398 28.8852 5.48189 28.338C4.90979 27.7908 4.18421 26.9837 3.86328 26.4639C3.54235 25.944 2.83073 23.8784 2.42607 23.3996C2.02142 22.9208 1.3377 22.7019 1.3377 22.7019L1.22607 22.4693Z" fill="white"/>
<path d="M3.20763 23.1534C3.20763 23.1534 4.04484 23.9878 4.22623 23.5364C4.40763 23.0713 3.86344 22.4283 3.31926 22.2095C2.77507 22.0043 2.0774 22.1274 2.1053 22.2095C2.13321 22.2915 3.20763 23.1534 3.20763 23.1534Z" fill="#D8A368"/>
<path d="M4.44531 24.1485C4.52726 24.1065 4.53871 23.9694 4.47087 23.8421C4.40304 23.7149 4.28161 23.6459 4.19966 23.6879C4.1177 23.7299 4.10626 23.867 4.1741 23.9943C4.24193 24.1215 4.36336 24.1905 4.44531 24.1485Z" fill="#D8A368"/>
<path d="M6.61543 25.7078C6.74661 25.5909 6.62189 25.2469 6.33685 24.9393C6.05181 24.6318 5.7144 24.4772 5.58322 24.5941C5.45204 24.7109 5.57677 25.055 5.86181 25.3625C6.14684 25.67 6.48425 25.8246 6.61543 25.7078Z" fill="#D8A368"/>
<path d="M0.500488 25.479C0.500488 25.479 1.07258 26.6418 2.77491 27.5173C4.47723 28.3928 4.9377 27.9414 4.9377 27.9414C4.9377 27.9414 6.08188 28.7348 6.23537 29.1999C6.38886 29.6651 5.83072 29.8566 5.10514 29.7745C4.37956 29.6924 1.7284 28.1739 0.500488 25.479Z" fill="#824F2C"/>
<path d="M4.65869 26.4364C4.65869 26.4364 5.69125 27.6813 6.26334 27.7634C6.83544 27.8455 7.10055 27.6129 6.9052 27.3119C6.70985 27.011 5.84474 25.944 5.84474 25.9166C5.85869 25.8892 6.76567 26.6964 7.12846 26.6553C7.4773 26.6143 7.46334 26.1355 7.32381 25.8072C7.18427 25.4788 7.11451 25.342 7.11451 25.342C7.11451 25.342 7.71451 26.0944 7.84009 26.5596C7.96567 27.0247 7.70055 27.353 7.56102 27.353C7.42148 27.353 7.2959 27.6266 7.2959 27.6266C7.2959 27.6266 7.4773 28.1054 7.26799 28.5021C7.05869 28.8988 6.59823 28.9672 6.59823 28.9672C6.59823 28.9672 6.61218 28.5979 6.04009 28.1601C5.46799 27.7223 4.65869 26.4364 4.65869 26.4364Z" fill="#824F2C"/>
<path d="M18.7657 26.1903L18.5843 26.6143C18.5843 26.6143 17.4122 26.7511 17.0215 27.1889C16.6169 27.6267 16.6308 28.981 16.7006 29.1451C16.7704 29.3093 16.9099 29.5008 17.0215 29.5282C17.1331 29.5555 18.9052 29.9249 19.7703 29.5692C20.6355 29.2135 20.9285 28.9946 21.1099 28.6937C21.2773 28.3927 21.4866 27.1205 21.389 26.0808C21.2913 25.0275 20.9983 23.5911 20.7331 23.3722C20.468 23.1396 19.9936 23.167 19.9099 23.167C19.8262 23.167 19.4215 23.3996 19.4215 23.3996C19.4215 23.3996 18.9052 23.3038 18.7517 23.55C18.6122 23.7963 18.6262 24.1656 18.6262 24.1656C18.6262 24.1656 18.9192 24.0699 19.1145 24.4529C19.3099 24.8496 19.2541 25.5336 19.0866 25.7662C18.9192 25.9987 18.4587 25.8756 18.4587 25.8756L18.7657 26.1903Z" fill="#9B6038"/>
<path d="M18.3052 25.1917C18.3052 25.1917 18.4308 25.438 18.7656 25.4106C19.1005 25.3833 19.1703 25.0413 19.1703 25.0413C19.1703 25.0413 19.1982 25.3149 19.0168 25.5748C18.8354 25.8347 18.347 25.8621 18.347 25.8621L18.3191 25.8484L18.3052 25.1917Z" fill="#C6C1B3"/>
<path d="M16.7287 28.803C16.7287 28.803 18.2217 29.1724 19.3798 28.8714C20.5519 28.5705 20.6496 28.0233 20.7612 27.6402C20.8728 27.2572 20.9845 26.5458 20.9007 25.4514C20.817 24.3571 20.3007 23.29 20.3007 23.29C20.3007 23.29 20.8031 23.2353 20.9287 23.4679C21.0542 23.7004 21.6263 25.1095 21.5287 26.4638C21.431 27.8181 21.3612 28.6936 20.9007 28.9809C20.4403 29.2681 19.4775 29.8153 18.4031 29.7196C17.3287 29.6238 16.8263 29.5417 16.7566 29.3365C16.7007 29.1313 16.7287 28.803 16.7287 28.803Z" fill="white"/>
<path d="M18.1493 28.1313C18.6722 28.0972 19.0783 27.8068 19.0563 27.4827C19.0344 27.1585 18.5927 26.9233 18.0698 26.9574C17.5469 26.9914 17.1409 27.2818 17.1628 27.606C17.1848 27.9301 17.6265 28.1653 18.1493 28.1313Z" fill="#D8A368"/>
<path d="M19.7754 25.1903C19.9062 25.1818 19.9972 24.9549 19.9788 24.6835C19.9604 24.4121 19.8396 24.199 19.7089 24.2075C19.5781 24.216 19.4871 24.4429 19.5055 24.7143C19.5239 24.9857 19.6447 25.1988 19.7754 25.1903Z" fill="#D8A368"/>
<path d="M19.8716 25.4368C19.9005 25.3271 19.8574 25.2212 19.7754 25.2004C19.6933 25.1796 19.6033 25.2517 19.5744 25.3614C19.5454 25.4711 19.5885 25.5769 19.6706 25.5977C19.7526 25.6185 19.8426 25.5465 19.8716 25.4368Z" fill="#D8A368"/>
<path d="M19.2123 25.6021C19.2123 25.6021 19.003 26.0672 19.4356 26.0535C19.8542 26.0261 19.9937 25.7525 19.9937 25.7525C19.9937 25.7525 19.8542 26.2176 19.3937 26.2724C18.9333 26.3271 18.7379 26.3134 18.696 26.1903C18.6542 26.0672 18.5146 25.862 18.5146 25.862L19.2123 25.6021Z" fill="#824F2C"/>
<path d="M16.8404 27.9138C16.8404 27.9138 16.6729 28.762 18.2078 28.7483C19.7427 28.7483 20.1892 28.0233 20.1334 27.5445C20.0776 27.0657 20.5939 27.353 20.5939 27.8454C20.5939 28.3379 20.3566 28.4747 19.7287 28.762C19.1148 29.0493 18.4869 29.0219 18.0264 28.9809C17.5659 28.9398 16.7148 28.7483 16.7148 28.7483C16.7148 28.7483 16.6311 28.2422 16.8404 27.9138Z" fill="#824F2C"/>
<path d="M18.1659 10.7868C18.1659 10.7868 18.1101 11.594 18.5427 11.8539C18.9752 12.1138 19.352 12.1138 19.4078 11.9086C19.4636 11.7034 19.7008 11.3477 19.5752 11.1152C19.4357 10.8826 18.3194 10.65 18.1659 10.7868Z" fill="#218A61"/>
<path d="M13.7287 10.3217C13.7287 10.3217 13.617 10.8005 13.7705 11.1014C13.924 11.4024 14.2449 11.4297 14.3566 11.4434C14.4682 11.4434 15.0263 11.2382 15.0263 11.2108C15.0263 11.1972 15.2356 10.7731 14.9287 10.5269C14.6356 10.2806 13.7287 10.3217 13.7287 10.3217Z" fill="#218A61"/>
<path d="M8.99854 22.7841C8.99854 22.7841 10.1148 23.1535 11.3706 22.2916C12.6264 21.4298 13.3241 20.8142 13.7148 20.8142C14.1055 20.8142 14.0357 21.252 13.8962 21.3888C13.7567 21.5392 15.2776 22.0454 15.9613 21.7034L15.6404 22.4284L13.1288 21.9907L10.0171 24.07C10.0311 24.07 9.36133 23.1808 8.99854 22.7841Z" fill="#218A61"/>
<path d="M15.9194 24.7538C15.9194 24.7538 16.3939 25.4789 17.1194 25.0548C17.845 24.6307 17.6357 24.0562 17.6357 24.0562L17.9148 24.1109C17.9148 24.1109 18.0962 24.7538 17.9566 25.3147C17.8171 25.8756 17.5939 25.8482 17.4962 25.8209C17.3845 25.8072 16.3101 25.5883 15.9194 24.7538Z" fill="#218A61"/>
<path d="M17.6912 21.6486C17.6912 21.6486 18.7517 22.2095 21.0401 21.8265C23.3284 21.4434 23.8029 20.4858 23.8029 20.4858C23.8029 20.4858 24.0122 20.9646 23.4959 21.3477C22.9796 21.7307 22.0168 22.0043 20.9424 22.3737C19.868 22.743 18.1657 22.6609 18.1657 22.6609H17.4819L17.6912 21.6486Z" fill="#218A61"/>
<path d="M8.88672 19.6924C8.88672 19.6924 10.4356 20.5132 11.8309 20.5405L10.8402 21.0193C10.8402 21.0193 9.59835 20.308 8.88672 19.6924Z" fill="#218A61"/>
<path d="M13.9102 20.267C13.9102 20.267 14.2032 20.5269 14.3009 20.7458C14.3985 20.9647 14.4125 21.1562 14.4683 21.2383C14.5241 21.3203 14.8869 21.4982 14.9148 21.5666C14.9427 21.635 14.8869 21.8402 14.9567 21.9633C15.0264 22.0864 15.4171 22.2642 15.4311 22.2642C15.445 22.2642 15.9195 21.977 15.8916 21.8538C15.8636 21.7307 15.4171 21.4571 15.4311 21.1562C15.445 20.8552 15.6822 20.9236 15.4729 20.6363C15.2636 20.3491 15.1241 20.2807 15.0264 20.2533C14.9288 20.2259 13.9102 20.267 13.9102 20.267Z" fill="#218A61"/>
<path d="M17.1191 20.349C17.1191 20.349 18.068 21.0056 18.1517 21.2656C18.2354 21.5255 17.9703 21.4844 18.2494 21.6349C18.5284 21.7991 18.4168 21.7307 18.7936 21.9222C19.1703 22.1 19.547 22.3189 19.7284 22.3326C19.9098 22.3463 20.8726 22.2642 21.0261 22.1548C21.1796 22.0316 20.6354 21.6486 20.4122 21.5392C20.1889 21.4297 19.6726 21.3613 19.6168 21.2656C19.561 21.1698 19.6447 21.1288 19.4912 20.9509C19.3377 20.7731 19.0308 20.6226 18.8354 20.4858C18.6401 20.349 18.054 20.1165 18.054 20.1165L17.1191 20.349Z" fill="#218A61"/>
<path d="M9.91943 19.3503C9.91943 19.3503 10.2125 19.5966 10.2404 19.7334C10.2543 19.8702 10.2404 19.8839 10.3241 20.007C10.4078 20.1301 10.4776 20.1711 10.5055 20.2532C10.5334 20.3353 10.659 20.4858 10.6869 20.5405C10.7148 20.5952 11.1752 20.6636 11.1752 20.6636L11.245 20.5815C11.245 20.5815 11.4125 20.6363 11.4125 20.6089C11.4125 20.5815 11.0776 20.2122 11.0357 20.1027C10.9939 20.007 10.9799 19.9112 10.9101 19.8018C10.8404 19.6923 10.7287 19.5829 10.6729 19.5555C10.6171 19.5282 9.91943 19.3503 9.91943 19.3503Z" fill="#218A61"/>
<path d="M20.4819 19.5008C20.4819 19.5008 20.8866 20.1574 21.3331 20.2669C21.7657 20.3763 21.9052 20.5952 22.0029 20.732C22.1005 20.8688 22.561 21.1424 22.6726 21.1697C22.7843 21.1971 22.854 21.2655 23.1889 21.3613C23.5238 21.457 23.9843 21.0877 23.9843 21.0877C23.9843 21.0877 23.9564 20.8825 23.775 20.8277C23.5936 20.773 22.7982 20.4857 22.6726 20.3216C22.547 20.1574 22.2401 19.9249 21.947 19.6923C21.654 19.4461 21.361 19.2956 21.2354 19.2819C21.1238 19.2545 20.4819 19.5008 20.4819 19.5008Z" fill="#218A61"/>
<path d="M13.8403 10.5405L14.1752 10.5679C14.1752 10.5679 14.245 11.0604 14.6636 11.1424C14.6636 11.1424 14.4822 11.2792 14.1892 11.1698C13.9241 11.0604 13.8543 10.7184 13.8403 10.5405Z" fill="#21D372"/>
<path d="M18.3892 11.0603L18.724 11.0877C18.724 11.0877 18.7938 11.5801 19.2124 11.6622C19.2124 11.6622 19.031 11.799 18.738 11.6896C18.4589 11.5801 18.3892 11.2518 18.3892 11.0603Z" fill="#21D372"/>
<path d="M16.4564 5.02333C16.5175 4.70405 16.4259 4.41923 16.2517 4.38717C16.0775 4.35511 15.8867 4.58795 15.8255 4.90723C15.7644 5.22652 15.8561 5.51134 16.0303 5.5434C16.2045 5.57546 16.3952 5.34262 16.4564 5.02333Z" fill="#AA263C"/>
<path d="M17.8821 6.21206C17.8984 5.88757 17.7682 5.61758 17.5911 5.60901C17.4141 5.60044 17.2574 5.85654 17.241 6.18103C17.2247 6.50551 17.3549 6.7755 17.532 6.78407C17.709 6.79264 17.8658 6.53654 17.8821 6.21206Z" fill="#AA263C"/>
<path d="M11.6195 15.759C11.7411 15.4568 11.706 15.1601 11.5412 15.0963C11.3763 15.0325 11.1441 15.2258 11.0224 15.528C10.9008 15.8302 10.9359 16.1269 11.1008 16.1907C11.2656 16.2544 11.4979 16.0612 11.6195 15.759Z" fill="#AA263C"/>
<path d="M16.3596 16.9426C16.4441 16.6285 16.3737 16.3379 16.2024 16.2936C16.031 16.2492 15.8235 16.4679 15.739 16.7821C15.6545 17.0962 15.7249 17.3868 15.8962 17.4311C16.0676 17.4754 16.2751 17.2567 16.3596 16.9426Z" fill="#AA263C"/>
<path d="M15.3352 17.9067C15.4197 17.5926 15.3493 17.302 15.178 17.2577C15.0066 17.2133 14.7991 17.4321 14.7146 17.7462C14.6301 18.0603 14.7005 18.3509 14.8718 18.3952C15.0432 18.4395 15.2507 18.2208 15.3352 17.9067Z" fill="#AA263C"/>
<path d="M20.6726 15.166C20.7571 14.8519 20.6867 14.5613 20.5154 14.517C20.344 14.4726 20.1365 14.6913 20.052 15.0055C19.9675 15.3196 20.0379 15.6102 20.2092 15.6545C20.3806 15.6988 20.5881 15.4801 20.6726 15.166Z" fill="#AA263C"/>
<path d="M24.9333 17.1754C24.9194 17.1754 24.7101 17.3395 24.1101 17.2985C23.4961 17.2574 22.924 16.6418 22.924 16.6418L22.6729 17.6815C22.6729 17.6815 23.5519 17.9004 23.9845 18.3655C24.417 18.8306 24.7659 19.2684 24.7659 19.2684C24.7659 19.2684 24.9333 18.4613 24.9333 18.2971C24.9473 18.133 24.9333 17.5174 24.9333 17.5174V17.1754Z" fill="#AA263C"/>
<path d="M17.6777 2.77025C17.1754 2.23674 16.5056 1.62114 15.6684 1.12867C15.5568 1.06027 15.4172 1.12867 15.4033 1.25178C15.3196 2.11362 14.9707 4.918 14.0917 7.35302C14.0637 7.44877 14.1196 7.55821 14.2172 7.57189C14.6917 7.65397 15.8777 7.99597 16.2265 9.18612C16.2684 9.32292 16.4637 9.35028 16.5335 9.22716C16.7707 8.81676 17.2312 8.20117 17.901 7.81813C18.0126 7.74973 17.9847 7.57189 17.8451 7.55821C17.594 7.51717 17.3289 7.43509 17.1056 7.25726C16.687 6.92894 16.5893 6.57326 16.5754 6.31334C16.5754 6.19022 16.4358 6.10815 16.3103 6.17654C15.9614 6.36806 15.4312 6.45014 15.2358 5.32839C14.9986 3.97408 15.8637 2.51033 16.9382 2.83865C17.1196 2.89337 17.287 2.96177 17.4405 3.03017C17.6498 3.12593 17.8172 2.92073 17.6777 2.77025Z" fill="#FF9596"/>
<path d="M18.3099 5.1455C18.5787 5.03173 18.6382 4.57961 18.4428 4.13568C18.2473 3.69175 17.8709 3.42411 17.602 3.53789C17.3332 3.65166 17.2737 4.10377 17.4691 4.5477C17.6646 4.99164 18.041 5.25928 18.3099 5.1455Z" fill="#FF9596"/>
<path d="M19.0931 16.2447C19.2862 15.9623 19.3027 15.6413 19.1298 15.5278C18.957 15.4142 18.6604 15.551 18.4673 15.8334C18.2742 16.1158 18.2578 16.4368 18.4306 16.5504C18.6034 16.664 18.9001 16.5271 19.0931 16.2447Z" fill="#FF9596"/>
<path d="M18.2029 16.9018C18.2931 16.77 18.2727 16.6018 18.1575 16.5261C18.0423 16.4504 17.8758 16.4958 17.7857 16.6276C17.6956 16.7594 17.716 16.9276 17.8312 17.0033C17.9464 17.079 18.1128 17.0336 18.2029 16.9018Z" fill="#FF9596"/>
<path d="M14.6934 12.1133C15.1168 12.0949 15.4529 11.9209 15.444 11.7246C15.4351 11.5284 15.0846 11.3842 14.6612 11.4027C14.2378 11.4211 13.9017 11.5951 13.9106 11.7914C13.9195 11.9876 14.27 12.1317 14.6934 12.1133Z" fill="#FF9596"/>
<path d="M13.2638 11.8945C13.541 11.8824 13.7612 11.7748 13.7557 11.654C13.7503 11.5332 13.5212 11.4451 13.244 11.4572C12.9669 11.4692 12.7466 11.5769 12.7521 11.6977C12.7576 11.8184 12.9867 11.9065 13.2638 11.8945Z" fill="#FF9596"/>
<path d="M17.8961 12.3459C18.1733 12.3338 18.3935 12.2262 18.3881 12.1054C18.3826 11.9846 18.1535 11.8965 17.8763 11.9086C17.5992 11.9206 17.3789 12.0283 17.3844 12.1491C17.3899 12.2698 17.619 12.358 17.8961 12.3459Z" fill="#FF9596"/>
<path d="M18.7943 6.00349C18.9358 5.94361 18.9935 5.76573 18.9233 5.6062C18.8531 5.44666 18.6814 5.36587 18.5399 5.42575C18.3984 5.48564 18.3406 5.66351 18.4109 5.82305C18.4811 5.98259 18.6528 6.06337 18.7943 6.00349Z" fill="#FF9596"/>
<path d="M20.0516 8.43464C20.1931 8.37476 20.2509 8.19688 20.1806 8.03735C20.1104 7.87781 19.9387 7.79702 19.7972 7.85691C19.6557 7.91679 19.598 8.09466 19.6682 8.2542C19.7384 8.41374 19.9101 8.49452 20.0516 8.43464Z" fill="#FF9596"/>
<path d="M20.2929 8.99437C20.3778 8.95844 20.412 8.85059 20.3692 8.75348C20.3265 8.65637 20.223 8.60678 20.1381 8.64271C20.0532 8.67864 20.019 8.78649 20.0618 8.8836C20.1045 8.98071 20.208 9.0303 20.2929 8.99437Z" fill="#FF9596"/>
<path d="M11.2029 13.5227C10.7703 14.3298 10.0587 15.5747 9.17961 16.7649C9.13775 16.8196 9.15171 16.8743 9.20752 16.9153C9.62612 17.1753 11.454 18.2286 13.7285 18.2012C13.7843 18.2012 13.8261 18.1602 13.8401 18.0918C13.8401 17.8592 13.8959 17.271 14.3564 16.9701C14.4261 16.929 14.4261 16.8333 14.3564 16.7922C14.0912 16.6144 13.5331 16.1629 13.268 15.3421C13.254 15.3011 13.2261 15.2737 13.1843 15.2737C13.0447 15.2464 12.6819 15.1506 12.4029 14.795C12.3471 14.7266 12.2494 14.7539 12.2215 14.836C12.0819 15.3285 11.6633 16.4502 11.0075 16.4776C10.3936 16.4913 11.0354 14.7539 11.3982 13.5911C11.4401 13.4817 11.2726 13.4133 11.2029 13.5227Z" fill="#FF9596"/>
<path d="M12.3947 13.7559C12.4838 13.4587 12.4062 13.1746 12.2214 13.1213C12.0366 13.0681 11.8145 13.2658 11.7254 13.563C11.6362 13.8602 11.7138 14.1443 11.8986 14.1976C12.0835 14.2508 12.3056 14.0531 12.3947 13.7559Z" fill="#FF9596"/>
<path d="M12.9587 14.5406C13 14.4029 12.9376 14.2636 12.8193 14.2295C12.701 14.1954 12.5717 14.2794 12.5304 14.4171C12.4891 14.5549 12.5515 14.6941 12.6698 14.7282C12.7881 14.7624 12.9174 14.6784 12.9587 14.5406Z" fill="#FF9596"/>
<path d="M29.2695 9.33314C29.3527 9.06579 28.9302 8.70246 28.3259 8.52162C27.7215 8.34078 27.1641 8.41091 27.0809 8.67826C26.9976 8.94562 27.4201 9.30895 28.0245 9.48979C28.6288 9.67063 29.1862 9.6005 29.2695 9.33314Z" fill="#FF9596"/>
<path d="M8.31574 14.9769C8.49738 14.8367 8.45138 14.4824 8.21298 14.1856C7.97459 13.8888 7.63408 13.7619 7.45243 13.9021C7.27079 14.0423 7.31679 14.3966 7.55519 14.6934C7.79358 14.9902 8.13409 15.1172 8.31574 14.9769Z" fill="#FF9596"/>
<path d="M8.23093 11.6759C8.23093 11.6759 8.03558 11.7443 7.96582 11.3612C7.89605 10.9782 7.99372 10.7046 7.99372 10.7046L7.65884 10.6088C7.79837 10.6362 7.99372 10.6362 8.25884 10.5815C8.88675 10.4447 8.97047 10.1711 8.98442 10.1574C8.99837 10.1437 9.51465 10.2668 10.1844 10.0616C10.8542 9.85643 10.8542 8.9946 10.8542 8.9946C10.8542 8.9946 10.1007 9.25451 9.83558 9.1998C9.57047 9.14508 9.66814 8.74836 9.54256 8.25588C9.43093 7.77709 8.83093 7.85917 8.77512 7.91389C8.7193 7.9686 8.94256 8.35164 8.94256 8.35164C8.94256 8.35164 9.05419 8.98092 8.91465 9.1998C8.78907 9.40499 8.23093 9.50075 8.06349 9.35027C7.86814 9.17244 7.86814 8.5158 7.54721 8.26956C7.22628 8.00964 7.03093 8.20116 7.03093 8.22852C7.03093 8.25588 7.26814 9.28187 7.26814 9.28187C7.26814 9.28187 7.24024 9.52811 7.00303 9.65123C6.75186 9.77435 6.19372 9.81539 6.09605 9.43235C5.99837 9.04932 5.51 8.91252 5.51 8.91252C5.51 8.91252 5.14721 9.62387 5.37047 10.5131C5.63558 11.5391 6.17977 11.799 6.84954 11.9084C7.5193 12.0179 8.23093 11.6759 8.23093 11.6759ZM7.42163 10.5267L7.35186 10.5131C7.36582 10.4994 7.37977 10.5131 7.42163 10.5267ZM6.44489 11.0192C6.43093 11.0192 6.41698 11.0055 6.40303 11.0055C6.48675 10.9919 6.58442 10.9782 6.71 10.9645C6.84954 10.9508 6.94721 10.9235 7.04489 10.8824C6.87744 11.0055 6.66814 11.1013 6.44489 11.0192Z" fill="#C6C1B3"/>
<path d="M9.47286 11.6074C9.4589 11.6074 7.631 11.7853 7.4496 12.0178C7.4496 12.0178 8.4403 11.7989 8.49611 12.2641C8.55193 12.7292 7.26821 12.8386 6.91937 12.8249C6.58448 12.8113 7.78448 13.0849 8.62169 12.7565C9.47286 12.4282 9.59844 12.4145 9.61239 12.1957C9.62635 11.9768 9.47286 11.6074 9.47286 11.6074Z" fill="#C6C1B3"/>
<path d="M9.93321 10.212C9.47275 10.2804 9.02623 10.171 9.02623 10.171L8.62158 10.6635C8.62158 10.6635 9.41693 10.3488 9.64019 10.7182C9.86344 11.1012 9.41693 11.5527 8.76112 11.6074C8.76112 11.6074 9.3053 11.6895 9.93321 11.3611C10.5472 11.0465 10.5751 10.513 10.589 10.4172C10.603 10.3215 10.4355 10.0068 10.4355 10.0068C10.4355 10.0068 10.3937 10.1436 9.93321 10.212Z" fill="#C6C1B3"/>
<path d="M27.3614 13.5639C28.4777 13.6733 28.8265 13.1671 28.8265 13.1671C27.8637 13.5091 26.7893 13.2766 26.7335 12.8251C26.6777 12.3737 27.1939 12.4011 27.1939 12.4011C26.9288 12.2232 26.7474 11.676 26.7474 11.676C26.7474 11.676 25.9381 11.7855 25.7428 12.018C25.5474 12.2506 25.6311 12.4831 25.659 12.702C25.687 12.9346 26.2451 13.4681 27.3614 13.5639Z" fill="#C6C1B3"/>
<path d="M28.6172 16.4229C28.2963 16.5187 28.2126 16.3135 28.1149 15.9168C28.1149 15.8894 28.101 15.8621 28.087 15.8347C28.0312 15.6569 27.7661 15.6842 27.7382 15.8621C27.7242 15.9989 27.6824 16.1767 27.6126 16.3545C27.4033 16.8744 27.2358 17.1753 26.6358 17.1343C26.0219 17.0796 26.3986 16.7649 26.4545 16.0809C26.4684 15.9578 26.4545 15.8484 26.4405 15.7663C26.3986 15.5201 26.0498 15.4927 25.9661 15.7253C25.8963 15.9305 25.7707 16.1767 25.5754 16.4366C25.0591 17.0932 24.4731 16.8333 24.3196 16.5734C24.1661 16.3135 24.3196 15.9305 24.3196 15.9305C24.8777 15.3559 24.8498 14.3846 24.8498 14.3846C24.8638 13.7827 24.5986 13.4134 24.2777 13.6733C23.9568 13.9469 23.6219 14.5898 23.6219 14.5898C23.6219 14.5898 23.3568 14.754 23.0777 14.8771C22.7847 15.0002 22.7568 15.5064 22.7986 16.2451C22.8405 16.9838 23.3289 17.1069 23.9428 17.3258C24.5707 17.5584 25.1568 17.0112 25.1986 17.0385C25.2405 17.0659 25.7149 17.3258 26.3428 17.3532C26.9707 17.3805 27.4172 16.8607 27.4172 16.8607C27.4172 16.8607 27.8219 16.847 28.2265 16.7512C28.5754 16.6692 28.994 16.2314 29.0777 16.122C29.0358 16.1904 28.8684 16.3409 28.6172 16.4229Z" fill="#C6C1B3"/>
<path d="M30.0404 12.1685C30.0544 11.8128 29.873 11.5118 29.5381 11.334C29.7474 10.8005 29.9428 10.0344 29.7195 9.37778C29.5521 8.87162 29.1893 8.50227 28.6451 8.26971C28.1288 8.05083 27.5288 8.02347 26.8451 8.20131C26.3149 8.33811 25.7428 8.59802 25.1288 8.9537C24.6963 9.21362 24.3056 9.5009 24.0125 9.73346C23.3707 7.83195 22.4776 6.10828 21.3614 4.63086C19.966 2.78407 18.18 1.2656 16.059 0.130172C16.059 0.130172 16.059 0.130172 16.0451 0.130172C15.7242 -0.0339862 15.3474 -0.0476661 15.0265 0.116493C14.7056 0.280651 14.4823 0.595289 14.4265 0.950966C14.1474 3.11239 13.1986 8.03715 10.2404 13.3586C10.2265 13.3723 10.1986 13.3723 10.1846 13.386C9.98927 13.5501 9.5009 13.8374 9.2916 13.6596C9.06835 13.4544 8.98462 13.1124 8.95672 12.9209C9.0823 12.8798 9.19393 12.8388 9.2916 12.7841C9.58462 12.6336 9.76602 12.4421 9.80788 12.1958C9.84974 12.018 9.80788 11.8402 9.75207 11.717C9.76602 11.7034 9.77997 11.7034 9.79393 11.6897C10.2544 11.4845 10.5614 11.1835 10.687 10.8142C10.7846 10.5269 10.7846 10.2123 10.673 9.92497C10.6869 9.91129 10.6869 9.89761 10.7009 9.88393C10.9939 9.41882 11.1893 8.91266 11.273 8.36547C11.3149 8.06451 11.3288 7.70883 11.2032 7.40787C11.0637 7.09324 10.8265 6.79228 10.5195 6.60076C10.1986 6.40924 9.82183 6.31348 9.45904 6.27244C9.13811 6.2314 8.78928 6.24508 8.46835 6.27244C7.82649 6.35452 7.19858 6.51868 6.59858 6.79228C5.62183 7.23004 4.72881 8.00979 4.58928 9.13154C4.46369 10.0344 4.61718 11.0467 5.35672 11.6486C5.53811 11.7991 5.71951 11.9086 5.91486 11.977C5.873 12.059 5.83114 12.1548 5.83114 12.2779C5.83114 12.4147 5.873 12.6199 6.09625 12.8114C6.26369 12.9619 6.51486 13.044 6.79393 13.0987C6.82183 13.5912 7.00323 15.2191 8.18928 15.6705C8.35672 15.7389 8.53811 15.78 8.70555 15.7936C8.41253 16.2451 8.0916 16.6828 7.75672 17.1343C7.57532 17.3668 7.47765 17.6404 7.44974 17.9277C7.44974 17.9414 7.44974 17.9551 7.44974 17.9687C7.42183 18.4065 7.56137 18.8443 7.86835 19.1863C8.34276 19.6924 9.15207 20.4174 10.3939 21.1014C10.2683 21.1698 10.1288 21.2519 9.97532 21.3477C9.02648 21.9086 7.58928 22.8662 6.13811 24.2205C6.04044 24.1657 5.95672 24.1247 5.873 24.0973C5.56602 24.0016 5.3009 24.0153 5.10556 24.1521C5.03579 24.1931 4.99393 24.2478 4.95207 24.2889C4.91021 24.1384 4.86835 23.9879 4.81253 23.8374C4.31021 22.2506 3.12416 21.5666 1.51951 22.2642C1.24044 22.3874 0.989276 22.5242 0.738114 22.6746C0.472997 22.7978 0.263695 23.044 0.12416 23.3997C-0.364212 24.6993 0.738114 26.3408 0.849741 26.505C0.933462 26.6555 1.75672 28.1192 3.22183 29.1042C4.08695 29.6924 4.85439 29.9934 5.41253 29.9934C5.52416 29.9934 5.63579 29.9797 5.73346 29.9523C5.78928 29.9387 5.84509 29.9113 5.9009 29.8839C6.12416 29.8155 6.44509 29.6514 6.61253 29.3915C6.98928 29.1999 7.25439 28.8443 7.36602 28.4475C7.43579 28.1876 7.44974 27.9003 7.36602 27.6404C7.51951 27.6131 7.71486 27.5447 7.85439 27.3942C7.95207 27.2848 8.07765 27.0932 8.03579 26.7923C8.02183 26.6828 7.99393 26.5597 7.93811 26.4229C10.0032 24.3846 11.9288 22.9209 12.9753 22.1685C13.7707 22.401 14.6079 22.5789 15.5009 22.702C15.4032 23.6049 15.3893 24.8771 16.0172 25.4927C16.5195 25.9988 17.2451 26.122 17.859 26.122C18.0125 26.122 18.166 26.1083 18.2916 26.0946C18.3195 26.163 18.3614 26.2314 18.4032 26.2861C18.3753 26.3408 18.3474 26.4229 18.3335 26.505C18.0125 26.505 17.7056 26.5597 17.4265 26.6965C16.7846 26.9838 16.3939 27.6268 16.3242 28.2971C16.2963 28.5707 16.2963 28.8443 16.3381 29.1042C16.3381 29.1452 16.3521 29.1863 16.3521 29.2273C16.38 29.3915 16.4776 29.5283 16.6032 29.624C16.6869 29.6787 16.7846 29.7198 16.8823 29.7471C17.0079 29.7745 17.1335 29.8019 17.259 29.8292C18.4869 30.1028 19.9381 30.1028 20.9428 29.241L20.9567 29.2273L20.9707 29.2136C20.9986 29.1726 21.0265 29.1315 21.0544 29.1042C21.5707 28.2013 21.6265 27.0112 21.5567 25.9988C21.5149 25.3832 21.4311 24.7677 21.2637 24.1657C21.166 23.8374 20.9707 23.2629 20.6218 23.1261C20.4683 23.0713 20.3288 23.0303 20.1753 23.0166C20.1474 23.0029 20.1056 23.0029 20.0637 23.0029C19.98 23.0029 19.8823 23.0029 19.7986 23.0166C19.6311 23.044 19.4497 23.1124 19.3242 23.2355C19.1986 23.2081 19.073 23.2081 18.9474 23.2218C18.4869 23.2765 18.2497 23.6459 18.2776 24.0563C18.1242 24.07 17.9567 24.0563 17.8032 23.9742C17.7753 23.9605 17.5939 23.8237 17.6079 22.8935C17.7335 22.8935 17.873 22.8935 17.9986 22.8935C20.4963 22.8935 22.2404 22.3053 23.3288 21.7307C23.4265 21.676 23.5242 21.6213 23.6218 21.5529C23.9846 21.3066 24.3056 20.992 24.5567 20.6226C24.7102 20.3901 24.8358 20.1302 24.9195 19.8703C24.9195 19.8566 24.9195 19.8566 24.9335 19.8429C25.0172 19.5967 25.059 19.3367 25.0869 19.0768C25.1149 18.598 25.1428 17.9824 25.1428 17.2711C25.1567 17.2848 25.1846 17.3121 25.1986 17.3258C25.6032 17.6541 26.1893 17.6952 26.6637 17.5447C26.9428 17.4626 27.2079 17.3121 27.4032 17.1069C27.4311 17.0796 27.459 17.0522 27.4869 17.0112C27.6544 17.0112 27.9893 16.9975 28.366 16.8744C29.0637 16.6418 29.5521 16.163 29.7753 15.479C30.18 14.2205 29.7893 13.386 29.58 13.0713C29.58 13.0713 29.58 13.0713 29.5939 13.0577C29.8869 12.7567 30.0265 12.4558 30.0404 12.1685ZM20.5381 23.4544C20.5521 23.4544 20.5521 23.4544 20.5381 23.4544C20.8172 23.6869 20.9707 24.3299 21.0544 24.6856C21.1521 25.1233 21.1939 25.5611 21.2358 26.0125C21.2916 26.888 21.2637 27.7909 20.9288 28.6117C20.873 28.7348 20.8172 28.8443 20.7474 28.9537C19.7288 29.8155 18.2637 29.6651 17.0358 29.3641C16.9102 29.3504 16.8125 29.2683 16.7986 29.1452C16.7986 29.1179 16.7846 29.1042 16.7846 29.0768C17.1474 29.1452 17.8032 29.2683 18.5009 29.2683C19.3381 29.2683 20.2032 29.1042 20.6218 28.5023C21.166 27.7088 21.1242 26.3682 21.0404 25.6432C20.9567 24.8361 20.7474 24.0153 20.5242 23.4544C20.5242 23.4407 20.5381 23.4544 20.5381 23.4544ZM19.1707 23.5638C19.7009 23.5365 19.8125 24.1657 19.98 24.5625C19.9939 24.6172 20.0637 24.6172 20.0776 24.5625C20.1753 24.1657 20.0637 23.6733 19.7567 23.3997C19.7986 23.3723 19.8544 23.3586 19.9102 23.3586C19.9521 23.3586 20.0079 23.3449 20.0497 23.3449C20.3149 23.8374 20.566 24.7677 20.6637 25.6705C20.7893 26.8333 20.6637 27.7636 20.3009 28.2834C19.9242 28.8443 18.9614 28.9127 18.2079 28.8853C17.58 28.8579 17.0079 28.7485 16.7567 28.6938C16.7567 27.8319 17.2311 27.0522 18.1939 26.9017C18.2916 26.888 18.4032 26.8744 18.5009 26.8744C18.5288 26.888 18.5428 26.888 18.5707 26.888C18.5986 26.888 18.6265 26.888 18.6404 26.8744C19.073 26.888 19.4916 26.9975 19.8404 27.2437C19.8963 27.2848 19.9521 27.2164 19.9242 27.1753C19.7846 27.0112 19.6172 26.8744 19.4218 26.7649C19.2265 26.6555 19.0032 26.5871 18.78 26.546C18.78 26.5324 18.78 26.5187 18.7939 26.5187C19.0172 26.6008 19.2823 26.5871 19.5056 26.505C19.8265 26.3682 20.0218 26.0399 20.0776 25.7116C20.0916 25.6021 20.0916 25.5064 20.0776 25.3969C20.0776 25.3833 20.0637 25.3696 20.0497 25.3696C20.0358 25.3559 20.0079 25.3696 19.9939 25.3832C19.8963 25.5611 19.8265 25.7252 19.7288 25.8757C19.6451 26.0125 19.5195 26.1356 19.366 26.1767C19.2265 26.2177 19.0451 26.204 18.9195 26.1493C18.8637 26.122 18.8079 26.0809 18.766 26.0399C19.0032 25.9988 19.1986 25.8347 19.2823 25.6158C19.4079 25.2875 19.5056 24.8087 19.2683 24.3025C19.1707 24.0973 18.9474 23.9605 18.7242 23.9605C18.7521 23.7006 18.8916 23.5775 19.1707 23.5638ZM18.4172 24.3983C18.5149 24.3846 18.5986 24.3709 18.6683 24.3436C18.766 24.3162 18.8776 24.3573 18.9195 24.453C19.1009 24.8361 19.0172 25.2191 18.9195 25.4653C18.8776 25.5611 18.7939 25.6295 18.6963 25.6432C18.6125 25.6568 18.5288 25.6705 18.4172 25.6842C18.5567 25.1781 18.473 24.6719 18.4172 24.3983ZM18.0125 24.3983C18.0683 24.412 18.1242 24.412 18.18 24.412C18.2358 24.6719 18.3335 25.2054 18.166 25.7116C18.0963 25.7116 18.0265 25.7252 17.9428 25.7252C18.1242 25.2875 18.0683 24.7266 18.0125 24.3983ZM23.7056 9.97969C23.4823 10.1712 23.3428 10.308 23.3288 10.3217C23.259 10.3901 23.2451 10.5132 23.3288 10.5953C23.3986 10.6637 23.5242 10.6774 23.6079 10.5953C23.6358 10.5679 26.566 7.79091 28.5056 8.6117C28.9521 8.80322 29.2451 9.0905 29.3707 9.48722C29.6916 10.4585 28.9381 11.7581 28.8683 11.8538C28.8404 11.8949 28.5195 12.2779 27.9335 12.2779C27.6683 12.2779 27.4172 12.2232 27.18 12.1001C27.0823 12.0454 27.0404 11.9359 27.0683 11.8402C27.2358 11.293 27.0683 10.8826 26.6079 10.7184C26.2451 10.5953 25.6311 10.8278 24.7242 11.4571C24.0963 11.8949 23.566 12.3463 23.5381 12.3737C23.4544 12.4421 23.4544 12.5652 23.5242 12.6473C23.566 12.6883 23.6218 12.7157 23.6637 12.7157C23.7056 12.7157 23.7614 12.702 23.7893 12.6746C23.7893 12.6746 23.9986 12.4968 24.2916 12.2642C24.3335 12.4421 24.3614 12.6062 24.3893 12.7841C23.9567 13.0303 23.6916 13.386 23.5381 13.6869C23.3288 14.0837 23.273 14.4804 23.2451 14.6856C23.1753 14.7129 23.1056 14.754 23.0358 14.795C23.0637 13.2492 22.9381 11.7718 22.6451 10.3627C22.2125 8.25603 21.4172 6.2998 20.2869 4.5351C19.6869 3.61854 19.073 2.85247 18.5009 2.25056C21.2358 4.43934 22.8125 7.23004 23.7056 9.97969ZM26.7474 11.4434C26.6358 11.4434 26.4963 11.4434 26.3428 11.4708C26.0358 11.5392 25.6451 11.7307 25.5056 12.2916C25.4916 12.3326 25.4916 12.3737 25.4916 12.401C25.2125 12.4284 24.9614 12.4831 24.7521 12.5652C24.7102 12.3737 24.6683 12.1685 24.6265 11.9633C24.7242 11.8949 24.8358 11.8128 24.9474 11.7307C26.0358 10.9783 26.3986 11.0194 26.4823 11.0467C26.5521 11.0878 26.7474 11.1562 26.7474 11.4434ZM10.3381 10.6774C10.2404 10.951 10.0032 11.1698 9.64044 11.334C9.57067 11.3614 9.5009 11.4024 9.43114 11.4161C9.43114 11.4161 9.41718 11.4161 9.41718 11.4298C8.94276 11.5939 8.56602 11.5666 8.35672 11.4708C8.25904 11.4298 8.18928 11.3614 8.17532 11.293C8.13346 11.1288 8.20323 10.9783 8.25904 10.9099C8.56602 10.8415 8.84509 10.6774 9.02648 10.4311C9.16602 10.4995 9.34741 10.5269 9.48695 10.5269C9.80788 10.5269 10.1288 10.4175 10.3939 10.2259C10.3939 10.3627 10.3939 10.5132 10.3381 10.6774ZM5.873 11.4845C5.10556 11.0194 4.93811 10.0891 5.04974 9.26834C5.06369 9.13154 5.0916 8.98106 5.13346 8.85794C5.44044 7.88667 6.44509 7.3258 7.37997 7.01116C8.25904 6.73756 9.37532 6.54604 10.2265 6.95644C10.38 7.03852 10.5056 7.14796 10.6032 7.28476C10.673 7.38051 10.7428 7.47627 10.7846 7.58571C10.8544 7.80459 10.8404 8.02347 10.8125 8.26971C10.7428 8.72114 10.5753 9.18626 10.3381 9.58298C10.1428 9.91129 9.72416 10.1165 9.33346 10.0755C9.27765 10.0618 9.23579 10.0618 9.19393 10.0344C9.15207 9.62402 9.20788 9.2273 9.17997 8.8169C9.17997 8.70746 9.13811 8.58434 9.09625 8.47491C9.01253 8.26971 8.9009 8.09187 8.76137 7.92771C8.71951 7.88667 8.64974 7.91403 8.66369 7.96875C8.6916 8.24235 8.76137 8.50227 8.76137 8.76218C8.74742 9.18626 8.70555 9.62402 8.73346 10.0618C8.70555 10.1439 8.63579 10.2123 8.56602 10.2807C8.34276 10.4722 8.02183 10.5542 7.74276 10.4995C7.51951 10.4585 7.47765 10.308 7.46369 10.1028C7.44974 9.88393 7.46369 9.65138 7.43579 9.4325C7.37997 9.0221 7.24044 8.62538 7.03114 8.25603C7.00323 8.20131 6.90555 8.22867 6.91951 8.29707C6.94742 8.65274 7.01718 8.99474 7.04509 9.35042C7.073 9.52826 7.05904 9.67874 7.05904 9.85657C7.05904 10.0207 7.04509 10.1986 7.08695 10.3627C7.08695 10.3901 7.08695 10.4175 7.073 10.4448C7.01718 10.7868 6.75207 10.9236 6.41718 10.8689C5.94276 10.8005 5.97067 10.1302 5.91486 9.76082C5.85904 9.47354 5.73346 9.19994 5.56602 8.9537C5.52416 8.89898 5.44044 8.94002 5.45439 8.99474C5.4823 9.1589 5.51021 9.30938 5.53811 9.45986C5.55207 9.5693 5.57997 9.67874 5.57997 9.80186C5.57997 10.0071 5.57997 10.2123 5.60788 10.4175C5.64974 10.7047 5.77532 11.0057 6.04044 11.1698C6.22183 11.2793 6.43114 11.3066 6.64044 11.293C6.96137 11.2793 7.25439 11.0878 7.39393 10.8142C7.51951 10.8962 7.65904 10.9373 7.79858 10.951C7.75672 11.0741 7.72881 11.2382 7.78462 11.4161C7.81253 11.5118 7.86835 11.6076 7.95207 11.676C7.71486 11.717 7.4916 11.7444 7.25439 11.7581C6.76602 11.7581 6.30555 11.7444 5.873 11.4845ZM6.36137 12.5378C6.26369 12.4558 6.22183 12.3737 6.22183 12.2916C6.22183 12.2232 6.26369 12.1548 6.30556 12.1001C6.61253 12.1685 6.93346 12.1685 7.2823 12.1411C7.71486 12.1138 8.13346 12.0317 8.55207 11.9086C8.55207 11.9086 8.55207 11.9086 8.56602 11.9086C8.62183 11.9222 8.6916 11.9222 8.76137 11.9222C8.95672 11.9222 9.17997 11.8949 9.40323 11.8265C9.43114 11.8949 9.473 12.0043 9.44509 12.1001C9.41718 12.2232 9.30555 12.3326 9.12416 12.4284C9.01253 12.4831 8.873 12.5378 8.73346 12.5789C8.71951 12.5789 8.71951 12.5789 8.70555 12.5926C7.89625 12.8388 6.73811 12.8662 6.36137 12.5378ZM8.34276 15.3285C7.42183 14.9729 7.22649 13.6459 7.19858 13.1534C7.26835 13.1534 7.33811 13.1534 7.40788 13.1534C7.79858 13.1534 8.21718 13.0987 8.59393 13.0166C8.63579 13.2629 8.74741 13.6596 9.04044 13.9195C9.16602 14.0289 9.31951 14.07 9.473 14.07C9.61253 14.07 9.73811 14.0289 9.86369 13.9879C9.58462 14.4667 9.2916 14.9455 8.97067 15.4243C8.95672 15.4243 8.95672 15.4243 8.94276 15.4243C8.73346 15.438 8.53811 15.3969 8.34276 15.3285ZM13.1846 7.70883C14.1753 4.86341 14.6218 2.46943 14.8172 0.978326C14.8451 0.745768 14.9846 0.540569 15.2079 0.44481C15.4172 0.335371 15.6683 0.335371 15.8776 0.45849C15.9893 0.526889 18.1521 1.86752 19.9939 4.7403C21.4032 6.92908 22.8544 10.4038 22.6451 15.2601C22.5195 15.5611 22.4776 15.8894 22.5195 16.204C22.5335 16.2724 22.5474 16.3408 22.5614 16.4229C22.5195 16.8196 22.4776 17.23 22.4079 17.6541C18.1242 19.5556 14.4544 19.3094 12.1381 18.7759C10.073 18.2971 8.66369 17.5036 8.20323 17.23C10.3102 14.3436 11.9846 11.1562 13.1846 7.70883ZM7.99393 17.5173C8.46835 17.8183 9.8916 18.6254 12.0404 19.1179C13.5753 19.4735 15.1521 19.5967 16.7428 19.4735C18.6125 19.3367 20.4963 18.8579 22.3521 18.0645C22.3242 18.256 22.2823 18.4475 22.2544 18.6391C22.0869 18.6527 21.9195 18.6801 21.766 18.7485C17.3846 20.5816 13.8265 20.2259 11.5939 19.6103C9.51486 19.0358 8.18928 18.1192 7.85439 17.873C7.89625 17.7499 7.93811 17.6268 7.99393 17.5173ZM0.528811 23.5228C0.626486 23.2629 0.821834 22.9482 1.19858 22.9482H1.21253C1.4916 22.9482 1.85439 23.1261 2.16137 23.4817C1.35207 23.7553 0.752067 24.1794 0.44509 24.4257C0.40323 24.1247 0.417183 23.8101 0.528811 23.5228ZM0.821834 25.6021C0.696253 25.3422 0.570672 25.0276 0.486951 24.6856C0.738114 24.4667 1.39393 23.9605 2.3009 23.6596C2.42649 23.8237 2.53811 24.0289 2.63579 24.2615C2.66369 24.3299 2.6916 24.412 2.73346 24.4804C1.97997 24.7266 1.17067 25.3149 0.821834 25.6021ZM1.22649 26.3135L1.21253 26.2998C1.21253 26.2998 1.073 26.1083 0.933462 25.821C1.24044 25.5611 2.07765 24.9318 2.83114 24.6993C2.9009 24.8497 2.95672 25.0002 3.01253 25.1507C3.06835 25.2875 3.12416 25.438 3.17997 25.5748C2.52416 25.821 1.78463 26.4229 1.44974 26.6828C1.31021 26.4503 1.22649 26.3135 1.22649 26.3135ZM1.58928 26.8744C1.89625 26.6281 2.63579 26.0262 3.26369 25.78C3.37532 26.0262 3.473 26.2724 3.59858 26.505C3.06835 26.7649 2.41253 27.3121 2.11951 27.5584C1.91021 27.3121 1.72881 27.0659 1.58928 26.8744ZM2.91486 28.3518C2.67765 28.1466 2.46835 27.9414 2.273 27.7362C2.56602 27.49 3.22183 26.9428 3.71021 26.7102C3.83579 26.9291 3.97532 27.1343 4.14276 27.3532C3.66835 27.6268 3.15207 28.1055 2.91486 28.3518ZM3.48695 28.7759C3.34742 28.6801 3.22183 28.5843 3.09625 28.4886C3.33346 28.256 3.84974 27.7772 4.2823 27.5173C4.32416 27.572 4.37997 27.6268 4.42183 27.6815C4.54742 27.8183 4.673 27.9414 4.78462 28.0645C4.37997 28.3107 3.91951 28.7211 3.69625 28.9127C3.62649 28.8716 3.55672 28.8306 3.48695 28.7759ZM3.90556 29.0495C4.14276 28.8306 4.58928 28.4612 4.96602 28.2423C5.14742 28.3928 5.31486 28.5296 5.46835 28.6391C5.46835 28.6391 5.46835 28.6391 5.4823 28.6527C5.17532 28.899 4.79858 29.241 4.60323 29.4188C4.40788 29.3094 4.17067 29.1999 3.90556 29.0495ZM5.95672 29.3367C5.9009 29.4599 5.81718 29.5283 5.67765 29.5693C5.55207 29.5967 5.3009 29.624 4.85439 29.4872C5.06369 29.2957 5.39858 28.9947 5.67765 28.7759C5.98463 29.0358 6.04044 29.1452 5.95672 29.3367ZM6.37532 29.0768C6.31951 28.7895 6.02649 28.5707 5.70555 28.3244C5.42649 28.1055 5.06369 27.8456 4.71486 27.4489C4.01718 26.6555 3.75207 25.9578 3.37532 25.0139C3.26369 24.7403 3.15207 24.4393 3.01253 24.1247C2.70556 23.386 2.18928 22.8525 1.64509 22.661C1.68695 22.6473 1.71486 22.6336 1.75672 22.6199C2.94276 22.9072 3.2916 23.769 3.77997 24.9729C3.97532 25.4516 4.19858 26.0125 4.50556 26.5597C5.13346 27.6815 5.63579 28.1055 5.97067 28.3791C6.19393 28.5707 6.31951 28.6664 6.37532 28.8853C6.38928 28.94 6.38928 29.0084 6.37532 29.0768ZM7.60323 27.1069C7.4916 27.2164 7.29625 27.2574 7.18462 27.2574C6.97532 27.0932 6.72416 26.888 6.5009 26.7512C6.473 26.7239 6.43114 26.7649 6.44509 26.806C6.58463 27.0659 6.73811 27.2984 6.93346 27.5036C6.94742 27.531 6.96137 27.5584 6.97532 27.5857C7.01718 27.7225 7.01718 27.8593 7.01718 27.9961C7.00323 28.2834 6.8916 28.5433 6.72416 28.7622C6.64044 28.4339 6.44509 28.2697 6.19393 28.0645C5.85904 27.7909 5.39858 27.4079 4.81253 26.3545C4.51951 25.8347 4.31021 25.3149 4.11486 24.8224C3.69625 23.7964 3.33346 22.8798 2.37067 22.4284C2.56602 22.401 2.76137 22.3874 2.97067 22.4147C3.76602 22.5242 4.24044 23.2492 4.4916 23.9469C4.58928 24.2341 4.68695 24.5214 4.79858 24.795C4.79858 24.8224 4.81253 24.8497 4.84044 24.8771C5.00788 25.2328 5.24509 25.5611 5.57997 25.8347C5.64974 25.8894 5.73346 25.8073 5.6916 25.7389C5.60788 25.6295 5.52416 25.5064 5.45439 25.3969C5.34276 25.2191 5.24509 25.0276 5.17532 24.8361C5.18928 24.8224 5.18928 24.795 5.18928 24.7813C5.18928 24.7813 5.20323 24.5625 5.35672 24.4667C5.45439 24.3983 5.59393 24.3983 5.78928 24.4667C6.5009 24.6993 7.63114 26.1904 7.68695 26.8333C7.7009 26.9428 7.673 27.0385 7.60323 27.1069ZM7.81253 26.0262C7.51951 25.4653 7.00323 24.8087 6.5009 24.412C7.073 23.8785 7.64509 23.4133 8.18928 23.0029C8.44044 23.2081 9.01253 23.728 9.38928 24.5488C8.88695 25.0002 8.35672 25.4927 7.81253 26.0262ZM9.57067 24.3983C9.17997 23.6049 8.64974 23.0987 8.37067 22.8662C8.46835 22.7978 8.56602 22.7294 8.64974 22.661C8.9009 22.8388 9.45904 23.2902 9.86369 24.1384C9.77997 24.2205 9.6823 24.3162 9.57067 24.3983ZM23.4404 21.2246C23.3567 21.2793 23.273 21.3203 23.1893 21.375C22.1428 21.9222 20.4683 22.4968 18.0404 22.4968C17.9149 22.4968 17.7893 22.4968 17.6637 22.4968C17.6916 22.0864 17.7335 21.7581 17.7335 21.7581C17.7474 21.6486 17.6776 21.5529 17.566 21.5392C17.4544 21.5255 17.3567 21.5939 17.3428 21.7034C17.3428 21.7307 17.273 22.2506 17.259 22.8114C17.2311 23.9195 17.4683 24.1794 17.6358 24.2752C17.6637 24.2889 17.7056 24.3162 17.7474 24.3299C17.8032 24.6172 17.9009 25.3012 17.6916 25.7252C17.2172 25.6979 16.7009 25.5748 16.3521 25.2191C16.0032 24.8771 15.8497 24.1794 15.9056 23.1945C15.9474 22.4284 16.1149 21.7581 16.1149 21.7581C16.1428 21.6623 16.073 21.5529 15.9753 21.5255C15.8776 21.4982 15.766 21.5666 15.7381 21.6623C15.7242 21.6897 15.6683 21.9496 15.6125 22.319C14.8172 22.2095 14.0916 22.059 13.4358 21.8675C13.7009 21.6897 13.8544 21.5939 13.8683 21.5802C13.9521 21.5255 13.98 21.4024 13.9242 21.3203C13.8683 21.2382 13.7428 21.2109 13.659 21.2656C13.6451 21.2793 12.1102 22.2506 10.059 23.9879C9.66835 23.1945 9.15207 22.7294 8.873 22.5242C10.6032 21.3203 11.9288 20.7594 11.9428 20.7458C12.0404 20.7047 12.0823 20.5953 12.0404 20.4995C11.9986 20.4038 11.8869 20.3627 11.7893 20.4038C11.7753 20.4175 11.4125 20.5679 10.8404 20.8689C9.52881 20.1986 8.6916 19.4599 8.18928 18.9263C8.03579 18.7622 7.93811 18.5707 7.89625 18.3655C8.45439 18.7485 9.6823 19.4872 11.4963 19.9797C12.9474 20.3901 14.4823 20.5542 16.0311 20.4858C17.9707 20.4038 19.9521 19.9387 21.9335 19.1042C22.2823 18.9537 22.6869 19.0084 22.98 19.2136C23.2869 19.4325 23.5102 19.7061 23.6637 20.0071C24.0125 20.7868 23.4683 21.2109 23.4404 21.2246ZM24.166 20.5679C24.166 20.3627 24.1381 20.1302 24.0125 19.8566C23.8451 19.4872 23.566 19.1726 23.2172 18.9127C23.0497 18.7895 22.8544 18.7075 22.659 18.6664C22.7009 18.4339 22.7428 18.2013 22.7846 17.9687C22.9242 17.9961 23.1474 18.0645 23.3986 18.215C23.9567 18.5296 24.3614 19.0631 24.6265 19.7745C24.4869 20.0618 24.3474 20.3217 24.166 20.5679ZM24.7521 19.0084C24.7521 19.0495 24.7521 19.0905 24.7381 19.1315C24.3753 18.4475 23.9149 18.0645 23.5521 17.8593C23.259 17.6952 22.9939 17.6131 22.8265 17.5857C22.8544 17.3942 22.8823 17.2027 22.8963 17.0112C22.9242 17.0522 22.966 17.0796 22.9939 17.1206C23.259 17.3668 23.6079 17.5036 23.9567 17.5447C24.2358 17.5857 24.5428 17.5447 24.8079 17.4489C24.8079 18.0235 24.78 18.557 24.7521 19.0084ZM29.4544 15.3149C29.273 15.8894 28.8823 16.2724 28.3102 16.464C28.1149 16.5324 27.9195 16.5597 27.766 16.5734C27.7939 16.5187 27.8079 16.4503 27.8218 16.3956C27.8776 16.204 27.9056 15.9988 27.8916 15.7936C27.8916 15.7526 27.8916 15.7116 27.8776 15.6705C27.8776 15.6432 27.8497 15.6158 27.8218 15.6158C27.78 15.6021 27.7521 15.6295 27.7381 15.6705C27.6544 16.0125 27.5149 16.3682 27.2916 16.6418L27.2776 16.6555C27.1381 16.806 26.9846 16.9291 26.7893 17.0112C26.3567 17.1753 25.8544 17.2027 25.4776 16.9428C25.7707 16.6008 25.9521 16.1767 26.0079 15.7389C26.0218 15.6705 25.9242 15.6432 25.8963 15.7116C25.8683 15.78 25.8265 15.8484 25.7986 15.9168C25.6311 16.2314 25.4218 16.5597 25.1428 16.7923C25.1009 16.806 25.073 16.8333 25.0451 16.8744C24.8637 17.0112 24.6544 17.1069 24.4172 17.148C24.0265 17.189 23.58 17.0932 23.3009 16.8196C23.1474 16.6692 23.0358 16.464 22.9939 16.2451C22.9381 15.9988 22.9521 15.7252 23.0358 15.479C23.0497 15.4243 23.0776 15.3559 23.1056 15.3149C23.1614 15.2328 23.2311 15.1644 23.3149 15.1097C23.6218 14.9181 24.0544 14.9181 24.4172 14.9592C24.4172 14.9729 24.4032 14.9865 24.4032 15.0002C24.2776 15.3012 24.0823 15.5337 23.8311 15.7526C23.8172 15.7663 23.8032 15.78 23.8172 15.8073C23.8311 15.8757 23.9009 15.8484 23.9567 15.8347C24.0544 15.8073 24.1521 15.7663 24.2358 15.7116C24.8358 15.3559 25.059 14.5351 24.8079 13.9195C24.7939 13.8785 24.7102 13.8785 24.7102 13.9332C24.6963 14.0289 24.6683 14.111 24.6544 14.2068C24.6265 14.3436 24.5986 14.4667 24.5707 14.5898C24.3056 14.5351 23.9986 14.5214 23.7056 14.5625C23.7335 14.3709 23.8032 14.0973 23.9428 13.8237C24.2637 13.2218 24.8079 12.8798 25.5753 12.7978C25.6311 12.9619 25.7288 13.1124 25.8823 13.2355C26.273 13.5912 26.9009 13.7827 27.5707 13.7827C27.9056 13.7827 28.2544 13.728 28.5893 13.6322C28.8823 13.5501 29.1474 13.427 29.3567 13.2765C29.4963 13.5501 29.7893 14.2478 29.4544 15.3149ZM29.259 12.8388L29.2451 12.8525C29.2451 12.8525 29.2451 12.8525 29.2311 12.8662C29.0358 13.0303 28.7707 13.1671 28.4358 13.2629C27.459 13.5501 26.5102 13.3176 26.1056 12.9482C25.9102 12.7704 25.8404 12.5789 25.8963 12.3737C25.966 12.0727 26.1335 11.9086 26.4265 11.8402C26.5242 11.8128 26.6079 11.8128 26.6776 11.8128C26.6497 12.059 26.7614 12.3053 26.9986 12.4284C27.2776 12.5789 27.6125 12.661 27.9474 12.661C28.7707 12.661 29.1893 12.0864 29.2032 12.059V12.0454C29.2172 12.0317 29.3009 11.8812 29.3986 11.676C29.58 11.7854 29.6637 11.9496 29.6637 12.1548C29.6497 12.36 29.5242 12.6199 29.259 12.8388Z" fill="#00483A"/>
<path d="M20.0357 10.8962C20.245 9.82921 19.7427 8.84426 18.9195 8.6801C18.0962 8.52962 17.259 9.26833 17.0497 10.3354C16.9381 10.8689 17.0078 11.4024 17.2311 11.8128C17.1334 11.8675 17.0497 11.9222 16.9799 12.0043C16.8125 12.1685 16.7288 12.4147 16.7427 12.6473C16.7706 12.9619 16.9381 13.2765 17.1892 13.4817C17.2729 13.5501 17.3567 13.6049 17.4543 13.6459C17.552 13.6869 17.6497 13.7143 17.7474 13.728C17.7613 13.728 17.7753 13.728 17.7753 13.7143C17.7892 13.7006 17.7753 13.6733 17.7613 13.6733C17.5939 13.5912 17.4404 13.4817 17.3148 13.3449C17.1474 13.1534 17.0497 12.9072 17.0497 12.6473C17.0497 12.4147 17.2032 12.2095 17.3985 12.1001C17.9148 11.8402 18.5288 12.018 19.059 12.2505C19.059 12.2505 19.0729 12.2505 19.0729 12.2642L19.1567 12.3053H19.1706C19.2683 12.36 19.3799 12.401 19.4636 12.4557C19.4915 12.4694 19.5334 12.4284 19.5055 12.401C19.4357 12.3326 19.366 12.2642 19.2822 12.2095C19.6869 11.9086 19.9241 11.4708 20.0357 10.8962ZM18.0125 11.6486H17.9985C17.9706 11.6486 17.9427 11.6486 17.9148 11.6486C17.7892 11.6486 17.6497 11.6623 17.5241 11.7034C17.3288 11.3477 17.259 10.8552 17.3567 10.3764C17.5381 9.45985 18.2218 8.83058 18.8915 8.9537C19.4357 9.04945 19.7985 9.62401 19.8264 10.308C19.7148 10.0618 19.5195 9.88393 19.2683 9.82921C18.7799 9.73345 18.2915 10.1438 18.152 10.7458C18.0822 11.0878 18.1381 11.4161 18.2776 11.6623C18.166 11.6623 18.0822 11.6486 18.0125 11.6486ZM18.8218 11.8128C18.766 11.7854 18.7102 11.7718 18.6543 11.7581C18.3892 11.6213 18.2357 11.2519 18.2915 10.8689L18.7799 10.9099C18.7799 10.9099 18.9334 11.1288 19.2125 11.1288L19.3939 11.6076C19.2404 11.7718 19.0311 11.8402 18.8218 11.8128Z" fill="#00483A"/>
<path d="M19.4916 13.6458C19.4357 13.3722 19.1846 13.167 18.8916 13.167C18.752 13.167 18.5985 13.2218 18.5148 13.3312C18.4869 13.3586 18.5009 13.4133 18.5427 13.427C18.5985 13.4543 18.6683 13.4543 18.7241 13.4817C18.7799 13.4954 18.8218 13.509 18.8637 13.5364C17.0218 15.862 14.7195 14.8907 14.0497 14.535C14.0357 14.535 14.0357 14.5213 14.0218 14.5213C14.2869 14.193 14.3985 13.9058 14.4544 13.7416C14.7195 13.851 15.0264 13.9194 15.3334 13.9331C15.459 13.9331 15.5706 13.9331 15.6962 13.9331H15.6823C15.8078 13.9605 15.8218 13.7826 15.6962 13.7826H15.6823H15.6544C14.873 13.7279 13.966 13.4543 13.7706 12.6062C13.7009 12.3326 13.6869 11.9906 13.9241 11.7854C14.3148 11.4434 15.0823 11.5118 15.5706 11.6212C15.6823 11.6486 15.8078 11.6896 15.9055 11.7307C15.9195 11.7443 15.9474 11.7307 15.9474 11.717C15.9613 11.7033 15.9613 11.6759 15.9334 11.6623C15.7241 11.5255 15.4869 11.4297 15.2357 11.375C15.1939 11.3613 15.166 11.3613 15.1241 11.3476C15.3055 11.0877 15.4311 10.7731 15.5009 10.4311C15.5985 9.92491 15.5427 9.41875 15.3474 8.99467C15.1381 8.5706 14.8032 8.28332 14.3846 8.21492C13.9799 8.13284 13.5613 8.26964 13.1985 8.59796C12.8497 8.91259 12.6125 9.36403 12.5148 9.87019C12.4032 10.4037 12.473 10.9372 12.6962 11.3476C12.3613 11.5391 12.152 11.8948 12.2357 12.3052C12.3195 12.784 12.7241 13.1807 13.2264 13.2354C13.2404 13.2354 13.2404 13.2218 13.2264 13.2081C13.059 13.126 12.9055 13.0166 12.7799 12.8661C12.6264 12.6882 12.5427 12.483 12.5148 12.2505C12.5009 12.141 12.5148 12.0179 12.5706 11.9222C12.6683 11.717 12.8916 11.5939 13.1009 11.5391C13.3102 11.4981 13.5195 11.5118 13.7148 11.5391C13.4357 11.7717 13.3102 12.1547 13.4637 12.7156C13.5753 13.1123 13.8264 13.4133 14.1474 13.6048C14.1195 13.7006 14.0218 14.0015 13.7427 14.3435C13.6869 14.4119 13.673 14.494 13.6869 14.5761C13.7009 14.6718 13.7706 14.7539 13.8683 14.7949C14.2311 14.9865 15.0125 15.3421 15.9753 15.3421C16.9381 15.3421 18.0683 14.9728 19.073 13.7006C19.1567 13.7963 19.2264 13.9194 19.2962 14.0562C19.2962 14.0699 19.3102 14.0699 19.3102 14.0836C19.3381 14.0973 19.366 14.0973 19.3799 14.0699C19.4078 14.0289 19.4218 13.9878 19.4497 13.9331C19.5055 13.851 19.5055 13.7553 19.4916 13.6458ZM14.6776 11.2792C14.5241 11.2792 14.3706 11.2929 14.2311 11.3203C13.9102 11.2108 13.7148 10.8278 13.7706 10.39L14.259 10.4311C14.259 10.4311 14.4125 10.6499 14.6916 10.6499L14.873 11.1287C14.8171 11.1971 14.7474 11.2382 14.6776 11.2792ZM13.7288 11.1835C13.5055 11.1424 13.2823 11.1561 13.059 11.1971C13.0311 11.1971 13.0032 11.2108 12.9892 11.2108C12.7939 10.8551 12.7241 10.3763 12.8218 9.89755C12.9055 9.44611 13.1288 9.04939 13.4218 8.77579C13.7148 8.51588 14.0357 8.40644 14.3567 8.46116C14.9009 8.55692 15.2637 9.13147 15.2916 9.81547C15.1799 9.56923 14.9846 9.39139 14.7334 9.33667C14.245 9.24091 13.7567 9.65131 13.6171 10.2532C13.5334 10.6089 13.5753 10.9372 13.7288 11.1835Z" fill="#00483A"/>
<path d="M16.3161 4.92256C16.3644 4.67011 16.2931 4.44511 16.1568 4.42002C16.0204 4.39493 15.8707 4.57924 15.8224 4.8317C15.7741 5.08416 15.8454 5.30916 15.9817 5.33425C16.118 5.35934 16.2677 5.17502 16.3161 4.92256Z" fill="#00483A"/>
<path d="M15.9056 4.91828C15.9475 4.71308 16.0731 4.5626 16.1847 4.57628C16.2126 4.57628 16.2405 4.58996 16.2545 4.61732C16.2266 4.54892 16.1847 4.4942 16.1289 4.4942C16.0173 4.46684 15.8917 4.631 15.8498 4.8362C15.8219 4.98668 15.8498 5.13715 15.9056 5.20555C15.8917 5.12347 15.8917 5.02772 15.9056 4.91828Z" fill="white"/>
<path d="M17.7336 6.10807C17.7465 5.8515 17.6447 5.63807 17.5061 5.63137C17.3676 5.62466 17.2448 5.82721 17.2319 6.08378C17.219 6.34035 17.3208 6.55378 17.4594 6.56048C17.5979 6.56719 17.7207 6.36463 17.7336 6.10807Z" fill="#00483A"/>
<path d="M17.3429 6.16311C17.3569 5.95791 17.4545 5.78007 17.5662 5.79375C17.5941 5.79375 17.622 5.80743 17.6359 5.82111C17.608 5.75271 17.5522 5.71167 17.4964 5.71167C17.3848 5.71167 17.2871 5.87583 17.2731 6.08103C17.2592 6.24519 17.315 6.38198 17.3848 6.4367C17.3569 6.3683 17.329 6.27255 17.3429 6.16311Z" fill="white"/>
<path d="M11.5642 15.5911C11.6604 15.3522 11.6337 15.118 11.5047 15.0681C11.3757 15.0182 11.1931 15.1714 11.097 15.4104C11.0008 15.6493 11.0275 15.8835 11.1565 15.9334C11.2855 15.9833 11.4681 15.8301 11.5642 15.5911Z" fill="#00483A"/>
<path d="M11.1618 15.5203C11.2455 15.3288 11.3851 15.2057 11.4967 15.2467C11.5246 15.2604 11.5386 15.2741 11.5525 15.3014C11.5386 15.233 11.5107 15.1783 11.4548 15.151C11.3432 15.1099 11.2037 15.233 11.12 15.4246C11.0641 15.575 11.0642 15.7255 11.106 15.7939C11.106 15.7255 11.12 15.6298 11.1618 15.5203Z" fill="white"/>
<path d="M15.1626 17.8057C15.2366 17.5593 15.1886 17.3284 15.0555 17.29C14.9224 17.2517 14.7546 17.4204 14.6807 17.6668C14.6068 17.9133 14.6548 18.1441 14.7878 18.1825C14.9209 18.2209 15.0887 18.0522 15.1626 17.8057Z" fill="#00483A"/>
<path d="M14.7615 17.7774C14.8173 17.5722 14.9569 17.4354 15.0685 17.4628C15.0964 17.4764 15.1103 17.4901 15.1383 17.5175C15.1243 17.4491 15.0824 17.3944 15.0266 17.3807C14.915 17.3533 14.7755 17.4901 14.7197 17.6953C14.6778 17.8458 14.6917 17.9963 14.7476 18.0647C14.7336 17.9826 14.7336 17.8732 14.7615 17.7774Z" fill="white"/>
<path d="M16.2539 16.7791C16.3279 16.5327 16.2799 16.3018 16.1468 16.2634C16.0137 16.2251 15.8459 16.3937 15.772 16.6402C15.6981 16.8866 15.7461 17.1175 15.8791 17.1559C16.0122 17.1943 16.18 17.0256 16.2539 16.7791Z" fill="#00483A"/>
<path d="M15.8499 16.7378C15.9057 16.5326 16.0452 16.3958 16.1569 16.4232C16.1848 16.4369 16.1987 16.4506 16.2266 16.4779C16.2127 16.4095 16.1708 16.3548 16.115 16.3411C16.0034 16.3138 15.8638 16.4506 15.808 16.6558C15.7662 16.8062 15.7801 16.9567 15.8359 17.0251C15.808 16.943 15.822 16.8473 15.8499 16.7378Z" fill="white"/>
<path d="M20.6035 14.9422C20.6487 14.6892 20.5746 14.4651 20.4379 14.4416C20.3013 14.4182 20.1539 14.6043 20.1087 14.8573C20.0635 15.1103 20.1376 15.3344 20.2743 15.3579C20.4109 15.3814 20.5583 15.1953 20.6035 14.9422Z" fill="#00483A"/>
<path d="M20.2037 14.9457C20.2456 14.7405 20.3572 14.59 20.4688 14.6037C20.4967 14.6037 20.5246 14.6174 20.5386 14.6447C20.5107 14.5763 20.4688 14.5216 20.413 14.5216C20.3014 14.5079 20.1758 14.6584 20.1479 14.8636C20.12 15.0141 20.1479 15.1646 20.2177 15.233C20.1898 15.1509 20.1898 15.0551 20.2037 14.9457Z" fill="white"/>
<path d="M21.2954 15.971C21.3406 15.718 21.2665 15.4939 21.1298 15.4704C20.9932 15.447 20.8458 15.6331 20.8006 15.8861C20.7554 16.1391 20.8295 16.3633 20.9661 16.3867C21.1028 16.4102 21.2502 16.2241 21.2954 15.971Z" fill="#00483A"/>
<path d="M20.901 15.9852C20.9428 15.78 21.0545 15.6296 21.1661 15.6432C21.194 15.6432 21.2219 15.6569 21.2359 15.6843C21.208 15.6159 21.1661 15.5612 21.1103 15.5612C20.9987 15.5475 20.8731 15.698 20.8452 15.9032C20.8173 16.0536 20.8452 16.2041 20.9149 16.2725C20.887 16.1904 20.8731 16.0947 20.901 15.9852Z" fill="white"/>
<path d="M13.6451 9.73339L14.4823 10.2395L14.0218 9.33667C14.0218 9.33667 13.5753 9.52819 13.6451 9.73339Z" fill="white"/>
<path d="M18.1104 10.2671L18.9476 10.7732L18.4872 9.87036C18.4872 9.87036 18.0407 10.0619 18.1104 10.2671Z" fill="white"/>
</svg>
