<svg width="29" height="32" viewBox="0 0 29 32" fill="none" xmlns="http://www.w3.org/2000/svg">
<path d="M13.0011 11.0333C13.6788 10.5736 14.3681 10.1024 14.9999 9.4013C17.0102 7.18314 13.989 1.29871 13.9775 1.28722C15.0688 2.1492 16.1027 3.17208 16.8034 4.4478C17.7913 1.9768 19.1238 0.942429 20.8584 0C20.8584 0 19.8935 2.35607 19.434 3.9651C19.3651 4.18346 19.3306 4.40183 19.3076 4.60871C20.2037 3.19506 21.7315 2.33309 23.2708 1.73545C23.2593 1.74694 20.0428 6.41311 21.1916 9.09099C21.2146 9.13696 21.2375 9.18293 21.2605 9.2404C21.4788 9.50474 23.4316 11.8148 24.3966 12.378C25.0628 12.7803 26.7285 13.964 27.8658 15.6995C29.003 17.4349 29.6119 19.7105 28.0955 22.262C27.9347 22.5263 27.9232 22.6987 27.682 23.0665C27.3144 23.6412 26.763 24.1239 26.1427 24.3767C25.9129 24.9399 25.419 25.1353 24.8101 25.0548C24.6838 25.1927 24.5229 25.3077 24.3391 25.3996C23.5925 25.9628 22.6505 26.1007 21.8464 26.0777C21.9842 26.6753 22.0302 27.3534 21.9727 28.066C22.6045 27.8936 23.9715 27.6982 24.9939 28.836C25.9244 29.8704 25.7521 30.4106 25.419 30.7094C25.2466 30.8588 25.0743 30.9163 24.925 30.9852C24.5689 31.1461 20.8929 30.9622 20.1462 30.2497C19.434 29.5716 20.1118 28.5142 20.2611 28.2843C20.307 28.0545 20.4564 27.0316 20.1347 25.8708C18.6069 26.3995 16.3324 26.5259 14.5978 25.8823C14.2762 27.0546 14.4255 28.0775 14.4714 28.2958C14.6323 28.5257 15.31 29.5831 14.5863 30.2612C13.8396 30.9737 10.1637 31.1576 9.80755 30.9967C9.64673 30.9277 9.47441 30.8703 9.31359 30.7209C8.98045 30.4221 8.80814 29.8819 9.73862 28.8475C10.761 27.7097 12.128 27.9051 12.7598 28.0775C12.6679 26.8592 12.8862 26.0087 13.0125 25.6295C11.9212 25.3191 10.8989 24.756 10.1177 23.9745C9.23318 23.6527 8.3946 22.8826 7.78576 21.8483C7.67089 21.6529 7.55601 21.4345 7.45263 21.2276C6.99313 21.1127 5.31597 20.584 4.20169 18.6417C3.93748 18.6877 3.65029 18.6417 3.43203 18.5153C3.20228 18.3889 3.11038 18.1705 3.13336 17.9406C3.04146 17.9061 2.94956 17.8602 2.86915 17.8027C1.74338 17.0442 1.65148 17.0786 0.927774 17.0786C0.50274 17.0786 0.238529 16.9867 0.112168 16.8488C-0.0486563 16.6764 -0.0256815 16.458 0.112168 16.2626C0.0202682 15.8949 0.112168 15.5731 0.387866 15.3432C0.261504 15.0099 0.112168 14.2858 1.22645 14.3203C2.3637 14.3548 3.39757 14.6191 3.48947 14.6651C3.61583 14.7341 3.76517 14.5042 3.90302 14.2743C4.24764 13.6997 4.68416 12.9756 5.49977 13.1365C5.97075 13.2285 6.09711 13.3894 6.05116 13.6077C6.00521 13.8146 5.77547 13.941 5.56869 14.1709C4.77606 15.0789 5.38489 15.2168 5.31597 16.3316C5.30448 16.4695 5.28151 16.5959 5.24704 16.7109C5.54572 16.9062 5.62613 17.2395 5.52274 17.5614C6.03968 18.4923 6.54512 18.906 6.8438 19.0669C6.64851 17.5499 6.94718 15.9753 7.88915 14.5732C8.79666 13.217 10.336 12.0102 12.7139 11.1942C12.8287 11.1482 12.9092 11.0908 13.0011 11.0333Z" fill="#3F0B00"/>
<path d="M21.8459 24.6757C21.9378 24.8596 22.1561 25.055 22.5926 25.1469C23.3048 25.3078 24.488 25.1814 24.7178 24.3539C24.7407 24.2849 25.1887 23.3885 24.7292 22.0553C24.6373 21.791 24.5684 21.6071 24.511 21.4462C24.2123 20.6072 24.1319 20.3888 24.2353 19.998C23.6035 20.3313 23.6035 21.0784 23.6954 21.6301C23.7528 21.9748 23.8447 22.3541 23.4427 22.515C22.9487 22.7219 22.5581 22.5495 22.225 22.2047C22.2824 22.2162 22.5811 22.1702 22.8223 22.1472C22.627 21.9404 22.5237 21.9519 22.225 22.0783C22.0182 22.1702 21.5013 22.4805 21.6276 22.7564C21.8229 23.2046 22.8453 23.5034 22.8453 23.5034C22.4203 23.7218 21.8919 23.6413 21.5357 23.354C21.4898 23.4689 21.4783 23.6528 21.5817 23.9172C21.8 24.4344 23.1095 24.4344 23.1095 24.4344C22.7419 24.6757 22.248 24.7906 21.8459 24.6757Z" fill="white"/>
<path d="M25.2812 22.3655C25.5454 23.5378 25.2008 24.3883 25.1089 24.6411C26.1887 24.6181 25.8211 22.9746 25.6028 22.6068C25.4995 22.4229 25.3731 22.377 25.2812 22.3655Z" fill="white"/>
<path d="M26.4297 19.7334C26.3493 19.9058 26.2689 20.0782 26.2115 20.2621C28.015 21.4688 26.6595 22.5952 26.1885 22.917C26.2574 23.2043 26.2919 23.5146 26.2804 23.8249C27.7623 22.9859 28.6468 20.5724 26.4297 19.7334Z" fill="#2ECC71"/>
<path d="M26.9009 18.8713C26.9009 18.8713 26.7861 19.0552 26.6367 19.3311C27.4868 19.6644 28.0612 20.262 28.1875 21.0895C28.9572 19.1127 28.4173 17.3428 27.4983 15.9521C26.4185 14.2971 24.8102 13.1478 24.1784 12.78C23.6615 12.4697 22.8803 11.7112 22.2141 10.9986C22.5817 11.5848 22.9722 12.1824 23.3513 12.757C24.6264 14.6649 25.5569 15.7223 25.5569 18.0553C25.4306 16.9635 24.0176 14.5615 22.9722 13.0099C22.1566 11.7916 21.3066 10.5159 20.7781 9.28615C19.8132 7.03352 21.4674 3.94189 22.283 2.63169C20.1923 3.63158 19.4111 5.32106 19.2848 5.61988C19.2848 5.70033 19.2963 5.76929 19.2963 5.84974C19.3767 6.98755 19.3767 8.15984 18.63 9.07928C19.3192 7.34383 18.4922 5.55092 18.9746 3.84995C19.2848 2.7696 19.8132 1.58582 20.1463 0.89624C18.2165 2.01106 17.1826 4.66595 17.0447 5.01075C17.5272 6.11408 17.757 7.3898 17.5846 8.90688C17.5846 5.76929 15.8041 3.44769 14.8736 2.58572C15.6433 4.25221 16.9758 7.86102 15.2987 9.7114C14.6324 10.447 13.9202 10.9297 13.2194 11.4124C11.6916 12.4467 9.8651 14.3661 9.04949 18.0553C8.78528 15.6648 9.88808 13.6995 11.5193 12.1824C8.81975 13.4696 7.16556 15.6188 7.24597 18.3886C7.29192 20.1126 8.07306 21.986 9.35965 23.0203C8.90016 22.2848 8.62446 21.4343 8.62446 20.4919C8.62446 20.5034 9.70428 24.4455 13.4607 25.2845C12.8059 24.7903 12.3464 24.1122 12.22 23.1927C12.737 24.0202 14.8047 27.3072 21.5133 25.0776C21.364 25.25 21.1572 25.3994 20.893 25.5488C21.3066 25.6178 21.9154 25.6867 22.5357 25.6063C21.1572 25.3419 21.3181 24.3995 21.3066 24.3535C21.3066 24.3535 20.7322 23.618 21.2032 22.9858C20.8011 22.1813 22.0533 21.5262 22.5128 21.5262C22.7999 21.5262 23.0756 21.7906 23.2479 21.9974C23.225 21.5837 23.0182 21.147 23.2594 20.4459C23.4777 19.8138 24.2703 19.2621 24.592 19.6299C24.6724 19.7218 24.7068 19.8483 24.6494 20.0206C24.5575 20.3539 24.6035 20.5034 24.8906 21.3079L25.1089 21.9285C25.4076 21.894 25.7752 21.9974 26.0049 22.4802C26.384 22.1813 27.0388 21.4918 26.0509 20.7332C26.0279 20.8596 26.0279 20.9746 26.0394 21.078C25.1549 20.3884 26.0739 19.1012 26.9009 18.8713Z" fill="#E60040"/>
<path d="M4.67236 18.5039C5.51094 19.9061 6.65969 20.4807 7.26852 20.6876C7.14216 20.3428 7.03877 19.9751 6.95836 19.6073C6.65969 19.5038 5.97044 19.1476 5.29268 18.0212C5.13186 18.2166 4.9136 18.389 4.67236 18.5039Z" fill="#2ECC71"/>
<path d="M5.01768 17.0901C4.97173 17.1246 4.92578 17.1476 4.86834 17.1705C4.68454 17.6877 4.17909 18.067 3.61621 18.0555L3.68514 18.1474C4.38587 18.5267 5.52312 17.4119 5.01768 17.0901Z" fill="white"/>
<path d="M2.13381 15.7341C2.1453 15.6651 2.16827 15.5962 2.20273 15.5272C1.89257 15.3433 0.674907 15.2859 0.583008 15.9639C1.01953 15.7111 1.49051 15.5732 2.13381 15.7341Z" fill="white"/>
<path d="M3.01844 15.1595C3.01844 15.1595 2.34069 15.941 2.36366 16.7455C2.24879 16.6651 2.15689 16.4697 2.12242 16.2398C1.81226 15.987 1.32979 16.0559 0.962195 16.2168C0.697985 16.3318 0.491211 16.5501 0.491211 16.5501C0.537161 16.5961 0.67501 16.6306 0.973683 16.6306C1.80078 16.6306 1.92714 16.5961 3.16778 17.4236C3.81108 17.8489 4.46586 17.3202 4.50032 16.7915C4.51181 16.5386 4.20165 15.7916 3.84554 15.6192C4.3395 15.7111 4.75304 15.9525 4.90238 16.3892C4.94833 16.0674 4.86792 15.6307 4.78751 15.3089C4.61519 14.5963 5.09767 13.9757 5.53419 13.6079C4.89089 13.3321 4.68412 13.9297 4.23611 14.6538C3.86851 15.2514 3.45497 15.125 3.31712 15.056C3.14481 15.0101 2.17986 14.7917 1.26087 14.7687C0.847321 14.7572 0.812859 14.9756 0.847321 15.1365C1.4102 14.9526 2.19135 15.0331 2.59341 15.148V15.1595C2.6968 15.125 2.84613 15.125 3.01844 15.1595Z" fill="white"/>
<path d="M14.1732 25.8593C13.9435 25.8363 13.7137 25.8018 13.4955 25.7444C13.3691 26.0662 13.1279 26.9397 13.2772 28.2958C13.3806 28.3648 13.6218 28.4682 14.0469 28.2843C13.978 27.8936 13.8975 26.9397 14.1732 25.8593Z" fill="#2ECC71"/>
<path d="M14.4023 29.8477C12.7596 30.6407 10.7838 30.3648 9.84182 30.2384C9.63505 30.2154 9.5891 30.0545 9.54315 30.0775C9.4972 30.4108 9.80736 30.4913 10.0371 30.6062C10.2898 30.7211 13.4718 30.7556 14.3104 29.9511C14.3449 29.9166 14.3679 29.8821 14.4023 29.8477Z" fill="#2ECC71"/>
<path d="M9.65771 29.7553C10.7605 29.8817 12.8053 30.261 14.4709 29.2956C14.425 29.0657 14.2986 28.8358 14.2067 28.6979C13.4945 29.0082 13.058 28.7094 12.9316 28.606C12.6789 28.5025 11.1626 27.9853 10.1057 29.1576C9.88746 29.399 9.74961 29.5944 9.65771 29.7553Z" fill="#E60040"/>
<path d="M21.3988 26.0661C21.1001 26.0431 20.8359 25.9971 20.6406 25.9512C20.8819 26.9855 20.8014 27.8935 20.7555 28.2613C21.1805 28.4452 21.4218 28.3417 21.5252 28.2728C21.6171 27.4797 21.5711 26.7097 21.3988 26.0661Z" fill="#2ECC71"/>
<path d="M20.3188 29.2843C22.0879 30.3187 24.259 29.9164 25.1436 29.767C25.0517 29.6061 24.9138 29.3993 24.6841 29.1464C23.6272 27.9741 22.1109 28.4913 21.8582 28.5947C21.7318 28.7097 21.2953 28.997 20.5831 28.6867C20.4912 28.8246 20.3763 29.0545 20.3188 29.2843Z" fill="#E60040"/>
<path d="M25.2354 30.0198C24.9023 30.6175 20.8817 30.0773 20.3877 29.8359C20.5945 30.1577 21.3297 30.3072 22.1108 30.4336C23.2825 30.6175 24.5921 30.6634 24.7414 30.5945C24.8448 30.5485 25.4307 30.5485 25.2354 30.0198Z" fill="#2ECC71"/>
<path d="M14.2417 13.0443C16.8034 13.55 16.3554 18.5035 13.8511 19.1701C11.3699 19.8252 10.4164 15.2969 12.7024 13.481C13.1389 13.1362 13.6903 12.9524 14.2417 13.0443Z" fill="#3F0B00"/>
<path d="M12.8286 12.826C12.8286 12.826 14.1497 11.918 15.5971 12.6536C15.3558 11.217 13.4719 11.6077 12.8286 12.826Z" fill="#3F0B00"/>
<path d="M15.7349 16.5499C16.2059 13.5961 13.6097 12.0561 12.1279 14.5386C10.4967 17.2509 12.5759 20.4575 14.6436 18.6761C15.2524 18.1474 15.5971 17.3429 15.7349 16.5499Z" fill="white"/>
<path d="M19.2046 12.6884C19.2046 12.6884 20.8473 12.0333 22.111 13.1596C21.4332 10.953 19.1931 11.7115 19.2046 12.6884Z" fill="#3F0B00"/>
<path d="M15.7075 16.8074C15.9086 15.5347 15.401 14.397 14.5739 14.2662C13.7467 14.1354 12.9132 15.0611 12.7122 16.3338C12.5111 17.6065 13.0187 18.7442 13.8458 18.875C14.673 19.0058 15.5065 18.0801 15.7075 16.8074Z" fill="#3F0B00"/>
<path d="M20.4795 13.0443C23.0412 13.55 22.5932 18.5035 20.0889 19.1701C17.6076 19.8252 16.6542 15.2969 18.9402 13.481C19.3767 13.1362 19.9281 12.9524 20.4795 13.0443Z" fill="#3F0B00"/>
<path d="M21.9615 16.5499C22.4325 13.5961 19.8363 12.0561 18.3544 14.5386C16.7232 17.2509 18.8024 20.4575 20.8702 18.6761C21.479 18.1474 21.8351 17.3429 21.9615 16.5499Z" fill="white"/>
<path d="M12.0359 19.3659C12.0474 19.3774 15.7923 21.3772 21.7198 19.3659L21.9496 19.2855L21.8921 19.5268C21.4901 21.4117 20.4103 22.6414 19.1122 23.285C18.331 23.6758 17.458 23.8367 16.6079 23.8137C15.7578 23.7792 14.9078 23.5494 14.1726 23.1127C12.9664 22.4116 12.0359 21.1933 11.8177 19.5038L11.7832 19.2395L12.0359 19.3659Z" fill="#3F0B00"/>
<path d="M11.4959 20.3999C10.91 19.4689 11.1512 19.2046 11.9668 19.0552C11.335 19.5149 11.4844 19.6413 11.4959 20.3999Z" fill="#3F0B00"/>
<path d="M22.1103 20.2048C22.7077 18.6417 21.042 19.1934 21.042 19.1934C22.6043 18.1705 22.8915 19.6991 22.1103 20.2048Z" fill="#3F0B00"/>
<path d="M21.938 16.813C22.139 15.5404 21.6315 14.4026 20.8043 14.2718C19.9772 14.141 19.1437 15.0667 18.9426 16.3394C18.7416 17.6121 19.2492 18.7498 20.0763 18.8806C20.9035 19.0114 21.737 18.0857 21.938 16.813Z" fill="#3F0B00"/>
<path d="M13.0239 20.0442L13.2996 20.8142C13.8166 20.9521 17.1594 21.7911 20.1002 20.8142L20.3988 20.0557C16.9756 20.9177 14.4024 20.4694 13.0239 20.0442Z" fill="white"/>
<path d="M19.6983 22.6183C18.7219 22.308 17.8259 22.3425 17.1711 22.4689V22.4804H17.1481C16.4359 22.6183 15.9879 22.8482 15.9879 22.8482C16.1717 22.6643 16.3899 22.5149 16.6312 22.4C15.5513 22.3195 14.7357 22.7103 14.3911 22.9172C15.0689 23.2964 15.85 23.5148 16.6312 23.5378C17.4353 23.5723 18.2624 23.4114 18.9976 23.0436C19.2388 22.9287 19.48 22.7792 19.6983 22.6183Z" fill="#BA1C58"/>
<path fill-rule="evenodd" clip-rule="evenodd" d="M21.1681 22.0091C19.6978 25.2041 14.5859 26.0661 12.2539 23.1929C12.7708 24.0203 14.8386 27.3074 21.5472 25.0777C21.3979 25.2501 21.1911 25.3995 20.9269 25.5489C21.3405 25.6179 21.9493 25.6868 22.5696 25.6064C21.1911 25.342 21.3519 24.3996 21.3405 24.3536C21.3405 24.3536 20.7661 23.6181 21.2371 22.986C20.835 22.1815 22.0871 21.5264 22.5466 21.5264C22.8338 21.5264 23.1095 21.7907 23.2818 21.9976C23.2589 21.5838 23.0521 21.1471 23.2933 20.446C23.5116 19.8139 24.3042 19.2622 24.6259 19.63C24.7063 19.722 24.7407 19.8484 24.6833 20.0208C24.5914 20.3541 24.6373 20.5035 24.9245 21.308L25.1428 21.9286C25.4415 21.8941 25.8091 21.9976 26.0388 22.4803C26.4179 22.1815 27.0727 21.4919 26.0848 20.7333C26.0618 20.8598 26.0618 20.9747 26.0733 21.0781C25.1428 20.3886 26.0618 19.1013 26.8889 18.883C26.8889 18.883 26.774 19.0669 26.6247 19.3427C27.4747 19.676 28.0491 20.2736 28.1755 21.1011C28.9451 19.1243 28.4052 17.3544 27.4862 15.9637C26.4064 14.3087 24.7982 13.1594 24.1664 12.7917C23.6494 12.4813 22.8683 11.7228 22.202 11.0102C22.5696 11.5964 22.9602 12.194 23.3393 12.7687C24.6144 14.6765 25.5449 15.7339 25.5449 18.067C25.4185 16.9751 24.0055 14.5731 22.9602 13.0215C22.1446 11.8033 21.2945 10.5275 20.7661 9.29778C19.8011 7.04514 21.4553 3.95352 22.2709 2.64331C19.7782 4.28681 20.41 8.65417 18.6869 9.01045C18.6754 9.03344 18.6524 9.04493 18.6409 9.06792C18.7443 9.18285 20.0424 10.6654 19.8356 11.8607C20.5478 11.5504 21.6391 11.7458 22.0757 13.1709C20.812 12.0331 19.1693 12.6997 19.1693 12.6997C19.1693 12.6997 20.9729 12.286 22.0757 13.5732C22.0757 13.5732 24.04 15.3776 23.1784 18.8715C23.1784 18.8715 22.5351 19.7334 22.7304 20.7218C22.7764 20.6989 21.731 20.7793 21.1681 22.0091Z" fill="#9A0038"/>
<path fill-rule="evenodd" clip-rule="evenodd" d="M18.4346 5.68883C18.7792 7.64265 18.7677 8.52761 18.7447 8.84942C19.2846 7.18293 18.5494 5.47047 19.0089 3.84995C19.3191 2.7696 19.8475 1.58582 20.1806 0.89624C20.1806 0.89624 17.9751 3.09141 18.4346 5.68883Z" fill="#9A0038"/>
<path fill-rule="evenodd" clip-rule="evenodd" d="M11.8296 19.5266C12.0249 24.7444 19.216 26.0317 21.3986 20.9977C20.8587 22.0781 20.0546 22.8481 19.1241 23.2963C18.343 23.6871 17.4699 23.848 16.6198 23.825C15.7698 23.7905 14.9197 23.5607 14.1845 23.1239C12.9783 22.4229 12.0593 21.2046 11.8296 19.5266Z" fill="#9A0038"/>
<path fill-rule="evenodd" clip-rule="evenodd" d="M13.6902 26.5949C13.6902 27.3994 13.9199 28.1924 13.2651 28.2844C13.3685 28.3533 13.6098 28.4568 14.0348 28.2729C13.9774 27.8936 13.8969 26.9282 14.1726 25.8478C13.9429 25.8249 13.7131 25.7904 13.4949 25.7329C13.4834 25.7559 13.4719 25.7904 13.4604 25.8249C13.5408 25.8593 13.6902 25.9972 13.6902 26.5949Z" fill="#16A085"/>
<path fill-rule="evenodd" clip-rule="evenodd" d="M13.0241 29.3875C11.9099 29.4794 10.5429 29.4794 9.76172 29.7667C10.8875 29.9046 12.8518 30.2379 14.4601 29.2955C14.4141 29.0657 14.2878 28.8358 14.1959 28.6979C13.4836 29.0082 13.0471 28.7094 12.9208 28.6059C12.8863 28.5944 12.8174 28.5715 12.737 28.5485C12.7484 28.537 14.2648 29.284 13.0241 29.3875Z" fill="#9A0038"/>
<path fill-rule="evenodd" clip-rule="evenodd" d="M11.7948 30.3876C11.7948 30.3876 11.611 30.5945 9.68115 30.4221C9.78454 30.5025 9.92239 30.5485 10.0373 30.606C10.29 30.7209 13.472 30.7554 14.3106 29.9509C14.345 29.9164 14.3795 29.8819 14.4025 29.8359C13.5524 30.2497 12.6334 30.3761 11.7948 30.3876Z" fill="#16A085"/>
<path fill-rule="evenodd" clip-rule="evenodd" d="M6.97057 19.6303C6.95908 19.7912 6.83272 20.044 6.08604 19.7107C5.07514 19.2625 5.3853 18.1592 5.3853 18.1592C5.36233 18.1132 5.32787 18.0672 5.30489 18.0212C5.14407 18.2166 4.92581 18.389 4.68457 18.5039C5.52315 19.9061 6.67189 20.4807 7.28073 20.6876C7.14288 20.3543 7.03949 19.998 6.97057 19.6303Z" fill="#16A085"/>
<path fill-rule="evenodd" clip-rule="evenodd" d="M2.15689 16.4007C2.15689 16.4007 1.15748 16.0788 0.491211 16.5501C0.537161 16.596 0.67501 16.6305 0.973683 16.6305C1.80078 16.6305 1.92714 16.596 3.16778 17.4235C3.81108 17.8488 4.46586 17.3201 4.50032 16.7914C4.51181 16.6075 4.35098 16.1593 4.12124 15.872C4.09826 15.8375 4.0638 15.803 4.02934 15.7685C3.9719 15.6996 3.90297 15.6536 3.83405 15.6191C3.83405 15.6191 4.67263 17.3086 3.5124 17.2511C2.35217 17.1937 2.81167 15.4467 2.99547 15.1709C2.89208 15.2973 2.34069 16.0099 2.35217 16.7454C2.27176 16.688 2.19135 16.5616 2.15689 16.4007Z" fill="#CBDBE2"/>
<path fill-rule="evenodd" clip-rule="evenodd" d="M4.38602 15.2971C4.38602 15.5385 4.37454 15.6994 4.35156 15.8028C4.60429 15.9292 4.79957 16.1246 4.89147 16.4005C4.93742 16.0787 4.85701 15.6419 4.7766 15.3201C4.60429 14.6075 5.08676 13.9869 5.52328 13.6191C5.52328 13.6306 4.38602 13.9869 4.38602 15.2971Z" fill="#CBDBE2"/>
<path fill-rule="evenodd" clip-rule="evenodd" d="M0.583008 15.964C1.01953 15.7111 1.49051 15.5732 2.13381 15.7341C2.1453 15.6996 2.15678 15.6537 2.16827 15.6192C1.08845 15.3204 0.583008 15.964 0.583008 15.964Z" fill="#CBDBE2"/>
<path fill-rule="evenodd" clip-rule="evenodd" d="M3.01812 15.1592C1.98425 14.7454 0.846994 14.9753 0.846994 14.9753C0.835507 15.0328 0.835507 15.0902 0.846994 15.1362C1.40988 14.9523 2.19102 15.0328 2.59308 15.1477V15.1592C2.69647 15.1247 2.84581 15.1247 3.01812 15.1592Z" fill="#CBDBE2"/>
<path fill-rule="evenodd" clip-rule="evenodd" d="M4.67305 17.8027C4.50074 17.8947 4.50074 17.6993 4.50074 17.6993C4.25951 17.9177 3.94935 18.0441 3.61621 18.0441L3.68514 18.136C4.30546 18.4923 5.30486 17.6074 5.10958 17.1936C5.09809 17.3775 4.84536 17.7108 4.67305 17.8027Z" fill="#CBDBE2"/>
<path fill-rule="evenodd" clip-rule="evenodd" d="M24.2241 19.998C23.845 20.4118 24.7066 22.607 24.7295 23.1586C24.7525 23.7103 24.5917 24.3194 23.8335 24.6757C23.0753 25.0435 21.8462 24.6757 21.8462 24.6757C21.9381 24.8596 22.1564 25.055 22.5929 25.1469C23.3051 25.3078 24.4883 25.1814 24.718 24.3539C24.741 24.2849 25.189 23.3885 24.7295 22.0553C24.6376 21.791 24.5687 21.6071 24.5113 21.4462C24.2126 20.6072 24.1322 20.3773 24.2241 19.998Z" fill="#CBDBE2"/>
<path fill-rule="evenodd" clip-rule="evenodd" d="M23.121 24.4226C23.121 24.4226 21.6851 24.3192 21.5357 23.3538C21.4898 23.4687 21.4783 23.6526 21.5817 23.9169C21.8114 24.4226 23.121 24.4226 23.121 24.4226Z" fill="#CBDBE2"/>
<path fill-rule="evenodd" clip-rule="evenodd" d="M22.8572 23.5034C22.8572 23.5034 21.3983 22.9287 22.2598 22.2392C22.2484 22.2277 22.2369 22.2162 22.2254 22.2047C22.2828 22.2162 22.5815 22.1702 22.8227 22.1472C22.6274 21.9403 22.5241 21.9518 22.2254 22.0783C22.0186 22.1702 21.5017 22.4805 21.628 22.7563C21.8348 23.2046 22.8572 23.5034 22.8572 23.5034Z" fill="#CBDBE2"/>
<path fill-rule="evenodd" clip-rule="evenodd" d="M25.465 24.5374C25.465 24.5374 25.488 23.2732 25.8211 23.3766C25.7752 23.0433 25.6833 22.7215 25.6028 22.5836C25.4995 22.4112 25.3846 22.3653 25.2812 22.3538C25.5454 23.526 25.2008 24.3765 25.1089 24.6294C25.2467 24.6294 25.3731 24.5949 25.465 24.5374Z" fill="#CBDBE2"/>
<path fill-rule="evenodd" clip-rule="evenodd" d="M21.5252 28.2843C20.4913 27.7326 21.3988 26.0661 21.3988 26.0661C21.1001 26.0431 20.8359 25.9971 20.6406 25.9512C20.8819 26.9855 20.8014 27.8935 20.7555 28.2613C21.1805 28.4567 21.4218 28.3417 21.5252 28.2843Z" fill="#16A085"/>
<path fill-rule="evenodd" clip-rule="evenodd" d="M25.0172 29.5599C24.2705 29.6404 22.892 29.7668 22.3177 29.5599C21.5135 29.2841 21.8582 28.583 21.8582 28.583C21.7318 28.6979 21.2953 28.9853 20.5831 28.675C20.4912 28.8129 20.3763 29.0427 20.3188 29.2726C22.0879 30.307 24.259 29.9047 25.1436 29.7553C25.1091 29.6978 25.0746 29.6289 25.0172 29.5599Z" fill="#9A0038"/>
<path fill-rule="evenodd" clip-rule="evenodd" d="M25.2581 30.0888C25.1203 30.6979 23.1214 30.491 22.7653 30.4221C22.4092 30.3531 22.9376 30.2497 22.9376 30.2497C21.8119 30.1577 20.6402 29.9624 20.3989 29.8359C20.6057 30.1577 21.3409 30.3072 22.122 30.4336C23.2938 30.6175 24.6033 30.6634 24.7527 30.5945C24.8331 30.5485 25.3845 30.5485 25.2581 30.0888Z" fill="#16A085"/>
<path fill-rule="evenodd" clip-rule="evenodd" d="M12.5416 24.1582C11.1056 23.7905 9.19873 21.3654 8.76221 20.7793C9.09534 21.7102 10.3704 24.572 13.495 25.2846C13.093 24.9857 12.7598 24.618 12.5416 24.1582Z" fill="#9A0038"/>
<path fill-rule="evenodd" clip-rule="evenodd" d="M11.4958 20.4003C11.4958 20.4003 11.5532 19.3889 11.9323 19.0786C11.3464 19.5268 11.4843 19.6533 11.4958 20.4003Z" fill="#9A0038"/>
<path fill-rule="evenodd" clip-rule="evenodd" d="M21.1226 19.1703C21.5361 19.1359 21.7888 19.1703 21.9497 19.2968H21.9611V19.3082C22.1335 19.4462 22.1794 19.7105 22.1564 20.1013C22.5585 18.86 21.4442 19.0899 21.1226 19.1703Z" fill="#9A0038"/>
<path fill-rule="evenodd" clip-rule="evenodd" d="M7.72841 18.5038C7.65949 16.1822 8.80823 14.2858 10.7726 12.9871C11.0138 12.7113 11.2665 12.4355 11.5422 12.1826C8.84269 13.4698 7.18851 15.619 7.26892 18.3889C7.31487 20.1128 8.09601 21.9862 9.3826 23.0205C9.22178 22.7677 9.08393 22.4919 8.98054 22.216C8.21089 21.1702 7.76288 19.791 7.72841 18.5038Z" fill="#FFCCBC"/>
<path fill-rule="evenodd" clip-rule="evenodd" d="M14.9081 2.58569C15.6778 4.25218 17.0103 7.86099 15.3331 9.71137C14.6669 10.4469 13.9547 10.9296 13.2539 11.4123C11.7261 12.4467 9.89959 14.3661 9.08398 18.0553C9.08398 18.0553 11.0254 13.3891 13.4952 11.7341C16.4359 9.74585 17.9178 7.6886 14.9081 2.58569Z" fill="#FFCCBC"/>
<path fill-rule="evenodd" clip-rule="evenodd" d="M17.2976 5.53942C17.2976 5.53942 18.6531 1.7812 20.1809 0.89624C18.2511 2.01106 17.2172 4.66595 17.0908 5.01075C17.1597 5.18314 17.2287 5.35554 17.2976 5.53942Z" fill="#FFCCBC"/>
<path fill-rule="evenodd" clip-rule="evenodd" d="M19.3423 6.0569C19.3423 6.0569 20.3532 3.95368 21.6513 2.99976C20.0545 3.99965 19.4342 5.36732 19.3193 5.62017C19.3193 5.70062 19.3308 5.76958 19.3308 5.85003C19.3308 5.91899 19.3423 5.98794 19.3423 6.0569Z" fill="#FFCCBC"/>
<path fill-rule="evenodd" clip-rule="evenodd" d="M9.78467 29.5598C9.78467 29.5598 10.9679 29.1691 11.4044 29.1691C11.8409 29.1691 13.0011 28.9622 12.0707 28.4105C11.4848 28.3646 10.7266 28.4795 10.1178 29.1576C9.96847 29.307 9.86508 29.4334 9.78467 29.5598Z" fill="#FFCCBC"/>
<path fill-rule="evenodd" clip-rule="evenodd" d="M9.56654 30.2956C9.56654 30.2956 10.4281 30.445 11.2667 30.376C10.6923 30.353 10.1984 30.2841 9.84224 30.2266C9.63547 30.2036 9.58952 30.0427 9.54357 30.0657C9.53208 30.1692 9.54357 30.2381 9.56654 30.2956Z" fill="#8EFFC1"/>
<path fill-rule="evenodd" clip-rule="evenodd" d="M13.2654 28.181C13.6445 27.5029 13.4148 25.9858 13.4148 25.9858C13.2999 26.3996 13.1621 27.1466 13.2654 28.1925C13.254 28.1925 13.2654 28.181 13.2654 28.181Z" fill="#8EFFC1"/>
<path fill-rule="evenodd" clip-rule="evenodd" d="M22.7766 28.3875C22.7766 28.3875 22.3975 28.7782 23.0753 28.9736C23.753 29.169 24.5801 29.3184 24.9247 29.4333C24.8558 29.3414 24.7754 29.238 24.672 29.1345C24.0861 28.4794 23.351 28.353 22.7766 28.3875Z" fill="#FFCCBC"/>
<path fill-rule="evenodd" clip-rule="evenodd" d="M23.3858 30.2726C23.3858 30.2726 23.3743 30.4335 23.7993 30.4105C24.1784 30.399 24.9595 30.3646 25.2582 30.0772C25.2582 30.0543 25.2467 30.0428 25.2352 30.0198C25.0974 30.2726 24.3048 30.3301 23.3858 30.2726Z" fill="#8EFFC1"/>
<path fill-rule="evenodd" clip-rule="evenodd" d="M21.433 26.1812C21.433 26.1812 21.0654 27.5143 21.5363 28.158C21.6053 27.4454 21.5708 26.7673 21.433 26.1812Z" fill="#8EFFC1"/>
<path fill-rule="evenodd" clip-rule="evenodd" d="M5.44238 18.251C5.44238 18.251 5.89039 19.837 6.97021 19.6186C6.68302 19.5152 6.07419 19.2049 5.44238 18.251Z" fill="#8EFFC1"/>
<path fill-rule="evenodd" clip-rule="evenodd" d="M26.2115 20.2622C28.015 21.4689 26.6595 22.5952 26.1885 22.9171C26.2574 23.2044 26.2919 23.5147 26.2804 23.825C26.3493 23.7905 26.4182 23.7446 26.4871 23.6986C26.4871 23.6986 26.4642 23.1124 26.7284 22.7332C26.9811 22.3539 28.3136 21.1356 26.3263 19.9863C26.2804 20.0783 26.2459 20.1702 26.2115 20.2622Z" fill="#16A085"/>
<path fill-rule="evenodd" clip-rule="evenodd" d="M26.395 19.8253C28.21 20.6299 27.6701 22.5952 26.4869 23.5721C26.4869 23.6525 26.4869 23.6985 26.4869 23.6985C27.8424 22.7676 28.5432 20.5379 26.441 19.7334C26.418 19.7679 26.4065 19.8024 26.395 19.8253Z" fill="#8EFFC1"/>
<path d="M13.7939 16.5613C14.1301 16.5613 14.4027 16.2217 14.4027 15.8027C14.4027 15.3838 14.1301 15.0442 13.7939 15.0442C13.4576 15.0442 13.1851 15.3838 13.1851 15.8027C13.1851 16.2217 13.4576 16.5613 13.7939 16.5613Z" fill="white"/>
<path d="M14.5173 16.8603C14.6442 16.8603 14.7471 16.7317 14.7471 16.573C14.7471 16.4143 14.6442 16.2856 14.5173 16.2856C14.3905 16.2856 14.2876 16.4143 14.2876 16.573C14.2876 16.7317 14.3905 16.8603 14.5173 16.8603Z" fill="white"/>
<path d="M20.0776 16.5613C20.4138 16.5613 20.6864 16.2217 20.6864 15.8027C20.6864 15.3838 20.4138 15.0442 20.0776 15.0442C19.7413 15.0442 19.4688 15.3838 19.4688 15.8027C19.4688 16.2217 19.7413 16.5613 20.0776 16.5613Z" fill="white"/>
<path d="M20.8015 16.8603C20.9284 16.8603 21.0313 16.7317 21.0313 16.573C21.0313 16.4143 20.9284 16.2856 20.8015 16.2856C20.6746 16.2856 20.5718 16.4143 20.5718 16.573C20.5718 16.7317 20.6746 16.8603 20.8015 16.8603Z" fill="white"/>
<path fill-rule="evenodd" clip-rule="evenodd" d="M14.1269 14.2971C14.2763 14.2511 14.4256 14.2397 14.575 14.2626C15.3101 14.3776 15.7926 15.2855 15.7582 16.3774C16.1028 13.5386 13.587 12.1019 12.1166 14.5385C11.9443 14.8143 11.818 15.1016 11.7261 15.389C12.4268 14.2282 13.3803 13.9523 14.1269 14.2971Z" fill="#CBDBE2"/>
<path fill-rule="evenodd" clip-rule="evenodd" d="M17.9404 15.4352C18.6297 14.2973 19.5487 14.01 20.2954 14.3203C20.4562 14.2629 20.6285 14.2399 20.8008 14.2744C21.536 14.3893 22.0185 15.2972 21.9725 16.3891C22.3171 13.5503 19.8014 12.1137 18.331 14.5502C18.1702 14.826 18.0438 15.1363 17.9404 15.4352Z" fill="#CBDBE2"/>
<path fill-rule="evenodd" clip-rule="evenodd" d="M14.2873 20.6648C15.7577 20.6993 18.9856 21.0671 19.8931 20.6648C20.031 20.6073 20.1229 20.5729 20.2033 20.5614L20.3986 20.0557C16.9868 20.9177 14.4022 20.4579 13.0352 20.0442L13.2764 20.7108C13.3568 20.6763 13.6325 20.6533 14.2873 20.6648Z" fill="#CBDBE2"/>
</svg>
