<svg width="24" height="34" viewBox="0 0 24 34" fill="none" xmlns="http://www.w3.org/2000/svg">
<path d="M22.5066 8.5219C22.3108 7.67334 21.3317 7.8474 21.3317 7.8474C20.3743 7.21642 19.0471 8.73948 18.3944 8.84827C17.7416 8.95706 17.1759 8.1085 16.3274 8.2608C15.4788 8.41311 15.1959 9.58804 16.1315 9.45749C17.0889 9.32694 17.3065 9.93617 17.3065 9.93617C17.0454 11.1329 18.1333 11.1764 18.3508 11.1764C18.4379 12.9823 16.7625 14.6576 16.7625 14.6576C15.9792 14.5271 13.9775 13.2434 13.9775 13.2434C12.9766 13.9831 13.216 14.9405 13.216 14.9405C13.216 14.9405 16.6537 17.2686 17.9592 16.0719C19.7869 14.3965 20.0262 11.6333 20.0262 11.6333C21.1576 11.5027 21.397 10.1755 21.6798 9.89265C22.0932 9.45749 23.0506 9.63156 23.1811 9.06585C23.3117 8.50014 22.5066 8.5219 22.5066 8.5219Z" fill="#54B55A"/>
<path d="M22.5066 8.5219C22.3108 7.67334 21.3317 7.8474 21.3317 7.8474C20.3743 7.21642 19.0471 8.73948 18.3944 8.84827C17.7416 8.95706 17.1759 8.1085 16.3274 8.2608C15.4788 8.41311 15.1959 9.58804 16.1315 9.45749C17.0889 9.32694 17.3065 9.93617 17.3065 9.93617C17.0454 11.1329 18.1333 11.1764 18.3508 11.1764C18.5032 13.004 16.7625 14.6576 16.7625 14.6576C15.9792 14.5271 13.9775 13.2434 13.9775 13.2434C12.9766 13.9831 13.216 14.9405 13.216 14.9405C13.216 14.9405 16.6537 17.2686 17.9592 16.0719C19.7869 14.3965 20.0262 11.6333 20.0262 11.6333C21.1576 11.5027 21.397 10.1755 21.6798 9.89265C22.0932 9.45749 23.0506 9.63156 23.1811 9.06585C23.3117 8.50014 22.5066 8.5219 22.5066 8.5219Z" stroke="#6C1A40" stroke-width="0.5" stroke-miterlimit="10" stroke-linecap="round" stroke-linejoin="round"/>
<path d="M16.9797 15.5283C16.9797 15.5283 16.5663 15.1366 16.7621 14.658" stroke="#6C1A40" stroke-width="0.5" stroke-miterlimit="10" stroke-linecap="round" stroke-linejoin="round"/>
<path d="M20.0698 8.6307C20.0698 8.6307 20.8531 7.99972 21.3318 7.84741" stroke="#6C1A40" stroke-width="0.5" stroke-miterlimit="10" stroke-linecap="round" stroke-linejoin="round"/>
<path d="M20.9834 9.06592C20.9834 9.06592 21.8755 8.52197 22.5065 8.52197" stroke="#6C1A40" stroke-width="0.5" stroke-miterlimit="10" stroke-linecap="round" stroke-linejoin="round"/>
<path d="M19.1123 11.2417C19.1123 11.2417 19.3952 11.6551 20.0044 11.6551" stroke="#6C1A40" stroke-width="0.5" stroke-miterlimit="10" stroke-linecap="round" stroke-linejoin="round"/>
<path d="M14.2822 32.9998L22.6373 32.9781C22.9419 32.7388 23.0289 32.2166 22.8984 31.6509C22.659 30.6717 21.7452 29.4968 20.2439 29.1269C18.4598 28.6918 17.4806 29.9537 17.4806 29.9537C16.3057 30.3454 14.935 28.9094 14.7609 29.9537C14.6521 30.6282 14.6086 31.281 14.5216 31.8032C14.3693 32.4994 14.2822 32.9998 14.2822 32.9998Z" fill="#0DA4FF"/>
<path d="M19.8951 29.0618C19.8951 29.0618 18.5244 29.671 18.1763 30.9547C18.6549 30.9547 19.1771 31.2376 19.1771 31.2376C19.1771 31.2376 19.4817 30.4325 20.1998 30.6936C20.5261 30.8242 21.4835 31.9991 22.5931 30.9982C22.6149 31.02 21.7881 29.3881 19.8951 29.0618Z" fill="#FFFDFF"/>
<path d="M14.2819 32.9998L22.637 32.978C22.9416 32.7387 23.0286 32.2165 22.8981 31.6508C22.8981 31.6508 22.1801 32.3035 19.308 31.5202C17.241 30.9545 17.2192 32.0859 17.2192 32.0859C17.2192 32.0859 14.9129 32.1077 14.3472 31.716C14.3254 31.716 14.0208 32.2817 14.2819 32.9998Z" fill="#FFFDFF"/>
<path d="M14.3255 31.7157C14.369 31.7592 14.4343 31.7809 14.4996 31.8027C14.4996 31.8027 14.4996 31.8027 14.4996 31.7809C14.6084 31.2587 14.6301 30.5843 14.7389 29.9315C14.913 28.8871 16.2837 30.3232 17.4587 29.9315C17.4587 29.9315 18.4378 28.6696 20.2219 29.1047C21.7232 29.4746 22.6371 30.6495 22.8764 31.6286C23.0287 32.1943 22.9417 32.7165 22.6153 32.9559L14.282 32.9994C14.0209 32.2814 14.3255 31.7157 14.3255 31.7157Z" stroke="#6C1A40" stroke-width="0.5" stroke-miterlimit="10" stroke-linecap="round" stroke-linejoin="round"/>
<path d="M17.459 29.9536C17.459 29.9536 17.0238 30.4976 16.915 31.0198" stroke="#6C1A40" stroke-width="0.5" stroke-miterlimit="10" stroke-linecap="round" stroke-linejoin="round"/>
<path d="M13.7383 24.5357L15.0873 23.9482L17.4371 29.9534C17.4371 29.9534 17.089 30.5191 15.6312 30.1057L13.7383 24.5357Z" fill="#54B55A"/>
<path d="M17.4366 29.9536C17.4366 29.9536 17.2191 30.7369 15.6307 30.1059L15.1303 28.6482L14.9562 28.126L14.8257 27.7778C14.8257 27.7778 15.9353 27.8649 16.7186 28.1695L16.8057 28.3871L17.0015 28.8657L17.4366 29.9536Z" fill="#FFFDFF"/>
<path d="M16.9798 28.8223L15.1086 28.6264L14.9346 28.1042C15.4132 28.1695 16.1965 28.2566 16.784 28.3436L16.9798 28.8223Z" fill="#FFB500"/>
<path d="M15.0872 23.9482L17.4371 29.9534C17.4371 29.9534 17.2195 30.7367 15.6312 30.1057L13.7817 24.6445" stroke="#6C1A40" stroke-width="0.5" stroke-miterlimit="10" stroke-linecap="round" stroke-linejoin="round"/>
<path d="M4.94794 4.03959C4.94794 4.03959 4.16465 5.54089 2.90269 6.80285C1.98885 7.71668 3.66422 10.8281 7.38483 8.73931C11.7799 6.23714 11.4318 2.92993 11.4318 2.92993L4.94794 4.03959Z" fill="#FFFDFF"/>
<path d="M4.94794 4.03959C4.94794 4.03959 4.16465 5.54089 2.90269 6.80285C1.98885 7.71668 3.66422 10.8281 7.38483 8.73931C11.7799 6.23714 11.4318 2.92993 11.4318 2.92993L4.94794 4.03959Z" stroke="#6C1A40" stroke-width="0.5" stroke-miterlimit="10" stroke-linecap="round" stroke-linejoin="round"/>
<path d="M4.94791 5.30182C4.94791 5.30182 4.51275 6.30268 3.09848 7.54289C2.16289 8.36969 4.7956 10.8719 8.40742 8.84836C12.8025 6.41147 11.954 3.51766 11.954 3.51766L11.3012 2.73438L4.94791 5.30182Z" fill="#6C1A40" stroke="#6C1A40" stroke-width="0.5" stroke-miterlimit="10" stroke-linecap="round" stroke-linejoin="round"/>
<path d="M17.9808 24.2748C17.6109 23.4915 15.6092 22.6647 15.7832 19.7709C15.8485 18.4654 14.1079 16.1156 14.1079 16.1156C14.1079 16.1156 14.369 12.1991 13.3899 10.9372C12.2367 9.43587 14.0208 7.49941 11.4099 4.6056C10.8659 4.01814 10.3002 2.49508 10.6701 1.75531C10.7789 1.55949 9.60398 0.972023 9.10355 1.51597C8.49432 2.19047 4.22976 5.2801 4.59965 8.56555C4.96953 11.8075 4.42558 12.3514 4.49086 14.1574C4.59965 17.3123 5.94864 18.5307 6.34029 19.8362C6.73193 21.1417 8.32026 25.4715 14.1514 24.9711C17.1105 24.7535 18.1113 24.5577 17.9808 24.2748Z" fill="#54B55A"/>
<path d="M15.3923 24.6884C7.71174 25.3847 7.14603 19.8799 6.95021 19.51C6.3845 18.4003 5.05727 17.1166 4.94848 13.9835C4.8832 12.047 5.27485 11.8077 5.10078 9.17497C4.79617 5.14974 8.19042 3.21329 9.36535 1.53792C9.40886 1.49441 9.66996 1.3421 9.71347 1.29858C9.49589 1.29858 9.27831 1.36386 9.12601 1.51616C8.51678 2.19066 4.25222 5.28029 4.62211 8.56575C4.99199 11.8077 4.44805 12.3516 4.51332 14.1575C4.62211 17.3124 5.9711 18.5309 6.36275 19.8364C6.75439 21.1418 8.34272 25.4717 14.1739 24.9713C16.5237 24.7754 17.6334 24.6014 17.9162 24.4055C17.394 24.4926 16.6107 24.5796 15.3923 24.6884Z" fill="#FFFDFF"/>
<path d="M17.9808 24.2748C17.6109 23.4915 15.6092 22.6647 15.7832 19.7709C15.8485 18.4654 14.1079 16.1156 14.1079 16.1156C14.1079 16.1156 14.369 12.1991 13.3899 10.9372C12.2367 9.43587 14.0208 7.49941 11.4099 4.6056C10.8659 4.01814 10.3002 2.49508 10.6701 1.75531C10.7789 1.55949 9.60398 0.972023 9.10355 1.51597C8.49432 2.19047 4.22976 5.2801 4.59965 8.56555C4.96953 11.8075 4.42558 12.3514 4.49086 14.1574C4.59965 17.3123 5.94864 18.5307 6.34029 19.8362C6.73193 21.1417 8.32026 25.4715 14.1514 24.9711C17.1105 24.7535 18.1113 24.5577 17.9808 24.2748Z" stroke="#6C1A40" stroke-width="0.5" stroke-miterlimit="10" stroke-linecap="round" stroke-linejoin="round"/>
<path d="M10.4745 6.08531C9.45189 5.56312 7.73301 5.60664 6.68863 7.17321C5.73128 8.60924 6.27523 11.8947 9.58244 11.5901C13.1725 11.2855 12.3239 7.04266 10.4745 6.08531Z" fill="#4AA04F"/>
<path d="M11.6931 11.2416C10.6704 10.7194 8.95155 10.7629 7.88541 12.3295C6.92806 13.7437 7.47201 17.0074 10.7792 16.7028C14.391 16.3982 13.5642 12.1772 11.6931 11.2416Z" fill="#4AA04F"/>
<path d="M12.476 13.5046C11.932 13.5046 11.5404 15.5934 11.932 15.7675C12.3237 15.9415 12.9112 15.0712 12.9329 14.5055C12.9329 13.918 12.7371 13.5046 12.476 13.5046Z" fill="#54B55A"/>
<path d="M12.7156 16.6159C11.6277 16.2896 9.93062 16.6159 9.19085 18.2913C8.51635 19.8143 9.66952 22.8822 12.8462 22.0337C16.3275 21.1416 14.7174 17.2034 12.7156 16.6159Z" fill="#4AA04F"/>
<path d="M9.38694 3.38721C9.38694 3.38721 8.29905 6.38981 9.4087 11.9163C10.3443 16.6596 11.9109 22.9476 16.0449 23.6221C16.0449 23.6221 10.3661 24.6665 8.79948 22.2514C7.23291 19.8362 5.92743 17.6822 5.60106 14.9842C5.3182 12.6561 5.33996 4.08346 9.38694 3.38721Z" fill="#54B55A"/>
<path d="M16.0447 23.6005C11.9107 22.9478 10.3441 16.6597 9.40856 11.8947C8.32066 6.36819 9.47383 4.36646 9.47383 4.36646" stroke="#6C1A40" stroke-width="0.5" stroke-miterlimit="10" stroke-linecap="round" stroke-linejoin="round"/>
<path d="M6.68896 19.0527C6.68896 19.0527 8.60367 21.3156 11.2799 20.3582C11.2799 20.3582 10.4313 21.4026 9.08234 21.011C6.776 20.3365 6.68896 19.0527 6.68896 19.0527Z" fill="#FFFDFF"/>
<path d="M6.84131 19.7056C6.84131 19.7056 8.99535 22.0119 11.4758 20.4236" stroke="#6C1A40" stroke-width="0.5" stroke-miterlimit="10" stroke-linecap="round" stroke-linejoin="round"/>
<path d="M4.68701 11.6116C4.68701 11.6116 5.36151 8.47846 8.27708 9.34878" stroke="#6C1A40" stroke-width="0.5" stroke-miterlimit="10" stroke-linecap="round" stroke-linejoin="round"/>
<path d="M7.36373 9.74043C4.53519 9.91449 4.013 16.1808 7.75537 15.9632C10.0182 15.8327 9.30019 9.63164 7.36373 9.74043Z" fill="#5DC964"/>
<path d="M6.38406 10.6325C6.84097 10.763 6.18823 12.0685 5.6878 12.0685C5.18737 12.0685 5.9489 10.5019 6.38406 10.6325Z" fill="#FFFDFF"/>
<path d="M9.4955 21.5983C7.75486 22.3381 11.1926 24.8403 12.8897 23.9264C14.6086 22.9908 12.1282 20.4669 9.4955 21.5983Z" fill="#5DC964"/>
<path d="M6.6022 17.5736C5.97122 19.2055 10.6274 21.6859 10.8232 19.4448C11.0626 16.8338 6.99384 16.5292 6.6022 17.5736Z" fill="#5DC964"/>
<path d="M8.69103 17.6604C8.84334 17.2688 10.0183 17.9868 10.1053 18.4437C10.1923 18.9006 8.56049 17.9868 8.69103 17.6604Z" fill="#FFFDFF"/>
<path d="M7.38534 4.51854C5.79701 4.93194 5.2313 7.56466 5.47064 8.39146C5.73174 9.39233 8.36445 8.65255 8.60379 8.04333C8.88664 7.34708 7.53765 7.76048 7.01546 6.82488C6.47151 5.91105 7.75523 4.40975 7.38534 4.51854Z" fill="#5DC964"/>
<path d="M6.31934 16.0283C6.31934 16.0283 8.38634 16.7681 9.36545 15.1145C9.36545 15.1145 9.56127 16.1589 8.12525 16.4417C6.66746 16.7463 6.31934 16.0283 6.31934 16.0283Z" fill="#FFFDFF"/>
<path d="M6.12305 16.072C6.12305 16.072 6.86282 16.9423 8.25533 16.4637C9.62608 16.0068 9.58256 14.9841 9.58256 14.9841" stroke="#6C1A40" stroke-width="0.5" stroke-miterlimit="10" stroke-linecap="round" stroke-linejoin="round"/>
<path d="M14.9565 21.947C14.9565 21.947 15.7616 21.0767 15.7616 19.793" stroke="#6C1A40" stroke-width="0.5" stroke-miterlimit="10" stroke-linecap="round" stroke-linejoin="round"/>
<path d="M6.12306 6.58577C6.29712 6.99917 7.10216 5.30205 6.90634 5.06271C6.68876 4.84513 5.81844 5.88951 6.12306 6.58577Z" fill="#FFFDFF"/>
<path d="M14.1519 18.4435C13.6515 18.5305 13.6515 20.641 14.0431 20.7498C14.4347 20.8586 14.8264 19.923 14.7394 19.3573C14.6523 18.7916 14.3912 18.4 14.1519 18.4435Z" fill="#54B55A"/>
<path d="M11.2139 8.69586C11.2791 9.63145 11.7143 10.3712 12.193 10.3277C12.6717 10.2842 12.998 9.50091 12.9327 8.56531C12.8675 7.62972 12.4323 6.88995 11.9536 6.93347C11.475 6.95522 11.1486 7.76027 11.2139 8.69586Z" fill="#FFFDFF"/>
<path d="M11.41 8.73958C11.4535 9.37056 11.7146 9.87099 11.9757 9.84923C12.2368 9.82748 12.4109 9.30529 12.3673 8.6743C12.3238 8.04332 12.0627 7.54289 11.8016 7.56465C11.5405 7.58641 11.3665 8.1086 11.41 8.73958Z" fill="#6C1A40"/>
<path d="M12.0845 8.56545C12.0845 8.65248 12.215 8.71776 12.3673 8.71776C12.5196 8.71776 12.6284 8.63072 12.6067 8.52193C12.6067 8.4349 12.4761 8.36963 12.3238 8.36963C12.1933 8.39139 12.0845 8.45666 12.0845 8.56545Z" fill="#FFFDFF"/>
<path d="M11.2139 8.69586C11.2791 9.63145 11.7143 10.3712 12.193 10.3277C12.6717 10.2842 12.998 9.50091 12.9327 8.56531C12.8675 7.62972 12.4323 6.88995 11.9536 6.93347C11.475 6.95522 11.1486 7.76027 11.2139 8.69586Z" stroke="#6C1A40" stroke-width="0.5" stroke-miterlimit="10" stroke-linecap="round" stroke-linejoin="round"/>
<path d="M9.42969 8.82623C9.49496 9.76183 9.93012 10.5016 10.4088 10.4581C10.8875 10.4146 11.2138 9.63128 11.1486 8.69569C11.0615 7.76009 10.6264 7.02032 10.1695 7.06384C9.69079 7.0856 9.36442 7.86888 9.42969 8.82623Z" fill="#FFFDFF"/>
<path d="M9.62532 8.87019C9.66883 9.50117 9.92993 10.0016 10.191 9.97985C10.4521 9.95809 10.6262 9.4359 10.5827 8.80492C10.5392 8.17394 10.2781 7.67351 10.017 7.69526C9.75586 7.69526 9.5818 8.23921 9.62532 8.87019Z" fill="#6C1A40"/>
<path d="M10.3003 8.69607C10.3003 8.7831 10.4308 8.84837 10.5831 8.84837C10.7355 8.84837 10.8442 8.76134 10.8225 8.65255C10.8225 8.56552 10.6919 8.50024 10.5396 8.50024C10.4091 8.50024 10.3003 8.58728 10.3003 8.69607Z" fill="#FFFDFF"/>
<path d="M9.42969 8.82623C9.49496 9.76183 9.93012 10.5016 10.4088 10.4581C10.8875 10.4146 11.2138 9.63128 11.1486 8.69569C11.0615 7.76009 10.6264 7.02032 10.1695 7.06384C9.69079 7.0856 9.36442 7.86888 9.42969 8.82623Z" stroke="#6C1A40" stroke-width="0.5" stroke-miterlimit="10" stroke-linecap="round" stroke-linejoin="round"/>
<path d="M9.06006 6.60728C9.49522 6.34619 9.88686 6.01982 10.235 5.62817" stroke="#6C1A40" stroke-width="0.5" stroke-miterlimit="10" stroke-linecap="round" stroke-linejoin="round"/>
<path d="M11.2578 5.67163C11.7582 5.93273 12.3022 6.10679 12.8679 6.19382" stroke="#6C1A40" stroke-width="0.5" stroke-miterlimit="10" stroke-linecap="round" stroke-linejoin="round"/>
<path d="M10.0391 11.5898C10.0391 11.5898 10.6048 12.0685 11.3881 11.8074" stroke="#6C1A40" stroke-width="0.5" stroke-miterlimit="10" stroke-linecap="round" stroke-linejoin="round"/>
<path d="M9.64746 11.8073C9.64746 11.8073 10.1479 11.8073 10.2567 11.1111" stroke="#6C1A40" stroke-width="0.5" stroke-miterlimit="10" stroke-linecap="round" stroke-linejoin="round"/>
<path d="M8.53794 1.01544C8.21157 1.01544 7.86344 1.05896 7.47179 1.14599C4.38216 1.79873 4.94787 5.30176 4.94787 5.30176C5.31776 5.34528 5.79643 5.32352 6.29686 5.25824C8.64672 4.91012 11.9322 3.53936 11.9322 3.53936C11.9322 3.53936 11.2794 0.971924 8.53794 1.01544ZM9.69111 2.38619C10.5179 2.01631 10.9096 3.14772 10.9096 3.14772C10.9096 3.14772 9.49529 3.71343 8.84255 3.82222C8.82079 3.80046 8.8643 2.75608 9.69111 2.38619Z" fill="#0DA4FF"/>
<path d="M6.31835 5.25818C5.79616 5.34522 5.33924 5.36697 4.96935 5.3017C4.96935 5.3017 4.40365 1.79867 7.49328 1.12417C7.84141 1.03714 8.21129 1.01538 8.53766 1.01538C5.90495 1.64636 6.31835 5.25818 6.31835 5.25818Z" fill="#FFFDFF"/>
<path d="M7.47179 1.12424C4.38216 1.79873 4.94787 5.30177 4.94787 5.30177C7.05839 5.56286 11.9539 3.51761 11.9539 3.51761C11.9539 3.51761 11.1054 0.340951 7.47179 1.12424ZM7.60234 1.7117C7.45004 1.7117 7.45004 1.27654 7.90695 1.146C8.12453 1.10248 8.36387 1.18951 8.40739 1.38533C8.42915 1.38533 8.60321 1.68994 7.60234 1.7117ZM9.69111 2.3862C10.5179 2.01631 10.9096 3.14773 10.9096 3.14773C10.9096 3.14773 9.49529 3.71344 8.84255 3.82223C8.82079 3.80047 8.86431 2.75609 9.69111 2.3862Z" stroke="#6C1A40" stroke-width="0.5" stroke-miterlimit="10" stroke-linecap="round" stroke-linejoin="round"/>
<path d="M14.7394 32.9998L6.3843 32.9781C6.07968 32.7388 5.99265 32.2166 6.1232 31.6509C6.36254 30.6717 7.27637 29.4968 8.77767 29.1269C10.5618 28.6918 11.5409 29.9537 11.5409 29.9537C12.7159 30.3454 14.0866 28.9094 14.2607 29.9537C14.3695 30.6282 14.413 31.281 14.5 31.8032C14.6306 32.4994 14.7394 32.9998 14.7394 32.9998Z" fill="#0DA4FF"/>
<path d="M9.10417 29.0618C9.10417 29.0618 10.4749 29.671 10.823 30.9547C10.3444 30.9547 9.82218 31.2376 9.82218 31.2376C9.82218 31.2376 9.51757 30.4325 8.79956 30.6936C8.47319 30.8242 7.51584 31.9991 6.40618 30.9982C6.38442 31.02 7.21122 29.3881 9.10417 29.0618Z" fill="#FFFDFF"/>
<path d="M14.7394 32.9998L6.3843 32.978C6.07968 32.7387 5.99265 32.2165 6.1232 31.6508C6.1232 31.6508 6.84121 32.3035 9.71326 31.5202C11.7803 30.9545 11.802 32.0859 11.802 32.0859C11.802 32.0859 14.1084 32.1077 14.6741 31.716C14.6741 31.716 15.0005 32.2817 14.7394 32.9998Z" fill="#FFFDFF"/>
<path d="M14.6739 31.7157C14.6303 31.7592 14.5651 31.7809 14.4998 31.8027C14.4998 31.8027 14.4998 31.8027 14.4998 31.7809C14.391 31.2587 14.3693 30.5843 14.2605 29.9315C14.0864 28.8871 12.7156 30.3232 11.5407 29.9315C11.5407 29.9315 10.5616 28.6696 8.77746 29.1047C7.27616 29.4746 6.36232 30.6495 6.12298 31.6286C5.97068 32.1943 6.05771 32.7165 6.38408 32.9559L14.7391 32.9776C15.0002 32.2814 14.6739 31.7157 14.6739 31.7157Z" stroke="#6C1A40" stroke-width="0.5" stroke-miterlimit="10" stroke-linecap="round" stroke-linejoin="round"/>
<path d="M11.5405 29.9536C11.5405 29.9536 11.9757 30.4976 12.0845 31.0198" stroke="#6C1A40" stroke-width="0.5" stroke-miterlimit="10" stroke-linecap="round" stroke-linejoin="round"/>
<path d="M11.8024 24.4488L10.0835 23.8613L11.5848 29.9536C11.5848 29.9536 12.3028 30.541 13.4777 30.1059L11.8024 24.4488Z" fill="#54B55A"/>
<path d="M13.4773 30.0843C12.2806 30.737 11.5844 29.932 11.5844 29.932L11.3015 28.8005L11.1927 28.3654L11.1274 28.1043C11.7149 27.7997 12.781 27.7126 12.781 27.7126L12.8463 27.952L12.9986 28.4307L13.4773 30.0843Z" fill="#FFFDFF"/>
<path d="M12.9773 28.4521L11.2802 28.8219L11.1714 28.3868C11.6718 28.2562 12.3463 28.1039 12.825 27.9734L12.9773 28.4521Z" fill="#FFB500"/>
<path d="M10.0835 23.8613L11.5848 29.9536C11.5848 29.9536 12.3028 30.7586 13.4777 30.1059L11.8459 24.5793" stroke="#6C1A40" stroke-width="0.5" stroke-miterlimit="10" stroke-linecap="round" stroke-linejoin="round"/>
<path d="M4.79543 20.8804C4.79543 20.8804 5.94861 20.1189 6.92771 20.3582C7.95034 20.5976 8.10265 22.3382 7.99386 23.1868C7.90682 24.0353 7.08002 23.97 7.08002 23.97C7.08002 23.97 6.77541 25.0579 5.92685 24.5358C5.92685 24.5358 5.99212 25.3843 5.01301 25.2973C4.0339 25.1885 3.25062 24.0353 3.92511 23.4696C3.92511 23.4696 2.85897 23.3391 3.0548 21.9683C3.0548 21.9683 0.857241 19.7925 1.0313 17.3121C1.16185 15.5497 5.27411 14.897 5.27411 14.897C5.27411 14.897 6.10091 15.4409 5.88333 16.6594C5.88333 16.6594 3.75105 16.9205 3.07655 17.3556C3.09831 17.3556 3.99039 20.2059 4.79543 20.8804Z" fill="#54B55A"/>
<path d="M5.88361 16.6594C5.88361 16.6594 3.75132 16.9205 3.07683 17.3556C3.07683 17.3556 3.9689 20.2059 4.77395 20.8804C4.77395 20.8804 5.92712 20.1189 6.90623 20.3582C7.92885 20.5976 8.08116 22.3382 7.97237 23.1868C7.88534 24.0353 7.05854 23.97 7.05854 23.97C7.05854 23.97 6.75392 25.0579 5.90536 24.5358C5.90536 24.5358 5.97064 25.3843 4.99153 25.2973C4.01242 25.1885 3.22913 24.0353 3.90363 23.4696C3.90363 23.4696 2.83749 23.3391 3.03331 21.9683C3.03331 21.9683 0.835756 19.7925 1.00982 17.3121C1.14037 15.5497 5.25262 14.897 5.25262 14.897" stroke="#6C1A40" stroke-width="0.5" stroke-miterlimit="10" stroke-linecap="round" stroke-linejoin="round"/>
<path d="M3.9248 23.4695C3.9248 23.4695 4.33821 24.3616 5.05622 24.1222" stroke="#6C1A40" stroke-width="0.5" stroke-miterlimit="10" stroke-linecap="round" stroke-linejoin="round"/>
<path d="M5.92627 24.5576C5.92627 24.5576 6.29615 23.361 5.92627 22.73" stroke="#6C1A40" stroke-width="0.5" stroke-miterlimit="10" stroke-linecap="round" stroke-linejoin="round"/>
<path d="M7.08008 23.9919C7.08008 23.9919 7.38469 22.9476 7.08008 22.186" stroke="#6C1A40" stroke-width="0.5" stroke-miterlimit="10" stroke-linecap="round" stroke-linejoin="round"/>
<path d="M4.29492 21.2502C4.29492 21.2502 4.46899 21.0762 4.79536 20.9021" stroke="#6C1A40" stroke-width="0.5" stroke-miterlimit="10" stroke-linecap="round" stroke-linejoin="round"/>
<path d="M2.33691 16.877C2.33691 16.877 2.90262 16.877 3.09844 17.3556" stroke="#6C1A40" stroke-width="0.5" stroke-miterlimit="10" stroke-linecap="round" stroke-linejoin="round"/>
</svg>
