<svg width="26" height="32" viewBox="0 0 26 32" fill="none" xmlns="http://www.w3.org/2000/svg">
<path d="M16.1945 31.8077C15.7715 31.8077 15.31 31.7497 14.8293 31.6337C14.7332 31.6144 14.637 31.595 14.5601 31.5757C14.5217 31.5757 14.4448 31.5563 14.4448 31.5563C14.3486 31.537 14.2717 31.4983 14.214 31.4597C14.1179 31.3823 14.041 31.2663 14.0025 31.1309C14.0025 31.1116 14.0025 31.1116 14.0025 31.0923C14.0025 31.0729 14.0025 31.0343 13.9833 31.0149C13.9448 30.7442 13.9256 30.4735 13.9641 30.2222C14.041 29.5261 14.4255 28.946 15.0024 28.6946C15.2716 28.5786 15.56 28.5206 15.8676 28.5206H15.8869C15.9445 28.5206 15.983 28.4819 16.0022 28.4239C16.0214 28.3465 16.0407 28.2692 16.0599 28.1919C16.0791 28.1532 16.0791 28.0952 16.0407 28.0758C16.0022 28.0178 15.9638 27.9598 15.9253 27.8825C15.9061 27.8438 15.8676 27.8051 15.8099 27.8051C15.8099 27.8051 15.8099 27.8051 15.7907 27.8051C15.6369 27.8245 15.4831 27.8245 15.3485 27.8245C14.8293 27.8245 14.0987 27.7278 13.5987 27.2251C12.8488 26.4516 13.1373 25.1754 13.2911 24.6533C13.3103 24.6147 13.2911 24.5567 13.2526 24.5373C13.2334 24.518 13.1949 24.4987 13.1757 24.4987C13.1565 24.4987 13.1565 24.4987 13.1373 24.4987C12.3681 24.808 11.6759 25.0401 11.0606 25.1754C11.0414 25.1754 11.0222 25.1948 11.0222 25.1948C9.90696 26.1229 8.83019 27.109 7.83034 28.1145C7.79188 28.1532 7.79188 28.1919 7.81111 28.2305C7.86879 28.3659 7.88802 28.4819 7.90725 28.5979C7.92647 28.8106 7.86879 28.9846 7.75342 29.12C7.61883 29.2553 7.44578 29.3134 7.31118 29.3327C7.27272 29.3327 7.2535 29.352 7.23427 29.3907C7.21504 29.41 7.21504 29.4487 7.21504 29.4874C7.29195 29.7194 7.29195 29.9901 7.21504 30.2802C7.1189 30.6669 6.86894 30.9956 6.52283 31.1696C6.50361 31.189 6.48438 31.189 6.48438 31.2083C6.34978 31.4403 6.06136 31.595 5.84985 31.6724H5.83063C5.79217 31.6917 5.73449 31.711 5.69603 31.7304C5.61912 31.7497 5.52298 31.769 5.40761 31.769C4.86923 31.769 4.13857 31.4597 3.29253 30.8796C1.85044 29.8741 1.04286 28.4046 0.96595 28.2305C0.96595 28.2305 0.96595 28.2305 0.96595 28.2112C0.908266 28.1338 0.619847 27.6891 0.389111 27.0897C0.100692 26.3163 0.0430079 25.6782 0.254516 25.1368C0.369883 24.808 0.562163 24.576 0.792899 24.46C0.792899 24.46 0.792899 24.46 0.812127 24.46C1.36974 24.0926 1.85044 23.8992 2.33114 23.8026C2.46573 23.7832 2.5811 23.7639 2.7157 23.7639C3.38867 23.7639 3.94629 24.1119 4.35007 24.75C4.48467 24.9821 4.61926 25.2528 4.7154 25.5621C4.73463 25.6395 4.75386 25.6975 4.77309 25.7748C4.79232 25.8522 4.81154 25.9102 4.83077 25.9875C4.83077 26.0262 4.85 26.0455 4.86923 26.0842C4.88846 26.1229 4.92691 26.1616 4.96537 26.1616H4.9846C5.02305 26.1616 5.06151 26.1422 5.08074 26.1036C5.11919 26.0455 5.17688 25.9875 5.23456 25.9489C5.3307 25.8909 5.42684 25.8522 5.56143 25.8522C5.65757 25.8522 5.77294 25.8715 5.88831 25.9102C5.96522 25.9295 6.06136 25.9682 6.1575 26.0262C6.17673 26.0456 6.19596 26.0455 6.21519 26.0455C6.23441 26.0455 6.27287 26.0262 6.2921 26.0069C6.6382 25.6782 7.00353 25.3494 7.38809 25.0207C7.42655 25.0014 7.42655 24.9627 7.42655 24.9241C7.42655 24.8854 7.38809 24.8467 7.34964 24.8274C7.19581 24.7694 7.04199 24.692 6.90739 24.634C6.44592 24.402 6.09982 24.1119 5.96522 23.8606C5.90754 23.7446 5.88831 23.6479 5.92677 23.5899C5.96522 23.5125 6.02291 23.4545 6.21519 23.4545C6.33055 23.4545 6.44592 23.4738 6.59974 23.4932C6.83048 23.5319 7.09967 23.5512 7.42655 23.5512C7.5996 23.5512 7.79188 23.5319 7.96493 23.5125C8.96479 23.3772 11.0222 22.4104 11.6375 19.7033C11.7721 19.0845 11.8682 18.3884 11.9067 17.6343C11.9067 17.5957 11.8874 17.5377 11.849 17.5183C11.8298 17.5183 11.8105 17.499 11.8105 17.499C11.7721 17.499 11.7528 17.5183 11.7336 17.5377C11.2337 18.0404 9.92618 19.2006 8.83019 19.2006C8.63791 19.2006 8.48409 19.1619 8.31103 19.1039C7.86879 18.9105 7.54192 18.4658 7.36886 17.7504C7.13813 17.2089 7.1189 16.6095 7.1189 16.3582C7.1189 16.3001 7.08044 16.2615 7.02276 16.2421C6.75357 16.2035 6.54206 16.1068 6.42669 15.9908C6.2921 15.8554 6.21519 15.7201 6.21519 15.5847C6.21519 15.5074 6.23441 15.43 6.2921 15.3527C6.31133 15.3333 6.31133 15.2947 6.2921 15.256C6.27287 15.2173 6.25364 15.198 6.23441 15.1787C6.06136 15.1013 5.88831 15.0046 5.73449 14.8693C4.92691 14.1925 5.00382 13.0323 5.06151 12.5683C5.06151 12.5683 5.06151 12.5683 5.06151 12.5489C5.06151 12.5296 5.08074 12.4523 5.08074 12.4136C5.08074 12.3749 5.09996 12.3556 5.09996 12.3362C5.09996 12.2976 5.11919 12.2589 5.13842 12.2202C5.13842 12.2009 5.15765 12.1816 5.15765 12.1622C5.52298 11.0021 6.75357 10.4413 7.44578 10.2093C8.06107 10.0159 8.59945 9.91923 9.09938 9.91923C9.13784 9.91923 9.15706 9.91923 9.19552 9.91923C9.2532 9.91923 9.31089 9.91923 9.36857 9.93857C9.40703 9.93857 9.42626 9.93857 9.46471 9.93857C9.48394 9.93857 9.5224 9.93857 9.56085 9.9579C9.59931 9.9579 9.61854 9.9579 9.63776 9.97724C10.1954 10.0739 10.5799 10.2673 10.8107 10.6153C10.8491 10.6733 10.8876 10.7507 10.926 10.8087C10.9453 10.8474 10.9837 10.8667 11.0222 10.8667C11.0414 10.8667 11.0414 10.8667 11.0606 10.8667C11.1183 10.8474 11.1375 10.7894 11.1375 10.7313C11.0222 10.1126 10.8876 9.14579 11.0414 7.98562C11.1952 6.92213 11.6759 6.18736 12.0605 5.76197C12.2143 5.58794 12.4066 5.43325 12.5796 5.27856C12.6181 5.25923 12.6373 5.22055 12.6181 5.16255C12.6181 5.12387 12.5796 5.0852 12.5412 5.06587C12.3297 4.98852 12.1759 4.89184 12.0989 4.83383C12.0797 4.83383 12.0605 4.8145 12.0605 4.8145C12.0605 4.8145 12.0413 4.8145 12.0413 4.79516C12.022 4.79516 12.0028 4.77582 12.0028 4.75649C12.0028 4.73715 12.022 4.69848 12.0413 4.69848C12.7335 4.67914 13.7525 4.1184 14.041 3.71234C14.2525 3.40296 14.5601 3.24827 14.7139 3.17093C14.7524 3.15159 14.7909 3.09358 14.7716 3.05491C14.5601 1.74005 12.1374 1.45001 12.1182 1.45001C12.0989 1.45001 12.0797 1.43068 12.0797 1.41134C11.9259 0.676568 12.6566 0.115821 12.695 0.0964845C12.695 0.0964845 12.7142 0.0771484 12.7335 0.0771484C13.3488 0.193165 14.464 0.483207 14.7716 0.908601C15.0985 1.37267 15.4062 2.59084 15.5023 2.95823C15.5215 3.01624 15.56 3.03557 15.6177 3.05491C16.0407 3.07425 16.5021 3.24827 16.8867 3.40296C17.0982 3.4803 17.2905 3.55765 17.4443 3.59632C17.5405 3.61566 17.6943 3.63499 17.9058 3.63499C18.3673 3.63499 18.9826 3.57698 19.2517 3.53831C19.271 3.53831 19.2902 3.53831 19.2902 3.55765C19.3094 3.57698 19.3094 3.59632 19.2902 3.61566C19.1941 3.78968 19.0787 3.94437 18.9056 4.07972C18.8672 4.09906 18.848 4.13773 18.8672 4.1764C18.8864 4.21508 18.9056 4.25375 18.9249 4.27309C19.1172 4.35043 19.3863 4.50512 19.7132 4.77582C20.2131 5.18188 20.9054 5.95533 21.2899 7.28952C21.6552 8.52703 21.9244 9.59052 21.9244 10.9634C21.9244 11.6015 21.8475 12.2782 21.7129 13.0323C21.7129 13.071 21.7322 13.1097 21.7514 13.1484C21.7706 13.1677 21.7898 13.1677 21.8283 13.1677C21.8475 13.1677 21.8668 13.1677 21.886 13.1484C22.2129 12.9937 22.5205 12.8583 22.8282 12.781C23.0973 12.7036 23.3473 12.665 23.5973 12.665C23.9049 12.665 24.1741 12.723 24.4241 12.839C24.9048 13.0517 25.2124 13.3804 25.3662 13.8251C25.5585 14.4439 25.3855 15.14 25.1932 15.6234C25.174 15.6814 25.1932 15.7394 25.2509 15.7587C25.5201 15.9134 25.6739 16.1648 25.6547 16.4548C25.6547 16.7062 25.5201 16.9576 25.3086 17.1703C25.3086 17.1703 25.3086 17.1703 25.2893 17.1896C25.2509 17.2283 25.2509 17.2863 25.2701 17.325C25.4432 17.5957 25.8085 18.3691 25.4432 19.5293C25.2509 20.148 24.8279 20.5734 24.2126 20.7861C23.8857 20.9021 23.578 20.9215 23.4242 20.9215C23.3858 20.9215 23.3473 20.9408 23.3281 20.9602C23.155 21.1922 22.8858 21.3662 22.5782 21.4436C22.4436 21.4822 22.309 21.5016 22.1552 21.5016C21.8668 21.5016 21.5783 21.4049 21.3861 21.2502C21.3668 21.2309 21.3476 21.2115 21.3091 21.1922C21.2899 21.1728 21.2515 21.1535 21.2322 21.1535C21.213 21.1535 21.1745 21.1535 21.1553 21.1728C21.0976 21.2115 21.0399 21.2502 20.9823 21.2889C20.79 21.4049 20.54 21.4629 20.2901 21.4629C19.9055 21.4629 19.5209 21.3275 19.2902 21.0762C19.1556 20.9602 19.0595 20.8055 18.9826 20.6314C18.9633 20.5928 18.9249 20.5734 18.8864 20.5541H18.8672C18.8287 20.5541 18.7903 20.5734 18.771 20.5928C18.5211 20.9215 18.2519 21.2309 17.9827 21.5016C17.0213 22.4877 16.2522 22.9131 16.156 22.9518C16.0984 22.9711 15.6561 23.2225 15.0024 23.5512C14.9639 23.5705 14.9447 23.5899 14.9447 23.6285C14.9447 23.6285 14.9447 23.6285 14.9447 23.6479C14.9447 23.6672 14.464 25.2528 15.1946 25.7555C15.31 25.8329 15.4446 25.8715 15.6177 25.8715C15.6753 25.8715 15.733 25.8715 15.8099 25.8522C15.8676 25.8522 15.9061 25.7942 15.9061 25.7362C15.8869 25.4075 16.0214 25.0594 16.4637 25.0014C16.5214 25.0014 16.5598 24.9821 16.6175 24.9821C16.6944 24.9821 16.7521 24.9821 16.8098 25.0014H16.829C16.8675 25.0014 16.8867 24.9821 16.9059 24.9627C16.9636 24.9047 17.0213 24.866 17.079 24.8274C17.1944 24.7694 17.3097 24.75 17.4635 24.75C17.502 24.75 17.5212 24.75 17.5597 24.75H17.5789C17.5789 24.75 17.5789 24.75 17.5981 24.75H17.6174C17.6366 24.75 17.6366 24.75 17.6558 24.75C17.6943 24.75 17.752 24.7694 17.7904 24.7694C17.8673 24.7887 17.9442 24.808 18.0212 24.8274C18.0788 24.8467 18.1173 24.866 18.1365 24.8854C18.4057 25.0981 18.5595 25.6008 18.6365 25.8329C18.8287 26.4903 18.8864 27.167 18.9249 27.6891C19.021 28.9653 18.8672 29.9514 18.5019 30.7056C18.4634 30.7829 18.4249 30.8409 18.3673 30.9182C17.8673 31.5563 17.1174 31.8077 16.1945 31.8077ZM11.1952 11.4274C11.1183 11.4274 11.0799 11.4855 11.0799 11.5435C11.0606 12.0655 10.8491 12.6843 10.5415 13.2064C10.5415 13.2257 10.5223 13.2257 10.5223 13.245C10.503 13.2837 10.503 13.3224 10.503 13.3417C10.5992 13.6124 10.5992 13.8831 10.5223 14.1152C10.4069 14.4245 10.1377 14.6953 9.75313 14.8693C9.7339 14.8693 9.71468 14.8886 9.69545 14.8886C9.67622 14.9079 9.63776 14.9273 9.63776 14.9466C9.61854 14.966 9.61854 15.0046 9.63776 15.0433C9.67622 15.14 9.71468 15.2753 9.69545 15.4494C9.65699 15.6427 9.5224 15.7974 9.27243 15.9328H9.2532H9.23398C9.19552 15.9521 9.17629 15.9908 9.17629 16.0294C9.15706 16.2035 9.13784 16.8029 9.44548 17.0543C9.48394 17.0929 9.54162 17.1123 9.65699 17.1123C9.90696 17.1123 10.2915 16.9382 10.7722 16.5709C11.2337 16.2228 11.6567 15.8167 11.7336 15.7394L11.7528 15.7201C11.8105 15.7201 11.849 15.6621 11.849 15.604C11.7913 14.4245 11.6567 13.3417 11.5413 12.6456C11.5029 12.3749 11.426 12.0462 11.3491 11.7175C11.3298 11.6401 11.3106 11.5628 11.2914 11.4855C11.2914 11.4661 11.2529 11.4274 11.1952 11.4274ZM22.4244 15.314C22.1744 15.314 21.7129 15.5267 21.0976 15.9521C21.0784 15.9714 21.0592 15.9908 21.0592 16.0101C21.0207 16.1455 20.9823 16.2808 20.9438 16.4162C20.9054 16.5515 20.8477 16.7062 20.8092 16.8609C20.79 16.8996 20.8092 16.9576 20.8477 16.9769C20.8669 16.9962 20.9054 17.0156 20.9246 17.0156C20.9438 17.0156 20.9438 17.0156 20.963 17.0156C21.1553 16.9382 21.3668 16.8996 21.5976 16.8802C21.6552 16.8802 21.6937 16.8222 21.6937 16.7836C21.6937 16.7449 21.6937 16.7062 21.7129 16.6675C21.8091 16.3001 22.0206 16.0488 22.3859 15.9714C22.482 15.9521 22.559 15.9328 22.6551 15.9328C22.6743 15.9328 22.7128 15.9328 22.732 15.9328C22.7512 15.9328 22.7897 15.9134 22.8089 15.8941C22.8282 15.8748 22.8474 15.8361 22.8474 15.8167C22.8474 15.5654 22.7512 15.3913 22.5205 15.314C22.5013 15.314 22.4628 15.314 22.4244 15.314Z" fill="#FF4339"/>
<path d="M15.5019 10.5382C15.5019 10.5382 15.2327 9.70674 15.3673 9.146C15.5019 8.58525 16.0403 7.94716 16.7132 7.96649C17.3862 8.00517 17.6746 8.97197 17.5593 9.64874C17.4439 10.3255 16.9055 10.7316 16.9055 10.7316C16.9055 10.7316 16.1172 10.4028 15.5019 10.5382Z" fill="white"/>
<path d="M11.7334 9.97737C11.7334 9.97737 11.5027 8.99123 11.7334 8.31447C11.9641 7.61837 12.9255 7.367 13.4255 7.5797C13.9254 7.79239 13.9639 9.06858 13.9062 9.31995C13.8485 9.57132 13.5216 9.99671 13.5216 9.99671L12.6756 10.0547C12.6756 10.0547 12.1757 9.84202 11.7334 9.97737Z" fill="white"/>
<path d="M22.8474 16.0876C22.8474 16.0876 22.9051 16.803 23.7511 16.7837C24.5972 16.7837 25.0971 15.9136 25.0971 15.9136C25.0971 15.9136 25.6162 15.9522 25.6162 16.5323C25.6355 17.1124 25.2317 17.3638 25.2317 17.3638C25.2317 17.3638 25.8854 18.3693 25.424 19.5488C24.9625 20.7283 23.3858 20.941 23.3858 20.941C23.3858 20.941 23.232 21.3857 22.4821 21.5017C21.7322 21.6177 21.213 21.173 21.213 21.173C21.213 21.173 20.6362 21.5791 19.8671 21.3664C19.098 21.1537 18.9634 20.6896 19.0211 20.0515C19.0787 19.4134 19.5787 18.988 19.5787 18.988C19.5787 18.988 19.7133 17.9632 20.2324 17.4025C20.7516 16.8417 21.7322 16.8224 21.7322 16.8224C21.7322 16.8224 21.7514 16.4163 22.0398 16.1263C22.3475 15.8362 22.8474 16.0876 22.8474 16.0876Z" fill="white"/>
<path d="M23.3664 17.8278C24.424 17.9245 24.7508 17.4411 24.7508 17.4411C23.8279 17.7698 22.8281 17.5571 22.7704 17.1124C22.7127 16.6677 23.2126 16.7064 23.2126 16.7064C22.9626 16.5323 22.7896 16.0103 22.7896 16.0103C22.7896 16.0103 22.0397 16.1263 21.8474 16.339C21.6551 16.5517 21.7513 16.7837 21.7705 17.0157C21.7897 17.2091 22.3089 17.7312 23.3664 17.8278Z" fill="#C9C3B5"/>
<path d="M25.001 20.303C25.0202 20.2837 25.0202 20.2837 25.0202 20.2837C25.0202 20.2837 25.001 20.2837 25.001 20.303Z" fill="#C9C3B5"/>
<path d="M24.5583 20.593C24.2699 20.6896 24.1738 20.477 24.0969 20.1096C24.0969 20.0709 24.0776 20.0516 24.0776 20.0322C24.0199 19.8582 23.77 19.8775 23.7508 20.0709C23.7315 20.2062 23.6931 20.3803 23.6354 20.5543C23.4239 21.057 23.2893 21.3471 22.7124 21.3084C22.1356 21.2697 22.5009 20.941 22.5394 20.2836C22.5394 20.1676 22.5394 20.0709 22.5202 19.9742C22.4817 19.7422 22.1548 19.7035 22.0779 19.9355C22.001 20.1289 21.9049 20.3609 21.7126 20.6123C21.2319 21.2504 20.6743 20.999 20.5397 20.7477C20.4051 20.4963 20.5397 20.1289 20.5397 20.1289C21.0781 19.5682 21.0396 18.64 21.0396 18.64C21.0588 18.0599 20.8089 17.6926 20.5012 17.9633C20.1936 18.234 19.8859 18.8527 19.8859 18.8527C19.8859 18.8527 19.636 19.0074 19.3668 19.1428C19.0976 19.2588 19.0591 19.7615 19.0976 20.477C19.136 21.1924 19.5975 21.3084 20.1744 21.5211C20.7704 21.7338 21.328 21.2117 21.3665 21.2504C21.4049 21.2891 21.8472 21.5211 22.4433 21.5598C23.0393 21.5791 23.4431 21.0764 23.4431 21.0764C23.4431 21.0764 23.8277 21.0764 24.2122 20.9797C24.5391 20.9023 24.9237 20.477 25.0198 20.3609C24.9429 20.3609 24.7891 20.5156 24.5583 20.593Z" fill="#C9C3B5"/>
<path d="M10.81 12.2591C10.6946 12.1431 10.9253 11.9497 10.9253 11.7757C10.9061 11.5437 10.7331 11.3503 10.9253 11.2343C10.6754 10.6156 9.84858 9.76477 7.98347 10.2868C6.09913 10.8089 5.2531 11.7951 5.23387 12.6072C5.21464 13.4386 5.00313 14.7341 6.52214 15.1982C6.52214 15.1982 6.27218 15.5269 6.50292 15.8363C6.73365 16.1457 7.94501 16.223 8.67568 16.049C9.40634 15.875 9.56016 15.7396 9.63707 15.5076C9.69476 15.2949 9.56016 14.9662 9.56016 14.9662C9.56016 14.9662 10.3101 14.5795 10.4446 14.1347C10.5792 13.69 10.3677 13.2839 10.3677 13.2839C10.3677 13.2839 10.6177 12.7812 10.81 12.2591Z" fill="white"/>
<path d="M8.3301 15.0243C8.3301 15.0243 8.15704 15.0823 8.08013 14.7343C8.02245 14.3669 8.09936 14.1155 8.09936 14.1155L7.79171 14.0189C7.92631 14.0382 8.09936 14.0382 8.3301 13.9802C8.90693 13.8448 8.98385 13.5935 9.00307 13.5741C9.0223 13.5548 9.48377 13.6708 10.0991 13.4774C10.7144 13.2841 10.7144 12.472 10.7144 12.472C10.7144 12.472 10.0222 12.7233 9.77219 12.6653C9.52223 12.6073 9.61837 12.2399 9.503 11.7952C9.40686 11.3698 8.84925 11.4665 8.81079 11.5052C8.77234 11.5438 8.96462 11.9112 8.96462 11.9112C8.96462 11.9112 9.06076 12.5106 8.94539 12.704C8.83002 12.8974 8.31087 12.9747 8.17627 12.8394C8.00322 12.6847 8.00322 12.0659 7.7148 11.8145C7.42638 11.5825 7.25333 11.7565 7.25333 11.7759C7.25333 11.7952 7.46484 12.762 7.46484 12.762C7.46484 12.762 7.44561 12.994 7.21487 13.1101C6.98414 13.2261 6.46498 13.2648 6.38807 12.9167C6.29193 12.5493 5.84969 12.4333 5.84969 12.4333C5.84969 12.4333 5.52281 13.0907 5.73432 13.9222C5.96506 14.8696 6.48421 15.1404 7.08028 15.237C7.69557 15.3337 8.3301 15.0243 8.3301 15.0243ZM7.59943 13.9415L7.54175 13.9222C7.54175 13.9222 7.56098 13.9222 7.59943 13.9415ZM6.71495 14.4056C6.69572 14.4056 6.69572 14.4056 6.67649 14.3862C6.7534 14.3669 6.84954 14.3669 6.96491 14.3476C7.08028 14.3282 7.19565 14.3089 7.27256 14.2702C7.09951 14.3862 6.90723 14.4829 6.71495 14.4056Z" fill="#C9C3B5"/>
<path d="M9.46466 14.947C9.46466 14.947 7.7726 15.1017 7.61878 15.3337C7.61878 15.3337 8.52249 15.121 8.58018 15.5658C8.63786 16.0105 7.44573 16.1072 7.13808 16.0879C6.83043 16.0685 7.92643 16.3392 8.69554 16.0298C9.46466 15.7205 9.59926 15.7205 9.59926 15.5078C9.59926 15.2951 9.48389 14.947 9.46466 14.947Z" fill="#C9C3B5"/>
<path d="M9.88745 13.6514C9.46443 13.7094 9.06064 13.6127 9.06064 13.6127L8.69531 14.0768C8.69531 14.0768 9.42598 13.7867 9.61825 14.1348C9.82976 14.4828 9.40675 14.9082 8.81068 14.9662C8.81068 14.9662 9.31061 15.0436 9.88745 14.7342C10.4643 14.4441 10.4835 13.9414 10.4835 13.8447C10.5027 13.748 10.3489 13.458 10.3489 13.458C10.3489 13.458 10.3105 13.574 9.88745 13.6514Z" fill="#C9C3B5"/>
<path d="M14.2522 12.9553C14.1753 12.9553 14.156 13.0713 14.2137 13.0907C14.406 13.168 14.6752 13.2454 15.0021 13.1294C15.3097 13.0327 15.502 12.878 15.6174 12.7233C15.6558 12.6653 15.5981 12.5879 15.5404 12.6266C15.0021 12.9167 14.5406 12.9553 14.2522 12.9553Z" fill="#FF8A3B"/>
<path d="M25.2028 14.1918C25.3617 14.0196 25.2129 13.6209 24.8704 13.3013C24.5279 12.9817 24.1215 12.8622 23.9625 13.0344C23.8036 13.2066 23.9525 13.6053 24.2949 13.9249C24.6374 14.2445 25.0439 14.364 25.2028 14.1918Z" fill="#FF8A3B"/>
<path d="M8.96919 19C9.14247 18.7977 8.99598 18.3852 8.64199 18.0785C8.288 17.7718 7.86057 17.6871 7.68729 17.8894C7.51401 18.0917 7.6605 18.5042 8.01449 18.8109C8.36848 19.1176 8.79591 19.2023 8.96919 19Z" fill="#FF8A3B"/>
<path d="M0.523393 24.8277L1.77321 24.0156C1.77321 24.0156 2.79229 23.5708 3.33068 23.8802C3.86906 24.1896 4.58049 25.2337 4.58049 25.2724C4.58049 25.2917 4.98428 26.4519 4.98428 26.4519C4.98428 26.4519 5.2727 25.8138 5.77263 25.9492C6.27256 26.0845 7.17627 27.1093 7.56083 27.8635C7.94539 28.6176 7.79157 28.9269 7.6762 29.1396C7.56083 29.3523 7.11859 29.4103 7.11859 29.4103C7.11859 29.4103 7.17627 30.0098 7.09936 30.4158C7.02245 30.8219 6.3687 31.3246 6.33024 31.3633C6.29178 31.402 5.888 31.8467 5.21502 31.7307C4.54204 31.634 2.81152 30.8025 2.0424 29.7777C1.27328 28.7529 0.350341 27.206 0.254201 26.6646C0.119605 26.1232 0.234973 25.0017 0.523393 24.8277Z" fill="#9B6038"/>
<path d="M1.21582 24.2089C1.21582 24.2089 1.85034 23.9769 2.17722 24.1315C2.50409 24.2862 3.08093 24.731 3.52318 25.7558C3.96542 26.7806 4.58071 28.3662 4.83068 28.7142C5.09987 29.0623 6.0805 30.1257 6.40737 30.5318C6.73425 30.9379 6.292 31.3439 6.292 31.3439C6.292 31.3439 5.98436 30.8218 5.40752 30.2418C4.83068 29.6617 4.11924 28.8302 3.79237 28.3081C3.48472 27.7861 2.79251 25.6398 2.38873 25.137C1.98494 24.6343 1.31196 24.4022 1.31196 24.4022L1.21582 24.2089Z" fill="white"/>
<path d="M3.19601 24.9244C3.19601 24.9244 4.02281 25.7945 4.21509 25.3305C4.40737 24.8664 3.86899 24.1896 3.31137 23.9576C2.75376 23.7256 2.08078 23.8609 2.10001 23.9383C2.11924 24.0156 3.19601 24.9244 3.19601 24.9244Z" fill="#D8A368"/>
<path d="M4.41408 25.9575C4.4992 25.9138 4.51341 25.7705 4.44581 25.6373C4.37821 25.5041 4.2544 25.4316 4.16927 25.4753C4.08415 25.519 4.06994 25.6624 4.13754 25.7956C4.20514 25.9287 4.32895 26.0012 4.41408 25.9575Z" fill="#D8A368"/>
<path d="M6.56787 27.5695C6.69472 27.4558 6.5685 27.1051 6.28594 26.7862C6.00338 26.4673 5.67149 26.3009 5.54463 26.4146C5.41778 26.5282 5.544 26.8789 5.82656 27.1978C6.10912 27.5167 6.44101 27.6831 6.56787 27.5695Z" fill="#D8A368"/>
<path d="M0.446289 27.2832C0.446289 27.2832 1.02313 28.482 2.71519 29.4102C4.40725 30.3383 4.88795 29.8742 4.88795 29.8742C4.88795 29.8742 6.0224 30.7057 6.17622 31.1698C6.33005 31.6338 5.77244 31.8465 5.04177 31.7498C4.31111 31.6532 1.63842 30.0676 0.446289 27.2832Z" fill="#824F2C"/>
<path d="M4.59961 28.308C4.59961 28.308 5.61869 29.5842 6.19553 29.6809C6.77237 29.7776 7.04156 29.5262 6.84928 29.2168C6.657 28.9074 5.79174 27.8053 5.81097 27.7666C5.8302 27.7279 6.73391 28.5787 7.08002 28.5401C7.42612 28.5014 7.42612 28.018 7.29153 27.6699C7.15693 27.3219 7.09925 27.1865 7.09925 27.1865C7.09925 27.1865 7.69531 27.96 7.82991 28.4434C7.9645 28.9268 7.69531 29.2555 7.54149 29.2555C7.38767 29.2555 7.2723 29.5262 7.2723 29.5262C7.2723 29.5262 7.44535 30.0289 7.23384 30.4157C7.02233 30.8217 6.56086 30.8991 6.56086 30.8991C6.56086 30.8991 6.58009 30.5123 6.00325 30.0676C5.42641 29.6229 4.59961 28.308 4.59961 28.308Z" fill="#824F2C"/>
<path d="M16.117 28.1147L15.944 28.5595C15.944 28.5595 14.7711 28.6948 14.3673 29.1589C13.9635 29.6036 13.9827 31.0151 14.0404 31.1892C14.1173 31.3632 14.2519 31.5566 14.3673 31.5952C14.4827 31.6339 16.2709 32.0013 17.1361 31.6339C18.0014 31.2665 18.309 31.0345 18.4821 30.7251C18.6551 30.4157 18.8666 29.1009 18.7705 28.018C18.6744 26.9352 18.3859 25.4463 18.1168 25.2143C17.8476 24.9823 17.3669 25.0016 17.29 25.0016C17.213 25.0016 16.8093 25.2336 16.8093 25.2336C16.8093 25.2336 16.2901 25.137 16.1363 25.3883C16.0017 25.6397 16.0017 26.0264 16.0017 26.0264C16.0017 26.0264 16.2901 25.9297 16.4824 26.3358C16.6747 26.7419 16.617 27.4573 16.4439 27.6893C16.2709 27.9214 15.8094 27.8054 15.8094 27.8054L16.117 28.1147Z" fill="#9B6038"/>
<path d="M14.0794 30.8024C14.0794 30.8024 15.5792 31.1891 16.7521 30.8798C17.925 30.5704 18.0404 30.0096 18.1365 29.6036C18.2519 29.2169 18.3673 28.4627 18.2904 27.3413C18.2135 26.2004 17.6943 25.1176 17.6943 25.1176C17.6943 25.1176 18.1942 25.0596 18.3288 25.311C18.4442 25.5623 19.0403 27.0125 18.9249 28.4047C18.8287 29.7969 18.7518 30.7057 18.2904 30.9958C17.8289 31.2858 16.8483 31.8659 15.7715 31.7692C14.6947 31.6725 14.1756 31.5952 14.1179 31.3632C14.041 31.1505 14.0794 30.8024 14.0794 30.8024Z" fill="white"/>
<path d="M15.5027 30.1045C16.0325 30.0691 16.4443 29.7727 16.4224 29.4423C16.4006 29.112 15.9534 28.8729 15.4236 28.9083C14.8938 28.9437 14.482 29.2402 14.5039 29.5705C14.5257 29.9008 14.9729 30.1399 15.5027 30.1045Z" fill="#D8A368"/>
<path d="M17.131 27.0697C17.2581 27.0612 17.3464 26.8297 17.3281 26.5527C17.3098 26.2756 17.1919 26.0579 17.0647 26.0664C16.9376 26.0749 16.8493 26.3064 16.8676 26.5834C16.8859 26.8605 17.0038 27.0782 17.131 27.0697Z" fill="#D8A368"/>
<path d="M17.2321 27.3232C17.2614 27.2095 17.2184 27.1 17.1362 27.0786C17.0539 27.0572 16.9636 27.132 16.9343 27.2457C16.9051 27.3595 16.948 27.469 17.0303 27.4904C17.1125 27.5118 17.2029 27.4369 17.2321 27.3232Z" fill="#D8A368"/>
<path d="M16.5594 27.4961C16.5594 27.4961 16.3479 27.9795 16.7901 27.9602C17.2131 27.9408 17.3477 27.6508 17.3477 27.6508C17.3477 27.6508 17.1939 28.1342 16.7517 28.1922C16.2902 28.2502 16.0979 28.2309 16.0402 28.1148C16.0018 27.9795 15.8672 27.7668 15.8672 27.7668L16.5594 27.4961Z" fill="#824F2C"/>
<path d="M14.1753 29.8935C14.1753 29.8935 14.0022 30.7637 15.5597 30.7637C17.1171 30.7637 17.5594 30.0289 17.5017 29.5068C17.4248 29.0041 17.9632 29.3134 17.9632 29.8162C17.9632 30.3189 17.7132 30.4736 17.0979 30.7637C16.4826 31.0537 15.8481 31.0344 15.3866 30.9957C14.9251 30.957 14.0599 30.7637 14.0599 30.7637C14.0599 30.7637 13.9637 30.2222 14.1753 29.8935Z" fill="#824F2C"/>
<path d="M12.4832 11.1183C12.4063 11.331 12.5794 11.5824 12.9063 11.8144L12.5986 11.6791C12.5794 11.6597 12.5601 11.6404 12.5601 11.6211C12.4256 11.447 12.3679 11.273 12.3294 11.0603C12.3102 10.983 12.3294 10.8863 12.3486 10.809C11.9641 10.7123 11.6372 10.7896 11.5603 10.983C11.4642 11.215 11.791 11.5437 12.2525 11.7178C12.3679 11.7564 12.4832 11.7951 12.5794 11.8144L12.4448 12.2592C12.4448 12.2592 12.4256 13.0519 13.4639 13.4967C14.5022 13.9414 15.2905 13.4 15.2905 13.4C14.5983 13.6514 13.3293 13.3227 13.2524 12.7232C13.1754 12.1431 13.7523 12.2012 13.7523 12.2012L13.56 12.1238C14.0792 12.2592 14.5214 12.2012 14.6175 11.9498C14.7329 11.6597 14.3291 11.2537 13.7331 11.0217C13.1562 10.7703 12.5986 10.8283 12.4832 11.1183Z" fill="#CE1623"/>
<path d="M16.7323 11.9884C16.8285 11.7564 16.5016 11.4277 16.0401 11.2537C15.5787 11.0796 15.1172 11.1183 15.0403 11.3503C14.9441 11.5824 15.271 11.9111 15.7325 12.0851C16.0209 12.2011 16.3093 12.2205 16.5016 12.1625C16.3285 12.2591 16.1555 12.4138 16.0017 12.6459C15.7133 13.0713 15.6556 13.516 15.8671 13.6513C16.0786 13.7867 16.4631 13.574 16.7516 13.1486C17.04 12.7232 17.0977 12.2785 16.8862 12.1431C16.8092 12.1044 16.8862 11.9884 16.79 12.0271C16.8285 11.9884 16.7131 12.0271 16.7323 11.9884Z" fill="#CE1623"/>
<path d="M12.9641 13.9412C12.9064 13.9025 12.8102 13.9219 12.791 13.9992C12.6756 14.2699 12.5603 14.85 13.464 15.0047C14.2331 15.14 14.6561 14.734 14.8484 14.4439C14.9061 14.3473 14.8292 14.2313 14.7138 14.2506C14.5023 14.3086 14.2139 14.3473 13.8293 14.2699C13.3679 14.1732 13.0987 14.0379 12.9641 13.9412Z" fill="#CE1623"/>
<path d="M13.2811 10.7116C13.6724 10.6757 13.977 10.5086 13.9616 10.3384C13.9462 10.1683 13.6164 10.0594 13.2251 10.0954C12.8338 10.1313 12.5291 10.2983 12.5446 10.4685C12.56 10.6387 12.8897 10.7475 13.2811 10.7116Z" fill="#FF8A3B"/>
<path d="M16.4672 10.8987C16.4789 10.7604 16.2311 10.6261 15.9136 10.5989C15.5962 10.5717 15.3294 10.6617 15.3176 10.8001C15.3059 10.9384 15.5537 11.0726 15.8711 11.0998C16.1886 11.1271 16.4554 11.037 16.4672 10.8987Z" fill="#FF8A3B"/>
<path d="M12.0906 10.5551C12.4067 10.5148 12.6489 10.3705 12.6315 10.2328C12.6142 10.0951 12.3439 10.0161 12.0278 10.0563C11.7118 10.0965 11.4696 10.2408 11.487 10.3785C11.5043 10.5163 11.7746 10.5953 12.0906 10.5551Z" fill="#FF8A3B"/>
<path d="M6.21484 26.2198C6.21484 26.2198 7.92613 24.6149 8.56066 24.1702C8.56066 24.1702 9.71433 25.0403 10.0412 26.0651L7.84922 28.1341C7.86845 28.1147 6.96473 26.6452 6.21484 26.2198Z" fill="white"/>
<path d="M15.3292 26.0457C15.3292 26.0457 15.3869 26.2971 15.4061 26.8578C15.4253 27.4186 15.2715 27.7279 15.2715 27.7279C15.2715 27.7279 16.0406 27.7086 16.2713 27.5926C16.5021 27.4766 16.7136 27.2059 16.6944 26.7418C16.6751 26.2777 16.5213 26.065 16.3098 26.007C16.0791 25.9684 15.5407 26.065 15.3292 26.0457Z" fill="white"/>
<path d="M12.1182 4.81464C12.1182 4.81464 12.6758 4.79531 13.3295 4.38925C14.0025 3.98319 14.0986 3.71248 14.4255 3.48045C14.7524 3.24842 14.9254 3.20974 14.9254 3.20974C14.9254 3.20974 14.5024 2.30095 14.041 2.06891C13.5795 1.83688 12.3874 1.43082 12.3874 1.43082C12.3874 1.43082 12.2143 1.39215 12.2143 1.21812C12.2143 1.0441 12.5604 0.212646 12.9257 0.212646C13.2911 0.212646 14.6755 0.560697 14.9447 1.17945C15.2139 1.79821 15.6561 3.07439 15.6561 3.07439C15.6561 3.07439 16.4252 3.42244 17.3674 3.63514C18.3096 3.8285 19.1748 3.65447 19.1748 3.65447C19.1748 3.65447 18.9633 4.0412 18.6941 4.23456C18.4057 4.42792 17.7904 4.46659 17.7904 4.46659L18.3865 4.93066C18.3865 4.93066 18.4249 4.98867 17.6174 4.98867C16.8098 4.98867 16.233 4.93066 16.233 4.93066L16.3483 5.82012C16.3483 5.82012 15.8292 5.76211 15.4831 5.64609C15.1177 5.53008 14.8485 5.27871 14.8485 5.27871C14.8485 5.27871 14.1371 5.58809 13.791 5.66543C13.4449 5.74277 13.3103 5.74277 13.3103 5.74277L13.6372 5.12402C13.5987 5.10468 12.8488 5.4334 12.1182 4.81464Z" fill="#21D372"/>
<path d="M8.23389 24.5376C8.23389 24.5376 8.7915 25.0017 9.11837 25.5237C9.44525 26.0458 9.56062 26.3552 9.56062 26.3552L9.94518 25.9105C9.94518 25.9105 9.82981 25.5624 9.38756 24.9243C8.94532 24.2862 8.6569 24.1509 8.6569 24.1509L8.23389 24.5376Z" fill="#21D372"/>
<path d="M15.3675 26.1036C15.3675 26.1036 15.406 26.4903 15.3675 27.0511C15.3291 27.5925 15.2329 27.7085 15.2329 27.7085L15.7713 27.7278C15.7713 27.7278 15.9443 27.1091 15.8867 26.645C15.829 26.181 15.7521 25.9683 15.7521 25.9683L15.3675 26.1036Z" fill="#21D372"/>
<path d="M12.5215 9.0686C12.5215 9.0686 12.4446 9.26196 12.5215 9.59068C12.5984 9.91939 12.8291 10.0547 12.8291 10.0547L13.4252 9.99674C13.4252 9.99674 13.7136 9.68736 13.5021 9.37798C13.2906 9.0686 12.5215 9.0686 12.5215 9.0686Z" fill="#218A61"/>
<path d="M16.1946 9.57136C16.1946 9.57136 16.1369 10.0161 16.2523 10.3061C16.3676 10.5962 16.6561 10.6542 16.6561 10.6542C16.6561 10.6542 17.0983 10.6542 17.2137 10.3448C17.329 10.0354 16.7714 9.47468 16.1946 9.57136Z" fill="#218A61"/>
<path d="M12.6372 9.30054C12.6372 9.30054 12.5411 9.78394 13.0026 9.89996C13.0026 9.89996 12.8487 9.68726 12.8872 9.45523C12.8872 9.43589 12.8295 9.30054 12.6372 9.30054Z" fill="#21D372"/>
<path d="M16.329 9.84204C16.329 9.84204 16.2713 10.3254 16.7328 10.4221C16.7328 10.4221 16.5597 10.2288 16.5789 9.97739C16.5789 9.95806 16.5212 9.84204 16.329 9.84204Z" fill="#21D372"/>
<path d="M6.84961 26.7419C6.84961 26.7419 7.33031 26.9932 8.00329 26.7419C8.67627 26.4905 9.19542 25.717 9.19542 25.717L9.54153 26.2778L7.81101 27.9987C7.79178 28.018 7.13803 26.9932 6.84961 26.7419Z" fill="#C9C3B5"/>
<path d="M15.829 27.0126C15.829 27.0126 15.8867 27.1479 16.1944 27.1672C16.502 27.1672 16.6174 26.7805 16.6174 26.7805C16.6174 26.7805 16.7712 27.2833 16.5789 27.496C16.3867 27.7087 15.7329 27.728 15.7329 27.728C15.7329 27.728 15.829 27.1866 15.829 27.0126Z" fill="#C9C3B5"/>
<path d="M9.69531 25.2336C9.69531 25.2336 11.3105 23.4547 13.0025 22.6039C14.0985 22.0625 14.1754 22.7199 13.887 23.0486C13.5986 23.3774 11.6181 24.6922 11.2143 24.9823C10.8105 25.2723 10.0414 25.9104 10.0414 25.9104L9.69531 25.2336Z" fill="#CE1623"/>
<path d="M19.5398 17.0738C19.5398 17.0738 19.2514 17.2672 19.2129 16.6677C19.1745 16.0683 21.2511 14.3861 22.5394 14.1734C23.8276 13.9607 22.9239 15.4302 22.9239 15.4302C22.9239 15.4302 22.6547 15.2369 22.3279 15.2949C22.001 15.3722 19.5398 17.0738 19.5398 17.0738Z" fill="#CE1623"/>
<path d="M10.2333 16.9386C10.2333 16.9386 11.0601 16.4939 11.0409 17.1319C11.0217 17.77 9.7334 18.8529 9.7334 18.8529C9.7334 18.8529 11.0601 17.8667 11.4255 17.6734C11.7908 17.48 11.8677 17.2673 11.8677 17.2286C11.8485 17.2093 11.7716 15.8364 11.7716 15.8364L10.2333 16.9386Z" fill="#CE1623"/>
<path d="M13.2526 25.3109C13.2142 26.0843 13.4065 26.7224 13.4065 26.7224C13.4065 26.7224 13.3103 26.2197 13.6757 25.4269C14.041 24.6148 14.7909 24.6341 14.7909 24.6341L14.9639 23.7446L13.7141 24.1894C13.7141 24.17 13.2719 24.5374 13.2526 25.3109Z" fill="#CE1623"/>
<path d="M21.6356 8.72057C21.0779 6.32289 20.6549 5.80082 20.5011 5.60745C20.3473 5.41409 18.809 4.11857 18.7898 4.13791C18.7706 4.15725 17.8284 4.42795 17.8284 4.46662C17.8284 4.52463 18.386 4.91135 18.2707 5.04671C18.1937 4.9887 18.1168 4.96936 18.0784 4.96936C17.9246 4.95003 17.2131 4.96936 16.694 4.96936C16.3863 4.96936 16.1556 4.9887 16.1556 4.9887C16.1556 4.9887 16.5017 5.74281 16.444 5.74281C16.3863 5.74281 15.9825 5.78148 15.6172 5.62679C15.2519 5.45277 14.7904 5.2594 14.7904 5.2594L13.6367 5.80082C13.6559 5.80082 14.3866 5.54945 14.7904 5.70413C15.2134 5.83949 16.1748 5.99418 16.2902 5.9555C16.4055 5.93617 16.5978 5.78148 16.5978 5.78148C16.5978 5.78148 16.4055 5.49144 16.8286 5.41409C17.2708 5.31741 19.1359 5.72347 20.0781 8.43053C21.2318 11.6983 20.4819 14.27 20.4819 14.27L21.6163 13.4773C21.6356 13.4773 22.2124 11.1182 21.6356 8.72057Z" fill="#CE1623"/>
<path d="M19.3092 18.2725C19.1169 18.7752 18.0017 21.3082 13.6946 23.1258L11.4834 24.9048C11.4834 24.9048 13.0024 24.5374 14.3484 23.8413C15.6943 23.1452 17.5402 22.1397 18.2324 21.3856C18.9246 20.6315 18.9823 20.1674 18.9823 20.1674C18.9823 20.1674 19.2515 19.3746 19.3669 19.2006C19.4822 19.0266 19.6168 19.0073 19.6168 19.0073C19.6168 19.0073 19.6361 18.5432 19.8476 18.1178C20.0591 17.6731 20.6551 17.1123 20.6551 17.1123L20.9243 16.2422L19.3092 17.4217C19.3092 17.4024 19.5976 17.557 19.3092 18.2725Z" fill="#CE1623"/>
<path d="M6.61874 24.0346C6.31109 23.9766 6.33032 24.0733 6.33032 24.0733C6.388 24.6147 7.52245 24.9628 7.52245 24.9628L8.34925 24.3247C7.33017 24.3827 6.92638 24.112 6.61874 24.0346Z" fill="#CE1623"/>
<path d="M17.0658 20.69C18.041 19.8162 18.6483 18.9011 18.4222 18.646C18.1962 18.3908 17.2224 18.8923 16.2472 19.7661C15.272 20.6398 14.6647 21.555 14.8907 21.8101C15.1168 22.0652 16.0906 21.5638 17.0658 20.69Z" fill="#CE1623"/>
<path d="M12.6564 6.98034C12.541 6.99967 12.4449 6.86432 12.5218 6.7483C12.6371 6.59362 12.7717 6.41959 12.8871 6.38092C13.1178 6.32291 13.5793 6.41959 13.9447 6.34225C14.31 6.24557 14.4446 6.07154 14.906 6.16822C15.3675 6.2649 15.7713 7.40573 15.7713 7.40573C15.7713 7.40573 14.906 8.06316 14.5215 9.08797C14.5023 9.14598 14.4061 9.12665 14.4061 9.06864C14.4061 8.52723 14.3484 7.69577 13.9639 7.32839C13.5985 6.94167 13.0217 6.94167 12.6564 6.98034Z" fill="#FF8A3B"/>
<path d="M16.0898 7.54157C16.2843 7.4876 16.3778 7.21018 16.2987 6.92193C16.2196 6.63368 15.9979 6.44376 15.8034 6.49773C15.6088 6.55171 15.5153 6.82913 15.5944 7.11738C15.6735 7.40563 15.8953 7.59555 16.0898 7.54157Z" fill="#FF8A3B"/>
<path d="M16.6869 7.51318C16.8098 7.47909 16.8773 7.33462 16.8378 7.1905C16.7982 7.04637 16.6666 6.95717 16.5437 6.99126C16.4209 7.02534 16.3533 7.16981 16.3929 7.31394C16.4324 7.45806 16.5641 7.54727 16.6869 7.51318Z" fill="#FF8A3B"/>
<path d="M14.6369 15.4882C14.2908 15.6042 13.8294 15.7009 13.2525 15.6235C12.9833 15.5848 12.7526 15.7975 12.7526 16.0682C12.8103 17.1897 12.7911 19.7228 11.772 21.5017C11.772 21.5017 13.3102 20.3028 13.714 17.4024C13.7717 17.035 13.9832 16.7063 14.2908 16.4936C14.5023 16.3583 14.7331 16.1649 14.9446 15.8749C15.0792 15.6815 14.8677 15.4108 14.6369 15.4882Z" fill="#FF8A3B"/>
<path d="M14.688 17.8219C14.9463 17.1781 14.9002 16.5526 14.5851 16.4248C14.2699 16.2969 13.8051 16.7151 13.5468 17.3588C13.2885 18.0026 13.3346 18.6281 13.6497 18.756C13.9649 18.8838 14.4297 18.4656 14.688 17.8219Z" fill="#FF8A3B"/>
<path d="M15.5863 16.9028C15.6089 16.6368 15.4985 16.4101 15.3398 16.3965C15.1811 16.3829 15.0341 16.5875 15.0116 16.8535C14.989 17.1196 15.0994 17.3462 15.2581 17.3599C15.4168 17.3735 15.5638 17.1689 15.5863 16.9028Z" fill="#FF8A3B"/>
<path d="M12.7526 4.73727C12.7526 4.73727 12.5987 4.89196 13.1756 4.89196C13.7524 4.89196 14.31 4.31187 14.4062 4.35055C14.5023 4.38922 14.0985 5.06598 14.3293 4.98864C14.56 4.91129 14.733 4.42789 14.8869 4.52457C15.0407 4.62125 15.5983 5.182 15.6368 5.00797C15.6752 4.83395 15.3868 4.2732 15.6944 4.2732C16.0021 4.2732 16.6366 4.56324 16.8674 4.52457C17.1173 4.4859 16.3674 4.13785 16.502 4.0605C16.6366 3.98316 17.3096 4.15719 17.1173 3.88648C16.925 3.63511 16.0982 3.3064 16.0982 3.3064C16.0982 3.3064 16.8097 3.63511 17.6365 3.67378C18.4633 3.71245 19.0978 3.67378 19.1555 3.67378C19.1939 3.69312 19.1747 3.94449 18.7132 4.13785C18.2518 4.33121 17.8095 4.40855 17.8095 4.40855L18.4056 4.87262C18.4056 4.87262 18.3479 4.98864 17.6942 5.00797C17.0404 5.02731 15.9444 4.87262 15.9444 4.87262C15.9444 4.87262 16.502 5.70407 16.3867 5.70407C16.2713 5.70407 15.8675 5.76208 15.5406 5.56872C15.2137 5.37536 14.6946 5.24001 14.6946 5.24001C14.6946 5.24001 13.887 5.51071 13.6947 5.56872C13.5217 5.64607 13.4063 5.60739 13.4063 5.60739C13.4063 5.60739 13.7524 5.27868 13.5409 5.22067C13.3294 5.16266 12.2911 5.12399 12.3103 4.89196C12.3296 4.6986 12.7526 4.73727 12.7526 4.73727Z" fill="#218A61"/>
<path d="M12.3293 1.10216C12.3485 1.08282 12.3678 0.657428 12.9831 0.812117C13.5984 0.966806 14.4252 1.46954 14.7136 1.97228C15.002 2.47502 15.0212 3.15179 15.0212 3.15179C15.0212 3.15179 14.6174 2.43635 14.1367 2.10764C13.656 1.77892 12.3101 1.46954 12.3101 1.46954C12.3101 1.46954 12.1563 1.25685 12.3293 1.10216Z" fill="#218A61"/>
<path d="M25.7891 16.4937C25.8083 16.165 25.6353 15.8749 25.3276 15.7009C25.5199 15.1788 25.7122 14.4634 25.5007 13.8253C25.3469 13.3419 25.02 12.9939 24.5008 12.7812C24.0201 12.5685 23.4625 12.5491 22.828 12.7232C22.5203 12.8005 22.1935 12.9359 21.8666 13.0905C22.0012 12.3171 22.0589 11.621 22.0781 11.0022C22.0973 9.61005 21.8089 8.54656 21.4436 7.28971C21.0398 5.93619 20.3476 5.14341 19.8284 4.71801C19.5016 4.44731 19.2131 4.29262 19.0209 4.21527C19.1939 4.07992 19.3477 3.92523 19.4439 3.71253C19.4631 3.65453 19.4631 3.59652 19.4246 3.53851C19.3862 3.4805 19.3285 3.46116 19.2708 3.46116C18.9055 3.49984 17.8672 3.59652 17.5018 3.51917C17.348 3.4805 17.1557 3.40316 16.9635 3.32581C16.5597 3.17112 16.079 2.9971 15.656 2.97776C15.5598 2.5717 15.2522 1.37286 14.9061 0.889461C14.4831 0.309378 12.964 0.0386722 12.791 0C12.7525 0 12.6949 0 12.6564 0.0386722C12.6179 0.0580083 11.8296 0.676764 12.0026 1.46954C12.0219 1.54689 12.0796 1.58556 12.1372 1.6049C12.1565 1.6049 14.4831 1.89494 14.6946 3.11311C14.5215 3.19046 14.1946 3.36448 13.9639 3.6932C13.6947 4.07992 12.6949 4.62133 12.0603 4.64067C11.9642 4.64067 11.9065 4.71801 11.9065 4.81469C11.9065 4.89204 11.9642 4.95005 12.0219 4.96938C12.0411 4.96938 12.0411 4.98872 12.0603 4.98872C12.1372 5.04673 12.3103 5.14341 12.5218 5.22075C12.368 5.33677 12.1757 5.49146 11.9834 5.70415C11.5796 6.12955 11.0797 6.88366 10.9451 7.98581C10.7913 9.0493 10.8874 9.97743 11.0412 10.7702C11.0028 10.7122 10.9643 10.6349 10.9259 10.5769C10.6182 10.1515 10.176 9.9581 9.67606 9.88075C9.6376 9.88075 9.52224 9.86142 9.48378 9.86142C9.40687 9.86142 9.31073 9.84208 9.21459 9.84208C8.59929 9.82275 8.00323 9.9581 7.42639 10.1515C6.42653 10.4802 5.40745 11.1183 5.06135 12.1818C5.04212 12.2398 5.02289 12.3171 5.00366 12.3751C5.00366 12.4331 4.96521 12.5685 4.96521 12.6071C4.84984 13.4579 4.98444 14.4247 5.67664 15.0048C5.84969 15.1402 6.02275 15.2562 6.21503 15.3335C6.17657 15.4109 6.13811 15.5076 6.11889 15.6236C6.11889 15.7976 6.1958 15.9716 6.36885 16.1263C6.52267 16.2617 6.75341 16.3584 7.0226 16.397C7.0226 16.9191 7.09951 18.814 8.21473 19.2974C8.38779 19.3748 8.58007 19.4135 8.77235 19.4135C9.9068 19.4135 11.2143 18.2533 11.7527 17.7119C11.7142 18.408 11.6373 19.1234 11.4835 19.7615C10.8874 22.4299 8.86849 23.358 7.90709 23.4934C7.34948 23.5707 6.90723 23.5127 6.58036 23.4547C6.1958 23.3967 5.90738 23.358 5.79201 23.6287C5.75355 23.7061 5.73433 23.8221 5.83047 24.0155C5.98429 24.2862 6.33039 24.5762 6.81109 24.8276C6.94569 24.9049 7.09951 24.9629 7.27256 25.0403C6.90723 25.3496 6.5419 25.6784 6.17657 26.0264C6.08043 25.9684 5.98429 25.9297 5.88815 25.8911C5.5805 25.7944 5.33054 25.8137 5.13826 25.9491C5.06135 26.0071 5.00366 26.0651 4.94598 26.1424C4.92675 26.1038 4.92675 26.0844 4.90752 26.0457C4.86907 25.9104 4.83061 25.775 4.77293 25.6204C4.67679 25.3303 4.56142 25.0403 4.4076 24.7696C3.9269 23.9768 3.19623 23.6094 2.27329 23.7641C1.71568 23.8608 1.19653 24.1315 0.715827 24.4408C0.446635 24.5762 0.254356 24.8276 0.11976 25.1756C-0.360939 26.5098 0.754283 28.2114 0.850423 28.3467C0.927335 28.4821 1.75414 30.0096 3.23469 31.0151C4.09995 31.6145 4.86907 31.9239 5.42668 31.9239C5.54205 31.9239 5.65741 31.9046 5.75355 31.8852C5.81124 31.8659 5.86892 31.8466 5.90738 31.8272C6.13811 31.7692 6.44576 31.5952 6.61881 31.3245C6.98414 31.1311 7.25334 30.7638 7.3687 30.3577C7.44562 30.087 7.44562 29.7776 7.3687 29.5069C7.52253 29.4682 7.73404 29.4102 7.86863 29.2555C8.00323 29.1009 8.08014 28.9075 8.04168 28.6561C8.02245 28.5401 8.00323 28.4047 7.94554 28.2694C9.07999 27.1092 10.1952 26.1231 11.1182 25.3496C11.7335 25.195 12.4449 24.9629 13.214 24.6535C13.041 25.2336 12.7525 26.5485 13.5409 27.3413C14.0408 27.8633 14.7715 27.9794 15.3675 27.9794C15.5406 27.9794 15.6944 27.96 15.829 27.96C15.8675 28.0374 15.9059 28.1147 15.9636 28.1921C15.9251 28.2501 15.9059 28.3467 15.8867 28.4628C15.5598 28.4628 15.2522 28.5208 14.9638 28.6561C14.3292 28.9462 13.9447 29.6036 13.8678 30.2804C13.8293 30.5511 13.8485 30.8411 13.887 31.1118C13.887 31.1505 13.9062 31.1892 13.9062 31.2278C13.9447 31.3825 14.0216 31.5179 14.1562 31.6145C14.2331 31.6726 14.3292 31.7112 14.4254 31.7306C14.56 31.7692 14.6753 31.7886 14.8099 31.8272C16.0405 32.1173 17.5018 32.1173 18.5017 31.2278L18.5209 31.2085V31.1892C18.5786 31.1118 18.6171 31.0345 18.6555 30.9571C19.117 30.029 19.1554 28.9075 19.0978 27.8827C19.0593 27.2446 18.9824 26.6065 18.7901 26.0071C18.694 25.6784 18.5402 25.2143 18.2517 25.0016C18.2133 24.9629 18.1556 24.9436 18.0979 24.9242C18.021 24.9049 17.9441 24.8662 17.8479 24.8469C17.8095 24.8276 17.7518 24.8276 17.6941 24.8276C17.6557 24.8082 17.6172 24.8082 17.5788 24.8082C17.3865 24.7889 17.2134 24.8082 17.0404 24.9049C16.9635 24.9436 16.9058 25.0016 16.8289 25.0596C16.7135 25.0209 16.5789 25.0209 16.4443 25.0403C15.9828 25.0983 15.7713 25.485 15.7906 25.9104C15.579 25.9491 15.406 25.9104 15.2714 25.833C14.7138 25.4463 14.9253 24.2668 15.0599 23.8414V23.8221C15.7329 23.4934 16.1751 23.242 16.2136 23.2227C16.2905 23.184 17.0788 22.7586 18.0595 21.7531C18.3286 21.4631 18.5978 21.1537 18.8478 20.825C18.9247 21.0184 19.0401 21.173 19.1747 21.3277C19.6361 21.7725 20.4629 21.8691 21.0013 21.5598C21.0782 21.5211 21.1359 21.4824 21.1936 21.4244C21.2128 21.4438 21.2513 21.4631 21.2705 21.5018C21.6359 21.7918 22.1358 21.8498 22.578 21.7145C22.9049 21.6371 23.1933 21.4631 23.3856 21.1924C23.5394 21.1924 23.8471 21.173 24.2124 21.057C24.8662 20.8443 25.3084 20.3803 25.5199 19.7228C25.9045 18.5047 25.5199 17.7119 25.3276 17.4218L25.3469 17.4025C25.6353 17.0545 25.7699 16.7837 25.7891 16.4937ZM18.0402 25.195C18.3094 25.3883 18.5017 26.1424 18.5786 26.4905C18.8286 27.8053 18.9632 29.5262 18.3479 30.7638C18.3094 30.8218 18.2902 30.8798 18.2517 30.9378C17.7134 31.4018 16.9058 31.6532 16.079 31.6145C15.5598 31.5952 15.0214 31.4985 14.5023 31.3632C14.4446 31.3438 14.3869 31.3438 14.3485 31.3052C14.2908 31.2665 14.2523 31.2085 14.2331 31.1505C14.2139 31.1118 14.2139 31.0538 14.2139 31.0151C14.56 31.0925 15.2522 31.2278 15.9828 31.2278C16.8096 31.2278 17.6749 31.0538 18.0787 30.4544C18.6171 29.6423 18.5786 28.2694 18.5017 27.5153C18.4056 26.6452 18.1941 25.775 17.9441 25.195C17.9825 25.1563 18.021 25.1756 18.0402 25.195ZM16.6558 25.2916C17.2134 25.253 17.3288 25.9297 17.4826 26.3551C17.5018 26.3938 17.5595 26.3938 17.5595 26.3551C17.6364 25.9491 17.5211 25.427 17.1942 25.1369C17.2519 25.0983 17.3288 25.0789 17.3865 25.0596C17.4442 25.0596 17.5018 25.0596 17.5595 25.0596C18.1364 26.1231 18.5978 29.0428 17.8287 30.203C17.4249 30.7831 16.4443 30.8604 15.6944 30.8411C15.0407 30.8024 14.4446 30.6864 14.1946 30.6284C14.1946 30.493 14.1946 30.377 14.2139 30.2417C14.31 29.5649 14.733 28.9848 15.3868 28.7915C15.579 28.7335 15.7906 28.6948 15.9828 28.6948C16.0021 28.6948 16.0213 28.7141 16.0405 28.7141C16.0597 28.7141 16.079 28.7141 16.0982 28.6948C16.5404 28.6948 16.9827 28.8301 17.3288 29.1009C17.348 29.1202 17.3672 29.1202 17.3865 29.1009C17.4442 29.0622 17.3672 29.0042 17.348 28.9655C17.2903 28.9075 17.2327 28.8495 17.175 28.7915C16.9058 28.5788 16.5789 28.4434 16.2328 28.3854C16.2328 28.3467 16.252 28.3274 16.252 28.2887C16.4251 28.3661 16.6174 28.3661 16.7904 28.3467C17.3096 28.2501 17.598 27.67 17.5595 27.1672C17.5595 27.1286 17.5018 27.1286 17.4826 27.1672C17.3672 27.4379 17.2711 27.6893 17.0596 27.902C16.925 28.018 16.7904 28.0567 16.6174 28.0567C16.4251 28.0567 16.2713 27.9794 16.1943 27.844C16.2136 27.844 16.2328 27.844 16.252 27.8247C16.4828 27.786 16.675 27.6313 16.752 27.4186C16.8673 27.0899 16.9827 26.5872 16.7327 26.0844C16.6366 25.8717 16.4058 25.7364 16.1751 25.7557C16.1751 25.4657 16.3482 25.311 16.6558 25.2916ZM15.8675 26.1618C15.9444 26.1424 16.0405 26.1231 16.1367 26.1038C16.252 26.0651 16.3674 26.1231 16.4251 26.2391C16.6174 26.6452 16.5404 27.0512 16.4251 27.3219C16.3866 27.4379 16.2905 27.5153 16.1751 27.5346C16.0982 27.554 15.9828 27.5733 15.8482 27.5733C16.0213 27.0126 15.9251 26.4518 15.8675 26.1618ZM15.4637 26.1618C15.5214 26.1811 15.5983 26.1811 15.6752 26.1811C15.7329 26.4325 15.8482 27.0319 15.656 27.5926C15.579 27.5926 15.4829 27.5926 15.3868 27.5926C15.579 27.1286 15.5214 26.5098 15.4637 26.1618ZM14.2523 3.86722C14.5023 3.49984 14.9253 3.36448 14.9253 3.36448C15.0022 3.34515 15.0407 3.2678 15.0407 3.19046C14.9638 1.77892 12.8679 1.37286 12.3103 1.27618C12.2911 0.831453 12.6564 0.464067 12.8102 0.328714C13.2909 0.425395 14.3677 0.6961 14.6369 1.06349C15.0022 1.56623 15.3483 3.13245 15.3675 3.15179C15.3868 3.22913 15.4637 3.28714 15.5406 3.28714C15.9444 3.2678 16.4443 3.46116 16.8673 3.61585C17.0788 3.6932 17.2903 3.77054 17.4634 3.80921C17.7903 3.88656 18.5209 3.82855 18.9632 3.78988C18.4825 4.25395 17.6172 4.27328 17.598 4.27328C17.5211 4.27328 17.4634 4.33129 17.4442 4.3893C17.4249 4.46664 17.4634 4.54399 17.5211 4.56332C17.6749 4.66 17.8479 4.75668 18.0018 4.81469C17.3865 4.83403 16.502 4.73735 16.0982 4.69868C16.0597 4.69868 16.0021 4.69868 15.9828 4.73735C15.9444 4.75668 15.9252 4.81469 15.9252 4.85336C15.9059 5.0854 16.0213 5.37544 16.1367 5.58814C15.5406 5.45278 14.8292 5.06606 14.8292 5.06606C14.8099 5.04673 14.7715 5.04673 14.7522 5.04673C14.7138 5.04673 14.6753 5.06606 14.6561 5.0854C14.4638 5.24009 14.0024 5.39478 13.637 5.51079L13.7908 5.22075C13.8293 5.16274 13.8101 5.10473 13.7908 5.04673C13.7524 4.98872 13.6947 4.96938 13.637 4.96938C13.214 5.02739 12.8487 4.93071 12.5987 4.83403C13.2525 4.69868 14.0024 4.23461 14.2523 3.86722ZM11.1951 11.5437C11.2143 11.621 11.2335 11.6983 11.2528 11.7757C11.3297 12.1044 11.4066 12.4138 11.445 12.6845C11.5604 13.4193 11.695 14.4634 11.7527 15.6236C11.7142 15.6236 11.695 15.6429 11.6565 15.6623C11.6565 15.6623 11.2143 16.107 10.6951 16.4744C9.82988 17.1125 9.56069 17.0158 9.50301 16.9578C9.27227 16.7644 9.25304 16.281 9.27227 16.0296C9.2915 16.0296 9.2915 16.0103 9.31073 16.0103C9.57992 15.8749 9.73374 15.6816 9.79143 15.4496C9.82988 15.2755 9.79143 15.1015 9.73374 14.9855C9.75297 14.9855 9.7722 14.9662 9.79143 14.9662C10.2144 14.7728 10.5029 14.4827 10.6182 14.1347C10.7144 13.864 10.7144 13.5546 10.599 13.2839C10.6182 13.2646 10.6182 13.2646 10.6182 13.2452C10.9259 12.7812 11.1758 12.1431 11.1951 11.5437ZM9.48378 13.8833C9.79143 13.8833 10.0991 13.7673 10.3298 13.574C10.349 13.7093 10.3683 13.864 10.2914 14.038C10.1952 14.3087 9.98371 14.5214 9.6376 14.6761C9.07999 14.9275 8.63775 14.9081 8.40701 14.8115C8.31087 14.7728 8.25319 14.6954 8.23396 14.6374C8.19551 14.4634 8.27242 14.3281 8.3301 14.2507C8.61852 14.1927 8.88771 14.038 9.04154 13.7866C9.19536 13.864 9.34918 13.8833 9.48378 13.8833ZM9.21459 13.4773C9.23382 13.4773 9.23382 13.4773 9.21459 13.4773ZM5.90738 14.6761C5.31131 14.154 5.2344 13.2839 5.34977 12.5491L5.369 12.4138C5.38822 12.3751 5.38822 12.3364 5.40745 12.2784C5.40745 12.2398 5.44591 12.1818 5.44591 12.1624C5.79201 11.2923 6.6765 10.7896 7.52253 10.4995C8.34933 10.2288 9.38764 10.0548 10.1952 10.4608C10.349 10.5382 10.4644 10.6542 10.5605 10.7896C10.6182 10.8862 10.6951 10.9829 10.7336 11.0796C10.8105 11.2923 10.7913 11.505 10.7528 11.737C10.6759 12.1818 10.5221 12.6265 10.2914 13.0325C10.0991 13.3419 9.71452 13.5159 9.34918 13.4773C9.2915 13.4773 9.25304 13.4579 9.19536 13.4386C9.1569 13.0519 9.19536 12.6458 9.19536 12.2591C9.19536 12.1431 9.15691 12.0271 9.11845 11.9304C9.04154 11.737 8.9454 11.563 8.8108 11.4083C8.77235 11.3696 8.71466 11.4083 8.73389 11.447C8.77235 11.6983 8.8108 11.911 8.84926 12.1431C8.84926 12.2204 8.84926 12.3171 8.84926 12.4138C8.84926 12.7618 8.8108 13.1099 8.84926 13.4579C8.8108 13.5353 8.75312 13.6126 8.69543 13.69C8.4647 13.8833 8.15705 13.9607 7.86863 13.8833C7.67635 13.8253 7.65712 13.6706 7.6379 13.4966C7.61867 13.2839 7.6379 13.0712 7.59944 12.8585C7.54176 12.4718 7.42639 12.0851 7.23411 11.737C7.21488 11.679 7.13797 11.7177 7.13797 11.7757C7.1572 11.9497 7.17642 12.1237 7.19565 12.2784C7.23411 12.5298 7.27256 12.7618 7.27256 13.0132C7.27256 13.2452 7.25334 13.5159 7.29179 13.748C7.29179 13.7673 7.29179 13.806 7.27256 13.8253C7.21488 14.154 6.94569 14.2894 6.61881 14.2507C6.15734 14.1734 6.1958 13.5353 6.13811 13.1679C6.08043 12.8972 5.96506 12.6265 5.83047 12.3944C5.79201 12.3558 5.73433 12.3751 5.73433 12.4331C5.79201 12.7232 5.86892 13.0132 5.86892 13.3226C5.86892 13.7286 5.90738 14.2701 6.29194 14.5021C6.46499 14.6181 6.65727 14.6374 6.84955 14.6181C7.13797 14.5988 7.42639 14.4247 7.54176 14.154C7.67635 14.2507 7.81095 14.2701 7.96477 14.2894C7.92632 14.4054 7.88786 14.5601 7.94554 14.7341C7.96477 14.8308 8.02245 14.9275 8.11859 15.0048C8.08014 15.0048 8.04168 15.0242 7.984 15.0242C7.79172 15.0628 7.61867 15.0822 7.42639 15.0822C7.1572 15.1015 6.86878 15.1015 6.59959 15.0242C6.34962 14.9855 6.11889 14.8501 5.90738 14.6761ZM6.58036 15.8556C6.48422 15.7783 6.44576 15.7009 6.44576 15.6042C6.44576 15.5269 6.48422 15.4496 6.5419 15.3915C6.83032 15.4496 7.13797 15.4689 7.46484 15.4302C7.8494 15.4109 8.21473 15.3335 8.58007 15.2369C8.59929 15.2369 8.61852 15.2175 8.65698 15.2175C8.71466 15.2175 8.77235 15.2369 8.83003 15.2369C9.02231 15.2369 9.23382 15.1982 9.44532 15.1402C9.48378 15.2175 9.52224 15.3142 9.48378 15.4302C9.46455 15.5462 9.34918 15.6623 9.17613 15.7589C9.13768 15.7783 9.11845 15.7976 9.07999 15.7976C8.3301 16.1263 6.96492 16.2037 6.58036 15.8556ZM10.5029 18.292C9.86834 18.756 9.00308 19.2394 8.3301 18.9494C7.42639 18.5627 7.34948 16.8998 7.33025 16.397C7.40716 16.397 7.48407 16.397 7.56098 16.397C8.04168 16.397 8.54161 16.3197 8.9454 16.1843C8.9454 16.4937 8.98385 16.9771 9.2915 17.2285C9.38764 17.3058 9.50301 17.3445 9.6376 17.3445C9.94525 17.3445 10.349 17.1511 10.8874 16.7451C11.2528 16.4744 11.5796 16.1843 11.7527 16.0103C11.7719 16.3777 11.7719 16.7644 11.7527 17.1511C11.7527 17.1898 11.2143 17.7892 10.5029 18.292ZM0.427407 25.2336C0.581231 24.8276 0.811967 24.6149 1.13884 24.6149H1.15807C1.48495 24.6149 1.85028 24.8276 2.15792 25.195C1.29267 25.485 0.658143 25.9491 0.350495 26.2198C0.312039 25.8717 0.312039 25.543 0.427407 25.2336ZM0.408179 26.4518C0.638915 26.2391 1.33112 25.6784 2.29252 25.369C2.42712 25.5623 2.54248 25.775 2.63862 26.0071C2.67708 26.0844 2.71554 26.1811 2.73476 26.2584C1.92719 26.5098 1.08116 27.1672 0.754283 27.4379C0.619687 27.1479 0.485091 26.7999 0.408179 26.4518ZM1.13884 28.134C1.11961 28.1147 0.985018 27.9213 0.831195 27.612C1.13884 27.3606 2.0041 26.6645 2.79245 26.4325C2.85013 26.6065 2.92704 26.7612 2.98473 26.9159C3.04241 27.0706 3.10009 27.2252 3.15778 27.3606C2.46557 27.612 1.67723 28.2694 1.36958 28.5401C1.23498 28.2887 1.13884 28.134 1.13884 28.134ZM1.50417 28.6948C1.79259 28.4434 2.60017 27.786 3.25392 27.5346C3.36929 27.8053 3.48465 28.0567 3.60002 28.3081C3.06164 28.5788 2.3502 29.1782 2.06178 29.4296C1.83105 29.1782 1.63877 28.9075 1.50417 28.6948ZM2.86936 30.261C2.6194 30.0483 2.38866 29.8163 2.19638 29.6036C2.4848 29.3522 3.17701 28.7528 3.69616 28.5014C3.83076 28.7335 3.96535 28.9655 4.13841 29.1975C3.63848 29.4682 3.10009 30.0096 2.86936 30.261ZM3.42697 30.6864C3.29237 30.5897 3.13855 30.4931 3.02318 30.377C3.25392 30.145 3.81153 29.6036 4.273 29.3329C4.33069 29.3909 4.36914 29.4489 4.42682 29.5069C4.56142 29.6616 4.67679 29.797 4.81138 29.913C4.38837 30.1837 3.88844 30.6284 3.67693 30.8218C3.58079 30.8024 3.50388 30.7444 3.42697 30.6864ZM3.83076 30.9571C4.06149 30.7444 4.56142 30.2997 4.94598 30.0677C5.11903 30.2223 5.29208 30.3577 5.44591 30.4737C5.46513 30.4737 5.46514 30.4931 5.48436 30.4931C5.15749 30.7638 4.7537 31.1505 4.56142 31.3245C4.33069 31.2472 4.08072 31.1118 3.83076 30.9571ZM5.96506 31.2665C5.90738 31.4018 5.81124 31.4792 5.65741 31.5179C5.42668 31.5759 5.13826 31.5372 4.77293 31.4212C4.98444 31.2278 5.369 30.8798 5.65741 30.6477C5.98429 30.9184 6.0612 31.0345 5.96506 31.2665ZM6.33039 31.0925C6.33039 30.9571 6.29194 30.8411 6.21503 30.7251C6.09966 30.5511 5.90738 30.4157 5.67664 30.2223C5.38822 30.0096 5.04212 29.7196 4.67679 29.3135C3.96535 28.4821 3.69616 27.7667 3.3116 26.7805C3.19623 26.4905 3.08087 26.2004 2.94627 25.8524C2.75399 25.3883 2.4848 24.9823 2.15792 24.7116C1.94642 24.5375 1.73491 24.4022 1.50417 24.3442C1.56186 24.3055 1.63877 24.2862 1.69645 24.2668C2.92704 24.5569 3.29237 25.5043 3.77307 26.7225C3.96535 27.2252 4.19609 27.786 4.50374 28.3467C5.11903 29.5069 5.63819 29.9323 5.98429 30.2223C6.21503 30.4157 6.34962 30.5317 6.40731 30.7638C6.40731 30.8798 6.38808 30.9958 6.33039 31.0925ZM7.61867 28.9655C7.48407 29.1009 7.27256 29.1395 7.17642 29.1395C6.94569 28.9655 6.73418 28.7528 6.48422 28.5788C6.46499 28.5594 6.42653 28.5981 6.42653 28.6174C6.48422 28.7335 6.56113 28.8495 6.63804 28.9462C6.73418 29.0815 6.83032 29.2169 6.94569 29.3329C6.94569 29.3522 6.96492 29.3716 6.98414 29.3909C7.06106 29.6229 7.04183 29.9323 6.96492 30.1643C6.90723 30.3577 6.81109 30.5317 6.6765 30.6864C6.6765 30.6671 6.6765 30.6477 6.65727 30.6284C6.58036 30.2997 6.38808 30.1257 6.13811 29.9323C5.79201 29.6423 5.33054 29.2555 4.73447 28.1534C4.44605 27.612 4.23455 27.0706 4.02304 26.5678C3.60002 25.4657 3.21546 24.5182 2.17715 24.0735C2.50403 23.9961 2.85013 23.9961 3.17701 24.1121C3.69616 24.3055 4.06149 24.7696 4.273 25.253C4.42682 25.5817 4.50374 25.9297 4.63833 26.2778C4.83061 26.7805 5.0998 27.2446 5.50359 27.5926C5.56128 27.6506 5.63819 27.5733 5.59973 27.5153C5.50359 27.3993 5.42668 27.2833 5.34977 27.1672C5.2344 26.9739 5.13826 26.7805 5.06135 26.5678C5.06135 26.5485 5.08058 26.5291 5.08058 26.5098C5.08058 26.5098 5.0998 26.2584 5.25363 26.1618C5.369 26.0844 5.52282 26.0844 5.7151 26.1424C6.04197 26.2584 6.52267 26.6645 6.94569 27.2252C7.34948 27.7473 7.6379 28.3081 7.65712 28.6174C7.73404 28.7721 7.69558 28.8882 7.61867 28.9655ZM7.79172 27.8827C7.48407 27.2833 6.94569 26.5872 6.42653 26.1618C7.0226 25.601 7.59944 25.0983 8.15705 24.6729C8.40701 24.8662 9.00308 25.427 9.40687 26.3165C8.90694 26.7999 8.34933 27.3219 7.79172 27.8827ZM9.57992 26.1811C9.17613 25.3303 8.61852 24.7696 8.3301 24.5569C8.42624 24.4795 8.54161 24.4022 8.63775 24.3248C8.88771 24.4989 9.46455 24.9823 9.88757 25.8911C9.79143 25.9877 9.69529 26.0844 9.57992 26.1811ZM15.1368 26.0264C15.1753 26.0457 15.2137 26.0651 15.2522 26.0844C15.3099 26.3745 15.4252 27.1286 15.1753 27.5926C14.6946 27.5733 14.1562 27.4379 13.7908 27.0512C12.964 26.2004 13.5793 24.5569 13.637 24.4215C14.0216 24.2475 14.4061 24.0928 14.733 23.9188C14.6176 24.4408 14.4446 25.5623 15.1368 26.0264ZM18.9055 19.4908C18.8093 19.7615 18.7709 20.0322 18.8093 20.3223C18.4825 20.767 18.1748 21.115 17.8864 21.4051C16.925 22.4106 16.1174 22.8166 16.1174 22.8359C16.079 22.8553 13.9062 24.0928 11.7719 24.7502C13.0217 23.7447 13.8678 23.2033 13.887 23.184C13.9639 23.126 13.9831 23.0293 13.9447 22.952C13.887 22.8746 13.7908 22.8553 13.7139 22.894C13.6947 22.9133 12.1372 23.9188 10.0798 25.717C9.67606 24.8469 9.11845 24.3635 8.84926 24.1508C10.599 22.894 11.945 22.2945 11.9642 22.2945C12.0411 22.2559 12.0796 22.1592 12.0411 22.0818C12.0026 22.0045 11.9065 21.9658 11.8296 22.0045C11.7911 22.0238 11.0989 22.3139 10.0606 22.952C9.40687 23.358 8.54161 23.9381 7.58021 24.7116C7.21488 24.5762 6.92646 24.4408 6.73418 24.3248C6.25348 24.0348 6.09966 23.7641 6.09966 23.7061C6.15734 23.6674 6.38808 23.7061 6.5419 23.7254C6.888 23.7641 7.3687 23.8414 7.94554 23.7641C8.29165 23.7254 9.17613 23.532 10.0991 22.7393C10.9451 22.0045 11.5412 20.999 11.8104 19.7808C12.368 17.3058 12.0411 14.2314 11.7911 12.6265C11.7527 12.3364 11.6758 12.0271 11.5989 11.679C11.5604 11.5243 11.5219 11.3696 11.4835 11.2149C11.6181 11.389 11.8296 11.505 12.0411 11.5243C12.0603 11.5243 12.0603 11.505 12.0411 11.505C11.9065 11.4276 11.7911 11.331 11.695 11.2149C11.5796 11.0603 11.5027 10.8862 11.5027 10.6929C11.5027 10.5962 11.5027 10.4995 11.5604 10.4028C11.6565 10.2288 11.8296 10.1321 12.0219 10.0935C12.1949 10.0741 12.368 10.0741 12.5218 10.1128C12.2911 10.2868 12.1757 10.5962 12.2718 11.0603C12.3103 11.2149 12.368 11.3696 12.4449 11.4857C12.3872 11.679 12.2334 12.2978 12.541 12.8585C12.791 13.2839 13.2332 13.574 13.887 13.7093C14.06 13.748 14.2331 13.7673 14.3869 13.7673C15.0407 13.7673 15.6175 13.4773 16.079 12.9359C16.4058 12.5491 16.5789 12.1431 16.6366 11.9497C16.6366 11.9497 16.6366 11.9497 16.6558 11.9497C16.752 12.0271 16.7904 12.1044 16.8481 12.2398C16.8481 12.2591 16.8673 12.2591 16.8673 12.2591C16.925 12.2784 16.9442 12.2011 16.9442 12.1624C16.9635 12.0851 16.9442 12.0077 16.925 11.911C16.8673 11.737 16.6943 11.621 16.5404 11.6017C16.3866 11.563 16.1559 11.621 16.0982 11.795C16.0982 11.8144 16.1174 11.8337 16.1367 11.8337C16.252 11.8144 16.3289 11.8337 16.4058 11.853C16.3482 12.0271 16.1751 12.4138 15.8675 12.7812C15.3483 13.3999 14.6946 13.632 13.9062 13.4773C13.3294 13.3613 12.9256 13.1099 12.7141 12.7425C12.5026 12.3751 12.541 11.9497 12.5987 11.7177C12.8871 11.9884 13.2909 12.1431 13.7139 12.1818C13.8101 12.1818 13.9062 12.2011 14.0216 12.1818C14.0216 12.1818 14.0216 12.1818 14.0024 12.1818C14.0985 12.2204 14.1177 12.0657 14.0216 12.0657H14.0024H13.9831C13.3871 12.0077 12.6756 11.7564 12.4833 11.1183C12.4064 10.8476 12.3872 10.5188 12.6179 10.3255C12.9448 10.0548 13.5793 10.1321 13.9831 10.2288C14.0793 10.2481 14.1754 10.2868 14.2523 10.3255C14.2715 10.3255 14.2908 10.3255 14.2908 10.3061C14.31 10.2868 14.2908 10.2675 14.2908 10.2675C14.2139 10.2095 14.1177 10.1515 14.0216 10.1128C13.9062 10.0548 13.7716 10.0161 13.637 9.97743C13.7908 9.76474 13.9062 9.49403 13.9831 9.22333C14.0793 8.79793 14.0408 8.37254 13.887 8.00515C13.7332 7.63777 13.464 7.3864 13.1179 7.30905C12.791 7.23171 12.4257 7.32839 12.1372 7.59909C11.8488 7.85046 11.6373 8.21785 11.5412 8.64324C11.445 9.08797 11.4835 9.5327 11.6565 9.90009C11.5027 9.97743 11.3873 10.1128 11.3104 10.2675C11.2143 9.59071 11.1758 8.8366 11.2912 7.98581C11.4066 7.1737 11.7142 6.4776 12.2526 5.89751C12.5603 5.54946 12.8487 5.3561 12.964 5.29809C13.0794 5.31743 13.214 5.33677 13.3678 5.33677H13.3871L13.1756 5.70415C13.1371 5.76216 13.1563 5.83951 13.1948 5.87818C13.2332 5.93619 13.3101 5.95552 13.3678 5.93619C13.4832 5.91685 14.3677 5.66548 14.7907 5.41411C15.0599 5.54946 15.9059 5.95552 16.4828 5.97486C16.5404 5.97486 16.5981 5.93619 16.6174 5.89751C16.6558 5.83951 16.6366 5.7815 16.5981 5.72349C16.4828 5.5688 16.3289 5.29809 16.2713 5.0854C16.8096 5.14341 18.1364 5.27876 18.6363 5.0854C18.694 5.06606 18.7324 5.00805 18.7324 4.93071C18.7324 4.8727 18.694 4.79536 18.6363 4.77602C18.6363 4.77602 18.4056 4.67934 18.1171 4.54399C18.2902 4.50531 18.4632 4.44731 18.6555 4.36996H18.6747C18.6747 4.36996 19.117 4.50531 19.6361 4.93071C20.1168 5.31743 20.7706 6.07154 21.1359 7.32839C21.6743 9.18465 22.0012 10.5575 21.5013 13.2452C21.4051 13.3032 21.3282 13.3419 21.2321 13.3999C20.2707 13.9993 19.5785 14.6761 19.54 14.7148C19.4823 14.7728 19.4823 14.8888 19.54 14.9468C19.5977 15.0048 19.7131 15.0048 19.7707 14.9468C19.79 14.9275 22.5396 12.2398 24.3662 13.0519C24.7892 13.2452 25.0584 13.5159 25.1738 13.9027C25.4814 14.8501 24.77 16.0876 24.7123 16.1843C24.6739 16.223 24.3855 16.5904 23.8278 16.6097H23.8086C23.5587 16.6097 23.3279 16.5517 23.1164 16.4357C23.0203 16.3777 22.9818 16.2617 23.001 16.165C23.1549 15.6429 23.001 15.2562 22.5973 15.1208C22.3857 15.0435 21.9435 15.0628 20.5783 16.0683C19.8477 16.6097 19.1939 17.1705 19.1939 17.1705C19.117 17.2285 19.117 17.3252 19.1747 17.4025C19.2131 17.4412 19.2516 17.4605 19.29 17.4605C19.3285 17.4605 19.367 17.4412 19.4054 17.4218C19.4054 17.4218 20.0399 16.8611 20.7514 16.3584V16.3777C20.6745 16.6291 20.5975 16.8804 20.5014 17.1318C20.1361 17.3638 19.9053 17.6732 19.7707 17.9632C19.5785 18.35 19.5208 18.7367 19.5016 18.9301C19.2324 19.0074 19.0016 19.2008 18.9055 19.4908ZM13.3486 8.33386C12.9448 8.23718 12.5218 8.5659 12.4064 9.08797C12.3295 9.37801 12.368 9.64872 12.4833 9.86142C12.3103 9.82275 12.118 9.82275 11.9257 9.86142C11.9065 9.86142 11.8873 9.86142 11.868 9.88075C11.7142 9.57138 11.6758 9.16532 11.7719 8.75926C11.8488 8.37254 12.0411 8.04382 12.2911 7.83113C12.541 7.61843 12.8102 7.54108 13.0794 7.59909C13.5217 7.69577 13.8101 8.17918 13.8101 8.7786C13.7139 8.52723 13.5601 8.37254 13.3486 8.33386ZM13.4255 9.82275C13.3678 9.86142 13.3101 9.90009 13.2525 9.93876C13.1179 9.93876 13.0025 9.93876 12.8871 9.9581C12.6179 9.86142 12.4641 9.5327 12.541 9.16532L12.9448 9.22333C12.9448 9.22333 13.0602 9.41669 13.2909 9.41669L13.4255 9.82275ZM22.7511 15.8169C22.6549 15.8169 22.5011 15.8169 22.3665 15.8556C22.0781 15.9136 21.732 16.107 21.5974 16.6291C21.5974 16.6677 21.5782 16.7064 21.5782 16.7451C21.3282 16.7644 21.0975 16.8224 20.9052 16.8998C20.9629 16.7451 21.0013 16.6097 21.0398 16.455C21.0782 16.3197 21.1167 16.1843 21.1552 16.049C22.1166 15.3915 22.405 15.4109 22.4819 15.4302C22.5588 15.4689 22.7511 15.5269 22.7511 15.8169ZM25.2699 19.5295C25.0969 20.0902 24.7316 20.4576 24.1932 20.651C24.0009 20.7283 23.8086 20.7476 23.6548 20.767C23.7125 20.6316 23.7509 20.4963 23.7702 20.3416C23.7894 20.2256 23.7894 20.1096 23.7894 19.9935C23.7894 19.9549 23.7894 19.9162 23.7894 19.8775C23.7894 19.8582 23.7702 19.8389 23.7509 19.8195C23.7125 19.8195 23.6932 19.8389 23.674 19.8582C23.5971 20.2062 23.4817 20.535 23.251 20.8057C23.251 20.8057 23.251 20.8057 23.2318 20.825C23.0972 20.9797 22.9434 21.0957 22.7511 21.173C22.3473 21.3277 21.8666 21.3471 21.5205 21.0764C21.7512 20.8057 21.905 20.4769 22.0012 20.1482C22.0204 20.0709 22.0396 19.9935 22.0396 19.9162C22.0396 19.8969 22.0396 19.8775 22.0012 19.8582C21.982 19.8389 21.9435 19.8582 21.9243 19.8775C21.8666 20.0129 21.8089 20.1482 21.732 20.2642C21.5974 20.4963 21.4243 20.7476 21.2128 20.9217C21.1744 20.941 21.1552 20.9603 21.1359 20.9797C20.9629 21.115 20.7706 21.2117 20.5399 21.2504C20.1745 21.2891 19.7515 21.2117 19.4823 20.941C19.3477 20.8057 19.2516 20.6123 19.1939 20.4189C19.1362 20.1869 19.1554 19.9355 19.2131 19.7035C19.2516 19.5875 19.29 19.4715 19.367 19.3941C19.6361 19.1041 20.1745 19.0847 20.5591 19.1428C20.5591 19.1621 20.5399 19.1814 20.5399 19.2008C20.4245 19.4908 20.2322 19.7228 19.9823 19.9162C19.9438 19.9355 19.9823 20.0129 20.0207 19.9935C20.7898 19.8195 21.1359 18.8527 20.886 18.1566C20.8667 18.1179 20.8091 18.1179 20.8091 18.1566C20.7898 18.234 20.7706 18.3306 20.7706 18.408C20.7514 18.5433 20.7129 18.6787 20.6937 18.7947C20.6745 18.7947 20.636 18.7754 20.6168 18.7754C20.3668 18.7367 20.0976 18.7174 19.8477 18.756C19.8669 18.5627 19.9438 18.292 20.0784 18.0213C20.386 17.4412 20.9052 17.0931 21.6359 17.0158C21.6935 17.1705 21.7897 17.3252 21.9243 17.4412C22.2896 17.7699 22.8664 17.9632 23.501 17.9632C23.8086 17.9632 24.1355 17.9246 24.4431 17.8279C24.7123 17.7506 24.9623 17.6152 25.1738 17.4798C25.2315 17.5765 25.3084 17.7119 25.3661 17.9052C25.4622 18.4273 25.443 18.9494 25.2699 19.5295ZM25.0777 17.1705C25.0584 17.1705 25.0584 17.1705 25.0777 17.1705C24.8854 17.3252 24.6354 17.4798 24.3085 17.5765C23.3856 17.8666 22.5011 17.6345 22.1166 17.2671C21.9435 17.0931 21.8666 16.8998 21.905 16.7064C21.9627 16.4164 22.1358 16.2423 22.405 16.1843C22.5011 16.165 22.5973 16.165 22.6742 16.165C22.6357 16.397 22.7511 16.6291 22.9626 16.7451C23.2318 16.8998 23.5202 16.9578 23.8278 16.9578C24.597 16.9578 24.9623 16.4164 24.9815 16.397C25.0007 16.3777 25.0777 16.2423 25.1738 16.0296C25.3469 16.1457 25.443 16.3003 25.443 16.513C25.443 16.7064 25.3276 16.9578 25.0777 17.1705Z" fill="#472700"/>
<path d="M17.6942 9.784C17.9057 8.89454 17.5212 8.04375 16.8482 7.88906C16.5213 7.81172 16.156 7.9084 15.8676 8.1791C15.5792 8.43047 15.3677 8.79786 15.2715 9.22325C15.1754 9.66799 15.2138 10.1127 15.3869 10.4801C15.31 10.5188 15.2331 10.5768 15.1754 10.6348C15.0408 10.7701 14.9639 10.9635 14.9639 11.1762C14.9831 11.4469 15.0985 11.7176 15.31 11.8916C15.3677 11.9496 15.4446 11.9883 15.5215 12.027C15.5984 12.0657 15.6753 12.085 15.7714 12.1043C15.7907 12.1043 15.7907 12.1043 15.7907 12.085C15.7907 12.0657 15.7907 12.0463 15.7714 12.0463C15.6368 11.969 15.5022 11.8723 15.4253 11.7563C15.2907 11.5823 15.2138 11.3696 15.2138 11.1569C15.2138 10.9635 15.3484 10.7895 15.5215 10.7121C15.9445 10.4994 16.4636 10.6735 16.8867 10.8862H16.9059L16.9636 10.9248C17.0405 10.9635 17.1366 11.0215 17.2135 11.0602C17.2328 11.0795 17.2712 11.0408 17.252 11.0215C17.1943 10.9635 17.1366 10.9055 17.0789 10.8475C17.3674 10.6348 17.5789 10.2674 17.6942 9.784ZM15.9637 10.3641C15.9445 10.3641 15.9253 10.3641 15.8868 10.3641C15.7714 10.3641 15.6753 10.3641 15.5599 10.4028C15.4061 10.0934 15.3677 9.68732 15.4638 9.28126C15.5407 8.89454 15.733 8.56583 15.9829 8.35313C16.2329 8.14043 16.5021 8.06309 16.7713 8.1211C17.2135 8.21778 17.502 8.70118 17.502 9.3006C17.425 9.0879 17.252 8.93321 17.0597 8.8752C16.6559 8.77852 16.2329 9.10724 16.1175 9.62931C16.0406 9.91935 16.0791 10.1901 16.1945 10.4028C16.1175 10.3641 16.0406 10.3641 15.9637 10.3641ZM16.6559 10.5188C16.6175 10.4994 16.5598 10.4801 16.5213 10.4608C16.3098 10.3254 16.1945 10.0354 16.2521 9.70666L16.6559 9.76467C16.6559 9.76467 16.7713 9.95803 17.002 9.95803L17.1366 10.3641C17.002 10.4994 16.829 10.5574 16.6559 10.5188Z" fill="#472700"/>
<path d="M14.7906 14.2313C14.0407 14.27 13.5985 14.0766 12.9063 13.8446C12.8486 13.8253 12.7909 13.8833 12.8293 13.9413C12.9447 14.096 13.0793 14.1927 13.2524 14.2893C13.7138 14.5407 14.3484 14.5987 14.8098 14.3087C14.8291 14.2893 14.8098 14.2313 14.7906 14.2313Z" fill="#472700"/>
<path d="M12.5024 8.75928C12.5024 8.77862 13.0985 9.10733 13.0793 9.08799C13.0601 9.06866 12.7332 8.46924 12.7332 8.46924C12.7332 8.46924 12.5024 8.48857 12.5024 8.75928Z" fill="white"/>
<path d="M16.1748 9.2815C16.1748 9.30083 16.7709 9.62955 16.7516 9.61021C16.7324 9.59087 16.4055 8.99146 16.4055 8.99146C16.4055 8.99146 16.194 9.01079 16.1748 9.2815Z" fill="white"/>
</svg>
