<svg width="21" height="32" viewBox="0 0 21 32" fill="none" xmlns="http://www.w3.org/2000/svg">
<path d="M16.204 30.7428C16.1194 31.1226 15.8232 31.3335 15.4636 31.4601C15.0405 31.5867 14.5963 31.6078 14.1521 31.6289C13.7078 31.6289 13.2424 31.6289 12.8405 31.4812C12.4809 31.3546 12.2059 31.0593 12.0578 30.7006C11.7193 29.8989 11.9943 29.0339 12.2905 28.2533C12.4174 28.2955 12.5444 28.2955 12.6713 28.2744C12.7347 28.2744 12.7982 28.2322 12.7982 28.1478C12.7982 28.0845 12.7347 28.0423 12.6713 28.0423C12.354 28.0423 12.079 27.8524 11.9943 27.557C11.9732 27.5148 11.9732 27.4516 11.9732 27.4094C11.952 27.0718 12.2059 26.7342 12.5655 26.7342C12.5655 26.903 12.5655 27.0718 12.5444 27.2195C12.502 27.1984 12.4597 27.1773 12.4386 27.1562C12.3328 27.0929 12.1424 27.2406 12.2482 27.3461C12.3751 27.4727 12.5867 27.557 12.7559 27.6203C12.9463 27.6836 13.1367 27.7047 13.3482 27.7047C13.7078 27.7047 14.1309 27.5781 14.3848 27.325C14.4271 27.2828 14.4271 27.1984 14.3636 27.1562C14.3001 27.114 14.2155 27.0929 14.1521 27.1351C14.1521 27.1351 14.1309 27.1351 14.1309 27.1562C14.1309 27.0296 14.1309 26.8819 14.1309 26.7131C14.3636 26.8186 14.6175 26.9452 14.7021 27.1984C14.8078 27.5148 14.5117 27.7891 14.279 27.9579C14.1309 28.0634 14.3213 28.2322 14.4482 28.1267C14.4905 28.1056 14.5328 28.0634 14.5751 28.0423C14.6175 28.1056 14.6598 28.19 14.6809 28.2533C14.6809 28.2744 14.7021 28.2955 14.7021 28.3377C14.7021 28.3377 14.7021 28.3377 14.7021 28.3588C14.4271 28.3377 14.1521 28.3588 13.8982 28.4221C13.5386 28.5275 13.1155 28.7807 12.9674 29.1394C12.904 29.266 13.1155 29.3293 13.2001 29.2449C13.3271 29.0972 13.4751 28.9495 13.6444 28.844C13.8136 28.7385 13.9828 28.6752 14.1732 28.633C14.554 28.5697 14.9348 28.633 15.2732 28.844C15.5905 29.0339 15.8444 29.3082 16.0136 29.6457C16.0559 29.7301 16.0982 29.8145 16.1405 29.92C16.204 30.1732 16.2463 30.4685 16.204 30.7428Z" fill="#DA4229"/>
<path d="M12.2696 27.0508C12.3119 26.9664 12.4177 26.9031 12.5235 26.882C12.9466 26.7132 13.4331 26.7132 13.8985 26.8187C13.962 26.8398 14.0466 26.8609 14.11 26.9031C14.1735 26.9453 14.2158 27.0086 14.237 27.0719C14.2581 27.1562 14.2158 27.2195 14.1523 27.2828C14.0889 27.3461 14.0254 27.3883 13.962 27.4094C13.7081 27.5149 13.4331 27.5571 13.1581 27.536C12.8831 27.5149 12.6716 27.4094 12.4177 27.325C12.2908 27.2828 12.2062 27.1773 12.2696 27.0508Z" fill="#CA301B"/>
<path d="M8.24963 27.1563C8.08039 27.0297 8.29193 26.8398 8.44001 26.9453C8.50348 26.9875 8.56694 27.0297 8.60925 27.0508C8.60925 26.9031 8.60925 26.7555 8.60925 26.5867C8.3554 26.6922 8.10155 26.8187 8.01693 27.0719C7.91116 27.3884 8.20732 27.6627 8.44001 27.8314C8.58809 27.9369 8.39771 28.1057 8.27078 28.0002C8.22847 27.9791 8.18616 27.9369 8.14386 27.9158C8.10155 27.9791 8.05924 28.0635 8.03809 28.1268C8.03809 28.1479 8.01693 28.169 8.01693 28.2112C8.01693 28.2112 8.01693 28.2112 8.01693 28.2323C8.29193 28.2112 8.56694 28.2323 8.82079 28.2956C9.18041 28.4011 9.60349 28.6542 9.75157 29.0129C9.81503 29.1395 9.60349 29.2028 9.51887 29.1184C9.39195 28.9707 9.24387 28.823 9.07464 28.7175C8.9054 28.6121 8.73617 28.5488 8.54578 28.5066C8.16501 28.4433 7.78424 28.5066 7.44577 28.7175C7.12846 28.9074 6.87461 29.1817 6.70538 29.5193C6.53615 29.8568 6.40922 30.2577 6.47268 30.6374C6.5573 31.0172 6.85346 31.2282 7.21308 31.3548C7.63616 31.4813 8.08039 31.5024 8.52463 31.5235C8.96887 31.5235 9.43426 31.5235 9.83618 31.3759C10.1958 31.2493 10.4708 30.9539 10.6189 30.5952C10.9574 29.7935 10.6823 28.9285 10.3862 28.1479C10.2593 28.1901 10.1323 28.1901 10.0054 28.169C9.94195 28.169 9.87849 28.1268 9.87849 28.0424C9.87849 27.9791 9.94195 27.9369 10.0054 27.9369C10.3862 27.9369 10.7035 27.6838 10.7247 27.304C10.7458 26.9664 10.492 26.65 10.1535 26.6289C10.1535 26.7765 10.1535 26.9031 10.1535 27.0297C10.1747 27.0086 10.217 27.0086 10.2381 26.9875C10.3016 26.9453 10.4073 26.9664 10.4708 27.0086C10.5131 27.0508 10.5554 27.1352 10.492 27.1985C9.85734 27.6838 8.8631 27.6416 8.24963 27.1563Z" fill="#DA4229"/>
<path d="M8.01721 27.1774C8.05951 27.304 8.14413 27.4094 8.2499 27.4727C8.35567 27.5571 8.46144 27.5993 8.56721 27.6837C8.63067 27.7259 8.71529 27.8103 8.71529 27.8947C8.69414 27.9791 8.60952 28.0213 8.54606 28.0846C8.4826 28.1479 8.46144 28.2534 8.4826 28.3377C8.2499 28.2744 8.01721 28.3166 7.80566 28.401C7.80566 28.2744 7.84797 28.1479 7.91143 28.0213C7.95374 27.9369 7.99605 27.8736 8.03836 27.7892C8.05951 27.7048 8.08067 27.5993 8.01721 27.536C7.9749 27.4938 7.93259 27.4516 7.91143 27.4094C7.86913 27.3461 7.84797 27.2618 7.86913 27.1774C7.86913 27.093 7.89028 26.9875 7.93259 26.9242C7.9749 26.8609 8.01721 26.8187 8.10182 26.7976C8.08067 26.9453 7.9749 27.0297 8.01721 27.1774Z" fill="#CA301B"/>
<path d="M8.52477 27.1983C8.99016 27.4304 9.54017 27.4726 10.0267 27.3249C10.1325 27.2827 10.2594 27.2405 10.3229 27.1561C10.3863 27.0717 10.4075 26.9029 10.3229 26.8396C10.2806 26.7974 10.1959 26.7764 10.1325 26.7764C9.68825 26.7131 9.22286 26.6709 8.75747 26.6498C8.3767 26.5865 8.08054 26.9873 8.52477 27.1983Z" fill="#CA301B"/>
<path d="M7.44587 31.017C8.14396 31.1858 8.94781 31.1858 9.54013 30.7638C9.6882 30.6584 9.79398 30.5529 9.89975 30.4052C10.1959 30.0465 10.3863 29.5613 10.344 29.0971C10.3228 28.7385 10.1536 28.4009 10.0055 28.0633C10.1747 28.0633 10.344 28.0422 10.5132 28.0422C10.5555 28.2532 10.6613 28.4431 10.7459 28.633C10.9151 29.0338 10.9786 29.4558 10.9786 29.8777C10.9786 30.1731 10.9363 30.4685 10.8094 30.7216C10.6401 31.1225 10.2805 31.4179 9.87859 31.5656C9.47666 31.6921 9.05358 31.671 8.6305 31.6499C8.31319 31.6499 7.97472 31.6499 7.65741 31.6078C7.3401 31.5656 7.02279 31.4601 6.76894 31.2702C6.64201 31.1647 6.53624 31.0381 6.45163 30.8904C6.40932 30.806 6.38816 30.7217 6.36701 30.6373C6.34586 30.5107 6.34586 30.4896 6.45163 30.5318C6.62086 30.5951 6.74779 30.7427 6.91702 30.806C7.08625 30.9115 7.25548 30.9748 7.44587 31.017Z" fill="#CA301B"/>
<path d="M17.833 13.105C17.6215 12.1134 17.3253 11.1851 16.9234 10.2779C16.7542 9.91923 16.5849 9.56057 16.3945 9.22301C16.2253 8.92764 16.0561 8.63227 15.8657 8.3791C15.5061 7.85165 15.083 7.3875 14.5964 6.96555C14.3426 6.75457 14.4484 6.77567 14.131 6.83896C13.158 7.02884 12.1637 7.19762 11.1695 7.26092C10.556 7.30311 9.96369 7.26092 9.35022 7.15543C8.92714 7.09213 8.52521 6.98664 8.10213 6.90225C8.01751 6.88116 7.95405 6.90225 7.89059 6.96555C7.72135 7.13433 7.55212 7.30311 7.40404 7.47189C6.95981 7.97824 6.55788 8.52678 6.21941 9.11752C5.92326 9.62386 5.66941 10.1724 5.45787 10.7209C5.05594 11.8391 4.71747 12.9784 4.46362 14.1599C4.42132 14.3709 4.37901 14.5818 4.3367 14.7928C4.29439 15.0249 4.25208 15.257 4.23093 15.489C4.16747 16.0165 4.104 16.5439 4.104 17.0714C4.104 17.6832 4.16747 18.2528 4.27324 18.8225C4.40016 19.5398 4.63286 20.236 4.99248 20.869C5.3944 21.6074 5.94441 22.1981 6.57903 22.7256C7.25596 23.2741 7.9752 23.7383 8.75791 24.0758C9.68869 24.4767 10.6618 24.6877 11.6772 24.6244C12.1426 24.6033 12.6291 24.4978 13.0733 24.3923C13.433 24.3079 13.7503 24.1813 14.0887 24.0547C14.4907 23.907 14.8926 23.7172 15.2734 23.5273C15.4426 23.4429 15.6118 23.3585 15.7599 23.253C16.0772 23.042 16.3734 22.8311 16.6484 22.5779C16.8811 22.3458 17.1138 22.1137 17.283 21.8395C17.7272 21.1643 17.9811 20.4048 18.0869 19.6031C18.0869 19.5398 18.0869 19.5187 18.0234 19.4765C17.9176 19.4132 17.833 19.3499 17.7696 19.2655C17.7484 19.2444 17.7272 19.2233 17.7061 19.1811C17.4945 18.8436 17.3888 18.4638 17.4522 18.063C17.5157 17.5144 17.7696 17.0503 18.1503 16.6705C18.2138 16.6072 18.2561 16.5439 18.2561 16.4384C18.2138 15.3203 18.0869 14.2021 17.833 13.105ZM8.67329 12.5775C8.67329 12.2611 8.7156 11.9235 8.84252 11.6071C9.01175 11.1851 9.28676 10.9108 9.73099 10.8264C9.92138 10.7842 10.0906 10.8475 10.2598 10.9319C10.5348 11.0796 10.7464 11.2906 10.8522 11.6071C11.0849 12.2189 11.1483 12.8518 10.9579 13.4847C10.8099 13.9911 10.4714 14.3076 9.96369 14.3709C9.58292 14.4341 9.2656 14.2865 9.03291 13.97C8.84252 13.7168 8.75791 13.4215 8.7156 13.105C8.67329 12.9151 8.67329 12.7674 8.67329 12.5775ZM12.3329 8.18922C12.3541 8.3158 12.3118 8.44239 12.2695 8.54788C12.1849 8.73776 12.0579 8.90654 11.8887 9.03313C11.8464 9.07532 11.8041 9.09642 11.7618 9.13861C11.8676 9.22301 11.9733 9.2652 12.0791 9.2652C12.3964 9.2652 12.6714 9.18081 12.9041 8.94873C13.0522 8.80105 13.158 8.65337 13.2849 8.48458C13.306 8.44239 13.3272 8.3791 13.3695 8.40019C13.4118 8.42129 13.3907 8.48458 13.3695 8.52678C13.2426 8.88544 13.0522 9.18081 12.756 9.41289C12.3964 9.68716 11.8253 9.66606 11.4868 9.34959C11.4445 9.3074 11.4022 9.3074 11.3599 9.32849C11.1906 9.39179 11.0214 9.41289 10.831 9.39179C10.6406 9.34959 10.4714 9.2652 10.3445 9.11752C10.2175 8.96983 10.1752 8.77995 10.2387 8.59007C10.3233 8.358 10.4502 8.16812 10.6406 8.02043C10.7041 7.95714 10.7887 7.97824 10.7887 8.06263C10.7887 8.10482 10.7675 8.12592 10.7464 8.16812C10.6829 8.23141 10.6406 8.27361 10.5772 8.3369C10.5137 8.42129 10.4714 8.52678 10.4291 8.63227C10.3868 8.75886 10.4291 8.88544 10.5137 8.96983C10.6618 9.11752 10.831 9.13861 11.0214 9.11752C11.0637 9.11752 11.0849 9.09642 11.1272 9.09642C11.2752 9.05422 11.2541 9.05422 11.2541 8.88544C11.2541 8.52678 11.381 8.21031 11.656 7.97824C11.7195 7.91495 11.8041 7.89385 11.8887 7.87275C12.1426 7.85165 12.3118 7.97824 12.3329 8.18922ZM11.106 13.97C11.4022 13.7379 11.931 13.7168 12.2483 14.0333C12.5656 14.3709 12.5445 14.9616 12.0368 15.1937C11.9099 15.257 11.7829 15.2781 11.6772 15.2781C11.4868 15.2781 11.3387 15.257 11.1906 15.1726C10.7675 14.9405 10.7041 14.2865 11.106 13.97ZM12.2906 12.894C12.2906 12.8096 12.2906 12.7041 12.2906 12.6197C12.2695 12.2822 12.3329 11.9657 12.4387 11.6492C12.5868 11.2062 12.9041 10.9319 13.3483 10.8475C13.4964 10.8264 13.6233 10.8475 13.7503 10.8897C14.0253 10.9952 14.2368 11.164 14.3849 11.4172C14.5118 11.6492 14.5753 11.9024 14.6387 12.1767C14.7234 12.6197 14.7022 13.0628 14.5753 13.4847C14.4272 13.9278 14.1522 14.2232 13.7291 14.3498C13.2637 14.4763 12.8406 14.2865 12.5868 13.8434C12.3964 13.548 12.3329 13.2316 12.2906 12.894ZM16.0138 14.4974C15.908 14.5185 15.8022 14.5185 15.6965 14.4974C15.5907 14.4974 15.5907 14.4763 15.5484 14.5818C15.0618 15.6789 14.3849 16.5861 13.3907 17.198C12.5868 17.7043 11.7195 17.8309 10.7887 17.6199C10.5137 17.5566 10.2387 17.43 10.006 17.2823C9.92138 17.2401 9.92138 17.2401 9.90023 17.3245C9.81561 17.5988 9.70984 17.852 9.58292 18.1052C9.45599 18.3583 9.30791 18.5904 9.11752 18.7803C8.67329 19.2655 8.16559 19.3921 7.55212 19.2022C7.48866 19.1811 7.44635 19.16 7.38289 19.1389C6.93865 18.9491 6.6848 18.5904 6.60019 18.1052C6.53673 17.7043 6.57903 17.3245 6.79057 16.987C6.98096 16.6705 7.21366 16.3751 7.50981 16.1431C7.76366 15.9321 8.01751 15.7422 8.29252 15.5945C8.31367 15.5945 8.31367 15.5734 8.33482 15.5523C8.22905 15.3414 8.10213 15.1304 8.01751 14.9194C7.99636 14.8772 7.9752 14.8561 7.9329 14.8772C7.84828 14.8983 7.76366 14.8983 7.67905 14.8772C7.65789 14.8772 7.63674 14.8772 7.61558 14.8561C7.57328 14.835 7.55212 14.8139 7.55212 14.7717C7.55212 14.7295 7.59443 14.6873 7.63674 14.6873C7.72135 14.6662 7.80597 14.6662 7.89059 14.6662C8.12328 14.624 8.31367 14.4763 8.41944 14.2654C8.41944 14.2443 8.44059 14.2232 8.46175 14.2021C8.4829 14.181 8.50406 14.1599 8.52521 14.1599C8.56752 14.1599 8.58867 14.181 8.58867 14.2232C8.58867 14.2654 8.58867 14.2865 8.56752 14.3287C8.52521 14.4763 8.44059 14.6029 8.33482 14.6873C8.29251 14.7295 8.29252 14.7717 8.31367 14.8139C8.35598 14.9616 8.41944 15.0882 8.50406 15.2148C8.9906 16.0165 9.62522 16.6283 10.4291 17.0503C10.8733 17.2823 11.3599 17.3456 11.8676 17.3245C12.608 17.2612 13.2637 16.9659 13.8349 16.4595C14.4907 15.8688 14.9984 15.1515 15.3157 14.3287C15.358 14.2443 15.358 14.2443 15.2734 14.1599C15.2311 14.1177 15.1676 14.0544 15.1253 13.9911C15.083 13.9278 15.083 13.8856 15.1253 13.8434C15.1676 13.8012 15.2099 13.8012 15.2734 13.8434C15.3157 13.8856 15.358 13.9278 15.4003 13.97C15.5484 14.1388 15.7176 14.2232 15.9503 14.2443C15.9926 14.2443 16.0138 14.2443 16.0561 14.2654C16.0984 14.2865 16.1407 14.3076 16.1407 14.3498C16.0772 14.4552 16.0561 14.4763 16.0138 14.4974Z" fill="#F7A71D"/>
<path d="M10.3019 14.392C10.6827 14.2443 10.9788 13.8857 11.0846 13.4848C11.2115 13.0839 11.1904 12.662 11.148 12.2611C11.1057 11.8814 11.0211 11.4805 10.725 11.2484C10.4711 11.0586 10.1326 11.0375 9.81534 11.0164C9.79418 11.0164 9.77303 11.0164 9.75187 11.0375C9.70956 11.0586 9.70957 11.1218 9.73072 11.164C9.81534 11.6704 9.96341 12.1978 9.94226 12.7042C9.92111 13.2105 9.73072 13.5903 9.41341 13.97C9.03263 14.3709 10.0269 14.4975 10.3019 14.392Z" fill="#E28A0C"/>
<path d="M13.9825 14.4553C14.3421 14.3498 14.6171 14.0122 14.7652 13.6536C14.8921 13.2949 14.8921 12.894 14.8498 12.5143C14.8075 12.1345 14.7229 11.7548 14.5113 11.4383C14.2786 11.1218 13.8978 10.9109 13.5171 10.9952C13.4959 10.9952 13.4748 10.9952 13.4536 11.0163C13.4113 11.0374 13.4325 11.1007 13.4325 11.1429C13.5594 11.6493 13.6863 12.1556 13.644 12.662C13.6228 13.1683 13.4325 13.5692 13.1151 13.9489C12.7978 14.3709 13.7075 14.5397 13.9825 14.4553Z" fill="#E28A0C"/>
<path d="M7.8482 15.8266C7.72127 16.2063 7.46742 16.5017 7.23473 16.8181C6.87511 17.3456 6.62126 18.0418 6.87511 18.6326C7.17127 19.3077 8.08089 19.6031 8.77898 19.3288C9.47706 19.0545 9.94245 18.3794 10.0905 17.641C10.9367 18.1473 12.0156 18.2317 12.9252 17.8941C14.3848 17.3667 15.2944 15.8688 15.6329 14.3497C15.5271 14.2653 15.4002 14.413 15.3156 14.5185C14.681 15.6156 13.9194 16.7549 12.7348 17.1979C11.9944 17.4933 11.1271 17.4722 10.3655 17.1979C10.0905 17.1135 9.83668 16.9869 9.60399 16.8181C8.88475 16.3118 8.48282 15.489 8.10205 14.6873C8.10205 14.6873 7.76358 14.7506 7.74243 14.7717C7.6155 14.8983 7.72127 14.8561 7.74243 15.0248C7.8482 15.3413 7.93281 15.5312 7.8482 15.8266Z" fill="#ED9710"/>
<path d="M14.3 12.9995C14.3 13.1472 14.2788 13.316 14.2154 13.4848C14.0885 13.8645 13.6654 14.0966 13.3058 14.0122C13.1577 13.97 13.0096 13.8856 12.925 13.759C12.6711 13.4004 12.65 13.0206 12.7346 12.683C12.7981 12.4299 12.9461 12.2189 13.1154 12.0712C13.3481 11.8602 13.6442 11.8391 13.8981 11.9868C14.0038 12.0501 14.0885 12.1345 14.1519 12.2611C14.2365 12.4299 14.2788 12.5987 14.3 12.7674C14.2788 12.8307 14.2788 12.9151 14.3 12.9995Z" fill="#63451E"/>
<path d="M12.8616 11.5226C12.7135 11.7547 12.6712 12.0078 12.6289 12.2821C12.6712 12.261 12.6924 12.2188 12.6924 12.1977C12.777 12.0711 12.8828 11.9445 13.0097 11.839C13.3905 11.5437 13.8982 11.607 14.1943 12.0078C14.2155 12.0289 14.2155 12.05 14.2578 12.05C14.2155 11.839 14.1308 11.6492 14.0251 11.4804C13.9193 11.3327 13.7924 11.2483 13.6443 11.185C13.5808 11.1639 13.5174 11.1428 13.4328 11.1428C13.1789 11.185 12.9885 11.3116 12.8616 11.5226Z" fill="white"/>
<path d="M20.4349 5.61539C20.3925 5.82637 20.3079 6.03735 20.2022 6.20613C20.1598 6.29052 20.0964 6.37491 20.0329 6.4593C19.6522 7.00784 19.1656 7.4298 18.6156 7.78846C18.0233 8.16822 17.3675 8.3792 16.6694 8.48469C16.606 8.48469 16.5425 8.50578 16.479 8.52688C16.4156 8.54798 16.3733 8.52688 16.331 8.46359C16.3098 8.44249 16.2886 8.42139 16.2886 8.3792C16.2675 8.3581 16.2675 8.337 16.2463 8.3159C16.204 8.23151 16.1406 8.16822 16.0983 8.08383C15.9502 7.87285 15.8021 7.66187 15.6329 7.4509C15.4425 7.21882 15.2098 7.00784 14.9771 6.81796C14.9348 6.77577 14.9136 6.75467 14.8713 6.71248C14.9348 6.67028 14.9771 6.69138 15.0406 6.67028C15.2944 6.62808 15.5271 6.58589 15.781 6.56479C15.9079 6.56479 16.056 6.56479 16.1829 6.58589C16.2252 6.58589 16.2675 6.60699 16.3098 6.62808C16.4367 6.71248 16.479 6.83906 16.4367 6.98675C16.4156 7.07114 16.3733 7.13443 16.3098 7.19772C16.2675 7.23992 16.2252 7.28211 16.1829 7.32431C16.1406 7.3665 16.1406 7.3876 16.1406 7.4087C16.1617 7.4298 16.1829 7.4509 16.204 7.4509C16.2252 7.4509 16.2252 7.4509 16.2463 7.4509C16.3944 7.36651 16.5425 7.28211 16.606 7.11333C16.606 7.09223 16.6271 7.07114 16.6271 7.05004C16.6906 6.79687 16.6271 6.58589 16.4156 6.4593C16.2887 6.37491 16.1406 6.35381 15.9925 6.33272C15.654 6.29052 15.3367 6.33272 15.0194 6.37491C14.4694 6.41711 13.9194 6.56479 13.3694 6.64918C12.6078 6.77577 11.8463 6.88126 11.0847 6.92345C10.429 6.94455 9.79434 6.90235 9.15972 6.77577C8.54625 6.64918 7.93278 6.5226 7.31931 6.39601C7.06546 6.35381 6.79046 6.33272 6.53661 6.37491C6.47315 6.39601 6.43084 6.39601 6.38853 6.41711C6.32507 6.4382 6.26161 6.4804 6.19814 6.5226C5.9866 6.69138 5.96545 6.90235 6.11353 7.11333C6.19814 7.23992 6.30392 7.34541 6.43084 7.4087C6.43084 7.4087 6.45199 7.4087 6.45199 7.4298C6.51546 7.4509 6.57892 7.49309 6.62123 7.4509C6.66354 7.3876 6.60007 7.34541 6.57892 7.30321C6.53661 7.23992 6.47315 7.17663 6.43084 7.09223C6.40969 7.05004 6.38853 7.00784 6.36738 6.96565C6.34622 6.86016 6.34622 6.83906 6.43084 6.79687C6.51546 6.75467 6.62123 6.71248 6.727 6.71248C6.95969 6.69138 7.19239 6.73357 7.42508 6.77577C7.48854 6.79687 7.57316 6.79687 7.63662 6.81796C7.63662 6.86016 7.61547 6.88126 7.59432 6.90235C7.2347 7.28211 6.89623 7.68297 6.57892 8.12602C6.51546 8.21042 6.45199 8.29481 6.40969 8.3792C6.38853 8.42139 6.34622 8.46359 6.32507 8.50578C6.30392 8.52688 6.28276 8.56908 6.26161 8.59017C6.19814 8.69566 6.19814 8.69566 6.07122 8.65347C5.33083 8.3581 4.67505 7.91505 4.10389 7.34541C3.74427 6.98675 3.42696 6.58589 3.19426 6.12174C3.06734 5.84747 2.96157 5.5732 2.89811 5.27783C2.89811 5.21454 2.87695 5.15124 2.87695 5.08795C2.8558 4.91917 2.87695 4.72929 2.91926 4.56051C3.04618 4.15965 3.32119 3.92757 3.70196 3.82208C4.01927 3.73769 4.35774 3.73769 4.67505 3.75879C5.2039 3.80099 5.73275 3.88538 6.26161 3.96977C7.29816 4.13855 8.35586 4.32843 9.39241 4.51831C10.0059 4.6238 10.6194 4.68709 11.254 4.75039C11.7828 4.79258 12.3117 4.83478 12.8405 4.85587C13.6655 4.87697 14.4906 4.79258 15.3156 4.66599C16.0348 4.53941 16.754 4.37063 17.4944 4.22294C18.0444 4.11745 18.5944 4.01196 19.1445 4.03306C19.3137 4.03306 19.4618 4.05416 19.6098 4.09635C20.2445 4.30733 20.5829 4.91917 20.4349 5.61539Z" fill="#DA4229"/>
<path d="M11.9944 8.37913C12.0155 8.33693 12.0367 8.27364 11.9944 8.23144C11.9521 8.21034 11.9098 8.25254 11.8675 8.29473C11.7405 8.42132 11.6559 8.5901 11.6348 8.77998C11.6348 8.80108 11.6348 8.82218 11.6559 8.82218C11.804 8.71669 11.9309 8.56901 11.9944 8.37913Z" fill="#F7A71D"/>
<path d="M4.40022 12.9997C4.33676 13.2107 4.29445 13.4217 4.23099 13.6538C4.14637 14.0335 4.06176 14.3922 3.9983 14.772C3.9983 14.8352 3.97714 14.8774 3.93483 14.8985C3.5329 15.215 3.10982 15.5104 2.62328 15.7003C2.43289 15.7635 2.22135 15.8268 2.00981 15.8057C1.73481 15.8057 1.52327 15.6792 1.37519 15.4682C1.33288 15.4049 1.31172 15.3627 1.29057 15.2783C1.1848 14.9618 1.14249 14.6243 1.14249 14.3078C1.12134 13.8015 1.14249 13.3162 1.1848 12.8099C1.24826 12.2613 1.24826 11.7128 1.26942 11.1642C1.26942 11.122 1.26942 11.0798 1.26942 11.0376C1.26942 10.9322 1.26942 10.9322 1.37519 10.89C1.43865 10.8689 1.52327 10.8267 1.58673 10.7845C1.62904 10.7634 1.6925 10.7212 1.73481 10.7001C1.75596 10.679 1.77711 10.6579 1.79827 10.6368C1.81942 10.6157 1.81942 10.6157 1.79827 10.5946C1.79827 10.5735 1.77712 10.5735 1.77712 10.5735C1.75596 10.5735 1.71365 10.5946 1.6925 10.5946C1.50211 10.6579 1.31172 10.7001 1.12134 10.679C0.888643 10.6579 0.71941 10.5524 0.592485 10.3625C0.465561 10.1726 0.35979 9.94057 0.317482 9.70849C0.317482 9.68739 0.317482 9.68739 0.317482 9.6663C0.275174 9.47642 0.317482 9.30763 0.423253 9.15995C0.507869 9.01227 0.61364 8.88568 0.740564 8.80129C0.867489 8.7169 0.973259 8.61141 1.07903 8.50592C1.12134 8.46372 1.16365 8.42153 1.22711 8.37933C1.33288 8.31604 1.43865 8.29494 1.54442 8.33714C1.56557 8.35824 1.60788 8.35824 1.62904 8.37933C1.6925 8.42153 1.75596 8.48482 1.81942 8.54812C1.88289 8.63251 1.94635 8.738 1.98866 8.86458C2.00981 8.94897 2.00981 9.03336 1.9675 9.11775C1.92519 9.18105 1.90404 9.24434 1.88289 9.30763C1.86173 9.39203 1.79827 9.43422 1.71365 9.41312C1.60788 9.39203 1.52327 9.32873 1.4598 9.26544C1.39634 9.20215 1.33288 9.13885 1.26942 9.07556C1.22711 9.03336 1.1848 8.99117 1.16365 8.97007C1.14249 8.94897 1.12134 8.92787 1.10018 8.90678C1.07903 8.88568 1.05788 8.90678 1.03672 8.90678C1.01557 8.92787 1.01557 8.94897 1.03672 8.97007C1.05788 8.99117 1.07903 9.03336 1.10018 9.05446C1.12134 9.09666 1.14249 9.11775 1.1848 9.15995C1.26942 9.26544 1.33288 9.37093 1.39634 9.49751C1.43865 9.58191 1.4598 9.6663 1.4598 9.77178C1.4598 9.91947 1.35403 10.0039 1.22711 10.0039C1.14249 10.0039 1.05788 9.96166 0.973259 9.89837C0.952105 9.87727 0.930951 9.85618 0.909797 9.83508C0.825181 9.75069 0.761718 9.68739 0.698256 9.5819C0.677102 9.53971 0.634794 9.47642 0.592485 9.51861C0.550177 9.56081 0.592485 9.603 0.61364 9.6452C0.634794 9.68739 0.655948 9.70849 0.698256 9.75069C0.761718 9.83508 0.846335 9.91947 0.930951 10.0039C0.994413 10.0672 1.05788 10.1093 1.12134 10.1304C1.35403 10.2359 1.58673 10.0883 1.62904 9.83508C1.65019 9.75069 1.62904 9.68739 1.62904 9.5819C1.73481 9.603 1.81942 9.6241 1.90404 9.603C1.92519 9.603 1.94635 9.603 1.94635 9.6241C1.94635 9.6452 1.94635 9.6663 1.92519 9.68739C1.86173 9.77178 1.79827 9.87727 1.75596 9.98276C1.73481 10.0461 1.71365 10.0883 1.6925 10.1515C1.6925 10.1937 1.6925 10.2148 1.73481 10.2359C1.77711 10.1515 1.84058 10.0672 1.90404 9.98276C1.92519 9.94057 1.94635 9.91947 1.98866 9.87727C2.07327 9.77178 2.09443 9.79288 2.2002 9.81398C2.41174 9.87727 2.62328 9.87727 2.83482 9.81398C2.85597 9.81398 2.87713 9.79288 2.89828 9.77178C2.89828 9.77178 2.89828 9.75069 2.91944 9.75069C2.89828 9.70849 2.87713 9.72959 2.85597 9.72959C2.68674 9.75069 2.53866 9.75069 2.36943 9.70849C2.28481 9.68739 2.22135 9.6663 2.15789 9.6241C2.00981 9.603 1.9675 9.51861 1.98866 9.39203C1.98866 9.34983 2.00981 9.30763 2.03096 9.26544C2.05212 9.22324 2.07327 9.20215 2.09443 9.15995C2.13673 9.11775 2.17904 9.05446 2.22135 9.01227C2.39058 8.88568 2.64443 8.80129 2.81367 8.86458C2.96174 8.90678 3.08867 8.99117 3.17329 9.13885C3.23675 9.24434 3.27906 9.37093 3.30021 9.47642C3.34252 9.70849 3.32136 9.91947 3.19444 10.1515C3.13098 10.2781 3.02521 10.3625 2.87713 10.4258C2.66559 10.5102 2.45405 10.5524 2.22135 10.5313C2.17904 10.5313 2.13673 10.5102 2.11558 10.5524C2.11558 10.6157 2.15789 10.6157 2.2002 10.6157C2.28481 10.6368 2.36943 10.679 2.4752 10.679C2.53866 10.679 2.53866 10.7001 2.53866 10.7634C2.53866 11.122 2.51751 11.4596 2.51751 11.8183C2.49635 12.3457 2.53866 12.8521 2.58097 13.3795C2.58097 13.4006 2.58097 13.4006 2.58097 13.4217C2.58097 13.485 2.62328 13.5483 2.60212 13.5905C2.58097 13.6538 2.49635 13.6538 2.43289 13.696C2.34828 13.7382 2.28481 13.7593 2.2002 13.7804C2.15789 13.8015 2.13673 13.8226 2.11558 13.8647V13.8858C2.11558 13.928 2.15789 13.9702 2.22135 13.9491C2.26366 13.9491 2.30597 13.928 2.32712 13.928C2.60212 13.8436 2.85597 13.7171 3.10982 13.5905C3.4906 13.4006 3.85022 13.2107 4.20984 12.9575C4.25214 12.9364 4.2733 12.8943 4.31561 12.8943C4.42138 12.9575 4.42138 12.9786 4.40022 12.9997Z" fill="#E07703"/>
<path d="M2.96153 8.12589C2.96153 8.29468 2.94038 8.44236 2.89807 8.61114C2.89807 8.65334 2.89807 8.69553 2.83461 8.67444C2.7923 8.67444 2.72884 8.65334 2.68653 8.67444C2.53845 8.67444 2.39037 8.73773 2.24229 8.84322C2.22114 8.84322 2.22114 8.86432 2.19998 8.86432C2.09421 8.71663 2.03075 8.54785 2.0519 8.35797C2.07306 8.02041 2.07306 7.70394 2.15768 7.36638C2.17883 7.28198 2.19998 7.21869 2.24229 7.1343C2.2846 7.07101 2.32691 7.00771 2.39037 6.98662C2.47499 6.94442 2.53845 6.94442 2.62307 6.96552C2.68653 6.98662 2.74999 7.04991 2.7923 7.1132C2.89807 7.28198 2.94038 7.45077 2.96153 7.64065C2.98269 7.78833 2.98269 7.95711 2.96153 8.12589Z" fill="#E07703"/>
<path d="M9.7518 17.1979C9.56141 17.7043 9.32872 18.1895 8.9691 18.5693C8.77871 18.7803 8.54602 18.9069 8.24986 18.949C7.86908 19.0123 7.50946 18.8858 7.21331 18.6115C7.21331 18.6115 7.21331 18.6115 7.19215 18.5904C7.00177 18.4216 6.9383 18.1684 6.91715 17.9364C6.91715 17.8942 6.91715 17.8309 6.896 17.7676C6.896 17.5566 6.9383 17.3456 7.04407 17.1768C7.21331 16.9026 7.40369 16.6494 7.63639 16.4384C7.78447 16.3118 7.93255 16.1852 8.10178 16.0798C8.20755 16.0165 8.31332 15.9532 8.41909 15.8899C8.52486 15.8266 8.52486 15.8266 8.60948 15.9321C8.71525 16.0798 8.84217 16.2274 8.9691 16.3751C9.01141 16.4173 9.01141 16.4384 8.9691 16.4806C8.94794 16.5017 8.92679 16.5017 8.90564 16.5228C8.54602 16.8182 8.24986 17.1768 7.9537 17.5355C7.93255 17.5566 7.91139 17.5988 7.89024 17.641C7.82678 17.7465 7.76331 17.852 7.69985 17.9575C7.6787 17.9786 7.65754 18.0207 7.65754 18.0418C7.65754 18.1051 7.72101 18.1473 7.78447 18.1262C7.80562 18.1051 7.82678 18.084 7.82678 18.0629C7.9537 17.852 8.12293 17.6832 8.27101 17.4933C8.33447 17.4089 8.39794 17.3456 8.4614 17.2823C8.67294 17.0713 8.90564 16.8815 9.13833 16.6916C9.18064 16.6494 9.20179 16.6705 9.2441 16.6916C9.37103 16.8182 9.5191 16.9448 9.66718 17.0503C9.7518 17.1346 9.77295 17.1557 9.7518 17.1979Z" fill="#DA4229"/>
<path d="M20.435 18.717C20.3504 18.9069 20.2235 18.9913 20.0331 19.0335C19.9908 19.0335 19.9485 19.0546 19.9273 19.0335C19.885 19.0335 19.8427 19.0124 19.8004 18.9913C19.6946 18.928 19.61 18.8436 19.5466 18.7381C19.4408 18.5271 19.335 18.3162 19.2927 18.063C19.2927 18.0419 19.2927 18.0208 19.2716 17.9997C19.2504 17.9575 19.2292 17.9364 19.1869 17.9364C19.1869 17.9364 19.1869 17.9364 19.1658 17.9364C19.1235 17.9364 19.1023 17.9786 19.1023 18.0419C19.1023 18.1474 19.1235 18.2318 19.1446 18.3373C19.1869 18.5482 19.2716 18.717 19.3562 18.9069C19.4196 19.0335 19.5254 19.1179 19.6312 19.2234C19.5466 19.3289 19.4619 19.3921 19.3562 19.4343C19.2716 19.4765 19.1869 19.4765 19.1023 19.4554C18.9754 19.4132 18.8485 19.3078 18.7639 19.1601C18.6581 18.9491 18.5946 18.717 18.5523 18.4849C18.5523 18.4427 18.5312 18.4006 18.5312 18.3584C18.5312 18.3162 18.4889 18.2951 18.4465 18.2951H18.4254C18.3831 18.2951 18.3619 18.3373 18.3619 18.4006C18.3619 18.5482 18.3831 18.6959 18.4254 18.8225C18.4465 18.9491 18.4889 19.0546 18.5312 19.1812C18.5312 19.2023 18.5523 19.2445 18.5523 19.2867C18.4677 19.3078 18.3831 19.3078 18.3196 19.2867H18.2985C18.2139 19.2656 18.1292 19.2023 18.0446 19.1179C17.8754 18.928 17.7908 18.6959 17.7485 18.4427C17.685 18.1263 17.7908 17.8309 17.9177 17.5566C18.1081 17.1769 18.3619 16.8604 18.6792 16.6072C18.7427 16.565 18.8062 16.5018 18.8696 16.4596C18.9966 16.3541 19.1446 16.2486 19.2716 16.122C19.4619 15.9321 19.5677 15.7422 19.4196 15.3625C19.3562 15.1937 19.2504 15.0671 19.1235 14.9405C18.9331 14.7295 18.7004 14.5397 18.4677 14.392C18.4042 14.3498 18.3619 14.3076 18.3619 14.2232C18.3408 14.1177 18.3408 14.0122 18.3196 13.9278C18.2985 13.8223 18.2773 13.738 18.2562 13.6325C18.235 13.5481 18.235 13.4848 18.2139 13.4004C18.1927 13.2527 18.1504 13.1261 18.1292 12.9784C18.1292 12.9573 18.1292 12.9362 18.1292 12.9151C18.1504 12.894 18.1504 12.9151 18.1715 12.9151C18.9119 13.2738 19.5889 13.6958 20.16 14.3076C20.3081 14.4553 20.4139 14.6241 20.5196 14.7928C20.837 15.3203 20.71 15.9321 20.435 16.2697C20.3081 16.4174 20.1812 16.565 20.0543 16.7127C20.0331 16.7549 19.9908 16.776 19.9696 16.8182C19.885 16.9448 19.7793 17.0292 19.61 17.0081C19.5677 17.0081 19.5466 17.0081 19.5254 17.0081C19.4619 17.0292 19.3985 17.0714 19.335 17.1347C19.3139 17.1558 19.3139 17.1769 19.335 17.198C19.335 17.198 19.3562 17.2191 19.3773 17.2191C19.3985 17.2191 19.4196 17.198 19.4408 17.198C19.4619 17.198 19.4619 17.198 19.4831 17.1769C19.5889 17.1347 19.6946 17.1558 19.8004 17.2191C19.9062 17.2824 19.9696 17.3668 20.0331 17.4723C20.1389 17.7043 20.0754 17.9364 19.8639 18.0841C19.8004 18.1263 19.7369 18.1685 19.6735 18.2318C19.6523 18.2529 19.6523 18.2529 19.6523 18.2951C19.7158 18.3162 19.7581 18.274 19.8004 18.2529C19.9273 18.1896 20.0754 18.1896 20.2023 18.2318C20.435 18.2107 20.5408 18.4849 20.435 18.717Z" fill="#E07703"/>
<path d="M20.4349 5.61549C20.3925 5.82647 20.3079 6.03745 20.2022 6.20623C20.2022 6.12184 20.2022 6.03745 20.181 5.95306C20.0964 5.46781 19.8002 4.98256 19.356 4.75049C18.806 4.45512 18.1502 4.51841 17.5579 4.6661C16.5637 4.89817 15.5906 5.27793 14.5963 5.44671C13.3482 5.65769 12.0578 5.51001 10.8097 5.32013C9.37126 5.08805 7.93278 4.77158 6.53661 4.39183C6.09237 4.26524 5.66929 4.13865 5.22506 4.07536C4.6962 3.99097 4.1462 3.96987 3.68081 4.20195C3.30003 4.39183 3.04618 4.75049 2.91926 5.15134C2.91926 5.19354 2.89811 5.21464 2.89811 5.25683C2.89811 5.19354 2.87695 5.13025 2.87695 5.06695C2.8558 4.89817 2.87695 4.70829 2.91926 4.53951C3.04618 4.13865 3.32119 3.90658 3.70196 3.80109C4.01927 3.7167 4.35774 3.7167 4.67505 3.7378C5.2039 3.77999 5.73275 3.86438 6.26161 3.94877C7.29816 4.11755 8.35586 4.30743 9.39241 4.49731C10.0059 4.6028 10.6194 4.6661 11.254 4.72939C11.7828 4.77158 12.3117 4.81378 12.8405 4.83488C13.6655 4.85598 14.4906 4.77158 15.3156 4.645C16.0348 4.51841 16.754 4.34963 17.4944 4.20195C18.0444 4.09646 18.5944 3.99097 19.1445 4.01207C19.3137 4.01207 19.4618 4.03316 19.6098 4.07536C20.2445 4.30743 20.5829 4.91927 20.4349 5.61549Z" fill="#F95A44"/>
<path d="M18.4044 6.75443C18.4044 6.90211 18.3198 7.0498 18.2352 7.17638C17.8121 7.80932 17.0082 8.10469 16.2255 8.31566C16.1832 8.23127 16.1198 8.16798 16.0775 8.08359C15.9294 7.87261 15.7813 7.66163 15.6121 7.45066C15.4217 7.21858 15.189 7.0076 14.9563 6.81772C14.914 6.77553 14.8928 6.75443 14.8505 6.71223C14.914 6.67004 14.9563 6.69114 15.0198 6.67004C15.2736 6.62784 15.5063 6.58565 15.7602 6.56455C15.8871 6.56455 16.0352 6.56455 16.1621 6.58565C16.2044 6.58565 16.2467 6.60675 16.289 6.62784C16.4159 6.71223 16.4582 6.83882 16.4159 6.9865C16.3948 7.0709 16.3525 7.13419 16.289 7.19748C16.2467 7.23968 16.2044 7.28187 16.1621 7.32407C16.1409 7.36626 16.1409 7.38736 16.1409 7.40846C16.1621 7.42956 16.1832 7.45066 16.2044 7.45066C16.2255 7.45066 16.2255 7.45066 16.2467 7.45066C16.3948 7.36626 16.5429 7.28187 16.6063 7.11309C16.6063 7.09199 16.6275 7.0709 16.6275 7.0498C16.6909 6.79663 16.6275 6.58565 16.4159 6.45906C16.289 6.37467 16.1409 6.35357 15.9929 6.33247C15.6544 6.29028 15.3371 6.33247 15.0198 6.37467C14.4698 6.41687 13.9198 6.56455 13.3697 6.64894C12.6082 6.77553 11.8466 6.88102 11.0851 6.92321C10.4293 6.94431 9.7947 6.90211 9.16008 6.77553C8.54661 6.64894 7.93314 6.52235 7.31967 6.39577C7.06582 6.35357 6.79082 6.33247 6.53697 6.37467C6.47351 6.39577 6.4312 6.39577 6.38889 6.41687C6.32543 6.43796 6.26197 6.48016 6.1985 6.52235C5.98696 6.69114 5.96581 6.90211 6.11389 7.11309C6.1985 7.23968 6.30427 7.34517 6.4312 7.40846C6.4312 7.40846 6.45235 7.40846 6.45235 7.42956C6.51582 7.45065 6.57928 7.49285 6.62159 7.45066C6.66389 7.38736 6.60043 7.34517 6.57928 7.30297C6.53697 7.23968 6.47351 7.17638 6.4312 7.09199C6.41004 7.0498 6.38889 7.0076 6.36774 6.96541C6.34658 6.85992 6.34658 6.83882 6.4312 6.79662C6.51581 6.75443 6.62159 6.71223 6.72736 6.71223C6.96005 6.69114 7.19275 6.73333 7.42544 6.77553C7.4889 6.79663 7.57352 6.79663 7.63698 6.81772C7.63698 6.85992 7.61583 6.88102 7.59467 6.90211C7.23505 7.28187 6.89659 7.68273 6.57928 8.12578C6.51581 8.21017 6.45235 8.29456 6.41004 8.37896C6.38889 8.42115 6.34658 8.46335 6.32543 8.50554C5.77542 8.21017 5.31003 7.74602 4.97157 7.28187C4.76002 6.98651 4.59079 6.64894 4.56964 6.31138C4.54848 5.95272 4.71772 5.59405 5.05618 5.40417C5.39465 5.21429 5.81773 5.27759 6.21966 5.34088C7.46775 5.53076 8.71584 5.74174 9.94278 5.99491C10.5774 6.1215 11.212 6.24808 11.8678 6.31138C12.9678 6.41687 14.0678 6.29028 15.1678 6.16369C15.6544 6.1004 16.1409 6.0582 16.6063 5.99491C16.9871 5.95272 17.4102 5.91052 17.7698 6.01601C18.0871 6.0793 18.4256 6.39577 18.4044 6.75443Z" fill="#CF311C"/>
<path d="M15.5695 4.2651C15.083 4.34949 14.6176 4.43388 14.131 4.47608C13.7291 4.51828 13.3483 4.51828 12.9464 4.51828C12.2272 4.51828 11.5079 4.45498 10.8098 4.37059C10.0483 4.2862 9.30791 4.18071 8.54636 4.03303C8.50405 4.03303 8.46174 4.01193 8.41943 4.01193C8.41943 3.99083 8.41943 3.96973 8.44059 3.96973C8.82136 3.12582 9.18098 2.30301 9.62522 1.5013C9.70983 1.35361 9.79445 1.20593 9.87907 1.07934C10.006 0.868366 10.1752 0.720681 10.3868 0.594095C10.5772 0.467508 10.7887 0.446411 11.0214 0.509704C11.3387 0.594095 11.5925 0.783975 11.8252 1.01605C11.931 1.12154 12.0368 1.24812 12.1214 1.37471L12.1426 1.39581C12.3118 1.60679 12.481 1.79667 12.6926 1.96545C12.8195 2.07094 12.9676 2.15533 13.1368 2.21862C13.1791 2.23972 13.2426 2.26082 13.306 2.23972C13.3695 2.23972 13.3906 2.19752 13.3906 2.15533C13.3906 2.09203 13.3695 2.07094 13.306 2.07094C13.2637 2.07094 13.2003 2.04984 13.158 2.02874C13.158 2.02874 13.1368 2.02874 13.1368 2.00764C13.1156 2.00764 13.1156 1.98655 13.0945 1.98655C12.756 1.77557 12.5022 1.4591 12.2695 1.14264C12.2906 1.10044 12.3118 1.10044 12.3329 1.10044C12.5656 1.01605 12.7983 0.910561 13.0099 0.783975C13.1791 0.678486 13.3483 0.572997 13.5176 0.488606C13.7503 0.383117 14.0041 0.319824 14.258 0.319824C14.3849 0.319824 14.4907 0.36202 14.5753 0.404215C14.681 0.467508 14.7657 0.530802 14.8503 0.657388C14.9984 0.868366 15.1253 1.12154 15.2311 1.35361C15.5061 2.00764 15.6541 2.70387 15.7176 3.4001C15.7176 3.46339 15.7388 3.52668 15.7388 3.58997C15.7599 3.71656 15.7599 3.84315 15.7599 3.99083C15.7599 4.2651 15.7811 4.22291 15.5695 4.2651Z" fill="#DA4229"/>
<path d="M15.5695 4.26506C15.083 4.34945 14.6176 4.43384 14.131 4.47603C13.7291 4.51823 13.3483 4.51823 12.9464 4.51823C12.2272 4.51823 11.5079 4.45494 10.8098 4.37055C10.0483 4.28616 9.30791 4.18067 8.54636 4.03298C8.50405 4.03298 8.46174 4.01188 8.41943 4.01188C8.41943 3.99079 8.41943 3.96969 8.44059 3.96969C8.82136 3.12578 9.18098 2.30297 9.62522 1.50125C9.70983 1.35357 9.79445 1.20588 9.87907 1.0793C10.006 0.868321 10.1752 0.720637 10.3868 0.59405C10.5772 0.467464 10.7887 0.446366 11.0214 0.509659C11.3387 0.59405 11.5925 0.78393 11.8252 1.016C11.931 1.12149 12.0368 1.24808 12.1214 1.37467C11.931 1.20588 11.7406 1.0793 11.4868 0.994907C11.1906 0.889419 10.831 0.931614 10.6406 1.16369C10.4502 1.37467 10.4291 1.67003 10.3656 1.92321C10.2598 2.34516 10.0483 2.78822 10.2175 3.21017C10.3445 3.52664 10.6618 3.69542 10.9791 3.822C12.481 4.45494 14.258 4.37055 15.7176 3.63213C15.7176 3.63213 15.7388 3.63213 15.7388 3.61103C15.7599 3.73761 15.7599 3.8642 15.7599 4.01188C15.7599 4.26506 15.7811 4.22286 15.5695 4.26506Z" fill="#CF311C"/>
<path d="M14.575 0.425313C14.2788 0.446411 13.9827 0.509704 13.7288 0.657388C13.3269 0.868366 13.0096 1.29032 13.0519 1.73337C13.0519 1.83886 13.0942 1.92325 13.1365 2.02874C13.1365 2.02874 13.1154 2.02874 13.1154 2.00764C13.0942 2.00764 13.0942 1.98655 13.0731 1.98655C12.7346 1.77557 12.4807 1.4591 12.248 1.14264C12.2692 1.10044 12.2904 1.10044 12.3115 1.10044C12.5442 1.01605 12.7769 0.910561 12.9884 0.783975C13.1577 0.678486 13.3269 0.572997 13.4961 0.488606C13.7288 0.383117 13.9827 0.319824 14.2365 0.319824C14.3635 0.340922 14.4904 0.383117 14.575 0.425313Z" fill="#CF311C"/>
<path d="M15.8653 8.3791C15.125 7.87275 14.3211 7.47189 13.4326 7.4508C12.9038 7.4297 12.3961 7.55628 11.8672 7.64067C11.1691 7.74616 10.4711 7.80946 9.77297 7.78836C9.24412 7.78836 8.71526 7.74616 8.18641 7.85165C7.67871 7.85165 7.06524 8.2947 6.70562 8.61117C6.5787 8.71666 6.43062 8.92764 6.24023 9.11752C6.5787 8.52678 6.95947 7.97824 7.42486 7.47189C7.57294 7.30311 7.74217 7.13433 7.91141 6.96555C7.97487 6.90225 8.03833 6.88116 8.12295 6.90225C8.52488 6.98664 8.94796 7.07104 9.37104 7.15543C9.98451 7.26092 10.5768 7.28201 11.1903 7.26092C12.1845 7.19762 13.1576 7.04994 14.1519 6.83896C14.4692 6.77567 14.3634 6.75457 14.6173 6.96555C15.0826 7.3664 15.5057 7.85165 15.8653 8.3791Z" fill="#ED9710"/>
<path d="M18.0869 19.5821C17.9811 20.3838 17.7272 21.1433 17.283 21.8184C17.1138 22.0927 16.8811 22.3248 16.6484 22.5569C16.3734 22.81 16.0772 23.0421 15.7599 23.232C15.6118 23.3375 15.4426 23.4219 15.2734 23.5063C14.8926 23.6961 14.4907 23.886 14.0887 24.0337C13.7503 24.1603 13.4118 24.308 13.0733 24.3713C12.608 24.4768 12.1426 24.5822 11.6772 24.6033C10.6618 24.6666 9.70984 24.4557 8.75791 24.0548C7.9752 23.7172 7.23481 23.2531 6.57903 22.7045C5.94441 22.1982 5.3944 21.5864 4.99248 20.8479C4.63286 20.215 4.42132 19.5188 4.27324 18.8015C4.16747 18.2318 4.104 17.6622 4.104 17.0503C4.104 16.5229 4.14631 15.9955 4.23093 15.468C4.37901 16.1009 4.35785 16.7972 4.56939 17.4301C4.82324 18.2318 5.22517 18.9913 5.73287 19.6454C6.95981 21.2277 8.82137 22.2615 10.7887 22.4936C12.0579 22.6413 13.3695 22.4725 14.5541 21.9661C15.8657 21.3754 16.9234 20.4049 17.7484 19.2234C17.8119 19.3078 17.8965 19.3922 18.0022 19.4344C18.0869 19.4977 18.0869 19.5188 18.0869 19.5821Z" fill="#ED9710"/>
<path d="M14.2791 12.7464C14.2791 12.7675 14.258 12.7886 14.258 12.8097C14.2156 12.873 14.1522 12.9363 14.0887 12.9785C13.7926 13.2106 13.3483 13.2317 13.0522 13.0207C12.9041 12.9152 12.7983 12.8097 12.7349 12.6621C12.7983 12.4089 12.9464 12.1979 13.1156 12.0502C13.3483 11.8392 13.6445 11.8181 13.8983 11.9658C14.0041 12.0291 14.0887 12.1135 14.1522 12.2401C14.2156 12.4089 14.258 12.5777 14.2791 12.7464Z" fill="#332410"/>
<path d="M13.8138 13.1049C13.8138 13.337 13.6657 13.548 13.4965 13.548C13.3273 13.5269 13.1792 13.337 13.1792 13.1049C13.1792 12.8728 13.3273 12.6619 13.4965 12.6619C13.6657 12.6619 13.8138 12.8517 13.8138 13.1049Z" fill="white"/>
<path d="M7.9751 17.5988C7.99625 17.5566 8.01741 17.5144 8.03856 17.4933C8.16548 17.3246 8.29241 17.1558 8.37703 16.9659C8.46164 16.776 8.50395 16.5439 8.41933 16.3541C8.37703 16.2697 8.22895 16.1853 8.12318 16.122C8.22895 16.0587 8.33472 15.9954 8.44049 15.9321C8.54626 15.8688 8.54626 15.8688 8.63087 15.9743C8.73664 16.122 8.86357 16.2697 8.99049 16.4174C9.0328 16.4596 9.0328 16.4807 8.99049 16.5228C8.96934 16.5439 8.94819 16.5439 8.92703 16.565C8.54626 16.8604 8.2501 17.2191 7.9751 17.5988Z" fill="#CF3420"/>
<path d="M9.75252 17.1979C9.56213 17.7043 9.32943 18.1895 8.96981 18.5693C8.77943 18.7803 8.54673 18.9069 8.25058 18.9491C7.8698 19.0123 7.51018 18.8858 7.21402 18.6115C7.21402 18.6115 7.21403 18.6115 7.19287 18.5904C7.53134 18.7592 7.93326 18.8014 8.27173 18.6959C8.77943 18.5271 9.13905 18.0419 9.18136 17.5144C9.18136 17.43 9.18136 17.3456 9.13905 17.2823C9.07559 17.1979 8.94866 17.1768 8.84289 17.1768C8.71597 17.1768 8.58904 17.219 8.48327 17.2823C8.69481 17.0714 8.92751 16.8815 9.1602 16.6916C9.20251 16.6494 9.22366 16.6705 9.26597 16.6916C9.3929 16.8182 9.54098 16.9448 9.68905 17.0503C9.75252 17.1346 9.77367 17.1557 9.75252 17.1979Z" fill="#CF3420"/>
<path d="M0.951646 9.91933C0.930492 9.89823 0.909338 9.87713 0.888184 9.85604C0.993954 9.89823 1.12088 9.87713 1.16319 9.79274C1.2055 9.75055 1.2055 9.68725 1.2055 9.62396C1.2055 9.47628 1.18434 9.32859 1.14203 9.18091C1.22665 9.2864 1.29011 9.39189 1.35357 9.51847C1.39588 9.60286 1.41704 9.68725 1.41704 9.79274C1.41704 9.94043 1.31127 10.0248 1.18434 10.0248C1.09972 10.0037 1.01511 9.96152 0.951646 9.91933Z" fill="#CA6805"/>
<path d="M1.43795 9.28642C1.37448 9.22312 1.31102 9.15983 1.24756 9.09654C1.35333 9.15983 1.4591 9.18093 1.56487 9.13873C1.71295 9.07544 1.77641 8.92775 1.79757 8.78007C1.79757 8.71678 1.79757 8.63239 1.79757 8.56909C1.86103 8.65348 1.92449 8.75897 1.9668 8.88556C1.98795 8.96995 1.98795 9.05434 1.94564 9.13873C1.90334 9.20202 1.88218 9.26532 1.86103 9.32861C1.83987 9.413 1.77641 9.4552 1.69179 9.4341C1.60718 9.413 1.52256 9.34971 1.43795 9.28642Z" fill="#CA6805"/>
<path d="M2.19998 8.84327C2.09421 8.69559 2.03075 8.52681 2.0519 8.33693C2.07306 7.99937 2.07306 7.6829 2.15768 7.34534C2.17883 7.26094 2.19998 7.19765 2.24229 7.11326C2.2846 7.04997 2.32691 6.98667 2.39037 6.96558C2.26345 7.26094 2.24229 7.57741 2.26345 7.89388C2.26345 8.12595 2.30575 8.35803 2.45383 8.50571C2.5173 8.569 2.60191 8.6112 2.68653 8.6323C2.53845 8.6323 2.39037 8.69559 2.24229 8.80108C2.22114 8.82218 2.22114 8.84327 2.19998 8.84327Z" fill="#CA6805"/>
<path d="M3.02518 9.77148C3.02518 9.79258 3.00402 9.83478 2.98287 9.85587C2.83479 10.0247 2.58094 10.0669 2.3694 10.0879C2.13671 10.109 1.88286 10.1723 1.75593 10.3622C1.73478 10.4044 1.69247 10.4677 1.65016 10.4466C1.62901 10.4466 1.60785 10.4255 1.5867 10.4044C1.45978 10.2778 1.24823 10.3622 1.05785 10.3411C0.909769 10.32 0.803998 10.2145 0.719382 10.0879C0.677074 10.0036 0.65592 9.89807 0.634766 9.79258C0.698228 9.87697 0.782844 9.96136 0.867461 10.0458C0.930923 10.109 0.994385 10.1512 1.05785 10.1723C1.29054 10.2778 1.52324 10.1301 1.56555 9.87697C1.5867 9.79258 1.56555 9.72929 1.56555 9.6238C1.67132 9.6449 1.75593 9.66599 1.84055 9.6449C1.8617 9.6449 1.88286 9.6449 1.88286 9.66599C1.88286 9.68709 1.88286 9.70819 1.8617 9.72929C1.79824 9.81368 1.73478 9.91917 1.69247 10.0247C1.67132 10.0879 1.65016 10.1301 1.62901 10.1934C1.62901 10.2356 1.62901 10.2567 1.67132 10.2778C1.71362 10.1934 1.77709 10.109 1.84055 10.0247C1.8617 9.98246 1.88286 9.96136 1.92517 9.91917C2.00978 9.81368 2.03094 9.83478 2.13671 9.85587C2.34825 9.91917 2.55979 9.91917 2.77133 9.85587C2.79248 9.85587 2.81364 9.83478 2.83479 9.81368C2.83479 9.81368 2.83479 9.79258 2.85595 9.79258C2.83479 9.75038 2.81364 9.77148 2.79248 9.77148C2.62325 9.79258 2.47517 9.79258 2.30594 9.75038C2.22132 9.72929 2.15786 9.70819 2.0944 9.66599C2.00978 9.6027 1.96747 9.51831 1.98863 9.39172C1.98863 9.34953 2.00978 9.30733 2.03094 9.26514C2.03094 9.28623 2.03094 9.28623 2.05209 9.30733C2.0944 9.39172 2.17901 9.45502 2.26363 9.49721C2.41171 9.5816 2.6021 9.6238 2.77133 9.6238C2.8771 9.6238 3.02518 9.66599 3.02518 9.77148Z" fill="#CA6805"/>
<path d="M2.66509 13.6113C2.64394 13.6746 2.55932 13.6746 2.49586 13.7168C2.41124 13.759 2.34778 13.7801 2.26316 13.8012C2.22086 13.8223 2.1997 13.8434 2.17855 13.8856C1.98816 13.4003 2.00931 12.8518 2.03047 12.3244C2.07278 11.7336 2.09393 11.164 2.13624 10.5732H2.15739C2.15739 10.6365 2.1997 10.6365 2.24201 10.6365C2.32663 10.6576 2.41124 10.6998 2.51701 10.6998C2.58048 10.6998 2.58048 10.7209 2.58048 10.7842C2.58048 11.1429 2.55932 11.4804 2.55932 11.8391C2.53817 12.3666 2.58048 12.8729 2.62278 13.4003C2.62278 13.4214 2.62278 13.4214 2.62278 13.4425C2.64394 13.4847 2.68625 13.548 2.66509 13.6113Z" fill="#CA6805"/>
<path d="M4.25229 13.6536C4.16767 14.0333 4.08306 14.392 4.01959 14.7717C4.01959 14.835 3.99844 14.8772 3.95613 14.8983C3.5542 15.2148 3.13112 15.5102 2.64458 15.7C2.45419 15.7633 2.24265 15.8266 2.03111 15.8055C1.7561 15.8055 1.54456 15.6789 1.39648 15.468C1.45995 15.4891 1.52341 15.5102 1.56572 15.5313C1.86187 15.6157 2.15803 15.5524 2.43304 15.4469C3.23689 15.1093 3.7869 14.392 4.25229 13.6536Z" fill="#CA6805"/>
<path d="M20.4348 18.7169C20.3502 18.9068 20.2233 18.9912 20.0329 19.0334C19.9906 19.0334 19.9483 19.0545 19.9271 19.0334C20.0541 18.949 20.1598 18.8646 20.2021 18.738C20.2445 18.6114 20.2233 18.4637 20.1387 18.3582C20.0541 18.2527 19.906 18.1894 19.7791 18.2105C19.7368 18.2105 19.6945 18.2316 19.6521 18.2105C19.6098 18.2105 19.5675 18.1684 19.5675 18.1262C19.5675 18.1051 19.5887 18.084 19.5887 18.0629C19.6521 17.9785 19.7368 17.9152 19.8002 17.8308C19.906 17.6831 19.906 17.4721 19.8214 17.3033C19.7368 17.1557 19.6098 17.1346 19.4829 17.0713C19.5887 17.0291 19.6945 17.0502 19.8002 17.1135C19.906 17.1768 19.9695 17.2611 20.0329 17.3666C20.1387 17.5987 20.0752 17.8308 19.8637 17.9785C19.8002 18.0207 19.7368 18.0629 19.6733 18.1262C19.6521 18.1473 19.6521 18.1473 19.6521 18.1894C19.7156 18.2105 19.7579 18.1684 19.8002 18.1473C19.9271 18.084 20.0752 18.084 20.2021 18.1262C20.4348 18.2105 20.5406 18.4848 20.4348 18.7169Z" fill="#CA6805"/>
<path d="M19.6522 19.2023C19.5676 19.3078 19.483 19.371 19.3772 19.4132C19.2926 19.4554 19.208 19.4554 19.1234 19.4343C19.208 19.4132 19.2926 19.371 19.3138 19.3499C19.3772 19.2656 19.3772 19.1601 19.3349 19.0546C19.2926 18.9702 19.2291 18.8858 19.1868 18.8014C19.0176 18.5271 18.9964 18.1685 19.0811 17.8731C19.1022 17.8309 19.1234 17.7887 19.1657 17.8098C19.1868 17.8098 19.1868 17.8309 19.1868 17.852C19.1868 17.8731 19.208 17.9153 19.208 17.9364C19.208 17.9364 19.208 17.9364 19.1868 17.9364C19.1445 17.9364 19.1234 17.9786 19.1234 18.0419C19.1234 18.1474 19.1445 18.2318 19.1657 18.3373C19.208 18.5482 19.2926 18.717 19.3772 18.9069C19.4407 19.0124 19.5253 19.1179 19.6522 19.2023Z" fill="#CA6805"/>
<path d="M18.5525 19.2444C18.4679 19.2655 18.3833 19.2655 18.3198 19.2444H18.2987C18.341 19.2233 18.3621 19.2022 18.3621 19.1389C18.3833 19.0334 18.3621 18.9279 18.3198 18.8435C18.2775 18.717 18.2563 18.5904 18.2563 18.4638C18.2563 18.3372 18.2987 18.2106 18.4044 18.1262C18.4467 18.1684 18.4467 18.2317 18.4467 18.295H18.4256C18.3833 18.295 18.3621 18.3372 18.3621 18.4005C18.3621 18.5482 18.3833 18.6959 18.4256 18.8224C18.4467 18.949 18.489 19.0545 18.5314 19.1811C18.5525 19.1811 18.5737 19.2022 18.5525 19.2444Z" fill="#CA6805"/>
<path d="M20.4345 16.2064C20.3076 16.3541 20.1807 16.5018 20.0538 16.6495C20.0326 16.6917 19.9903 16.7128 19.9692 16.755C19.8845 16.8816 19.7788 16.966 19.6095 16.9449C19.5672 16.9449 19.5461 16.9449 19.5249 16.9449C19.5461 16.9238 19.5672 16.8816 19.6095 16.8394C19.7788 16.6917 19.9268 16.5229 20.0538 16.333C20.4769 15.6579 20.3499 14.7085 19.7788 14.1811C19.6095 14.0334 19.4191 13.9068 19.2499 13.8013C18.9326 13.6114 18.5941 13.4004 18.2345 13.3372C18.2134 13.1895 18.1711 13.0629 18.1499 12.9152C18.1499 12.8941 18.1499 12.873 18.1499 12.8519C18.1711 12.8308 18.1711 12.8519 18.1922 12.8519C18.9326 13.2106 19.6095 13.6325 20.1807 14.2444C20.3288 14.392 20.4345 14.5608 20.5403 14.7296C20.8365 15.257 20.7095 15.8689 20.4345 16.2064Z" fill="#CA6805"/>
<path d="M10.3655 11.2483C10.7463 10.7842 11.0848 10.1935 10.9578 9.60271C10.8521 9.11747 10.4078 8.73771 9.92129 8.59002C9.43474 8.46344 8.90589 8.52673 8.4405 8.69551C7.06548 9.15966 6.00778 10.4044 5.71162 11.818C5.60585 12.3454 5.52123 13.2526 6.15586 13.4636C6.76933 13.6957 7.74241 13.2315 8.27127 12.9573C9.07512 12.5564 9.79436 11.9446 10.3655 11.2483Z" fill="#FDB748"/>
<path d="M12.6287 21.8817C10.8306 22.0927 9.01138 22.0294 7.23443 21.6496C6.72673 21.5441 6.24019 21.4175 5.75364 21.2488C5.64787 21.2066 5.56326 21.3542 5.69018 21.3753C7.42482 21.9661 9.26522 22.2403 11.1056 22.1771C11.6345 22.156 12.1422 22.1138 12.671 22.0294C12.7768 22.0083 12.7345 21.8817 12.6287 21.8817Z" fill="#E28A0C"/>
<path d="M15.7595 20.025C14.871 20.1727 13.9826 20.2782 13.0729 20.3204C12.1633 20.3626 11.2748 20.3626 10.3652 20.3204C9.8575 20.2993 9.34981 20.236 8.84211 20.1938C8.71518 20.1727 8.67287 20.3415 8.82095 20.3626C9.73058 20.4891 10.6402 20.5524 11.5498 20.5524C12.4806 20.5524 13.3902 20.5102 14.2999 20.4259C14.8076 20.3626 15.3153 20.2993 15.823 20.1938C15.9287 20.1516 15.8653 20.0039 15.7595 20.025Z" fill="#E28A0C"/>
<path d="M16.2039 21.3753C15.9077 21.3542 15.6327 21.4175 15.3365 21.4386C15.0404 21.4597 14.7442 21.5019 14.4692 21.523C14.3423 21.5441 14.3846 21.6918 14.5115 21.6918C14.8077 21.6707 15.1038 21.6496 15.3788 21.6074C15.6538 21.5863 15.9712 21.5863 16.2462 21.5019C16.3096 21.4808 16.2885 21.3753 16.2039 21.3753Z" fill="#E28A0C"/>
<path d="M16.3518 18.1473C15.823 18.2317 15.2941 18.295 14.7652 18.3161C14.2364 18.3372 13.7075 18.3161 13.1575 18.295C13.0306 18.295 12.9883 18.4427 13.1364 18.4638C13.6864 18.5271 14.2364 18.5271 14.7652 18.506C15.3153 18.4849 15.8653 18.4216 16.3941 18.3161C16.5422 18.295 16.4576 18.1262 16.3518 18.1473Z" fill="#E28A0C"/>
<path d="M17.9176 16.1432C17.1137 16.2276 16.331 16.2698 15.5272 16.2065C15.4002 16.2065 15.3579 16.3542 15.506 16.3753C16.3099 16.4385 17.1349 16.4385 17.9387 16.312C18.108 16.2909 18.0657 16.1221 17.9176 16.1432Z" fill="#E28A0C"/>
<path d="M6.62092 15.7845C5.90168 15.8478 5.2036 15.8689 4.48436 15.8267C4.35743 15.8267 4.33628 15.9744 4.4632 15.9955C5.18244 16.0799 5.92284 16.0588 6.64208 15.9744C6.79016 15.9322 6.74785 15.7634 6.62092 15.7845Z" fill="#E28A0C"/>
<path d="M6.38844 18.9913C6.07113 18.9491 5.75382 18.9702 5.43651 18.9491C5.11919 18.9491 4.78073 18.928 4.46342 18.928C4.33649 18.928 4.35765 19.0968 4.46342 19.0968C4.78073 19.1179 5.09804 19.1179 5.43651 19.1179C5.75382 19.1179 6.09228 19.1601 6.40959 19.1179C6.49421 19.139 6.49421 19.0124 6.38844 18.9913Z" fill="#E28A0C"/>
<path d="M7.63626 11.7969C7.63626 11.7336 7.55164 11.7125 7.50934 11.7125C6.89587 11.7336 6.2824 11.6703 5.66893 11.5648C5.542 11.5437 5.52085 11.7125 5.64777 11.7336C6.26124 11.8602 6.91702 11.9235 7.55164 11.9024C7.59395 11.8813 7.63626 11.8391 7.63626 11.7969Z" fill="#E28A0C"/>
<path d="M10.4079 10.1091C9.73099 10.1091 9.0329 10.1302 8.35597 10.088C7.67904 10.0458 7.00211 9.98255 6.32518 9.87706C6.19825 9.85597 6.1771 10.0247 6.30402 10.0458C6.98096 10.1724 7.67904 10.2357 8.37713 10.2779C9.07521 10.3201 9.7733 10.3412 10.4502 10.299C10.5772 10.2779 10.5137 10.1091 10.4079 10.1091Z" fill="#E28A0C"/>
<path d="M16.1409 9.6449C16.1197 9.58161 16.0562 9.58161 15.9928 9.60271C14.6178 9.89807 13.2427 10.0247 11.8254 9.98247C11.7197 9.98247 11.7197 10.1512 11.8254 10.1512C13.2427 10.2145 14.6812 10.1091 16.0774 9.77149C16.1409 9.75039 16.162 9.70819 16.1409 9.6449Z" fill="#E28A0C"/>
<path d="M17.1556 11.9025C17.1556 11.8392 17.071 11.8181 17.0287 11.8181C16.7537 11.8181 16.4787 11.8392 16.2037 11.8392C15.9287 11.8603 15.6536 11.8603 15.3786 11.8814C15.2729 11.9025 15.2729 12.0291 15.3786 12.0502C15.6536 12.0502 15.9287 12.0502 16.2248 12.0291C16.4998 12.008 16.796 12.0291 17.071 11.9869C17.1133 11.9869 17.1767 11.9447 17.1556 11.9025Z" fill="#E28A0C"/>
<path d="M9.92127 8.27353C9.90012 8.23133 9.85781 8.21023 9.79435 8.21023C9.58281 8.21023 9.37127 8.23133 9.18088 8.23133C8.96934 8.23133 8.7578 8.23133 8.54626 8.23133C8.12317 8.21024 7.72125 8.18914 7.31932 8.12584C7.19239 8.10475 7.17124 8.27353 7.29817 8.29463C7.72125 8.35792 8.14433 8.40011 8.58857 8.42121C8.80011 8.42121 9.01165 8.42121 9.22319 8.42121C9.43473 8.42121 9.66742 8.42121 9.85781 8.37902C9.90012 8.35792 9.92127 8.31572 9.92127 8.27353Z" fill="#E28A0C"/>
<path d="M14.6597 7.61956C13.9616 7.70395 13.2635 7.70395 12.5654 7.66175C12.4385 7.66175 12.4173 7.80944 12.5443 7.83053C13.2635 7.89383 13.9827 7.89383 14.702 7.78834C14.8289 7.78834 14.7866 7.59846 14.6597 7.61956Z" fill="#E28A0C"/>
<path d="M13.5596 23.3585C13.5385 23.2952 13.4538 23.2952 13.4115 23.2952C12.8827 23.4218 12.3538 23.5272 11.825 23.5483C11.275 23.5905 10.7461 23.5694 10.2173 23.5272C10.0903 23.5272 10.0692 23.6749 10.1961 23.696C11.2961 23.8437 12.4596 23.7382 13.5173 23.4639C13.5596 23.4639 13.6019 23.4218 13.5596 23.3585Z" fill="#E28A0C"/>
<path d="M9.11749 12.029C9.30788 11.7759 9.54057 11.6282 9.85788 11.6704C10.1752 11.7126 10.429 11.8602 10.5983 12.1556C10.6194 12.1767 10.6194 12.2189 10.6617 12.2189C10.6194 11.9446 10.5348 11.6915 10.3867 11.4594C10.3021 11.3328 10.1752 11.2273 10.006 11.164C9.9425 11.1429 9.87904 11.1218 9.79442 11.1218C9.56173 11.1429 9.37134 11.2695 9.22326 11.4805C9.09634 11.6704 9.05403 11.8813 9.01172 12.1134C9.07518 12.1345 9.09634 12.0712 9.11749 12.029Z" fill="white"/>
<path d="M10.6404 13.0206C10.6404 13.2738 10.6193 13.4848 10.4923 13.6536C10.302 13.9278 9.96349 14.0755 9.64618 14.0122C9.4981 13.97 9.37118 13.8856 9.28656 13.7591C9.13848 13.5481 9.03271 13.316 9.03271 13.0628C9.03271 12.9784 9.03271 12.894 9.03271 12.8097C9.05387 12.5776 9.13848 12.3455 9.28656 12.1556C9.58272 11.7337 10.2173 11.797 10.4712 12.2822C10.5135 12.3666 10.5558 12.4721 10.577 12.5565C10.6193 12.7042 10.6404 12.8729 10.6404 13.0206Z" fill="#63451E"/>
<path d="M10.5773 12.5565C10.5561 12.6409 10.535 12.7464 10.4927 12.8097C10.4504 12.8729 10.3869 12.9362 10.3234 12.9784C10.0273 13.2105 9.58305 13.2316 9.28689 13.0206C9.18112 12.9573 9.11766 12.8729 9.0542 12.8097C9.07535 12.5776 9.15997 12.3455 9.30805 12.1556C9.60421 11.7337 10.2388 11.797 10.4927 12.2822C10.5138 12.3666 10.5561 12.451 10.5773 12.5565Z" fill="#332410"/>
<path d="M10.1117 13.0417C10.1117 13.2738 9.9636 13.4847 9.79436 13.4847C9.62513 13.4847 9.47705 13.2949 9.47705 13.0417C9.47705 12.8096 9.62513 12.5986 9.79436 12.5986C9.98475 12.5986 10.1117 12.7885 10.1117 13.0417Z" fill="white"/>
<path d="M11.233 15.4047C11.508 15.5524 11.8464 15.5524 12.1003 15.3836C12.3541 15.2148 12.5234 14.8983 12.4811 14.603C12.4811 14.5608 12.4599 14.5397 12.4388 14.5186C12.4176 14.4975 12.3753 14.4975 12.333 14.4975C12.0368 14.5186 11.7407 14.5397 11.4445 14.4764C11.2118 14.4342 10.7887 14.392 10.7676 14.7295C10.7676 15.0038 11.0214 15.2781 11.233 15.4047Z" fill="#E28A0C"/>
<path d="M12.0369 14.8351C11.8254 15.0038 11.5081 15.0038 11.2965 14.8351C11.1907 14.7507 11.1484 14.6452 11.1484 14.4975C11.1484 14.4553 11.1484 14.4131 11.1696 14.392C11.2119 14.1599 11.4023 14.0544 11.7196 14.0544C11.8677 14.0544 12.0158 14.1599 12.1215 14.3287C12.1427 14.3498 12.1427 14.3709 12.1638 14.4131C12.2273 14.5608 12.1638 14.7085 12.0369 14.8351Z" fill="#E07703"/>
<path d="M12.0369 14.8351C11.8254 15.0039 11.5081 15.0039 11.2965 14.8351C11.1907 14.7508 11.1484 14.6453 11.1484 14.4976C11.1484 14.4554 11.1484 14.4132 11.1696 14.3921C11.3177 14.4554 11.5081 14.6031 11.6561 14.6242C11.8465 14.6453 12.0369 14.5609 12.1638 14.4132C12.2273 14.5609 12.1638 14.7086 12.0369 14.8351Z" fill="#CC6905"/>
<path d="M10.8521 9.39193C11.0425 9.41302 11.2117 9.39193 11.381 9.32863C11.4233 9.30754 11.4656 9.30754 11.5079 9.34973C11.8464 9.6662 12.4175 9.70839 12.7771 9.41302C13.0733 9.18095 13.2637 8.88558 13.3906 8.52692C13.4118 8.48472 13.4329 8.42143 13.3906 8.40033C13.3483 8.37924 13.3271 8.44253 13.306 8.48472C13.2002 8.65351 13.0733 8.82229 12.9252 8.94887C12.6925 9.18095 12.4175 9.26534 12.1002 9.26534C11.9944 9.26534 11.8887 9.22315 11.7829 9.13875C11.8252 9.09656 11.8675 9.07546 11.9098 9.03327C12.079 8.90668 12.206 8.7379 12.2906 8.54802C12.3329 8.44253 12.3752 8.31594 12.3541 8.18936C12.3329 7.97838 12.1637 7.85179 11.9521 7.87289C11.8675 7.89399 11.7829 7.91509 11.7194 7.97838C11.4444 8.21045 11.3175 8.50582 11.3175 8.88558C11.3175 9.05436 11.3175 9.05436 11.1906 9.09656C11.1483 9.09656 11.1271 9.11766 11.0848 9.11766C10.8944 9.13875 10.7252 9.11766 10.5771 8.96997C10.4713 8.88558 10.4502 8.75899 10.4925 8.63241C10.5348 8.52692 10.5771 8.42143 10.6406 8.33704C10.6829 8.27375 10.7463 8.21045 10.8098 8.16826C10.831 8.14716 10.8521 8.10496 10.8521 8.06277C10.831 7.99948 10.7675 7.97838 10.704 8.02057C10.5136 8.16826 10.3867 8.35814 10.3021 8.59021C10.2386 8.78009 10.281 8.96997 10.4079 9.11766C10.4925 9.26534 10.6617 9.37083 10.8521 9.39193ZM11.6348 8.78009C11.656 8.59021 11.7406 8.42143 11.8675 8.29484C11.9098 8.25265 11.9521 8.21045 11.9944 8.23155C12.0367 8.25265 12.0156 8.33704 11.9944 8.37923C11.931 8.56911 11.804 8.7168 11.656 8.82229C11.6348 8.80119 11.6348 8.80119 11.6348 8.78009Z" fill="#E07703"/>
<path d="M7.23469 14.1177C7.65528 14.1177 7.99624 13.891 7.99624 13.6113C7.99624 13.3317 7.65528 13.105 7.23469 13.105C6.8141 13.105 6.47314 13.3317 6.47314 13.6113C6.47314 13.891 6.8141 14.1177 7.23469 14.1177Z" fill="#F75C46"/>
<path d="M16.2464 14.1177C16.667 14.1177 17.008 13.891 17.008 13.6113C17.008 13.3317 16.667 13.105 16.2464 13.105C15.8258 13.105 15.4849 13.3317 15.4849 13.6113C15.4849 13.891 15.8258 14.1177 16.2464 14.1177Z" fill="#F75C46"/>
<path d="M2.96181 8.12591C2.96181 8.14701 2.94066 8.14701 2.91951 8.14701C2.89835 8.16811 2.85604 8.16811 2.83489 8.14701C2.70797 8.12591 2.6445 7.97823 2.60219 7.85164C2.53873 7.66176 2.51758 7.47188 2.51758 7.2609C2.51758 7.13432 2.55989 7.00773 2.62335 6.92334C2.68681 6.94444 2.75027 7.00773 2.79258 7.07102C2.89835 7.23981 2.94066 7.40859 2.96181 7.59847C2.98297 7.78835 2.98297 7.95713 2.96181 8.12591Z" fill="#FD8B27"/>
<path d="M1.4598 8.6536C1.29057 8.78019 1.01557 8.7169 0.909797 8.88568C0.825181 9.01227 0.909797 9.24434 0.761718 9.32873C0.698256 9.37093 0.592485 9.34983 0.507869 9.37093C0.423253 9.39202 0.35979 9.45532 0.338636 9.53971C0.338636 9.5819 0.338636 9.6241 0.317482 9.6663V9.68739C0.317482 9.6663 0.317482 9.6663 0.317482 9.6452C0.275174 9.47642 0.317482 9.30763 0.423253 9.15995C0.507869 9.01227 0.61364 8.88568 0.740564 8.80129C0.867489 8.7169 0.973259 8.61141 1.07903 8.50592C1.12134 8.46372 1.16365 8.42153 1.22711 8.37933C1.33288 8.31604 1.43865 8.29494 1.54442 8.33714C1.54442 8.35824 1.54442 8.37933 1.54442 8.40043C1.56557 8.50592 1.52327 8.61141 1.4598 8.6536Z" fill="#FD8B27"/>
<path d="M3.34197 9.47627L3.32082 9.49737C3.25735 9.51847 3.21505 9.43408 3.19389 9.39188C3.15158 9.32859 3.06697 9.30749 3.0035 9.28639C2.91889 9.2653 2.85543 9.28639 2.77081 9.28639C2.68619 9.28639 2.60158 9.28639 2.51696 9.2653C2.41119 9.2442 2.26311 9.15981 2.28426 9.03322C2.4535 8.90664 2.70735 8.82224 2.87658 8.88554C3.02466 8.92773 3.15158 9.01212 3.2362 9.15981C3.25735 9.2442 3.32082 9.37079 3.34197 9.47627Z" fill="#FD8B27"/>
<path d="M1.41693 13.8014C1.37463 14.2445 1.41693 14.7086 1.41693 15.1517C1.41693 15.2571 1.41693 15.3626 1.39578 15.4681C1.35347 15.4048 1.33232 15.3626 1.31116 15.2782C1.20539 14.9618 1.16308 14.6242 1.16308 14.3077C1.14193 13.8014 1.16308 13.3162 1.20539 12.8098C1.26885 12.2613 1.26885 11.7127 1.29001 11.1642C1.29001 11.122 1.29001 11.0798 1.29001 11.0376C1.29001 10.9321 1.29001 10.9321 1.39578 10.8899C1.45924 10.8688 1.54386 10.8266 1.60732 10.7844C1.67078 10.8688 1.56501 11.0165 1.54386 11.1853C1.4804 11.6283 1.58617 12.0925 1.56501 12.5355C1.56501 12.9575 1.45924 13.3794 1.41693 13.8014Z" fill="#F28011"/>
<path d="M19.8216 18.8647C19.885 18.8647 19.9273 18.8225 19.9696 18.7803C19.9908 18.7381 20.0119 18.6748 20.0119 18.6115C20.0119 18.5693 20.0119 18.5271 19.9908 18.506C19.9696 18.4849 19.9485 18.4638 19.9273 18.4427C19.8004 18.3584 19.61 18.3795 19.5889 18.5482C19.5889 18.6537 19.6946 18.8647 19.8216 18.8647Z" fill="#FD8B27"/>
<path d="M18.9331 19.2233C18.9542 19.2444 18.9542 19.2655 18.9966 19.2866C19.06 19.3288 19.1446 19.2866 19.1658 19.2233C19.1869 19.16 19.1446 19.0756 19.1023 19.0334C19.0812 19.0123 19.0389 18.9912 19.0177 18.9702C18.9754 18.9069 18.8908 18.6537 18.785 18.8436C18.7215 18.928 18.8696 19.1178 18.9331 19.2233Z" fill="#FD8B27"/>
<path d="M18.0019 18.907C18.0231 18.9281 18.0654 18.9492 18.1077 18.9281C18.15 18.907 18.15 18.8648 18.1288 18.8226C18.1077 18.7804 18.0865 18.7593 18.0654 18.7171C18.0231 18.6327 18.0231 18.5061 18.0231 18.4006C18.0231 18.3162 18.0231 18.1475 17.8961 18.1686C17.8115 18.1897 17.8115 18.2529 17.8115 18.3373C17.8538 18.5272 17.8115 18.7593 18.0019 18.907Z" fill="#FD8B27"/>
<path d="M19.6727 15.7001C19.5669 16.101 19.165 16.3752 18.7631 16.5018C18.7419 16.5018 18.6996 16.5229 18.6785 16.5229C18.7419 16.4807 18.8054 16.4174 18.8689 16.3752C18.9958 16.2697 19.1439 16.1643 19.2708 16.0377C19.4612 15.8478 19.5669 15.6579 19.4189 15.2782C19.3554 15.1094 19.2496 14.9828 19.1227 14.8562C18.9323 14.6452 18.6996 14.4553 18.4669 14.3077C18.4035 14.2655 18.3612 14.2233 18.3612 14.1389C18.34 14.0334 18.34 13.9279 18.3188 13.8435C18.3612 13.8857 18.4035 13.949 18.4669 13.9912C18.7419 14.2233 19.0804 14.4342 19.3342 14.6874C19.5669 14.9617 19.7573 15.3414 19.6727 15.7001Z" fill="#FD8B27"/>
<path d="M9.85754 27.1773C9.83638 27.1773 9.83638 27.1984 9.81523 27.1984C9.66715 27.2406 9.49792 27.2617 9.34984 27.2617C9.20176 27.2617 9.07484 27.2406 8.92676 27.1984C8.92676 26.8186 8.92676 26.1224 8.94791 25.7427C8.94791 25.7005 8.94791 25.6583 8.94791 25.6161C8.94791 25.4895 8.96907 25.3629 8.96907 25.2363C8.99022 25.0675 8.99022 24.8776 9.01137 24.7089C9.01137 24.6667 9.03253 24.6456 9.03253 24.5823C9.09599 24.6034 9.11714 24.6245 9.11714 24.6245C9.11714 24.6245 9.09599 24.6245 9.20176 24.6667C9.37099 24.73 9.56138 24.7933 9.75177 24.8354C9.81523 24.8565 9.83638 24.8776 9.83638 24.9409C9.83638 25.0675 9.83638 25.1941 9.81523 25.3629C9.81523 25.4895 9.81523 25.6372 9.81523 25.7637C9.81523 26.249 9.83638 26.7975 9.85754 27.1773Z" fill="#E07703"/>
<path d="M13.7716 27.093C13.7716 27.1773 13.7716 27.2406 13.7716 27.3039C13.7504 27.325 13.7293 27.325 13.687 27.325C13.5389 27.3672 13.412 27.3883 13.2639 27.4094C13.1158 27.4094 12.9677 27.3883 12.8408 27.3461C12.862 26.9875 12.862 26.3334 12.8831 25.8271C12.8831 25.6583 12.8831 25.5317 12.8831 25.4051C12.8831 25.384 12.8831 25.3629 12.8831 25.3418C12.8831 25.1942 12.8831 25.0465 12.862 24.8988C12.862 24.8144 12.862 24.7933 12.9466 24.7722C13.2851 24.6878 13.2639 24.73 13.6024 24.6245C13.687 24.6034 13.687 24.6034 13.687 24.6878C13.7081 24.8355 13.7081 25.0043 13.7293 25.1942C13.7293 25.3629 13.7504 25.5739 13.7504 25.7638C13.7716 26.2701 13.7716 26.7976 13.7716 27.093Z" fill="#E07703"/>
<path d="M9.11745 18.8015C9.30784 18.5905 9.45591 18.3795 9.58284 18.1263C9.70976 17.8732 9.81553 17.5989 9.90015 17.3457C9.9213 17.2613 9.9213 17.2613 10.0059 17.3035C10.2598 17.4512 10.5136 17.5567 10.7886 17.6411C11.6982 17.8521 12.5656 17.7255 13.3906 17.2191C14.3848 16.6073 15.0618 15.7001 15.5483 14.603C15.5906 14.4975 15.5906 14.4975 15.6964 14.5186C15.8021 14.5397 15.9079 14.5397 16.0137 14.5186C16.056 14.4975 16.0983 14.4764 16.0983 14.4342C16.0983 14.392 16.056 14.3498 16.0137 14.3498C15.9714 14.3498 15.9502 14.3287 15.9079 14.3287C15.6964 14.3287 15.506 14.2233 15.3579 14.0545C15.3156 14.0123 15.2733 13.9701 15.231 13.9279C15.1675 13.8857 15.1252 13.8857 15.0829 13.9279C15.0406 13.9701 15.0406 14.0334 15.0829 14.0756C15.1252 14.1389 15.1887 14.1811 15.231 14.2444C15.2944 14.3076 15.2944 14.3076 15.2733 14.4131C14.9348 15.257 14.4483 15.9744 13.7925 16.544C13.2213 17.0504 12.5656 17.3457 11.8252 17.409C11.3175 17.4512 10.8521 17.3668 10.3867 17.1347C9.58284 16.7128 8.94822 16.101 8.46167 15.2992C8.37706 15.1727 8.33475 15.025 8.27128 14.8984C8.25013 14.8351 8.25013 14.814 8.29244 14.7718C8.39821 14.6663 8.46167 14.5397 8.52513 14.4131C8.54629 14.3709 8.54629 14.3498 8.54629 14.3076C8.54629 14.2654 8.52513 14.2444 8.48283 14.2444C8.44052 14.2444 8.44052 14.2655 8.41936 14.2865C8.39821 14.3076 8.39821 14.3287 8.37706 14.3498C8.27128 14.5819 8.10205 14.7085 7.8482 14.7507C7.76359 14.7718 7.67897 14.7718 7.59435 14.7718C7.55205 14.7718 7.50974 14.814 7.50974 14.8562C7.50974 14.8984 7.53089 14.9406 7.5732 14.9406C7.59435 14.9406 7.61551 14.9406 7.63666 14.9617C7.72128 14.9617 7.80589 14.9617 7.89051 14.9617C7.93282 14.9617 7.95397 14.9617 7.97513 15.0039C8.05974 15.2148 8.16551 15.4258 8.29244 15.6368C8.27129 15.6579 8.25013 15.6579 8.25013 15.679C7.97513 15.8267 7.72128 16.0166 7.46743 16.2275C7.19243 16.4596 6.93858 16.7339 6.74819 17.0715C6.53665 17.4301 6.49434 17.7888 6.5578 18.1896C6.64242 18.6749 6.89627 19.0335 7.3405 19.2234C7.40397 19.2445 7.44628 19.2656 7.50974 19.2867C8.16551 19.4344 8.69437 19.2867 9.11745 18.8015ZM8.25013 18.9702C7.86936 19.0335 7.50974 18.907 7.21358 18.6327C7.02319 18.4639 6.95973 18.2107 6.91742 17.9576C6.91742 17.9154 6.91742 17.8521 6.89627 17.7888C6.89627 17.5778 6.93858 17.3668 7.04435 17.198C7.21358 16.9238 7.40397 16.6706 7.63666 16.4596C7.86936 16.2486 8.12321 16.0588 8.39821 15.9322C8.50398 15.8689 8.50398 15.8689 8.5886 15.9744C8.69437 16.1221 8.82129 16.2697 8.94822 16.4174C8.99052 16.4596 8.99052 16.4807 8.94822 16.5229C8.92706 16.544 8.90591 16.544 8.88475 16.5651C8.48283 16.8816 8.16551 17.2613 7.86936 17.6833C7.8059 17.7888 7.74243 17.8943 7.67897 17.9998C7.65782 18.0208 7.63666 18.063 7.63666 18.0841C7.63666 18.1474 7.70012 18.1896 7.76359 18.1685C7.78474 18.1474 7.80589 18.1263 7.80589 18.1263C7.93282 17.9154 8.10205 17.7466 8.25013 17.5567C8.50398 17.2402 8.82129 16.9871 9.1386 16.755C9.18091 16.7128 9.20207 16.7339 9.24437 16.755C9.3713 16.8816 9.51938 17.0082 9.66746 17.1136C9.70976 17.1347 9.73092 17.1558 9.70976 17.2191C9.51938 17.7255 9.28668 18.2107 8.92706 18.5905C8.75783 18.8015 8.52513 18.9281 8.25013 18.9702Z" fill="black"/>
<path d="M9.01148 13.97C9.24417 14.2865 9.56148 14.4341 9.94226 14.3708C10.45 14.3075 10.7673 13.9911 10.9365 13.4847C11.1269 12.8518 11.0634 12.2189 10.8307 11.607C10.725 11.3117 10.5134 11.0796 10.2384 10.9319C10.0692 10.8475 9.89995 10.8053 9.70956 10.8264C9.26532 10.9108 8.96917 11.164 8.82109 11.607C8.69416 11.9235 8.65186 12.2611 8.65186 12.5775C8.65186 12.7674 8.65186 12.9362 8.67301 13.0839C8.73647 13.4003 8.82109 13.6957 9.01148 13.97ZM10.4923 13.6535C10.3019 13.9278 9.96341 14.0755 9.6461 14.0122C9.49802 13.97 9.37109 13.8856 9.28648 13.759C9.1384 13.548 9.03263 13.316 9.03263 13.0628C9.03263 12.7463 9.09609 12.4088 9.28648 12.1556C9.58264 11.7336 10.2173 11.7969 10.4711 12.2822C10.598 12.5142 10.6403 12.7674 10.6403 13.0206C10.6403 13.2738 10.6192 13.4847 10.4923 13.6535ZM9.24417 11.5226C9.39225 11.3117 9.58264 11.2062 9.81533 11.164C9.87879 11.164 9.96341 11.1851 10.0269 11.2062C10.175 11.2695 10.3019 11.3539 10.4076 11.5015C10.5557 11.7125 10.6403 11.9868 10.6826 12.2611C10.6403 12.24 10.6403 12.2189 10.6192 12.1978C10.45 11.9024 10.1961 11.7547 9.87879 11.7125C9.56148 11.6703 9.32879 11.818 9.1384 12.0712C9.11725 12.1134 9.09609 12.1556 9.03263 12.1978C9.07494 11.9235 9.11725 11.6914 9.24417 11.5226Z" fill="black"/>
<path d="M12.2907 12.894C12.3118 13.2315 12.3965 13.548 12.5657 13.8434C12.8195 14.2864 13.2426 14.4763 13.708 14.3497C14.1522 14.2231 14.4272 13.9278 14.5542 13.4847C14.6811 13.0628 14.7023 12.6197 14.6176 12.1767C14.5753 11.9235 14.5119 11.6492 14.3638 11.4171C14.2157 11.164 14.0042 10.9952 13.7503 10.8686C13.6234 10.8053 13.4753 10.7842 13.3272 10.8264C12.883 10.9108 12.5868 11.1851 12.4176 11.6281C12.3118 11.9446 12.2695 12.261 12.2695 12.5986C12.2907 12.7041 12.2907 12.7885 12.2907 12.894ZM14.2157 13.4847C14.0888 13.8645 13.6657 14.0965 13.3061 14.0122C13.158 13.97 13.0099 13.8856 12.9253 13.759C12.5022 13.1471 12.7138 12.4298 13.1157 12.0501C13.3484 11.8391 13.6445 11.818 13.9196 11.9657C14.0253 12.029 14.1099 12.1134 14.1734 12.2399C14.3003 12.472 14.3215 12.7252 14.3215 12.9995C14.3003 13.1471 14.258 13.337 14.2157 13.4847ZM12.8618 11.5226C12.9888 11.3116 13.2003 11.1851 13.433 11.164C13.4965 11.164 13.5811 11.1851 13.6445 11.2062C13.7926 11.2694 13.9196 11.3749 14.0253 11.5015C14.1311 11.6703 14.2157 11.8602 14.258 12.0712C14.2157 12.0712 14.2157 12.0501 14.1946 12.029C13.8984 11.6492 13.3907 11.5648 13.0099 11.8602C12.883 11.9657 12.7772 12.0712 12.6926 12.2188C12.6715 12.2399 12.6715 12.2821 12.6292 12.3032C12.6715 12.0079 12.7138 11.7547 12.8618 11.5226Z" fill="black"/>
<path d="M11.2117 15.1726C11.3598 15.2359 11.5079 15.2781 11.6983 15.2781C11.7829 15.2781 11.931 15.257 12.0579 15.1937C12.5444 14.9616 12.5867 14.3709 12.2694 14.0333C11.9521 13.7168 11.4233 13.7379 11.1271 13.97C10.704 14.2865 10.7675 14.9405 11.2117 15.1726ZM11.7194 14.0544C11.8675 14.0544 12.0156 14.1599 12.1213 14.3287C12.2271 14.4975 12.1848 14.7084 12.0367 14.835C11.8252 15.0038 11.5079 15.0038 11.2963 14.835C11.1906 14.7506 11.1482 14.6451 11.1482 14.4975C11.1694 14.2021 11.3598 14.0755 11.7194 14.0544Z" fill="black"/>
<path d="M9.85754 27.1774C9.83638 27.1774 9.83638 27.1985 9.81523 27.1985C9.66715 27.2407 9.49792 27.2618 9.34984 27.2618C9.20176 27.2618 9.07484 27.2407 8.92676 27.1985C8.92676 27.0508 8.92676 26.8609 8.92676 26.671C8.92676 26.3335 8.94791 25.9959 8.94791 25.7427C9.03253 25.7216 9.15945 25.7638 9.26522 25.7638C9.30753 25.7638 9.646 25.7638 9.81523 25.7427C9.81523 26.0592 9.81523 26.3968 9.83638 26.7132C9.83638 26.882 9.85754 27.0297 9.85754 27.1774Z" fill="white"/>
<path d="M13.7716 27.093C13.7716 27.1774 13.7716 27.2407 13.7716 27.304C13.7504 27.325 13.7293 27.325 13.687 27.325C13.5389 27.3672 13.412 27.3883 13.2639 27.4094C13.1158 27.4094 12.9677 27.3883 12.8408 27.3461C12.8408 27.2196 12.862 27.0719 12.862 26.9031C12.862 26.5655 12.8831 26.1647 12.8831 25.8271C13.0101 25.8482 13.1158 25.8482 13.2427 25.8482C13.412 25.8482 13.5812 25.8271 13.7504 25.7849C13.7716 26.1647 13.7716 26.5444 13.7928 26.8398C13.7716 26.9242 13.7716 27.0086 13.7716 27.093Z" fill="white"/>
<path d="M7.53067 29.0338C7.84799 28.8439 8.20761 28.7806 8.56723 28.8228C8.73646 28.8439 8.92684 28.9072 9.05377 29.0127C9.18069 29.1182 9.26531 29.308 9.223 29.4768C9.18069 29.6245 9.07492 29.73 8.948 29.8144C8.673 30.0043 8.33453 30.0676 8.01722 30.1098C7.82683 30.1309 7.63645 30.152 7.44606 30.1309C7.21336 30.1098 6.76913 30.0043 6.8749 29.6878C7.00182 29.4346 7.27682 29.1815 7.53067 29.0338Z" fill="#ED4D37"/>
<path d="M10.3447 27.6624C10.4293 27.6202 10.5139 27.5569 10.5351 27.4514C10.5351 27.4303 10.5351 27.4092 10.5351 27.3881C10.5139 27.3459 10.4293 27.367 10.387 27.3881C10.2389 27.4725 10.0908 27.5569 9.94275 27.5991C9.62544 27.7046 9.26582 27.6413 8.94851 27.578C8.86389 27.5569 8.82159 27.5991 8.88505 27.6624C8.92736 27.7046 9.03313 27.7257 9.07543 27.7468C9.20236 27.789 9.35044 27.8312 9.49852 27.8312C9.79467 27.8734 10.0908 27.8101 10.3447 27.6624Z" fill="#ED4D37"/>
<path d="M16.204 30.7426C16.1194 31.1224 15.8232 31.3334 15.4636 31.46C15.0405 31.5866 14.5963 31.6077 14.1521 31.6287C13.7078 31.6287 13.2424 31.6288 12.8405 31.4811C12.4809 31.3545 12.2059 31.0591 12.0578 30.7004C11.7193 29.8987 11.9943 29.0337 12.2905 28.2531C12.4174 28.2953 12.5444 28.2953 12.6713 28.2742C12.7347 28.2742 12.7982 28.232 12.7982 28.1476C12.7982 28.0843 12.7347 28.0421 12.6713 28.0421C12.354 28.0421 12.079 27.8523 11.9943 27.5569C12.0367 27.6202 12.079 27.6624 12.1213 27.7257C12.2693 27.8523 12.4386 27.9366 12.629 27.9788C12.6924 27.9999 12.777 27.9999 12.8194 28.0632C12.8617 28.1265 12.8617 28.2109 12.8194 28.2742C12.777 28.3375 12.7347 28.4008 12.6713 28.443C12.227 28.9282 12.1636 29.6667 12.3963 30.2574C12.502 30.5106 12.6501 30.7426 12.8828 30.8692C13.0097 30.9325 13.1578 30.9747 13.3059 30.9958C13.9828 31.1224 14.7021 31.2068 15.3155 30.8692C15.6963 30.6583 15.9713 30.2996 16.0982 29.8987C16.204 30.173 16.2463 30.4684 16.204 30.7426Z" fill="#CA301B"/>
<path d="M14.6386 28.844C15.0617 28.8862 15.4424 29.1604 15.5905 29.5402C15.6751 29.7512 15.6963 30.0043 15.5271 30.1731C15.4001 30.3208 15.1886 30.363 14.9982 30.363C14.6174 30.3841 14.2367 30.2575 13.9194 30.0887C13.7713 30.0043 13.6232 29.9199 13.5386 29.7934C13.1578 29.1815 14.152 28.7807 14.6386 28.844Z" fill="#ED4D37"/>
<path d="M14.3423 27.6625C14.2154 27.7679 14.0885 27.8523 13.9192 27.9367C13.7923 28 13.6442 28.0422 13.4961 28.0211C13.4538 28.0211 13.4115 28.0211 13.3904 27.9789C13.3058 27.8945 13.4115 27.8523 13.475 27.8312C13.6865 27.7679 13.9192 27.7258 14.1096 27.6203C14.2154 27.5781 14.3 27.4937 14.3846 27.4304C14.4269 27.3882 14.5539 27.3038 14.5539 27.4304C14.5539 27.4937 14.4904 27.557 14.4481 27.5992C14.4269 27.5992 14.3846 27.6414 14.3423 27.6625Z" fill="#ED4D37"/>
<path d="M9.83656 24.9199C9.83656 25.0465 9.83656 25.1731 9.8154 25.3419C9.5404 25.3208 9.24424 25.2786 8.96924 25.2153C8.99039 25.0465 8.99039 24.8566 9.01155 24.6879C9.01155 24.6457 9.0327 24.6246 9.0327 24.5613C9.09616 24.5824 9.11732 24.6035 9.11732 24.6035C9.11732 24.6035 9.09616 24.6035 9.20193 24.6457C9.37117 24.709 9.56155 24.7723 9.75194 24.8145C9.8154 24.8145 9.83656 24.8566 9.83656 24.9199Z" fill="#CA6805"/>
<path d="M13.708 25.2151C13.433 25.2784 13.158 25.3206 12.883 25.3628C12.883 25.2151 12.883 25.0675 12.8618 24.9198C12.8618 24.8354 12.8618 24.8143 12.9464 24.7932C13.2849 24.7088 13.2637 24.751 13.6022 24.6455C13.6868 24.6244 13.6868 24.6244 13.6868 24.7088C13.6868 24.8565 13.708 25.0253 13.708 25.2151Z" fill="#CA6805"/>
<path d="M9.85754 27.1772C9.83638 27.1772 9.83638 27.1983 9.81523 27.1983C9.66715 27.2405 9.49792 27.2616 9.34984 27.2616C9.20176 27.2616 9.07484 27.2405 8.92676 27.1983C8.92676 27.0507 8.92676 26.8608 8.92676 26.6709C9.24407 26.7131 9.54023 26.7342 9.83638 26.7342C9.83638 26.8819 9.85754 27.0296 9.85754 27.1772Z" fill="#E6E6E6"/>
<path d="M13.7716 27.0929C13.7716 27.1773 13.7716 27.2406 13.7716 27.3039C13.7504 27.325 13.7293 27.3249 13.687 27.3249C13.5389 27.3671 13.412 27.3882 13.2639 27.4093C13.1158 27.4093 12.9677 27.3882 12.8408 27.346C12.8408 27.2195 12.862 27.0718 12.862 26.903C13.0312 26.9452 13.2004 26.9663 13.412 26.9241C13.5389 26.903 13.6658 26.8608 13.7928 26.8186C13.7716 26.9241 13.7716 27.0085 13.7716 27.0929Z" fill="#E6E6E6"/>
<path d="M20.3502 17.9363C20.3291 17.9363 20.3291 17.9363 20.3502 17.9363C20.2868 17.9152 20.2868 17.8941 20.3079 17.8519C20.3502 17.7042 20.3291 17.5776 20.2868 17.451C20.2233 17.2822 20.1387 17.1556 19.9906 17.0502C20.0329 16.9658 20.0964 16.9025 20.1599 16.8392C20.3291 16.6704 20.5195 16.5016 20.6676 16.2906C21.006 15.8265 21.0906 15.3201 20.9003 14.7505C20.7945 14.4762 20.6464 14.2231 20.4349 14.0121C20.1599 13.7378 19.8637 13.4635 19.5252 13.2315C19.081 12.915 18.6156 12.6618 18.1079 12.4298C18.0444 12.4087 18.0021 12.3665 17.981 12.2821C17.6848 11.1006 17.2194 9.98242 16.606 8.90643C16.5848 8.88533 16.5637 8.86424 16.5848 8.82204C16.6271 8.80094 16.6483 8.80094 16.6906 8.80094C17.5367 8.67436 18.3406 8.37899 19.0387 7.87264C19.5675 7.49288 20.0329 7.02873 20.3926 6.45909C20.5618 6.20592 20.6887 5.91055 20.731 5.61518C20.8791 4.85567 20.5406 4.15944 19.8849 3.84297C19.6522 3.73749 19.3772 3.67419 19.1233 3.67419C18.6791 3.65309 18.2348 3.71639 17.7906 3.77968C17.2617 3.86407 16.754 3.99066 16.2252 4.09615C16.1617 4.11724 16.1194 4.11724 16.056 4.11724C16.056 4.09615 16.056 4.09615 16.056 4.07505C16.056 3.632 16.0137 3.21004 15.929 2.78809C15.8021 2.07076 15.6117 1.37454 15.2521 0.741607C15.1675 0.593923 15.0829 0.446239 14.9559 0.319652C14.7867 0.129773 14.554 0.0242838 14.3002 0.00318608C13.9406 -0.0179117 13.6232 0.0664793 13.3271 0.235261C13.1367 0.34075 12.9463 0.467336 12.7771 0.593923C12.5867 0.720509 12.3751 0.825998 12.1636 0.910389C12.1001 0.931487 12.0578 0.931487 12.0155 0.868193C11.9732 0.8049 11.9098 0.741607 11.8463 0.678314C11.6348 0.467336 11.4232 0.298554 11.1482 0.193066C10.9578 0.129773 10.7886 0.087577 10.577 0.108675C10.3655 0.129773 10.1751 0.235261 10.0059 0.361848C9.79435 0.593923 9.58281 0.868193 9.41357 1.16356C9.18088 1.56442 8.99049 1.98637 8.77895 2.38723C8.54626 2.85138 8.33471 3.33663 8.12317 3.82188C8.05971 3.92737 8.05971 3.92737 7.95394 3.90627C7.02316 3.73749 6.07123 3.5687 5.11929 3.44212C4.80198 3.39992 4.46351 3.35773 4.1462 3.37882C3.89235 3.39992 3.63851 3.42102 3.40581 3.52651C2.87696 3.73749 2.5808 4.13834 2.51734 4.72908C2.47503 5.08774 2.53849 5.4464 2.64426 5.78397C2.91927 6.54348 3.38466 7.19752 3.97697 7.70386C4.56929 8.21021 5.22506 8.56887 5.92315 8.82204C5.9443 8.82204 5.98661 8.82204 5.98661 8.86424C5.98661 8.90643 5.96546 8.92753 5.9443 8.94863C5.62699 9.47607 5.37314 10.0457 5.14045 10.6153C4.92891 11.1428 4.75967 11.6913 4.59044 12.2399C4.56929 12.3454 4.50582 12.4087 4.44236 12.4719C4.23082 12.6196 4.04043 12.7673 3.82889 12.915C3.57504 13.1049 3.30004 13.2526 3.02504 13.4213C2.96157 13.4635 2.94042 13.4635 2.94042 13.3792C2.94042 13.337 2.91927 13.3159 2.91927 13.2737C2.8135 12.4719 2.77119 11.6491 2.75003 10.8474C2.75003 10.7419 2.75003 10.7419 2.8558 10.6997C3.21542 10.5943 3.51158 10.2356 3.55389 9.85583C3.5962 9.47607 3.49043 9.11741 3.23658 8.84314C3.19427 8.80094 3.17311 8.73765 3.17311 8.67436C3.17311 8.50557 3.17311 8.3157 3.17311 8.14691C3.17311 7.89374 3.17311 7.66167 3.13081 7.40849C3.10965 7.23971 3.04619 7.07093 2.94042 6.92324C2.83465 6.77556 2.70772 6.69117 2.51734 6.67007C2.3058 6.67007 2.13656 6.77556 2.00964 6.94434C1.92502 7.09203 1.86156 7.26081 1.81925 7.42959C1.77694 7.64057 1.73464 7.85154 1.69233 8.06252C1.67117 8.14691 1.67117 8.14691 1.60771 8.12582C1.37502 8.04142 1.16348 8.10472 0.973089 8.2735C0.782702 8.44228 0.592315 8.58997 0.380774 8.73765C0.126925 8.94863 0 9.2229 0 9.53936C0 10.0035 0.190387 10.3833 0.507698 10.6786C0.613469 10.7841 0.740394 10.8474 0.888472 10.8685C0.973089 10.8896 0.973089 10.8896 0.973089 10.974C0.973089 11.4593 0.951935 11.9656 0.888472 12.4509C0.82501 13.0838 0.761548 13.7378 0.782702 14.3707C0.782702 14.7083 0.82501 15.0248 0.93078 15.3412C1.10001 15.8476 1.45963 16.1219 1.96733 16.1219C2.24233 16.1219 2.51734 16.0586 2.77119 15.9531C3.10965 15.8265 3.42696 15.6155 3.72312 15.4045C3.76543 15.3834 3.78658 15.3412 3.85005 15.3412C3.82889 15.4889 3.80774 15.6155 3.80774 15.7632C3.68081 16.7337 3.68081 17.7253 3.85005 18.6958C3.97697 19.3709 4.1462 20.0038 4.42121 20.6157C4.84429 21.5229 5.47891 22.2613 6.21931 22.9153C6.64239 23.274 7.27701 23.6748 7.86933 23.9913C8.10202 24.1179 8.33471 24.2445 8.54626 24.3289C8.69433 24.3922 8.67318 24.3711 8.65203 24.5399C8.60972 24.9829 8.56741 25.658 8.54626 26.2699C8.16548 26.3965 7.7424 26.5863 7.61548 27.0294C7.55201 27.2193 7.61548 27.4302 7.72125 27.599C7.7424 27.6412 7.78471 27.6834 7.82702 27.7256C7.72125 27.9155 7.63663 28.1054 7.59432 28.3164C7.57317 28.3164 7.55201 28.3374 7.50971 28.3374C6.727 28.6328 6.11353 29.4345 6.05007 30.2784C6.02892 30.7426 6.19815 31.1645 6.60008 31.3966C7.00201 31.6498 7.48855 31.7131 7.95394 31.7342C8.48279 31.7764 9.01165 31.7764 9.5405 31.692C10.0059 31.6076 10.429 31.3966 10.704 31.0169C11.3598 30.0886 11.0001 28.9493 10.6405 27.9788C10.8521 27.8311 11.0213 27.5779 11.0213 27.2826C11.0424 26.7551 10.6194 26.3543 10.1117 26.3332C10.1117 25.9956 10.0905 25.6791 10.0905 25.4682C10.0905 25.3416 10.0905 25.215 10.0905 25.0884C10.0905 25.0251 10.0694 24.8985 10.1328 24.8985C10.3655 24.8985 10.577 24.8985 11.0636 24.9407C11.4021 24.9618 12.2694 24.8985 12.3751 24.8774C12.4809 24.8563 12.4809 24.8563 12.4809 24.9618C12.4809 25.0462 12.5021 25.1306 12.5021 25.215C12.5021 25.5104 12.5021 25.9745 12.4809 26.4176C11.9732 26.4387 11.529 26.8395 11.5501 27.367C11.5501 27.6623 11.6982 27.9155 11.9309 28.0632C11.5713 29.0337 11.2117 30.173 11.8674 31.1013C12.1425 31.481 12.5655 31.692 13.0309 31.7764C13.5386 31.8819 14.0886 31.8608 14.6175 31.8186C15.0829 31.7764 15.5694 31.7131 15.9713 31.481C16.3733 31.2278 16.5425 30.8059 16.5214 30.3628C16.479 29.5189 15.8656 28.7172 15.0617 28.4218C15.0406 28.4218 15.0194 28.4007 14.9771 28.4007C14.9348 28.1898 14.8502 27.9788 14.7444 27.81C14.7867 27.7678 14.8079 27.7256 14.8502 27.6834C14.9559 27.5146 14.9983 27.3037 14.9559 27.1138C14.829 26.6918 14.4271 26.5019 14.0463 26.3754C14.0463 26.1222 14.0463 25.9112 14.0463 25.7846C14.0252 25.3838 14.004 24.9829 13.9617 24.5821C13.9617 24.5188 13.9617 24.4766 14.0252 24.4555C14.2367 24.3922 14.5329 24.2445 14.8502 24.1179C15.104 24.0124 15.3367 23.9069 15.4848 23.8225C16.8175 23.1685 17.706 22.0925 18.1714 20.6368C18.2771 20.3414 18.3195 20.0249 18.3829 19.7085C18.4041 19.603 18.4041 19.603 18.4887 19.603C18.5521 19.603 18.6368 19.603 18.7002 19.5819C18.7637 19.5608 18.806 19.5819 18.8483 19.603C18.9752 19.6874 19.1022 19.7296 19.2502 19.7296C19.4829 19.7085 19.6733 19.603 19.8214 19.4131C19.8849 19.3498 19.9272 19.3287 20.0118 19.3076C20.181 19.3076 20.3291 19.2232 20.456 19.1177C20.6464 18.949 20.7522 18.7169 20.7099 18.4426C20.731 18.1894 20.5829 18.0207 20.3502 17.9363ZM8.44049 3.94846C8.82126 3.10455 9.18088 2.28174 9.62512 1.48003C9.70973 1.33234 9.79435 1.18466 9.87896 1.05807C10.0059 0.868193 10.1751 0.720509 10.3867 0.593923C10.577 0.467336 10.7886 0.446239 11.0213 0.509532C11.3386 0.593923 11.5924 0.783802 11.8251 1.01588C11.9309 1.14246 12.0367 1.26905 12.1425 1.39564C12.3117 1.60661 12.4809 1.79649 12.6925 1.96528C12.8194 2.07076 12.9675 2.15516 13.1367 2.21845C13.179 2.23955 13.2425 2.26064 13.3059 2.23955C13.3694 2.23955 13.3905 2.19735 13.3905 2.15516C13.3905 2.09186 13.3694 2.07076 13.3059 2.07076C13.2425 2.07076 13.2002 2.02857 13.1367 2.00747C13.1155 2.00747 13.1155 1.98637 13.0944 1.98637C12.7559 1.7754 12.5021 1.45893 12.2694 1.14246C12.2905 1.10027 12.3117 1.10027 12.3328 1.10027C12.5655 1.01588 12.7982 0.910389 13.0098 0.783802C13.179 0.678314 13.3482 0.572825 13.5175 0.488434C13.7502 0.382945 14.004 0.319652 14.2579 0.319652C14.5117 0.34075 14.7021 0.425141 14.8502 0.657216C14.9983 0.868193 15.1252 1.12137 15.231 1.35344C15.506 2.00747 15.654 2.7037 15.7175 3.39992C15.7387 3.5898 15.7598 3.80078 15.7598 3.99066C15.7598 4.24383 15.781 4.18054 15.5694 4.22273C15.0829 4.30712 14.6175 4.39152 14.1309 4.43371C13.729 4.47591 13.3482 4.47591 12.9463 4.47591C12.2271 4.47591 11.5078 4.41261 10.8097 4.32822C10.0482 4.24383 9.3078 4.13834 8.54626 3.99066C8.50395 3.99066 8.46164 3.96956 8.41933 3.96956C8.41933 3.99066 8.41933 3.96956 8.44049 3.94846ZM4.04043 7.3241C3.68081 6.96544 3.3635 6.56458 3.13081 6.10043C2.96157 5.78397 2.8558 5.4464 2.8135 5.08774C2.79234 4.91896 2.8135 4.72908 2.8558 4.5603C2.98273 4.15944 3.25773 3.92737 3.6385 3.82188C3.95582 3.73749 4.29428 3.73749 4.61159 3.75858C5.14045 3.80078 5.6693 3.88517 6.177 3.96956C7.21355 4.13834 8.27125 4.32822 9.3078 4.5181C9.92127 4.62359 10.5347 4.68688 11.1694 4.75018C11.6982 4.79237 12.2271 4.83457 12.7559 4.85567C13.5809 4.87676 14.4059 4.79237 15.231 4.66579C15.9502 4.5392 16.6694 4.37042 17.4098 4.22273C17.9598 4.11724 18.5098 4.01176 19.0598 4.03285C19.2291 4.03285 19.3772 4.05395 19.5252 4.09615C20.181 4.28603 20.5195 4.91896 20.3714 5.61518C20.3079 5.93165 20.1599 6.20592 19.9695 6.48019C19.5887 7.02873 19.1022 7.45069 18.5521 7.80935C17.9598 8.18911 17.3041 8.40009 16.606 8.50557C16.5425 8.50557 16.479 8.52667 16.4156 8.54777C16.3521 8.56887 16.3098 8.54777 16.2675 8.48448C16.056 8.14691 15.8233 7.80935 15.5483 7.49288C15.3579 7.26081 15.1252 7.07093 14.8925 6.85995C14.8502 6.81776 14.829 6.79666 14.7867 6.75446C14.8502 6.71227 14.8925 6.73336 14.9559 6.71227C15.2098 6.67007 15.4425 6.62788 15.6963 6.60678C15.8233 6.60678 15.9713 6.60678 16.0983 6.62788C16.1406 6.62788 16.1829 6.64897 16.2252 6.67007C16.3521 6.75446 16.3944 6.88105 16.3521 7.02873C16.331 7.11312 16.2887 7.17642 16.2252 7.23971C16.1829 7.28191 16.1406 7.3241 16.0983 7.3663C16.1406 7.3663 16.1406 7.38739 16.1406 7.40849C16.1617 7.42959 16.1829 7.45069 16.204 7.45069C16.2252 7.45069 16.2252 7.45069 16.2463 7.45069C16.4156 7.3663 16.5637 7.26081 16.6271 7.04983C16.6906 6.79666 16.6271 6.58568 16.4156 6.45909C16.2887 6.3747 16.1406 6.35361 15.9925 6.33251C15.654 6.29031 15.3367 6.33251 15.0194 6.3747C14.4694 6.4169 13.9194 6.56458 13.3694 6.64897C12.6078 6.77556 11.8463 6.88105 11.0847 6.92324C10.429 6.94434 9.79435 6.90215 9.15973 6.77556C8.54626 6.64897 7.93279 6.52239 7.31932 6.3958C7.06547 6.35361 6.79047 6.33251 6.53662 6.3747C6.40969 6.3958 6.30392 6.438 6.19815 6.52239C5.98661 6.69117 5.96546 6.90215 6.11353 7.11312C6.19815 7.23971 6.30392 7.3241 6.43085 7.40849C6.43085 7.40849 6.452 7.40849 6.452 7.42959C6.51546 7.45069 6.57892 7.49288 6.62123 7.45069C6.66354 7.38739 6.60008 7.3452 6.57892 7.303C6.53662 7.23971 6.47315 7.17642 6.43085 7.09203C6.40969 7.04983 6.38854 7.00764 6.36738 6.96544C6.34623 6.85995 6.34623 6.83885 6.43085 6.79666C6.51546 6.75446 6.62123 6.71227 6.727 6.71227C6.9597 6.69117 7.19239 6.73336 7.42509 6.77556C7.48855 6.79666 7.57317 6.79666 7.63663 6.81776C7.63663 6.85995 7.61548 6.88105 7.59432 6.90215C7.08662 7.40849 6.64239 7.97813 6.26161 8.58997C6.19815 8.69545 6.19815 8.69545 6.07123 8.65326C5.26737 8.3157 4.61159 7.89374 4.04043 7.3241ZM2.05195 8.33679C2.0731 7.99923 2.0731 7.68276 2.15772 7.3452C2.17887 7.26081 2.20003 7.19751 2.24233 7.11312C2.36926 6.85995 2.64426 6.83885 2.79234 7.09203C2.89811 7.26081 2.94042 7.42959 2.96157 7.61947C3.00388 7.93594 2.96157 8.2735 2.91927 8.58997C2.91927 8.63216 2.89811 8.67436 2.8558 8.65326C2.64426 8.61106 2.43272 8.67436 2.26349 8.80094C2.24233 8.80094 2.24233 8.82204 2.22118 8.82204C2.09426 8.69545 2.03079 8.52667 2.05195 8.33679ZM3.95582 14.8982C3.55389 15.2147 3.13081 15.51 2.64426 15.6999C2.45388 15.7632 2.24233 15.8265 2.03079 15.8054C1.67117 15.8054 1.43848 15.6155 1.31155 15.278C1.20578 14.9615 1.16348 14.6239 1.16348 14.3075C1.14232 13.8011 1.16348 13.3159 1.20578 12.8095C1.26925 12.261 1.26925 11.7124 1.2904 11.1639C1.2904 11.1217 1.2904 11.0795 1.2904 11.0373C1.2904 10.9318 1.2904 10.9318 1.39617 10.8896C1.5231 10.8474 1.62887 10.7841 1.75579 10.6997C1.77694 10.6786 1.7981 10.6575 1.81925 10.6364C1.84041 10.6153 1.84041 10.6153 1.81925 10.5943C1.7981 10.5732 1.77694 10.5732 1.77694 10.5732C1.75579 10.5732 1.71348 10.5943 1.69233 10.5943C1.50194 10.6575 1.31155 10.6997 1.12117 10.6786C0.888472 10.6575 0.719239 10.5521 0.592315 10.3622C0.444236 10.1512 0.35962 9.91912 0.317311 9.66595C0.275003 9.47607 0.317311 9.30729 0.423082 9.1596C0.507698 9.01192 0.613469 8.88533 0.740393 8.80094C0.867318 8.71655 0.973089 8.61106 1.07886 8.50557C1.12117 8.46338 1.16348 8.42118 1.22694 8.37899C1.35386 8.2946 1.50194 8.2946 1.62887 8.37899C1.7981 8.50557 1.90387 8.67436 1.96733 8.86424C1.98849 8.94863 1.98849 9.03302 1.94618 9.11741C1.90387 9.1807 1.88271 9.244 1.86156 9.30729C1.84041 9.39168 1.77694 9.43388 1.69233 9.41278C1.58656 9.39168 1.50194 9.34948 1.43848 9.26509C1.33271 9.1596 1.22694 9.05412 1.12117 8.96973C1.10001 8.94863 1.07886 8.92753 1.0577 8.90643C1.03655 8.88533 1.0154 8.90643 0.994243 8.92753C0.973089 8.94863 0.973089 8.96973 0.994243 8.99082C1.0154 9.01192 1.03655 9.05412 1.0577 9.07521C1.16348 9.2018 1.26925 9.34948 1.35386 9.49717C1.39617 9.58156 1.41732 9.66595 1.41732 9.77144C1.41732 9.91912 1.31155 10.0035 1.18463 10.0035C1.10001 10.0035 1.0154 9.96132 0.93078 9.89803C0.82501 9.81363 0.740393 9.70815 0.634623 9.60266C0.613469 9.56046 0.571161 9.49717 0.528852 9.53936C0.486544 9.58156 0.528852 9.62376 0.550007 9.66595C0.634623 9.79254 0.740393 9.91912 0.867318 10.0246C0.93078 10.0879 0.994243 10.1301 1.0577 10.1512C1.2904 10.2567 1.5231 10.109 1.5654 9.85583C1.58656 9.77144 1.5654 9.70815 1.5654 9.60266C1.67117 9.62376 1.75579 9.64485 1.84041 9.62375C1.86156 9.62375 1.88271 9.62375 1.88271 9.64485C1.90387 9.66595 1.88271 9.68705 1.86156 9.70815C1.7981 9.79254 1.73464 9.89803 1.69233 10.0035C1.67117 10.0668 1.65002 10.109 1.62887 10.1723C1.62887 10.2145 1.62887 10.2356 1.67117 10.2567C1.71348 10.1723 1.77694 10.0879 1.84041 10.0035C1.86156 9.96132 1.88271 9.94022 1.92502 9.89803C2.00964 9.79254 2.03079 9.81363 2.13656 9.83473C2.34811 9.89803 2.55965 9.89803 2.77119 9.83473C2.79234 9.83473 2.8135 9.81363 2.83465 9.79254L2.8558 9.77144C2.83465 9.72924 2.8135 9.75034 2.79234 9.75034C2.62311 9.77144 2.47503 9.77144 2.3058 9.72924C2.22118 9.70815 2.15772 9.68705 2.09426 9.64485C2.00964 9.60266 1.96733 9.51827 1.98849 9.39168C2.00964 9.30729 2.05195 9.2229 2.09426 9.1596C2.26349 8.92753 2.60195 8.80094 2.83465 8.86424C2.98273 8.90643 3.10965 8.99082 3.19427 9.13851C3.38466 9.47607 3.40581 9.81363 3.23658 10.1512C3.17311 10.2778 3.06734 10.3622 2.91927 10.4255C2.70772 10.5099 2.49618 10.5521 2.26349 10.531C2.22118 10.531 2.17887 10.5099 2.15772 10.5521C2.13656 10.6153 2.20003 10.6153 2.24233 10.6364C2.32695 10.6575 2.41157 10.6997 2.51734 10.6997C2.5808 10.6997 2.5808 10.7208 2.5808 10.7841C2.55965 11.1428 2.55965 11.4804 2.55965 11.839C2.53849 12.3665 2.5808 12.8728 2.62311 13.4003C2.62311 13.4213 2.62311 13.4213 2.62311 13.4424C2.62311 13.5057 2.66542 13.569 2.64426 13.6112C2.62311 13.6745 2.53849 13.6745 2.47503 13.7167C2.39041 13.7589 2.32695 13.78 2.24233 13.8011C2.17887 13.8222 2.15772 13.8644 2.17887 13.9066C2.17887 13.9488 2.22118 13.991 2.28464 13.9699C2.32695 13.9699 2.36926 13.9488 2.39041 13.9488C2.66542 13.8644 2.91927 13.7378 3.17311 13.6112C3.55389 13.4213 3.91351 13.2315 4.27313 12.9783C4.31544 12.9572 4.33659 12.915 4.3789 12.915C4.40005 12.9361 4.3789 12.9783 4.3789 12.9994C4.20967 13.5901 4.1039 14.1809 3.99812 14.7716C3.99812 14.8138 3.99812 14.8771 3.95582 14.8982ZM10.5136 27.1771C10.5771 27.1349 10.5347 27.0294 10.4924 26.9872C10.429 26.945 10.3444 26.9239 10.2597 26.9661C10.2386 26.9872 10.1963 27.0083 10.1751 27.0083C10.1751 26.8817 10.1751 26.7551 10.1751 26.6074C10.5136 26.6285 10.7674 26.945 10.7463 27.2826C10.7251 27.6623 10.4078 27.9155 10.027 27.9155C9.96358 27.9155 9.90012 27.9577 9.90012 28.021C9.90012 28.0843 9.96358 28.1265 10.027 28.1476C10.154 28.1687 10.2809 28.1687 10.4078 28.1265C10.6828 28.9071 10.979 29.7721 10.6405 30.5738C10.4924 30.9325 10.2174 31.2067 9.85781 31.3544C9.43473 31.5021 8.96934 31.5232 8.54626 31.5021C8.12317 31.5021 7.65778 31.4599 7.2347 31.3333C6.87508 31.2278 6.57892 31.0169 6.49431 30.616C6.43085 30.2362 6.53662 29.8354 6.727 29.4978C6.89624 29.1814 7.15009 28.886 7.4674 28.6961C7.80586 28.4851 8.18664 28.4218 8.56741 28.4851C8.7578 28.5273 8.92703 28.5906 9.09626 28.6961C9.2655 28.8016 9.39242 28.9493 9.5405 29.097C9.62512 29.1814 9.8155 29.1392 9.77319 28.9915C9.62512 28.6328 9.20203 28.3796 8.84241 28.2742C8.58856 28.1898 8.31356 28.1687 8.03856 28.2109C8.03856 28.2109 8.03856 28.2109 8.03856 28.1898C8.03856 28.1687 8.05971 28.1476 8.05971 28.1054C8.08087 28.021 8.12317 27.9577 8.16548 27.8944C8.20779 27.9155 8.2501 27.9577 8.29241 27.9788C8.41933 28.0632 8.60972 27.9155 8.46164 27.81C8.22894 27.6412 7.93279 27.367 8.03856 27.0505C8.12317 26.7762 8.37702 26.6496 8.63087 26.5652C8.63087 26.734 8.63087 26.8817 8.63087 27.0294C8.56741 26.9872 8.50395 26.9661 8.46164 26.9239C8.31356 26.8184 8.10202 26.9872 8.27125 27.1349C8.86357 27.6412 9.85781 27.6834 10.5136 27.1771ZM9.22319 24.6453C9.39242 24.7086 9.58281 24.7719 9.77319 24.8141C9.83666 24.8352 9.85781 24.8563 9.85781 24.9196C9.83666 25.4682 9.83666 26.5441 9.87896 27.1771C9.85781 27.1771 9.85781 27.1982 9.83666 27.1982C9.68858 27.2404 9.51934 27.2615 9.37127 27.2615C9.22319 27.2615 9.09626 27.2404 8.94818 27.1982C8.94818 26.7762 8.94818 25.9323 8.99049 25.6158C9.01165 25.3205 9.0328 25.004 9.05395 24.7086C9.05395 24.6664 9.07511 24.6453 9.07511 24.5821C9.24434 24.6453 9.0328 24.561 9.22319 24.6453ZM14.3425 27.3037C14.3848 27.2615 14.3848 27.1771 14.3213 27.1349C14.2579 27.0927 14.1732 27.0716 14.1098 27.1138L14.0886 27.1349C14.0886 27.0083 14.0886 26.8606 14.0886 26.6918C14.3213 26.7973 14.5752 26.9239 14.6598 27.1771C14.7656 27.4935 14.4694 27.7678 14.2367 27.9366C14.0886 28.0421 14.279 28.2109 14.4059 28.1054C14.4483 28.0843 14.4906 28.0421 14.5329 28.021C14.5752 28.0843 14.6175 28.1687 14.6386 28.232C14.6386 28.2531 14.6598 28.2742 14.6598 28.3164C14.6598 28.3164 14.6598 28.3164 14.6598 28.3374C14.3848 28.3164 14.1098 28.3374 13.8559 28.4007C13.4963 28.5062 13.0732 28.7594 12.9252 29.1181C12.8617 29.2447 13.0732 29.3079 13.1579 29.2236C13.2848 29.0759 13.4329 28.9282 13.6021 28.8227C13.7713 28.7172 13.9406 28.6539 14.1309 28.6117C14.5117 28.5484 14.8925 28.6117 15.231 28.8227C15.5483 29.0126 15.8021 29.2868 15.9713 29.6244C16.1406 29.962 16.2675 30.3628 16.204 30.7426C16.1194 31.1224 15.8233 31.3333 15.4636 31.4599C15.0406 31.5865 14.5963 31.6076 14.1521 31.6287C13.7079 31.6287 13.2425 31.6287 12.8405 31.481C12.4809 31.3544 12.2059 31.0591 12.0578 30.7004C11.7194 29.8987 11.9944 29.0337 12.2905 28.2531C12.4175 28.2953 12.5444 28.2953 12.6713 28.2742C12.7348 28.2531 12.7982 28.232 12.7982 28.1476C12.7982 28.0843 12.7348 28.0421 12.6713 28.0421C12.2905 28.0421 11.9732 27.7889 11.9521 27.4091C11.9309 27.0716 12.1848 26.734 12.5444 26.734C12.5444 26.9028 12.5444 27.0716 12.5232 27.2193C12.4809 27.1982 12.4386 27.1771 12.4175 27.156C12.3117 27.0927 12.1213 27.2404 12.2271 27.3459C12.354 27.4724 12.5655 27.5568 12.7348 27.6201C12.9252 27.6834 13.1155 27.7045 13.3271 27.7045C13.6655 27.6834 14.0886 27.5568 14.3425 27.3037ZM12.8617 24.9196C12.8617 24.8352 12.8617 24.8141 12.9463 24.8141C13.2848 24.7297 13.2636 24.7719 13.6021 24.6664C13.6867 24.6453 13.6867 24.6453 13.6867 24.7297C13.7502 25.3627 13.7925 26.5863 13.7925 27.1138C13.7925 27.1982 13.7925 27.2615 13.7925 27.3248C13.7713 27.3459 13.7502 27.3459 13.7079 27.3459C13.5598 27.3881 13.4329 27.4091 13.2848 27.4302C13.1367 27.4302 12.9886 27.4091 12.8617 27.367C12.8828 26.9028 12.904 25.8901 12.904 25.426C12.8828 25.2361 12.8828 25.0884 12.8617 24.9196ZM18.0868 19.5819C17.981 20.3836 17.7271 21.1431 17.2829 21.8182C17.1137 22.0925 16.881 22.3246 16.6483 22.5567C16.3733 22.8098 16.0771 23.0419 15.7598 23.2318C15.6117 23.3373 15.4425 23.4217 15.2733 23.5061C14.9983 23.6538 14.7233 23.7803 14.4483 23.8858C14.3213 23.928 14.2156 23.9913 14.0886 24.0335C13.7502 24.1601 13.4117 24.3078 13.0732 24.3711C12.6078 24.4766 12.1425 24.5821 11.6559 24.6032C10.6405 24.6664 9.68858 24.4555 8.73664 24.0546C8.54626 23.9702 8.37702 23.8858 8.20779 23.8014C7.61548 23.5061 7.08662 23.1263 6.55777 22.7044C5.92315 22.198 5.37314 21.5862 4.97121 20.8478C4.61159 20.2148 4.40005 19.5186 4.25197 18.8013C4.1462 18.2316 4.08274 17.662 4.08274 17.0502C4.08274 16.3117 4.18851 15.5311 4.31544 14.7716C4.56929 13.3792 4.95006 12.0078 5.45776 10.6997C5.92315 9.49717 6.55777 8.40009 7.40393 7.45069C7.55201 7.28191 7.72125 7.11312 7.89048 6.94434C7.95394 6.88105 8.0174 6.85995 8.10202 6.88105C8.5251 6.96544 8.92703 7.04983 9.35011 7.13422C9.96358 7.23971 10.5559 7.26081 11.1694 7.23971C12.1636 7.17642 13.1367 7.02873 14.1309 6.81776C14.4483 6.75446 14.3425 6.73336 14.5963 6.94434C15.3367 7.57727 15.9079 8.35789 16.3944 9.2229C17.0714 10.4466 17.5367 11.7335 17.8329 13.1049C18.0656 14.202 18.2137 15.3201 18.256 16.4383C18.256 16.5438 18.2348 16.6071 18.1502 16.6704C17.7483 17.0502 17.4944 17.4932 17.4521 18.0629C17.4098 18.4637 17.5156 18.8435 17.706 19.181C17.7906 19.3076 17.8964 19.4131 18.0233 19.4764C18.0868 19.4975 18.0868 19.5186 18.0868 19.5819ZM20.4349 18.7169C20.3502 18.9068 20.2233 18.9912 20.0329 19.0333C19.9483 19.0544 19.8637 19.0333 19.7791 18.9912C19.6733 18.9279 19.5887 18.8435 19.5252 18.738C19.4195 18.527 19.3137 18.316 19.2714 18.0629C19.2714 18.0418 19.2714 18.0207 19.2502 17.9996C19.2291 17.9574 19.2079 17.9152 19.1445 17.9363C19.1022 17.9363 19.081 17.9785 19.081 18.0418C19.081 18.1472 19.1022 18.2316 19.1233 18.3371C19.1656 18.527 19.2502 18.7169 19.3348 18.9068C19.3983 19.0333 19.5041 19.1177 19.6099 19.2232C19.5252 19.3287 19.4406 19.392 19.3348 19.4342C19.1233 19.5186 18.8695 19.392 18.7425 19.1599C18.6368 18.949 18.5733 18.7169 18.531 18.4848C18.531 18.4426 18.5098 18.4004 18.5098 18.3582C18.4887 18.316 18.4675 18.2738 18.4252 18.2949C18.3829 18.2949 18.3618 18.3371 18.3618 18.4004C18.3618 18.5481 18.3829 18.6958 18.4252 18.8224C18.4464 18.949 18.4887 19.0544 18.531 19.181C18.531 19.2021 18.5521 19.2443 18.5521 19.2865C18.3406 19.3287 18.1714 19.2443 18.0444 19.0966C17.8752 18.9068 17.7906 18.6747 17.7483 18.4215C17.6848 18.105 17.7906 17.8097 17.9175 17.5354C18.1502 17.0924 18.4675 16.7337 18.8483 16.4172C18.9752 16.3117 19.1233 16.2063 19.2502 16.0797C19.4406 15.8898 19.5464 15.6999 19.3983 15.3201C19.3348 15.1514 19.2291 15.0248 19.1022 14.8982C18.9118 14.6872 18.6791 14.4973 18.4464 14.3496C18.3829 14.3075 18.3406 14.2653 18.3406 14.1809C18.2771 13.7589 18.1925 13.3581 18.1079 12.9361C18.1079 12.915 18.0868 12.8939 18.1079 12.8728C18.1291 12.8517 18.1291 12.8728 18.1502 12.8728C18.8906 13.2315 19.5675 13.6534 20.1387 14.2653C20.2868 14.4129 20.3926 14.5817 20.4983 14.7505C20.8156 15.278 20.6887 15.8898 20.4137 16.2273C20.2868 16.375 20.1599 16.5227 20.0329 16.6704C20.0118 16.7126 19.9695 16.7337 19.9483 16.7759C19.8637 16.9025 19.7579 16.9869 19.5887 16.9658C19.4829 16.9447 19.3772 17.008 19.3137 17.0924C19.2925 17.1135 19.2925 17.1346 19.3137 17.1556C19.3137 17.1556 19.3348 17.1767 19.356 17.1767C19.3772 17.1767 19.3983 17.1556 19.4195 17.1556C19.5464 17.0924 19.6522 17.1135 19.7579 17.1978C19.8637 17.2611 19.9272 17.3455 19.9906 17.451C20.0964 17.6831 20.0329 17.9152 19.8214 18.0629C19.7579 18.105 19.6945 18.1472 19.631 18.2105C19.6099 18.2316 19.6099 18.2316 19.6099 18.2738C19.6733 18.2949 19.7156 18.2527 19.7579 18.2316C19.8849 18.1683 20.0329 18.1683 20.1599 18.2105C20.4349 18.2105 20.5406 18.4848 20.4349 18.7169ZM18.4464 14.7294C18.5098 14.7294 18.531 14.7716 18.5733 14.7927C18.7637 14.9404 18.9541 15.0881 19.081 15.278C19.1445 15.3623 19.1868 15.4467 19.2079 15.5522C19.2291 15.6366 19.2079 15.6999 19.1656 15.7632C19.1233 15.8265 19.081 15.8687 19.0175 15.932C18.9118 16.0375 18.7848 16.143 18.6579 16.2273C18.6368 16.2484 18.6156 16.2695 18.5733 16.2695C18.5521 15.7632 18.5098 15.2569 18.4464 14.7294Z" fill="black"/>
</svg>
