<svg width="23" height="33" viewBox="0 0 23 33" fill="none" xmlns="http://www.w3.org/2000/svg">
<path d="M10.571 20.8323L10.8971 30.0961C10.8971 30.0961 11.4149 31.151 10.8971 31.4963C10.3792 31.8415 8.30777 32.6087 7.08026 32.4169C5.85275 32.2251 7.31042 30.5756 9.9956 29.7893L9.3243 20.909L10.571 20.8323Z" fill="#F07600"/>
<path d="M10.1686 30.1536C10.2837 30.4221 9.70828 30.94 8.86436 31.3044C8.03963 31.6688 7.25325 31.7455 7.13817 31.477C7.02309 31.2085 7.59849 30.6906 8.4424 30.3262C9.28632 29.9618 10.0535 29.8851 10.1686 30.1536Z" fill="#FF8F00"/>
<path d="M10.6093 21.6377C10.1681 21.4842 9.74618 21.2349 9.36258 20.8896H9.32422L9.51602 23.4981C9.88043 23.805 10.264 24.0351 10.686 24.1694L10.6093 21.6377Z" fill="#EE5A00"/>
<path d="M10.571 20.8323L10.8971 30.0961C10.8971 30.0961 11.4149 31.151 10.8971 31.4963C10.3792 31.8415 8.30777 32.6087 7.08026 32.4169C5.85275 32.2251 7.31042 30.5756 9.9956 29.7893L9.3243 20.909L10.571 20.8323Z" stroke="#161621" stroke-width="0.5" stroke-miterlimit="10"/>
<path d="M7.32961 25.4927C6.31308 24.9365 5.23901 24.5337 4.29919 24.1885C2.61136 23.5556 1.49893 23.1336 1.47975 22.1746C1.46057 21.254 2.49629 20.5251 5.58424 19.2593L6.06374 20.4101C3.57036 21.4458 2.91824 21.9445 2.7648 22.1554C3.03332 22.4048 4.01149 22.7692 4.74033 23.0377C5.68014 23.3829 6.83093 23.8241 7.92419 24.4187L7.32961 25.4927Z" fill="#F07600"/>
<path d="M3.58969 20.6209C3.53215 20.5442 3.43625 20.525 3.35953 20.5634C1.8635 21.3497 1.59499 22.0786 1.76761 22.4046C2.09366 23.0184 4.68294 23.5554 4.68294 23.5554C4.68294 23.5554 2.5348 22.6923 2.18956 22.3087C1.90186 21.9827 3.05266 21.1579 3.55133 20.8702C3.62805 20.8319 3.66641 20.7168 3.58969 20.6209Z" fill="#FF8F00"/>
<path d="M4.83643 24.3804C5.64198 24.6873 6.50507 25.0325 7.34899 25.4928L7.94356 24.3996C7.34899 24.0735 6.71605 23.805 6.12148 23.5557C5.73788 23.6899 5.1433 23.9393 4.83643 24.3804Z" fill="#EE5A00"/>
<path d="M3.30176 20.3142C3.76207 20.4869 4.12649 20.8321 4.33747 21.1965C4.70189 21.0239 5.12384 20.8513 5.62252 20.6403L5.14302 19.4895C4.41419 19.7964 3.81961 20.0649 3.30176 20.3142Z" fill="#BC4700"/>
<path d="M7.32961 25.4927C6.31308 24.9365 5.23901 24.5337 4.29919 24.1885C2.61136 23.5556 1.49893 23.1336 1.47975 22.1746C1.46057 21.254 2.49629 20.5251 5.58424 19.2593L6.06374 20.4101C3.57036 21.4458 2.91824 21.9445 2.7648 22.1554C3.03332 22.4048 4.01149 22.7692 4.74033 23.0377C5.68014 23.3829 6.83093 23.8241 7.92419 24.4187L7.32961 25.4927Z" stroke="#161621" stroke-width="0.5" stroke-miterlimit="10"/>
<path d="M6.96507 25.6656C6.96507 25.6656 7.19523 25.8574 7.31031 25.8958C7.40621 25.9342 7.67473 25.9917 7.67473 25.9917C7.67473 25.9917 7.31031 26.2219 7.48293 26.7973C7.65555 27.3727 8.44192 27.4685 8.72962 27.2959C8.99814 27.1041 9.11322 26.7589 9.11322 26.7589C9.11322 26.7589 9.516 26.7397 9.72697 26.5287C9.91877 26.3178 9.89959 26.0876 9.89959 26.0876C9.89959 26.0876 10.264 25.7232 9.91877 25.0902C9.59272 24.4573 8.90224 24.0737 8.53782 24.0162C8.15423 23.9586 7.92407 23.997 7.92407 23.997C7.92407 23.997 7.65555 23.2873 6.86918 23.6901C6.0828 24.0929 6.04444 24.9943 6.23624 25.3971C6.38968 25.8191 6.79246 25.7424 6.96507 25.6656Z" fill="white"/>
<path d="M9.88091 26.1066C9.88091 26.1066 10.1878 25.7997 9.97681 25.2627C9.91927 25.3778 9.80419 25.3969 9.74665 25.3394C9.59321 25.186 9.38223 25.1668 9.38223 25.1668C9.84255 25.8381 9.36305 25.8956 9.26715 25.8189C9.17126 25.723 8.97946 25.6271 8.97946 25.6271C9.11372 26.0874 8.8452 26.26 8.63422 26.049C8.42324 25.8189 7.8862 25.7422 7.34917 25.4353C6.79295 25.1284 6.90803 24.7065 6.90803 24.7065C6.56279 25.1668 5.87232 25.2243 6.29428 24.342L6.23674 24.3804C6.06412 24.764 6.10248 25.186 6.21756 25.4161C6.40936 25.7997 6.81213 25.723 6.98475 25.6463C6.98475 25.6463 7.21491 25.8381 7.32999 25.8764C7.42589 25.9148 7.69441 25.9723 7.69441 25.9723C7.69441 25.9723 7.38753 26.2217 7.54097 26.7971C7.69441 27.3725 8.4616 27.4684 8.73012 27.2766C8.99864 27.0848 9.11372 26.7395 9.11372 26.7395C9.11372 26.7395 9.51649 26.7203 9.72747 26.5094C9.90009 26.3367 9.88091 26.1066 9.88091 26.1066Z" fill="#A7CEFF"/>
<path d="M7.2916 24.1886L7.90536 24.016C7.88618 23.9776 7.65602 23.4022 7.00391 23.6515C7.36832 23.6132 7.54094 23.9392 7.2916 24.1886Z" fill="#A7CEFF"/>
<path d="M6.98447 25.7037C6.77349 25.7613 6.5817 25.7421 6.40908 25.6462C6.02548 25.3969 5.98712 24.7639 6.33236 24.2269C6.6776 23.6899 7.25299 23.4405 7.63659 23.6707C7.73249 23.7282 7.80921 23.8241 7.86675 23.9392" stroke="#161621" stroke-width="0.5" stroke-miterlimit="10"/>
<path d="M6.85006 24.8022C6.79252 25.0324 6.83088 25.2626 6.94596 25.4352C7.0035 25.5311 7.08022 25.5886 7.15694 25.6462C7.23366 25.7037 7.32956 25.7612 7.42546 25.7804C7.52136 25.7996 7.65562 25.8188 7.7707 25.8571C7.90496 25.8955 8.02003 25.953 8.11593 26.0298C8.21183 26.1065 8.30773 26.1832 8.38445 26.2407C8.46117 26.2983 8.55707 26.3558 8.67215 26.4134C8.55707 26.4901 8.40363 26.5093 8.26937 26.4709C8.13511 26.4325 8.03921 26.3558 7.94332 26.2983C7.84742 26.2407 7.7707 26.1832 7.6748 26.1448C7.5789 26.1065 7.483 26.0873 7.34874 26.0489C7.21448 26.0106 7.0994 25.953 6.98432 25.8763C6.88842 25.7804 6.8117 25.6653 6.75416 25.5503C6.65826 25.2817 6.7158 24.994 6.85006 24.8022Z" fill="#161621"/>
<path d="M7.75187 26.1067C7.52171 26.2601 7.48335 26.5861 7.63679 26.8355C7.77105 27.0848 8.05875 27.2574 8.34645 27.2383C8.63414 27.2191 8.8643 27.0081 8.99856 26.7588C9.13282 26.4902 9.152 26.1642 9.0561 25.8381C9.30544 26.0875 9.40134 26.5094 9.2479 26.8547C9.19036 27.0273 9.0561 27.1999 8.90266 27.315C8.74922 27.4301 8.55742 27.4876 8.34645 27.5068C7.96285 27.526 7.56007 27.315 7.38745 26.9697C7.29155 26.7971 7.25319 26.6053 7.27237 26.3943C7.29155 26.1834 7.42581 25.9916 7.57925 25.8765L7.75187 26.1067Z" fill="#161621"/>
<path d="M9.15129 26.663C9.28555 26.663 9.40063 26.6246 9.49653 26.5287C9.59243 26.4328 9.64997 26.2985 9.66915 26.1451C9.68833 25.9917 9.66915 25.8382 9.63079 25.704C9.57325 25.5505 9.49653 25.4163 9.41981 25.2437C9.59243 25.3204 9.74586 25.4546 9.84176 25.6081C9.93766 25.7807 9.97602 25.9917 9.95684 26.1835C9.93766 26.3944 9.86094 26.5862 9.7075 26.7397C9.55407 26.8931 9.30473 26.989 9.09375 26.9315L9.15129 26.663Z" fill="#161621"/>
<path d="M7.09961 24.3997C7.17633 24.2079 7.32977 24.0737 7.52157 23.9778C7.71336 23.8819 7.92434 23.8435 8.13532 23.8627C8.55728 23.8627 8.94088 24.0353 9.28611 24.2463C9.45873 24.3614 9.61217 24.4956 9.74643 24.6299C9.88069 24.7833 10.0149 24.9368 10.1108 25.1286C10.2067 25.3204 10.2643 25.5314 10.2259 25.7615C10.2067 25.9917 10.0917 26.2026 9.89987 26.3561L9.74643 26.1451C9.86151 26.0492 9.91905 25.8958 9.91905 25.7423C9.93823 25.5889 9.88069 25.4163 9.80397 25.282C9.65053 24.9751 9.38201 24.7258 9.09431 24.5148C8.94088 24.3997 8.78744 24.323 8.634 24.2655C8.46138 24.1888 8.28876 24.1504 8.11614 24.1504C7.7709 24.112 7.42567 24.1696 7.09961 24.3997Z" fill="#161621"/>
<path d="M8.30764 26.7588C8.1542 26.6437 8.11584 26.4328 8.26928 26.356L8.13502 26.241C8.13502 26.241 8.00076 26.356 8.01994 26.5095C8.0583 26.7205 8.23092 26.7972 8.30764 26.7588Z" fill="#1D1127"/>
<path d="M7.84754 26.5669C7.86672 26.5093 7.9818 26.4518 8.05852 26.5093L8.13524 26.3175C8.13524 26.2984 7.82836 26.2984 7.84754 26.5669Z" fill="#1D1127"/>
<path d="M12.4122 20.8323L12.0861 30.0961C12.0861 30.0961 11.5683 31.151 12.0861 31.4963C12.604 31.8415 14.6754 32.6087 15.9029 32.4169C17.1304 32.2251 15.6727 30.5756 12.9876 29.7893L13.6589 20.909L12.4122 20.8323Z" fill="#F07600"/>
<path d="M12.834 30.1536C12.7189 30.4221 13.2943 30.94 14.1382 31.3044C14.9629 31.6688 15.7493 31.7455 15.8644 31.477C15.9795 31.2085 15.4041 30.6906 14.5602 30.3262C13.7162 29.9618 12.9491 29.8851 12.834 30.1536Z" fill="#FF8F00"/>
<path d="M12.2969 24.1694C12.7188 24.0351 13.1024 23.805 13.4668 23.4981L13.6586 20.8896H13.6203C13.2367 21.2157 12.8147 21.4842 12.3736 21.6377L12.2969 24.1694Z" fill="#EE5A00"/>
<path d="M12.4122 20.8323L12.0861 30.0961C12.0861 30.0961 11.5683 31.151 12.0861 31.4963C12.604 31.8415 14.6754 32.6087 15.9029 32.4169C17.1304 32.2251 15.6727 30.5756 12.9876 29.7893L13.6589 20.909L12.4122 20.8323Z" stroke="#161621" stroke-width="0.5" stroke-miterlimit="10"/>
<path d="M15.6537 25.493C16.6702 24.9368 17.7443 24.534 18.6841 24.1887C20.3719 23.5558 21.4843 23.1339 21.5035 22.1749C21.5227 21.2542 20.487 20.5254 17.399 19.2595L16.9195 20.4103C19.4129 21.446 20.065 21.9447 20.2185 22.1557C19.9499 22.405 18.9718 22.7694 18.2429 23.038C17.3031 23.3832 16.1523 23.8243 15.0591 24.4189L15.6537 25.493Z" fill="#F07600"/>
<path d="M19.3935 20.6212C19.4511 20.5444 19.547 20.5253 19.6237 20.5636C21.1197 21.35 21.3882 22.0788 21.2156 22.4049C20.8896 23.0186 18.3003 23.5557 18.3003 23.5557C18.3003 23.5557 20.4484 22.6926 20.7937 22.309C21.0814 21.9829 19.9306 21.1582 19.4319 20.8705C19.3552 20.8321 19.336 20.7171 19.3935 20.6212Z" fill="#FF8F00"/>
<path d="M18.1662 24.3802C17.3607 24.687 16.4976 25.0323 15.6537 25.4926L15.0591 24.3993C15.6537 24.0733 16.2866 23.8048 16.8812 23.5554C17.2648 23.6897 17.8593 23.939 18.1662 24.3802Z" fill="#EE5A00"/>
<path d="M19.7197 20.3523C19.2594 20.5249 18.895 20.8702 18.684 21.2346C18.3196 21.062 17.8976 20.8894 17.3989 20.6784L17.8784 19.5276C18.5881 19.8345 19.2018 20.103 19.7197 20.3523Z" fill="#BC4700"/>
<path d="M15.6537 25.493C16.6702 24.9368 17.7443 24.534 18.6841 24.1887C20.3719 23.5558 21.4843 23.1339 21.5035 22.1749C21.5227 21.2542 20.487 20.5254 17.399 19.2595L16.9195 20.4103C19.4129 21.446 20.065 21.9447 20.2185 22.1557C19.9499 22.405 18.9718 22.7694 18.2429 23.038C17.3031 23.3832 16.1523 23.8243 15.0591 24.4189L15.6537 25.493Z" stroke="#161621" stroke-width="0.5" stroke-miterlimit="10"/>
<path d="M16.0374 25.6656C16.0374 25.6656 15.8072 25.8574 15.6921 25.8958C15.5962 25.9342 15.3277 25.9917 15.3277 25.9917C15.3277 25.9917 15.6921 26.2219 15.5195 26.7973C15.3469 27.3727 14.5605 27.4685 14.2728 27.2959C14.0043 27.1041 13.8892 26.7589 13.8892 26.7589C13.8892 26.7589 13.4865 26.7397 13.2755 26.5287C13.0837 26.3178 13.1029 26.0876 13.1029 26.0876C13.1029 26.0876 12.7384 25.7232 13.0837 25.0902C13.4097 24.4573 14.1002 24.0737 14.4646 24.0162C14.8482 23.9586 15.0784 23.997 15.0784 23.997C15.0784 23.997 15.3469 23.2873 16.1333 23.6901C16.9197 24.0929 16.958 24.9943 16.7662 25.3971C16.6128 25.8191 16.21 25.7424 16.0374 25.6656Z" fill="white"/>
<path d="M13.1211 26.1068C13.1211 26.1068 12.8142 25.8 13.0252 25.2629C13.0828 25.378 13.1978 25.3972 13.2554 25.3396C13.4088 25.1862 13.6198 25.167 13.6198 25.167C13.1595 25.8383 13.639 25.8959 13.7349 25.8191C13.8308 25.7232 14.0226 25.6273 14.0226 25.6273C13.8883 26.0877 14.1568 26.2603 14.3678 26.0493C14.5788 25.8191 15.1158 25.7424 15.6529 25.4355C16.2091 25.1287 16.094 24.7067 16.094 24.7067C16.4392 25.167 17.1297 25.2246 16.7078 24.3423L16.7653 24.3806C16.9379 24.7642 16.8996 25.1862 16.7845 25.4164C16.5927 25.8 16.1899 25.7232 16.0173 25.6465C16.0173 25.6465 15.7871 25.8383 15.672 25.8767C15.5761 25.915 15.3076 25.9726 15.3076 25.9726C15.3076 25.9726 15.6145 26.2219 15.4611 26.7973C15.3076 27.3727 14.5404 27.4686 14.2719 27.2768C14.0034 27.085 13.8883 26.7398 13.8883 26.7398C13.8883 26.7398 13.4855 26.7206 13.2746 26.5096C13.0828 26.337 13.1211 26.1068 13.1211 26.1068Z" fill="#A7CEFF"/>
<path d="M15.7109 24.1886L15.0972 24.016C15.1163 23.9776 15.3465 23.4022 15.9986 23.6515C15.615 23.6132 15.4616 23.9392 15.7109 24.1886Z" fill="#A7CEFF"/>
<path d="M16.0175 25.704C16.2285 25.7615 16.4203 25.7424 16.5929 25.6465C16.9765 25.3971 17.0149 24.7642 16.6696 24.2271C16.3244 23.6901 15.749 23.4408 15.3654 23.6709C15.2695 23.7285 15.1928 23.8244 15.1353 23.9394" stroke="#161621" stroke-width="0.5" stroke-miterlimit="10"/>
<path d="M16.1517 24.8025C16.2859 24.9943 16.3435 25.282 16.2476 25.5313C16.2092 25.6656 16.1133 25.7807 16.0174 25.8574C15.9215 25.9533 15.7873 26.0108 15.653 26.03C15.5187 26.0684 15.4228 26.0684 15.3269 26.1259C15.231 26.1643 15.1543 26.2218 15.0584 26.2793C14.9625 26.3369 14.8666 26.4136 14.7324 26.452C14.5981 26.4903 14.4447 26.4711 14.3296 26.3944C14.4638 26.3561 14.5406 26.2985 14.6173 26.2218C14.694 26.1643 14.7899 26.0875 14.8858 26.0108C14.9817 25.9341 15.116 25.8766 15.231 25.8382C15.3653 25.7998 15.4996 25.7807 15.5763 25.7615C15.6722 25.7231 15.7681 25.6848 15.8448 25.6272C15.9215 25.5697 15.9982 25.493 16.0558 25.4162C16.1517 25.282 16.19 25.0326 16.1517 24.8025Z" fill="#161621"/>
<path d="M15.4039 25.8767C15.5766 25.9918 15.6916 26.1836 15.7108 26.3946C15.7492 26.6056 15.6916 26.7974 15.5957 26.97C15.4231 27.3152 15.0203 27.5454 14.6367 27.507C14.4449 27.507 14.2531 27.4303 14.0805 27.3152C13.9271 27.2001 13.7928 27.0467 13.7353 26.8549C13.601 26.4905 13.6778 26.0685 13.9271 25.8384C13.812 26.1644 13.8312 26.4905 13.9846 26.759C14.1189 27.0083 14.349 27.2193 14.6367 27.2385C14.9244 27.2577 15.2121 27.0851 15.3464 26.8357C15.4807 26.5864 15.4615 26.2603 15.2313 26.1069L15.4039 25.8767Z" fill="#161621"/>
<path d="M13.8889 26.9317C13.6587 26.9893 13.4286 26.8934 13.2751 26.7399C13.1217 26.5865 13.045 26.3755 13.0258 26.1837C13.0066 25.9727 13.045 25.7809 13.1409 25.6083C13.2368 25.4357 13.3902 25.3014 13.5628 25.2439C13.4861 25.4165 13.4094 25.57 13.3518 25.7042C13.3135 25.8577 13.2943 26.0111 13.3135 26.1453C13.3327 26.2988 13.4094 26.433 13.4861 26.5289C13.582 26.6248 13.6971 26.6824 13.8313 26.6632L13.8889 26.9317Z" fill="#161621"/>
<path d="M15.903 24.4C15.5769 24.189 15.2317 24.1123 14.8865 24.1314C14.7138 24.1506 14.5412 24.189 14.3686 24.2465C14.196 24.3041 14.0425 24.4 13.9083 24.4959C13.6206 24.7068 13.3521 24.9754 13.1986 25.2631C13.1219 25.4165 13.0835 25.5699 13.0835 25.7234C13.0835 25.8768 13.1603 26.0303 13.2562 26.1262L13.1027 26.3371C12.9109 26.2029 12.7958 25.9727 12.7767 25.7426C12.7575 25.5124 12.815 25.3014 12.8917 25.1096C12.9876 24.9178 13.1027 24.7452 13.2562 24.6109C13.3904 24.4575 13.5439 24.3424 13.7165 24.2273C14.0425 23.9972 14.4453 23.8438 14.8673 23.8438C15.0783 23.8438 15.2892 23.8629 15.481 23.9588C15.6536 24.0547 15.8263 24.2082 15.903 24.4Z" fill="#161621"/>
<path d="M14.6753 26.7591C14.8287 26.644 14.8671 26.433 14.7137 26.3563L14.8479 26.2412C14.8479 26.2412 14.9822 26.3563 14.963 26.5097C14.9246 26.7207 14.7712 26.7974 14.6753 26.7591Z" fill="#1D1127"/>
<path d="M15.1549 26.5671C15.1357 26.5096 15.0206 26.452 14.9439 26.5096L14.8672 26.3178C14.8672 26.2986 15.1549 26.2986 15.1549 26.5671Z" fill="#1D1127"/>
<path d="M13.7356 6.08271C11.4149 3.24409 12.8342 2.32346 13.6397 2.49608C14.4645 2.66869 14.7522 1.44118 14.0425 1.17267C13.352 0.884968 11.1272 0.827428 10.4751 2.74541C9.82295 4.64422 10.2833 5.92927 9.24756 6.10189C9.24756 6.10189 9.80377 8.25003 11.4341 8.25003C13.0644 8.25003 13.7356 6.08271 13.7356 6.08271Z" fill="#75AB23"/>
<path d="M12.9496 2.59182C12.7194 2.2274 12.2399 1.67118 11.4727 1.46021C11.1083 1.69036 10.8014 2.01642 10.5713 2.45756C11.396 2.30412 12.2016 2.68772 12.6044 2.93705C12.7003 2.78362 12.8153 2.66854 12.9496 2.59182Z" fill="#A6D73B"/>
<path d="M11.4334 8.23071C13.0445 8.23071 13.7542 6.08256 13.7542 6.08256C13.3514 5.58389 13.0637 5.14275 12.8527 4.75915C12.8527 4.75915 12.987 5.33455 12.7377 5.25783C12.5075 5.18111 11.7403 3.60836 11.7403 3.60836C11.7403 3.60836 11.9321 4.18376 12.0472 4.49063C12.1623 4.79751 11.9896 5.27701 11.491 4.35637C10.9923 3.43574 11.0115 2.55347 11.0115 2.55347C10.7813 3.16722 11.1457 4.12622 11.1457 4.12622C11.2608 5.58389 10.0908 4.98931 10.1484 4.12622C9.97576 5.23865 10.0141 5.96748 9.2661 6.08256C9.24692 6.08256 9.80314 8.23071 11.4334 8.23071Z" fill="#498024"/>
<path d="M12.8534 1.36426C12.5466 1.40262 12.2589 1.47934 11.9903 1.59442C11.7218 1.7095 11.4917 1.90129 11.3191 2.13145C11.1464 2.36161 11.0505 2.64931 11.0314 2.91783C11.0122 3.20552 11.0505 3.49322 11.1464 3.76174C11.3574 4.31796 11.4725 4.95089 11.3958 5.58383C11.3574 5.8907 11.2807 6.21676 11.1081 6.48528C10.9355 6.7538 10.6286 6.98396 10.2833 7.02232L10.2642 6.7538C10.5327 6.73462 10.7437 6.562 10.8971 6.33184C11.0505 6.10168 11.1273 5.83316 11.1656 5.54547C11.2423 4.97007 11.1656 4.39468 10.9738 3.81928C10.8779 3.5124 10.8396 3.20552 10.8779 2.87947C10.9163 2.57259 11.0505 2.26571 11.2423 2.01637C11.4341 1.76703 11.7026 1.59442 11.9903 1.47934C12.2397 1.4218 12.5466 1.38344 12.8534 1.36426Z" fill="#161621"/>
<path d="M11.7987 2.64941C11.7412 2.72613 11.722 2.82203 11.7028 2.89875C11.6837 2.99465 11.6837 3.09055 11.7028 3.16727C11.722 3.33989 11.7796 3.53169 11.8371 3.70431C11.9714 4.04954 12.1248 4.39478 12.259 4.74002C12.3933 5.08526 12.5276 5.44967 12.6043 5.83327C12.681 6.21687 12.681 6.63882 12.5276 7.02242L12.2782 6.92652C12.3933 6.60047 12.3933 6.23605 12.3358 5.87163C12.2782 5.50721 12.1631 5.16198 12.0481 4.79756C11.933 4.43314 11.7987 4.0879 11.7028 3.72349C11.6645 3.53169 11.6261 3.33989 11.6069 3.14809C11.6069 3.05219 11.6261 2.95629 11.6453 2.86039C11.6837 2.80285 11.7412 2.72613 11.7987 2.64941Z" fill="#161621"/>
<path d="M13.8122 2.45782C14.13 2.45782 14.3876 2.15728 14.3876 1.78653C14.3876 1.41578 14.13 1.11523 13.8122 1.11523C13.4944 1.11523 13.2368 1.41578 13.2368 1.78653C13.2368 2.15728 13.4944 2.45782 13.8122 2.45782Z" fill="#A6D73B"/>
<path d="M13.2369 1.78637C13.1602 1.53704 13.2752 1.23016 13.5246 1.07672C13.6588 1 13.8123 0.98082 13.9657 1.01918C14.1192 1.05754 14.2534 1.13426 14.3493 1.24934C14.5411 1.4795 14.5795 1.80555 14.5027 2.07407C14.4644 2.20833 14.4068 2.34259 14.2918 2.45767C14.1959 2.57275 14.0233 2.64947 13.8506 2.64947V2.36177C14.0233 2.36177 14.1575 2.18915 14.215 1.97817C14.2726 1.76719 14.2534 1.55622 14.1383 1.40278C14.0233 1.24934 13.8123 1.17262 13.6397 1.24934C13.4479 1.34524 13.3136 1.53704 13.2369 1.78637Z" fill="#161621"/>
<path d="M13.7356 6.08271C11.4149 3.24409 12.8342 2.32346 13.6397 2.49608C14.4645 2.66869 14.7522 1.44118 14.0425 1.17267C13.352 0.884968 11.1272 0.827428 10.4751 2.74541C9.82295 4.64422 10.2833 5.92927 9.24756 6.10189C9.24756 6.10189 9.80377 8.25003 11.4341 8.25003C13.0644 8.25003 13.7356 6.08271 13.7356 6.08271Z" stroke="#161621" stroke-width="0.5" stroke-miterlimit="10"/>
<path d="M14.7331 6.00562C13.5632 6.00562 12.4699 6.31249 11.4917 6.83035C10.5136 6.29331 9.42031 6.00562 8.25034 6.00562C4.26093 6.00562 1.01953 9.51553 1.01953 13.8502C1.01953 18.1848 4.26093 21.6947 8.26952 21.6947C8.55722 21.6947 8.84491 21.6756 9.13261 21.6372C10.7054 21.4262 12.3165 21.4262 13.8892 21.6372C14.1769 21.6756 14.4646 21.6947 14.7523 21.6947C18.7609 21.6947 22.0023 18.1848 22.0023 13.8502C22.0023 9.51553 18.7417 6.00562 14.7331 6.00562Z" fill="#FF8F00"/>
<path d="M14.7328 6.00635C13.5628 6.00635 12.4696 6.31323 11.4914 6.83108C10.5132 6.29405 9.41996 6.00635 8.24999 6.00635C4.27976 6.00635 1.05754 9.45872 1 13.755C1 13.8317 1 13.9276 1 14.0043C1.17262 9.84232 4.3373 6.5242 8.23081 6.5242C9.40078 6.5242 10.494 6.83108 11.4722 7.34894C12.4504 6.8119 13.5436 6.5242 14.7136 6.5242C18.6071 6.5242 21.7718 9.84232 21.9444 14.0043C21.9444 13.9276 21.9444 13.8317 21.9444 13.755C21.9252 9.4779 18.703 6.00635 14.7328 6.00635Z" fill="#FFB000"/>
<path d="M15.1739 17.3795C15.1547 15.3081 13.3518 18.3385 11.7407 21.484C12.4504 21.5032 13.16 21.5416 13.8697 21.6375C14.1574 21.6758 14.4451 21.695 14.7328 21.695C18.2811 21.695 21.2156 18.9331 21.8485 15.3081C19.7963 19.451 15.1931 20.5634 15.1739 17.3795Z" fill="#F07600"/>
<path d="M19.0484 20.2179C17.8592 21.1577 16.4015 21.6948 14.8096 21.6948C14.5219 21.6948 14.2342 21.6756 13.9465 21.6372C13.6396 21.5989 13.3328 21.5605 13.0259 21.5413L14.848 19.9302C15.8261 21.0235 17.629 19.5466 17.629 19.5466C17.629 19.5466 17.7825 20.7933 19.0484 20.2179Z" fill="#EE5A00"/>
<path d="M7.80873 17.3795C7.78955 20.5634 3.18639 19.451 1.15332 15.3081C1.78626 18.9523 4.72077 21.695 8.26905 21.695C8.55675 21.695 8.84444 21.6758 9.13214 21.6375C9.8418 21.5416 10.5515 21.5032 11.2611 21.484C9.61164 18.3385 7.80873 15.3081 7.80873 17.3795Z" fill="#F07600"/>
<path d="M4.01123 20.2179C5.20038 21.1577 6.65805 21.6948 8.24998 21.6948C8.53768 21.6948 8.82538 21.6756 9.11307 21.6372C9.41995 21.5989 9.72683 21.5605 10.0337 21.5413L8.21162 19.9302C7.23345 21.0235 5.43054 19.5466 5.43054 19.5466C5.43054 19.5466 5.2771 20.7933 4.01123 20.2179Z" fill="#EE5A00"/>
<path d="M16.1909 18.6453C16.3827 18.6453 16.5362 18.4919 16.5362 18.3001C16.5362 18.1083 16.3827 17.9548 16.1909 17.9548C15.9991 17.9548 15.8457 18.1083 15.8457 18.3001C15.8457 18.4919 15.9991 18.6453 16.1909 18.6453Z" fill="#F07600"/>
<path d="M16.7851 19.1248C16.881 19.1248 16.9769 19.0481 16.9769 18.933C16.9769 18.8371 16.9001 18.7412 16.7851 18.7412C16.6892 18.7412 16.5933 18.8179 16.5933 18.933C16.5933 19.0289 16.6892 19.1248 16.7851 19.1248Z" fill="#F07600"/>
<path d="M16.9196 17.6481C16.9772 17.6481 17.0155 17.6097 17.0155 17.5522C17.0155 17.4947 16.9772 17.4563 16.9196 17.4563C16.8621 17.4563 16.8237 17.4947 16.8237 17.5522C16.8237 17.5906 16.8621 17.6481 16.9196 17.6481Z" fill="#F07600"/>
<path d="M17.1689 18.2617C17.2456 18.2617 17.3032 18.2041 17.3032 18.1274C17.3032 18.0507 17.2456 17.9932 17.1689 17.9932C17.0922 17.9932 17.0347 18.0507 17.0347 18.1274C17.0347 18.2041 17.0922 18.2617 17.1689 18.2617Z" fill="#F07600"/>
<path d="M18.78 18.3001C18.8759 18.3001 18.9527 18.2234 18.9527 18.1275C18.9527 18.0316 18.8759 17.9548 18.78 17.9548C18.6841 17.9548 18.6074 18.0316 18.6074 18.1275C18.6074 18.2234 18.6841 18.3001 18.78 18.3001Z" fill="#F07600"/>
<path d="M19.4132 16.6316C19.4979 16.6316 19.5666 16.5629 19.5666 16.4781C19.5666 16.3934 19.4979 16.3247 19.4132 16.3247C19.3285 16.3247 19.2598 16.3934 19.2598 16.4781C19.2598 16.5629 19.3285 16.6316 19.4132 16.6316Z" fill="#F07600"/>
<path d="M19.1636 17.3603C19.2403 17.3603 19.2978 17.3028 19.2978 17.2261C19.2978 17.1493 19.2403 17.0918 19.1636 17.0918C19.0868 17.0918 19.0293 17.1493 19.0293 17.2261C19.0293 17.3028 19.0868 17.3603 19.1636 17.3603Z" fill="#F07600"/>
<path d="M20.7749 15.9794C20.9283 15.9794 21.0434 15.8643 21.0434 15.7109C21.0434 15.5575 20.9283 15.4424 20.7749 15.4424C20.6214 15.4424 20.5063 15.5575 20.5063 15.7109C20.5063 15.8643 20.6214 15.9794 20.7749 15.9794Z" fill="#F07600"/>
<path d="M5.66102 18.8179C5.83364 18.8179 5.98708 18.6836 5.98708 18.4918C5.98708 18.3 5.85282 18.1658 5.66102 18.1658C5.4884 18.1658 5.33496 18.3 5.33496 18.4918C5.33496 18.6836 5.4884 18.8179 5.66102 18.8179Z" fill="#F07600"/>
<path d="M6.58123 17.7056C6.77303 17.7056 6.92647 17.5522 6.92647 17.3604C6.92647 17.1686 6.77303 17.0151 6.58123 17.0151C6.38943 17.0151 6.23599 17.1686 6.23599 17.3604C6.21681 17.5522 6.37025 17.7056 6.58123 17.7056Z" fill="#F07600"/>
<path d="M6.86926 18.5112C6.954 18.5112 7.0227 18.4425 7.0227 18.3578C7.0227 18.273 6.954 18.2043 6.86926 18.2043C6.78452 18.2043 6.71582 18.273 6.71582 18.3578C6.71582 18.4425 6.78452 18.5112 6.86926 18.5112Z" fill="#F07600"/>
<path d="M5.58438 17.5523C5.69946 17.5523 5.77618 17.4756 5.77618 17.3605C5.77618 17.2454 5.69946 17.1687 5.58438 17.1687C5.4693 17.1687 5.39258 17.2454 5.39258 17.3605C5.39258 17.4564 5.4693 17.5523 5.58438 17.5523Z" fill="#F07600"/>
<path d="M4.12637 17.9932C4.22227 17.9932 4.31817 17.9165 4.31817 17.8014C4.31817 17.7055 4.24145 17.6096 4.12637 17.6096C4.01129 17.6096 3.93457 17.6863 3.93457 17.8014C3.95375 17.8973 4.03047 17.9932 4.12637 17.9932Z" fill="#F07600"/>
<path d="M3.57028 16.6891C3.72371 16.6891 3.83879 16.5741 3.83879 16.4206C3.83879 16.2672 3.72371 16.1521 3.57028 16.1521C3.41684 16.1521 3.30176 16.2672 3.30176 16.4206C3.30176 16.5741 3.41684 16.6891 3.57028 16.6891Z" fill="#F07600"/>
<path d="M3.43643 17.3604C3.55151 17.3604 3.62823 17.2837 3.62823 17.1686C3.62823 17.0535 3.55151 16.9768 3.43643 16.9768C3.32135 16.9768 3.24463 17.0535 3.24463 17.1686C3.24463 17.2645 3.34053 17.3604 3.43643 17.3604Z" fill="#F07600"/>
<path d="M1.97863 15.9219C2.05535 15.9219 2.13207 15.8451 2.13207 15.7684C2.13207 15.6917 2.05535 15.615 1.97863 15.615C1.90191 15.615 1.8252 15.6917 1.8252 15.7684C1.8252 15.8451 1.90191 15.9219 1.97863 15.9219Z" fill="#F07600"/>
<path d="M2.26623 16.6316C2.34295 16.6316 2.41967 16.574 2.41967 16.4781C2.41967 16.4014 2.36213 16.3247 2.26623 16.3247C2.18951 16.3247 2.11279 16.3822 2.11279 16.4781C2.11279 16.574 2.18951 16.6316 2.26623 16.6316Z" fill="#F07600"/>
<path d="M8.86425 21.7908C8.40394 21.7908 7.92444 21.7333 7.46412 21.5799C7.02299 21.4264 6.60103 21.1771 6.25579 20.851C5.54614 20.2181 5.105 19.355 4.79812 18.4727C4.49124 17.5904 4.33781 16.689 4.26109 15.7684C4.20355 14.8477 4.18437 13.9463 4.29945 13.0256C4.29945 13.486 4.29945 13.9271 4.33781 14.3874C4.35699 14.8477 4.41452 15.2889 4.47206 15.73C4.58714 16.6314 4.77894 17.5137 5.08582 18.3576C5.3927 19.2015 5.83383 19.9879 6.46677 20.5825C6.79283 20.8702 7.15725 21.1004 7.5792 21.2538C7.98198 21.4072 8.42312 21.484 8.86425 21.484V21.7908Z" fill="#161621"/>
<path d="M3.89634 8.69116C3.47439 9.5159 3.18669 10.379 2.97571 11.2613C2.76473 12.1435 2.64965 13.045 2.64965 13.9656C2.64965 14.8671 2.72637 15.7877 2.93735 16.67C3.01407 17.1111 3.16751 17.5523 3.30177 17.9934C3.35931 18.2236 3.45521 18.4154 3.53192 18.6455C3.62782 18.8565 3.70454 19.0675 3.78126 19.2976C3.66618 19.0866 3.57028 18.8948 3.45521 18.6839C3.35931 18.4729 3.22505 18.2811 3.14833 18.0509C2.99489 17.6098 2.80309 17.1878 2.70719 16.7467C2.43867 15.8644 2.34277 14.9246 2.34277 13.9848C2.34277 13.7546 2.34277 13.5245 2.36195 13.2943L2.45785 12.5847C2.49621 12.3545 2.53457 12.1244 2.59211 11.8942C2.63047 11.664 2.70719 11.4339 2.76473 11.2229C3.01407 10.3215 3.37849 9.45836 3.89634 8.69116Z" fill="#161621"/>
<path d="M14.7331 6.00562C13.5632 6.00562 12.4699 6.31249 11.4917 6.83035C10.5136 6.29331 9.42031 6.00562 8.25034 6.00562C4.26093 6.00562 1.01953 9.51553 1.01953 13.8502C1.01953 18.1848 4.26093 21.6947 8.26952 21.6947C8.55722 21.6947 8.84491 21.6756 9.13261 21.6372C10.7054 21.4262 12.3165 21.4262 13.8892 21.6372C14.1769 21.6756 14.4646 21.6947 14.7523 21.6947C18.7609 21.6947 22.0023 18.1848 22.0023 13.8502C22.0023 9.51553 18.7417 6.00562 14.7331 6.00562Z" stroke="#161621" stroke-width="0.5" stroke-miterlimit="10"/>
<path d="M14.062 21.5225C14.5031 21.5033 14.9443 21.4458 15.3471 21.2924C15.7498 21.1389 16.1334 20.9088 16.4595 20.6211C17.1116 20.0265 17.5527 19.2401 17.8404 18.3962C18.1281 17.5523 18.3391 16.67 18.4542 15.7686C18.5117 15.3274 18.5693 14.8671 18.5885 14.426C18.6076 13.9657 18.6268 13.5245 18.6268 13.0642C18.7419 13.9657 18.7419 14.8863 18.6652 15.8069C18.5885 16.7084 18.435 17.629 18.1281 18.5113C17.8213 19.3744 17.3993 20.2375 16.6705 20.8896C16.3252 21.2156 15.9033 21.465 15.4621 21.6184C15.021 21.7719 14.5415 21.8294 14.062 21.8294V21.5225Z" fill="#161621"/>
<path d="M19.0103 8.69116C19.5281 9.45836 19.9117 10.3214 20.161 11.2037C20.2186 11.4339 20.2953 11.6449 20.3337 11.875C20.372 12.1052 20.4296 12.3353 20.4679 12.5655L20.5446 13.256C20.5638 13.4861 20.5638 13.7163 20.5638 13.9464C20.5638 14.8671 20.4679 15.8069 20.1994 16.7083C20.1035 17.1687 19.9117 17.5906 19.7583 18.0126C19.6815 18.2236 19.5665 18.4345 19.4514 18.6455C19.3555 18.8565 19.2404 19.0483 19.1253 19.2593C19.2021 19.0483 19.298 18.8373 19.3747 18.6071C19.4514 18.3962 19.5665 18.1852 19.6048 17.955C19.7391 17.5139 19.8925 17.0919 19.9692 16.6316C20.1802 15.7494 20.2569 14.8287 20.2569 13.9273C20.2569 13.0258 20.1419 12.1052 19.9309 11.2229C19.7391 10.379 19.4322 9.5159 19.0103 8.69116Z" fill="#161621"/>
<path d="M11.4918 22.5198C13.7268 22.5198 15.5387 19.6946 15.5387 16.2096C15.5387 12.7246 13.7268 9.89941 11.4918 9.89941C9.25671 9.89941 7.44482 12.7246 7.44482 16.2096C7.44482 19.6946 9.25671 22.5198 11.4918 22.5198Z" fill="#FF8F00"/>
<path d="M15.5194 15.3271C15.2509 17.6671 13.5439 20.007 11.4916 20.007C11.4533 20.007 11.3957 20.007 11.3574 20.007C11.8369 19.5659 12.1054 19.0097 12.1054 19.0097C11.3382 19.8152 10.2833 19.9687 9.99561 19.9879H9.97643C8.78728 19.8536 7.86664 18.5877 7.46387 16.804C7.65567 20.007 9.38185 22.5196 11.4916 22.5196C13.7357 22.5196 15.5386 19.7002 15.5386 16.2094C15.5578 15.9025 15.5386 15.6148 15.5194 15.3271Z" fill="#F07600"/>
<path d="M11.4918 21.6183C9.99572 21.6183 8.65313 20.5058 7.79004 18.7988C8.42297 20.9853 9.84228 22.5197 11.4918 22.5197C13.1412 22.5197 14.5605 21.0045 15.1935 18.7988C14.3304 20.525 13.007 21.6183 11.4918 21.6183Z" fill="#EE5A00"/>
<path d="M14.9054 19.6427C14.8479 20.0647 14.6561 20.4483 14.4259 20.8127C14.1958 21.1771 13.9273 21.5032 13.6012 21.7909C12.9874 22.3854 12.086 22.7499 11.2037 22.6731C10.7626 22.6348 10.3406 22.4813 9.95703 22.2512C9.57343 22.021 9.24738 21.7333 8.97886 21.4073C8.69116 21.0812 8.461 20.7168 8.2692 20.3524C8.0774 19.9688 7.92397 19.566 7.90479 19.144C8.15412 19.5085 8.32674 19.8537 8.53772 20.2181C8.72952 20.5825 8.95968 20.9086 9.2282 21.2155C9.76523 21.81 10.4557 22.2895 11.2421 22.3663C12.0285 22.4622 12.8148 22.1361 13.4094 21.6182C13.7163 21.3497 13.9848 21.0429 14.215 20.7168C14.4451 20.3332 14.6369 19.9688 14.9054 19.6427Z" fill="#161621"/>
<path d="M16.8124 13.3739C18.3133 12.7082 18.7639 10.4416 17.8189 8.31134C16.8739 6.18112 14.8912 4.99395 13.3904 5.65973C11.8895 6.32551 11.4389 8.59212 12.3839 10.7223C13.3289 12.8526 15.3116 14.0397 16.8124 13.3739Z" fill="#FF8F00"/>
<path d="M15.1553 7.67456C15.4046 7.96226 15.6156 8.28832 15.8074 8.61437C15.9992 8.94043 16.1718 9.28567 16.3061 9.65009C16.5938 10.3597 16.8047 11.1078 16.9198 11.8749C17.0349 12.6421 17.0733 13.4093 16.9965 14.1765C16.9774 14.5601 16.9006 14.9437 16.8431 15.3081C16.8239 15.4999 16.7472 15.6726 16.7088 15.8644C16.6513 16.0562 16.6129 16.2288 16.5554 16.4206C16.5938 16.037 16.6705 15.6726 16.7088 15.289C16.728 14.9054 16.7856 14.5409 16.7856 14.1574C16.8239 13.4093 16.7472 12.6613 16.6513 11.9133L16.5554 11.3571L16.4211 10.8009C16.3252 10.4365 16.2293 10.072 16.0951 9.7268C15.8457 9.01715 15.5389 8.32668 15.1553 7.67456Z" fill="#161621"/>
<path d="M11.9327 7.84717C11.8752 7.42522 11.9903 6.98408 12.2012 6.5813C12.4122 6.1977 12.7191 5.85247 13.1027 5.62231C13.4863 5.39215 13.9466 5.27707 14.3878 5.29625C14.8289 5.31543 15.27 5.44969 15.6536 5.64149C16.0372 5.83329 16.3825 6.10181 16.6893 6.40868C16.9962 6.71556 17.2647 7.04162 17.4949 7.40604C17.7059 7.77045 17.9168 8.15405 18.0511 8.55683C18.1854 8.9596 18.2621 9.38156 18.2813 9.80352C18.0703 8.99796 17.7442 8.21159 17.3031 7.52111C17.0729 7.17588 16.8044 6.869 16.5167 6.5813C16.229 6.2936 15.8838 6.06345 15.5194 5.89083C15.1549 5.71821 14.7713 5.60313 14.3686 5.58395C13.985 5.56477 13.5822 5.66067 13.237 5.85247C12.8917 6.04427 12.6232 6.35114 12.4314 6.69638C12.2396 7.07998 12.1053 7.46358 11.9327 7.84717Z" fill="#161621"/>
<path d="M10.6153 10.7204C11.5603 8.59018 11.1097 6.32357 9.60882 5.65779C8.10798 4.99201 6.12525 6.17917 5.18027 8.3094C4.23529 10.4396 4.68591 12.7062 6.18675 13.372C7.68758 14.0378 9.67031 12.8506 10.6153 10.7204Z" fill="#FF8F00"/>
<path fill-rule="evenodd" clip-rule="evenodd" d="M13.2947 8.71034C12.585 8.71034 11.9521 9.0364 11.5493 9.55426C11.1466 9.0364 10.5136 8.69116 9.80397 8.69116C8.57645 8.69116 7.59828 9.66934 7.5791 10.8968C7.5791 12.1244 8.55727 13.1025 9.78479 13.1217C10.4944 13.1217 11.1274 12.7957 11.5302 12.2778C11.9329 12.7957 12.5659 13.1409 13.2755 13.1409C14.503 13.1409 15.4812 12.1627 15.5004 10.9352C15.5004 9.70769 14.5222 8.71034 13.2947 8.71034Z" fill="#EE5A00"/>
<path d="M7.75133 7.67456C7.36773 8.32668 7.06085 9.01715 6.81152 9.7268C6.69644 10.0912 6.58136 10.4365 6.48546 10.8009L6.3512 11.3571L6.2553 11.9133C6.14022 12.6613 6.08268 13.4093 6.12104 14.1574C6.12104 14.5409 6.1594 14.9054 6.19776 15.289C6.21694 15.6726 6.31284 16.037 6.3512 16.4206C6.29366 16.2288 6.23612 16.0562 6.19776 15.8644C6.1594 15.6726 6.08268 15.4999 6.0635 15.3081C6.00596 14.9245 5.92924 14.5601 5.91006 14.1765C5.83334 13.4093 5.89088 12.6421 5.98678 11.8749C6.10186 11.1078 6.31284 10.3597 6.60054 9.65009C6.7348 9.28567 6.9266 8.94043 7.09921 8.61437C7.29101 8.28832 7.48281 7.96226 7.75133 7.67456Z" fill="#161621"/>
<path d="M11.0697 7.84728C10.8971 7.4445 10.7628 7.08009 10.571 6.71567C10.3792 6.37043 10.0916 6.06355 9.76549 5.87175C9.42026 5.67996 9.03666 5.58406 8.63388 5.60324C8.23111 5.62242 7.84751 5.7375 7.48309 5.91011C7.11867 6.08273 6.79262 6.33207 6.48574 6.60059C6.19804 6.88829 5.92952 7.19517 5.69936 7.5404C5.25823 8.23088 4.95135 8.99807 4.72119 9.82281C4.72119 9.40085 4.81709 8.97889 4.95135 8.57611C5.08561 8.17334 5.27741 7.78974 5.50757 7.42532C5.73772 7.06091 6.00624 6.71567 6.31312 6.42797C6.62 6.12109 6.96523 5.85257 7.34883 5.66078C7.73243 5.4498 8.17357 5.33472 8.6147 5.31554C9.05584 5.29636 9.51616 5.41144 9.89975 5.6416C10.2834 5.87175 10.5902 6.21699 10.8012 6.60059C11.0122 6.98419 11.1081 7.42532 11.0697 7.84728Z" fill="#161621"/>
<path fill-rule="evenodd" clip-rule="evenodd" d="M15.4999 11.7791C15.4999 13.0066 14.5025 13.9847 13.275 13.9847C12.0475 13.9847 11.0693 12.9874 11.0693 11.7599C11.0693 10.5324 12.0667 9.5542 13.2942 9.5542C14.5217 9.57338 15.4999 10.5707 15.4999 11.7791Z" fill="#A7CEFF"/>
<path fill-rule="evenodd" clip-rule="evenodd" d="M14.9628 11.8558C14.9628 12.8915 14.0806 13.7163 13.0065 13.7163C11.9324 13.7163 11.0693 12.8723 11.0693 11.8558C11.0693 10.8201 11.9516 9.99536 13.0257 9.99536C14.0998 9.99536 14.9628 10.8393 14.9628 11.8558Z" fill="white"/>
<path fill-rule="evenodd" clip-rule="evenodd" d="M12.7002 12.0666C12.7002 12.4886 12.9304 12.8338 13.2181 12.8338C13.5057 12.8338 13.7359 12.4886 13.7359 12.0858C13.7359 11.6638 13.5057 11.3186 13.2181 11.3186C12.9495 11.3186 12.7002 11.6447 12.7002 12.0666Z" fill="#161621"/>
<path fill-rule="evenodd" clip-rule="evenodd" d="M15.4999 11.7791C15.4999 13.0066 14.5025 13.9847 13.275 13.9847C12.0475 13.9847 11.0693 12.9874 11.0693 11.7599C11.0693 10.5324 12.0667 9.5542 13.2942 9.5542C14.5217 9.57338 15.4999 10.5707 15.4999 11.7791Z" stroke="#161621" stroke-width="0.5" stroke-miterlimit="10"/>
<path d="M11.9839 11.9819C12.1091 10.7702 11.2283 9.6864 10.0166 9.56117C8.80491 9.43594 7.72111 10.3167 7.59588 11.5284C7.47066 12.7401 8.35143 13.8239 9.56313 13.9492C10.7748 14.0744 11.8586 13.1936 11.9839 11.9819Z" fill="#A7CEFF"/>
<path d="M10.1148 13.5493C11.1025 13.197 11.6176 12.1106 11.2653 11.1228C10.9129 10.1351 9.82653 9.62 8.83878 9.97235C7.85103 10.3247 7.33593 11.4111 7.68829 12.3988C8.04065 13.3866 9.12702 13.9017 10.1148 13.5493Z" fill="white"/>
<path fill-rule="evenodd" clip-rule="evenodd" d="M9.22852 12.0476C9.22852 12.4695 9.45867 12.8148 9.74637 12.8148C10.0341 12.8148 10.2642 12.4695 10.2642 12.0668C10.2642 11.6448 10.0341 11.2996 9.74637 11.2996C9.45867 11.2996 9.22852 11.6256 9.22852 12.0476Z" fill="#161621"/>
<path d="M11.9839 11.9819C12.1091 10.7702 11.2283 9.6864 10.0166 9.56117C8.80491 9.43594 7.72111 10.3167 7.59588 11.5284C7.47066 12.7401 8.35143 13.8239 9.56313 13.9492C10.7748 14.0744 11.8586 13.1936 11.9839 11.9819Z" stroke="#161621" stroke-width="0.5" stroke-miterlimit="10"/>
<path d="M13.3521 14.4834C14.5604 12.9874 15.7112 13.1217 15.8646 13.7546C15.9413 14.1574 13.3521 14.4834 13.3521 14.4834Z" fill="#FF8F00"/>
<path d="M13.3521 14.4833C13.4096 14.3682 13.4671 14.2531 13.5247 14.1572C13.6014 14.0614 13.6781 13.9463 13.7548 13.8696C13.9274 13.6778 14.1192 13.5243 14.3494 13.3901C14.5796 13.275 14.8481 13.1791 15.1166 13.1983C15.2509 13.1983 15.3851 13.2366 15.5002 13.2942C15.6153 13.3517 15.7304 13.4668 15.7687 13.5819C15.5769 13.4284 15.3468 13.4092 15.1166 13.4284C14.9056 13.4668 14.6946 13.5435 14.5028 13.6586C14.4069 13.7161 14.311 13.7737 14.2151 13.8504C14.1192 13.9079 14.0233 13.9846 13.9274 14.0614C13.8315 14.1381 13.7356 14.2148 13.6397 14.2723C13.5438 14.3299 13.448 14.4066 13.3521 14.4833Z" fill="#161621"/>
<path d="M9.6122 14.3876C8.46141 12.8341 7.3298 12.9108 7.138 13.5245C7.02292 13.9465 9.6122 14.3876 9.6122 14.3876Z" fill="#FF8F00"/>
<path d="M7.42504 13.3708C7.40586 13.4667 7.61684 13.6202 7.88536 13.6969C8.17305 13.7736 8.42239 13.7544 8.44157 13.6393C8.46075 13.5434 8.24977 13.39 7.98126 13.3133C7.71274 13.2366 7.44422 13.2749 7.42504 13.3708Z" fill="#FFB000"/>
<path d="M15.4811 13.582C15.5003 13.6779 15.2893 13.8313 15.0208 13.9081C14.7331 13.9848 14.4838 13.9656 14.4646 13.8505C14.4454 13.7546 14.6564 13.6012 14.9249 13.5245C15.1934 13.4477 15.4428 13.4861 15.4811 13.582Z" fill="#FFB000"/>
<path d="M9.6117 14.3875C9.5158 14.3108 9.4199 14.2341 9.324 14.1574C9.2281 14.0806 9.1322 14.0039 9.05549 13.9272C8.95959 13.8505 8.88287 13.7738 8.78697 13.7162C8.69107 13.6395 8.59517 13.582 8.49927 13.5244C8.30747 13.4093 8.09649 13.3134 7.88551 13.2559C7.67453 13.2175 7.44438 13.2175 7.2334 13.371C7.27176 13.2559 7.38684 13.16 7.50192 13.1025C7.617 13.0449 7.77043 13.0066 7.90469 13.0257C8.17321 13.0257 8.44173 13.1216 8.65271 13.2559C8.86369 13.3902 9.07466 13.5628 9.2281 13.7738C9.30482 13.8697 9.38154 13.9847 9.43908 14.0806C9.49662 14.1574 9.55416 14.2724 9.6117 14.3875Z" fill="#161621"/>
<path d="M7.9624 13.793C7.1952 16.1521 8.11583 19.0482 10.053 19.0482C12.2011 19.0482 13.4287 15.5767 13.4287 15.5767C13.4287 15.5767 12.4888 15.9603 10.7435 15.7301C9.01729 15.5 8.21173 14.5602 8.44189 13.9272L7.9624 13.793Z" fill="#161621"/>
<path d="M10.0529 19.0486C8.92124 19.0486 8.13487 18.0704 7.84717 16.7853C8.92124 16.7086 9.80351 17.6676 9.86105 18.3964C9.86105 18.3964 10.0529 17.6484 9.59254 17.1114C9.59254 17.1114 10.8009 17.2073 11.2036 18.7033C10.8392 18.9143 10.4748 19.0486 10.0529 19.0486Z" fill="#FF8AA1"/>
<path d="M9.72679 17.9356C9.18976 17.8397 8.53764 17.5904 7.94307 17.1493C7.90471 17.0342 7.86635 16.8999 7.84717 16.7657C8.69108 16.7273 9.41992 17.3219 9.72679 17.9356Z" fill="#FFC0C0"/>
<path d="M9.57373 17.1111C9.57373 17.1111 10.2258 17.1686 10.7245 17.7824C10.667 17.955 10.3409 18.0125 9.88061 17.9742C9.88061 17.7057 9.82307 17.3796 9.57373 17.1111Z" fill="#FFC0C0"/>
<path d="M7.9624 13.793C7.1952 16.1521 8.11583 19.0482 10.053 19.0482C12.2011 19.0482 13.4287 15.5767 13.4287 15.5767" stroke="#161621" stroke-width="0.5" stroke-miterlimit="10"/>
<path fill-rule="evenodd" clip-rule="evenodd" d="M13.9661 15.5002C13.9661 15.5002 14.0812 16.6126 12.1824 16.7661C10.2835 16.9195 8.53818 16.1907 8.78752 14.9248C8.76834 14.9248 10.9932 16.8812 13.9661 15.5002Z" fill="white"/>
<path fill-rule="evenodd" clip-rule="evenodd" d="M13.9655 15.5001C11.1653 16.8043 9.03631 15.1356 8.80615 14.9438C9.07467 15.8645 10.6282 16.3823 12.2969 16.2481C13.2942 16.1714 13.7546 15.8453 13.9655 15.5576C13.9655 15.5192 13.9655 15.5001 13.9655 15.5001Z" fill="#A7CEFF"/>
<path fill-rule="evenodd" clip-rule="evenodd" d="M13.9661 15.5002C13.9661 15.5002 14.0812 16.6126 12.1824 16.7661C10.2835 16.9195 8.53818 16.1907 8.78752 14.9248C8.76834 14.9248 10.9932 16.8812 13.9661 15.5002Z" stroke="#161621" stroke-width="0.5" stroke-miterlimit="10"/>
<path d="M14.8288 14.8095C14.5986 15.0397 14.3493 15.2506 14.0616 15.4041C13.7739 15.5575 13.467 15.6918 13.1601 15.7877C12.8533 15.8836 12.5272 15.9411 12.2011 15.9795C11.8751 16.0178 11.549 16.0178 11.223 15.9987C10.5709 15.9603 9.91874 15.7877 9.32416 15.4808C9.01728 15.3274 8.74876 15.1356 8.51861 14.867C8.40353 14.7328 8.30763 14.5793 8.26927 14.3684C8.23091 14.1766 8.26927 13.9464 8.38435 13.793L8.63369 13.9464C8.53779 14.0807 8.51861 14.1957 8.53779 14.3108C8.55697 14.4259 8.63369 14.5602 8.72958 14.6561C8.92138 14.867 9.17072 15.0397 9.43924 15.1931C9.99546 15.4808 10.6092 15.6342 11.223 15.6918C11.5298 15.7301 11.8367 15.7301 12.1628 15.711C12.4697 15.6918 12.7765 15.6342 13.0834 15.5575C13.6972 15.3849 14.2726 15.1164 14.8288 14.8095Z" fill="#161621"/>
<path d="M9.05578 14.2728C8.7489 14.1386 8.48038 14.0235 8.21186 13.9659C8.0776 13.9276 7.94334 13.9084 7.78991 13.9084C7.63647 13.9084 7.50221 13.9276 7.32959 13.9276C7.44467 13.8125 7.59811 13.7166 7.77073 13.6782C7.94335 13.6207 8.11596 13.6207 8.28858 13.6591C8.4612 13.6974 8.61464 13.755 8.7489 13.87C8.88316 13.9851 8.99824 14.1194 9.05578 14.2728Z" fill="#161621"/>
<path d="M8.46094 19.0483C8.72946 19.3168 9.01715 19.5469 9.34321 19.7004C9.66927 19.8538 10.0145 19.8922 10.3597 19.8346C10.705 19.7771 11.0502 19.6428 11.3763 19.4511C11.7023 19.2784 11.99 19.0483 12.2969 18.8181C12.0668 19.125 11.7982 19.3935 11.4722 19.6237C11.1653 19.8538 10.8009 20.0264 10.3981 20.1032C9.99533 20.1799 9.57337 20.1223 9.22813 19.9114C8.88289 19.7004 8.63356 19.3935 8.46094 19.0483Z" fill="#161621"/>
<path d="M4.29899 8.86382C4.06883 8.9789 3.89621 9.20906 3.80031 9.4584C3.53179 10.2448 2.8605 12.2778 2.93722 12.7957C3.03312 13.4478 3.70441 13.8122 3.76195 13.7163C3.81949 13.6204 4.26063 9.88036 4.49079 9.15152C4.62505 8.76792 4.47161 8.76792 4.29899 8.86382Z" fill="#FFB000"/>
<path d="M3.18645 9.43907C2.93711 9.95692 2.41925 11.1461 2.24663 12.4311C2.22745 12.5846 2.05483 12.6421 1.93975 12.5462L1.59452 12.2777C1.53698 12.2201 1.5178 12.1434 1.53698 12.0667C1.67124 11.6064 2.16991 9.9761 2.89875 9.20891C2.93711 9.17055 2.99465 9.15137 3.03301 9.15137C3.16727 9.15137 3.24399 9.30481 3.18645 9.43907Z" fill="#FFB000"/>
<path d="M5.6227 9.24731C5.4309 9.24731 5.23911 9.38157 5.18157 9.57337C5.00895 10.1679 4.64453 11.453 4.62535 12.5654C4.58699 14.0615 5.39254 13.7354 5.50762 13.3902C5.60352 13.1025 5.50762 11.3571 6.06384 9.86107C6.15974 9.57337 5.94876 9.24731 5.6227 9.24731Z" fill="#FFB000"/>
<path d="M18.6072 8.86382C18.8373 8.9789 19.01 9.20906 19.1059 9.4584C19.3744 10.2448 20.0457 12.2778 19.9689 12.7957C19.8731 13.4478 19.2018 13.8122 19.1442 13.7163C19.0867 13.6204 18.6455 9.88036 18.4154 9.15152C18.2811 8.76792 18.4346 8.76792 18.6072 8.86382Z" fill="#FFB000"/>
<path d="M19.7003 9.43907C19.9496 9.95692 20.4675 11.1461 20.6401 12.4311C20.6593 12.5846 20.8319 12.6421 20.947 12.5462L21.2922 12.2777C21.3498 12.2201 21.369 12.1434 21.3498 12.0667C21.2155 11.6064 20.7168 9.9761 19.988 9.20891C19.9496 9.17055 19.8921 9.15137 19.8537 9.15137C19.7387 9.15137 19.6428 9.30481 19.7003 9.43907Z" fill="#FFB000"/>
<path d="M17.2644 9.24731C17.4562 9.24731 17.648 9.38157 17.7056 9.57337C17.8782 10.1679 18.2426 11.453 18.2618 12.5654C18.3001 14.0615 17.4946 13.7354 17.3795 13.3902C17.2836 13.1025 17.3795 11.3571 16.8233 9.86107C16.7274 9.57337 16.9576 9.24731 17.2644 9.24731Z" fill="#FFB000"/>
</svg>
