<svg width="34" height="28" viewBox="0 0 34 28" fill="none" xmlns="http://www.w3.org/2000/svg">
<path d="M19.4532 19.5688L21.0466 19.8441L21.3507 20.1772L21.2783 22.2341L20.2064 22.2196L19.0766 22.6396L18.8448 22.0892L18.0337 20.7711C18.0627 20.7856 18.0337 19.9599 19.4532 19.5688Z" fill="white"/>
<path d="M22.6835 23.9291L22.6545 23.7553C22.6255 23.567 22.5386 23.3932 22.4228 23.2338H22.4372L22.191 22.8427C21.9882 22.5386 21.5971 22.3792 21.264 22.2923C20.9598 22.2199 20.6411 22.2054 20.3225 22.2199C20.0183 22.2489 19.6996 22.3068 19.4244 22.4517C19.0912 22.611 18.8305 22.8717 18.7436 23.2338L18.6567 23.5525C18.5843 23.7263 18.6277 23.9291 18.7001 24.1029L18.7291 24.1754C18.6422 24.3347 18.5553 24.5375 18.5698 24.7403C18.5698 24.8272 18.5987 24.9141 18.6567 24.9865C18.7146 25.0589 18.8015 25.1024 18.8884 25.1169C18.9464 25.1314 19.0043 25.1169 19.0623 25.1169C19.0188 25.1603 18.9754 25.2183 18.9319 25.2617C18.6712 25.5804 18.5118 25.957 18.4684 26.3626L18.4539 26.4929C18.3091 26.435 18.1642 26.3771 18.0338 26.3191L17.7441 26.1888L17.7586 26.5074V26.5219C17.7876 26.884 18.0194 27.1592 18.3235 27.3475C18.6567 27.5648 19.0912 27.6807 19.4823 27.7531C19.83 27.8255 20.1921 27.8545 20.5397 27.869C20.8149 27.8835 21.0902 27.8835 21.3654 27.8545L21.5537 27.84C21.9448 27.8111 22.3359 27.7821 22.7125 27.7097C23.5816 27.5503 24.2768 27.1882 24.2479 26.1888L24.2334 25.8266L23.9437 26.0439C23.8278 26.1308 23.7119 26.2032 23.5816 26.2901L23.5671 26.1888C23.4946 25.6818 23.2049 25.1893 22.8139 24.8561C22.9442 24.7837 22.9442 24.6099 22.9297 24.4795C22.9008 24.2478 22.7994 24.074 22.6835 23.9291Z" fill="white"/>
<path d="M18.2075 22.8716L18.2365 22.9585C18.251 22.9875 18.2365 23.0164 18.2365 23.0309C18.0482 23.3641 17.9468 23.7696 17.8888 24.1463C17.8309 24.5229 17.8164 24.914 17.8309 25.305C17.8309 25.5513 17.8454 25.812 17.8743 26.0583V26.1017L17.9178 26.1162C18.0771 26.1886 18.2365 26.261 18.4103 26.3335L18.5117 26.3769L18.5262 26.261C18.5841 25.8555 18.7724 25.4789 19.0476 25.1747L19.178 25.0153L18.9752 25.0298C18.9462 25.0298 18.9173 25.0298 18.8883 25.0298C18.8159 25.0153 18.7434 24.9864 18.7 24.9284C18.6565 24.8705 18.6276 24.7836 18.6276 24.7112C18.6276 24.5373 18.6855 24.349 18.7724 24.1897L18.8014 24.1463L18.7724 24.1028C18.671 23.9145 18.6131 23.6682 18.7434 23.4655L18.7579 23.451V23.422C18.7724 23.1758 18.8593 22.9585 19.0187 22.7847L19.0476 22.7412L18.7579 21.959L18.7434 21.9445C18.6131 21.7707 18.4827 21.5824 18.3379 21.4086L18.2799 21.3362L17.7729 21.7418L18.2075 22.8716Z" fill="#FFD6B5"/>
<path d="M22.3212 22.4949L22.2488 22.4369C22.2343 22.4224 22.2198 22.408 22.2054 22.379L21.9591 20.945L21.4521 20.8726L21.3652 21.872L21.4521 22.3935L21.4956 22.408C21.7998 22.5238 22.1329 22.7266 22.2198 23.0598V23.0887L22.2343 23.1032C22.4226 23.306 22.5964 23.5957 22.582 23.8709V23.8999L22.6109 23.9289C22.7268 24.0592 22.8282 24.2475 22.8572 24.4358C22.8717 24.5228 22.8861 24.6821 22.7992 24.7545L22.7123 24.8124L22.7848 24.8849C23.1179 25.2035 23.3786 25.6091 23.4655 26.0726L23.4945 26.203L23.6104 26.1306C23.7697 26.0292 23.9146 25.9278 24.0594 25.8119L24.0884 25.7829V25.7395C24.0594 24.8414 23.6973 24.0158 23.1324 23.306C22.9441 23.0743 22.7413 22.857 22.5095 22.6687C22.4661 22.6107 22.3937 22.5528 22.3212 22.4949Z" fill="#FFD6B5"/>
<path d="M24.3779 25.7976C24.3344 23.7697 22.799 22.5095 22.4659 22.2633L22.2196 20.8438C22.2051 20.7713 22.1472 20.6989 22.0603 20.6844L21.5533 20.612L21.5968 20.0471L21.5243 19.9892C21.394 19.8878 21.2346 19.8153 21.0608 19.7574L20.7711 18.1206L20.3366 18.2075L19.2647 18.1496L18.2073 18.1641L18.3956 19.9892C18.3811 19.9892 18.3811 20.0036 18.3666 20.0036C18.1494 20.134 17.99 20.3078 17.9321 20.5106C17.8741 20.7134 17.9031 20.9596 18.0769 21.2059L17.5844 21.597C17.5265 21.6404 17.4975 21.7273 17.5265 21.7998L17.9466 22.973C17.3672 24.0884 17.57 25.9135 17.5989 26.1597C17.5844 26.2756 17.57 26.377 17.5844 26.4784C17.6134 26.8985 17.8597 27.2026 18.2218 27.4344C18.5549 27.6372 18.9895 27.782 19.4385 27.8689C20.1772 28.0138 20.9449 28.0138 21.365 27.9848C21.4519 27.9848 21.4954 27.9703 21.5533 27.9703C21.9444 27.9414 22.35 27.9124 22.7266 27.84C23.8129 27.6517 24.6241 27.2026 24.3779 25.7976ZM21.5388 20.9886L21.9009 21.0466L22.1327 22.4081C22.1472 22.4516 22.1762 22.495 22.2051 22.524C22.2051 22.524 23.9433 23.6973 24.0302 25.7541C23.9578 25.8121 23.8129 25.928 23.5957 26.0728C23.4798 25.4789 23.1032 25.0444 22.8859 24.8416C22.9728 24.7837 23.0018 24.6533 22.9728 24.4505C22.9294 24.2043 22.77 23.987 22.6976 23.9001C22.7121 23.509 22.4079 23.1613 22.321 23.06C22.2341 22.7413 21.9299 22.495 21.5388 22.3502L21.4664 21.8867L21.5388 20.9886ZM22.1617 23.2048C22.2196 23.2772 22.4369 23.509 22.4659 23.7697C21.9879 23.6249 20.409 23.2483 18.8736 24.016C18.8157 23.9001 18.7577 23.7118 18.8591 23.5669C20.2641 22.7268 21.9299 23.1469 22.1617 23.2048ZM18.9315 23.2772C19.004 22.9875 19.2212 22.7703 19.5109 22.6254C19.7572 22.5095 20.0469 22.4371 20.3366 22.4226C20.6408 22.3937 20.9449 22.4226 21.2202 22.495C21.5823 22.582 21.8865 22.7413 22.0313 22.9586C21.5098 22.8282 20.1483 22.6254 18.9315 23.2772ZM18.9171 24.2477C20.5683 23.3931 22.292 23.9435 22.5238 24.016C22.5817 24.0739 22.7266 24.2622 22.7556 24.465C22.77 24.6098 22.7556 24.6533 22.7121 24.6678C22.6252 24.6823 22.4948 24.6388 22.3645 24.5954C22.321 24.5809 22.2775 24.5664 22.2341 24.5519C21.9589 24.465 21.3215 24.4215 20.6697 24.4795C20.1917 24.5229 19.6848 24.6243 19.3226 24.8126C19.1488 24.8995 19.0184 24.9285 18.9315 24.914C18.8881 24.914 18.8446 24.8851 18.8301 24.8561C18.8012 24.8271 18.7867 24.7692 18.7867 24.7112C18.7577 24.5809 18.8157 24.4215 18.9171 24.2477ZM19.453 24.9864C19.7861 24.8271 20.2207 24.7402 20.6697 24.6967C21.2926 24.6388 21.9009 24.6823 22.1472 24.7547C22.1762 24.7692 22.2196 24.7837 22.2775 24.7981C22.3934 24.8416 22.4948 24.8706 22.5962 24.8851C22.7121 24.972 23.277 25.4355 23.3784 26.1742C22.5238 26.6522 20.887 27.1882 18.6563 26.348C18.7432 25.5079 19.453 25.0009 19.453 24.9864ZM18.2797 20.612C18.3087 20.4961 18.4101 20.3947 18.5549 20.3078C18.7143 20.2064 18.9315 20.134 19.1778 20.0761C19.8875 19.9167 20.7711 19.9602 21.2346 20.2499L21.0898 21.9012L21.1477 22.2488C20.887 22.1909 20.5973 22.1764 20.3076 22.2053C19.9889 22.2343 19.6703 22.3067 19.3951 22.4371C19.3371 22.4661 19.2937 22.495 19.2357 22.524L19.004 21.8722L18.9895 21.8577C18.9895 21.8577 18.7287 21.4956 18.468 21.1479C18.468 21.1479 18.468 21.1479 18.468 21.1335L18.3956 21.0321C18.2797 20.8583 18.2507 20.7134 18.2797 20.612ZM18.3087 23.0744C18.3377 23.031 18.3377 22.973 18.3232 22.9296L17.9176 21.7998L18.2942 21.4956C18.4535 21.7129 18.6418 21.9591 18.6998 22.0315L18.9605 22.7558C18.8012 22.9441 18.6853 23.1758 18.6708 23.451C18.497 23.7263 18.6274 24.0449 18.6998 24.1753C18.5839 24.3781 18.5404 24.5809 18.5404 24.7402C18.5404 24.8416 18.5694 24.943 18.6274 25.0009C18.6853 25.0734 18.7722 25.1313 18.8736 25.1458C18.9026 25.1458 18.9315 25.1458 18.975 25.1458C18.7577 25.392 18.5115 25.7831 18.4391 26.2756C18.2797 26.2177 18.1204 26.1452 17.961 26.0583C17.9176 25.6528 17.7872 24.016 18.3087 23.0744ZM22.6831 27.4923C22.321 27.5503 21.9299 27.5792 21.5388 27.6227L21.3505 27.6372C20.9594 27.6662 20.2207 27.6662 19.5254 27.5213C19.1198 27.4489 18.7287 27.3185 18.4246 27.1302C18.1638 26.9564 17.9755 26.7391 17.9466 26.4494V26.4349C21.1622 27.9124 23.3349 26.6812 24.0592 26.1597C24.0882 27.0433 23.4653 27.362 22.6831 27.4923Z" fill="#870000"/>
<path d="M20.6555 21.0755C20.7424 21.7998 19.178 22.553 18.8594 20.1485C18.7435 20.192 18.6421 20.2354 18.5552 20.2934C18.4103 20.3803 18.3089 20.4817 18.28 20.5975C18.251 20.7134 18.28 20.8438 18.3959 21.0176C18.4248 21.0466 18.4393 21.0755 18.4683 21.119C18.4683 21.119 18.4683 21.119 18.4828 21.1335C18.7435 21.4811 19.0042 21.8432 19.0042 21.8432L19.0187 21.8577L19.2505 22.5095C19.3084 22.4806 19.3519 22.4516 19.4098 22.4226C19.6705 22.2923 19.9892 22.2199 20.3224 22.1909C20.5976 22.1764 20.8873 22.1909 21.1625 22.2343L21.1045 21.8867L21.2494 20.2354C21.0611 20.1195 20.8004 20.0326 20.5107 20.0037C20.5396 20.2209 20.612 20.641 20.6555 21.0755Z" fill="#CCCCCC"/>
<path d="M20.6117 27.1445C19.8295 27.101 18.9459 26.8983 17.9609 26.4492V26.4637C17.9899 26.7534 18.1637 26.9707 18.4389 27.1445C18.7286 27.3328 19.1197 27.4487 19.5398 27.5356C20.2351 27.666 20.9738 27.6804 21.3649 27.6515L21.5532 27.637C21.9443 27.608 22.3354 27.579 22.6975 27.5066C23.161 27.4197 23.5521 27.2893 23.8128 27.0141C22.6251 27.4052 21.1621 27.7529 20.6117 27.1445Z" fill="#CCCCCC"/>
<path d="M18.6567 26.3625C19.2941 26.5942 19.8735 26.7246 20.4094 26.7825C20.0473 25.2906 22.1041 25.1312 22.8429 25.1312C22.727 25.0154 22.6401 24.9429 22.5966 24.8995C22.4952 24.885 22.3794 24.856 22.278 24.8126C22.2345 24.7981 22.1911 24.7836 22.1476 24.7691C21.9014 24.6967 21.293 24.6532 20.6701 24.7112C20.2356 24.7546 19.7866 24.8415 19.4534 25.0009C19.4534 25.0009 18.7436 25.5078 18.6567 26.3625Z" fill="#CCCCCC"/>
<path d="M19.3081 24.8128C19.6702 24.6245 20.1627 24.5231 20.6552 24.4797C20.8145 24.4652 20.9883 24.4507 21.1332 24.4507C21.4663 24.4507 21.756 24.4652 21.9733 24.4941C22.0747 24.5086 22.1471 24.5231 22.2051 24.5376C22.263 24.5521 22.292 24.5666 22.3354 24.581C22.4658 24.6245 22.6106 24.668 22.6831 24.6535C22.712 24.6535 22.741 24.61 22.7265 24.5376C22.7265 24.5086 22.7265 24.4941 22.712 24.4652C22.6975 24.4072 22.6831 24.3638 22.6686 24.3203C21.7126 24.0596 20.5972 24.2044 19.7571 24.4072C19.337 24.5086 18.9749 24.6245 18.7432 24.6969V24.7114C18.7432 24.7694 18.7576 24.8128 18.7866 24.8563C18.8156 24.8852 18.8446 24.8997 18.888 24.9142C19.0039 24.9287 19.1343 24.8997 19.3081 24.8128Z" fill="#CCCCCC"/>
<path d="M18.8737 24.016C20.3946 23.2628 21.9735 23.6249 22.4659 23.7698C22.437 23.6104 22.3646 23.4656 22.2776 23.3497C21.1478 23.2483 19.8007 23.2773 18.8013 23.7698C18.8158 23.8712 18.8447 23.9581 18.8737 24.016Z" fill="#CCCCCC"/>
<path d="M18.9316 23.2773C20.1629 22.64 21.5244 22.8428 22.0459 22.9442C21.9445 22.7849 21.7707 22.669 21.5389 22.5676C20.525 22.4662 19.6269 22.7269 19.1199 22.9152C19.0186 23.0166 18.9606 23.147 18.9316 23.2773Z" fill="#CCCCCC"/>
<path d="M11.0084 22.9731C10.849 22.9731 10.7042 22.9731 10.5593 23.002C10.1103 23.0889 9.77715 23.3641 9.55988 23.7697C9.34261 24.1753 9.2557 24.6533 9.24121 25.1023C9.24121 25.1892 9.24121 25.2762 9.24121 25.3775V25.4934V25.5369V25.6093C9.2557 25.8266 9.28467 26.0439 9.32812 26.2611L9.34261 26.377L9.45848 26.406C10.7042 26.7826 11.9933 26.7391 13.2535 26.4494C13.775 26.3335 14.2964 26.1597 14.8034 25.9714C15.1945 25.8266 15.5711 25.6528 15.9477 25.4934C16.0636 25.4355 16.194 25.3775 16.3098 25.3341C16.672 25.1748 16.9761 24.9285 17.0341 24.5229C17.0631 24.3926 17.0486 24.2477 17.0341 24.1174L16.9906 23.7842L16.7299 24.0015C16.1215 24.494 15.3104 24.8706 14.5572 25.1023C14.0357 25.2617 13.5143 25.3775 12.9783 25.45V25.421C12.8914 24.8126 12.9783 24.1463 13.2825 23.6104L13.326 23.5235C13.4129 23.538 13.4998 23.5669 13.5867 23.5814H13.6012H13.6156C13.7895 23.5959 13.9633 23.5524 14.0647 23.3931C14.0937 23.3207 14.1081 23.2483 14.1081 23.1758C14.1661 23.1903 14.2095 23.1903 14.2675 23.1614C14.3109 23.1469 14.3544 23.1179 14.3833 23.0744C14.4123 23.031 14.4268 22.9875 14.4413 22.9296C14.4558 22.8137 14.4268 22.6978 14.3544 22.5964C14.4558 22.582 14.5427 22.524 14.5572 22.4226C14.5572 22.3792 14.5572 22.3357 14.5572 22.2923V22.2778C14.5282 22.0605 14.3544 21.9157 14.1516 21.8143L14.76 20.0761L14.6006 20.0037C14.2964 19.8588 13.804 19.8009 13.4708 19.7864C13.3694 19.7864 13.268 19.7864 13.1666 19.7864C12.9638 19.7864 12.7466 19.8153 12.5583 19.8733C12.4424 19.9167 12.3265 19.9747 12.2541 20.0761L12.2106 20.134L12.4134 21.4087L12.4279 21.6115C12.2541 21.626 12.0658 21.626 11.8919 21.6549L11.8195 21.6694L11.7761 21.7129C11.6602 21.7563 11.5588 21.9157 11.4864 22.0026L11.2401 22.3647H11.2691C11.2546 22.3937 11.2401 22.4226 11.2256 22.4516L11.0663 22.7558H11.0808C11.0663 22.7992 11.0373 22.8572 11.0229 22.9006L11.0084 22.9731Z" fill="white"/>
<path d="M13.6011 23.5091C13.5142 23.4946 13.4273 23.4656 13.3549 23.4511L13.2969 23.4366L13.2679 23.4946C13.1376 23.6829 13.0507 23.9146 12.9927 24.1464C12.8769 24.5665 12.8624 25.001 12.9203 25.4211L12.9348 25.508L13.0217 25.4935C13.8329 25.3776 14.644 25.1748 15.3972 24.8417L15.4552 24.8127V24.7548C15.4697 23.9871 15.0641 23.2483 14.5426 22.7124L14.3398 22.4951L14.3978 22.7848C14.4123 22.8283 14.4123 22.8717 14.3978 22.9007C14.3978 22.9441 14.3833 22.9876 14.3543 23.0166C14.3253 23.0455 14.2964 23.0745 14.2674 23.089C14.2384 23.1035 14.2095 23.1035 14.1805 23.1035H14.0791V23.2049C14.0646 23.4946 13.8329 23.5235 13.6011 23.5091Z" fill="#FFD6B5"/>
<path d="M14.2531 21.7563L14.1807 21.8867L14.2531 21.9301C14.3835 22.017 14.4704 22.1184 14.4993 22.2777C14.4993 22.3212 14.5138 22.3647 14.4993 22.4081C14.4993 22.4371 14.4848 22.466 14.4704 22.4805L14.4269 22.5385L14.4848 22.5964C14.7166 22.8137 14.9194 23.0744 15.0787 23.3496C15.325 23.7407 15.4843 24.1898 15.4843 24.6533V24.7836L15.6147 24.7257C15.9044 24.5953 16.1796 24.436 16.4403 24.2622C16.5852 24.1608 16.7155 24.0594 16.8459 23.9435L16.8893 23.9145L16.8749 23.8566C16.8459 23.7407 16.8024 23.6104 16.7735 23.4945C16.6866 23.2193 16.6721 22.8716 16.6721 22.5819C16.6721 22.2198 16.701 21.8577 16.7445 21.51C16.759 21.4231 16.759 21.3362 16.7735 21.2493L16.7879 21.032L16.6286 21.1769C16.4838 21.3073 16.2955 21.4087 16.0927 21.4231C15.7595 21.4376 15.4988 21.1914 15.325 20.9451C15.2381 20.8582 15.0932 20.7568 14.9773 20.7134C14.8904 20.6844 14.8035 20.6699 14.7166 20.6699H14.6587L14.2531 21.7563Z" fill="#FFD6B5"/>
<path d="M12.0946 20.5974C11.6456 20.7857 11.6891 21.2782 11.8484 21.6403L11.8774 21.6983L11.9498 21.6838C12.0657 21.6693 12.1671 21.6548 12.283 21.6548H12.3843L12.2105 20.554L12.0946 20.5974Z" fill="#FFD6B5"/>
<path d="M16.7011 24.2478C15.9334 24.8272 13.6593 26.1453 9.42969 25.6094C9.44417 25.7397 9.45866 25.8846 9.47314 26.015C9.47314 26.015 12.9785 26.6813 16.8315 24.5665C16.8315 24.552 16.846 24.523 16.846 24.5085C16.8604 24.4216 16.8604 24.3492 16.8604 24.2623C16.8604 24.2333 16.8604 24.1899 16.846 24.1609C16.8025 24.1754 16.7446 24.2043 16.7011 24.2478Z" fill="#CCCCCC"/>
<path d="M12.7755 25.4211C12.7176 25.0445 12.7321 24.6968 12.79 24.4216C12.79 24.3927 12.8045 24.3637 12.8045 24.3347C12.7031 24.3782 12.5872 24.4216 12.4714 24.4506C11.9354 24.6244 11.3126 24.6968 10.5738 24.6389C10.2407 24.6099 9.87856 24.5665 9.50195 24.4796C9.47298 24.581 9.45849 24.6968 9.44401 24.7982C9.42952 24.8996 9.42952 25.0155 9.41504 25.1314C9.41504 25.2183 9.41504 25.3052 9.41504 25.3921C10.7187 25.5514 11.834 25.537 12.7755 25.4211Z" fill="#CCCCCC"/>
<path d="M13.0074 24.407C12.9639 24.6822 12.935 25.0154 12.9929 25.4064C13.9779 25.2761 14.7601 25.0298 15.3539 24.7691C15.3539 24.6098 15.3394 24.4504 15.3105 24.2911C15.1946 23.7117 14.8614 23.2482 14.6152 22.9585C14.2386 23.4365 13.7316 23.9 13.0508 24.2332C13.0363 24.2766 13.0219 24.3346 13.0074 24.407Z" fill="#EDBE97"/>
<path d="M14.7456 22.756C15.0208 23.0747 15.3974 23.6106 15.5278 24.2625C15.5568 24.3928 15.5712 24.5087 15.5712 24.6535C15.8754 24.5087 16.1072 24.3638 16.2955 24.248C16.5417 24.0886 16.7011 23.9583 16.7735 23.8858C16.7445 23.77 16.7156 23.6541 16.6721 23.5237C16.4838 22.9298 16.5852 22.0173 16.6286 21.4958C16.6431 21.38 16.6431 21.293 16.6576 21.2351C16.4403 21.4089 15.9768 21.7131 15.4699 21.2641C15.4119 21.4958 15.1946 22.1187 14.7456 22.756Z" fill="#EDBE97"/>
<path d="M13.4711 19.9746C13.4421 20.2788 13.3842 20.9306 13.1524 21.5679C13.2104 21.5679 13.2538 21.5824 13.3118 21.5824C13.5435 21.6114 13.7753 21.6404 13.9781 21.7128L14.514 20.1774C14.3112 20.076 13.8912 19.9891 13.4711 19.9746ZM13.8912 23.1033C13.7318 23.0454 13.1524 22.8571 12.4282 22.7702C12.3123 22.8861 12.182 22.9875 12.0371 23.0599C12.8048 23.1758 13.5291 23.3496 13.6015 23.3641C13.9346 23.393 13.9201 23.1903 13.8912 23.1033ZM13.6449 22.5095C13.3987 22.4515 13.109 22.3791 12.7903 22.3356C12.7324 22.4226 12.6744 22.495 12.6165 22.5819C13.4277 22.6833 14.0071 22.915 14.0215 22.915H14.036L14.0505 22.9295C14.1084 22.973 14.1519 22.9875 14.1809 22.973C14.1954 22.973 14.2098 22.9585 14.2098 22.944C14.2243 22.9295 14.2243 22.915 14.2388 22.8861C14.2533 22.8137 14.2243 22.6978 14.1084 22.5964C13.9926 22.5819 13.8332 22.5529 13.6449 22.5095ZM14.036 21.9735C13.8332 21.8866 13.5725 21.8287 13.2973 21.8142C13.2249 21.8142 13.1524 21.7997 13.08 21.7997C13.0366 21.9156 12.9786 22.0315 12.9207 22.1473C13.2104 22.1908 13.4711 22.2632 13.7029 22.3067C13.9201 22.3646 14.1085 22.4081 14.2388 22.4081C14.3257 22.4226 14.3692 22.4226 14.3692 22.4081C14.3692 22.3791 14.3692 22.3356 14.3692 22.3067C14.3402 22.1618 14.2098 22.046 14.036 21.9735Z" fill="#CCCCCC"/>
<path d="M16.6723 21.2349C16.6723 21.2928 16.6578 21.3942 16.6433 21.4956C16.5853 22.0171 16.4984 22.9296 16.6867 23.5235C16.7302 23.6394 16.7592 23.7697 16.7881 23.8856C16.6578 24.0015 16.2667 24.3347 15.5714 24.6533C15.5424 23.6104 14.8037 22.7993 14.543 22.5385C14.5719 22.5096 14.5864 22.4661 14.5864 22.4226C14.5864 22.3647 14.5864 22.3213 14.5864 22.2778C14.5575 22.104 14.4561 21.9736 14.3112 21.8722H14.3257L14.6878 20.8293C15.0065 20.9162 15.2527 20.9886 15.2527 20.9886C15.8176 21.8143 16.426 21.4522 16.6723 21.2349ZM16.8316 24.1319C16.8461 24.2622 16.8461 24.3781 16.8316 24.494C16.7881 24.7547 16.6143 25.001 16.2087 25.1603C16.1073 25.2037 15.977 25.2617 15.8321 25.3196C14.6444 25.8556 12.0661 27.0288 9.48775 26.2322C9.44429 26.0294 9.42981 25.8266 9.41532 25.5948C13.9491 26.1742 16.2377 24.6244 16.8316 24.1319ZM13.9781 21.7129C13.7753 21.6405 13.5435 21.6115 13.3118 21.5825C13.08 21.5536 12.8338 21.5536 12.6165 21.5536H12.631L12.4137 20.1775C12.4572 20.1195 12.5296 20.0761 12.631 20.0471C12.7758 19.9892 12.9786 19.9747 13.1814 19.9602C13.2828 19.9602 13.3987 19.9602 13.5001 19.9602C14.8906 20.0616 14.2388 20.5686 13.9781 21.7129ZM13.9781 17.5268L13.558 19.6271C13.4276 19.6126 13.2828 19.6126 13.1524 19.6126C12.9062 19.6126 12.6744 19.656 12.5006 19.714C12.2833 19.7864 12.124 19.9023 12.0516 20.0761C12.0226 20.1485 12.0081 20.2354 12.0226 20.3223C11.2549 20.5831 11.4577 21.3363 11.5736 21.6405C11.4577 21.7563 11.3273 21.9157 11.2259 22.104C11.0811 22.3357 10.9507 22.5965 10.8928 22.7848C10.7624 22.7848 10.6465 22.7993 10.5307 22.8282C10.0092 22.9441 9.64708 23.2483 9.41532 23.6828C9.19805 24.0884 9.09666 24.5954 9.06769 25.0879C9.0532 25.5369 9.09666 26.0004 9.18357 26.3915C9.19805 26.4494 9.2415 26.5074 9.29944 26.5219C12.0371 27.4199 14.7603 26.1887 15.9915 25.6238C16.1363 25.5659 16.2522 25.5079 16.3536 25.4645C16.8895 25.2327 17.1213 24.8996 17.1792 24.523C17.2372 24.1608 17.1358 23.7697 17.0199 23.3931C16.8606 22.8717 16.9475 22.0026 16.9909 21.5101C17.0054 21.3508 17.0199 21.2349 17.0199 21.1625C17.0199 20.8872 16.8171 20.7424 16.6578 20.67L17.0344 17.8309V17.8164C17.0489 17.7151 16.962 17.6281 16.875 17.6281L15.3396 17.4978C14.8616 17.4398 14.1084 17.4254 13.9781 17.5268ZM14.2243 22.3937C14.0939 22.3792 13.9056 22.3357 13.6884 22.2923C13.1379 22.1619 12.3847 21.9881 11.646 22.104C11.7329 21.9881 11.8053 21.9012 11.8343 21.8867C11.8633 21.8722 11.8922 21.8577 11.9067 21.8433C12.1675 21.7998 12.7324 21.7563 13.2683 21.8143C13.5435 21.8433 13.8042 21.8867 14.007 21.9736C14.1809 22.046 14.3112 22.1619 14.3257 22.3068C14.3257 22.3357 14.3257 22.3647 14.3257 22.4082C14.3547 22.4082 14.3112 22.4082 14.2243 22.3937ZM12.1385 20.6845L12.2833 21.5825C12.153 21.597 12.0371 21.597 11.9502 21.6115C11.8778 21.4666 11.646 20.8872 12.1385 20.6845ZM14.4561 22.7703C14.7603 23.089 15.3686 23.8277 15.3541 24.7547C14.7603 25.0154 13.9781 25.2617 12.9931 25.3921C12.8482 24.3781 13.2104 23.7263 13.3262 23.538C13.4856 23.567 13.5725 23.5959 13.5725 23.5959H13.587H13.6015C14.0795 23.6394 14.1519 23.3931 14.1519 23.2048C14.1953 23.2048 14.2388 23.2048 14.2822 23.1903C14.3402 23.1759 14.3836 23.1324 14.4126 23.089C14.4416 23.0455 14.4706 22.9876 14.4706 22.9296C14.4706 22.8862 14.4706 22.8282 14.4561 22.7703ZM14.1229 22.611C14.2243 22.7123 14.2678 22.8137 14.2533 22.9006C14.2533 22.9296 14.2388 22.9441 14.2243 22.9586C14.2098 22.9731 14.2098 22.9731 14.1953 22.9876C14.1664 23.002 14.1229 22.9876 14.065 22.9441L14.0505 22.9296H14.036C14.036 22.9296 12.7613 22.4371 11.4142 22.553C11.4432 22.4951 11.4722 22.4371 11.5156 22.3792C12.2544 22.1909 13.08 22.3792 13.6739 22.524C13.8332 22.553 13.9926 22.582 14.1229 22.611ZM13.109 23.4945C12.9496 23.7697 12.6455 24.4505 12.7758 25.4355C11.8343 25.5514 10.719 25.5514 9.41532 25.3921C9.41532 25.3051 9.41532 25.2182 9.41532 25.1313C9.42981 24.6823 9.51672 24.2333 9.71951 23.8711C9.90781 23.538 10.183 23.2917 10.6031 23.2048C10.7334 23.1759 10.8783 23.1614 11.0231 23.1759H11.0376C11.6895 23.2193 12.573 23.3786 13.109 23.4945ZM13.6159 23.3786C13.5001 23.3497 12.1964 23.06 11.2115 22.9586C11.2259 22.9151 11.2549 22.8427 11.2839 22.7703C12.4861 22.6254 13.6594 23.0165 13.9056 23.1034C13.9201 23.1903 13.9346 23.3931 13.6159 23.3786Z" fill="#870000"/>
<path d="M30.867 10.1833C31.0553 10.2268 31.2726 10.2123 31.4898 10.1544C31.7795 10.0819 32.0837 9.93708 32.33 9.74878C32.3734 9.71981 32.4024 9.69084 32.4458 9.66187C32.5617 9.80671 32.7211 10.053 32.7066 10.2847C32.7066 10.4296 32.5617 10.6179 32.33 10.7627C32.1706 10.8641 31.9823 10.951 31.7651 10.9945C31.7651 10.9945 31.7651 10.9945 31.7506 10.9945C31.6057 11.0234 31.4609 11.0379 31.3015 11.0379C31.2871 11.0379 31.2726 11.0379 31.2581 11.0379C31.0408 11.0379 30.9104 10.9655 30.838 10.8641C30.7946 10.7917 30.7656 10.7193 30.7511 10.6324C30.7366 10.5454 30.7511 10.4585 30.7656 10.3716C30.7801 10.2847 30.8235 10.2123 30.867 10.1833Z" fill="white"/>
<path d="M30.8673 10.1833C31.0556 10.2268 31.2729 10.2123 31.4902 10.1544C31.7799 10.0819 32.0841 9.93708 32.3303 9.74878C32.3738 9.71981 32.4027 9.69084 32.4462 9.66187C32.5041 9.73429 32.5766 9.83568 32.6345 9.95156C32.6345 9.95156 31.8378 10.951 30.7515 10.502C30.7515 10.4585 30.7659 10.4151 30.7804 10.3716C30.7804 10.2847 30.8239 10.2123 30.8673 10.1833Z" fill="#CCCCCC"/>
<path d="M30.5194 9.06751C30.7222 8.96612 31.2582 8.71987 31.852 8.43018C31.9969 8.47363 32.3445 8.61848 32.4749 8.92266C32.5184 9.02406 32.4604 9.15442 32.3301 9.28478C32.3301 9.28478 32.3301 9.28478 32.3156 9.29927C32.3011 9.31375 32.3011 9.31375 32.2866 9.32824C32.2287 9.38618 32.1707 9.44412 32.0983 9.50206C31.8955 9.66139 31.6348 9.79176 31.3885 9.8497C31.2147 9.89315 31.0264 9.90763 30.8816 9.86418H30.8671C30.8236 9.8497 30.7947 9.83521 30.7657 9.82073C30.6063 9.69036 30.505 9.47309 30.5194 9.06751Z" fill="white"/>
<path d="M30.5195 9.06751C30.7223 8.96612 31.2583 8.71987 31.8521 8.43018C31.9246 8.45915 32.0839 8.51709 32.2143 8.61848C32.2143 8.61848 31.6204 9.53103 30.5485 9.47309C30.534 9.35721 30.5195 9.22684 30.5195 9.06751Z" fill="#CCCCCC"/>
<path d="M24.074 12.776C23.7264 12.1532 23.4367 11.5013 23.1904 10.864C24.7403 11.6317 26.2467 11.0233 26.7392 10.7771C26.7972 10.9075 26.8696 11.0523 26.9565 11.1972C27.1303 11.5013 27.3621 11.849 27.6663 12.1821C27.1158 12.5008 25.3921 13.3409 24.074 12.776Z" fill="#FC4444"/>
<path d="M23.3639 11.2696C23.306 11.1392 23.2625 10.9944 23.2046 10.864C24.7545 11.6317 26.2609 11.0233 26.7534 10.7771C26.7824 10.8495 26.8113 10.9075 26.8548 10.9799C25.4353 11.7331 24.1171 11.5158 23.3639 11.2696Z" fill="#FCE2E2"/>
<path d="M24.074 12.776C24.0016 12.6311 23.9147 12.4863 23.8423 12.3414C24.581 12.4718 25.8557 12.5153 27.3187 11.7476C27.4201 11.8924 27.5359 12.0373 27.6808 12.1821C27.1159 12.5008 25.3922 13.3409 24.074 12.776Z" fill="#E60707"/>
<path d="M27.7824 10.1541C27.7824 10.1541 27.681 9.66162 27.7824 9.08222C27.7824 9.06774 27.7824 9.05325 27.7968 9.03877C27.8693 8.61871 28.0721 8.15519 28.4921 7.82204C28.5501 7.77858 28.5645 7.70616 28.5501 7.63373C28.5211 7.51785 28.2024 6.48943 27.7244 6.08385C27.6954 6.05488 27.6665 6.02591 27.6665 6.01143C27.6665 5.98246 27.681 5.95349 27.7099 5.92452C27.7534 5.86658 27.8258 5.82312 27.9272 5.77967C28.1879 5.6493 28.5501 5.57688 28.7963 5.6493C29.2888 5.79415 29.5785 7.25713 29.593 7.25713C29.593 7.2861 29.6219 7.31507 29.6364 7.34404C29.7089 7.43095 30.1289 7.7641 31.1429 7.14125C31.3746 6.9964 31.6353 6.83706 31.8671 6.67773C32.5189 6.27215 33.0114 5.95349 33.1128 5.95349C33.1128 5.95349 33.1563 5.96797 33.2142 6.01143C33.2866 6.05488 33.359 6.11282 33.446 6.18524C33.5039 6.2287 33.5473 6.28664 33.5908 6.33009C33.6777 6.43149 33.7357 6.56185 33.7501 6.67773C33.7646 6.79361 33.7212 6.90949 33.6198 7.02537C33.5908 7.05434 33.5473 7.09779 33.5184 7.12676C33.1418 7.41646 32.461 7.79307 31.8092 8.12622C31.7947 8.12622 31.7947 8.14071 31.7802 8.14071C31.0125 8.5318 30.3317 8.83598 30.3317 8.83598C30.2738 8.86495 30.2448 8.90841 30.2303 8.96634C30.2013 9.1981 30.2158 9.40089 30.2593 9.57471C29.7813 10.0237 29.1439 9.95132 29.1439 9.95132C28.579 9.89338 29.3178 10.5452 30.4041 9.89338C30.4476 9.9658 30.5055 10.0237 30.5779 10.0672C30.5345 10.1396 30.491 10.2265 30.4621 10.3134C30.4331 10.4293 30.4186 10.5742 30.4331 10.7045C30.4476 10.8349 30.5055 10.9797 30.5924 11.0956C30.7228 11.2694 30.9401 11.3998 31.2732 11.3998C31.0704 11.5302 30.8387 11.6461 30.5924 11.7474C30.2448 11.8778 29.8972 11.9502 29.6219 11.8778C29.593 11.8633 29.5495 11.8633 29.5205 11.8488H29.5061C28.9267 11.6171 28.4487 10.9218 28.4487 10.9218C28.2024 10.5597 28.0721 11.255 29.1729 12.0516C28.9267 12.2544 28.4342 12.5296 27.9707 12.0227C27.681 11.704 27.4637 11.3708 27.3044 11.0811C27.1885 10.8784 27.1016 10.69 27.0436 10.5452C27.0436 10.5307 27.0436 10.5307 27.0291 10.5162C26.9712 10.3569 26.9422 10.2555 26.9422 10.1976C26.9277 10.0962 26.9422 9.83544 27.1161 9.60368C27.1885 9.50229 27.3044 9.41538 27.4492 9.32847C27.5651 10.4728 27.8258 10.3714 27.7824 10.1541Z" fill="white"/>
<path d="M30.0998 10.0094C30.1867 9.9659 30.2736 9.92244 30.375 9.8645C30.4184 9.93693 30.4764 9.99487 30.5488 10.0383C30.5053 10.1107 30.4619 10.1977 30.4329 10.2846C30.4039 10.4004 30.3895 10.5453 30.4039 10.6757C30.4184 10.806 30.4764 10.9509 30.5633 11.0667C30.6936 11.2406 30.9109 11.3709 31.2441 11.3709C31.0413 11.5013 30.8095 11.6172 30.5633 11.7186C30.2156 11.8489 29.868 11.9214 29.5928 11.8489C29.5638 11.8344 29.5204 11.8344 29.4914 11.82H29.4769C28.8975 11.5882 28.4195 10.8929 28.4195 10.8929C28.1733 10.5308 28.0429 11.2261 29.1438 12.0228C28.8975 12.2255 28.405 12.5008 27.9415 11.9938C27.6518 11.6751 27.4345 11.342 27.2752 11.0523C27.1593 10.8495 27.0724 10.6612 27.0145 10.5163C27.0145 10.5018 27.0145 10.5018 27 10.4874C26.9421 10.328 26.9131 10.2266 26.9131 10.1687C27.5794 11.7041 28.0719 10.2411 28.0719 10.2411C29.3321 12.0372 30.346 11.1247 30.346 11.1247C29.897 10.6757 30.0998 10.0094 30.0998 10.0094Z" fill="#CCCCCC"/>
<path d="M33.5612 6.31543C33.6481 6.41682 33.7061 6.54719 33.7206 6.66307C33.7351 6.77895 33.6916 6.89483 33.5902 7.01071C33.5612 7.03968 33.5178 7.08313 33.4888 7.1121C33.1122 7.4018 32.4314 7.7784 31.7796 8.11156C31.7651 8.11156 31.7651 8.12604 31.7506 8.12604C30.9829 8.51713 30.3021 8.82132 30.3021 8.82132C30.2442 8.85029 30.2152 8.89374 30.2007 8.95168C30.1718 9.18344 30.1863 9.38623 30.2297 9.56005C29.7517 10.0091 29.1144 9.93665 29.1144 9.93665C28.9695 9.92217 28.9116 9.95114 28.9261 9.99459C28.3756 9.8932 28.1294 9.53108 28.1294 9.53108C29.0709 10.0236 29.8386 9.45865 29.8386 9.45865C29.8386 9.45865 28.7233 8.9372 30.3021 8.41574C31.8955 7.8798 33.5612 6.31543 33.5612 6.31543Z" fill="#CCCCCC"/>
<path d="M27.9415 12.428C27.5214 12.6743 25.8122 13.5723 24.3347 13.2102L24.074 12.7757C25.3921 13.3406 27.1158 12.5004 27.6663 12.1963C27.5359 12.0514 27.42 11.9066 27.3041 11.7617C27.1593 11.5734 27.0434 11.3851 26.9565 11.2113C26.913 11.1389 26.8841 11.0664 26.8406 10.994C26.8116 10.9216 26.7682 10.8492 26.7392 10.7912C26.2467 11.0375 24.7258 11.6458 23.1904 10.8781L23.0166 10.4001C24.5665 11.3996 26.1888 10.7043 26.6233 10.4726C26.5799 10.3422 26.5654 10.2408 26.5509 10.1829C26.5364 10.038 26.5509 9.69037 26.7972 9.35722C26.9275 9.1834 27.1448 9.00958 27.449 8.90818C27.5359 8.47364 27.7387 7.99564 28.1587 7.63351C28.0718 7.3583 27.8111 6.63405 27.4635 6.32987C27.3476 6.22848 27.3041 6.12708 27.2896 6.02569C27.2896 5.90981 27.3331 5.79393 27.42 5.69254C27.4924 5.60563 27.6083 5.5332 27.7242 5.47526C28.0429 5.31593 28.5064 5.22902 28.825 5.33041C29.4334 5.51872 29.781 6.8803 29.839 7.14103C29.9114 7.19897 30.1721 7.30036 30.8964 6.85133C31.1861 6.67751 31.4178 6.53266 31.6206 6.38781C32.3159 5.95326 32.8229 5.62011 33.0112 5.60563C33.0836 5.60563 33.1995 5.6346 33.3154 5.70702C33.4023 5.76496 33.5037 5.83739 33.6051 5.92429C33.663 5.98223 33.7209 6.04017 33.7789 6.1126C33.8948 6.25745 33.9817 6.44575 33.9962 6.63405C34.0106 6.83684 33.9527 7.03963 33.7789 7.22794C33.7354 7.27139 33.692 7.31484 33.634 7.3583C33.3009 7.61903 32.736 7.9377 32.1855 8.22739C32.3883 8.32879 32.6201 8.50261 32.736 8.77782C32.8229 8.98061 32.7649 9.19788 32.6056 9.40067C32.736 9.57449 32.9822 9.92213 32.9822 10.2698C32.9677 10.5305 32.7794 10.8057 32.4608 11.023C32.2869 11.1389 32.0697 11.2258 31.8234 11.2837C31.5772 11.53 31.1137 11.8196 30.6212 12.008C30.2156 12.1673 29.7955 12.2397 29.4479 12.1528L29.4044 12.1383C29.2451 12.3701 28.6078 12.8915 27.9415 12.428ZM27.2607 11.0375C27.42 11.3272 27.6373 11.6458 27.927 11.979C28.3905 12.486 28.883 12.2107 29.1292 12.008C28.0284 11.1968 28.1443 10.516 28.405 10.8781C28.405 10.8781 28.883 11.5734 29.4769 11.8052H29.4914C29.5203 11.8196 29.5638 11.8341 29.5927 11.8341C29.8535 11.9066 30.2156 11.8341 30.5632 11.7038C30.8095 11.6169 31.0412 11.4865 31.244 11.3561C30.9109 11.3416 30.6936 11.2258 30.5632 11.0519C30.4763 10.9361 30.4329 10.8057 30.4039 10.6609C30.3894 10.5305 30.4039 10.3856 30.4329 10.2698C30.4618 10.1829 30.4908 10.0959 30.5487 10.0235C30.4763 9.98007 30.4184 9.92213 30.3749 9.8497C30.2735 9.90764 30.1866 9.9511 30.0997 9.99455C29.4334 10.2842 28.9409 10.0959 28.912 9.98007C28.8975 9.93661 28.9554 9.90764 29.1003 9.92213C29.1003 9.92213 29.7376 9.99455 30.2156 9.54552C30.1721 9.38619 30.1577 9.1834 30.1866 8.93715C30.1866 8.87921 30.2301 8.82127 30.288 8.80679C30.288 8.80679 30.9833 8.48812 31.7365 8.11151C31.751 8.11151 31.751 8.09703 31.7655 8.09703C32.4028 7.76388 33.0981 7.38727 33.4747 7.09757C33.5182 7.0686 33.5471 7.03963 33.5761 6.99618C33.6775 6.8803 33.7209 6.76442 33.7065 6.64854C33.692 6.53266 33.634 6.41678 33.5471 6.3009C33.5037 6.24296 33.4602 6.19951 33.4023 6.15605C33.3298 6.08363 33.2429 6.02569 33.1705 5.98223C33.1126 5.95326 33.0691 5.92429 33.0691 5.92429C32.9532 5.93878 32.4752 6.24296 31.8234 6.64854C31.5772 6.80787 31.3164 6.96721 31.0992 7.11206C30.0852 7.74939 29.6652 7.40175 29.5927 7.31484C29.5783 7.28587 29.5493 7.27139 29.5493 7.22794C29.5493 7.22794 29.2451 5.76496 28.7526 5.62011C28.5064 5.54769 28.1443 5.62011 27.8835 5.75048C27.7966 5.79393 27.7242 5.85187 27.6663 5.89532C27.6373 5.92429 27.6083 5.96775 27.6228 5.98223C27.6228 5.99672 27.6373 6.02569 27.6807 6.05466C28.1587 6.46024 28.4629 7.48866 28.5064 7.60454C28.5353 7.67697 28.5064 7.74939 28.4484 7.79285C28.0284 8.126 27.8401 8.58952 27.7532 9.00958C27.7532 9.02406 27.7532 9.03855 27.7387 9.05303C27.6373 9.63243 27.7387 10.1249 27.7387 10.1249C27.7821 10.3567 27.5214 10.4581 27.3766 9.25582C27.2317 9.32825 27.1158 9.42964 27.0434 9.53103C26.8696 9.76279 26.8551 10.0235 26.8696 10.1249C26.8696 10.1829 26.8986 10.2987 26.9565 10.4436C26.9565 10.4581 26.971 10.4581 26.971 10.4726C27.0579 10.6464 27.1448 10.8347 27.2607 11.0375ZM30.5198 9.06752C30.5053 9.22685 30.5198 9.35722 30.5487 9.45861C30.5922 9.61794 30.6646 9.73382 30.7805 9.79176C30.8095 9.80625 30.8529 9.82073 30.8819 9.83522H30.8964C31.0412 9.87867 31.2151 9.86419 31.4034 9.82073C31.6496 9.76279 31.9103 9.63243 32.1131 9.47309C32.1855 9.41516 32.2435 9.35721 32.3014 9.29928C32.3014 9.28479 32.3159 9.28479 32.3304 9.27031L32.3449 9.25582C32.4752 9.12546 32.5332 8.99509 32.4897 8.8937C32.4318 8.76333 32.3304 8.66194 32.229 8.58952C32.0841 8.48812 31.9393 8.43018 31.8669 8.40121C31.273 8.73436 30.7371 8.98061 30.5198 9.06752ZM30.766 10.3712C30.7515 10.4146 30.7515 10.4581 30.7371 10.5015C30.7371 10.545 30.7371 10.5884 30.7371 10.6319C30.7515 10.7188 30.7805 10.7912 30.824 10.8636C30.8964 10.965 31.0412 11.0375 31.244 11.0375H31.2875C31.4468 11.0375 31.5917 11.023 31.7365 10.994H31.751C31.9683 10.9506 32.1566 10.8636 32.3159 10.7623C32.5477 10.6174 32.6925 10.4291 32.6925 10.2842C32.6925 10.1684 32.6635 10.0525 32.6056 9.9511C32.5477 9.83522 32.4752 9.73382 32.4173 9.6614C32.3738 9.69037 32.3449 9.71934 32.3014 9.74831C32.0697 9.92213 31.7655 10.0815 31.4613 10.1539C31.244 10.2118 31.0412 10.2263 30.8384 10.1829C30.824 10.2118 30.7805 10.2842 30.766 10.3712Z" fill="#870000"/>
<path d="M3.18669 10.1833C2.99839 10.2268 2.78112 10.2123 2.56384 10.1544C2.27415 10.0819 1.96996 9.93708 1.72372 9.74878C1.68027 9.71981 1.6513 9.69084 1.60784 9.66187C1.49196 9.80671 1.33263 10.053 1.34711 10.2847C1.34711 10.4296 1.49196 10.6179 1.72372 10.7627C1.88305 10.8641 2.07136 10.951 2.28863 10.9945C2.28863 10.9945 2.28863 10.9945 2.30312 10.9945C2.44797 11.0234 2.59281 11.0379 2.75215 11.0379C2.76663 11.0379 2.78112 11.0379 2.7956 11.0379C3.01288 11.0379 3.14324 10.9655 3.21566 10.8641C3.25912 10.7917 3.28809 10.7193 3.30257 10.6324C3.31706 10.5454 3.30257 10.4585 3.28809 10.3716C3.2736 10.2847 3.23015 10.2123 3.18669 10.1833Z" fill="white"/>
<path d="M3.18659 10.1833C2.99829 10.2268 2.78101 10.2123 2.56374 10.1544C2.27404 10.0819 1.96986 9.93708 1.72362 9.74878C1.68016 9.71981 1.65119 9.69084 1.60774 9.66187C1.5498 9.73429 1.47737 9.83568 1.41943 9.95156C1.41943 9.95156 2.2161 10.951 3.30247 10.502C3.30247 10.4585 3.28799 10.4151 3.2735 10.3716C3.2735 10.2847 3.23005 10.2123 3.18659 10.1833Z" fill="#CCCCCC"/>
<path d="M3.53418 9.06751C3.33139 8.96612 2.79545 8.71987 2.20157 8.43018C2.05672 8.47363 1.70908 8.61848 1.57872 8.92266C1.53527 9.02406 1.5932 9.15442 1.72357 9.28478C1.72357 9.28478 1.72357 9.28478 1.73805 9.29927C1.75254 9.31375 1.75254 9.31375 1.76702 9.32824C1.82496 9.38618 1.8829 9.44412 1.95533 9.50206C2.15812 9.66139 2.41884 9.79176 2.66509 9.8497C2.83891 9.89315 3.02721 9.90763 3.17206 9.86418H3.18654C3.23 9.8497 3.25897 9.83521 3.28794 9.82073C3.44727 9.69036 3.54867 9.47309 3.53418 9.06751Z" fill="white"/>
<path d="M3.53409 9.06751C3.3313 8.96612 2.79536 8.71987 2.20148 8.43018C2.12905 8.45915 1.96972 8.51709 1.83936 8.61848C1.83936 8.61848 2.43324 9.53103 3.50512 9.47309C3.5196 9.35721 3.53409 9.22684 3.53409 9.06751Z" fill="#CCCCCC"/>
<path d="M9.97995 12.776C10.3276 12.1532 10.6173 11.5013 10.8635 10.864C9.31364 11.6317 7.80722 11.0233 7.31473 10.7771C7.25679 10.9075 7.18436 11.0523 7.09746 11.1972C6.92364 11.5013 6.69188 11.849 6.3877 12.1821C6.93812 12.5008 8.66182 13.3409 9.97995 12.776Z" fill="#FC4444"/>
<path d="M10.6901 11.2696C10.748 11.1392 10.7915 10.9944 10.8494 10.864C9.29953 11.6317 7.7931 11.0233 7.30061 10.7771C7.27164 10.8495 7.24267 10.9075 7.19922 10.9799C8.61874 11.7331 9.93686 11.5158 10.6901 11.2696Z" fill="#FCE2E2"/>
<path d="M9.98027 12.776C10.0527 12.6311 10.1396 12.4863 10.212 12.3414C9.4733 12.4718 8.19863 12.5153 6.73566 11.7476C6.63426 11.8924 6.51838 12.0373 6.37354 12.1821C6.93845 12.5008 8.66215 13.3409 9.98027 12.776Z" fill="#E60707"/>
<path d="M6.27209 10.1541C6.27209 10.1541 6.37348 9.66162 6.27209 9.08222C6.27209 9.06774 6.27209 9.05325 6.2576 9.03877C6.18518 8.61871 5.98239 8.15519 5.56233 7.82204C5.50439 7.77858 5.48991 7.70616 5.50439 7.63373C5.53336 7.51786 5.85203 6.48943 6.33003 6.08385C6.359 6.05488 6.38797 6.02591 6.38797 6.01143C6.38797 5.98246 6.37348 5.95349 6.34451 5.92452C6.30106 5.86658 6.22863 5.82312 6.12724 5.77967C5.86651 5.6493 5.50439 5.57688 5.25815 5.6493C4.79463 5.77967 4.49045 7.24264 4.49045 7.24264C4.49045 7.27161 4.46148 7.30058 4.44699 7.32955C4.37457 7.41646 3.95451 7.74961 2.94056 7.12676C2.70881 6.98191 2.44808 6.82258 2.21632 6.66325C1.5645 6.25767 1.07201 5.939 0.970618 5.939C0.970618 5.939 0.927163 5.95349 0.869223 5.99694C0.796799 6.0404 0.724375 6.09833 0.637465 6.17076C0.579526 6.21421 0.536071 6.27215 0.492616 6.31561C0.405707 6.417 0.347767 6.54737 0.333282 6.66325C0.318797 6.77913 0.362252 6.895 0.463646 7.01088C0.492616 7.03985 0.536071 7.06882 0.579526 7.09779C0.956133 7.38749 1.63692 7.7641 2.28874 8.09725C2.30323 8.09725 2.30323 8.11174 2.31771 8.11174C3.08541 8.50283 3.7662 8.80701 3.7662 8.80701C3.82414 8.83598 3.85311 8.87944 3.8676 8.93738C3.89657 9.16913 3.88208 9.37192 3.83863 9.54574C4.31663 9.99477 4.95396 9.92235 4.95396 9.92235C5.51888 9.86441 4.78015 10.5162 3.69378 9.86441C3.65032 9.93683 3.59238 9.99477 3.51996 10.0382C3.56341 10.1107 3.60687 10.1976 3.63584 10.2845C3.66481 10.4003 3.67929 10.5452 3.66481 10.6756C3.65032 10.8059 3.59238 10.9508 3.50547 11.0667C3.37511 11.2405 3.15784 11.3708 2.82468 11.3708C3.02747 11.5012 3.25923 11.6171 3.50547 11.7185C3.85311 11.8488 4.20075 11.9213 4.47596 11.8488C4.50493 11.8344 4.54839 11.8344 4.57736 11.8199H4.59184C5.17124 11.5881 5.64924 10.8928 5.64924 10.8928C5.89548 10.5307 6.02585 11.226 4.92499 12.0227C5.17124 12.2254 5.66372 12.5007 6.12724 11.9937C6.41694 11.675 6.63421 11.3419 6.79355 11.0522C6.90943 10.8494 6.99633 10.6611 7.05427 10.5162C7.05427 10.5017 7.05427 10.5017 7.06876 10.4873C7.1267 10.3279 7.15567 10.2265 7.15567 10.1686C7.17015 10.0672 7.15567 9.80647 6.98185 9.57471C6.90943 9.47332 6.79355 9.38641 6.6487 9.2995C6.48936 10.4728 6.22863 10.3714 6.27209 10.1541Z" fill="white"/>
<path d="M3.95437 10.0094C3.86746 9.9659 3.78055 9.92244 3.67915 9.8645C3.6357 9.93693 3.57776 9.99487 3.50533 10.0383C3.54879 10.1107 3.59224 10.1977 3.62121 10.2846C3.65018 10.4004 3.66467 10.5453 3.65018 10.6757C3.6357 10.806 3.57776 10.9509 3.49085 11.0667C3.36048 11.2406 3.14321 11.3709 2.81006 11.3709C3.01285 11.5013 3.24461 11.6172 3.49085 11.7186C3.83849 11.8489 4.18612 11.9214 4.46134 11.8489C4.49031 11.8344 4.53376 11.8344 4.56273 11.82H4.57722C5.15661 11.5882 5.63461 10.8929 5.63461 10.8929C5.88086 10.5308 6.01122 11.2261 4.91037 12.0228C5.15661 12.2255 5.6491 12.5008 6.11261 11.9938C6.40231 11.6751 6.61959 11.342 6.77892 11.0523C6.8948 10.8495 6.98171 10.6612 7.03965 10.5163C7.03965 10.5018 7.03965 10.5018 7.05413 10.4874C7.11207 10.328 7.14104 10.2266 7.14104 10.1687C6.47474 11.7041 5.98225 10.2411 5.98225 10.2411C4.72206 12.0372 3.70812 11.1247 3.70812 11.1247C4.15715 10.6757 3.95437 10.0094 3.95437 10.0094Z" fill="#CCCCCC"/>
<path d="M0.492616 6.31543C0.405707 6.41682 0.347767 6.54719 0.333282 6.66307C0.318797 6.77895 0.362252 6.89483 0.463646 7.01071C0.492616 7.03967 0.536071 7.06864 0.579526 7.09761C0.956133 7.38731 1.63692 7.76392 2.28874 8.09707C2.30323 8.09707 2.30323 8.11156 2.31771 8.11156C3.08541 8.50265 3.7662 8.80683 3.7662 8.80683C3.82414 8.8358 3.85311 8.87926 3.8676 8.9372C3.89657 9.16895 3.88208 9.37174 3.83863 9.54556C4.31663 9.99459 4.95396 9.92217 4.95396 9.92217C5.09881 9.90768 5.15675 9.93665 5.14227 9.98011C5.69269 9.87871 5.93894 9.51659 5.93894 9.51659C4.99742 10.0091 4.22972 9.44417 4.22972 9.44417C4.22972 9.44417 5.34506 8.92271 3.7662 8.40126C2.17286 7.8798 0.492616 6.31543 0.492616 6.31543Z" fill="#CCCCCC"/>
<path d="M6.12713 12.428C6.54719 12.6743 8.25641 13.5723 9.73387 13.2102L9.9946 12.7757C8.67647 13.3406 6.95277 12.5004 6.40234 12.1963C6.53271 12.0514 6.64859 11.9066 6.76447 11.7617C6.90931 11.5734 7.02519 11.3851 7.1121 11.2113C7.15556 11.1389 7.18453 11.0664 7.22798 10.994C7.25695 10.9216 7.30041 10.8492 7.32938 10.7912C7.82186 11.0375 9.34278 11.6458 10.8782 10.8781L11.052 10.4001C9.50211 11.3996 7.8798 10.7043 7.44526 10.4726C7.48871 10.3422 7.5032 10.2408 7.51768 10.1829C7.53217 10.038 7.51768 9.69037 7.27144 9.35722C7.14107 9.1834 6.9238 9.00958 6.61962 8.90818C6.53271 8.47364 6.32992 7.99564 5.90986 7.63351C5.99677 7.3583 6.25749 6.63405 6.60513 6.32987C6.72101 6.22848 6.76447 6.12708 6.77895 6.02569C6.77895 5.90981 6.7355 5.79393 6.64859 5.69254C6.57616 5.60563 6.46028 5.5332 6.3444 5.47526C6.02574 5.31593 5.56222 5.22902 5.24355 5.33041C4.63519 5.51872 4.28755 6.8803 4.22961 7.14103C4.15718 7.19897 3.89646 7.30036 3.17221 6.85133C2.88251 6.67751 2.65076 6.53266 2.44797 6.38781C1.75269 5.95326 1.24572 5.62011 1.05742 5.60563C0.984992 5.60563 0.869113 5.6346 0.753234 5.70702C0.666324 5.76496 0.56493 5.83739 0.463536 5.92429C0.405596 5.98223 0.347657 6.04017 0.289717 6.1126C0.173838 6.25745 0.0869285 6.44575 0.0724436 6.63405C0.0579587 6.83684 0.115898 7.03963 0.289717 7.22794C0.333172 7.27139 0.376626 7.31484 0.434566 7.3583C0.767719 7.61903 1.33263 7.9377 1.88306 8.22739C1.68027 8.32879 1.44851 8.50261 1.33263 8.77782C1.18778 8.98061 1.24572 9.19788 1.39057 9.41516C1.26021 9.58897 1.01396 9.93661 1.01396 10.2842C1.02845 10.545 1.21675 10.8202 1.53542 11.0375C1.70924 11.1533 1.92651 11.2403 2.17275 11.2982C2.419 11.5444 2.88251 11.8341 3.375 12.0224C3.78058 12.1818 4.20064 12.2542 4.54828 12.1673L4.59173 12.1528C4.809 12.3701 5.46082 12.8915 6.12713 12.428ZM6.79344 11.0375C6.6341 11.3272 6.41683 11.6458 6.12713 11.979C5.66361 12.486 5.17113 12.2107 4.92488 12.008C6.02574 11.1968 5.90986 10.516 5.64913 10.8781C5.64913 10.8781 5.17113 11.5734 4.57725 11.8052H4.56276C4.53379 11.8196 4.49034 11.8341 4.46137 11.8341C4.20064 11.9066 3.83852 11.8341 3.49088 11.7038C3.24464 11.6169 3.01288 11.4865 2.81009 11.3561C3.14324 11.3416 3.36052 11.2258 3.49088 11.0519C3.57779 10.9361 3.62124 10.8057 3.65021 10.6609C3.6647 10.5305 3.65021 10.3856 3.62124 10.2698C3.59227 10.1829 3.5633 10.0959 3.50536 10.0235C3.57779 9.98007 3.63573 9.92213 3.67918 9.8497C3.78058 9.90764 3.86749 9.9511 3.9544 9.99455C4.6207 10.2842 5.11319 10.0959 5.14216 9.98007C5.15664 9.93661 5.0987 9.90764 4.95385 9.92213C4.95385 9.92213 4.31652 9.99455 3.83852 9.54552C3.88197 9.38619 3.89646 9.1834 3.86749 8.93715C3.86749 8.87921 3.82403 8.82127 3.76609 8.80679C3.76609 8.80679 3.07082 8.48812 2.3176 8.11151C2.30312 8.11151 2.30312 8.09703 2.28863 8.09703C1.63681 7.77836 0.956022 7.38727 0.579415 7.09757C0.53596 7.0686 0.506991 7.03963 0.478021 6.99618C0.376626 6.8803 0.333172 6.76442 0.347657 6.64854C0.362142 6.53266 0.420081 6.41678 0.506991 6.3009C0.550445 6.24296 0.5939 6.19951 0.651839 6.15605C0.724264 6.08363 0.811173 6.02569 0.883598 5.98223C0.912568 5.95326 0.956022 5.93878 0.970507 5.93878C1.08639 5.95326 1.56439 6.25745 2.21621 6.66302C2.46245 6.82236 2.72318 6.98169 2.94045 7.12654C3.9544 7.76388 4.37446 7.41624 4.44688 7.32933C4.46137 7.30036 4.49034 7.28587 4.49034 7.24242C4.49034 7.24242 4.79452 5.77945 5.28701 5.6346C5.53325 5.56217 5.89537 5.6346 6.1561 5.76496C6.24301 5.80842 6.31543 5.86635 6.37337 5.90981C6.40234 5.93878 6.43131 5.98223 6.41683 5.99672C6.41683 6.0112 6.40234 6.04017 6.35889 6.06914C5.88089 6.47472 5.5767 7.50315 5.53325 7.61903C5.50428 7.69145 5.53325 7.76388 5.59119 7.80733C6.01125 8.14048 6.19955 8.604 6.28646 9.02406C6.28646 9.03855 6.28646 9.05303 6.30095 9.06752C6.40234 9.64691 6.30095 10.1394 6.30095 10.1394C6.25749 10.3712 6.51822 10.4726 6.66307 9.27031C6.80792 9.34273 6.9238 9.44413 6.99622 9.54552C7.17004 9.77728 7.18453 10.038 7.17004 10.1394C7.17004 10.1973 7.14107 10.3132 7.08313 10.4581C7.08313 10.4726 7.06865 10.4726 7.06865 10.487C6.99622 10.6464 6.90931 10.8347 6.79344 11.0375ZM3.53433 9.06752C3.54882 9.22685 3.53433 9.35722 3.50536 9.45861C3.46191 9.61794 3.38948 9.73382 3.27361 9.79176C3.24464 9.80625 3.20118 9.82073 3.17221 9.83522H3.15773C3.01288 9.87867 2.83906 9.86419 2.65076 9.82073C2.40451 9.76279 2.14378 9.63243 1.941 9.47309C1.86857 9.41516 1.81063 9.35721 1.75269 9.29928C1.75269 9.28479 1.73821 9.28479 1.72372 9.27031L1.70924 9.25582C1.57887 9.12546 1.52093 8.99509 1.56439 8.8937C1.62233 8.76333 1.72372 8.66194 1.82512 8.58952C1.96996 8.48812 2.11481 8.43018 2.18724 8.40121C2.7956 8.73436 3.31706 8.98061 3.53433 9.06752ZM3.30258 10.3712C3.31706 10.4146 3.31706 10.4581 3.33155 10.5015C3.33155 10.545 3.33155 10.5884 3.33155 10.6319C3.31706 10.7188 3.28809 10.7912 3.24464 10.8636C3.17221 10.965 3.02736 11.0375 2.82457 11.0375H2.78112C2.62179 11.0375 2.47694 11.023 2.33209 10.994H2.3176C2.08584 10.9506 1.88306 10.8636 1.73821 10.7623C1.50645 10.6174 1.3616 10.4291 1.3616 10.2842C1.3616 10.1684 1.39057 10.0525 1.44851 9.9511C1.50645 9.83522 1.57887 9.73382 1.63681 9.6614C1.68027 9.69037 1.70924 9.71934 1.75269 9.74831C1.98445 9.92213 2.28863 10.0815 2.59282 10.1539C2.81009 10.2118 3.01288 10.2263 3.21567 10.1829C3.23015 10.2118 3.27361 10.2842 3.30258 10.3712Z" fill="#870000"/>
<path d="M17.0921 19.1348C21.972 19.1348 25.9279 15.8728 25.9279 11.8489C25.9279 7.825 21.972 4.56299 17.0921 4.56299C12.2123 4.56299 8.25635 7.825 8.25635 11.8489C8.25635 15.8728 12.2123 19.1348 17.0921 19.1348Z" fill="#FC4444"/>
<path d="M17.0921 4.56299C17.3094 4.56299 17.5267 4.56299 17.744 4.57747C17.8019 4.57747 17.9468 4.59196 18.164 4.60644C22.5385 5.04099 25.9279 8.11179 25.9279 11.8489C25.9279 15.8757 21.9736 19.1348 17.0921 19.1348C14.9339 19.1348 12.9495 18.4975 11.4141 17.4256C11.5589 17.3966 11.7182 17.4256 11.8921 17.4835C13.384 18.0919 15.0787 17.7442 14.9773 17.2952C14.876 16.8462 15.5567 16.6289 15.5567 16.6289L16.1506 16.3392C15.1222 16.4841 14.6152 15.7453 14.6152 15.7453C16.4403 16.6434 16.9473 15.0356 16.9473 15.0356L15.2091 15.2528L15.296 14.3403C15.296 14.3403 15.9623 13.8333 15.4988 12.6311C15.0353 11.4288 15.9913 10.9363 16.4838 9.74858C16.9763 8.56082 15.7016 7.21372 15.7016 7.21372C15.1946 5.8956 15.1656 5.1279 15.3829 4.69335C15.9333 4.60644 16.5127 4.56299 17.0921 4.56299ZM18.8448 8.47391C18.9462 7.95245 17.8019 8.06833 17.6281 8.51737C17.6281 8.50288 18.2799 8.08282 18.8448 8.47391ZM22.8426 12.9787C21.4086 13.6885 20.0471 13.1815 20.0471 13.1815C20.0471 13.1815 21.4376 15.137 22.8426 12.9787ZM19.149 12.2979C18.4392 12.6456 17.7729 12.3993 17.7729 12.3993C17.7729 12.3993 18.4682 13.3698 19.149 12.2979Z" fill="#E60707"/>
<path d="M17.0918 4.34546C19.5832 4.34546 21.8428 5.18558 23.4652 6.53268C25.1164 7.89426 26.1304 9.76281 26.1304 11.8486C26.1304 13.92 25.1164 15.803 23.4652 17.1646C21.8284 18.5117 19.5687 19.3518 17.0918 19.3518C14.6149 19.3518 12.3408 18.5117 10.7184 17.1646C9.06717 15.803 8.05322 13.9345 8.05322 11.8486C8.05322 9.7773 9.06717 7.89426 10.7184 6.53268C12.3408 5.18558 14.6004 4.34546 17.0918 4.34546ZM23.2044 6.85135C21.6401 5.56219 19.4818 4.76552 17.0918 4.76552C14.7018 4.76552 12.5435 5.56219 10.9792 6.85135C9.42929 8.12602 8.47328 9.89317 8.47328 11.8486C8.47328 13.7896 9.42929 15.5568 10.9792 16.8459C12.5435 18.1351 14.7018 18.9317 17.0918 18.9317C19.4818 18.9317 21.6401 18.1351 23.2044 16.8459C24.7543 15.5713 25.7103 13.8041 25.7103 11.8486C25.7248 9.89317 24.7543 8.12602 23.2044 6.85135Z" fill="#870000"/>
<path d="M16.6142 3.36041C16.6577 2.75204 16.5128 1.89743 15.8176 0.941428C15.7596 0.883488 15.7596 0.796579 15.8031 0.70967C15.8176 0.695185 15.8321 0.6807 15.8465 0.666215C15.9479 0.564821 17.0778 -0.565001 18.1207 0.376517C18.1496 0.405487 18.1786 0.434457 18.1786 0.477911C18.2221 0.608275 18.6276 2.01331 18.3524 3.44731C18.8304 3.40386 19.8589 3.23004 20.5252 2.56374C20.5976 2.49131 20.728 2.49131 20.8004 2.56374C20.8293 2.59271 20.8438 2.62168 20.8583 2.66513C20.8583 2.66513 21.1046 3.6501 19.9747 4.31641C20.163 4.40332 20.3224 4.50471 20.4817 4.60611C20.8438 4.83786 21.1625 5.02617 21.4812 4.75096C21.5681 4.67853 21.684 4.69302 21.7564 4.77993C21.8143 4.83786 21.8143 4.92477 21.7853 4.9972C21.7274 5.12756 20.9018 6.77884 19.4678 6.12702C19.5112 6.46017 19.714 6.70642 19.7575 6.76436C19.7864 6.79333 19.8009 6.8223 19.8154 6.86575C19.8299 6.96714 19.7575 7.08302 19.6561 7.09751C17.9758 7.40169 17.2516 6.74987 16.9329 6.14151C15.5858 8.09697 13.6883 7.25684 13.6738 7.25684C13.6304 7.24236 13.6014 7.21339 13.5724 7.16993C13.5145 7.06854 13.5434 6.95266 13.6448 6.89472C14.0359 6.66296 14.1663 6.46017 14.2242 6.2429C12.4716 6.64848 11.7473 4.92477 11.7473 4.91029C11.7183 4.85235 11.7183 4.79441 11.7473 4.75096C11.7908 4.64956 11.9211 4.60611 12.008 4.66405C12.4716 4.8958 12.8047 4.7075 13.1958 4.50471C13.442 4.37435 13.7173 4.2295 14.0214 4.15707C13.9056 3.88186 13.7897 3.40386 13.9635 2.79549C13.9925 2.6941 14.1084 2.62168 14.2097 2.65065C14.2532 2.66513 14.2967 2.6941 14.3111 2.72307C14.6588 3.18659 15.0933 3.1721 15.4989 3.14313C15.919 3.11416 16.2956 3.09968 16.6142 3.36041Z" fill="#870000"/>
<path d="M16.3678 4.34519C16.3678 4.34519 16.4692 4.17137 16.5416 3.8527C16.2809 3.49058 15.9188 3.50506 15.5421 3.51955C15.1366 3.53403 14.702 3.563 14.2964 3.22985C14.2675 3.64991 14.3834 3.93961 14.4558 4.06998C15.3249 4.27276 15.4552 4.67834 15.1366 4.57695C14.3399 4.31622 13.8329 4.59143 13.3984 4.82319C13.0507 5.01149 12.7466 5.17083 12.3555 5.14186C12.6597 5.54743 13.2825 6.08338 14.282 5.79368C14.6875 4.77974 15.18 4.92458 14.9048 5.24325C14.702 5.47501 14.6875 5.72125 14.6731 5.93853C14.6441 6.28616 14.6296 6.61932 14.2095 6.96695C14.7889 7.08283 15.9188 7.06835 16.7734 5.64883C16.7299 4.85216 17.1065 4.96804 17.1065 5.1998C17.1065 5.1998 17.1065 5.3881 17.1789 5.61986V5.63434C17.3383 6.14132 17.8018 6.89453 19.2792 6.7352C19.1634 6.53241 19.0475 6.22822 19.0765 5.88059C18.6129 5.37362 18.8592 5.18531 19.0185 5.33016C20.018 6.22822 20.7422 5.73574 21.1333 5.28671C20.8581 5.27222 20.5829 5.11289 20.2932 4.92458C20.0325 4.76525 19.7428 4.59143 19.4241 4.54798C19.3517 4.54798 19.2792 4.49004 19.2503 4.41761C19.2068 4.31622 19.2648 4.20034 19.3662 4.15689C20.1483 3.86719 20.3946 3.43264 20.467 3.12846C19.6559 3.69337 18.6419 3.80925 18.2653 3.83822C18.0046 4.53349 17.3383 4.83767 17.4831 4.6204C17.6859 4.30173 17.8308 3.96858 17.9177 3.62094C17.9177 3.60646 17.9177 3.59197 17.9322 3.57749C18.2074 2.47664 18.0046 1.33233 17.8742 0.839844C17.3238 1.173 16.8168 1.20197 16.4547 1.15851C17.8597 3.76579 15.9767 5.05495 16.3678 4.34519Z" fill="#B3D73D"/>
<path d="M14.2095 6.996C14.7889 7.11188 15.9187 7.09739 16.7733 5.67787C16.7588 5.47508 16.7733 5.33023 16.8168 5.24333C16.614 5.56199 15.9477 6.53248 14.2095 6.996ZM17.1065 5.21436C17.1065 5.21436 17.1065 5.40266 17.1789 5.63442V5.6489C17.3382 6.15587 17.8017 6.90909 19.2792 6.74975C19.1633 6.54697 19.0474 6.24278 19.0764 5.89515C19.0764 5.89515 18.1204 6.86563 17.1065 5.21436ZM19.0185 5.34472C20.0179 6.24278 20.7422 5.7503 21.1333 5.30126C21.1333 5.28678 20.2642 5.85169 19.0185 5.34472Z" fill="#9AB31E"/>
<path d="M20.4531 3.12846C19.642 3.69337 18.628 3.80925 18.2514 3.83822C18.1935 4.01204 18.1066 4.15688 18.0052 4.27276C20.0041 3.92513 20.4531 3.12846 20.4531 3.12846ZM17.4692 4.6204C17.672 4.30173 17.8169 3.96858 17.9038 3.62094C17.9038 3.60646 17.9038 3.59197 17.9182 3.57749C18.1935 2.47664 17.9907 1.33233 17.8603 0.839844C17.5851 1.01366 17.3099 1.10057 17.0781 1.14403C17.9472 2.43318 17.4692 4.6204 17.4692 4.6204Z" fill="#9AB31E"/>
<path d="M17.6277 0.521383C17.1352 0.260655 16.6427 0.535868 16.353 0.753141C16.6427 0.811081 17.1062 0.840051 17.6277 0.521383Z" fill="#9AB31E"/>
<path d="M13.9632 13.9199C14.4412 15.1221 15.9331 17.8453 18.4101 13.4564C19.0909 12.2541 16.7443 14.311 14.2529 13.5288C13.8039 13.3695 13.717 13.2826 13.9632 13.9199Z" fill="#870000"/>
<path d="M15.0498 15.1074C15.5423 15.6433 16.2665 15.8606 17.2081 14.7453C16.5997 14.3397 16.1941 14.6004 15.832 15.1798C15.832 15.1798 15.7885 14.7163 16.1651 14.499C15.6871 14.557 15.2671 14.7887 15.0498 15.1074Z" fill="#FF929F"/>
<path d="M14.4849 15.8606C15.4988 16.7587 16.8894 16.1648 16.8894 16.1648C16.8894 16.1648 15.4988 17.8161 14.4849 15.8606Z" fill="#870000"/>
<path d="M14.1804 12.1529C14.8124 12.1529 15.3247 11.3358 15.3247 10.3278C15.3247 9.31981 14.8124 8.50269 14.1804 8.50269C13.5485 8.50269 13.0361 9.31981 13.0361 10.3278C13.0361 11.3358 13.5485 12.1529 14.1804 12.1529Z" fill="#870000"/>
<path d="M13.0361 10.1395C13.0506 9.90777 13.0941 9.6905 13.152 9.5022C13.181 9.5022 13.21 9.5022 13.2244 9.5022C13.7024 9.5022 14.0935 9.64705 14.0935 9.82087C14.0935 9.99468 13.7024 10.1395 13.2244 10.1395C13.1665 10.1395 13.1086 10.1395 13.0361 10.1395Z" fill="white"/>
<path d="M18.3523 12.1529C18.9843 12.1529 19.4966 11.3358 19.4966 10.3278C19.4966 9.31981 18.9843 8.50269 18.3523 8.50269C17.7203 8.50269 17.208 9.31981 17.208 10.3278C17.208 11.3358 17.7203 12.1529 18.3523 12.1529Z" fill="#870000"/>
<path d="M17.208 10.1395C17.2225 9.90777 17.2659 9.6905 17.3239 9.5022C17.3529 9.5022 17.3818 9.5022 17.3963 9.5022C17.8743 9.5022 18.2654 9.64705 18.2654 9.82087C18.2654 9.99468 17.8743 10.1395 17.3963 10.1395C17.3384 10.1395 17.2804 10.1395 17.208 10.1395Z" fill="white"/>
<path d="M21.0899 5.89525C23.5378 7.11198 25.1746 9.22678 25.1746 11.6458C25.1746 15.3249 21.3796 18.3233 16.6285 18.4826C16.5706 18.4826 16.5126 18.4826 16.4547 18.4826C16.3823 18.4826 16.3099 18.4826 16.2374 18.4826C16.2229 18.4826 16.2085 18.4826 16.194 18.4826C15.8029 18.4826 15.4118 18.4537 15.0207 18.4247C14.9048 18.4102 14.8034 18.3957 14.6875 18.3812C14.3689 18.3378 14.0647 18.2798 13.7605 18.2219C13.3549 18.135 12.9494 18.0191 12.5728 17.8887C12.9349 18.077 13.326 18.2364 13.7315 18.3812C14.0212 18.4826 14.3399 18.5695 14.6441 18.642C14.7455 18.6709 14.8614 18.6854 14.9628 18.7144C15.3683 18.8013 15.7884 18.8592 16.2229 18.8882C16.2809 18.8882 16.3388 18.9027 16.3823 18.9027C16.4402 18.9027 16.4982 18.9027 16.5416 18.9172C16.7154 18.9317 16.8893 18.9317 17.0631 18.9317C17.2803 18.9317 17.4976 18.9317 17.7149 18.9172C18.5116 18.8737 19.2648 18.7289 19.989 18.5116C21.2058 18.1495 22.2776 17.5846 23.1757 16.8458C24.7256 15.5712 25.6816 13.804 25.6816 11.8485C25.6816 9.90757 24.7256 8.14041 23.1757 6.85125C22.6253 6.38774 21.9879 5.99665 21.2927 5.67798C21.2637 5.7504 21.1768 5.82283 21.0899 5.89525Z" fill="#F50002"/>
<path d="M11.9501 6.77881C11.6459 7.02505 11.3562 7.30027 11.0954 7.58996H12.3556C12.6164 7.30027 12.8916 7.02505 13.1958 6.77881H11.9501ZM12.037 7.96657H10.7768C10.0236 8.90809 9.54556 10.0089 9.38623 11.1822C9.37174 11.2836 9.35726 11.385 9.35726 11.5009C9.35726 11.5878 9.34277 11.6602 9.34277 11.7471C9.34277 11.8196 9.34277 11.8775 9.34277 11.9499C9.34277 12.1817 9.35726 12.4134 9.38623 12.6307C9.40071 12.79 9.42968 12.9494 9.45865 13.1087C9.47314 13.2101 9.50211 13.3115 9.53108 13.4129C9.76284 14.3399 10.1974 15.1945 10.8057 15.9477C10.4436 15.0352 10.2408 14.0502 10.2408 13.0073C10.2408 12.819 10.2408 12.6307 10.2553 12.4569C10.2698 12.2106 10.2988 11.9644 10.3422 11.7326C10.3567 11.6312 10.3712 11.5443 10.4002 11.4429C10.4291 11.3271 10.4436 11.2112 10.4726 11.0953C10.7623 9.951 11.2982 8.87912 12.037 7.96657Z" fill="#FCE2E2"/>
<path d="M15.0643 8.40118C15.2526 7.27135 13.2537 7.5176 12.9351 8.48808C12.9351 8.4736 14.0938 7.54657 15.0643 8.40118Z" fill="#870000"/>
<path d="M19.3519 8.2708C19.5402 7.14098 17.5413 7.38723 17.2227 8.35771C17.2227 8.34323 18.367 7.4162 19.3519 8.2708Z" fill="#870000"/>
</svg>
