<svg width="24" height="33" viewBox="0 0 24 33" fill="none" xmlns="http://www.w3.org/2000/svg">
<path d="M11.4271 8.24897C11.6348 8.06629 11.8165 7.85751 11.9462 7.59653C12.1928 7.08763 12.2318 6.47434 12.0371 5.93933C11.9333 5.65226 11.7645 5.41738 11.5569 5.19555C11.466 5.10421 11.3622 4.99982 11.2843 4.89543C11.2065 4.79104 11.1416 4.68665 11.1156 4.56921C11.0897 4.45177 11.1026 4.33433 11.1286 4.21689C11.1675 4.0864 11.2194 3.96896 11.2973 3.83848C11.4401 3.56445 11.6088 3.30347 11.6996 3.0164C11.8554 2.46835 11.7386 1.86811 11.466 1.3853C11.1805 0.876396 10.7133 0.49798 10.1682 0.289199C8.9482 -0.154461 7.52056 0.302248 6.59908 1.15042C5.76846 1.8942 5.1974 3.10774 5.57378 4.22994C5.67761 4.54311 5.85931 4.81714 6.00207 5.11726C6.11888 5.37824 6.18377 5.63921 6.14484 5.91324C6.05399 6.53958 5.70357 7.10068 5.75548 7.75312C5.83335 8.79702 6.79376 9.38422 7.39077 10.128C7.39077 10.128 7.40375 10.1411 7.40375 10.1541L7.41673 10.1672C7.42971 10.1932 7.45567 10.2193 7.46865 10.2454C7.50758 10.2976 7.53354 10.3498 7.5595 10.389C7.58545 10.4412 7.61141 10.4803 7.63737 10.5325C7.6763 10.6108 7.66332 10.5847 7.68928 10.663C7.79311 10.9762 7.79311 11.3024 7.81907 11.6286C7.84502 11.9679 7.90992 12.2811 8.07864 12.5812C8.23438 12.8422 8.44204 13.064 8.67565 13.2336C8.89628 13.3902 9.16883 13.4946 9.44138 13.5337C9.48032 13.5337 9.51925 13.5337 9.54521 13.5337C9.88265 13.5859 10.246 13.5598 10.5705 13.4555C11.1545 13.2597 11.5828 12.8161 11.7905 12.2419C11.9982 11.6808 11.9462 11.0414 11.6607 10.5195C11.505 10.2324 11.2843 9.98447 11.1156 9.69739C10.9728 9.46251 10.856 9.17544 10.908 8.91446C10.9728 8.60129 11.2194 8.43166 11.4271 8.24897Z" fill="#B7C62C"/>
<path d="M9.63604 1.89429C9.62306 1.89429 9.59711 1.95953 9.57115 2.07697C9.54519 2.19441 9.50626 2.36404 9.44136 2.57283C9.41541 2.67722 9.37647 2.78161 9.32456 2.886C9.27264 2.99039 9.22073 3.09478 9.14286 3.19917C9.06499 3.30356 8.98712 3.3949 8.88329 3.47319C8.77946 3.55149 8.67563 3.61673 8.55882 3.65588C8.49393 3.66893 8.44202 3.69502 8.37712 3.69502C8.35117 3.69502 8.31223 3.69502 8.28628 3.69502C8.26032 3.69502 8.22138 3.69502 8.19543 3.69502C8.07862 3.68197 7.96181 3.64283 7.85798 3.59063C7.80607 3.56454 7.75416 3.52539 7.71522 3.49929C7.66331 3.46014 7.62437 3.421 7.58543 3.38185C7.5465 3.34271 7.50756 3.30356 7.46863 3.26441C7.42969 3.22527 7.40374 3.18612 7.37778 3.14697C7.26097 2.97734 7.1831 2.8338 7.11821 2.72941C7.05332 2.62502 7.02736 2.55978 7.0014 2.57283C6.97544 2.58587 6.97544 2.65112 7.0014 2.78161C7.02736 2.89905 7.09225 3.08173 7.20906 3.26441C7.23501 3.31661 7.27395 3.35575 7.29991 3.40795C7.33884 3.46014 7.37778 3.49929 7.41671 3.55149C7.45565 3.60368 7.50756 3.64283 7.55948 3.69502C7.61139 3.73417 7.67628 3.78637 7.7282 3.81246C7.85798 3.89076 8.00075 3.94295 8.15649 3.956C8.19543 3.956 8.23436 3.956 8.2733 3.956C8.31223 3.956 8.35117 3.956 8.3901 3.94295C8.46797 3.9299 8.54585 3.91685 8.62372 3.89076C8.76648 3.83856 8.89627 3.74722 9.01307 3.65588C9.12988 3.55149 9.22073 3.4471 9.2986 3.32966C9.45434 3.09478 9.51923 2.84685 9.57115 2.62502C9.61008 2.41624 9.63604 2.23356 9.63604 2.11612C9.662 1.95953 9.64902 1.89429 9.63604 1.89429Z" fill="#98A000"/>
<path d="M10.1424 4.26904C10.1294 4.26904 10.1035 4.34734 10.0775 4.46478C10.0645 4.53002 10.0386 4.60831 10.0126 4.69965C9.98665 4.791 9.96069 4.88234 9.90878 4.98673C9.83091 5.19551 9.7141 5.43039 9.5324 5.62612C9.36368 5.8349 9.11709 5.99149 8.84454 6.06978C8.71476 6.10893 8.57199 6.12197 8.44221 6.12197C8.42923 6.12197 8.40327 6.12197 8.39029 6.12197C8.37731 6.12197 8.35136 6.12197 8.33838 6.10893H8.31242C8.29944 6.10893 8.29944 6.10893 8.28647 6.10893C8.27349 6.10893 8.26051 6.09588 8.23455 6.09588C8.22157 6.09588 8.20859 6.08283 8.18264 6.08283C8.16966 6.08283 8.15668 6.06978 8.13072 6.06978C8.11774 6.06978 8.10477 6.05673 8.09179 6.05673C8.07881 6.04368 8.06583 6.04368 8.05285 6.03063C7.93605 5.97844 7.83222 5.90014 7.75435 5.8088C7.6635 5.73051 7.58563 5.63917 7.52073 5.54783C7.39095 5.37819 7.28712 5.20856 7.20925 5.10417C7.13138 4.99978 7.07946 4.93453 7.05351 4.94758C7.02755 4.96063 7.04053 5.03892 7.09244 5.16941C7.14436 5.2999 7.22223 5.46953 7.35201 5.66527C7.4169 5.76966 7.49478 5.861 7.5986 5.96539C7.68945 6.06978 7.81924 6.16112 7.94902 6.22636C7.962 6.23941 7.98796 6.23941 8.00094 6.25246C8.01392 6.26551 8.03987 6.26551 8.05285 6.27856C8.06583 6.29161 8.09179 6.29161 8.10477 6.30466C8.11774 6.30466 8.1437 6.31771 8.15668 6.31771C8.18264 6.31771 8.19562 6.33076 8.22157 6.33076C8.23455 6.33076 8.24753 6.33075 8.24753 6.3438H8.27349C8.29944 6.3438 8.31242 6.3438 8.33838 6.35685C8.36434 6.35685 8.37732 6.35685 8.40327 6.35685C8.57199 6.3699 8.74071 6.3438 8.89646 6.29161C9.20794 6.18722 9.48049 5.99149 9.66219 5.74356C9.75304 5.62612 9.83091 5.49563 9.88282 5.37819C9.93474 5.26075 9.98665 5.13026 10.0126 5.02587C10.0515 4.90843 10.0645 4.80404 10.0775 4.7127C10.0905 4.62136 10.1035 4.54307 10.1035 4.46478C10.1554 4.34734 10.1554 4.26904 10.1424 4.26904Z" fill="#98A000"/>
<path d="M10.2201 6.33057C10.2072 6.33057 10.1942 6.39581 10.1682 6.51325C10.1423 6.63069 10.1163 6.78727 10.0514 6.98301C9.9995 7.17874 9.92163 7.38752 9.79184 7.5963C9.66206 7.79203 9.49334 7.98777 9.2727 8.09216C9.25972 8.1052 9.24674 8.1052 9.23376 8.11825L9.20781 8.1313L9.16887 8.14435C9.15589 8.14435 9.14292 8.1574 9.12994 8.1574L9.07802 8.17045C9.06504 8.17045 9.05207 8.1835 9.03909 8.1835C9.01313 8.19655 8.98717 8.19655 8.94824 8.19655C8.83143 8.2096 8.71462 8.19655 8.6108 8.17045C8.39016 8.11825 8.20846 8.00081 8.0657 7.87033C7.92293 7.75289 7.80613 7.6224 7.74124 7.54411C7.66336 7.46581 7.61145 7.41362 7.59847 7.42667C7.57251 7.43972 7.58549 7.50496 7.65039 7.6224C7.7023 7.72679 7.80613 7.88337 7.94889 8.02691C7.98783 8.06606 8.02676 8.1052 8.07868 8.1313C8.11761 8.17045 8.16953 8.19655 8.22144 8.23569C8.32527 8.30094 8.44208 8.35313 8.58484 8.39228C8.71462 8.43143 8.87037 8.44447 9.01313 8.41838C9.15589 8.40533 9.29866 8.35313 9.42844 8.27484C9.55823 8.19655 9.67504 8.1052 9.76589 8.00081C9.85673 7.89642 9.94758 7.77898 10.0125 7.66155C10.1423 7.42667 10.2072 7.19179 10.2331 6.98301C10.272 6.77423 10.272 6.60459 10.285 6.48715C10.2461 6.39581 10.2331 6.33057 10.2201 6.33057Z" fill="#98A000"/>
<path d="M10.5317 8.79688C10.5058 8.79688 10.4668 9.0709 10.4149 9.47541C10.3889 9.68419 10.363 9.91907 10.3111 10.154C10.2981 10.2192 10.2721 10.2714 10.2592 10.3366C10.2332 10.3888 10.2072 10.4541 10.1813 10.5063C10.1553 10.5585 10.1164 10.6107 10.0775 10.6629C10.0385 10.715 9.99959 10.7542 9.94767 10.7933C9.85683 10.8716 9.753 10.9369 9.63619 10.963C9.58428 10.976 9.53236 10.9891 9.46747 10.9891C9.41556 10.9891 9.36364 10.976 9.31173 10.963C9.2079 10.9369 9.11705 10.8716 9.03918 10.8064C8.96131 10.7411 8.89641 10.6629 8.83152 10.5846C8.71472 10.428 8.62387 10.2844 8.55897 10.18C8.49408 10.0757 8.45514 10.0235 8.42919 10.0365C8.40323 10.0496 8.41621 10.1148 8.44217 10.2322C8.4811 10.3497 8.546 10.5193 8.6628 10.689C8.71472 10.7803 8.79259 10.8716 8.88344 10.963C8.97429 11.0543 9.09109 11.1326 9.23386 11.1718C9.29875 11.1979 9.37662 11.2109 9.45449 11.2109C9.53236 11.2109 9.61023 11.1979 9.6881 11.1848C9.84385 11.1457 9.97363 11.0674 10.0904 10.963C10.1424 10.9108 10.1943 10.8586 10.2462 10.7933C10.2851 10.7281 10.3241 10.6759 10.363 10.5976C10.4019 10.5324 10.4279 10.4671 10.4409 10.4019C10.4668 10.3366 10.4798 10.2714 10.4928 10.2061C10.5447 9.94517 10.5447 9.69724 10.5577 9.48846C10.5577 9.0709 10.5577 8.79688 10.5317 8.79688Z" fill="#98A000"/>
<path d="M9.89571 13.6643C9.77891 13.6643 9.6621 13.6513 9.54529 13.6382C9.50636 13.6382 9.46742 13.6382 9.41551 13.6382C9.12998 13.5991 8.84445 13.4817 8.59786 13.312C8.33829 13.1293 8.11766 12.8945 7.96191 12.6335C7.80617 12.3595 7.71532 12.0463 7.68937 11.6287C7.68937 11.5504 7.67639 11.4852 7.67639 11.4069C7.66341 11.159 7.65043 10.9241 7.57256 10.6892L7.55958 10.6631C7.5466 10.624 7.5466 10.624 7.53362 10.5848L7.52064 10.5718C7.49469 10.5326 7.46873 10.4804 7.44277 10.4413C7.41682 10.3891 7.39086 10.3499 7.35192 10.2977C7.33894 10.2716 7.32597 10.2455 7.30001 10.2194L7.27405 10.1803C7.10533 9.97152 6.91065 9.77579 6.71598 9.58006C6.19683 9.0581 5.67769 8.5231 5.6128 7.74017C5.58684 7.33566 5.70365 6.95724 5.82046 6.59188C5.89833 6.34395 5.9762 6.12212 6.00216 5.87419C6.02811 5.63931 5.98918 5.39139 5.87237 5.14346C5.82046 5.05212 5.78152 4.94773 5.72961 4.85639C5.62578 4.66065 5.52195 4.46492 5.44408 4.24309C5.26238 3.69504 5.28834 3.0948 5.50897 2.49455C5.70365 1.95955 6.06705 1.45065 6.50832 1.04613C7.39086 0.263205 8.85743 -0.310943 10.1942 0.184912C10.7653 0.393693 11.2455 0.798206 11.557 1.33321C11.8684 1.88126 11.9593 2.5076 11.8036 3.05565C11.7257 3.30358 11.6089 3.52541 11.4791 3.74724C11.4531 3.79943 11.4142 3.85163 11.3882 3.90382C11.3234 4.02126 11.2714 4.12565 11.2325 4.25614C11.1936 4.37358 11.1936 4.46492 11.2195 4.55626C11.2455 4.64761 11.2974 4.73895 11.3623 4.84334C11.4142 4.92163 11.4921 4.98687 11.557 5.06517C11.5829 5.09126 11.5959 5.10431 11.6219 5.13041C11.8684 5.40444 12.0242 5.63931 12.128 5.91334C12.3357 6.46139 12.2967 7.11383 12.0372 7.66188C11.9204 7.90981 11.7387 8.14469 11.4921 8.35347C11.4661 8.37956 11.4402 8.39261 11.4142 8.41871C11.2325 8.56225 11.0638 8.70579 11.0248 8.91457C10.9729 9.16249 11.1287 9.46262 11.2195 9.6192C11.2974 9.74969 11.3753 9.86713 11.4661 9.98457C11.5699 10.1281 11.6738 10.2847 11.7646 10.4413C12.0761 11.0024 12.128 11.6679 11.9074 12.2681C11.6738 12.8814 11.2195 13.3381 10.6095 13.5599C10.3889 13.6252 10.1423 13.6643 9.89571 13.6643ZM9.54529 13.4034H9.57125C9.89571 13.4556 10.2332 13.4295 10.5446 13.3251C11.0897 13.1424 11.4921 12.7248 11.6997 12.1768C11.8944 11.6418 11.8555 11.0546 11.5699 10.5457C11.4921 10.3891 11.3882 10.2586 11.2844 10.102C11.1936 9.98457 11.1027 9.85408 11.0248 9.72359C10.8951 9.50176 10.7523 9.17554 10.8042 8.86237C10.8561 8.5753 11.0768 8.39261 11.2714 8.22298C11.2974 8.19688 11.3234 8.18383 11.3493 8.15774C11.5699 7.97505 11.7257 7.76627 11.8425 7.54444C12.0761 7.04859 12.115 6.46139 11.9204 5.97858C11.8295 5.74371 11.6868 5.52188 11.4661 5.27395C11.4402 5.24785 11.4272 5.2348 11.4012 5.2087C11.3234 5.13041 11.2455 5.05212 11.1936 4.96078C11.1027 4.83029 11.0378 4.71285 10.9989 4.59541C10.96 4.46492 10.9729 4.33443 11.0119 4.17785C11.0508 4.02126 11.1157 3.90382 11.1936 3.77333C11.2195 3.72114 11.2585 3.66894 11.2844 3.61675C11.4012 3.40797 11.518 3.19919 11.5829 2.97736C11.7257 2.49455 11.6348 1.93345 11.3623 1.4376C11.0897 0.954792 10.6485 0.589425 10.1293 0.393693C9.58423 0.197961 8.94828 0.171863 8.31233 0.341498C7.71532 0.498083 7.14427 0.811255 6.69002 1.21577C6.27471 1.59418 5.93726 2.07699 5.75557 2.57284C5.54791 3.12089 5.52195 3.68199 5.69067 4.1648C5.75557 4.36053 5.85939 4.54321 5.96322 4.73895C6.01514 4.83029 6.06705 4.93468 6.11896 5.03907C6.26173 5.32614 6.31364 5.62627 6.27471 5.90029C6.23577 6.16127 6.1579 6.40919 6.08003 6.65712C5.96322 7.00944 5.85939 7.34871 5.88535 7.71408C5.93726 8.41871 6.41747 8.90152 6.92363 9.41042C7.11831 9.60615 7.32597 9.81493 7.49469 10.0237C7.49469 10.0237 7.49469 10.0368 7.50767 10.0368L7.52064 10.0629C7.5466 10.089 7.55958 10.1151 7.57256 10.1412C7.61149 10.1933 7.63745 10.2455 7.67639 10.2977C7.70234 10.3499 7.7283 10.4021 7.75426 10.4543L7.76724 10.4804C7.79319 10.5326 7.79319 10.5326 7.80617 10.5848L7.81915 10.6109C7.91 10.8719 7.92298 11.1329 7.93596 11.3808C7.93596 11.446 7.94894 11.5243 7.94894 11.5896C7.97489 11.968 8.05276 12.2551 8.19553 12.4899C8.32531 12.7248 8.53297 12.9336 8.76658 13.1032C8.98722 13.2468 9.23381 13.3512 9.4804 13.3903C9.50636 13.3903 9.53232 13.3903 9.54529 13.3903V13.4034Z" fill="#7A7A00"/>
<path d="M8.70192 1.81592C8.68894 1.81592 8.66299 1.88116 8.62405 2.01165C8.61107 2.07689 8.58511 2.15519 8.57214 2.24653C8.55916 2.29872 8.55916 2.35092 8.54618 2.40311C8.5332 2.45531 8.5332 2.52055 8.52022 2.57275C8.48129 2.82068 8.45533 3.1208 8.44235 3.46007C8.42937 3.81239 8.42937 4.20385 8.44235 4.62141C8.46831 5.05202 8.50724 5.50873 8.57214 5.99154C8.63703 6.47434 8.72788 6.98325 8.84469 7.5052C9.06532 8.54911 9.37681 9.63216 9.70127 10.7152C10.0257 11.7983 10.3502 12.8683 10.6227 13.8861C10.7525 14.395 10.8823 14.8778 10.9861 15.3475C11.09 15.8173 11.1678 16.261 11.2327 16.6655C11.2976 17.083 11.3495 17.4614 11.3885 17.7877C11.4274 18.1269 11.4404 18.414 11.4663 18.6619C11.5053 19.1447 11.5183 19.4318 11.5832 19.4318C11.6351 19.4318 11.7129 19.1578 11.7519 18.6619C11.7778 18.414 11.7778 18.1139 11.7778 17.7616C11.7649 17.4092 11.7519 17.0178 11.7 16.6002C11.648 16.1696 11.5832 15.7129 11.4923 15.2301C11.4015 14.7473 11.2846 14.2514 11.1549 13.7295C10.8953 12.6986 10.5579 11.6156 10.2204 10.5456C9.88297 9.47557 9.5585 8.40557 9.31191 7.38776C9.18213 6.87886 9.0783 6.383 8.98745 5.91325C8.8966 5.44349 8.83171 4.99983 8.79277 4.58227C8.75384 4.1647 8.72788 3.78629 8.7149 3.44702C8.70192 3.10775 8.7149 2.80763 8.7149 2.57275C8.70192 2.10299 8.72788 1.81592 8.70192 1.81592Z" fill="#F34C7C"/>
<path d="M18.4226 2.50765C18.0982 2.01179 17.592 1.63337 17.0339 1.46374C16.995 1.42459 16.9561 1.3985 16.9042 1.38545C15.788 1.13752 14.607 1.54203 13.8153 2.35106C13.4259 2.75557 13.1274 3.26448 13.0106 3.81253C12.9457 4.11265 12.9197 4.45192 12.738 4.71289C12.6991 4.76509 12.5693 4.89558 12.5174 4.92168C12.4136 4.99997 12.2968 5.06521 12.167 5.11741C11.9464 5.2218 11.6608 5.31314 11.4142 5.41753C11.1417 5.53497 10.8951 5.67851 10.6874 5.88729C10.2462 6.3179 9.99958 6.93119 10.0126 7.54449C10.0255 7.87071 10.1164 8.18388 10.2332 8.49705C10.337 8.78412 10.4798 9.09729 10.4928 9.39742C10.5057 9.71059 10.363 9.99766 10.2332 10.2847C10.0904 10.5718 9.97362 10.8589 9.92171 11.1721C9.83086 11.7723 9.90873 12.3856 10.1943 12.9206C10.4668 13.4165 10.934 13.7949 11.4791 13.9254C11.9983 14.0428 12.5563 13.9776 13.0106 13.7035C13.2442 13.56 13.4389 13.3773 13.5816 13.1424C13.7504 12.8554 13.8282 12.5291 13.9061 12.216C13.971 11.9289 14.0489 11.6549 14.2176 11.42C14.2176 11.42 14.2436 11.3808 14.2565 11.3678C14.2695 11.3547 14.2955 11.3286 14.3084 11.3156C14.3474 11.2764 14.3863 11.2373 14.4382 11.1982C14.4512 11.1851 14.4772 11.1721 14.4901 11.146C14.5031 11.146 14.5161 11.1199 14.5291 11.1199C14.581 11.0807 14.6329 11.0546 14.6848 11.0155C15.0872 10.7675 15.5414 10.5979 15.9697 10.3761C16.4239 10.1282 16.8133 9.78888 16.995 9.29303C17.2286 8.66668 17.008 7.98815 17.021 7.34875C17.0339 7.06168 17.0988 6.81375 17.2546 6.57887C17.3973 6.35704 17.592 6.16131 17.7867 5.95253C18.228 5.49582 18.6173 5.02607 18.7471 4.38667C18.8769 3.76033 18.7731 3.06874 18.4226 2.50765Z" fill="#98A000"/>
<path d="M17.0854 4.2821C17.0725 4.26905 17.0206 4.3082 16.9297 4.38649C16.8389 4.45174 16.7091 4.55613 16.5533 4.66052C16.4755 4.71271 16.3846 4.76491 16.2938 4.80405C16.2029 4.8432 16.0861 4.88235 15.9823 4.89539C15.8784 4.90844 15.7616 4.90844 15.6448 4.8693C15.6189 4.8693 15.5929 4.85625 15.567 4.8432C15.554 4.8432 15.541 4.83015 15.528 4.83015C15.515 4.83015 15.5021 4.8171 15.4891 4.8171C15.4372 4.791 15.3853 4.76491 15.3463 4.72576C15.2555 4.66052 15.1776 4.56917 15.1127 4.46478C15.0478 4.37344 15.0089 4.26905 14.9829 4.16466C14.957 4.06027 14.944 3.95588 14.957 3.85149C14.957 3.7471 14.9829 3.65576 14.9959 3.56442C15.0478 3.39478 15.1127 3.25124 15.1646 3.1599C15.1906 3.10771 15.2165 3.06856 15.2165 3.04246C15.2295 3.01637 15.2295 2.99027 15.2165 2.99027C15.2036 2.97722 15.1906 2.99027 15.1646 3.00332C15.1387 3.01637 15.0997 3.05551 15.0608 3.09466C14.9829 3.186 14.8791 3.31649 14.8012 3.52527C14.7623 3.62966 14.7363 3.73405 14.7234 3.85149C14.7104 3.96893 14.7234 4.09942 14.7493 4.22991C14.8142 4.49088 14.9699 4.75186 15.2036 4.92149C15.2555 4.96064 15.3204 4.99979 15.3853 5.02588C15.3982 5.03893 15.4242 5.03893 15.4372 5.05198C15.4502 5.05198 15.4761 5.06503 15.4891 5.06503C15.528 5.07808 15.554 5.09113 15.5929 5.09113C15.7357 5.11722 15.8784 5.11722 16.0082 5.09113C16.138 5.06503 16.2548 5.01283 16.3586 4.96064C16.4625 4.90844 16.5533 4.8432 16.6312 4.77796C16.7869 4.64747 16.9037 4.53003 16.9816 4.43869C17.0595 4.34734 17.0984 4.29515 17.0854 4.2821Z" fill="#7A7A00"/>
<path d="M15.5285 6.3179C15.5156 6.3179 15.4766 6.3701 15.4117 6.44839C15.3728 6.48754 15.3339 6.53973 15.269 6.59193C15.2171 6.64412 15.1392 6.69632 15.0613 6.74851C14.9834 6.80071 14.8926 6.83986 14.7888 6.879C14.6849 6.91815 14.5811 6.94425 14.4643 6.95729C14.4124 6.95729 14.3475 6.97034 14.2956 6.95729C14.2437 6.95729 14.1788 6.94425 14.1269 6.94425C14.0749 6.9312 14.0101 6.91815 13.9581 6.89205C13.9062 6.86595 13.8543 6.8529 13.8024 6.81376C13.7505 6.78766 13.6986 6.74851 13.6596 6.70937C13.6207 6.67022 13.5688 6.63107 13.5299 6.59193C13.4909 6.55278 13.452 6.50059 13.426 6.44839C13.4001 6.3962 13.3741 6.344 13.3482 6.30485C13.2962 6.20046 13.2703 6.09607 13.2443 5.99168C13.2313 5.88729 13.2184 5.79595 13.2184 5.70461C13.2184 5.61327 13.2313 5.53497 13.2443 5.45668C13.2573 5.37839 13.2833 5.32619 13.2962 5.274C13.3352 5.16961 13.3611 5.10436 13.3352 5.09131C13.3222 5.07827 13.2573 5.11741 13.1794 5.20875C13.1405 5.26095 13.1016 5.32619 13.0756 5.40449C13.0496 5.48278 13.0237 5.57412 13.0107 5.67851C12.9977 5.7829 12.9977 5.90034 13.0107 6.01778C13.0237 6.13522 13.0626 6.26571 13.1145 6.38315C13.1405 6.44839 13.1794 6.50059 13.2054 6.56583C13.2443 6.61803 13.2833 6.68327 13.3352 6.73546C13.3871 6.78766 13.439 6.83986 13.4909 6.879C13.5428 6.91815 13.6077 6.97034 13.6726 6.99644C13.7375 7.03559 13.8024 7.06168 13.8673 7.07473C13.9322 7.10083 14.0101 7.11388 14.0749 7.12693C14.1398 7.13998 14.2177 7.13998 14.2826 7.13998C14.3475 7.13998 14.4124 7.12693 14.4773 7.12693C14.6071 7.10083 14.7239 7.06168 14.8407 7.02254C14.9445 6.97034 15.0483 6.91815 15.1262 6.8529C15.2041 6.78766 15.269 6.72242 15.3339 6.65717C15.3858 6.59193 15.4247 6.52668 15.4507 6.47449C15.5285 6.3962 15.5415 6.3179 15.5285 6.3179Z" fill="#7A7A00"/>
<path d="M14.3473 8.52321C14.3343 8.51016 14.2954 8.56235 14.2175 8.64065C14.1526 8.71894 14.0488 8.84943 13.919 8.97992C13.8541 9.04516 13.7892 9.1104 13.6983 9.17565C13.6205 9.24089 13.5296 9.29309 13.4258 9.33223C13.322 9.37138 13.2181 9.41053 13.1143 9.42357H13.0754H13.0494H13.0235H12.9845H12.9456H12.9196H12.8937H12.8547L12.8158 9.41053H12.7898H12.7769L12.7379 9.39748L12.699 9.38443C12.699 9.38443 12.686 9.38443 12.686 9.37138L12.673 9.35833C12.6601 9.35833 12.6471 9.34528 12.6341 9.34528C12.5952 9.31918 12.5433 9.29309 12.5043 9.25394C12.4654 9.21479 12.4265 9.17565 12.4005 9.1365C12.3745 9.09735 12.3356 9.04516 12.3096 9.00601C12.2577 8.91467 12.2188 8.81028 12.1799 8.71894C12.1669 8.66674 12.1409 8.6276 12.1279 8.5754C12.1279 8.56235 12.115 8.5493 12.115 8.53626C12.115 8.52321 12.102 8.51016 12.102 8.51016C12.089 8.48406 12.089 8.47101 12.089 8.44491C12.0631 8.36662 12.0501 8.28833 12.0501 8.22308C12.0501 8.15784 12.0501 8.10564 12.0631 8.0665C12.089 7.98821 12.1409 7.94906 12.1279 7.92296C12.1279 7.90991 12.102 7.90991 12.076 7.90991C12.0631 7.90991 12.0371 7.92296 12.0241 7.93601C11.9982 7.94906 11.9852 7.97516 11.9592 8.00125C11.9203 8.05345 11.8943 8.13174 11.8814 8.21004C11.8684 8.30138 11.8814 8.39272 11.8943 8.48406C11.8943 8.51016 11.9073 8.53626 11.9073 8.56235C11.9073 8.5754 11.9203 8.58845 11.9203 8.6015C11.9203 8.61455 11.9333 8.6276 11.9333 8.64065C11.9462 8.69284 11.9592 8.74504 11.9852 8.79723C12.0241 8.90162 12.0631 9.00601 12.115 9.12345C12.1409 9.17565 12.1799 9.22784 12.2188 9.29309C12.2577 9.34528 12.3096 9.39748 12.3616 9.44967C12.4135 9.50187 12.4784 9.54101 12.5303 9.56711C12.5433 9.58016 12.5562 9.58016 12.5822 9.59321L12.6081 9.60626C12.6211 9.60626 12.6211 9.60626 12.6341 9.61931L12.686 9.63236C12.699 9.63236 12.725 9.6454 12.7379 9.6454L12.7639 9.65845H12.7898L12.8418 9.6715H12.8937H12.9196H12.9456H12.9975H13.0494H13.0754H13.1013L13.1532 9.65845C13.283 9.63236 13.4128 9.59321 13.5166 9.54101C13.7373 9.42357 13.906 9.25394 14.0228 9.09735C14.1396 8.94077 14.2175 8.81028 14.2694 8.70589C14.3343 8.58845 14.3603 8.52321 14.3473 8.52321Z" fill="#7A7A00"/>
<path d="M11.9851 14.1079C11.8163 14.1079 11.6346 14.0818 11.4659 14.0427C10.8949 13.9122 10.4017 13.5207 10.1032 12.9857C9.80468 12.4637 9.71383 11.8113 9.81766 11.1589C9.86957 10.8196 9.99935 10.5195 10.1421 10.2454L10.1551 10.2193C10.2849 9.94532 10.4017 9.6974 10.3887 9.42337C10.3757 9.18849 10.2849 8.92752 10.1811 8.67959C10.1681 8.64044 10.1551 8.6013 10.1291 8.56215C10.0253 8.27508 9.90851 7.93581 9.89553 7.57044C9.88255 6.93105 10.1421 6.27861 10.6093 5.8219C10.817 5.62617 11.0636 5.45653 11.3751 5.32604C11.4919 5.27385 11.6087 5.2347 11.7385 5.18251C11.8812 5.13031 12.011 5.07812 12.1278 5.02592C12.2576 4.97373 12.3614 4.90848 12.4523 4.84324C12.5042 4.81714 12.608 4.6997 12.634 4.66056C12.7638 4.47787 12.8027 4.25604 12.8417 4.02116C12.8546 3.94287 12.8676 3.87763 12.8806 3.79933C13.0104 3.23823 13.2959 2.71628 13.7242 2.28567C14.1265 1.86811 14.6327 1.55494 15.1908 1.37225C15.7618 1.18957 16.3588 1.16347 16.9169 1.28091C16.9818 1.29396 17.0337 1.32006 17.0727 1.37225C17.6697 1.55494 18.1628 1.9464 18.5003 2.45531C18.8637 3.0164 18.9805 3.72104 18.8507 4.42568C18.7079 5.11726 18.2667 5.62617 17.8643 6.04373L17.8514 6.05678C17.6567 6.25251 17.488 6.43519 17.3582 6.64397C17.2154 6.8658 17.1505 7.08763 17.1375 7.36166C17.1375 7.58349 17.1505 7.80532 17.1765 8.02715C17.2154 8.45776 17.2673 8.91447 17.0986 9.34508C16.9299 9.81484 16.5795 10.1802 16.0214 10.4803C15.8397 10.5717 15.658 10.663 15.4763 10.7413C15.2297 10.8587 14.9831 10.9631 14.7495 11.1067C14.6976 11.1328 14.6457 11.1719 14.6067 11.198L14.5938 11.2111L14.5808 11.2241C14.5548 11.2372 14.5418 11.2502 14.5289 11.2633C14.4899 11.3024 14.451 11.3415 14.4121 11.3807C14.3991 11.3937 14.3861 11.4198 14.3601 11.4329C14.3601 11.4329 14.3472 11.4459 14.3472 11.459C14.3342 11.472 14.3342 11.472 14.3342 11.4851C14.1784 11.6939 14.1135 11.9418 14.0487 12.2419V12.268C13.9708 12.5942 13.8929 12.9205 13.7112 13.2075C13.5684 13.4555 13.3478 13.6512 13.1012 13.8078C12.7638 14.0035 12.3744 14.1079 11.9851 14.1079ZM16.242 1.4375C15.9176 1.4375 15.5931 1.48969 15.2816 1.59408C14.7625 1.76372 14.2823 2.06384 13.9059 2.45531C13.5165 2.85982 13.244 3.35567 13.1272 3.86458C13.1142 3.92982 13.1012 4.00811 13.0882 4.07336C13.0363 4.32129 12.9974 4.58226 12.8417 4.80409C12.7897 4.86934 12.66 4.99982 12.5951 5.05202C12.4912 5.13031 12.3744 5.19556 12.2317 5.2608C12.1149 5.313 11.9721 5.36519 11.8293 5.43043C11.7125 5.46958 11.5957 5.52178 11.4789 5.57397C11.1934 5.69141 10.9598 5.848 10.7781 6.01763C10.3628 6.42214 10.1162 7.00934 10.1291 7.58349C10.1421 7.90971 10.2459 8.23593 10.3498 8.49691C10.3628 8.53605 10.3757 8.5752 10.4017 8.61435C10.5055 8.87532 10.6093 9.14935 10.6223 9.42337C10.6353 9.76264 10.4925 10.0497 10.3628 10.3368L10.3498 10.3629C10.22 10.6239 10.1032 10.9109 10.0513 11.2241C9.96042 11.8244 10.0513 12.4116 10.3108 12.8944C10.5834 13.3772 11.0247 13.7164 11.5308 13.8339C12.037 13.9513 12.5691 13.873 12.9844 13.6251C13.2051 13.4946 13.3867 13.3119 13.5165 13.1031C13.6723 12.8422 13.7501 12.529 13.828 12.2289V12.2028C13.9059 11.8896 13.9838 11.6025 14.1525 11.3546L14.1655 11.3415L14.1784 11.3285C14.1914 11.3155 14.1914 11.3024 14.2044 11.3024C14.2174 11.2763 14.2433 11.2633 14.2563 11.2372C14.2952 11.198 14.3472 11.1458 14.3861 11.1067C14.3991 11.0936 14.425 11.0806 14.451 11.0545L14.464 11.0414C14.4769 11.0414 14.4769 11.0284 14.4769 11.0284C14.5289 10.9892 14.5808 10.9631 14.6327 10.924C14.8793 10.7674 15.1388 10.65 15.3854 10.5456C15.5671 10.4673 15.7488 10.3759 15.9176 10.2846C16.4237 10.0106 16.7352 9.68435 16.891 9.26679C17.0337 8.87532 16.9948 8.47081 16.9558 8.05325C16.9299 7.83142 16.9169 7.59654 16.9169 7.36166C16.9299 7.04849 17.0078 6.78751 17.1635 6.52654C17.3063 6.30471 17.5009 6.09592 17.6826 5.90019L17.6956 5.88714C18.098 5.46958 18.5003 5.01287 18.6171 4.37348C18.7469 3.73409 18.6301 3.08165 18.3056 2.58579C18.0071 2.11604 17.5269 1.76372 16.9818 1.59408L16.9558 1.58104L16.9299 1.55494C16.9169 1.52884 16.891 1.51579 16.865 1.51579C16.6703 1.4636 16.4497 1.4375 16.242 1.4375Z" fill="#7A7A00"/>
<path d="M16.6188 2.79474C16.6058 2.78169 16.5539 2.82083 16.45 2.88608C16.3981 2.92522 16.3332 2.96437 16.2683 3.02962C16.2294 3.05571 16.1905 3.08181 16.1515 3.12096C16.1126 3.1601 16.0737 3.1862 16.0217 3.22535C15.84 3.38193 15.6324 3.57767 15.4118 3.81254C15.1911 4.04742 14.9445 4.3345 14.6979 4.64767C14.4513 4.97389 14.2048 5.32621 13.9582 5.73072C13.8414 5.92645 13.7245 6.13523 13.6077 6.35706C13.5428 6.46145 13.4909 6.57889 13.439 6.68328C13.4131 6.73548 13.3871 6.80072 13.3611 6.85292C13.3352 6.90511 13.3092 6.97036 13.2833 7.02255C12.855 7.94902 12.4916 8.96683 12.232 10.0238C12.1022 10.5457 11.9984 11.0807 11.9076 11.6027C11.8297 12.1246 11.7518 12.6466 11.6999 13.1555C11.5961 14.1603 11.5571 15.0998 11.5442 15.9088C11.5312 16.7178 11.5442 17.3833 11.5701 17.8531C11.5961 18.3228 11.635 18.5838 11.6999 18.5968C11.7648 18.5968 11.8167 18.3359 11.8686 17.8661C11.9205 17.3964 11.9595 16.7309 12.0114 15.9349C12.0633 15.1389 12.1282 14.2124 12.245 13.2207C12.2969 12.7249 12.3748 12.216 12.4527 11.7071C12.5435 11.1982 12.6344 10.6762 12.7512 10.1673C12.9848 9.13646 13.3092 8.1317 13.6986 7.23133C13.7245 7.17914 13.7505 7.11389 13.7765 7.0617C13.8024 7.0095 13.8284 6.94426 13.8543 6.89206C13.9062 6.78767 13.9582 6.67023 14.0101 6.56584C14.1139 6.35706 14.2177 6.14828 14.3216 5.95255C14.5422 5.56108 14.7628 5.19572 14.9835 4.8695C15.2041 4.54328 15.4247 4.2562 15.6194 4.00828C15.8271 3.76035 16.0088 3.55157 16.1645 3.38193C16.45 3.00352 16.6447 2.82083 16.6188 2.79474Z" fill="#C10025"/>
<path d="M9.42843 12.8163C9.33758 12.6989 9.24674 12.5814 9.12993 12.4901C9.01312 12.3987 8.88334 12.3074 8.77951 12.2291C8.68866 12.1639 8.59781 12.0725 8.54589 11.9812C8.49398 11.8768 8.49398 11.7202 8.49398 11.5897C8.50696 11.3157 8.51994 11.0547 8.481 10.7807C8.44207 10.5067 8.39015 10.2457 8.2993 9.9847C8.1176 9.5019 7.84506 9.03214 7.44272 8.69287C7.23506 8.52323 7.01443 8.3797 6.75486 8.27531C6.49529 8.17092 6.20976 8.15787 5.93721 8.10567C5.80743 8.07958 5.66466 8.02738 5.58679 7.96214C5.50892 7.89689 5.46999 7.8447 5.40509 7.74031C5.39211 7.71421 5.37914 7.68811 5.36616 7.66201L5.35318 7.63592V7.62287C5.32722 7.57067 5.31424 7.50543 5.28829 7.44018C5.24935 7.3097 5.22339 7.19226 5.19744 7.06177C5.1585 6.81384 5.11956 6.55286 5.05467 6.30494C4.9768 6.03091 4.85999 5.75689 4.70425 5.52201C4.37979 5.0392 3.91256 4.64774 3.34151 4.49115C2.78343 4.33457 2.17344 4.41286 1.66728 4.69993C1.66728 4.69993 1.6543 4.69993 1.6543 4.71298C0.706866 5.13054 0.0449617 6.1614 0.109854 7.2575C0.135811 7.58372 0.213683 7.89689 0.343468 8.19701C0.460274 8.47104 0.641974 8.70592 0.84963 8.9408C1.03133 9.14958 1.22601 9.34531 1.36877 9.56714C1.44664 9.68458 1.49856 9.77592 1.53749 9.89336C1.58941 10.0499 1.58941 10.2196 1.57643 10.3892C1.55047 10.7415 1.4726 11.0939 1.43366 11.4462C1.40771 11.8115 1.40771 12.1769 1.45962 12.5423C1.55047 13.1295 1.836 13.7167 2.29025 14.1081C2.53684 14.3169 2.80939 14.4474 3.10789 14.5257C3.41938 14.604 3.73086 14.6301 4.04235 14.7214C4.3149 14.8128 4.52255 14.9824 4.73021 15.1912C4.95084 15.413 5.14552 15.6479 5.40509 15.8306C6.32657 16.5222 7.68931 16.5874 8.64972 15.948C9.15588 15.6218 9.55822 15.1259 9.71396 14.5387C9.88268 13.9515 9.79183 13.2991 9.42843 12.8163Z" fill="#98A000"/>
<path d="M7.66319 11.433C7.65022 11.4461 7.68915 11.5244 7.76702 11.681C7.80596 11.7593 7.85787 11.8506 7.90979 11.955C7.9617 12.0594 8.02659 12.1768 8.09149 12.3073C8.15638 12.4378 8.22127 12.5683 8.28616 12.7249C8.35106 12.8684 8.41595 13.0381 8.45488 13.2077C8.49382 13.3773 8.51978 13.56 8.49382 13.7296C8.48084 13.821 8.46786 13.8993 8.44191 13.9906C8.44191 14.0167 8.42893 14.0298 8.41595 14.0559C8.40297 14.082 8.40297 14.095 8.38999 14.1211L8.37701 14.1472C8.37701 14.1602 8.36403 14.1602 8.36403 14.1733L8.3251 14.2255C8.27318 14.3038 8.22127 14.369 8.15638 14.4343C8.1434 14.4473 8.11744 14.4604 8.10446 14.4734L8.07851 14.4995C8.06553 14.5126 8.06553 14.5126 8.05255 14.5256L8.00064 14.5648C7.98766 14.5778 7.9617 14.5909 7.94872 14.6039C7.93574 14.6039 7.93574 14.617 7.92276 14.617L7.89681 14.63C7.88383 14.6431 7.85787 14.6561 7.84489 14.6692C7.80596 14.6822 7.76702 14.7083 7.72809 14.7213C7.65022 14.7605 7.57234 14.7866 7.48149 14.8127C7.45554 14.8127 7.44256 14.8257 7.4166 14.8257C7.40362 14.8257 7.39065 14.8257 7.39065 14.8388H7.36469C7.33873 14.8388 7.32575 14.8518 7.2998 14.8518C7.27384 14.8518 7.26086 14.8518 7.2349 14.8649C7.19597 14.8779 7.15703 14.8779 7.1181 14.8779C7.07916 14.8779 7.04023 14.8779 7.00129 14.891C6.84555 14.891 6.68981 14.891 6.54704 14.8779C6.40428 14.8649 6.27449 14.8388 6.17066 14.8257C6.05386 14.8127 5.95003 14.7866 5.87216 14.7735C5.70344 14.7474 5.61259 14.7474 5.59961 14.7735C5.59961 14.7996 5.67748 14.8388 5.8462 14.904C5.92407 14.9301 6.0279 14.9693 6.14471 14.9954C6.26151 15.0215 6.3913 15.0606 6.53406 15.0737C6.67683 15.0998 6.84555 15.1128 7.01427 15.1128C7.0532 15.1128 7.10512 15.1128 7.14405 15.1128C7.18299 15.1128 7.2349 15.1128 7.27384 15.0998C7.2998 15.0998 7.32575 15.0998 7.33873 15.0867C7.36469 15.0867 7.39064 15.0737 7.40362 15.0737L7.44256 15.0606C7.45554 15.0606 7.46852 15.0606 7.48149 15.0476C7.50745 15.0476 7.53341 15.0345 7.54639 15.0345C7.63724 15.0084 7.72809 14.9823 7.81894 14.9301C7.87085 14.9171 7.90979 14.891 7.94872 14.8649C7.97468 14.8518 7.98766 14.8388 8.01361 14.8257L8.05255 14.8127C8.06553 14.7996 8.07851 14.7996 8.07851 14.7866C8.10446 14.7735 8.11744 14.7605 8.1434 14.7474C8.16936 14.7344 8.18233 14.7213 8.20829 14.6953C8.22127 14.6822 8.23425 14.6822 8.23425 14.6692L8.26021 14.6431C8.27318 14.63 8.29914 14.6039 8.31212 14.5909C8.38999 14.5126 8.45488 14.4343 8.5068 14.3429C8.51978 14.3168 8.53276 14.2907 8.54573 14.2777C8.54573 14.2646 8.55871 14.2516 8.55871 14.2385L8.57169 14.1994C8.58467 14.1733 8.59765 14.1472 8.59765 14.1211C8.61063 14.095 8.61063 14.0689 8.6236 14.0428C8.64956 13.9384 8.67552 13.834 8.67552 13.7296C8.6885 13.5209 8.66254 13.3251 8.61063 13.1424C8.55871 12.9598 8.48084 12.7901 8.41595 12.6466C8.33808 12.49 8.26021 12.3595 8.18233 12.229C8.10446 12.0985 8.02659 11.9941 7.9617 11.8898C7.89681 11.7854 7.84489 11.7071 7.79298 11.6418C7.74107 11.4983 7.67617 11.42 7.66319 11.433Z" fill="#7A7A00"/>
<path d="M6.43023 10.3762C6.43023 10.3762 6.44321 10.4023 6.46917 10.4415C6.49512 10.4806 6.53406 10.5198 6.58597 10.585C6.62491 10.6502 6.6898 10.7285 6.72874 10.8329C6.72874 10.846 6.74171 10.859 6.74171 10.8721C6.75469 10.8851 6.75469 10.8982 6.75469 10.9112C6.76767 10.9373 6.78065 10.9634 6.79363 10.9895C6.80661 11.0156 6.81959 11.0417 6.83256 11.0809C6.84554 11.107 6.85852 11.1461 6.85852 11.1722C6.93639 11.4332 6.97533 11.7463 6.97533 12.0856C6.97533 12.2552 6.96235 12.4249 6.92341 12.5945C6.88448 12.7642 6.81959 12.9207 6.70278 13.0251C6.59895 13.1426 6.44321 13.2078 6.28747 13.247C6.13172 13.2861 5.95002 13.2861 5.79428 13.2731C5.45684 13.247 5.15833 13.1817 4.89876 13.0904C4.63919 12.999 4.44452 12.9077 4.30175 12.8294C4.23686 12.7903 4.17197 12.7642 4.13303 12.7511C4.0941 12.7381 4.06814 12.725 4.05516 12.7381C4.04218 12.7511 4.05516 12.7772 4.0941 12.8033C4.12005 12.8424 4.17197 12.8816 4.23686 12.9338C4.36664 13.0382 4.5743 13.1687 4.83387 13.2731C5.09344 13.3774 5.4179 13.4688 5.7813 13.4949C5.963 13.5079 6.15768 13.5079 6.33938 13.4557C6.43023 13.4296 6.53406 13.4035 6.62491 13.3514C6.71576 13.2992 6.80661 13.2339 6.8715 13.1556C6.94937 13.0773 7.00128 12.986 7.04022 12.8946C7.07916 12.8033 7.11809 12.6989 7.13107 12.6076C7.17001 12.4118 7.17001 12.2292 7.17001 12.0465C7.15703 11.6942 7.09213 11.3549 6.98831 11.0939C6.97533 11.0548 6.96235 11.0287 6.94937 11.0026C6.93639 10.9765 6.92341 10.9373 6.91044 10.9112C6.89746 10.8851 6.88448 10.859 6.85852 10.8329C6.84554 10.8199 6.84554 10.8068 6.83256 10.7938C6.81959 10.7807 6.81959 10.7677 6.80661 10.7546C6.74171 10.6502 6.67682 10.572 6.62491 10.5198C6.56001 10.4545 6.52108 10.4154 6.48214 10.3893C6.45619 10.3893 6.44321 10.3762 6.43023 10.3762Z" fill="#7A7A00"/>
<path d="M5.418 9.07138C5.418 9.08443 5.44395 9.08443 5.46991 9.09747C5.49587 9.11052 5.5348 9.14967 5.56076 9.20187C5.57374 9.22796 5.58672 9.26711 5.5997 9.29321C5.5997 9.30626 5.61267 9.33235 5.61267 9.3454C5.61267 9.3715 5.62565 9.38455 5.62565 9.41065C5.63863 9.50199 5.66459 9.59333 5.67757 9.71077C5.69055 9.81516 5.70352 9.9326 5.70352 10.0631C5.70352 10.1805 5.70352 10.311 5.67757 10.4415C5.65161 10.572 5.61267 10.6894 5.5348 10.8069C5.49587 10.8591 5.45693 10.9113 5.418 10.9635L5.37906 11.0026C5.36608 11.0157 5.3531 11.0287 5.34013 11.0287C5.31417 11.0548 5.28821 11.0678 5.26225 11.0809C5.24928 11.0939 5.2363 11.0939 5.22332 11.107H5.18438C5.1714 11.107 5.1714 11.12 5.15843 11.12L5.11949 11.1461L5.06758 11.1592C5.0546 11.1592 5.0546 11.1592 5.04162 11.1722L5.01566 11.1853C5.00268 11.1853 4.98971 11.1983 4.96375 11.1983C4.93779 11.1983 4.89886 11.2114 4.8729 11.2114C4.80801 11.2244 4.74311 11.2244 4.67822 11.2244C4.66524 11.2244 4.65226 11.2244 4.62631 11.2244H4.60035H4.57439C4.56141 11.2244 4.54844 11.2244 4.52248 11.2244C4.5095 11.2244 4.49652 11.2244 4.47056 11.2114C4.44461 11.2114 4.40567 11.1983 4.37971 11.1983C4.36674 11.1983 4.35376 11.1853 4.34078 11.1853C4.3278 11.1853 4.31482 11.1722 4.30184 11.1722C4.27589 11.1592 4.24993 11.1461 4.21099 11.1461C4.19802 11.1461 4.18504 11.1331 4.17206 11.1331C4.15908 11.1331 4.1461 11.12 4.13312 11.12C4.02929 11.0678 3.92547 11.0026 3.8476 10.9504C3.75675 10.8852 3.69185 10.8199 3.62696 10.7677C3.56207 10.7155 3.51015 10.6503 3.45824 10.6111C3.36739 10.5198 3.31548 10.4676 3.28952 10.4937C3.26356 10.5067 3.28952 10.585 3.36739 10.6894C3.40633 10.7416 3.44526 10.8069 3.51015 10.8852C3.57505 10.9504 3.63994 11.0287 3.73079 11.107C3.82164 11.1853 3.92547 11.2636 4.04227 11.3158C4.05525 11.3288 4.06823 11.3288 4.08121 11.3419C4.09419 11.3549 4.10717 11.3549 4.13312 11.368C4.15908 11.381 4.19802 11.3941 4.23695 11.4071C4.24993 11.4202 4.27589 11.4202 4.28886 11.4202C4.30184 11.4202 4.3278 11.4332 4.34078 11.4332C4.37971 11.4463 4.41865 11.4463 4.44461 11.4593C4.45759 11.4593 4.48354 11.4724 4.49652 11.4724C4.5095 11.4724 4.53546 11.4724 4.54844 11.4854H4.57439H4.60035C4.61333 11.4854 4.63929 11.4854 4.65226 11.4854C4.73014 11.4854 4.80801 11.4854 4.88588 11.4724C4.92481 11.4724 4.96375 11.4593 5.00268 11.4463C5.01566 11.4463 5.04162 11.4332 5.0546 11.4332L5.08056 11.4202C5.09353 11.4202 5.09353 11.4071 5.10651 11.4071L5.15843 11.381L5.21034 11.3549C5.22332 11.3549 5.22332 11.3419 5.2363 11.3419L5.26225 11.3288C5.27523 11.3158 5.30119 11.3027 5.31417 11.3027C5.3531 11.2766 5.37906 11.2505 5.418 11.2244C5.43098 11.2114 5.45693 11.1983 5.46991 11.1853L5.50885 11.1461C5.56076 11.0809 5.61267 11.0157 5.65161 10.9504C5.72948 10.8069 5.7814 10.6503 5.79437 10.5067C5.82033 10.3632 5.82033 10.2197 5.80735 10.0892C5.79437 9.9587 5.76842 9.84126 5.74246 9.72382C5.7165 9.61943 5.69055 9.51504 5.65161 9.4237C5.63863 9.3976 5.63863 9.38455 5.62565 9.35845C5.61267 9.33235 5.61267 9.3193 5.5997 9.29321C5.58672 9.25406 5.56076 9.21491 5.54778 9.18882C5.50885 9.12357 5.45693 9.09747 5.40502 9.08443C5.39204 9.08443 5.39204 9.08443 5.37906 9.08443C5.36608 9.08443 5.36608 9.08443 5.36608 9.08443C5.418 9.05833 5.418 9.07138 5.418 9.07138Z" fill="#7A7A00"/>
<path d="M4.40562 7.47925C4.40562 7.47925 4.40562 7.50535 4.4186 7.53144C4.43158 7.55754 4.44456 7.59669 4.47052 7.64888C4.50945 7.75327 4.57434 7.89681 4.61328 8.06644C4.65222 8.24913 4.67817 8.45791 4.65222 8.67974C4.63924 8.79718 4.61328 8.90157 4.57434 9.00596C4.53541 9.11035 4.48349 9.21474 4.40562 9.29303C4.32775 9.37133 4.2369 9.42352 4.14605 9.44962C4.09414 9.46267 4.04222 9.46267 3.99031 9.46267C3.9384 9.46267 3.88648 9.44962 3.83457 9.44962C3.78265 9.43657 3.73074 9.42352 3.6918 9.39742C3.63989 9.38437 3.60096 9.35828 3.56202 9.33218C3.48415 9.27998 3.40628 9.21474 3.34138 9.16254C3.2116 9.04511 3.10777 8.92767 3.0299 8.83632C2.95203 8.75803 2.90011 8.71889 2.88714 8.73193C2.86118 8.74498 2.88714 8.81023 2.93905 8.91462C2.96501 8.96681 3.00394 9.01901 3.04288 9.08425C3.08181 9.1495 3.13373 9.22779 3.2116 9.29303C3.27649 9.37133 3.35436 9.43657 3.45819 9.51486C3.51011 9.55401 3.56202 9.58011 3.61393 9.6062C3.66585 9.6323 3.73074 9.6584 3.79563 9.67145C3.86053 9.6845 3.92542 9.69755 4.00329 9.69755C4.06818 9.69755 4.14605 9.69755 4.21095 9.67145C4.22392 9.67145 4.24988 9.6584 4.26286 9.6584L4.31477 9.64535C4.32775 9.6323 4.35371 9.6323 4.36669 9.61925C4.37967 9.6062 4.39264 9.6062 4.4186 9.59316C4.48349 9.55401 4.53541 9.50181 4.58732 9.44962C4.63924 9.39742 4.67817 9.33218 4.71711 9.27998C4.75604 9.21474 4.782 9.1495 4.79498 9.08425C4.83391 8.95376 4.85987 8.82328 4.85987 8.69279C4.87285 8.44486 4.83391 8.20998 4.76902 8.0273C4.70413 7.84461 4.61328 7.70108 4.54839 7.60974C4.50945 7.57059 4.48349 7.53144 4.45754 7.50535C4.43158 7.4923 4.4186 7.47925 4.40562 7.47925Z" fill="#7A7A00"/>
<path d="M23.8607 9.04488C23.8088 8.43159 23.5493 7.84439 23.0431 7.47903C22.4591 7.06146 21.7323 7.205 21.0574 7.205C20.4344 7.205 19.8634 6.91793 19.2923 6.68305C18.7213 6.43512 18.1242 6.22634 17.4883 6.26549C16.3721 6.34378 15.2949 7.02232 14.7758 8.02708C14.4773 8.60122 14.4383 9.21452 14.3994 9.85391C14.3864 10.1801 14.3605 10.4933 14.2696 10.7934C14.1917 11.0805 14.036 11.3154 13.8413 11.5111C13.439 11.9417 12.8939 12.2549 12.5824 12.7638C12.3099 13.2075 12.219 13.7947 12.4396 14.2775C12.4656 14.3427 12.5045 14.4079 12.5565 14.4601C12.6862 14.7472 12.8939 14.9951 13.1405 15.1909C13.6207 15.5693 14.2437 15.6867 14.8277 15.504C15.3988 15.3214 15.866 14.9038 16.0866 14.3427C16.1515 14.1992 16.1775 14.0295 16.2294 13.886C16.2553 13.8207 16.2683 13.7686 16.3072 13.7033C16.3202 13.6772 16.3462 13.6511 16.3592 13.625C16.3592 13.625 16.3981 13.5859 16.4111 13.5728C16.4241 13.5598 16.45 13.5337 16.463 13.5206L16.476 13.5076C16.476 13.5076 16.4889 13.5076 16.5019 13.4945C16.5279 13.4815 16.5409 13.4684 16.5668 13.4554C16.5798 13.4554 16.6187 13.4293 16.6187 13.4293C16.6577 13.4162 16.7096 13.4032 16.7485 13.3901C16.7745 13.3771 16.8004 13.3771 16.8394 13.3771H16.8523C16.8653 13.3771 16.8783 13.3771 16.8783 13.3771C17.3845 13.3249 17.8906 13.4423 18.3968 13.4162C18.6693 13.4032 18.9419 13.3379 19.1755 13.2075C19.3961 13.077 19.5778 12.8943 19.7336 12.6855C19.8763 12.5028 19.9802 12.294 20.097 12.0983C20.1619 11.9939 20.2138 11.9026 20.2787 11.7982C20.3046 11.759 20.3306 11.7199 20.3695 11.6807C20.3695 11.6807 20.3955 11.6546 20.3955 11.6416C20.4214 11.6155 20.4344 11.5894 20.4604 11.5633C20.4993 11.5242 20.5253 11.4981 20.5642 11.4589L20.5772 11.4459C20.5772 11.4459 20.5902 11.4459 20.5902 11.4328C20.6161 11.4198 20.6291 11.4067 20.6551 11.3937C20.681 11.3806 20.707 11.3676 20.7329 11.3545C20.7459 11.3545 20.7459 11.3545 20.7589 11.3415C20.8108 11.3284 20.8757 11.3023 20.9276 11.3023C21.278 11.2632 21.6155 11.4198 21.9659 11.4328C23.1859 11.4981 23.9646 10.141 23.8607 9.04488Z" fill="#B7C62C"/>
<path d="M7.14428 16.4829C6.50834 16.4829 5.85941 16.2872 5.35325 15.8957C5.14559 15.7391 4.97687 15.5564 4.80815 15.3868C4.76921 15.3346 4.7173 15.2955 4.67836 15.2433C4.50964 15.0736 4.31497 14.8909 4.04242 14.8126C3.8737 14.7604 3.70498 14.7344 3.53625 14.6952C3.40647 14.6691 3.26371 14.643 3.12094 14.6169C2.79648 14.5386 2.51095 14.382 2.25138 14.1733C1.79713 13.7948 1.48565 13.1946 1.38182 12.5422C1.32991 12.1898 1.31693 11.8114 1.34288 11.42C1.35586 11.2503 1.38182 11.0807 1.40778 10.911C1.43373 10.7284 1.45969 10.5457 1.47267 10.363C1.48565 10.1803 1.47267 10.0368 1.43373 9.91934C1.40778 9.828 1.35586 9.73666 1.27799 9.61922C1.17416 9.46263 1.04438 9.31909 0.901615 9.16251C0.862679 9.11031 0.810765 9.05812 0.77183 9.00592C0.603109 8.81019 0.395452 8.54922 0.252689 8.23604C0.109925 7.92287 0.0320538 7.59665 0.00609672 7.25738C-0.0717744 6.14823 0.603109 5.05213 1.64139 4.60847C1.64139 4.60847 1.64139 4.60847 1.65437 4.60847C2.18649 4.30835 2.82244 4.23006 3.40647 4.38664C3.96455 4.54323 4.47071 4.92165 4.83411 5.45665C5.00283 5.70457 5.11963 5.99165 5.19751 6.27872C5.23644 6.44836 5.27538 6.63104 5.30133 6.81372C5.31431 6.89202 5.32729 6.97031 5.34027 7.0486C5.35325 7.15299 5.3792 7.28348 5.41814 7.41397C5.43112 7.47921 5.45708 7.53141 5.47005 7.5836L5.48303 7.62275C5.49601 7.64885 5.50899 7.67495 5.52197 7.68799C5.57388 7.77934 5.61282 7.81848 5.66473 7.87068C5.72963 7.92287 5.84643 7.96202 5.96324 7.98812C6.04111 8.00117 6.13196 8.01421 6.22281 8.02726C6.41749 8.05336 6.61216 8.07946 6.80684 8.15775C7.06641 8.26214 7.30003 8.40568 7.52066 8.58836C7.89704 8.91458 8.20852 9.37129 8.4032 9.93239C8.49405 10.1803 8.55894 10.4543 8.59788 10.7545C8.63681 11.0285 8.62384 11.3025 8.61086 11.5896C8.59788 11.7462 8.61086 11.8636 8.64979 11.9158C8.68873 11.9811 8.75362 12.0593 8.85745 12.1376C8.90936 12.1768 8.96128 12.2159 9.01319 12.2551C9.07808 12.3073 9.14298 12.3464 9.20787 12.3986C9.32468 12.49 9.4285 12.6074 9.53233 12.7509C9.89573 13.2468 10.0125 13.9384 9.84382 14.5647C9.68807 15.1519 9.28574 15.6869 8.72766 16.0392C8.26044 16.3394 7.70236 16.4829 7.14428 16.4829ZM2.79648 4.54323C2.43308 4.54323 2.08266 4.63457 1.7582 4.81726L1.73224 4.8303C0.784808 5.23482 0.161839 6.22653 0.226732 7.24433C0.252689 7.55751 0.317581 7.85763 0.447366 8.1447C0.577152 8.43178 0.771829 8.6797 0.927572 8.84934C0.979486 8.91458 1.0314 8.96678 1.08331 9.00592C1.22608 9.16251 1.36884 9.31909 1.48565 9.48873C1.5765 9.61922 1.62841 9.73666 1.66735 9.8541C1.71926 10.0107 1.73224 10.1803 1.71926 10.3891C1.70628 10.5848 1.68033 10.7675 1.64139 10.9502C1.61543 11.1068 1.58948 11.2764 1.5765 11.4461C1.53756 11.8114 1.55054 12.1768 1.60245 12.5161C1.6933 13.1163 1.99181 13.6643 2.39414 14.0036C2.61478 14.1994 2.88733 14.3298 3.17286 14.4081C3.30264 14.4473 3.43243 14.4603 3.57519 14.4864C3.75689 14.5125 3.93859 14.5517 4.12029 14.6039C4.44475 14.7083 4.66539 14.904 4.86006 15.0997C4.91198 15.1519 4.95091 15.1911 5.00283 15.2433C5.17155 15.4259 5.32729 15.5825 5.52197 15.7261C5.9892 16.0784 6.58621 16.2611 7.17024 16.2611C7.68938 16.2611 8.20852 16.1175 8.63681 15.8435C9.14298 15.5173 9.50638 15.0214 9.64914 14.4995C9.80488 13.9384 9.68807 13.3251 9.37659 12.8945C9.28574 12.777 9.19489 12.6726 9.09106 12.5943C9.03915 12.5422 8.96128 12.503 8.90936 12.4508C8.85745 12.4117 8.79256 12.3725 8.74064 12.3334C8.62384 12.242 8.53299 12.1376 8.48107 12.0463C8.42916 11.9419 8.4032 11.7984 8.41618 11.5896C8.42916 11.3286 8.44214 11.0676 8.4032 10.8067C8.36427 10.5196 8.31235 10.2717 8.2215 10.0368C8.0398 9.51483 7.75427 9.08422 7.40385 8.78409C7.20918 8.61446 6.98854 8.48397 6.75493 8.39263C6.58621 8.32739 6.40451 8.30129 6.22281 8.27519C6.13196 8.26214 6.05409 8.24909 5.96324 8.23604C5.89835 8.22299 5.69069 8.18385 5.5609 8.06641C5.47005 8.00117 5.41814 7.93592 5.35325 7.81848C5.34027 7.79238 5.32729 7.76629 5.31431 7.74019C5.31431 7.74019 5.31431 7.72714 5.30133 7.72714L5.28836 7.68799C5.2624 7.6358 5.24942 7.57055 5.22346 7.50531C5.18453 7.36177 5.15857 7.21824 5.13261 7.11385C5.11963 7.03555 5.10666 6.95726 5.09368 6.87897C5.06772 6.70933 5.04176 6.5397 4.98985 6.37006C4.92496 6.10909 4.80815 5.84811 4.65241 5.61323C4.32794 5.13043 3.8737 4.77811 3.35456 4.63457C3.15988 4.56933 2.97818 4.54323 2.79648 4.54323Z" fill="#7A7A00"/>
<path d="M14.3087 15.713C13.8804 15.713 13.4521 15.5694 13.0887 15.2954C12.8291 15.0866 12.6215 14.8257 12.4787 14.5255C12.4268 14.4603 12.3878 14.395 12.3619 14.3298C12.1412 13.847 12.1932 13.2337 12.5046 12.7117C12.7123 12.3725 13.0108 12.1115 13.3093 11.8766C13.478 11.7331 13.6468 11.6026 13.7895 11.446C13.9842 11.2372 14.114 11.0154 14.1919 10.7675C14.2697 10.4804 14.2957 10.1933 14.3087 9.85406C14.3476 9.17552 14.3995 8.56223 14.698 7.98808C15.2301 6.95722 16.3333 6.23954 17.5014 6.16125C18.1633 6.1221 18.7862 6.34393 19.3573 6.59186C19.4092 6.61796 19.4611 6.64405 19.513 6.6571C20.0192 6.87893 20.5254 7.10076 21.0834 7.10076C21.2262 7.10076 21.369 7.10076 21.5117 7.08771C22.0698 7.06161 22.6409 7.03552 23.1341 7.40088C23.6272 7.7532 23.9257 8.3404 23.9906 9.04503C24.0555 9.73662 23.783 10.5065 23.3158 11.0024C22.9394 11.3938 22.4851 11.5896 21.979 11.5765C21.8232 11.5765 21.6675 11.5374 21.5247 11.5113C21.33 11.4721 21.1483 11.433 20.9666 11.446C20.9147 11.446 20.8628 11.4721 20.8239 11.4852H20.8109L20.7979 11.4982C20.7849 11.5113 20.759 11.5113 20.746 11.5243C20.733 11.5374 20.7071 11.5504 20.6941 11.5635C20.6941 11.5635 20.6941 11.5635 20.6811 11.5635C20.6681 11.5765 20.6681 11.5765 20.6552 11.5896C20.6292 11.6157 20.6032 11.6287 20.5903 11.6548C20.5643 11.6809 20.5513 11.6939 20.5254 11.72L20.5124 11.7331L20.4994 11.7461C20.4735 11.7853 20.4475 11.8244 20.4215 11.8636C20.3566 11.968 20.2918 12.0724 20.2398 12.1507C20.2269 12.1767 20.2139 12.2028 20.1879 12.2289C20.0841 12.3986 19.9803 12.5813 19.8635 12.7509C19.6688 13.0119 19.4871 13.1946 19.2665 13.312C19.0328 13.4425 18.7603 13.5077 18.4358 13.5338C18.1892 13.5469 17.9426 13.5338 17.6961 13.5077C17.4235 13.4816 17.1769 13.4686 16.9173 13.4947H16.9044H16.8914C16.8784 13.4947 16.8654 13.4947 16.8654 13.4947C16.8524 13.4947 16.8265 13.4947 16.8135 13.5077C16.7746 13.5208 16.7356 13.5338 16.6967 13.5469C16.6967 13.5469 16.6837 13.5469 16.6837 13.5599C16.6708 13.5599 16.6707 13.573 16.6578 13.573C16.6448 13.586 16.6188 13.5991 16.6059 13.5991C16.6059 13.5991 16.5929 13.5991 16.5929 13.6121L16.5799 13.6252C16.5669 13.6382 16.5539 13.6513 16.541 13.6643L16.528 13.6774C16.515 13.6904 16.515 13.6904 16.502 13.7035C16.4891 13.7296 16.4761 13.7426 16.4631 13.7687C16.4371 13.8209 16.4112 13.86 16.3982 13.9253C16.3722 13.9905 16.3593 14.0427 16.3463 14.108C16.3203 14.1993 16.2944 14.2907 16.2554 14.382C16.0218 14.9692 15.5416 15.4129 14.9186 15.6086C14.698 15.6869 14.5033 15.713 14.3087 15.713ZM17.6701 6.37003C17.6182 6.37003 17.5663 6.37003 17.5144 6.37003C16.4242 6.44832 15.3989 7.11381 14.9057 8.07942C14.737 8.39259 14.6072 8.74491 14.5423 9.85406C14.5293 10.2194 14.5033 10.5195 14.4125 10.8197C14.3346 11.1067 14.1789 11.3547 13.9582 11.5896C13.8025 11.7461 13.6338 11.9027 13.4651 12.0332C13.1795 12.2811 12.894 12.503 12.7123 12.8161C12.4398 13.2598 12.3878 13.8079 12.5825 14.2124C12.6085 14.2646 12.6474 14.3168 12.6863 14.3689L12.6993 14.382V14.395C12.8291 14.6691 13.0238 14.9039 13.2574 15.0866C13.7116 15.439 14.2957 15.5433 14.8408 15.3868C15.3989 15.2171 15.8271 14.8126 16.0348 14.2907C16.0737 14.2124 16.0997 14.121 16.1257 14.0297C16.1386 13.9644 16.1646 13.8992 16.1905 13.8339C16.2165 13.7557 16.2425 13.6904 16.2814 13.6382C16.2944 13.6121 16.3203 13.573 16.3333 13.5469L16.5929 13.1946L16.5799 13.3511C16.5799 13.3511 16.5929 13.3381 16.6059 13.3381C16.6188 13.3381 16.6188 13.3381 16.6188 13.325C16.5929 13.3381 16.5799 13.3511 16.5669 13.3772L16.5539 13.4425V13.4555L16.6578 13.4164L16.6318 13.2989C16.6837 13.2859 16.7227 13.2598 16.7876 13.2468C16.8135 13.2468 16.8265 13.2337 16.8524 13.2337C16.8654 13.2337 16.8784 13.2337 16.8784 13.2337H16.8914H16.9044C16.9173 13.2337 16.9173 13.2337 16.9303 13.2337C17.2029 13.2076 17.4754 13.2337 17.748 13.2468C17.9816 13.2598 18.2152 13.2859 18.4488 13.2728C18.7473 13.2598 18.9809 13.1946 19.1756 13.0771C19.3573 12.9727 19.526 12.8161 19.6947 12.5813C19.8116 12.4247 19.9154 12.255 20.0062 12.0854C20.0192 12.0593 20.0322 12.0332 20.0581 12.0071C20.1101 11.9158 20.175 11.8114 20.2398 11.707C20.2658 11.6548 20.3047 11.6156 20.3307 11.5765C20.3307 11.5765 20.3307 11.5635 20.3437 11.5635C20.3437 11.5504 20.3566 11.5504 20.3566 11.5374C20.3826 11.5113 20.4086 11.4852 20.4215 11.4591C20.4475 11.433 20.4735 11.4069 20.4994 11.3808C20.5124 11.3677 20.5124 11.3677 20.5254 11.3547L20.5384 11.3416L20.5513 11.3286C20.5513 11.3286 20.5513 11.3286 20.5643 11.3155C20.5903 11.3025 20.6032 11.2894 20.6292 11.2764C20.6552 11.2633 20.6681 11.2503 20.6941 11.2372L20.733 11.2242C20.746 11.2242 20.746 11.2242 20.759 11.2111C20.8109 11.1981 20.8758 11.172 20.9537 11.1589C21.1743 11.1328 21.382 11.185 21.5896 11.2242C21.7324 11.2503 21.8751 11.2894 22.0049 11.2894C22.55 11.3155 22.9394 11.0285 23.16 10.7936C23.5883 10.3369 23.8349 9.63223 23.77 9.01894C23.7051 8.37954 23.4326 7.85759 23.0043 7.54442C22.576 7.23125 22.0698 7.25735 21.5247 7.28344C21.382 7.28344 21.2392 7.29649 21.0834 7.29649C20.4864 7.29649 19.9543 7.06161 19.4222 6.82674C19.3703 6.80064 19.3184 6.77454 19.2665 6.76149C18.6824 6.53966 18.1892 6.37003 17.6701 6.37003ZM20.4994 11.3808C20.4994 11.3938 20.4994 11.3938 20.4994 11.3808Z" fill="#7A7A00"/>
<path d="M19.8893 10.8198C19.8764 10.8068 19.8244 10.8329 19.7206 10.8459C19.6687 10.859 19.6038 10.859 19.5389 10.859C19.5 10.859 19.461 10.8459 19.4221 10.8459C19.3832 10.8329 19.3442 10.8198 19.3053 10.8068C19.2274 10.7807 19.1366 10.7285 19.0587 10.6763C18.9808 10.6111 18.9159 10.5458 18.864 10.4545C18.8121 10.3631 18.7732 10.2588 18.7602 10.1544C18.7472 10.05 18.7472 9.93253 18.7602 9.81509C18.7732 9.69765 18.8121 9.59326 18.8511 9.48887C18.903 9.38448 18.9549 9.29314 19.0198 9.21485C19.1496 9.04521 19.3183 8.92777 19.474 8.83643C19.5519 8.79728 19.6168 8.75814 19.6817 8.71899C19.7076 8.70594 19.7466 8.69289 19.7725 8.67984C19.7985 8.6668 19.8244 8.65375 19.8504 8.6407C19.9413 8.60155 20.0061 8.5624 19.9932 8.53631C19.9932 8.51021 19.9283 8.49716 19.8115 8.52326C19.7855 8.52326 19.7466 8.53631 19.7206 8.53631C19.6817 8.54936 19.6557 8.54936 19.6168 8.5624C19.5389 8.5885 19.461 8.6146 19.3702 8.65375C19.1885 8.73204 18.9938 8.86253 18.8381 9.05826C18.6694 9.25399 18.5525 9.50192 18.5266 9.77594C18.5136 9.90643 18.5136 10.05 18.5396 10.1805C18.5655 10.3109 18.6174 10.4414 18.6953 10.5458C18.7732 10.6502 18.864 10.7416 18.9679 10.8068C19.0717 10.872 19.1625 10.9112 19.2664 10.9373C19.3183 10.9503 19.3572 10.9634 19.4091 10.9634C19.461 10.9634 19.5 10.9634 19.5389 10.9634C19.6168 10.9634 19.6947 10.9373 19.7466 10.9242C19.8504 10.872 19.9023 10.8198 19.8893 10.8198Z" fill="#98A000"/>
<path d="M18.0335 11.4723C18.0335 11.4592 17.9557 11.4853 17.8388 11.5114C17.774 11.5245 17.7091 11.5245 17.6182 11.5245C17.5793 11.5245 17.5274 11.5114 17.4884 11.5114C17.4365 11.4984 17.3976 11.4853 17.3457 11.4723C17.2418 11.4331 17.151 11.381 17.0601 11.3157C16.9693 11.2505 16.8784 11.1591 16.8135 11.0547C16.7487 10.9503 16.6967 10.8329 16.6578 10.7024C16.6189 10.5719 16.6059 10.4414 16.6189 10.2979C16.6189 10.1674 16.6448 10.0239 16.6838 9.89339C16.7227 9.7629 16.7746 9.64546 16.8395 9.52802C16.9693 9.30619 17.138 9.12351 17.2808 8.97997C17.3586 8.90168 17.4365 8.84948 17.5014 8.78424C17.5663 8.73204 17.6312 8.67985 17.6831 8.6407C17.7869 8.56241 17.8388 8.51021 17.8259 8.48412C17.8129 8.45802 17.735 8.48412 17.6182 8.53631C17.5533 8.56241 17.4884 8.60155 17.4106 8.65375C17.3327 8.70595 17.2418 8.75814 17.164 8.83643C16.9823 8.97997 16.8006 9.1757 16.6448 9.42363C16.4891 9.67156 16.3982 9.98473 16.3853 10.2979C16.3853 10.4545 16.3982 10.6111 16.4501 10.7677C16.4891 10.9242 16.567 11.0547 16.6578 11.1852C16.7487 11.3027 16.8525 11.407 16.9693 11.4723C17.0861 11.5506 17.2029 11.5897 17.3197 11.6158C17.3716 11.6289 17.4365 11.6419 17.4884 11.6419C17.5403 11.6419 17.5923 11.6419 17.6442 11.6419C17.735 11.6419 17.8259 11.6158 17.8778 11.6028C17.9816 11.5375 18.0465 11.4853 18.0335 11.4723Z" fill="#98A000"/>
<path d="M16.5537 12.229C16.5407 12.216 16.4888 12.2682 16.385 12.3204C16.3331 12.3464 16.2682 12.3725 16.1903 12.3986C16.1514 12.4117 16.1124 12.4117 16.0605 12.4247C16.0216 12.4247 15.9697 12.4378 15.9177 12.4378C15.8269 12.4378 15.7101 12.4247 15.6063 12.3986C15.5024 12.3725 15.3986 12.3204 15.3078 12.2421C15.2169 12.1768 15.1261 12.0855 15.0612 11.9811C14.9963 11.8767 14.9444 11.7593 14.9054 11.6418C14.8665 11.5244 14.8535 11.3939 14.8535 11.2634C14.8535 11.1329 14.8665 11.0155 14.8924 10.898C14.9444 10.6632 15.0482 10.4544 15.152 10.2847C15.2039 10.1934 15.2558 10.1282 15.2948 10.0499C15.3467 9.98461 15.3856 9.91937 15.4246 9.88022C15.4895 9.78888 15.5284 9.72364 15.5154 9.69754C15.5024 9.68449 15.4375 9.71059 15.3337 9.78888C15.2818 9.82803 15.2299 9.88022 15.165 9.94547C15.1001 10.0107 15.0482 10.089 14.9833 10.1673C14.8535 10.3369 14.7367 10.5718 14.6718 10.8458C14.6069 11.1199 14.6069 11.42 14.6978 11.7071C14.7367 11.8506 14.8146 11.9811 14.8924 12.1116C14.9833 12.229 15.0871 12.3334 15.2039 12.4117C15.3207 12.49 15.4505 12.5422 15.5803 12.5683C15.7101 12.5944 15.8269 12.5944 15.9437 12.5944C15.9956 12.5944 16.0475 12.5813 16.0994 12.5683C16.1514 12.5552 16.1903 12.5422 16.2292 12.5161C16.3071 12.4769 16.372 12.4378 16.4239 12.3986C16.5277 12.3073 16.5537 12.2421 16.5537 12.229Z" fill="#98A000"/>
<path d="M15.957 13.4298C15.957 13.4298 15.931 13.4298 15.918 13.4559C15.8921 13.4689 15.8661 13.5081 15.8272 13.5342C15.7493 13.5994 15.6195 13.6908 15.4638 13.7691C15.3081 13.8473 15.1004 13.9126 14.8798 13.9387C14.6591 13.9648 14.4255 13.9517 14.1919 13.8865C14.0751 13.8473 13.9713 13.8082 13.8804 13.756C13.8545 13.743 13.8285 13.7299 13.8025 13.7169C13.7766 13.7038 13.7506 13.6908 13.7377 13.6647C13.6987 13.6386 13.6598 13.5994 13.6208 13.5603C13.4651 13.4037 13.3743 13.2341 13.3223 13.0644C13.2704 12.9078 13.2834 12.7643 13.3094 12.6599C13.3353 12.5686 13.3613 12.5033 13.3353 12.4903C13.3223 12.4772 13.3094 12.4903 13.2834 12.5033C13.2575 12.5294 13.2315 12.5555 13.1926 12.6077C13.1666 12.6599 13.1406 12.7251 13.1277 12.8165C13.1147 12.8948 13.1147 12.9992 13.1406 13.1036C13.1796 13.3123 13.2834 13.5342 13.4651 13.7169C13.6468 13.8995 13.8934 14.03 14.153 14.1083C14.4125 14.1736 14.6851 14.1866 14.9317 14.1344C15.1783 14.0953 15.3859 14.0039 15.5546 13.8995C15.7234 13.7951 15.8402 13.6777 15.9051 13.5864C15.944 13.5472 15.97 13.5081 15.9829 13.482C15.957 13.4559 15.957 13.4298 15.957 13.4298Z" fill="#98A000"/>
<path d="M20.3692 10.128C20.3692 10.128 20.3692 10.1019 20.3562 10.0758C20.3562 10.0628 20.3432 10.0498 20.3303 10.0237C20.3303 10.0106 20.3173 9.99755 20.3173 9.99755C20.3173 9.98451 20.3043 9.97146 20.2913 9.95841C20.2783 9.93231 20.2524 9.90621 20.2394 9.88012C20.2135 9.85402 20.1875 9.82792 20.1615 9.78877C20.1356 9.76268 20.0967 9.72353 20.0707 9.69743C20.0318 9.65829 19.9928 9.63219 19.9539 9.60609C19.9409 9.59304 19.9279 9.59304 19.9279 9.57999C19.915 9.56694 19.902 9.56694 19.889 9.55389C19.863 9.54085 19.8371 9.5278 19.8241 9.5017C19.7981 9.48865 19.7722 9.4756 19.7462 9.46255C19.7203 9.4495 19.6943 9.43646 19.6684 9.42341C19.6424 9.41036 19.6164 9.39731 19.5775 9.38426C19.5516 9.37121 19.5126 9.35816 19.4867 9.34511C19.4737 9.34511 19.4607 9.33207 19.4347 9.33207C19.4218 9.33207 19.3958 9.31902 19.3828 9.31902C19.3699 9.31902 19.3439 9.30597 19.3309 9.30597C19.3179 9.30597 19.292 9.29292 19.279 9.29292C19.2401 9.27987 19.2011 9.27987 19.1752 9.26682C19.1362 9.25377 19.0973 9.25377 19.0584 9.24072C19.0194 9.22768 18.9805 9.22767 18.9416 9.22767C18.9156 9.22767 18.9026 9.22767 18.8767 9.21463C18.8507 9.21463 18.8377 9.21463 18.8118 9.21463C18.6431 9.20158 18.4614 9.20158 18.2797 9.22767C17.9163 9.26682 17.5269 9.39731 17.1635 9.57999C16.9818 9.67133 16.7871 9.77573 16.6054 9.89316C16.5665 9.91926 16.5146 9.95841 16.4756 9.98451C16.4367 10.0106 16.3848 10.0497 16.3459 10.0758C16.255 10.1411 16.1642 10.2063 16.0863 10.2716C15.9046 10.4151 15.7359 10.5587 15.5671 10.7152C15.4893 10.7935 15.3984 10.8718 15.3206 10.9632C15.2816 11.0023 15.2427 11.0415 15.2037 11.0937C15.1648 11.1328 15.1259 11.185 15.0869 11.2241C14.9312 11.3938 14.7755 11.5765 14.6197 11.7591L14.5678 11.8244L14.5159 11.8896L14.4121 12.0332C14.3472 12.1245 14.2693 12.2289 14.2044 12.3202C13.9319 12.7117 13.6853 13.1162 13.4516 13.5207C13.218 13.9252 13.0104 14.3298 12.8287 14.7343C12.634 15.1388 12.4653 15.5172 12.3095 15.8956C12.1538 16.261 12.011 16.6133 11.8812 16.9395C11.7515 17.2657 11.6347 17.5789 11.5698 17.866C11.4919 18.1531 11.453 18.414 11.44 18.6228C11.427 18.8316 11.453 19.0012 11.4789 19.1187C11.5049 19.2361 11.5438 19.2883 11.5698 19.2883C11.5957 19.2883 11.6217 19.2231 11.6347 19.1187C11.6606 19.0143 11.6866 18.8577 11.7255 18.662C11.7644 18.4662 11.8423 18.2444 11.9332 17.9834C12.024 17.7225 12.1538 17.4354 12.3095 17.1222C12.608 16.4959 12.9325 15.7521 13.3219 14.9692C13.5165 14.5777 13.7112 14.1862 13.9319 13.7948C14.1525 13.4033 14.3861 13.0118 14.6457 12.6334C14.7106 12.5421 14.7755 12.4507 14.8403 12.3594L14.9442 12.2159L14.9961 12.1506L15.048 12.0854C15.1908 11.9027 15.3335 11.733 15.4763 11.5634C15.5152 11.5243 15.5542 11.4851 15.5931 11.4329C15.632 11.3938 15.671 11.3546 15.7099 11.3155C15.7878 11.2372 15.8657 11.1589 15.9435 11.0806C16.0993 10.924 16.255 10.7805 16.4237 10.65C16.5016 10.5848 16.5925 10.5195 16.6703 10.4543C16.7093 10.4151 16.7482 10.389 16.7871 10.3629C16.8261 10.3368 16.865 10.2977 16.9039 10.2716C17.0727 10.1541 17.2284 10.0498 17.3971 9.95841C17.7346 9.77573 18.072 9.64524 18.3835 9.57999C18.5392 9.5539 18.695 9.54085 18.8507 9.54085C18.8637 9.54085 18.8896 9.54085 18.9026 9.54085C18.9156 9.54085 18.9416 9.54085 18.9545 9.54085C18.9935 9.54085 19.0324 9.54085 19.0584 9.55389C19.0973 9.55389 19.1233 9.56694 19.1622 9.56694C19.2011 9.56694 19.2271 9.57999 19.266 9.57999C19.279 9.57999 19.305 9.57999 19.3179 9.59304C19.3309 9.59304 19.3439 9.60609 19.3699 9.60609C19.3828 9.60609 19.3958 9.61914 19.4218 9.61914C19.4347 9.61914 19.4477 9.63219 19.4607 9.63219C19.4867 9.64524 19.5256 9.64524 19.5516 9.65829C19.5775 9.67133 19.6035 9.68438 19.6294 9.68438C19.6554 9.69743 19.6813 9.71048 19.7073 9.71048C19.7333 9.72353 19.7592 9.73658 19.7852 9.73658C19.8111 9.74963 19.8371 9.76268 19.8501 9.77573C19.863 9.77573 19.876 9.78877 19.889 9.78877C19.902 9.78877 19.915 9.80182 19.915 9.80182C19.9539 9.82792 19.9928 9.85402 20.0318 9.86707C20.0707 9.89316 20.0967 9.90621 20.1356 9.93231C20.1615 9.95841 20.1875 9.97146 20.2135 9.99755C20.2394 10.0237 20.2654 10.0367 20.2784 10.0498C20.2913 10.0628 20.3043 10.0628 20.3043 10.0758C20.3173 10.0889 20.3173 10.0889 20.3303 10.1019C20.3432 10.115 20.3562 10.128 20.3692 10.1411C20.3562 10.128 20.3692 10.128 20.3692 10.128Z" fill="#F34C7C"/>
<path d="M4.08113 8.69263C4.06815 8.69263 4.05518 8.74482 4.05518 8.84921C4.05518 8.90141 4.05518 8.9536 4.05518 9.0319C4.05518 9.09714 4.06815 9.18848 4.08113 9.27982C4.08113 9.33202 4.09411 9.37117 4.10709 9.42336C4.12007 9.47556 4.12007 9.52775 4.13305 9.57995C4.13305 9.593 4.13305 9.60604 4.14603 9.61909C4.14603 9.63214 4.14603 9.64519 4.159 9.65824C4.159 9.68434 4.17198 9.71043 4.17198 9.74958C4.18496 9.81482 4.19794 9.86702 4.21092 9.93226C4.2239 9.99751 4.24985 10.0628 4.26283 10.128C4.27581 10.1671 4.27581 10.1932 4.28879 10.2324C4.30177 10.2715 4.31475 10.2976 4.32773 10.3368C4.35368 10.402 4.37964 10.4803 4.4056 10.5456C4.43155 10.6108 4.45751 10.6891 4.49645 10.7674C4.62623 11.0545 4.78197 11.3676 4.97665 11.6808C5.17133 11.994 5.40494 12.2941 5.67749 12.5942C5.69047 12.6073 5.71643 12.6334 5.72941 12.6464C5.74238 12.6595 5.76834 12.6856 5.78132 12.6986C5.82025 12.7378 5.85919 12.7639 5.88515 12.803C5.95004 12.8813 6.04089 12.9465 6.11876 13.0118C6.19663 13.077 6.2745 13.1423 6.35237 13.2075C6.39131 13.2336 6.43025 13.2728 6.48216 13.2989C6.5211 13.325 6.56003 13.3641 6.61194 13.3902C6.94939 13.6381 7.31278 13.86 7.6632 14.0687C7.8449 14.1731 8.01363 14.2906 8.18235 14.395C8.22128 14.4211 8.26022 14.4472 8.31213 14.4733C8.35107 14.4993 8.39 14.5254 8.44192 14.5515C8.48085 14.5776 8.51979 14.6037 8.55872 14.6429C8.59766 14.669 8.63659 14.6951 8.67553 14.7342C8.83127 14.8517 8.98701 14.9691 9.12978 15.0996C9.27254 15.2301 9.41531 15.3475 9.54509 15.4911C9.58403 15.5302 9.60998 15.5563 9.64892 15.5954C9.67488 15.6346 9.71381 15.6607 9.73977 15.6998C9.80466 15.7651 9.86955 15.8303 9.92147 15.8956C9.98636 15.9608 10.0383 16.0261 10.0902 16.1044C10.1421 16.1696 10.194 16.2348 10.2459 16.3131C10.2978 16.3784 10.3498 16.4567 10.3887 16.5219C10.4276 16.5872 10.4795 16.6524 10.5185 16.7307C10.6093 16.8612 10.6742 17.0047 10.7521 17.1352C10.8819 17.3962 10.9857 17.6441 11.0636 17.879C11.1414 18.1139 11.1934 18.3096 11.2193 18.4792C11.2323 18.5184 11.2323 18.5575 11.2453 18.5967C11.2453 18.6097 11.2583 18.6358 11.2583 18.6489C11.2583 18.6619 11.2583 18.6619 11.2583 18.675C11.2583 18.688 11.2583 18.688 11.2583 18.7011C11.2583 18.7402 11.2712 18.7663 11.2712 18.7924C11.2842 18.8185 11.2842 18.8446 11.2842 18.8707C11.3102 18.962 11.3361 19.0142 11.3621 19.0142C11.388 19.0142 11.414 18.962 11.44 18.8707C11.4529 18.8446 11.4529 18.8185 11.4529 18.7924C11.4529 18.7663 11.4659 18.7272 11.4659 18.688C11.4659 18.675 11.4659 18.675 11.4659 18.6619C11.4659 18.6489 11.4659 18.6489 11.4659 18.6358C11.4659 18.6097 11.4659 18.5967 11.4659 18.5706C11.4659 18.5314 11.4659 18.4792 11.4659 18.4401C11.4659 18.2574 11.44 18.0225 11.388 17.7616C11.3361 17.5006 11.2453 17.2135 11.1155 16.9134C11.0506 16.7698 10.9727 16.6133 10.8949 16.4567C10.8559 16.3784 10.804 16.3001 10.7651 16.2218C10.7132 16.1435 10.6742 16.0652 10.6093 15.9869C10.5574 15.9086 10.5055 15.8303 10.4406 15.7651C10.3887 15.6868 10.3238 15.6085 10.2589 15.5433C10.194 15.465 10.1291 15.3997 10.0642 15.3214C10.0253 15.2823 9.99934 15.2431 9.9604 15.217C9.92147 15.1779 9.89551 15.1518 9.85658 15.1126C9.71381 14.9691 9.57105 14.8256 9.41531 14.6951C9.25956 14.5646 9.09084 14.4341 8.92212 14.3036C8.88319 14.2775 8.83127 14.2384 8.79234 14.2123C8.7534 14.1862 8.70149 14.147 8.66255 14.1209C8.62362 14.0948 8.5717 14.0687 8.53277 14.0296C8.49383 14.0035 8.44192 13.9774 8.40298 13.9383C8.22128 13.8208 8.05256 13.7164 7.87086 13.612C7.52044 13.4032 7.15704 13.1945 6.83258 12.9726C6.79364 12.9465 6.75471 12.9204 6.71577 12.8943C6.67684 12.8682 6.6379 12.8421 6.59897 12.803C6.5211 12.7508 6.44322 12.6856 6.36535 12.6203C6.28748 12.5551 6.22259 12.5029 6.14472 12.4376C6.10578 12.4115 6.07983 12.3724 6.04089 12.3463C6.02791 12.3332 6.00195 12.3202 5.98898 12.2941C5.976 12.2811 5.95004 12.255 5.93706 12.2419C5.66451 11.9809 5.4309 11.7069 5.23622 11.4198C5.04154 11.1458 4.87282 10.8587 4.73006 10.5847C4.69112 10.5195 4.66517 10.4542 4.62623 10.389C4.60027 10.3237 4.57432 10.2585 4.53538 10.1932C4.5224 10.1671 4.50942 10.128 4.49645 10.1019C4.48347 10.0758 4.47049 10.0367 4.45751 10.0106C4.43155 9.94531 4.4056 9.89312 4.39262 9.82787C4.36666 9.77568 4.35368 9.71043 4.3407 9.65824C4.32772 9.63214 4.32772 9.60604 4.31475 9.57995C4.31475 9.5669 4.30177 9.55385 4.30177 9.5408C4.30177 9.52775 4.28879 9.5147 4.28879 9.50165C4.27581 9.44946 4.26283 9.39726 4.24985 9.35812C4.23688 9.30592 4.2239 9.26677 4.21092 9.22763C4.18496 9.13629 4.17198 9.05799 4.14603 8.99275C4.13305 8.92751 4.12007 8.86226 4.10709 8.82312C4.12007 8.74482 4.09411 8.69263 4.08113 8.69263Z" fill="#C10025"/>
<path d="M11.5442 17.4615C8.67593 17.0831 3.87387 19.4841 4.12047 23.9206C4.36706 28.3572 10.7914 28.2398 11.3755 29.8318C11.9465 31.4237 10.0906 31.6847 10.0906 31.6847C10.0906 31.6847 12.1152 32.5459 12.8031 31.4759C13.5039 30.4059 13.0237 29.5447 13.439 29.088C13.8544 28.6313 20.2528 26.0868 19.5389 22.0547C18.8251 18.0226 14.4254 17.8399 11.5442 17.4615Z" fill="#EE185D"/>
<path d="M6.00244 19.4318C6.05436 19.4318 6.10627 19.4318 6.15818 19.4318C7.04072 19.471 7.93624 19.5101 8.59815 19.5362C9.26005 19.5623 9.7143 19.5754 9.7143 19.5362C9.7143 19.4971 9.27303 19.4318 8.61112 19.3405C7.98816 19.2622 7.17051 19.1839 6.3269 19.1187C6.22308 19.223 6.11925 19.3274 6.00244 19.4318Z" fill="#C10025"/>
<path d="M5.85921 24.8734C5.9241 24.8734 5.97602 24.8734 6.04091 24.8734C6.09282 24.8734 6.15772 24.8734 6.20963 24.8734C6.32644 24.8734 6.43027 24.8864 6.53409 24.8864C6.63792 24.8864 6.74175 24.8995 6.84558 24.8995C7.63727 24.9386 8.16939 24.9778 8.16939 24.9517C8.16939 24.9256 7.65025 24.8081 6.85856 24.7168C6.75473 24.7037 6.6509 24.6907 6.54707 24.6776C6.44324 24.6646 6.32644 24.6515 6.20963 24.6515C6.15772 24.6515 6.09282 24.6385 6.04091 24.6385C5.97602 24.6385 5.9241 24.6254 5.85921 24.6254C5.7424 24.6124 5.61262 24.6124 5.49581 24.5993C5.0805 24.5732 4.65221 24.5732 4.21094 24.5732C4.23689 24.6776 4.26285 24.769 4.28881 24.8734C4.70412 24.8603 5.10646 24.8603 5.49581 24.8734C5.61262 24.8603 5.72942 24.8734 5.85921 24.8734Z" fill="#C10025"/>
<path d="M4.60032 24.1556C4.88585 24.1425 5.1584 24.1295 5.43095 24.1295C5.56073 24.1295 5.69052 24.1295 5.80733 24.1164C5.87222 24.1164 5.92413 24.1164 5.98902 24.1164C6.04094 24.1164 6.10583 24.1164 6.15775 24.1164C6.58604 24.1164 6.87156 24.1164 6.87156 24.0773C6.87156 24.0382 6.59901 23.9729 6.17072 23.9207C6.11881 23.9077 6.0669 23.9077 6.002 23.9077C5.95009 23.9077 5.8852 23.8946 5.8203 23.8946C5.7035 23.8816 5.57371 23.8685 5.43095 23.8685C5.1584 23.8555 4.87287 23.8555 4.58734 23.8555C4.4316 23.8555 4.27586 23.8685 4.12012 23.8816C4.12012 23.8946 4.12012 23.9207 4.12012 23.9338C4.12012 24.0251 4.1331 24.1034 4.14607 24.1947C4.30182 24.1686 4.45756 24.1556 4.60032 24.1556Z" fill="#C10025"/>
<path d="M12.9847 19.9018C12.9717 19.967 13.3351 20.0584 13.8802 20.1628C14.1528 20.215 14.4643 20.2802 14.8017 20.3585C15.1391 20.4368 15.4896 20.5151 15.853 20.5934C16.2034 20.6847 16.5668 20.7761 16.8912 20.8674C17.2287 20.9587 17.5272 21.0501 17.7997 21.1284C18.3319 21.285 18.6823 21.3894 18.6953 21.3633C18.7082 21.3372 18.3708 21.1675 17.8646 20.9587C17.6051 20.8544 17.3066 20.7369 16.9691 20.6325C16.6447 20.5281 16.2813 20.4107 15.9179 20.3194C15.5545 20.228 15.1911 20.1367 14.8536 20.0714C14.5162 20.0062 14.1917 19.954 13.9192 19.9279C13.3611 19.8365 12.9977 19.8365 12.9847 19.9018Z" fill="#C10025"/>
<path d="M11.9982 26.6217C12.5433 26.6608 13.0884 26.7 13.5946 26.7522C14.1007 26.8043 14.5809 26.8435 14.9833 26.8957C15.8009 26.987 16.346 27.0392 16.346 27.0131C16.346 26.987 15.8139 26.8565 15.0092 26.713C14.6069 26.6347 14.1267 26.5695 13.6205 26.5042C13.1143 26.439 12.5693 26.3737 12.0242 26.3346C11.4791 26.2824 10.934 26.2563 10.4148 26.2302C9.89568 26.2171 9.41547 26.2041 9.01314 26.2041C8.19549 26.2172 7.65039 26.2693 7.65039 26.3346C7.65039 26.3998 8.19549 26.439 9.01314 26.4781C9.41547 26.4912 9.89567 26.5173 10.4018 26.5434C10.908 26.5434 11.4531 26.5825 11.9982 26.6217Z" fill="#C10025"/>
<path d="M18.7081 22.7987C18.3966 22.7073 18.1111 22.6421 17.8645 22.5899C17.3713 22.4855 17.0209 22.4594 17.0209 22.4855C17.0079 22.5246 17.3324 22.616 17.8126 22.7726C18.0592 22.8509 18.3317 22.9422 18.6302 23.0466C18.9287 23.151 19.2272 23.2684 19.5387 23.3989C19.5647 23.2945 19.5777 23.1901 19.5906 23.0857C19.2921 22.9813 18.9936 22.877 18.7081 22.7987Z" fill="#C10025"/>
<path d="M17.8257 23.738C18.1113 23.8424 18.28 23.8946 18.28 23.8816C18.293 23.8685 18.1372 23.7772 17.8647 23.6467C17.5921 23.5162 17.2028 23.3205 16.7226 23.1117C16.2424 22.9029 15.6843 22.655 15.0613 22.4332C14.7498 22.3157 14.4254 22.2113 14.1009 22.1069C13.7764 22.0025 13.439 21.9112 13.0886 21.8199C12.7511 21.7285 12.4007 21.6633 12.0633 21.598C11.7258 21.5328 11.3884 21.4806 11.0639 21.4414C10.415 21.3501 9.79203 21.311 9.27289 21.2979C8.74077 21.2849 8.31248 21.311 8.001 21.3371C7.92313 21.3371 7.85823 21.3501 7.79334 21.3631C7.72845 21.3762 7.68951 21.3762 7.6376 21.3892C7.55973 21.4023 7.50781 21.4284 7.50781 21.4414C7.50781 21.5197 8.20865 21.5067 9.24693 21.5719C9.76608 21.6111 10.3761 21.6633 11.012 21.7546C11.3365 21.7938 11.6609 21.859 11.9984 21.9112C12.3358 21.9764 12.6733 22.0417 13.0107 22.133C14.3605 22.4462 15.6583 22.929 16.6447 23.3074C17.1379 23.4771 17.5402 23.6336 17.8257 23.738Z" fill="#C10025"/>
<path d="M15.6711 25.9172C15.3337 25.852 14.9833 25.8128 14.7237 25.8128C14.4641 25.7998 14.2824 25.8259 14.2824 25.8911C14.2695 25.9564 14.4382 26.0216 14.6978 26.0738C14.9573 26.126 15.2948 26.1782 15.6322 26.2173C15.9696 26.2565 16.3201 26.2956 16.5796 26.3087C16.8392 26.3217 17.0079 26.3217 17.0209 26.2956C17.0209 26.2565 16.8652 26.1912 16.6186 26.126C16.359 26.0477 16.0216 25.9694 15.6711 25.9172Z" fill="#C10025"/>
<path d="M11.1505 22.0522C11.8651 21.3337 11.8651 20.1688 11.1505 19.4502C10.4358 18.7317 9.27717 18.7317 8.56253 19.4502C7.84789 20.1688 7.84789 21.3337 8.56253 22.0522C9.27717 22.7707 10.4358 22.7707 11.1505 22.0522Z" fill="#C10025"/>
<path d="M11.609 20.6061C11.2326 19.6666 10.1683 19.1968 9.23389 19.5753C8.29944 19.9537 7.83221 21.0237 8.20859 21.9632C8.26051 22.0806 8.31242 22.1981 8.39029 22.3025C8.74071 22.3286 9.07815 22.4591 9.31177 22.7331C9.40262 22.8375 9.46751 22.9549 9.51942 23.0723C9.86984 23.1506 10.2332 23.1245 10.5837 22.981C11.5181 22.6287 11.9853 21.5587 11.609 20.6061Z" fill="white"/>
<path d="M8.07861 21.1803C8.23436 20.6583 8.61073 20.2147 9.15583 19.9928C10.0903 19.6144 11.1545 20.0711 11.5309 21.0237C11.6347 21.2847 11.6737 21.5456 11.6607 21.8066C11.7775 21.4282 11.7645 20.9976 11.6088 20.6061C11.2324 19.6666 10.1682 19.1968 9.2337 19.5753C8.54584 19.8493 8.11755 20.4887 8.07861 21.1803Z" fill="#D9E3F9"/>
<path d="M9.50604 20.1366C9.29838 20.2801 9.15562 20.4628 9.05179 20.6716L9.90837 21.2979L8.96094 21.4806C8.99987 21.6502 9.06477 21.8068 9.15562 21.9503C9.55795 22.5506 10.3756 22.6941 10.9596 22.2896C11.5566 21.8851 11.6994 21.063 11.2971 20.4758C10.9077 19.8756 10.103 19.719 9.50604 20.1366Z" fill="#03060C"/>
<path d="M11.2272 21.1654C11.2575 20.7774 11.0851 20.4474 10.8421 20.4282C10.5992 20.409 10.3777 20.7079 10.3474 21.0959C10.3171 21.4838 10.4894 21.8139 10.7324 21.8331C10.9753 21.8523 11.1969 21.5533 11.2272 21.1654Z" fill="#70001B"/>
<path d="M13.5687 22.5113C14.5794 22.5113 15.3987 21.6876 15.3987 20.6714C15.3987 19.6553 14.5794 18.8315 13.5687 18.8315C12.5581 18.8315 11.7388 19.6553 11.7388 20.6714C11.7388 21.6876 12.5581 22.5113 13.5687 22.5113Z" fill="#C10025"/>
<path d="M14.0489 22.7201C14.1917 22.5765 14.3734 22.4721 14.5421 22.3678C14.6848 22.2895 14.8276 22.2112 14.9833 22.1851C15.0223 22.172 15.0612 22.172 15.1131 22.1851C15.5544 21.4674 15.4635 20.5148 14.8406 19.9015C14.1138 19.1969 12.9587 19.2099 12.2579 19.9276C11.557 20.6584 11.57 21.8197 12.2838 22.5243C12.6991 22.9289 13.2572 23.0985 13.7893 23.0332C13.8542 22.9158 13.9451 22.8114 14.0489 22.7201Z" fill="white"/>
<path d="M11.8426 21.8587C11.7777 21.3237 11.9464 20.7496 12.3487 20.332C13.0496 19.6013 14.2176 19.5882 14.9315 20.3059C15.1261 20.5016 15.2689 20.7235 15.3598 20.9714C15.3078 20.5799 15.1261 20.1885 14.8276 19.8883C14.1008 19.1837 12.9458 19.1968 12.2449 19.9144C11.7387 20.4494 11.596 21.2193 11.8426 21.8587Z" fill="#D9E3F9"/>
<path d="M14.1785 22.2764C14.3473 22.0937 14.4641 21.8849 14.516 21.6631L13.5556 21.2194L14.4381 20.8541C14.3732 20.6975 14.2824 20.554 14.1526 20.4235C13.6334 19.9146 12.8158 19.9276 12.3096 20.4496C11.8035 20.9715 11.8165 21.7936 12.3356 22.3025C12.8547 22.7983 13.6724 22.7853 14.1785 22.2764Z" fill="#03060C"/>
<path d="M12.8601 21.8944C13.1021 21.8654 13.2611 21.5286 13.2153 21.1422C13.1694 20.7557 12.936 20.466 12.694 20.495C12.452 20.5241 12.293 20.8609 12.3389 21.2473C12.3848 21.6337 12.6181 21.9235 12.8601 21.8944Z" fill="#70001B"/>
<path d="M15.9179 24.0643C15.9179 24.0513 15.8271 24.0513 15.6973 24.0513C15.6324 24.0513 15.5416 24.0643 15.4507 24.0643C15.3599 24.0643 15.243 24.0774 15.1262 24.0643C15.0094 24.0643 14.8796 24.0513 14.7628 24.0121C14.6979 23.9991 14.6331 23.973 14.5682 23.9599C14.5033 23.9338 14.4514 23.9077 14.3865 23.8686C14.2697 23.7903 14.1658 23.6989 14.088 23.5815C14.049 23.5293 14.0231 23.4641 13.9971 23.3988C13.9712 23.3336 13.9582 23.2683 13.9582 23.2031C13.9582 23.177 13.9582 23.1378 13.9582 23.1118C13.9582 23.0987 13.9582 23.0857 13.9712 23.0596C13.9712 23.0465 13.9841 23.0335 13.9841 23.0204C13.9971 22.9552 14.036 22.903 14.075 22.8508C14.1529 22.7464 14.2567 22.655 14.3735 22.5898C14.4254 22.5507 14.4903 22.5246 14.5552 22.4985C14.5811 22.4854 14.6201 22.4724 14.646 22.4593C14.672 22.4463 14.7109 22.4332 14.7369 22.4202C14.8537 22.381 14.9835 22.3419 15.0873 22.3158C15.5286 22.2114 15.8401 22.2766 15.853 22.2114C15.866 22.1853 15.7881 22.1331 15.6454 22.0809C15.5675 22.0678 15.4896 22.0417 15.3858 22.0417C15.282 22.0417 15.1652 22.0417 15.0354 22.0548C14.9056 22.0678 14.7758 22.107 14.6331 22.1461C14.4903 22.1853 14.3475 22.2505 14.2048 22.3288C14.1399 22.368 14.062 22.4202 13.9971 22.4724C13.9322 22.5246 13.8673 22.6028 13.8154 22.6681C13.7635 22.7464 13.7116 22.8377 13.6856 22.9291C13.6726 22.9552 13.6726 22.9813 13.6726 23.0074C13.6726 23.0335 13.6597 23.0596 13.6597 23.0857C13.6597 23.1378 13.6597 23.19 13.6597 23.2292C13.6726 23.3336 13.6856 23.4249 13.7246 23.5163C13.7635 23.6076 13.8024 23.6859 13.8673 23.7511C13.9712 23.8947 14.1139 24.0121 14.2567 24.0904C14.3346 24.1296 14.4124 24.1687 14.4903 24.1818C14.5682 24.2079 14.646 24.2209 14.7109 24.2339C14.8537 24.26 14.9965 24.26 15.1262 24.247C15.256 24.2339 15.3599 24.2209 15.4637 24.1948C15.5675 24.1687 15.6454 24.1557 15.7103 24.1296C15.853 24.1165 15.9179 24.0774 15.9179 24.0643Z" fill="#B20B18"/>
<path d="M7.31317 24.2339C7.31317 24.2469 7.32615 24.26 7.35211 24.2861C7.36509 24.2991 7.39105 24.3122 7.417 24.3252C7.44296 24.3383 7.46892 24.3644 7.50785 24.3774C7.57274 24.4166 7.66359 24.4427 7.76742 24.4688C7.81934 24.4818 7.87125 24.4818 7.93614 24.4949C8.00104 24.4949 8.05295 24.4949 8.11784 24.4949C8.24763 24.4818 8.39039 24.4557 8.53316 24.4035C8.59805 24.3774 8.67592 24.3513 8.74081 24.3122C8.8057 24.273 8.88358 24.2339 8.94847 24.1817C9.01336 24.1295 9.07825 24.0773 9.14315 24.0121C9.20804 23.9468 9.25995 23.8816 9.31187 23.8033C9.36378 23.725 9.40272 23.6467 9.44165 23.5553C9.48059 23.464 9.50654 23.3727 9.50654 23.2683C9.50654 23.1639 9.49357 23.0595 9.45463 22.9681C9.41569 22.8768 9.36378 22.7855 9.29889 22.7202C9.23399 22.6419 9.1691 22.5897 9.09123 22.5375C9.01336 22.4853 8.94847 22.4462 8.8706 22.407C8.55911 22.2635 8.24763 22.2244 7.97508 22.2505C7.84529 22.2635 7.72849 22.2766 7.62466 22.3157C7.5987 22.3288 7.57274 22.3288 7.54679 22.3418C7.52083 22.3549 7.49487 22.3549 7.48189 22.3679C7.44296 22.3809 7.40402 22.407 7.36509 22.4201C7.35211 22.4201 7.35211 22.4331 7.33913 22.4331C7.32615 22.4331 7.32615 22.4462 7.31317 22.4462C7.3002 22.4592 7.28722 22.4592 7.27424 22.4723C7.24828 22.4853 7.2353 22.5114 7.20935 22.5245C7.18339 22.5506 7.17041 22.5767 7.17041 22.5897C7.18339 22.6028 7.20935 22.6158 7.24828 22.6028C7.27424 22.6028 7.28722 22.6028 7.31317 22.5897C7.32615 22.5897 7.33913 22.5897 7.35211 22.5767C7.36509 22.5767 7.36509 22.5767 7.37807 22.5767C7.39105 22.5767 7.39104 22.5767 7.40402 22.5767C7.44296 22.5767 7.48189 22.5636 7.52083 22.5506C7.54679 22.5506 7.55977 22.5375 7.58572 22.5375C7.61168 22.5375 7.62466 22.5375 7.65062 22.5245C7.74147 22.5114 7.84529 22.5114 7.9621 22.5114C8.07891 22.5114 8.19571 22.5245 8.3255 22.5506C8.35146 22.5636 8.39039 22.5636 8.41635 22.5767C8.44231 22.5897 8.48124 22.5897 8.5072 22.6028C8.52018 22.6028 8.53316 22.6158 8.55911 22.6158C8.57209 22.6158 8.58507 22.6289 8.61103 22.6289C8.64996 22.6419 8.67592 22.655 8.70188 22.668C8.81868 22.7333 8.93549 22.8116 9.02634 22.916C9.06527 22.9681 9.10421 23.0203 9.13017 23.0856C9.15612 23.1378 9.1691 23.203 9.1691 23.2683C9.1691 23.3335 9.15612 23.3988 9.13017 23.464C9.10421 23.5292 9.07825 23.5945 9.03932 23.6597C9.00038 23.725 8.96145 23.7772 8.90953 23.8294C8.85762 23.8816 8.8057 23.9338 8.75379 23.9729C8.70188 24.0121 8.63698 24.0642 8.58507 24.0903C8.53315 24.1295 8.46826 24.1556 8.40337 24.1817C8.28656 24.2339 8.16976 24.273 8.05295 24.2861C7.83231 24.3252 7.62466 24.2991 7.49487 24.273C7.45594 24.26 7.42998 24.26 7.40402 24.2469C7.37807 24.2339 7.35211 24.2339 7.33913 24.2339C7.33913 24.2208 7.32615 24.2208 7.31317 24.2339Z" fill="#B20B18"/>
<path d="M13.7503 23.1246C13.7503 23.1116 13.7243 23.1246 13.6854 23.1377C13.6465 23.1507 13.6075 23.1768 13.5426 23.2029C13.4258 23.2551 13.2441 23.3465 13.0365 23.4248C12.8288 23.5161 12.5822 23.6074 12.3097 23.6727C12.1799 23.7118 12.0371 23.7379 11.8944 23.764C11.7516 23.7901 11.6088 23.8032 11.4531 23.8032C11.3103 23.8032 11.1676 23.8032 11.0248 23.7901C10.9859 23.7901 10.9599 23.7771 10.921 23.7771C10.908 23.7771 10.882 23.7771 10.8691 23.764C10.8561 23.764 10.8301 23.764 10.8172 23.751C10.7782 23.751 10.7523 23.7379 10.7133 23.7379C10.6744 23.7249 10.6484 23.7249 10.6095 23.7118C10.3499 23.6466 10.1033 23.5552 9.90866 23.4509C9.71398 23.3465 9.57122 23.2421 9.45441 23.1768C9.4025 23.1377 9.36356 23.1116 9.32463 23.0985C9.28569 23.0855 9.27271 23.0724 9.25973 23.0855C9.24676 23.0985 9.24676 23.1246 9.25973 23.1507C9.27271 23.1899 9.29867 23.2421 9.3376 23.2943C9.41548 23.4117 9.57122 23.5552 9.7659 23.6857C9.97355 23.8162 10.2331 23.9337 10.5187 24.0119C10.5576 24.025 10.5965 24.025 10.6355 24.038C10.6744 24.0511 10.7133 24.0511 10.7523 24.0641C10.7652 24.0641 10.7912 24.0772 10.8042 24.0772C10.8172 24.0772 10.8431 24.0772 10.8561 24.0902C10.895 24.0902 10.934 24.1033 10.9729 24.1033C11.1286 24.1163 11.2974 24.1163 11.4531 24.1163C11.6088 24.1033 11.7776 24.0772 11.9203 24.0511C12.0761 24.0119 12.2188 23.9728 12.3616 23.9337C12.6471 23.8423 12.8937 23.7249 13.1014 23.6074C13.309 23.49 13.4648 23.3856 13.5686 23.2943C13.6205 23.2551 13.6595 23.216 13.6854 23.1899C13.7503 23.1377 13.7503 23.1246 13.7503 23.1246Z" fill="#B20B18"/>
<path d="M12.5563 24.9514C12.5563 24.9514 12.5433 24.9514 12.5303 24.9645C12.5174 24.9775 12.5044 24.9906 12.4784 25.0036C12.4395 25.0428 12.3746 25.0949 12.2837 25.1471C12.2059 25.1993 12.102 25.2515 11.9852 25.2776C11.9333 25.2907 11.8684 25.3037 11.8035 25.3168C11.7387 25.3298 11.6738 25.3298 11.6218 25.3298C11.557 25.3298 11.4921 25.3168 11.4401 25.3037C11.3753 25.2907 11.3233 25.2776 11.2714 25.2515C11.1676 25.2124 11.0638 25.1602 10.9859 25.108C10.908 25.0558 10.8431 25.0036 10.8042 24.9645C10.7782 24.9514 10.7653 24.9384 10.7523 24.9253C10.7393 24.9123 10.7263 24.9123 10.7133 24.9253C10.7004 24.9253 10.7004 24.9384 10.7133 24.9645C10.7133 24.9775 10.7263 25.0036 10.7393 25.0297C10.7653 25.0819 10.8302 25.1602 10.908 25.2254C10.9859 25.2907 11.0897 25.369 11.2195 25.4081C11.2844 25.4342 11.3493 25.4473 11.4142 25.4734C11.4791 25.4864 11.557 25.4995 11.6218 25.4995C11.6997 25.4995 11.7646 25.4864 11.8295 25.4864C11.8944 25.4734 11.9593 25.4603 12.0242 25.4342C12.154 25.382 12.2578 25.3168 12.3357 25.2515C12.4135 25.1863 12.4784 25.121 12.5044 25.0689C12.5174 25.0428 12.5303 25.0167 12.5433 25.0036C12.5563 24.9645 12.5563 24.9645 12.5563 24.9514Z" fill="#B20B18"/>
<path d="M12.9198 16.7701C12.9328 16.8223 12.9717 16.8614 13.0366 16.8745C13.0496 16.8745 13.0756 16.8875 13.0885 16.8875C13.1015 16.8875 13.1275 16.9006 13.1534 16.9006C13.1794 16.9006 13.1924 16.9006 13.2183 16.9006C13.2443 16.9006 13.2702 16.9006 13.2962 16.9136C13.3221 16.9136 13.3481 16.9136 13.3741 16.9136C13.4 16.9136 13.426 16.9136 13.4649 16.9267C13.4779 16.9267 13.4909 16.9267 13.5038 16.9267C13.5168 16.9267 13.5298 16.9267 13.5558 16.9267C13.5817 16.9267 13.6207 16.9267 13.6466 16.9397C13.7764 16.9528 13.9062 16.9789 14.0489 17.018C14.1787 17.0572 14.3215 17.0963 14.4383 17.1485C14.4643 17.1616 14.5032 17.1746 14.5291 17.1877C14.5421 17.2007 14.5551 17.2007 14.5681 17.2138C14.5811 17.2268 14.594 17.2268 14.607 17.2399C14.633 17.2529 14.6589 17.2659 14.6849 17.279C14.7108 17.292 14.7368 17.3051 14.7628 17.3312C14.7887 17.3442 14.8147 17.3573 14.8277 17.3703C14.8536 17.3834 14.8666 17.3964 14.8796 17.4095C14.8925 17.4225 14.9185 17.4356 14.9315 17.4486C14.9445 17.4617 14.9574 17.4747 14.9704 17.4878C15.0223 17.5269 15.0483 17.553 15.0483 17.553C15.0483 17.553 15.0353 17.5139 14.9964 17.4617C14.9834 17.4486 14.9834 17.4356 14.9704 17.4095C14.9574 17.3964 14.9445 17.3703 14.9315 17.3573C14.9185 17.3312 14.9055 17.3181 14.8925 17.292C14.8796 17.2659 14.8536 17.2529 14.8406 17.2268C14.8277 17.2007 14.8017 17.1746 14.7887 17.1485C14.7628 17.1224 14.7498 17.0963 14.7238 17.0702C14.7108 17.0572 14.6979 17.0441 14.6849 17.0311C14.6719 17.018 14.6589 17.005 14.646 16.9919C14.62 16.9658 14.594 16.9397 14.5681 16.9136C14.4513 16.8092 14.3085 16.7179 14.1657 16.6527C14.023 16.5744 13.8543 16.5222 13.6985 16.4961C13.6596 16.483 13.6207 16.483 13.5817 16.483C13.5687 16.483 13.5428 16.483 13.5298 16.47C13.5168 16.47 13.4909 16.47 13.4779 16.47C13.439 16.47 13.413 16.47 13.3741 16.47C13.3351 16.47 13.3092 16.47 13.2702 16.483C13.2443 16.483 13.2053 16.4961 13.1794 16.4961C13.1534 16.5091 13.1275 16.5091 13.1015 16.5222C13.0756 16.5352 13.0496 16.5352 13.0366 16.5483C13.0107 16.5613 12.9977 16.5744 12.9847 16.5874C12.9328 16.6396 12.9068 16.7048 12.9198 16.7701Z" fill="#280509"/>
<path d="M9.72691 16.9005C9.73988 16.8483 9.71393 16.7961 9.63606 16.7439C9.62308 16.7309 9.59712 16.7178 9.58414 16.7178C9.55819 16.7048 9.54521 16.7048 9.51925 16.6917C9.49329 16.6787 9.46734 16.6787 9.44138 16.6656C9.41542 16.6656 9.38946 16.6526 9.35053 16.6526C9.32457 16.6526 9.28564 16.6526 9.2467 16.6526C9.20777 16.6526 9.18181 16.6526 9.14287 16.6526C9.12989 16.6526 9.10394 16.6526 9.09096 16.6526C9.07798 16.6526 9.05202 16.6526 9.03904 16.6656C9.00011 16.6656 8.96117 16.6787 8.92224 16.6787C8.7665 16.7178 8.61075 16.77 8.46799 16.8353C8.32523 16.9136 8.18246 17.0049 8.06565 17.0962C8.0397 17.1223 8.01374 17.1484 7.98778 17.1745C7.9748 17.1876 7.96183 17.2006 7.94885 17.2137C7.93587 17.2267 7.92289 17.2398 7.90991 17.2528C7.88396 17.2789 7.858 17.305 7.84502 17.3311C7.81906 17.3572 7.80608 17.3833 7.79311 17.4094C7.78013 17.4355 7.75417 17.4616 7.74119 17.4747C7.72821 17.5008 7.71523 17.5138 7.70226 17.5399C7.68928 17.566 7.6763 17.5791 7.66332 17.5921C7.65034 17.6052 7.65034 17.6312 7.63736 17.6443C7.61141 17.7095 7.58545 17.7356 7.58545 17.7356C7.58545 17.7356 7.61141 17.7095 7.66332 17.6704C7.6763 17.6573 7.68928 17.6443 7.70226 17.6312C7.71523 17.6182 7.74119 17.6052 7.75417 17.5921C7.76715 17.5791 7.79311 17.566 7.81906 17.553C7.84502 17.5399 7.858 17.5269 7.88396 17.5138C7.90991 17.5008 7.93587 17.4877 7.96183 17.4747C7.98778 17.4616 8.01374 17.4486 8.0397 17.4355C8.05268 17.4225 8.06565 17.4225 8.07863 17.4094C8.09161 17.3964 8.10459 17.3964 8.11757 17.3833C8.14353 17.3703 8.18246 17.3572 8.20842 17.3442C8.3382 17.292 8.46799 17.2528 8.59777 17.2137C8.72756 17.1876 8.87032 17.1615 8.98713 17.1484C9.01309 17.1484 9.05202 17.1484 9.07798 17.1354C9.09096 17.1354 9.10394 17.1354 9.11692 17.1354C9.12989 17.1354 9.14287 17.1354 9.15585 17.1354C9.18181 17.1354 9.20776 17.1354 9.23372 17.1223C9.25968 17.1223 9.28564 17.1223 9.31159 17.1093C9.33755 17.1093 9.36351 17.0962 9.38946 17.0962C9.41542 17.0962 9.4284 17.0832 9.45436 17.0832C9.48031 17.0832 9.49329 17.0702 9.51925 17.0702C9.53223 17.0571 9.55819 17.0571 9.57116 17.0441C9.66201 17.031 9.70095 16.9788 9.72691 16.9005Z" fill="#280509"/>
<path d="M8.07883 23.9336C8.56624 23.9336 8.96137 23.659 8.96137 23.3203C8.96137 22.9816 8.56624 22.707 8.07883 22.707C7.59142 22.707 7.19629 22.9816 7.19629 23.3203C7.19629 23.659 7.59142 23.9336 8.07883 23.9336Z" fill="#FF7BA1"/>
<path d="M15.0222 23.6597C15.5096 23.6597 15.9047 23.3851 15.9047 23.0464C15.9047 22.7077 15.5096 22.4331 15.0222 22.4331C14.5348 22.4331 14.1396 22.7077 14.1396 23.0464C14.1396 23.3851 14.5348 23.6597 15.0222 23.6597Z" fill="#FF7BA1"/>
<path d="M14.7237 27.4831C14.3992 27.4179 14.0747 27.4309 13.7633 27.5353C13.4128 27.6527 13.1403 27.9007 12.8158 28.0703C12.686 28.1355 12.5433 28.1877 12.4005 28.1747C12.2578 28.1616 12.102 28.0834 11.9722 27.992C11.8165 27.8876 11.6737 27.7702 11.518 27.6658C11.3622 27.5744 11.1935 27.4962 11.0248 27.444C10.298 27.2221 9.49333 27.3918 8.92228 27.8876C8.77951 28.0051 8.66271 28.1486 8.5459 28.2921C9.9346 28.8141 11.1676 29.1795 11.4012 29.8319C11.9722 31.4238 10.1163 31.6848 10.1163 31.6848C10.1163 31.6848 12.1409 32.546 12.8288 31.476C13.5297 30.406 13.0494 29.5448 13.4648 29.0881C13.6075 28.9315 14.503 28.5009 15.5543 27.8485C15.3077 27.6788 15.0222 27.5484 14.7237 27.4831Z" fill="#FF5FAC"/>
<path d="M11.6219 32.1414C10.8692 32.1414 10.1035 31.8282 10.0515 31.8021C9.99963 31.776 9.97367 31.7238 9.97367 31.6716C9.98665 31.6194 10.0256 31.5672 10.0775 31.5672C10.0905 31.5672 10.9081 31.4367 11.2326 30.9017C11.4013 30.6277 11.4013 30.2884 11.2585 29.8839C11.0768 29.362 10.1035 29.0097 8.9873 28.6051C7.93604 28.2267 6.755 27.7961 5.78161 27.0915C4.65248 26.2694 4.06844 25.2385 3.99057 23.9337C3.87377 21.7284 4.96396 20.2278 5.89842 19.3535C6.67713 18.6358 7.63754 18.0617 8.70178 17.6963C9.70112 17.3571 10.7134 17.2266 11.5571 17.344C11.7907 17.3701 12.0243 17.4093 12.2838 17.4354C15.1261 17.7877 19.0067 18.2574 19.6686 22.0416C20.2656 25.4082 16.0606 27.7439 14.2696 28.7356C13.9062 28.9314 13.6077 29.101 13.5428 29.1793C13.387 29.3489 13.387 29.5969 13.374 29.91C13.3611 30.3537 13.3351 30.9148 12.9198 31.5411C12.6213 32.0109 12.1151 32.1414 11.6219 32.1414ZM10.5317 31.7108C11.1288 31.8934 12.2579 32.1153 12.7121 31.4106C13.0885 30.8365 13.1015 30.3406 13.1275 29.91C13.1404 29.5577 13.1534 29.2445 13.3611 29.0097C13.4519 28.9183 13.6855 28.7878 14.1528 28.5138C15.9049 27.5482 19.9931 25.2777 19.435 22.0807C19.1495 20.4888 18.254 19.3666 16.6836 18.6619C15.3208 18.0487 13.6855 17.8529 12.2579 17.6702C11.9983 17.6441 11.7647 17.605 11.5311 17.5789C10.7264 17.4745 9.75304 17.5919 8.79263 17.9182C7.76732 18.2705 6.83287 18.8185 6.08011 19.5232C5.1846 20.3583 4.13334 21.7937 4.25014 23.9076C4.31504 25.1211 4.87311 26.0998 5.93735 26.8696C6.8718 27.5482 8.03987 27.9788 9.07815 28.3572C10.2981 28.8009 11.2715 29.1532 11.4922 29.7795C11.6609 30.2623 11.6479 30.6799 11.4402 31.0192C11.2196 31.3976 10.8303 31.6064 10.5317 31.7108Z" fill="#9E0026"/>
<path d="M18.2539 7.24427C18.215 7.19208 18.189 7.13988 18.1241 7.11379C18.0592 7.07464 17.9943 7.04854 17.9424 7.02244C17.8126 6.97025 17.6828 6.9572 17.553 6.94415C17.3065 6.9311 17.0469 6.97025 16.8133 7.03549C16.346 7.17903 15.8529 7.47915 15.6063 7.92281C15.5414 8.04025 15.4765 8.18379 15.5024 8.32732C15.5154 8.40562 15.5673 8.47086 15.6582 8.47086C15.7101 8.47086 15.775 8.44476 15.775 8.37952C15.762 8.41867 15.762 8.41867 15.775 8.37952C15.775 8.36647 15.775 8.34037 15.788 8.32732C15.788 8.32732 15.8009 8.30123 15.8009 8.28818C15.8269 8.24903 15.8658 8.20988 15.9048 8.17074C15.9956 8.0794 16.0735 7.98806 16.1773 7.89671C16.2682 7.81842 16.346 7.75318 16.4499 7.70098C16.5537 7.63574 16.6575 7.58354 16.7484 7.55744C16.982 7.4661 17.2026 7.41391 17.4362 7.41391C17.566 7.41391 17.6828 7.41391 17.7996 7.42696C17.9294 7.42696 18.0592 7.45305 18.189 7.41391C18.2539 7.40086 18.3058 7.29647 18.2539 7.24427Z" fill="#DDD94B"/>
<path d="M18.9029 7.54464C18.8899 7.53159 18.864 7.51854 18.851 7.50549C18.7472 7.4533 18.6304 7.51854 18.6304 7.63598C18.6304 7.75342 18.7602 7.81867 18.851 7.76647C18.877 7.75342 18.8899 7.74037 18.9029 7.72732C18.9548 7.66208 18.9548 7.59684 18.9029 7.54464Z" fill="#DDD94B"/>
<path d="M22.7054 8.26211C22.5886 8.15772 22.4588 8.05333 22.316 7.98809C22.1733 7.90979 22.0305 7.87065 21.8877 7.81845C21.7839 7.77931 21.693 7.93589 21.7839 8.00114C21.9007 8.09248 22.0175 8.19687 22.1343 8.31431C22.2381 8.4187 22.3549 8.51004 22.4458 8.62748C22.6275 8.83626 22.7703 9.05809 22.8222 9.31907C22.8222 9.33211 22.8352 9.38431 22.8352 9.38431C22.8352 9.41041 22.8352 9.44955 22.8481 9.47565C22.8481 9.5409 22.8481 9.59309 22.8481 9.65833C22.8481 9.67138 22.8481 9.67138 22.8481 9.68443C22.8481 9.69748 22.8481 9.71053 22.8352 9.72358C22.8352 9.76273 22.8222 9.78882 22.8092 9.81492C22.7962 9.84102 22.7962 9.86712 22.7832 9.88016C22.7832 9.89321 22.7573 9.95846 22.7573 9.94541C22.7313 9.9976 22.7054 10.0628 22.6664 10.115C22.6535 10.1411 22.6275 10.1672 22.6145 10.1933L22.5886 10.2325C22.5107 10.3369 22.4198 10.4152 22.355 10.5196C22.316 10.5848 22.355 10.6761 22.4198 10.6892C22.6794 10.7544 22.926 10.5718 23.0688 10.376C23.2245 10.1672 23.2894 9.93236 23.3154 9.68443C23.3673 9.13638 23.0947 8.60138 22.7054 8.26211Z" fill="#DDD94B"/>
<path d="M21.8877 10.5457C21.8617 10.5066 21.8098 10.4805 21.7449 10.4805C21.7449 10.4805 21.7449 10.4805 21.7319 10.4805H21.7189C21.68 10.4805 21.654 10.4935 21.6281 10.5196C21.6021 10.5457 21.5892 10.5718 21.5762 10.5979C21.5762 10.611 21.5762 10.624 21.5762 10.624V10.6371V10.6501C21.5762 10.6632 21.5762 10.6762 21.5762 10.6762C21.5892 10.7153 21.6021 10.7414 21.6281 10.7545C21.654 10.7806 21.693 10.7936 21.7319 10.7936H21.7449H21.7579C21.8228 10.7936 21.8617 10.7675 21.8877 10.7284C21.9396 10.6892 21.9396 10.5979 21.8877 10.5457Z" fill="#DDD94B"/>
<path d="M1.86185 5.31298C1.5893 5.39127 1.34271 5.49566 1.13505 5.6914C0.927397 5.88713 0.771654 6.1481 0.706762 6.43518C0.641869 6.7353 0.641869 7.06152 0.745697 7.3486C0.797612 7.50518 0.862504 7.64872 0.966332 7.76616C1.05718 7.87055 1.19995 7.97494 1.34271 7.98799C1.39462 7.98799 1.44654 7.93579 1.44654 7.8836C1.44654 7.81835 1.42058 7.77921 1.4076 7.71396C1.39462 7.64872 1.36867 7.58347 1.32973 7.51823C1.27782 7.41384 1.23888 7.3225 1.19995 7.21811C1.13505 6.99628 1.1091 6.7614 1.14803 6.53957C1.19995 6.31774 1.2908 6.10896 1.42058 5.92628C1.55037 5.74359 1.70611 5.56091 1.92674 5.46957C2.01759 5.44347 1.9527 5.28688 1.86185 5.31298Z" fill="#DDD94B"/>
<path d="M1.53758 8.28809C1.32992 8.28809 1.32992 8.61431 1.53758 8.61431C1.73226 8.61431 1.73226 8.28809 1.53758 8.28809Z" fill="#DDD94B"/>
<path d="M2.95206 13.5597C2.91313 13.4553 2.86121 13.3509 2.8093 13.2466C2.71845 13.0508 2.64058 12.8551 2.57569 12.6463C2.52377 12.4375 2.48484 12.2287 2.45888 12.0069C2.43292 11.7851 2.40697 11.5502 2.43292 11.3284C2.4459 11.1848 2.23824 11.1718 2.18633 11.2892C2.10846 11.5241 2.04357 11.759 2.03059 12.0069C2.01761 12.2548 2.04357 12.5158 2.10846 12.7637C2.17335 12.9986 2.25122 13.2335 2.36803 13.4553C2.43292 13.5728 2.51079 13.6772 2.60164 13.7685C2.67951 13.8468 2.79632 13.9512 2.90015 13.9642C2.96504 13.9773 3.01696 13.9381 3.01696 13.8729C3.04291 13.7816 2.991 13.6641 2.95206 13.5597Z" fill="#DDD94B"/>
<path d="M3.78273 13.6382C3.58805 13.6382 3.58805 13.9514 3.78273 13.9514C3.9774 13.9514 3.9774 13.6382 3.78273 13.6382Z" fill="#DDD94B"/>
<path d="M7.8454 10.4542C7.76753 10.2976 7.67668 10.1541 7.61178 9.99749C7.53391 9.8148 7.45604 9.63212 7.33924 9.47553C7.22243 9.332 7.06669 9.20151 6.89797 9.12322C6.80712 9.08407 6.70329 9.05797 6.61244 9.04492C6.50861 9.03187 6.41776 9.04492 6.32691 9.03187C6.19713 9.01883 6.2101 9.21456 6.32691 9.22761C6.48265 9.24066 6.65137 9.37114 6.78116 9.46249C6.91094 9.55383 7.02775 9.68432 7.10562 9.82785C7.26136 10.1149 7.33924 10.5716 7.71561 10.6499C7.80646 10.6891 7.89731 10.5716 7.8454 10.4542Z" fill="#DDD94B"/>
<path d="M10.9477 1.63342C10.727 1.3072 10.4285 0.994029 10.0781 0.811345C9.87046 0.706955 9.63685 0.628662 9.40324 0.628662C9.15665 0.628662 8.94899 0.706955 8.76729 0.87659C8.71538 0.928785 8.75431 1.03318 8.83218 1.03318C8.8841 1.03318 8.93601 1.03318 8.98793 1.03318C9.0658 1.04622 9.14367 1.03318 9.22154 1.04622C9.31239 1.05927 9.41622 1.07232 9.50707 1.09842C9.68877 1.15061 9.84451 1.24196 9.98727 1.34635C10.1171 1.43769 10.2598 1.58123 10.3636 1.72476C10.4156 1.77696 10.4545 1.8422 10.5064 1.92049C10.5324 1.97269 10.5583 2.02489 10.5713 2.10318C10.5713 2.10318 10.5843 2.16842 10.5713 2.12928C10.5583 2.09013 10.5843 2.19452 10.5843 2.19452C10.5843 2.20757 10.5843 2.20757 10.5843 2.20757C10.5843 2.20757 10.5973 2.22062 10.5973 2.23367C10.6102 2.25976 10.6362 2.27281 10.6492 2.28586C10.753 2.35111 10.8698 2.31196 10.9477 2.23367C11.1294 2.07708 11.0645 1.8161 10.9477 1.63342Z" fill="#DDD94B"/>
<path d="M10.5844 2.2212C10.5981 2.26268 10.5569 2.17973 10.5844 2.2212Z" fill="#DDD94B"/>
<path d="M10.5837 2.84691C10.389 2.92521 10.389 3.16009 10.5707 3.23838H10.5837C10.7135 3.29057 10.8433 3.16009 10.8433 3.04265C10.8433 2.91216 10.7135 2.79472 10.5837 2.84691Z" fill="#DDD94B"/>
<path d="M6.53484 4.4259C6.48293 4.17798 6.39208 3.9431 6.35314 3.68212C6.34017 3.55163 6.34017 3.42115 6.35314 3.29066C6.36612 3.16017 6.3791 3.02968 6.41804 2.91224C6.45697 2.80785 6.31421 2.7687 6.26229 2.847C6.17145 2.97749 6.09357 3.09492 6.05464 3.25151C6.0157 3.39505 5.98975 3.55163 5.98975 3.70822C5.98975 4.00834 6.0806 4.37371 6.32719 4.56944C6.41804 4.62164 6.5608 4.55639 6.53484 4.4259Z" fill="#DDD94B"/>
<path d="M11.0896 10.663C10.7781 10.6108 10.5056 10.7934 10.3758 11.0675C10.22 11.4067 10.233 11.7591 10.3628 12.0983C10.4277 12.281 10.5185 12.4767 10.6613 12.6203C10.7262 12.6855 10.817 12.7769 10.9209 12.7377C11.0247 12.7116 11.0377 12.6072 11.0247 12.5159C10.9858 12.3202 10.8819 12.1505 10.8041 11.9678C10.7392 11.8243 10.7002 11.6547 10.6873 11.485C10.6873 11.211 10.843 10.8978 11.1026 10.7674C11.1545 10.7543 11.1545 10.663 11.0896 10.663Z" fill="#DDD94B"/>
<path d="M11.8166 6.06982C11.3883 6.09592 11.0119 6.42214 10.8172 6.80056C10.7134 6.99629 10.6485 7.23117 10.6355 7.453C10.6226 7.64873 10.6226 7.988 10.8302 8.09239C10.8951 8.13154 10.986 8.10544 11.0249 8.04019C11.0768 7.94885 11.0638 7.84446 11.0638 7.75312C11.0638 7.66178 11.0638 7.57044 11.0638 7.4791C11.0768 7.33556 11.1287 7.15288 11.1806 7.02239C11.3234 6.69617 11.57 6.44824 11.8555 6.25251C11.9334 6.20031 11.9074 6.06982 11.8166 6.06982Z" fill="#DDD94B"/>
<path d="M17.9034 2.97739C17.8385 2.8469 17.7477 2.72946 17.6568 2.61202C17.4751 2.39019 17.2415 2.20751 16.9949 2.07702C16.7354 1.93348 16.4498 1.85519 16.1513 1.82909C16.0086 1.81604 15.8658 1.81604 15.723 1.85519C15.5932 1.89434 15.4764 1.95958 15.3467 2.01178C15.2947 2.03787 15.3207 2.12922 15.3726 2.11617C15.5024 2.10312 15.6322 2.12922 15.749 2.14226C15.8658 2.15531 15.9696 2.16836 16.0864 2.18141C16.32 2.22056 16.5537 2.3119 16.7613 2.42934C16.982 2.54678 17.1636 2.69031 17.3194 2.88605C17.3843 2.96434 17.4492 3.05568 17.5011 3.16007C17.566 3.26446 17.6439 3.4341 17.7477 3.48629C17.8126 3.52544 17.9164 3.51239 17.9553 3.4341C18.0332 3.30361 17.9683 3.12093 17.9034 2.97739Z" fill="#DDD94B"/>
<path d="M18.1113 4.04738C18.0984 4.03433 18.0724 4.00823 18.0465 3.99518C17.9945 3.95603 17.9167 3.95603 17.8518 3.99518C17.8258 4.00823 17.8128 4.02128 17.7869 4.04738C17.6441 4.17786 17.7609 4.42579 17.9426 4.42579C18.1373 4.42579 18.2541 4.17786 18.1113 4.04738Z" fill="#DDD94B"/>
<path d="M6.3134 20.0059C6.20957 20.0581 6.10574 20.1494 6.01489 20.2277C5.92404 20.3191 5.83319 20.4234 5.75532 20.5278C5.59958 20.7366 5.46979 20.9454 5.35299 21.1672C5.2232 21.4021 5.11937 21.637 5.02852 21.8849C4.93767 22.1067 4.8598 22.4069 4.95065 22.6417C4.97661 22.72 5.05448 22.7331 5.11937 22.6809C5.30107 22.5243 5.39192 22.2633 5.46979 22.0415C5.54767 21.8197 5.65149 21.5978 5.75532 21.3891C5.85915 21.1672 5.97596 20.9584 6.10574 20.7497C6.17063 20.6453 6.22255 20.5409 6.28744 20.4365C6.33935 20.3321 6.40425 20.2147 6.44318 20.0972C6.48212 20.032 6.39127 19.9798 6.3134 20.0059Z" fill="#FFB3CC"/>
<path d="M4.93775 23.0984C4.63924 23.0984 4.63924 23.5551 4.93775 23.5551C5.23625 23.5551 5.23625 23.0984 4.93775 23.0984Z" fill="#FFB3CC"/>
<path d="M18.7986 21.5586C18.7726 21.4412 18.7337 21.3237 18.6948 21.2063C18.6169 20.9714 18.5131 20.7365 18.3833 20.5147C18.1367 20.0971 17.7733 19.6926 17.2931 19.5621C17.2541 19.5491 17.2282 19.5882 17.2412 19.6274C17.4878 20.0058 17.7863 20.3451 18.0069 20.7365C18.1237 20.9323 18.2146 21.128 18.2795 21.3368C18.3184 21.4412 18.3443 21.5586 18.3703 21.663C18.3963 21.7804 18.4092 21.937 18.5131 22.0153C18.6039 22.0936 18.7077 22.0806 18.7856 21.9762C18.8765 21.8718 18.8245 21.676 18.7986 21.5586Z" fill="#FFB3CC"/>
<path d="M18.5264 23.8813C18.2799 24.1032 18.0592 24.3381 17.8256 24.5729C17.7088 24.6904 17.592 24.7948 17.4752 24.8991C17.3324 25.0166 17.2156 25.121 17.2026 25.3037C17.2026 25.3428 17.2286 25.382 17.2675 25.395C17.4622 25.4472 17.605 25.3428 17.7607 25.2254C17.8905 25.1079 18.0333 24.9905 18.1501 24.86C18.3837 24.586 18.5784 24.2989 18.6562 23.9466C18.6692 23.8813 18.5784 23.8422 18.5264 23.8813Z" fill="#FFB3CC"/>
<path d="M16.8653 25.4992C16.8523 25.4862 16.8264 25.4731 16.8134 25.4601C16.8004 25.4601 16.7875 25.447 16.7745 25.447C16.7485 25.434 16.7226 25.434 16.6966 25.447C16.6706 25.4601 16.6447 25.4731 16.6317 25.4862C16.6058 25.5123 16.5928 25.5514 16.5928 25.5906C16.5928 25.6297 16.6058 25.6689 16.6317 25.695C16.6447 25.708 16.6706 25.7211 16.6966 25.7341C16.7226 25.7472 16.7485 25.7472 16.7745 25.7341C16.8134 25.7211 16.8394 25.708 16.8653 25.6819C16.8913 25.6558 16.9043 25.6297 16.9043 25.5906C16.9043 25.5514 16.8913 25.5253 16.8653 25.4992Z" fill="#FFB3CC"/>
</svg>
